M48
; DRILL file {KiCad (5.1.6-dirty)} date Sun May 24 17:35:43 2020
; FORMAT={-:-/ absolute / inch / decimal}
; #@! TF.CreationDate,2020-05-24T17:35:43+02:00
; #@! TF.GenerationSoftware,Kicad,Pcbnew,(5.1.6-dirty)
; #@! TF.FileFunction,Plated,1,2,PTH
FMAT,2
INCH
T1C0.0157
T2C0.0315
T3C0.0394
T4C0.0748
T5C0.1181
%
G90
G05
T1
X2.0751Y-3.8058
X2.0791Y-1.8846
X2.0791Y-4.0303
X2.1286Y-2.4213
X2.1381Y-3.6562
X2.1719Y-2.3268
X2.2244Y-2.3425
X2.2586Y-1.8649
X2.3391Y-3.1609
X2.3824Y-3.1609
X2.4567Y-2.311
X2.4649Y-3.5499
X2.4843Y-3.7677
X2.5079Y-2.3386
X2.5492Y-3.0531
X2.6006Y-2.5629
X2.6047Y-3.0814
X2.6284Y-2.8587
X2.6342Y-2.7547
X2.6598Y-4.3649
X2.6736Y-2.8649
X2.722Y-3.1742
X2.7286Y-2.6949
X2.7287Y-2.5736
X2.7641Y-3.0854
X2.7681Y-1.8649
X2.7686Y-4.1769
X2.7781Y-3.1384
X2.7838Y-2.9003
X2.7875Y-2.266
X2.8035Y-2.7862
X2.8117Y-3.8169
X2.851Y-2.5949
X2.8986Y-2.5249
X2.9134Y-3.7441
X2.9373Y-2.7507
X2.9846Y-1.8649
X2.9886Y-2.2549
X3.0986Y-3.7449
X3.1499Y-2.4869
X3.1696Y-2.9043
X3.1696Y-3.1681
X3.1893Y-3.5224
X3.2011Y-1.8649
X3.2011Y-3.2704
X3.2138Y-2.7442
X3.2186Y-2.2549
X3.2448Y-4.3549
X3.2489Y-2.7263
X3.2897Y-2.7192
X3.2917Y-2.5657
X3.3062Y-2.6484
X3.3586Y-3.5066
X3.3586Y-3.6011
X3.3625Y-2.6444
X3.3625Y-2.4869
X3.3787Y-2.8062
X3.3822Y-3.6681
X3.398Y-1.8649
X3.4019Y-3.361
X3.4062Y-2.2549
X3.4295Y-3.4358
X3.4297Y-3.5897
X3.4334Y-2.6759
X3.4358Y-3.2929
X3.4452Y-3.2547
X3.4688Y-3.5854
X3.4728Y-2.8452
X3.4786Y-3.7449
X3.4935Y-2.4859
X3.5043Y-2.7232
X3.524Y-2.8475
X3.524Y-2.8869
X3.5397Y-3.3649
X3.5436Y-3.1838
X3.5476Y-3.2271
X3.5633Y-2.5932
X3.5673Y-3.3019
X3.5948Y-1.8649
X3.5988Y-2.5618
X3.6027Y-2.9161
X3.6224Y-3.3058
X3.6398Y-4.3549
X3.6539Y-3.5066
X3.6696Y-2.5696
X3.7129Y-1.8649
X3.7562Y-2.5578
X3.7681Y-2.8058
X3.7877Y-3.4515
X3.8026Y-2.3404
X3.811Y-2.2087
X3.8207Y-3.5657
X3.8271Y-3.0814
X3.8386Y-1.9349
X3.8417Y-3.6192
X3.8783Y-3.046
X3.8786Y-3.7449
X3.8822Y-3.5066
X3.894Y-2.9988
X3.9098Y-2.0499
X3.9177Y-3.5736
X3.9216Y-2.483
X3.9295Y-2.8058
X3.9649Y-2.5618
X3.9686Y-2.2861
X3.9839Y-2.8098
X3.9844Y-2.0749
X3.9885Y-1.8649
X4.0286Y-1.9349
X4.0358Y-2.794
X4.0397Y-3.2153
X4.0398Y-4.3549
X4.0805Y-2.7783
X4.1303Y-3.2271
X4.1342Y-2.7468
X4.1421Y-2.8058
X4.1736Y-2.483
X4.1755Y-2.5224
X4.1775Y-2.5618
X4.1814Y-3.2822
X4.1886Y-1.8649
X4.1972Y-2.3492
X4.2186Y-3.7549
X4.2326Y-2.7744
X4.2326Y-3.2783
X4.2366Y-2.5145
X4.2562Y-3.0066
X4.3153Y-2.3846
X4.335Y-2.9673
X4.3468Y-2.4358
X4.3693Y-2.5912
X4.3822Y-2.7468
X4.3822Y-3.2901
X4.3822Y-3.4791
X4.4198Y-4.3549
X4.4486Y-1.8649
X4.6578Y-3.6562
X4.6578Y-4.3452
T2
X2.1555Y-3.8091
X2.2933Y-3.8091
T3
X2.2586Y-1.6287
X2.2586Y-4.6011
X2.4586Y-1.6287
X2.4586Y-4.6011
X2.6586Y-1.6287
X2.6586Y-4.6011
X2.8586Y-1.6287
X2.8586Y-4.6011
X3.0586Y-1.6287
X3.0586Y-4.6011
X3.2586Y-1.6287
X3.2586Y-4.6011
X3.4586Y-1.6287
X3.4586Y-4.6011
X3.6586Y-1.6287
X3.6586Y-4.6011
X3.8586Y-1.6287
X3.8586Y-4.6011
X4.0586Y-1.6287
X4.0586Y-4.6011
X4.2586Y-1.6287
X4.2586Y-4.6011
X4.4586Y-1.6287
X4.4586Y-4.6011
X3.0Y-2.6024
X3.0Y-2.7024
X3.0Y-2.8024
X3.0Y-2.9024
X3.0Y-3.0024
X3.0Y-3.1024
X3.0Y-3.2024
X3.0Y-3.3024
X3.0Y-3.4024
X3.0Y-3.5024
X3.1Y-2.6024
X3.1Y-2.7024
X3.1Y-2.8024
X3.1Y-2.9024
X3.1Y-3.0024
X3.1Y-3.1024
X3.1Y-3.2024
X3.1Y-3.3024
X3.1Y-3.4024
X3.1Y-3.5024
T4
X2.3228Y-2.3976
X2.3228Y-2.9173
T5
X2.3665Y-4.0972
X4.3507Y-2.1326
T0
M30
