M48
; DRILL file {KiCad (5.1.6-dirty)} date Fri May 22 11:22:18 2020
; FORMAT={-:-/ absolute / inch / decimal}
; #@! TF.CreationDate,2020-05-22T11:22:18+02:00
; #@! TF.GenerationSoftware,Kicad,Pcbnew,(5.1.6-dirty)
; #@! TF.FileFunction,Plated,1,2,PTH
FMAT,2
INCH
T1C0.0157
T2C0.0315
T3C0.0394
T4C0.0748
%
G90
G05
T1
X2.0686Y-2.2749
X2.0886Y-4.0149
X2.1286Y-2.4213
X2.1719Y-2.3268
X2.2244Y-2.3425
X2.2586Y-1.8649
X2.3391Y-3.1609
X2.3824Y-3.1609
X2.4567Y-2.311
X2.4843Y-3.7677
X2.5079Y-2.3386
X2.5492Y-3.0531
X2.6006Y-2.5629
X2.6047Y-3.0425
X2.6378Y-2.8504
X2.6394Y-3.0611
X2.6598Y-4.3649
X2.6686Y-2.2749
X2.6693Y-3.0354
X2.7024Y-2.9566
X2.7244Y-2.5787
X2.7286Y-2.6949
X2.7686Y-4.1769
X2.7786Y-2.8967
X2.7875Y-2.266
X2.8366Y-3.8169
X2.851Y-2.5949
X2.8986Y-2.5249
X2.9134Y-3.7441
X2.9286Y-2.7699
X2.9386Y-3.4049
X2.9386Y-3.4849
X2.9886Y-2.2549
X3.0186Y-3.2749
X3.0886Y-3.0449
X3.0986Y-2.5249
X3.0986Y-3.7449
X3.1078Y-3.2377
X3.1086Y-2.7749
X3.1491Y-2.9444
X3.1578Y-3.4541
X3.198Y-3.0155
X3.2186Y-2.2549
X3.2448Y-4.3549
X3.3086Y-2.74
X3.3192Y-2.5216
X3.4055Y-2.81
X3.4062Y-2.2549
X3.4086Y-3.4936
X3.4578Y-3.2548
X3.4724Y-3.4803
X3.4786Y-3.7449
X3.4794Y-3.5291
X3.5386Y-2.5249
X3.5455Y-2.8043
X3.6078Y-3.2825
X3.6086Y-2.8325
X3.6398Y-4.3549
X3.6578Y-3.2798
X3.6586Y-3.0449
X3.6586Y-3.1325
X3.7078Y-3.4149
X3.7086Y-2.7549
X3.7086Y-2.8455
X3.7475Y-3.5825
X3.77Y-3.5276
X3.8Y-3.5549
X3.8026Y-2.3404
X3.811Y-2.2087
X3.8386Y-1.9349
X3.8786Y-3.7449
X3.9106Y-2.0429
X3.9186Y-2.5549
X3.9686Y-2.2861
X3.98Y-3.2
X3.98Y-3.31
X3.9844Y-2.0749
X4.0286Y-1.9349
X4.0351Y-2.9295
X4.0394Y-2.6929
X4.0398Y-4.3549
X4.0472Y-2.6102
X4.0709Y-3.4124
X4.141Y-3.1142
X4.1424Y-3.1931
X4.1437Y-3.3268
X4.1686Y-2.5149
X4.1886Y-1.8649
X4.2186Y-3.7549
X4.2205Y-3.1575
X4.2244Y-3.0236
X4.25Y-3.21
X4.2559Y-3.1298
X4.2597Y-2.9881
X4.2952Y-3.0386
X4.315Y-2.5433
X4.3252Y-3.0642
X4.3268Y-3.2402
X4.3537Y-3.0323
X4.4094Y-2.5236
X4.4198Y-4.3549
X4.4486Y-1.8649
X4.5Y-2.5236
X4.5486Y-4.3549
X4.5906Y-2.5512
X4.6Y-2.76
X4.6386Y-3.9249
X4.6386Y-4.2149
X4.6386Y-4.3549
X4.6486Y-1.8749
X4.6486Y-2.2049
T2
X2.1555Y-3.8091
X2.2933Y-3.8091
T3
X2.2586Y-1.6287
X2.2586Y-4.6011
X2.4586Y-1.6287
X2.4586Y-4.6011
X2.6586Y-1.6287
X2.6586Y-4.6011
X2.8586Y-1.6287
X2.8586Y-4.6011
X3.0586Y-1.6287
X3.0586Y-4.6011
X3.2586Y-1.6287
X3.2586Y-4.6011
X3.4586Y-1.6287
X3.4586Y-4.6011
X3.6586Y-1.6287
X3.6586Y-4.6011
X3.8586Y-1.6287
X3.8586Y-4.6011
X4.0586Y-1.6287
X4.0586Y-4.6011
X4.2586Y-1.6287
X4.2586Y-4.6011
X4.4586Y-1.6287
X4.4586Y-4.6011
X4.4086Y-2.6649
X4.4086Y-2.7649
X4.4086Y-2.8649
X4.4086Y-2.9649
X4.4086Y-3.0649
X4.4086Y-3.1649
X4.4086Y-3.2649
X4.4086Y-3.3649
X4.4086Y-3.4649
X4.4086Y-3.5649
X4.5086Y-2.6649
X4.5086Y-2.7649
X4.5086Y-2.8649
X4.5086Y-2.9649
X4.5086Y-3.0649
X4.5086Y-3.1649
X4.5086Y-3.2649
X4.5086Y-3.3649
X4.5086Y-3.4649
X4.5086Y-3.5649
T4
X2.3228Y-2.3976
X2.3228Y-2.9173
T0
M30
