G04 #@! TF.GenerationSoftware,KiCad,Pcbnew,(5.1.6-dirty)*
G04 #@! TF.CreationDate,2020-05-24T16:44:56+02:00*
G04 #@! TF.ProjectId,esp32control,65737033-3263-46f6-9e74-726f6c2e6b69,rev?*
G04 #@! TF.SameCoordinates,Original*
G04 #@! TF.FileFunction,Soldermask,Bot*
G04 #@! TF.FilePolarity,Negative*
%FSLAX46Y46*%
G04 Gerber Fmt 4.6, Leading zero omitted, Abs format (unit mm)*
G04 Created by KiCad (PCBNEW (5.1.6-dirty)) date 2020-05-24 16:44:56*
%MOMM*%
%LPD*%
G01*
G04 APERTURE LIST*
%ADD10C,0.200000*%
G04 APERTURE END LIST*
D10*
G36*
X103264926Y-115681522D02*
G01*
X103264929Y-115681523D01*
X103264930Y-115681523D01*
X103434580Y-115732986D01*
X103434582Y-115732987D01*
X103434585Y-115732988D01*
X103590932Y-115816556D01*
X103727975Y-115929025D01*
X103840444Y-116066069D01*
X103924012Y-116222414D01*
X103975478Y-116392073D01*
X103988500Y-116524289D01*
X103988500Y-117212710D01*
X103975478Y-117344926D01*
X103975477Y-117344928D01*
X103975477Y-117344931D01*
X103924014Y-117514581D01*
X103924012Y-117514584D01*
X103924012Y-117514585D01*
X103840444Y-117670932D01*
X103727975Y-117807975D01*
X103590931Y-117920444D01*
X103434586Y-118004012D01*
X103434583Y-118004013D01*
X103434581Y-118004014D01*
X103264931Y-118055477D01*
X103264930Y-118055477D01*
X103264927Y-118055478D01*
X103088500Y-118072854D01*
X102912074Y-118055478D01*
X102912071Y-118055477D01*
X102912070Y-118055477D01*
X102742420Y-118004014D01*
X102742418Y-118004013D01*
X102742415Y-118004012D01*
X102586070Y-117920444D01*
X102449026Y-117807975D01*
X102336557Y-117670931D01*
X102252986Y-117514581D01*
X102201522Y-117344932D01*
X102188500Y-117212711D01*
X102188500Y-116524290D01*
X102201522Y-116392074D01*
X102201523Y-116392070D01*
X102252986Y-116222420D01*
X102252987Y-116222418D01*
X102252988Y-116222415D01*
X102336556Y-116066068D01*
X102449025Y-115929025D01*
X102586069Y-115816556D01*
X102742414Y-115732988D01*
X102742417Y-115732987D01*
X102742419Y-115732986D01*
X102912069Y-115681523D01*
X102912070Y-115681523D01*
X102912073Y-115681522D01*
X103088500Y-115664146D01*
X103264926Y-115681522D01*
G37*
G36*
X113424926Y-115681522D02*
G01*
X113424929Y-115681523D01*
X113424930Y-115681523D01*
X113594580Y-115732986D01*
X113594582Y-115732987D01*
X113594585Y-115732988D01*
X113750932Y-115816556D01*
X113887975Y-115929025D01*
X114000444Y-116066069D01*
X114084012Y-116222414D01*
X114135478Y-116392073D01*
X114148500Y-116524289D01*
X114148500Y-117212710D01*
X114135478Y-117344926D01*
X114135477Y-117344928D01*
X114135477Y-117344931D01*
X114084014Y-117514581D01*
X114084012Y-117514584D01*
X114084012Y-117514585D01*
X114000444Y-117670932D01*
X113887975Y-117807975D01*
X113750931Y-117920444D01*
X113594586Y-118004012D01*
X113594583Y-118004013D01*
X113594581Y-118004014D01*
X113424931Y-118055477D01*
X113424930Y-118055477D01*
X113424927Y-118055478D01*
X113248500Y-118072854D01*
X113072074Y-118055478D01*
X113072071Y-118055477D01*
X113072070Y-118055477D01*
X112902420Y-118004014D01*
X112902418Y-118004013D01*
X112902415Y-118004012D01*
X112746070Y-117920444D01*
X112609026Y-117807975D01*
X112496557Y-117670931D01*
X112412986Y-117514581D01*
X112361522Y-117344932D01*
X112348500Y-117212711D01*
X112348500Y-116524290D01*
X112361522Y-116392074D01*
X112361523Y-116392070D01*
X112412986Y-116222420D01*
X112412987Y-116222418D01*
X112412988Y-116222415D01*
X112496556Y-116066068D01*
X112609025Y-115929025D01*
X112746069Y-115816556D01*
X112902414Y-115732988D01*
X112902417Y-115732987D01*
X112902419Y-115732986D01*
X113072069Y-115681523D01*
X113072070Y-115681523D01*
X113072073Y-115681522D01*
X113248500Y-115664146D01*
X113424926Y-115681522D01*
G37*
G36*
X108344926Y-115681522D02*
G01*
X108344929Y-115681523D01*
X108344930Y-115681523D01*
X108514580Y-115732986D01*
X108514582Y-115732987D01*
X108514585Y-115732988D01*
X108670932Y-115816556D01*
X108807975Y-115929025D01*
X108920444Y-116066069D01*
X109004012Y-116222414D01*
X109055478Y-116392073D01*
X109068500Y-116524289D01*
X109068500Y-117212710D01*
X109055478Y-117344926D01*
X109055477Y-117344928D01*
X109055477Y-117344931D01*
X109004014Y-117514581D01*
X109004012Y-117514584D01*
X109004012Y-117514585D01*
X108920444Y-117670932D01*
X108807975Y-117807975D01*
X108670931Y-117920444D01*
X108514586Y-118004012D01*
X108514583Y-118004013D01*
X108514581Y-118004014D01*
X108344931Y-118055477D01*
X108344930Y-118055477D01*
X108344927Y-118055478D01*
X108168500Y-118072854D01*
X107992074Y-118055478D01*
X107992071Y-118055477D01*
X107992070Y-118055477D01*
X107822420Y-118004014D01*
X107822418Y-118004013D01*
X107822415Y-118004012D01*
X107666070Y-117920444D01*
X107529026Y-117807975D01*
X107416557Y-117670931D01*
X107332986Y-117514581D01*
X107281522Y-117344932D01*
X107268500Y-117212711D01*
X107268500Y-116524290D01*
X107281522Y-116392074D01*
X107281523Y-116392070D01*
X107332986Y-116222420D01*
X107332987Y-116222418D01*
X107332988Y-116222415D01*
X107416556Y-116066068D01*
X107529025Y-115929025D01*
X107666069Y-115816556D01*
X107822414Y-115732988D01*
X107822417Y-115732987D01*
X107822419Y-115732986D01*
X107992069Y-115681523D01*
X107992070Y-115681523D01*
X107992073Y-115681522D01*
X108168500Y-115664146D01*
X108344926Y-115681522D01*
G37*
G36*
X57544926Y-115681522D02*
G01*
X57544929Y-115681523D01*
X57544930Y-115681523D01*
X57714580Y-115732986D01*
X57714582Y-115732987D01*
X57714585Y-115732988D01*
X57870932Y-115816556D01*
X58007975Y-115929025D01*
X58120444Y-116066069D01*
X58204012Y-116222414D01*
X58255478Y-116392073D01*
X58268500Y-116524289D01*
X58268500Y-117212710D01*
X58255478Y-117344926D01*
X58255477Y-117344928D01*
X58255477Y-117344931D01*
X58204014Y-117514581D01*
X58204012Y-117514584D01*
X58204012Y-117514585D01*
X58120444Y-117670932D01*
X58007975Y-117807975D01*
X57870931Y-117920444D01*
X57714586Y-118004012D01*
X57714583Y-118004013D01*
X57714581Y-118004014D01*
X57544931Y-118055477D01*
X57544930Y-118055477D01*
X57544927Y-118055478D01*
X57368500Y-118072854D01*
X57192074Y-118055478D01*
X57192071Y-118055477D01*
X57192070Y-118055477D01*
X57022420Y-118004014D01*
X57022418Y-118004013D01*
X57022415Y-118004012D01*
X56866070Y-117920444D01*
X56729026Y-117807975D01*
X56616557Y-117670931D01*
X56532986Y-117514581D01*
X56481522Y-117344932D01*
X56468500Y-117212711D01*
X56468500Y-116524290D01*
X56481522Y-116392074D01*
X56481523Y-116392070D01*
X56532986Y-116222420D01*
X56532987Y-116222418D01*
X56532988Y-116222415D01*
X56616556Y-116066068D01*
X56729025Y-115929025D01*
X56866069Y-115816556D01*
X57022414Y-115732988D01*
X57022417Y-115732987D01*
X57022419Y-115732986D01*
X57192069Y-115681523D01*
X57192070Y-115681523D01*
X57192073Y-115681522D01*
X57368500Y-115664146D01*
X57544926Y-115681522D01*
G37*
G36*
X62624926Y-115681522D02*
G01*
X62624929Y-115681523D01*
X62624930Y-115681523D01*
X62794580Y-115732986D01*
X62794582Y-115732987D01*
X62794585Y-115732988D01*
X62950932Y-115816556D01*
X63087975Y-115929025D01*
X63200444Y-116066069D01*
X63284012Y-116222414D01*
X63335478Y-116392073D01*
X63348500Y-116524289D01*
X63348500Y-117212710D01*
X63335478Y-117344926D01*
X63335477Y-117344928D01*
X63335477Y-117344931D01*
X63284014Y-117514581D01*
X63284012Y-117514584D01*
X63284012Y-117514585D01*
X63200444Y-117670932D01*
X63087975Y-117807975D01*
X62950931Y-117920444D01*
X62794586Y-118004012D01*
X62794583Y-118004013D01*
X62794581Y-118004014D01*
X62624931Y-118055477D01*
X62624930Y-118055477D01*
X62624927Y-118055478D01*
X62448500Y-118072854D01*
X62272074Y-118055478D01*
X62272071Y-118055477D01*
X62272070Y-118055477D01*
X62102420Y-118004014D01*
X62102418Y-118004013D01*
X62102415Y-118004012D01*
X61946070Y-117920444D01*
X61809026Y-117807975D01*
X61696557Y-117670931D01*
X61612986Y-117514581D01*
X61561522Y-117344932D01*
X61548500Y-117212711D01*
X61548500Y-116524290D01*
X61561522Y-116392074D01*
X61561523Y-116392070D01*
X61612986Y-116222420D01*
X61612987Y-116222418D01*
X61612988Y-116222415D01*
X61696556Y-116066068D01*
X61809025Y-115929025D01*
X61946069Y-115816556D01*
X62102414Y-115732988D01*
X62102417Y-115732987D01*
X62102419Y-115732986D01*
X62272069Y-115681523D01*
X62272070Y-115681523D01*
X62272073Y-115681522D01*
X62448500Y-115664146D01*
X62624926Y-115681522D01*
G37*
G36*
X67704926Y-115681522D02*
G01*
X67704929Y-115681523D01*
X67704930Y-115681523D01*
X67874580Y-115732986D01*
X67874582Y-115732987D01*
X67874585Y-115732988D01*
X68030932Y-115816556D01*
X68167975Y-115929025D01*
X68280444Y-116066069D01*
X68364012Y-116222414D01*
X68415478Y-116392073D01*
X68428500Y-116524289D01*
X68428500Y-117212710D01*
X68415478Y-117344926D01*
X68415477Y-117344928D01*
X68415477Y-117344931D01*
X68364014Y-117514581D01*
X68364012Y-117514584D01*
X68364012Y-117514585D01*
X68280444Y-117670932D01*
X68167975Y-117807975D01*
X68030931Y-117920444D01*
X67874586Y-118004012D01*
X67874583Y-118004013D01*
X67874581Y-118004014D01*
X67704931Y-118055477D01*
X67704930Y-118055477D01*
X67704927Y-118055478D01*
X67528500Y-118072854D01*
X67352074Y-118055478D01*
X67352071Y-118055477D01*
X67352070Y-118055477D01*
X67182420Y-118004014D01*
X67182418Y-118004013D01*
X67182415Y-118004012D01*
X67026070Y-117920444D01*
X66889026Y-117807975D01*
X66776557Y-117670931D01*
X66692986Y-117514581D01*
X66641522Y-117344932D01*
X66628500Y-117212711D01*
X66628500Y-116524290D01*
X66641522Y-116392074D01*
X66641523Y-116392070D01*
X66692986Y-116222420D01*
X66692987Y-116222418D01*
X66692988Y-116222415D01*
X66776556Y-116066068D01*
X66889025Y-115929025D01*
X67026069Y-115816556D01*
X67182414Y-115732988D01*
X67182417Y-115732987D01*
X67182419Y-115732986D01*
X67352069Y-115681523D01*
X67352070Y-115681523D01*
X67352073Y-115681522D01*
X67528500Y-115664146D01*
X67704926Y-115681522D01*
G37*
G36*
X72784926Y-115681522D02*
G01*
X72784929Y-115681523D01*
X72784930Y-115681523D01*
X72954580Y-115732986D01*
X72954582Y-115732987D01*
X72954585Y-115732988D01*
X73110932Y-115816556D01*
X73247975Y-115929025D01*
X73360444Y-116066069D01*
X73444012Y-116222414D01*
X73495478Y-116392073D01*
X73508500Y-116524289D01*
X73508500Y-117212710D01*
X73495478Y-117344926D01*
X73495477Y-117344928D01*
X73495477Y-117344931D01*
X73444014Y-117514581D01*
X73444012Y-117514584D01*
X73444012Y-117514585D01*
X73360444Y-117670932D01*
X73247975Y-117807975D01*
X73110931Y-117920444D01*
X72954586Y-118004012D01*
X72954583Y-118004013D01*
X72954581Y-118004014D01*
X72784931Y-118055477D01*
X72784930Y-118055477D01*
X72784927Y-118055478D01*
X72608500Y-118072854D01*
X72432074Y-118055478D01*
X72432071Y-118055477D01*
X72432070Y-118055477D01*
X72262420Y-118004014D01*
X72262418Y-118004013D01*
X72262415Y-118004012D01*
X72106070Y-117920444D01*
X71969026Y-117807975D01*
X71856557Y-117670931D01*
X71772986Y-117514581D01*
X71721522Y-117344932D01*
X71708500Y-117212711D01*
X71708500Y-116524290D01*
X71721522Y-116392074D01*
X71721523Y-116392070D01*
X71772986Y-116222420D01*
X71772987Y-116222418D01*
X71772988Y-116222415D01*
X71856556Y-116066068D01*
X71969025Y-115929025D01*
X72106069Y-115816556D01*
X72262414Y-115732988D01*
X72262417Y-115732987D01*
X72262419Y-115732986D01*
X72432069Y-115681523D01*
X72432070Y-115681523D01*
X72432073Y-115681522D01*
X72608500Y-115664146D01*
X72784926Y-115681522D01*
G37*
G36*
X82944926Y-115681522D02*
G01*
X82944929Y-115681523D01*
X82944930Y-115681523D01*
X83114580Y-115732986D01*
X83114582Y-115732987D01*
X83114585Y-115732988D01*
X83270932Y-115816556D01*
X83407975Y-115929025D01*
X83520444Y-116066069D01*
X83604012Y-116222414D01*
X83655478Y-116392073D01*
X83668500Y-116524289D01*
X83668500Y-117212710D01*
X83655478Y-117344926D01*
X83655477Y-117344928D01*
X83655477Y-117344931D01*
X83604014Y-117514581D01*
X83604012Y-117514584D01*
X83604012Y-117514585D01*
X83520444Y-117670932D01*
X83407975Y-117807975D01*
X83270931Y-117920444D01*
X83114586Y-118004012D01*
X83114583Y-118004013D01*
X83114581Y-118004014D01*
X82944931Y-118055477D01*
X82944930Y-118055477D01*
X82944927Y-118055478D01*
X82768500Y-118072854D01*
X82592074Y-118055478D01*
X82592071Y-118055477D01*
X82592070Y-118055477D01*
X82422420Y-118004014D01*
X82422418Y-118004013D01*
X82422415Y-118004012D01*
X82266070Y-117920444D01*
X82129026Y-117807975D01*
X82016557Y-117670931D01*
X81932986Y-117514581D01*
X81881522Y-117344932D01*
X81868500Y-117212711D01*
X81868500Y-116524290D01*
X81881522Y-116392074D01*
X81881523Y-116392070D01*
X81932986Y-116222420D01*
X81932987Y-116222418D01*
X81932988Y-116222415D01*
X82016556Y-116066068D01*
X82129025Y-115929025D01*
X82266069Y-115816556D01*
X82422414Y-115732988D01*
X82422417Y-115732987D01*
X82422419Y-115732986D01*
X82592069Y-115681523D01*
X82592070Y-115681523D01*
X82592073Y-115681522D01*
X82768500Y-115664146D01*
X82944926Y-115681522D01*
G37*
G36*
X88024926Y-115681522D02*
G01*
X88024929Y-115681523D01*
X88024930Y-115681523D01*
X88194580Y-115732986D01*
X88194582Y-115732987D01*
X88194585Y-115732988D01*
X88350932Y-115816556D01*
X88487975Y-115929025D01*
X88600444Y-116066069D01*
X88684012Y-116222414D01*
X88735478Y-116392073D01*
X88748500Y-116524289D01*
X88748500Y-117212710D01*
X88735478Y-117344926D01*
X88735477Y-117344928D01*
X88735477Y-117344931D01*
X88684014Y-117514581D01*
X88684012Y-117514584D01*
X88684012Y-117514585D01*
X88600444Y-117670932D01*
X88487975Y-117807975D01*
X88350931Y-117920444D01*
X88194586Y-118004012D01*
X88194583Y-118004013D01*
X88194581Y-118004014D01*
X88024931Y-118055477D01*
X88024930Y-118055477D01*
X88024927Y-118055478D01*
X87848500Y-118072854D01*
X87672074Y-118055478D01*
X87672071Y-118055477D01*
X87672070Y-118055477D01*
X87502420Y-118004014D01*
X87502418Y-118004013D01*
X87502415Y-118004012D01*
X87346070Y-117920444D01*
X87209026Y-117807975D01*
X87096557Y-117670931D01*
X87012986Y-117514581D01*
X86961522Y-117344932D01*
X86948500Y-117212711D01*
X86948500Y-116524290D01*
X86961522Y-116392074D01*
X86961523Y-116392070D01*
X87012986Y-116222420D01*
X87012987Y-116222418D01*
X87012988Y-116222415D01*
X87096556Y-116066068D01*
X87209025Y-115929025D01*
X87346069Y-115816556D01*
X87502414Y-115732988D01*
X87502417Y-115732987D01*
X87502419Y-115732986D01*
X87672069Y-115681523D01*
X87672070Y-115681523D01*
X87672073Y-115681522D01*
X87848500Y-115664146D01*
X88024926Y-115681522D01*
G37*
G36*
X93104926Y-115681522D02*
G01*
X93104929Y-115681523D01*
X93104930Y-115681523D01*
X93274580Y-115732986D01*
X93274582Y-115732987D01*
X93274585Y-115732988D01*
X93430932Y-115816556D01*
X93567975Y-115929025D01*
X93680444Y-116066069D01*
X93764012Y-116222414D01*
X93815478Y-116392073D01*
X93828500Y-116524289D01*
X93828500Y-117212710D01*
X93815478Y-117344926D01*
X93815477Y-117344928D01*
X93815477Y-117344931D01*
X93764014Y-117514581D01*
X93764012Y-117514584D01*
X93764012Y-117514585D01*
X93680444Y-117670932D01*
X93567975Y-117807975D01*
X93430931Y-117920444D01*
X93274586Y-118004012D01*
X93274583Y-118004013D01*
X93274581Y-118004014D01*
X93104931Y-118055477D01*
X93104930Y-118055477D01*
X93104927Y-118055478D01*
X92928500Y-118072854D01*
X92752074Y-118055478D01*
X92752071Y-118055477D01*
X92752070Y-118055477D01*
X92582420Y-118004014D01*
X92582418Y-118004013D01*
X92582415Y-118004012D01*
X92426070Y-117920444D01*
X92289026Y-117807975D01*
X92176557Y-117670931D01*
X92092986Y-117514581D01*
X92041522Y-117344932D01*
X92028500Y-117212711D01*
X92028500Y-116524290D01*
X92041522Y-116392074D01*
X92041523Y-116392070D01*
X92092986Y-116222420D01*
X92092987Y-116222418D01*
X92092988Y-116222415D01*
X92176556Y-116066068D01*
X92289025Y-115929025D01*
X92426069Y-115816556D01*
X92582414Y-115732988D01*
X92582417Y-115732987D01*
X92582419Y-115732986D01*
X92752069Y-115681523D01*
X92752070Y-115681523D01*
X92752073Y-115681522D01*
X92928500Y-115664146D01*
X93104926Y-115681522D01*
G37*
G36*
X98184926Y-115681522D02*
G01*
X98184929Y-115681523D01*
X98184930Y-115681523D01*
X98354580Y-115732986D01*
X98354582Y-115732987D01*
X98354585Y-115732988D01*
X98510932Y-115816556D01*
X98647975Y-115929025D01*
X98760444Y-116066069D01*
X98844012Y-116222414D01*
X98895478Y-116392073D01*
X98908500Y-116524289D01*
X98908500Y-117212710D01*
X98895478Y-117344926D01*
X98895477Y-117344928D01*
X98895477Y-117344931D01*
X98844014Y-117514581D01*
X98844012Y-117514584D01*
X98844012Y-117514585D01*
X98760444Y-117670932D01*
X98647975Y-117807975D01*
X98510931Y-117920444D01*
X98354586Y-118004012D01*
X98354583Y-118004013D01*
X98354581Y-118004014D01*
X98184931Y-118055477D01*
X98184930Y-118055477D01*
X98184927Y-118055478D01*
X98008500Y-118072854D01*
X97832074Y-118055478D01*
X97832071Y-118055477D01*
X97832070Y-118055477D01*
X97662420Y-118004014D01*
X97662418Y-118004013D01*
X97662415Y-118004012D01*
X97506070Y-117920444D01*
X97369026Y-117807975D01*
X97256557Y-117670931D01*
X97172986Y-117514581D01*
X97121522Y-117344932D01*
X97108500Y-117212711D01*
X97108500Y-116524290D01*
X97121522Y-116392074D01*
X97121523Y-116392070D01*
X97172986Y-116222420D01*
X97172987Y-116222418D01*
X97172988Y-116222415D01*
X97256556Y-116066068D01*
X97369025Y-115929025D01*
X97506069Y-115816556D01*
X97662414Y-115732988D01*
X97662417Y-115732987D01*
X97662419Y-115732986D01*
X97832069Y-115681523D01*
X97832070Y-115681523D01*
X97832073Y-115681522D01*
X98008500Y-115664146D01*
X98184926Y-115681522D01*
G37*
G36*
X77864926Y-115681522D02*
G01*
X77864929Y-115681523D01*
X77864930Y-115681523D01*
X78034580Y-115732986D01*
X78034582Y-115732987D01*
X78034585Y-115732988D01*
X78190932Y-115816556D01*
X78327975Y-115929025D01*
X78440444Y-116066069D01*
X78524012Y-116222414D01*
X78575478Y-116392073D01*
X78588500Y-116524289D01*
X78588500Y-117212710D01*
X78575478Y-117344926D01*
X78575477Y-117344928D01*
X78575477Y-117344931D01*
X78524014Y-117514581D01*
X78524012Y-117514584D01*
X78524012Y-117514585D01*
X78440444Y-117670932D01*
X78327975Y-117807975D01*
X78190931Y-117920444D01*
X78034586Y-118004012D01*
X78034583Y-118004013D01*
X78034581Y-118004014D01*
X77864931Y-118055477D01*
X77864930Y-118055477D01*
X77864927Y-118055478D01*
X77688500Y-118072854D01*
X77512074Y-118055478D01*
X77512071Y-118055477D01*
X77512070Y-118055477D01*
X77342420Y-118004014D01*
X77342418Y-118004013D01*
X77342415Y-118004012D01*
X77186070Y-117920444D01*
X77049026Y-117807975D01*
X76936557Y-117670931D01*
X76852986Y-117514581D01*
X76801522Y-117344932D01*
X76788500Y-117212711D01*
X76788500Y-116524290D01*
X76801522Y-116392074D01*
X76801523Y-116392070D01*
X76852986Y-116222420D01*
X76852987Y-116222418D01*
X76852988Y-116222415D01*
X76936556Y-116066068D01*
X77049025Y-115929025D01*
X77186069Y-115816556D01*
X77342414Y-115732988D01*
X77342417Y-115732987D01*
X77342419Y-115732986D01*
X77512069Y-115681523D01*
X77512070Y-115681523D01*
X77512073Y-115681522D01*
X77688500Y-115664146D01*
X77864926Y-115681522D01*
G37*
G36*
X60713280Y-101028066D02*
G01*
X61012737Y-101087631D01*
X61576901Y-101321315D01*
X62084635Y-101660572D01*
X62516428Y-102092365D01*
X62855685Y-102600099D01*
X63089369Y-103164263D01*
X63208500Y-103763177D01*
X63208500Y-104373823D01*
X63089369Y-104972737D01*
X62855685Y-105536901D01*
X62516428Y-106044635D01*
X62084635Y-106476428D01*
X61576901Y-106815685D01*
X61012737Y-107049369D01*
X60713280Y-107108934D01*
X60413825Y-107168500D01*
X59803175Y-107168500D01*
X59503720Y-107108934D01*
X59204263Y-107049369D01*
X58640099Y-106815685D01*
X58132365Y-106476428D01*
X57700572Y-106044635D01*
X57361315Y-105536901D01*
X57127631Y-104972737D01*
X57008500Y-104373823D01*
X57008500Y-103763177D01*
X57127631Y-103164263D01*
X57361315Y-102600099D01*
X57700572Y-102092365D01*
X58132365Y-101660572D01*
X58640099Y-101321315D01*
X59204263Y-101087631D01*
X59503720Y-101028066D01*
X59803175Y-100968500D01*
X60413825Y-100968500D01*
X60713280Y-101028066D01*
G37*
G36*
X58512520Y-95884586D02*
G01*
X58676310Y-95952430D01*
X58823717Y-96050924D01*
X58949076Y-96176283D01*
X59047570Y-96323690D01*
X59115414Y-96487480D01*
X59150000Y-96661358D01*
X59150000Y-96838642D01*
X59115414Y-97012520D01*
X59047570Y-97176310D01*
X58949076Y-97323717D01*
X58823717Y-97449076D01*
X58676310Y-97547570D01*
X58676309Y-97547571D01*
X58676308Y-97547571D01*
X58512520Y-97615414D01*
X58338644Y-97650000D01*
X58161356Y-97650000D01*
X57987480Y-97615414D01*
X57823692Y-97547571D01*
X57823691Y-97547571D01*
X57823690Y-97547570D01*
X57676283Y-97449076D01*
X57550924Y-97323717D01*
X57452430Y-97176310D01*
X57384586Y-97012520D01*
X57350000Y-96838642D01*
X57350000Y-96661358D01*
X57384586Y-96487480D01*
X57452430Y-96323690D01*
X57550924Y-96176283D01*
X57676283Y-96050924D01*
X57823690Y-95952430D01*
X57987480Y-95884586D01*
X58161356Y-95850000D01*
X58338644Y-95850000D01*
X58512520Y-95884586D01*
G37*
G36*
X55650000Y-97650000D02*
G01*
X53850000Y-97650000D01*
X53850000Y-95850000D01*
X55650000Y-95850000D01*
X55650000Y-97650000D01*
G37*
G36*
X78925336Y-88028254D02*
G01*
X79017105Y-88046508D01*
X79189994Y-88118121D01*
X79345590Y-88222087D01*
X79477913Y-88354410D01*
X79581879Y-88510006D01*
X79653492Y-88682895D01*
X79690000Y-88866433D01*
X79690000Y-89053567D01*
X79653492Y-89237105D01*
X79581879Y-89409994D01*
X79477913Y-89565590D01*
X79345590Y-89697913D01*
X79189994Y-89801879D01*
X79017105Y-89873492D01*
X78925336Y-89891746D01*
X78833568Y-89910000D01*
X78646432Y-89910000D01*
X78554664Y-89891746D01*
X78462895Y-89873492D01*
X78290006Y-89801879D01*
X78134410Y-89697913D01*
X78002087Y-89565590D01*
X77898121Y-89409994D01*
X77826508Y-89237105D01*
X77790000Y-89053567D01*
X77790000Y-88866433D01*
X77826508Y-88682895D01*
X77898121Y-88510006D01*
X78002087Y-88354410D01*
X78134410Y-88222087D01*
X78290006Y-88118121D01*
X78462895Y-88046508D01*
X78554664Y-88028254D01*
X78646432Y-88010000D01*
X78833568Y-88010000D01*
X78925336Y-88028254D01*
G37*
G36*
X76385336Y-88028254D02*
G01*
X76477105Y-88046508D01*
X76649994Y-88118121D01*
X76805590Y-88222087D01*
X76937913Y-88354410D01*
X77041879Y-88510006D01*
X77113492Y-88682895D01*
X77150000Y-88866433D01*
X77150000Y-89053567D01*
X77113492Y-89237105D01*
X77041879Y-89409994D01*
X76937913Y-89565590D01*
X76805590Y-89697913D01*
X76649994Y-89801879D01*
X76477105Y-89873492D01*
X76385336Y-89891746D01*
X76293568Y-89910000D01*
X76106432Y-89910000D01*
X76014664Y-89891746D01*
X75922895Y-89873492D01*
X75750006Y-89801879D01*
X75594410Y-89697913D01*
X75462087Y-89565590D01*
X75358121Y-89409994D01*
X75286508Y-89237105D01*
X75250000Y-89053567D01*
X75250000Y-88866433D01*
X75286508Y-88682895D01*
X75358121Y-88510006D01*
X75462087Y-88354410D01*
X75594410Y-88222087D01*
X75750006Y-88118121D01*
X75922895Y-88046508D01*
X76014664Y-88028254D01*
X76106432Y-88010000D01*
X76293568Y-88010000D01*
X76385336Y-88028254D01*
G37*
G36*
X76385336Y-85488254D02*
G01*
X76477105Y-85506508D01*
X76649994Y-85578121D01*
X76805590Y-85682087D01*
X76937913Y-85814410D01*
X77041879Y-85970006D01*
X77113492Y-86142895D01*
X77150000Y-86326433D01*
X77150000Y-86513567D01*
X77113492Y-86697105D01*
X77041879Y-86869994D01*
X76937913Y-87025590D01*
X76805590Y-87157913D01*
X76649994Y-87261879D01*
X76477105Y-87333492D01*
X76385336Y-87351746D01*
X76293568Y-87370000D01*
X76106432Y-87370000D01*
X76014664Y-87351746D01*
X75922895Y-87333492D01*
X75750006Y-87261879D01*
X75594410Y-87157913D01*
X75462087Y-87025590D01*
X75358121Y-86869994D01*
X75286508Y-86697105D01*
X75250000Y-86513567D01*
X75250000Y-86326433D01*
X75286508Y-86142895D01*
X75358121Y-85970006D01*
X75462087Y-85814410D01*
X75594410Y-85682087D01*
X75750006Y-85578121D01*
X75922895Y-85506508D01*
X76014664Y-85488254D01*
X76106432Y-85470000D01*
X76293568Y-85470000D01*
X76385336Y-85488254D01*
G37*
G36*
X78925336Y-85488254D02*
G01*
X79017105Y-85506508D01*
X79189994Y-85578121D01*
X79345590Y-85682087D01*
X79477913Y-85814410D01*
X79581879Y-85970006D01*
X79653492Y-86142895D01*
X79690000Y-86326433D01*
X79690000Y-86513567D01*
X79653492Y-86697105D01*
X79581879Y-86869994D01*
X79477913Y-87025590D01*
X79345590Y-87157913D01*
X79189994Y-87261879D01*
X79017105Y-87333492D01*
X78925336Y-87351746D01*
X78833568Y-87370000D01*
X78646432Y-87370000D01*
X78554664Y-87351746D01*
X78462895Y-87333492D01*
X78290006Y-87261879D01*
X78134410Y-87157913D01*
X78002087Y-87025590D01*
X77898121Y-86869994D01*
X77826508Y-86697105D01*
X77790000Y-86513567D01*
X77790000Y-86326433D01*
X77826508Y-86142895D01*
X77898121Y-85970006D01*
X78002087Y-85814410D01*
X78134410Y-85682087D01*
X78290006Y-85578121D01*
X78462895Y-85506508D01*
X78554664Y-85488254D01*
X78646432Y-85470000D01*
X78833568Y-85470000D01*
X78925336Y-85488254D01*
G37*
G36*
X76385336Y-82948254D02*
G01*
X76477105Y-82966508D01*
X76649994Y-83038121D01*
X76805590Y-83142087D01*
X76937913Y-83274410D01*
X77041879Y-83430006D01*
X77113492Y-83602895D01*
X77150000Y-83786433D01*
X77150000Y-83973567D01*
X77113492Y-84157105D01*
X77041879Y-84329994D01*
X76937913Y-84485590D01*
X76805590Y-84617913D01*
X76649994Y-84721879D01*
X76477105Y-84793492D01*
X76385336Y-84811746D01*
X76293568Y-84830000D01*
X76106432Y-84830000D01*
X76014664Y-84811746D01*
X75922895Y-84793492D01*
X75750006Y-84721879D01*
X75594410Y-84617913D01*
X75462087Y-84485590D01*
X75358121Y-84329994D01*
X75286508Y-84157105D01*
X75250000Y-83973567D01*
X75250000Y-83786433D01*
X75286508Y-83602895D01*
X75358121Y-83430006D01*
X75462087Y-83274410D01*
X75594410Y-83142087D01*
X75750006Y-83038121D01*
X75922895Y-82966508D01*
X76014664Y-82948254D01*
X76106432Y-82930000D01*
X76293568Y-82930000D01*
X76385336Y-82948254D01*
G37*
G36*
X78925336Y-82948254D02*
G01*
X79017105Y-82966508D01*
X79189994Y-83038121D01*
X79345590Y-83142087D01*
X79477913Y-83274410D01*
X79581879Y-83430006D01*
X79653492Y-83602895D01*
X79690000Y-83786433D01*
X79690000Y-83973567D01*
X79653492Y-84157105D01*
X79581879Y-84329994D01*
X79477913Y-84485590D01*
X79345590Y-84617913D01*
X79189994Y-84721879D01*
X79017105Y-84793492D01*
X78925336Y-84811746D01*
X78833568Y-84830000D01*
X78646432Y-84830000D01*
X78554664Y-84811746D01*
X78462895Y-84793492D01*
X78290006Y-84721879D01*
X78134410Y-84617913D01*
X78002087Y-84485590D01*
X77898121Y-84329994D01*
X77826508Y-84157105D01*
X77790000Y-83973567D01*
X77790000Y-83786433D01*
X77826508Y-83602895D01*
X77898121Y-83430006D01*
X78002087Y-83274410D01*
X78134410Y-83142087D01*
X78290006Y-83038121D01*
X78462895Y-82966508D01*
X78554664Y-82948254D01*
X78646432Y-82930000D01*
X78833568Y-82930000D01*
X78925336Y-82948254D01*
G37*
G36*
X76385336Y-80408254D02*
G01*
X76477105Y-80426508D01*
X76649994Y-80498121D01*
X76805590Y-80602087D01*
X76937913Y-80734410D01*
X77041879Y-80890006D01*
X77113492Y-81062895D01*
X77150000Y-81246433D01*
X77150000Y-81433567D01*
X77113492Y-81617105D01*
X77041879Y-81789994D01*
X76937913Y-81945590D01*
X76805590Y-82077913D01*
X76649994Y-82181879D01*
X76477105Y-82253492D01*
X76385336Y-82271746D01*
X76293568Y-82290000D01*
X76106432Y-82290000D01*
X76014664Y-82271746D01*
X75922895Y-82253492D01*
X75750006Y-82181879D01*
X75594410Y-82077913D01*
X75462087Y-81945590D01*
X75358121Y-81789994D01*
X75286508Y-81617105D01*
X75250000Y-81433567D01*
X75250000Y-81246433D01*
X75286508Y-81062895D01*
X75358121Y-80890006D01*
X75462087Y-80734410D01*
X75594410Y-80602087D01*
X75750006Y-80498121D01*
X75922895Y-80426508D01*
X76014664Y-80408254D01*
X76106432Y-80390000D01*
X76293568Y-80390000D01*
X76385336Y-80408254D01*
G37*
G36*
X78925336Y-80408254D02*
G01*
X79017105Y-80426508D01*
X79189994Y-80498121D01*
X79345590Y-80602087D01*
X79477913Y-80734410D01*
X79581879Y-80890006D01*
X79653492Y-81062895D01*
X79690000Y-81246433D01*
X79690000Y-81433567D01*
X79653492Y-81617105D01*
X79581879Y-81789994D01*
X79477913Y-81945590D01*
X79345590Y-82077913D01*
X79189994Y-82181879D01*
X79017105Y-82253492D01*
X78925336Y-82271746D01*
X78833568Y-82290000D01*
X78646432Y-82290000D01*
X78554664Y-82271746D01*
X78462895Y-82253492D01*
X78290006Y-82181879D01*
X78134410Y-82077913D01*
X78002087Y-81945590D01*
X77898121Y-81789994D01*
X77826508Y-81617105D01*
X77790000Y-81433567D01*
X77790000Y-81246433D01*
X77826508Y-81062895D01*
X77898121Y-80890006D01*
X78002087Y-80734410D01*
X78134410Y-80602087D01*
X78290006Y-80498121D01*
X78462895Y-80426508D01*
X78554664Y-80408254D01*
X78646432Y-80390000D01*
X78833568Y-80390000D01*
X78925336Y-80408254D01*
G37*
G36*
X78925336Y-77868254D02*
G01*
X79017105Y-77886508D01*
X79189994Y-77958121D01*
X79345590Y-78062087D01*
X79477913Y-78194410D01*
X79581879Y-78350006D01*
X79653492Y-78522895D01*
X79690000Y-78706433D01*
X79690000Y-78893567D01*
X79653492Y-79077105D01*
X79581879Y-79249994D01*
X79477913Y-79405590D01*
X79345590Y-79537913D01*
X79189994Y-79641879D01*
X79017105Y-79713492D01*
X78925336Y-79731746D01*
X78833568Y-79750000D01*
X78646432Y-79750000D01*
X78554664Y-79731746D01*
X78462895Y-79713492D01*
X78290006Y-79641879D01*
X78134410Y-79537913D01*
X78002087Y-79405590D01*
X77898121Y-79249994D01*
X77826508Y-79077105D01*
X77790000Y-78893567D01*
X77790000Y-78706433D01*
X77826508Y-78522895D01*
X77898121Y-78350006D01*
X78002087Y-78194410D01*
X78134410Y-78062087D01*
X78290006Y-77958121D01*
X78462895Y-77886508D01*
X78554664Y-77868254D01*
X78646432Y-77850000D01*
X78833568Y-77850000D01*
X78925336Y-77868254D01*
G37*
G36*
X76385336Y-77868254D02*
G01*
X76477105Y-77886508D01*
X76649994Y-77958121D01*
X76805590Y-78062087D01*
X76937913Y-78194410D01*
X77041879Y-78350006D01*
X77113492Y-78522895D01*
X77150000Y-78706433D01*
X77150000Y-78893567D01*
X77113492Y-79077105D01*
X77041879Y-79249994D01*
X76937913Y-79405590D01*
X76805590Y-79537913D01*
X76649994Y-79641879D01*
X76477105Y-79713492D01*
X76385336Y-79731746D01*
X76293568Y-79750000D01*
X76106432Y-79750000D01*
X76014664Y-79731746D01*
X75922895Y-79713492D01*
X75750006Y-79641879D01*
X75594410Y-79537913D01*
X75462087Y-79405590D01*
X75358121Y-79249994D01*
X75286508Y-79077105D01*
X75250000Y-78893567D01*
X75250000Y-78706433D01*
X75286508Y-78522895D01*
X75358121Y-78350006D01*
X75462087Y-78194410D01*
X75594410Y-78062087D01*
X75750006Y-77958121D01*
X75922895Y-77886508D01*
X76014664Y-77868254D01*
X76106432Y-77850000D01*
X76293568Y-77850000D01*
X76385336Y-77868254D01*
G37*
G36*
X78925336Y-75328254D02*
G01*
X79017105Y-75346508D01*
X79189994Y-75418121D01*
X79345590Y-75522087D01*
X79477913Y-75654410D01*
X79581879Y-75810006D01*
X79653492Y-75982895D01*
X79690000Y-76166433D01*
X79690000Y-76353567D01*
X79653492Y-76537105D01*
X79581879Y-76709994D01*
X79477913Y-76865590D01*
X79345590Y-76997913D01*
X79189994Y-77101879D01*
X79017105Y-77173492D01*
X78925336Y-77191746D01*
X78833568Y-77210000D01*
X78646432Y-77210000D01*
X78554664Y-77191746D01*
X78462895Y-77173492D01*
X78290006Y-77101879D01*
X78134410Y-76997913D01*
X78002087Y-76865590D01*
X77898121Y-76709994D01*
X77826508Y-76537105D01*
X77790000Y-76353567D01*
X77790000Y-76166433D01*
X77826508Y-75982895D01*
X77898121Y-75810006D01*
X78002087Y-75654410D01*
X78134410Y-75522087D01*
X78290006Y-75418121D01*
X78462895Y-75346508D01*
X78554664Y-75328254D01*
X78646432Y-75310000D01*
X78833568Y-75310000D01*
X78925336Y-75328254D01*
G37*
G36*
X76385336Y-75328254D02*
G01*
X76477105Y-75346508D01*
X76649994Y-75418121D01*
X76805590Y-75522087D01*
X76937913Y-75654410D01*
X77041879Y-75810006D01*
X77113492Y-75982895D01*
X77150000Y-76166433D01*
X77150000Y-76353567D01*
X77113492Y-76537105D01*
X77041879Y-76709994D01*
X76937913Y-76865590D01*
X76805590Y-76997913D01*
X76649994Y-77101879D01*
X76477105Y-77173492D01*
X76385336Y-77191746D01*
X76293568Y-77210000D01*
X76106432Y-77210000D01*
X76014664Y-77191746D01*
X75922895Y-77173492D01*
X75750006Y-77101879D01*
X75594410Y-76997913D01*
X75462087Y-76865590D01*
X75358121Y-76709994D01*
X75286508Y-76537105D01*
X75250000Y-76353567D01*
X75250000Y-76166433D01*
X75286508Y-75982895D01*
X75358121Y-75810006D01*
X75462087Y-75654410D01*
X75594410Y-75522087D01*
X75750006Y-75418121D01*
X75922895Y-75346508D01*
X76014664Y-75328254D01*
X76106432Y-75310000D01*
X76293568Y-75310000D01*
X76385336Y-75328254D01*
G37*
G36*
X59466703Y-72561486D02*
G01*
X59757883Y-72682097D01*
X60019940Y-72857198D01*
X60242802Y-73080060D01*
X60417903Y-73342117D01*
X60538514Y-73633297D01*
X60600000Y-73942412D01*
X60600000Y-74257588D01*
X60538514Y-74566703D01*
X60417903Y-74857883D01*
X60242802Y-75119940D01*
X60019940Y-75342802D01*
X59757883Y-75517903D01*
X59466703Y-75638514D01*
X59157588Y-75700000D01*
X58842412Y-75700000D01*
X58533297Y-75638514D01*
X58242117Y-75517903D01*
X57980060Y-75342802D01*
X57757198Y-75119940D01*
X57582097Y-74857883D01*
X57461486Y-74566703D01*
X57400000Y-74257588D01*
X57400000Y-73942412D01*
X57461486Y-73633297D01*
X57582097Y-73342117D01*
X57757198Y-73080060D01*
X57980060Y-72857198D01*
X58242117Y-72682097D01*
X58533297Y-72561486D01*
X58842412Y-72500000D01*
X59157588Y-72500000D01*
X59466703Y-72561486D01*
G37*
G36*
X78925336Y-72788254D02*
G01*
X79017105Y-72806508D01*
X79189994Y-72878121D01*
X79345590Y-72982087D01*
X79477913Y-73114410D01*
X79581879Y-73270006D01*
X79653492Y-73442895D01*
X79690000Y-73626433D01*
X79690000Y-73813567D01*
X79653492Y-73997105D01*
X79581879Y-74169994D01*
X79477913Y-74325590D01*
X79345590Y-74457913D01*
X79189994Y-74561879D01*
X79017105Y-74633492D01*
X78925336Y-74651746D01*
X78833568Y-74670000D01*
X78646432Y-74670000D01*
X78554664Y-74651746D01*
X78462895Y-74633492D01*
X78290006Y-74561879D01*
X78134410Y-74457913D01*
X78002087Y-74325590D01*
X77898121Y-74169994D01*
X77826508Y-73997105D01*
X77790000Y-73813567D01*
X77790000Y-73626433D01*
X77826508Y-73442895D01*
X77898121Y-73270006D01*
X78002087Y-73114410D01*
X78134410Y-72982087D01*
X78290006Y-72878121D01*
X78462895Y-72806508D01*
X78554664Y-72788254D01*
X78646432Y-72770000D01*
X78833568Y-72770000D01*
X78925336Y-72788254D01*
G37*
G36*
X76385336Y-72788254D02*
G01*
X76477105Y-72806508D01*
X76649994Y-72878121D01*
X76805590Y-72982087D01*
X76937913Y-73114410D01*
X77041879Y-73270006D01*
X77113492Y-73442895D01*
X77150000Y-73626433D01*
X77150000Y-73813567D01*
X77113492Y-73997105D01*
X77041879Y-74169994D01*
X76937913Y-74325590D01*
X76805590Y-74457913D01*
X76649994Y-74561879D01*
X76477105Y-74633492D01*
X76385336Y-74651746D01*
X76293568Y-74670000D01*
X76106432Y-74670000D01*
X76014664Y-74651746D01*
X75922895Y-74633492D01*
X75750006Y-74561879D01*
X75594410Y-74457913D01*
X75462087Y-74325590D01*
X75358121Y-74169994D01*
X75286508Y-73997105D01*
X75250000Y-73813567D01*
X75250000Y-73626433D01*
X75286508Y-73442895D01*
X75358121Y-73270006D01*
X75462087Y-73114410D01*
X75594410Y-72982087D01*
X75750006Y-72878121D01*
X75922895Y-72806508D01*
X76014664Y-72788254D01*
X76106432Y-72770000D01*
X76293568Y-72770000D01*
X76385336Y-72788254D01*
G37*
G36*
X76385336Y-70248254D02*
G01*
X76477105Y-70266508D01*
X76649994Y-70338121D01*
X76805590Y-70442087D01*
X76937913Y-70574410D01*
X77041879Y-70730006D01*
X77113492Y-70902895D01*
X77150000Y-71086433D01*
X77150000Y-71273567D01*
X77113492Y-71457105D01*
X77041879Y-71629994D01*
X76937913Y-71785590D01*
X76805590Y-71917913D01*
X76649994Y-72021879D01*
X76477105Y-72093492D01*
X76385336Y-72111746D01*
X76293568Y-72130000D01*
X76106432Y-72130000D01*
X76014664Y-72111746D01*
X75922895Y-72093492D01*
X75750006Y-72021879D01*
X75594410Y-71917913D01*
X75462087Y-71785590D01*
X75358121Y-71629994D01*
X75286508Y-71457105D01*
X75250000Y-71273567D01*
X75250000Y-71086433D01*
X75286508Y-70902895D01*
X75358121Y-70730006D01*
X75462087Y-70574410D01*
X75594410Y-70442087D01*
X75750006Y-70338121D01*
X75922895Y-70266508D01*
X76014664Y-70248254D01*
X76106432Y-70230000D01*
X76293568Y-70230000D01*
X76385336Y-70248254D01*
G37*
G36*
X78925336Y-70248254D02*
G01*
X79017105Y-70266508D01*
X79189994Y-70338121D01*
X79345590Y-70442087D01*
X79477913Y-70574410D01*
X79581879Y-70730006D01*
X79653492Y-70902895D01*
X79690000Y-71086433D01*
X79690000Y-71273567D01*
X79653492Y-71457105D01*
X79581879Y-71629994D01*
X79477913Y-71785590D01*
X79345590Y-71917913D01*
X79189994Y-72021879D01*
X79017105Y-72093492D01*
X78925336Y-72111746D01*
X78833568Y-72130000D01*
X78646432Y-72130000D01*
X78554664Y-72111746D01*
X78462895Y-72093492D01*
X78290006Y-72021879D01*
X78134410Y-71917913D01*
X78002087Y-71785590D01*
X77898121Y-71629994D01*
X77826508Y-71457105D01*
X77790000Y-71273567D01*
X77790000Y-71086433D01*
X77826508Y-70902895D01*
X77898121Y-70730006D01*
X78002087Y-70574410D01*
X78134410Y-70442087D01*
X78290006Y-70338121D01*
X78462895Y-70266508D01*
X78554664Y-70248254D01*
X78646432Y-70230000D01*
X78833568Y-70230000D01*
X78925336Y-70248254D01*
G37*
G36*
X76385336Y-67708254D02*
G01*
X76477105Y-67726508D01*
X76649994Y-67798121D01*
X76805590Y-67902087D01*
X76937913Y-68034410D01*
X77041879Y-68190006D01*
X77113492Y-68362895D01*
X77150000Y-68546433D01*
X77150000Y-68733567D01*
X77113492Y-68917105D01*
X77041879Y-69089994D01*
X76937913Y-69245590D01*
X76805590Y-69377913D01*
X76649994Y-69481879D01*
X76477105Y-69553492D01*
X76385336Y-69571746D01*
X76293568Y-69590000D01*
X76106432Y-69590000D01*
X76014664Y-69571746D01*
X75922895Y-69553492D01*
X75750006Y-69481879D01*
X75594410Y-69377913D01*
X75462087Y-69245590D01*
X75358121Y-69089994D01*
X75286508Y-68917105D01*
X75250000Y-68733567D01*
X75250000Y-68546433D01*
X75286508Y-68362895D01*
X75358121Y-68190006D01*
X75462087Y-68034410D01*
X75594410Y-67902087D01*
X75750006Y-67798121D01*
X75922895Y-67726508D01*
X76014664Y-67708254D01*
X76106432Y-67690000D01*
X76293568Y-67690000D01*
X76385336Y-67708254D01*
G37*
G36*
X78925336Y-67708254D02*
G01*
X79017105Y-67726508D01*
X79189994Y-67798121D01*
X79345590Y-67902087D01*
X79477913Y-68034410D01*
X79581879Y-68190006D01*
X79653492Y-68362895D01*
X79690000Y-68546433D01*
X79690000Y-68733567D01*
X79653492Y-68917105D01*
X79581879Y-69089994D01*
X79477913Y-69245590D01*
X79345590Y-69377913D01*
X79189994Y-69481879D01*
X79017105Y-69553492D01*
X78925336Y-69571746D01*
X78833568Y-69590000D01*
X78646432Y-69590000D01*
X78554664Y-69571746D01*
X78462895Y-69553492D01*
X78290006Y-69481879D01*
X78134410Y-69377913D01*
X78002087Y-69245590D01*
X77898121Y-69089994D01*
X77826508Y-68917105D01*
X77790000Y-68733567D01*
X77790000Y-68546433D01*
X77826508Y-68362895D01*
X77898121Y-68190006D01*
X78002087Y-68034410D01*
X78134410Y-67902087D01*
X78290006Y-67798121D01*
X78462895Y-67726508D01*
X78554664Y-67708254D01*
X78646432Y-67690000D01*
X78833568Y-67690000D01*
X78925336Y-67708254D01*
G37*
G36*
X77150000Y-67050000D02*
G01*
X75250000Y-67050000D01*
X75250000Y-65150000D01*
X77150000Y-65150000D01*
X77150000Y-67050000D01*
G37*
G36*
X78925336Y-65168254D02*
G01*
X79017105Y-65186508D01*
X79189994Y-65258121D01*
X79345590Y-65362087D01*
X79477913Y-65494410D01*
X79581879Y-65650006D01*
X79653492Y-65822895D01*
X79690000Y-66006433D01*
X79690000Y-66193567D01*
X79653492Y-66377105D01*
X79581879Y-66549994D01*
X79477913Y-66705590D01*
X79345590Y-66837913D01*
X79189994Y-66941879D01*
X79017105Y-67013492D01*
X78925336Y-67031746D01*
X78833568Y-67050000D01*
X78646432Y-67050000D01*
X78554664Y-67031746D01*
X78462895Y-67013492D01*
X78290006Y-66941879D01*
X78134410Y-66837913D01*
X78002087Y-66705590D01*
X77898121Y-66549994D01*
X77826508Y-66377105D01*
X77790000Y-66193567D01*
X77790000Y-66006433D01*
X77826508Y-65822895D01*
X77898121Y-65650006D01*
X78002087Y-65494410D01*
X78134410Y-65362087D01*
X78290006Y-65258121D01*
X78462895Y-65186508D01*
X78554664Y-65168254D01*
X78646432Y-65150000D01*
X78833568Y-65150000D01*
X78925336Y-65168254D01*
G37*
G36*
X59466703Y-59361486D02*
G01*
X59757883Y-59482097D01*
X60019940Y-59657198D01*
X60242802Y-59880060D01*
X60417903Y-60142117D01*
X60538514Y-60433297D01*
X60600000Y-60742412D01*
X60600000Y-61057588D01*
X60538514Y-61366703D01*
X60417903Y-61657883D01*
X60242802Y-61919940D01*
X60019940Y-62142802D01*
X59757883Y-62317903D01*
X59466703Y-62438514D01*
X59157588Y-62500000D01*
X58842412Y-62500000D01*
X58533297Y-62438514D01*
X58242117Y-62317903D01*
X57980060Y-62142802D01*
X57757198Y-61919940D01*
X57582097Y-61657883D01*
X57461486Y-61366703D01*
X57400000Y-61057588D01*
X57400000Y-60742412D01*
X57461486Y-60433297D01*
X57582097Y-60142117D01*
X57757198Y-59880060D01*
X57980060Y-59657198D01*
X58242117Y-59482097D01*
X58533297Y-59361486D01*
X58842412Y-59300000D01*
X59157588Y-59300000D01*
X59466703Y-59361486D01*
G37*
G36*
X111113280Y-51128066D02*
G01*
X111412737Y-51187631D01*
X111976901Y-51421315D01*
X112484635Y-51760572D01*
X112916428Y-52192365D01*
X113255685Y-52700099D01*
X113489369Y-53264263D01*
X113608500Y-53863177D01*
X113608500Y-54473823D01*
X113489369Y-55072737D01*
X113255685Y-55636901D01*
X112916428Y-56144635D01*
X112484635Y-56576428D01*
X111976901Y-56915685D01*
X111412737Y-57149369D01*
X111113280Y-57208935D01*
X110813825Y-57268500D01*
X110203175Y-57268500D01*
X109903720Y-57208935D01*
X109604263Y-57149369D01*
X109040099Y-56915685D01*
X108532365Y-56576428D01*
X108100572Y-56144635D01*
X107761315Y-55636901D01*
X107527631Y-55072737D01*
X107408500Y-54473823D01*
X107408500Y-53863177D01*
X107527631Y-53264263D01*
X107761315Y-52700099D01*
X108100572Y-52192365D01*
X108532365Y-51760572D01*
X109040099Y-51421315D01*
X109604263Y-51187631D01*
X109903720Y-51128066D01*
X110203175Y-51068500D01*
X110813825Y-51068500D01*
X111113280Y-51128066D01*
G37*
G36*
X103264926Y-40181522D02*
G01*
X103264929Y-40181523D01*
X103264930Y-40181523D01*
X103434580Y-40232986D01*
X103434582Y-40232987D01*
X103434585Y-40232988D01*
X103590932Y-40316556D01*
X103727975Y-40429025D01*
X103840444Y-40566069D01*
X103924012Y-40722414D01*
X103975478Y-40892073D01*
X103988500Y-41024289D01*
X103988500Y-41712710D01*
X103975478Y-41844926D01*
X103975477Y-41844928D01*
X103975477Y-41844931D01*
X103924014Y-42014581D01*
X103924012Y-42014584D01*
X103924012Y-42014585D01*
X103840444Y-42170932D01*
X103727975Y-42307975D01*
X103590931Y-42420444D01*
X103434586Y-42504012D01*
X103434583Y-42504013D01*
X103434581Y-42504014D01*
X103264931Y-42555477D01*
X103264930Y-42555477D01*
X103264927Y-42555478D01*
X103088500Y-42572854D01*
X102912074Y-42555478D01*
X102912071Y-42555477D01*
X102912070Y-42555477D01*
X102742420Y-42504014D01*
X102742418Y-42504013D01*
X102742415Y-42504012D01*
X102586070Y-42420444D01*
X102449026Y-42307975D01*
X102336557Y-42170931D01*
X102252986Y-42014581D01*
X102201522Y-41844932D01*
X102188500Y-41712711D01*
X102188500Y-41024290D01*
X102201522Y-40892074D01*
X102201523Y-40892070D01*
X102252986Y-40722420D01*
X102252987Y-40722418D01*
X102252988Y-40722415D01*
X102336556Y-40566068D01*
X102449025Y-40429025D01*
X102586069Y-40316556D01*
X102742414Y-40232988D01*
X102742417Y-40232987D01*
X102742419Y-40232986D01*
X102912069Y-40181523D01*
X102912070Y-40181523D01*
X102912073Y-40181522D01*
X103088500Y-40164146D01*
X103264926Y-40181522D01*
G37*
G36*
X108344926Y-40181522D02*
G01*
X108344929Y-40181523D01*
X108344930Y-40181523D01*
X108514580Y-40232986D01*
X108514582Y-40232987D01*
X108514585Y-40232988D01*
X108670932Y-40316556D01*
X108807975Y-40429025D01*
X108920444Y-40566069D01*
X109004012Y-40722414D01*
X109055478Y-40892073D01*
X109068500Y-41024289D01*
X109068500Y-41712710D01*
X109055478Y-41844926D01*
X109055477Y-41844928D01*
X109055477Y-41844931D01*
X109004014Y-42014581D01*
X109004012Y-42014584D01*
X109004012Y-42014585D01*
X108920444Y-42170932D01*
X108807975Y-42307975D01*
X108670931Y-42420444D01*
X108514586Y-42504012D01*
X108514583Y-42504013D01*
X108514581Y-42504014D01*
X108344931Y-42555477D01*
X108344930Y-42555477D01*
X108344927Y-42555478D01*
X108168500Y-42572854D01*
X107992074Y-42555478D01*
X107992071Y-42555477D01*
X107992070Y-42555477D01*
X107822420Y-42504014D01*
X107822418Y-42504013D01*
X107822415Y-42504012D01*
X107666070Y-42420444D01*
X107529026Y-42307975D01*
X107416557Y-42170931D01*
X107332986Y-42014581D01*
X107281522Y-41844932D01*
X107268500Y-41712711D01*
X107268500Y-41024290D01*
X107281522Y-40892074D01*
X107281523Y-40892070D01*
X107332986Y-40722420D01*
X107332987Y-40722418D01*
X107332988Y-40722415D01*
X107416556Y-40566068D01*
X107529025Y-40429025D01*
X107666069Y-40316556D01*
X107822414Y-40232988D01*
X107822417Y-40232987D01*
X107822419Y-40232986D01*
X107992069Y-40181523D01*
X107992070Y-40181523D01*
X107992073Y-40181522D01*
X108168500Y-40164146D01*
X108344926Y-40181522D01*
G37*
G36*
X57544926Y-40181522D02*
G01*
X57544929Y-40181523D01*
X57544930Y-40181523D01*
X57714580Y-40232986D01*
X57714582Y-40232987D01*
X57714585Y-40232988D01*
X57870932Y-40316556D01*
X58007975Y-40429025D01*
X58120444Y-40566069D01*
X58204012Y-40722414D01*
X58255478Y-40892073D01*
X58268500Y-41024289D01*
X58268500Y-41712710D01*
X58255478Y-41844926D01*
X58255477Y-41844928D01*
X58255477Y-41844931D01*
X58204014Y-42014581D01*
X58204012Y-42014584D01*
X58204012Y-42014585D01*
X58120444Y-42170932D01*
X58007975Y-42307975D01*
X57870931Y-42420444D01*
X57714586Y-42504012D01*
X57714583Y-42504013D01*
X57714581Y-42504014D01*
X57544931Y-42555477D01*
X57544930Y-42555477D01*
X57544927Y-42555478D01*
X57368500Y-42572854D01*
X57192074Y-42555478D01*
X57192071Y-42555477D01*
X57192070Y-42555477D01*
X57022420Y-42504014D01*
X57022418Y-42504013D01*
X57022415Y-42504012D01*
X56866070Y-42420444D01*
X56729026Y-42307975D01*
X56616557Y-42170931D01*
X56532986Y-42014581D01*
X56481522Y-41844932D01*
X56468500Y-41712711D01*
X56468500Y-41024290D01*
X56481522Y-40892074D01*
X56481523Y-40892070D01*
X56532986Y-40722420D01*
X56532987Y-40722418D01*
X56532988Y-40722415D01*
X56616556Y-40566068D01*
X56729025Y-40429025D01*
X56866069Y-40316556D01*
X57022414Y-40232988D01*
X57022417Y-40232987D01*
X57022419Y-40232986D01*
X57192069Y-40181523D01*
X57192070Y-40181523D01*
X57192073Y-40181522D01*
X57368500Y-40164146D01*
X57544926Y-40181522D01*
G37*
G36*
X62624926Y-40181522D02*
G01*
X62624929Y-40181523D01*
X62624930Y-40181523D01*
X62794580Y-40232986D01*
X62794582Y-40232987D01*
X62794585Y-40232988D01*
X62950932Y-40316556D01*
X63087975Y-40429025D01*
X63200444Y-40566069D01*
X63284012Y-40722414D01*
X63335478Y-40892073D01*
X63348500Y-41024289D01*
X63348500Y-41712710D01*
X63335478Y-41844926D01*
X63335477Y-41844928D01*
X63335477Y-41844931D01*
X63284014Y-42014581D01*
X63284012Y-42014584D01*
X63284012Y-42014585D01*
X63200444Y-42170932D01*
X63087975Y-42307975D01*
X62950931Y-42420444D01*
X62794586Y-42504012D01*
X62794583Y-42504013D01*
X62794581Y-42504014D01*
X62624931Y-42555477D01*
X62624930Y-42555477D01*
X62624927Y-42555478D01*
X62448500Y-42572854D01*
X62272074Y-42555478D01*
X62272071Y-42555477D01*
X62272070Y-42555477D01*
X62102420Y-42504014D01*
X62102418Y-42504013D01*
X62102415Y-42504012D01*
X61946070Y-42420444D01*
X61809026Y-42307975D01*
X61696557Y-42170931D01*
X61612986Y-42014581D01*
X61561522Y-41844932D01*
X61548500Y-41712711D01*
X61548500Y-41024290D01*
X61561522Y-40892074D01*
X61561523Y-40892070D01*
X61612986Y-40722420D01*
X61612987Y-40722418D01*
X61612988Y-40722415D01*
X61696556Y-40566068D01*
X61809025Y-40429025D01*
X61946069Y-40316556D01*
X62102414Y-40232988D01*
X62102417Y-40232987D01*
X62102419Y-40232986D01*
X62272069Y-40181523D01*
X62272070Y-40181523D01*
X62272073Y-40181522D01*
X62448500Y-40164146D01*
X62624926Y-40181522D01*
G37*
G36*
X67704926Y-40181522D02*
G01*
X67704929Y-40181523D01*
X67704930Y-40181523D01*
X67874580Y-40232986D01*
X67874582Y-40232987D01*
X67874585Y-40232988D01*
X68030932Y-40316556D01*
X68167975Y-40429025D01*
X68280444Y-40566069D01*
X68364012Y-40722414D01*
X68415478Y-40892073D01*
X68428500Y-41024289D01*
X68428500Y-41712710D01*
X68415478Y-41844926D01*
X68415477Y-41844928D01*
X68415477Y-41844931D01*
X68364014Y-42014581D01*
X68364012Y-42014584D01*
X68364012Y-42014585D01*
X68280444Y-42170932D01*
X68167975Y-42307975D01*
X68030931Y-42420444D01*
X67874586Y-42504012D01*
X67874583Y-42504013D01*
X67874581Y-42504014D01*
X67704931Y-42555477D01*
X67704930Y-42555477D01*
X67704927Y-42555478D01*
X67528500Y-42572854D01*
X67352074Y-42555478D01*
X67352071Y-42555477D01*
X67352070Y-42555477D01*
X67182420Y-42504014D01*
X67182418Y-42504013D01*
X67182415Y-42504012D01*
X67026070Y-42420444D01*
X66889026Y-42307975D01*
X66776557Y-42170931D01*
X66692986Y-42014581D01*
X66641522Y-41844932D01*
X66628500Y-41712711D01*
X66628500Y-41024290D01*
X66641522Y-40892074D01*
X66641523Y-40892070D01*
X66692986Y-40722420D01*
X66692987Y-40722418D01*
X66692988Y-40722415D01*
X66776556Y-40566068D01*
X66889025Y-40429025D01*
X67026069Y-40316556D01*
X67182414Y-40232988D01*
X67182417Y-40232987D01*
X67182419Y-40232986D01*
X67352069Y-40181523D01*
X67352070Y-40181523D01*
X67352073Y-40181522D01*
X67528500Y-40164146D01*
X67704926Y-40181522D01*
G37*
G36*
X72784926Y-40181522D02*
G01*
X72784929Y-40181523D01*
X72784930Y-40181523D01*
X72954580Y-40232986D01*
X72954582Y-40232987D01*
X72954585Y-40232988D01*
X73110932Y-40316556D01*
X73247975Y-40429025D01*
X73360444Y-40566069D01*
X73444012Y-40722414D01*
X73495478Y-40892073D01*
X73508500Y-41024289D01*
X73508500Y-41712710D01*
X73495478Y-41844926D01*
X73495477Y-41844928D01*
X73495477Y-41844931D01*
X73444014Y-42014581D01*
X73444012Y-42014584D01*
X73444012Y-42014585D01*
X73360444Y-42170932D01*
X73247975Y-42307975D01*
X73110931Y-42420444D01*
X72954586Y-42504012D01*
X72954583Y-42504013D01*
X72954581Y-42504014D01*
X72784931Y-42555477D01*
X72784930Y-42555477D01*
X72784927Y-42555478D01*
X72608500Y-42572854D01*
X72432074Y-42555478D01*
X72432071Y-42555477D01*
X72432070Y-42555477D01*
X72262420Y-42504014D01*
X72262418Y-42504013D01*
X72262415Y-42504012D01*
X72106070Y-42420444D01*
X71969026Y-42307975D01*
X71856557Y-42170931D01*
X71772986Y-42014581D01*
X71721522Y-41844932D01*
X71708500Y-41712711D01*
X71708500Y-41024290D01*
X71721522Y-40892074D01*
X71721523Y-40892070D01*
X71772986Y-40722420D01*
X71772987Y-40722418D01*
X71772988Y-40722415D01*
X71856556Y-40566068D01*
X71969025Y-40429025D01*
X72106069Y-40316556D01*
X72262414Y-40232988D01*
X72262417Y-40232987D01*
X72262419Y-40232986D01*
X72432069Y-40181523D01*
X72432070Y-40181523D01*
X72432073Y-40181522D01*
X72608500Y-40164146D01*
X72784926Y-40181522D01*
G37*
G36*
X77864926Y-40181522D02*
G01*
X77864929Y-40181523D01*
X77864930Y-40181523D01*
X78034580Y-40232986D01*
X78034582Y-40232987D01*
X78034585Y-40232988D01*
X78190932Y-40316556D01*
X78327975Y-40429025D01*
X78440444Y-40566069D01*
X78524012Y-40722414D01*
X78575478Y-40892073D01*
X78588500Y-41024289D01*
X78588500Y-41712710D01*
X78575478Y-41844926D01*
X78575477Y-41844928D01*
X78575477Y-41844931D01*
X78524014Y-42014581D01*
X78524012Y-42014584D01*
X78524012Y-42014585D01*
X78440444Y-42170932D01*
X78327975Y-42307975D01*
X78190931Y-42420444D01*
X78034586Y-42504012D01*
X78034583Y-42504013D01*
X78034581Y-42504014D01*
X77864931Y-42555477D01*
X77864930Y-42555477D01*
X77864927Y-42555478D01*
X77688500Y-42572854D01*
X77512074Y-42555478D01*
X77512071Y-42555477D01*
X77512070Y-42555477D01*
X77342420Y-42504014D01*
X77342418Y-42504013D01*
X77342415Y-42504012D01*
X77186070Y-42420444D01*
X77049026Y-42307975D01*
X76936557Y-42170931D01*
X76852986Y-42014581D01*
X76801522Y-41844932D01*
X76788500Y-41712711D01*
X76788500Y-41024290D01*
X76801522Y-40892074D01*
X76801523Y-40892070D01*
X76852986Y-40722420D01*
X76852987Y-40722418D01*
X76852988Y-40722415D01*
X76936556Y-40566068D01*
X77049025Y-40429025D01*
X77186069Y-40316556D01*
X77342414Y-40232988D01*
X77342417Y-40232987D01*
X77342419Y-40232986D01*
X77512069Y-40181523D01*
X77512070Y-40181523D01*
X77512073Y-40181522D01*
X77688500Y-40164146D01*
X77864926Y-40181522D01*
G37*
G36*
X82944926Y-40181522D02*
G01*
X82944929Y-40181523D01*
X82944930Y-40181523D01*
X83114580Y-40232986D01*
X83114582Y-40232987D01*
X83114585Y-40232988D01*
X83270932Y-40316556D01*
X83407975Y-40429025D01*
X83520444Y-40566069D01*
X83604012Y-40722414D01*
X83655478Y-40892073D01*
X83668500Y-41024289D01*
X83668500Y-41712710D01*
X83655478Y-41844926D01*
X83655477Y-41844928D01*
X83655477Y-41844931D01*
X83604014Y-42014581D01*
X83604012Y-42014584D01*
X83604012Y-42014585D01*
X83520444Y-42170932D01*
X83407975Y-42307975D01*
X83270931Y-42420444D01*
X83114586Y-42504012D01*
X83114583Y-42504013D01*
X83114581Y-42504014D01*
X82944931Y-42555477D01*
X82944930Y-42555477D01*
X82944927Y-42555478D01*
X82768500Y-42572854D01*
X82592074Y-42555478D01*
X82592071Y-42555477D01*
X82592070Y-42555477D01*
X82422420Y-42504014D01*
X82422418Y-42504013D01*
X82422415Y-42504012D01*
X82266070Y-42420444D01*
X82129026Y-42307975D01*
X82016557Y-42170931D01*
X81932986Y-42014581D01*
X81881522Y-41844932D01*
X81868500Y-41712711D01*
X81868500Y-41024290D01*
X81881522Y-40892074D01*
X81881523Y-40892070D01*
X81932986Y-40722420D01*
X81932987Y-40722418D01*
X81932988Y-40722415D01*
X82016556Y-40566068D01*
X82129025Y-40429025D01*
X82266069Y-40316556D01*
X82422414Y-40232988D01*
X82422417Y-40232987D01*
X82422419Y-40232986D01*
X82592069Y-40181523D01*
X82592070Y-40181523D01*
X82592073Y-40181522D01*
X82768500Y-40164146D01*
X82944926Y-40181522D01*
G37*
G36*
X88024926Y-40181522D02*
G01*
X88024929Y-40181523D01*
X88024930Y-40181523D01*
X88194580Y-40232986D01*
X88194582Y-40232987D01*
X88194585Y-40232988D01*
X88350932Y-40316556D01*
X88487975Y-40429025D01*
X88600444Y-40566069D01*
X88684012Y-40722414D01*
X88735478Y-40892073D01*
X88748500Y-41024289D01*
X88748500Y-41712710D01*
X88735478Y-41844926D01*
X88735477Y-41844928D01*
X88735477Y-41844931D01*
X88684014Y-42014581D01*
X88684012Y-42014584D01*
X88684012Y-42014585D01*
X88600444Y-42170932D01*
X88487975Y-42307975D01*
X88350931Y-42420444D01*
X88194586Y-42504012D01*
X88194583Y-42504013D01*
X88194581Y-42504014D01*
X88024931Y-42555477D01*
X88024930Y-42555477D01*
X88024927Y-42555478D01*
X87848500Y-42572854D01*
X87672074Y-42555478D01*
X87672071Y-42555477D01*
X87672070Y-42555477D01*
X87502420Y-42504014D01*
X87502418Y-42504013D01*
X87502415Y-42504012D01*
X87346070Y-42420444D01*
X87209026Y-42307975D01*
X87096557Y-42170931D01*
X87012986Y-42014581D01*
X86961522Y-41844932D01*
X86948500Y-41712711D01*
X86948500Y-41024290D01*
X86961522Y-40892074D01*
X86961523Y-40892070D01*
X87012986Y-40722420D01*
X87012987Y-40722418D01*
X87012988Y-40722415D01*
X87096556Y-40566068D01*
X87209025Y-40429025D01*
X87346069Y-40316556D01*
X87502414Y-40232988D01*
X87502417Y-40232987D01*
X87502419Y-40232986D01*
X87672069Y-40181523D01*
X87672070Y-40181523D01*
X87672073Y-40181522D01*
X87848500Y-40164146D01*
X88024926Y-40181522D01*
G37*
G36*
X93104926Y-40181522D02*
G01*
X93104929Y-40181523D01*
X93104930Y-40181523D01*
X93274580Y-40232986D01*
X93274582Y-40232987D01*
X93274585Y-40232988D01*
X93430932Y-40316556D01*
X93567975Y-40429025D01*
X93680444Y-40566069D01*
X93764012Y-40722414D01*
X93815478Y-40892073D01*
X93828500Y-41024289D01*
X93828500Y-41712710D01*
X93815478Y-41844926D01*
X93815477Y-41844928D01*
X93815477Y-41844931D01*
X93764014Y-42014581D01*
X93764012Y-42014584D01*
X93764012Y-42014585D01*
X93680444Y-42170932D01*
X93567975Y-42307975D01*
X93430931Y-42420444D01*
X93274586Y-42504012D01*
X93274583Y-42504013D01*
X93274581Y-42504014D01*
X93104931Y-42555477D01*
X93104930Y-42555477D01*
X93104927Y-42555478D01*
X92928500Y-42572854D01*
X92752074Y-42555478D01*
X92752071Y-42555477D01*
X92752070Y-42555477D01*
X92582420Y-42504014D01*
X92582418Y-42504013D01*
X92582415Y-42504012D01*
X92426070Y-42420444D01*
X92289026Y-42307975D01*
X92176557Y-42170931D01*
X92092986Y-42014581D01*
X92041522Y-41844932D01*
X92028500Y-41712711D01*
X92028500Y-41024290D01*
X92041522Y-40892074D01*
X92041523Y-40892070D01*
X92092986Y-40722420D01*
X92092987Y-40722418D01*
X92092988Y-40722415D01*
X92176556Y-40566068D01*
X92289025Y-40429025D01*
X92426069Y-40316556D01*
X92582414Y-40232988D01*
X92582417Y-40232987D01*
X92582419Y-40232986D01*
X92752069Y-40181523D01*
X92752070Y-40181523D01*
X92752073Y-40181522D01*
X92928500Y-40164146D01*
X93104926Y-40181522D01*
G37*
G36*
X98184926Y-40181522D02*
G01*
X98184929Y-40181523D01*
X98184930Y-40181523D01*
X98354580Y-40232986D01*
X98354582Y-40232987D01*
X98354585Y-40232988D01*
X98510932Y-40316556D01*
X98647975Y-40429025D01*
X98760444Y-40566069D01*
X98844012Y-40722414D01*
X98895478Y-40892073D01*
X98908500Y-41024289D01*
X98908500Y-41712710D01*
X98895478Y-41844926D01*
X98895477Y-41844928D01*
X98895477Y-41844931D01*
X98844014Y-42014581D01*
X98844012Y-42014584D01*
X98844012Y-42014585D01*
X98760444Y-42170932D01*
X98647975Y-42307975D01*
X98510931Y-42420444D01*
X98354586Y-42504012D01*
X98354583Y-42504013D01*
X98354581Y-42504014D01*
X98184931Y-42555477D01*
X98184930Y-42555477D01*
X98184927Y-42555478D01*
X98008500Y-42572854D01*
X97832074Y-42555478D01*
X97832071Y-42555477D01*
X97832070Y-42555477D01*
X97662420Y-42504014D01*
X97662418Y-42504013D01*
X97662415Y-42504012D01*
X97506070Y-42420444D01*
X97369026Y-42307975D01*
X97256557Y-42170931D01*
X97172986Y-42014581D01*
X97121522Y-41844932D01*
X97108500Y-41712711D01*
X97108500Y-41024290D01*
X97121522Y-40892074D01*
X97121523Y-40892070D01*
X97172986Y-40722420D01*
X97172987Y-40722418D01*
X97172988Y-40722415D01*
X97256556Y-40566068D01*
X97369025Y-40429025D01*
X97506069Y-40316556D01*
X97662414Y-40232988D01*
X97662417Y-40232987D01*
X97662419Y-40232986D01*
X97832069Y-40181523D01*
X97832070Y-40181523D01*
X97832073Y-40181522D01*
X98008500Y-40164146D01*
X98184926Y-40181522D01*
G37*
G36*
X113424926Y-40181522D02*
G01*
X113424929Y-40181523D01*
X113424930Y-40181523D01*
X113594580Y-40232986D01*
X113594582Y-40232987D01*
X113594585Y-40232988D01*
X113750932Y-40316556D01*
X113887975Y-40429025D01*
X114000444Y-40566069D01*
X114084012Y-40722414D01*
X114135478Y-40892073D01*
X114148500Y-41024289D01*
X114148500Y-41712710D01*
X114135478Y-41844926D01*
X114135477Y-41844928D01*
X114135477Y-41844931D01*
X114084014Y-42014581D01*
X114084012Y-42014584D01*
X114084012Y-42014585D01*
X114000444Y-42170932D01*
X113887975Y-42307975D01*
X113750931Y-42420444D01*
X113594586Y-42504012D01*
X113594583Y-42504013D01*
X113594581Y-42504014D01*
X113424931Y-42555477D01*
X113424930Y-42555477D01*
X113424927Y-42555478D01*
X113248500Y-42572854D01*
X113072074Y-42555478D01*
X113072071Y-42555477D01*
X113072070Y-42555477D01*
X112902420Y-42504014D01*
X112902418Y-42504013D01*
X112902415Y-42504012D01*
X112746070Y-42420444D01*
X112609026Y-42307975D01*
X112496557Y-42170931D01*
X112412986Y-42014581D01*
X112361522Y-41844932D01*
X112348500Y-41712711D01*
X112348500Y-41024290D01*
X112361522Y-40892074D01*
X112361523Y-40892070D01*
X112412986Y-40722420D01*
X112412987Y-40722418D01*
X112412988Y-40722415D01*
X112496556Y-40566068D01*
X112609025Y-40429025D01*
X112746069Y-40316556D01*
X112902414Y-40232988D01*
X112902417Y-40232987D01*
X112902419Y-40232986D01*
X113072069Y-40181523D01*
X113072070Y-40181523D01*
X113072073Y-40181522D01*
X113248500Y-40164146D01*
X113424926Y-40181522D01*
G37*
M02*
