G04 #@! TF.GenerationSoftware,KiCad,Pcbnew,(5.1.6-dirty)*
G04 #@! TF.CreationDate,2020-05-22T11:22:20+02:00*
G04 #@! TF.ProjectId,esp32control,65737033-3263-46f6-9e74-726f6c2e6b69,rev?*
G04 #@! TF.SameCoordinates,Original*
G04 #@! TF.FileFunction,Soldermask,Bot*
G04 #@! TF.FilePolarity,Negative*
%FSLAX46Y46*%
G04 Gerber Fmt 4.6, Leading zero omitted, Abs format (unit mm)*
G04 Created by KiCad (PCBNEW (5.1.6-dirty)) date 2020-05-22 11:22:20*
%MOMM*%
%LPD*%
G01*
G04 APERTURE LIST*
%ADD10C,0.200000*%
%ADD11C,0.150000*%
%ADD12C,0.300000*%
%ADD13C,0.400000*%
G04 APERTURE END LIST*
D10*
D11*
X177002200Y-166007200D02*
X177002200Y-198007200D01*
X285002200Y-198007200D01*
X285002200Y-166007200D01*
X177002200Y-166007200D01*
D10*
D11*
X10000000Y-10000000D02*
X10000000Y-200007200D01*
X287002200Y-200007200D01*
X287002200Y-10000000D01*
X10000000Y-10000000D01*
D10*
D11*
X12000000Y-12000000D02*
X12000000Y-198007200D01*
X285002200Y-198007200D01*
X285002200Y-12000000D01*
X12000000Y-12000000D01*
D10*
D11*
X60000000Y-12000000D02*
X60000000Y-10000000D01*
D10*
D11*
X110000000Y-12000000D02*
X110000000Y-10000000D01*
D10*
D11*
X160000000Y-12000000D02*
X160000000Y-10000000D01*
D10*
D11*
X210000000Y-12000000D02*
X210000000Y-10000000D01*
D10*
D11*
X260000000Y-12000000D02*
X260000000Y-10000000D01*
D10*
D11*
X36065476Y-11588095D02*
X35322619Y-11588095D01*
X35694047Y-11588095D02*
X35694047Y-10288095D01*
X35570238Y-10473809D01*
X35446428Y-10597619D01*
X35322619Y-10659523D01*
D10*
D11*
X85322619Y-10411904D02*
X85384523Y-10350000D01*
X85508333Y-10288095D01*
X85817857Y-10288095D01*
X85941666Y-10350000D01*
X86003571Y-10411904D01*
X86065476Y-10535714D01*
X86065476Y-10659523D01*
X86003571Y-10845238D01*
X85260714Y-11588095D01*
X86065476Y-11588095D01*
D10*
D11*
X135260714Y-10288095D02*
X136065476Y-10288095D01*
X135632142Y-10783333D01*
X135817857Y-10783333D01*
X135941666Y-10845238D01*
X136003571Y-10907142D01*
X136065476Y-11030952D01*
X136065476Y-11340476D01*
X136003571Y-11464285D01*
X135941666Y-11526190D01*
X135817857Y-11588095D01*
X135446428Y-11588095D01*
X135322619Y-11526190D01*
X135260714Y-11464285D01*
D10*
D11*
X185941666Y-10721428D02*
X185941666Y-11588095D01*
X185632142Y-10226190D02*
X185322619Y-11154761D01*
X186127380Y-11154761D01*
D10*
D11*
X236003571Y-10288095D02*
X235384523Y-10288095D01*
X235322619Y-10907142D01*
X235384523Y-10845238D01*
X235508333Y-10783333D01*
X235817857Y-10783333D01*
X235941666Y-10845238D01*
X236003571Y-10907142D01*
X236065476Y-11030952D01*
X236065476Y-11340476D01*
X236003571Y-11464285D01*
X235941666Y-11526190D01*
X235817857Y-11588095D01*
X235508333Y-11588095D01*
X235384523Y-11526190D01*
X235322619Y-11464285D01*
D10*
D11*
X285941666Y-10288095D02*
X285694047Y-10288095D01*
X285570238Y-10350000D01*
X285508333Y-10411904D01*
X285384523Y-10597619D01*
X285322619Y-10845238D01*
X285322619Y-11340476D01*
X285384523Y-11464285D01*
X285446428Y-11526190D01*
X285570238Y-11588095D01*
X285817857Y-11588095D01*
X285941666Y-11526190D01*
X286003571Y-11464285D01*
X286065476Y-11340476D01*
X286065476Y-11030952D01*
X286003571Y-10907142D01*
X285941666Y-10845238D01*
X285817857Y-10783333D01*
X285570238Y-10783333D01*
X285446428Y-10845238D01*
X285384523Y-10907142D01*
X285322619Y-11030952D01*
D10*
D11*
X60000000Y-198007200D02*
X60000000Y-200007200D01*
D10*
D11*
X110000000Y-198007200D02*
X110000000Y-200007200D01*
D10*
D11*
X160000000Y-198007200D02*
X160000000Y-200007200D01*
D10*
D11*
X210000000Y-198007200D02*
X210000000Y-200007200D01*
D10*
D11*
X260000000Y-198007200D02*
X260000000Y-200007200D01*
D10*
D11*
X36065476Y-199595295D02*
X35322619Y-199595295D01*
X35694047Y-199595295D02*
X35694047Y-198295295D01*
X35570238Y-198481009D01*
X35446428Y-198604819D01*
X35322619Y-198666723D01*
D10*
D11*
X85322619Y-198419104D02*
X85384523Y-198357200D01*
X85508333Y-198295295D01*
X85817857Y-198295295D01*
X85941666Y-198357200D01*
X86003571Y-198419104D01*
X86065476Y-198542914D01*
X86065476Y-198666723D01*
X86003571Y-198852438D01*
X85260714Y-199595295D01*
X86065476Y-199595295D01*
D10*
D11*
X135260714Y-198295295D02*
X136065476Y-198295295D01*
X135632142Y-198790533D01*
X135817857Y-198790533D01*
X135941666Y-198852438D01*
X136003571Y-198914342D01*
X136065476Y-199038152D01*
X136065476Y-199347676D01*
X136003571Y-199471485D01*
X135941666Y-199533390D01*
X135817857Y-199595295D01*
X135446428Y-199595295D01*
X135322619Y-199533390D01*
X135260714Y-199471485D01*
D10*
D11*
X185941666Y-198728628D02*
X185941666Y-199595295D01*
X185632142Y-198233390D02*
X185322619Y-199161961D01*
X186127380Y-199161961D01*
D10*
D11*
X236003571Y-198295295D02*
X235384523Y-198295295D01*
X235322619Y-198914342D01*
X235384523Y-198852438D01*
X235508333Y-198790533D01*
X235817857Y-198790533D01*
X235941666Y-198852438D01*
X236003571Y-198914342D01*
X236065476Y-199038152D01*
X236065476Y-199347676D01*
X236003571Y-199471485D01*
X235941666Y-199533390D01*
X235817857Y-199595295D01*
X235508333Y-199595295D01*
X235384523Y-199533390D01*
X235322619Y-199471485D01*
D10*
D11*
X285941666Y-198295295D02*
X285694047Y-198295295D01*
X285570238Y-198357200D01*
X285508333Y-198419104D01*
X285384523Y-198604819D01*
X285322619Y-198852438D01*
X285322619Y-199347676D01*
X285384523Y-199471485D01*
X285446428Y-199533390D01*
X285570238Y-199595295D01*
X285817857Y-199595295D01*
X285941666Y-199533390D01*
X286003571Y-199471485D01*
X286065476Y-199347676D01*
X286065476Y-199038152D01*
X286003571Y-198914342D01*
X285941666Y-198852438D01*
X285817857Y-198790533D01*
X285570238Y-198790533D01*
X285446428Y-198852438D01*
X285384523Y-198914342D01*
X285322619Y-199038152D01*
D10*
D11*
X10000000Y-60000000D02*
X12000000Y-60000000D01*
D10*
D11*
X10000000Y-110000000D02*
X12000000Y-110000000D01*
D10*
D11*
X10000000Y-160000000D02*
X12000000Y-160000000D01*
D10*
D11*
X10690476Y-35216666D02*
X11309523Y-35216666D01*
X10566666Y-35588095D02*
X11000000Y-34288095D01*
X11433333Y-35588095D01*
D10*
D11*
X11092857Y-84907142D02*
X11278571Y-84969047D01*
X11340476Y-85030952D01*
X11402380Y-85154761D01*
X11402380Y-85340476D01*
X11340476Y-85464285D01*
X11278571Y-85526190D01*
X11154761Y-85588095D01*
X10659523Y-85588095D01*
X10659523Y-84288095D01*
X11092857Y-84288095D01*
X11216666Y-84350000D01*
X11278571Y-84411904D01*
X11340476Y-84535714D01*
X11340476Y-84659523D01*
X11278571Y-84783333D01*
X11216666Y-84845238D01*
X11092857Y-84907142D01*
X10659523Y-84907142D01*
D10*
D11*
X11402380Y-135464285D02*
X11340476Y-135526190D01*
X11154761Y-135588095D01*
X11030952Y-135588095D01*
X10845238Y-135526190D01*
X10721428Y-135402380D01*
X10659523Y-135278571D01*
X10597619Y-135030952D01*
X10597619Y-134845238D01*
X10659523Y-134597619D01*
X10721428Y-134473809D01*
X10845238Y-134350000D01*
X11030952Y-134288095D01*
X11154761Y-134288095D01*
X11340476Y-134350000D01*
X11402380Y-134411904D01*
D10*
D11*
X10659523Y-185588095D02*
X10659523Y-184288095D01*
X10969047Y-184288095D01*
X11154761Y-184350000D01*
X11278571Y-184473809D01*
X11340476Y-184597619D01*
X11402380Y-184845238D01*
X11402380Y-185030952D01*
X11340476Y-185278571D01*
X11278571Y-185402380D01*
X11154761Y-185526190D01*
X10969047Y-185588095D01*
X10659523Y-185588095D01*
D10*
D11*
X287002200Y-60000000D02*
X285002200Y-60000000D01*
D10*
D11*
X287002200Y-110000000D02*
X285002200Y-110000000D01*
D10*
D11*
X287002200Y-160000000D02*
X285002200Y-160000000D01*
D10*
D11*
X285692676Y-35216666D02*
X286311723Y-35216666D01*
X285568866Y-35588095D02*
X286002200Y-34288095D01*
X286435533Y-35588095D01*
D10*
D11*
X286095057Y-84907142D02*
X286280771Y-84969047D01*
X286342676Y-85030952D01*
X286404580Y-85154761D01*
X286404580Y-85340476D01*
X286342676Y-85464285D01*
X286280771Y-85526190D01*
X286156961Y-85588095D01*
X285661723Y-85588095D01*
X285661723Y-84288095D01*
X286095057Y-84288095D01*
X286218866Y-84350000D01*
X286280771Y-84411904D01*
X286342676Y-84535714D01*
X286342676Y-84659523D01*
X286280771Y-84783333D01*
X286218866Y-84845238D01*
X286095057Y-84907142D01*
X285661723Y-84907142D01*
D10*
D11*
X286404580Y-135464285D02*
X286342676Y-135526190D01*
X286156961Y-135588095D01*
X286033152Y-135588095D01*
X285847438Y-135526190D01*
X285723628Y-135402380D01*
X285661723Y-135278571D01*
X285599819Y-135030952D01*
X285599819Y-134845238D01*
X285661723Y-134597619D01*
X285723628Y-134473809D01*
X285847438Y-134350000D01*
X286033152Y-134288095D01*
X286156961Y-134288095D01*
X286342676Y-134350000D01*
X286404580Y-134411904D01*
D10*
D11*
X285661723Y-185588095D02*
X285661723Y-184288095D01*
X285971247Y-184288095D01*
X286156961Y-184350000D01*
X286280771Y-184473809D01*
X286342676Y-184597619D01*
X286404580Y-184845238D01*
X286404580Y-185030952D01*
X286342676Y-185278571D01*
X286280771Y-185402380D01*
X286156961Y-185526190D01*
X285971247Y-185588095D01*
X285661723Y-185588095D01*
D10*
D11*
X200434342Y-193785771D02*
X200434342Y-192285771D01*
X200791485Y-192285771D01*
X201005771Y-192357200D01*
X201148628Y-192500057D01*
X201220057Y-192642914D01*
X201291485Y-192928628D01*
X201291485Y-193142914D01*
X201220057Y-193428628D01*
X201148628Y-193571485D01*
X201005771Y-193714342D01*
X200791485Y-193785771D01*
X200434342Y-193785771D01*
X202577200Y-193785771D02*
X202577200Y-193000057D01*
X202505771Y-192857200D01*
X202362914Y-192785771D01*
X202077200Y-192785771D01*
X201934342Y-192857200D01*
X202577200Y-193714342D02*
X202434342Y-193785771D01*
X202077200Y-193785771D01*
X201934342Y-193714342D01*
X201862914Y-193571485D01*
X201862914Y-193428628D01*
X201934342Y-193285771D01*
X202077200Y-193214342D01*
X202434342Y-193214342D01*
X202577200Y-193142914D01*
X203077200Y-192785771D02*
X203648628Y-192785771D01*
X203291485Y-192285771D02*
X203291485Y-193571485D01*
X203362914Y-193714342D01*
X203505771Y-193785771D01*
X203648628Y-193785771D01*
X204720057Y-193714342D02*
X204577200Y-193785771D01*
X204291485Y-193785771D01*
X204148628Y-193714342D01*
X204077200Y-193571485D01*
X204077200Y-193000057D01*
X204148628Y-192857200D01*
X204291485Y-192785771D01*
X204577200Y-192785771D01*
X204720057Y-192857200D01*
X204791485Y-193000057D01*
X204791485Y-193142914D01*
X204077200Y-193285771D01*
X205434342Y-193642914D02*
X205505771Y-193714342D01*
X205434342Y-193785771D01*
X205362914Y-193714342D01*
X205434342Y-193642914D01*
X205434342Y-193785771D01*
X205434342Y-192857200D02*
X205505771Y-192928628D01*
X205434342Y-193000057D01*
X205362914Y-192928628D01*
X205434342Y-192857200D01*
X205434342Y-193000057D01*
D10*
D11*
X177002200Y-194507200D02*
X285002200Y-194507200D01*
D10*
D11*
X178434342Y-196585771D02*
X178434342Y-195085771D01*
X179291485Y-196585771D02*
X178648628Y-195728628D01*
X179291485Y-195085771D02*
X178434342Y-195942914D01*
X179934342Y-196585771D02*
X179934342Y-195585771D01*
X179934342Y-195085771D02*
X179862914Y-195157200D01*
X179934342Y-195228628D01*
X180005771Y-195157200D01*
X179934342Y-195085771D01*
X179934342Y-195228628D01*
X181505771Y-196442914D02*
X181434342Y-196514342D01*
X181220057Y-196585771D01*
X181077200Y-196585771D01*
X180862914Y-196514342D01*
X180720057Y-196371485D01*
X180648628Y-196228628D01*
X180577200Y-195942914D01*
X180577200Y-195728628D01*
X180648628Y-195442914D01*
X180720057Y-195300057D01*
X180862914Y-195157200D01*
X181077200Y-195085771D01*
X181220057Y-195085771D01*
X181434342Y-195157200D01*
X181505771Y-195228628D01*
X182791485Y-196585771D02*
X182791485Y-195800057D01*
X182720057Y-195657200D01*
X182577200Y-195585771D01*
X182291485Y-195585771D01*
X182148628Y-195657200D01*
X182791485Y-196514342D02*
X182648628Y-196585771D01*
X182291485Y-196585771D01*
X182148628Y-196514342D01*
X182077200Y-196371485D01*
X182077200Y-196228628D01*
X182148628Y-196085771D01*
X182291485Y-196014342D01*
X182648628Y-196014342D01*
X182791485Y-195942914D01*
X184148628Y-196585771D02*
X184148628Y-195085771D01*
X184148628Y-196514342D02*
X184005771Y-196585771D01*
X183720057Y-196585771D01*
X183577200Y-196514342D01*
X183505771Y-196442914D01*
X183434342Y-196300057D01*
X183434342Y-195871485D01*
X183505771Y-195728628D01*
X183577200Y-195657200D01*
X183720057Y-195585771D01*
X184005771Y-195585771D01*
X184148628Y-195657200D01*
X186005771Y-195800057D02*
X186505771Y-195800057D01*
X186720057Y-196585771D02*
X186005771Y-196585771D01*
X186005771Y-195085771D01*
X186720057Y-195085771D01*
X187362914Y-196442914D02*
X187434342Y-196514342D01*
X187362914Y-196585771D01*
X187291485Y-196514342D01*
X187362914Y-196442914D01*
X187362914Y-196585771D01*
X188077200Y-196585771D02*
X188077200Y-195085771D01*
X188434342Y-195085771D01*
X188648628Y-195157200D01*
X188791485Y-195300057D01*
X188862914Y-195442914D01*
X188934342Y-195728628D01*
X188934342Y-195942914D01*
X188862914Y-196228628D01*
X188791485Y-196371485D01*
X188648628Y-196514342D01*
X188434342Y-196585771D01*
X188077200Y-196585771D01*
X189577200Y-196442914D02*
X189648628Y-196514342D01*
X189577200Y-196585771D01*
X189505771Y-196514342D01*
X189577200Y-196442914D01*
X189577200Y-196585771D01*
X190220057Y-196157200D02*
X190934342Y-196157200D01*
X190077200Y-196585771D02*
X190577200Y-195085771D01*
X191077200Y-196585771D01*
X191577200Y-196442914D02*
X191648628Y-196514342D01*
X191577200Y-196585771D01*
X191505771Y-196514342D01*
X191577200Y-196442914D01*
X191577200Y-196585771D01*
X194577200Y-196585771D02*
X194577200Y-195085771D01*
X194720057Y-196014342D02*
X195148628Y-196585771D01*
X195148628Y-195585771D02*
X194577200Y-196157200D01*
X195791485Y-196585771D02*
X195791485Y-195585771D01*
X195791485Y-195085771D02*
X195720057Y-195157200D01*
X195791485Y-195228628D01*
X195862914Y-195157200D01*
X195791485Y-195085771D01*
X195791485Y-195228628D01*
X197148628Y-196514342D02*
X197005771Y-196585771D01*
X196720057Y-196585771D01*
X196577200Y-196514342D01*
X196505771Y-196442914D01*
X196434342Y-196300057D01*
X196434342Y-195871485D01*
X196505771Y-195728628D01*
X196577200Y-195657200D01*
X196720057Y-195585771D01*
X197005771Y-195585771D01*
X197148628Y-195657200D01*
X198434342Y-196585771D02*
X198434342Y-195800057D01*
X198362914Y-195657200D01*
X198220057Y-195585771D01*
X197934342Y-195585771D01*
X197791485Y-195657200D01*
X198434342Y-196514342D02*
X198291485Y-196585771D01*
X197934342Y-196585771D01*
X197791485Y-196514342D01*
X197720057Y-196371485D01*
X197720057Y-196228628D01*
X197791485Y-196085771D01*
X197934342Y-196014342D01*
X198291485Y-196014342D01*
X198434342Y-195942914D01*
X199791485Y-196585771D02*
X199791485Y-195085771D01*
X199791485Y-196514342D02*
X199648628Y-196585771D01*
X199362914Y-196585771D01*
X199220057Y-196514342D01*
X199148628Y-196442914D01*
X199077200Y-196300057D01*
X199077200Y-195871485D01*
X199148628Y-195728628D01*
X199220057Y-195657200D01*
X199362914Y-195585771D01*
X199648628Y-195585771D01*
X199791485Y-195657200D01*
X200148628Y-196728628D02*
X201291485Y-196728628D01*
X201648628Y-196585771D02*
X201648628Y-195085771D01*
X201648628Y-195657200D02*
X201791485Y-195585771D01*
X202077200Y-195585771D01*
X202220057Y-195657200D01*
X202291485Y-195728628D01*
X202362914Y-195871485D01*
X202362914Y-196300057D01*
X202291485Y-196442914D01*
X202220057Y-196514342D01*
X202077200Y-196585771D01*
X201791485Y-196585771D01*
X201648628Y-196514342D01*
X203005771Y-196585771D02*
X203005771Y-195585771D01*
X203005771Y-195085771D02*
X202934342Y-195157200D01*
X203005771Y-195228628D01*
X203077200Y-195157200D01*
X203005771Y-195085771D01*
X203005771Y-195228628D01*
X203720057Y-195585771D02*
X203720057Y-196585771D01*
X203720057Y-195728628D02*
X203791485Y-195657200D01*
X203934342Y-195585771D01*
X204148628Y-195585771D01*
X204291485Y-195657200D01*
X204362914Y-195800057D01*
X204362914Y-196585771D01*
X206648628Y-197157200D02*
X206577200Y-197085771D01*
X206434342Y-196871485D01*
X206362914Y-196728628D01*
X206291485Y-196514342D01*
X206220057Y-196157200D01*
X206220057Y-195871485D01*
X206291485Y-195514342D01*
X206362914Y-195300057D01*
X206434342Y-195157200D01*
X206577200Y-194942914D01*
X206648628Y-194871485D01*
X207934342Y-195085771D02*
X207220057Y-195085771D01*
X207148628Y-195800057D01*
X207220057Y-195728628D01*
X207362914Y-195657200D01*
X207720057Y-195657200D01*
X207862914Y-195728628D01*
X207934342Y-195800057D01*
X208005771Y-195942914D01*
X208005771Y-196300057D01*
X207934342Y-196442914D01*
X207862914Y-196514342D01*
X207720057Y-196585771D01*
X207362914Y-196585771D01*
X207220057Y-196514342D01*
X207148628Y-196442914D01*
X208648628Y-196442914D02*
X208720057Y-196514342D01*
X208648628Y-196585771D01*
X208577200Y-196514342D01*
X208648628Y-196442914D01*
X208648628Y-196585771D01*
X210148628Y-196585771D02*
X209291485Y-196585771D01*
X209720057Y-196585771D02*
X209720057Y-195085771D01*
X209577200Y-195300057D01*
X209434342Y-195442914D01*
X209291485Y-195514342D01*
X210791485Y-196442914D02*
X210862914Y-196514342D01*
X210791485Y-196585771D01*
X210720057Y-196514342D01*
X210791485Y-196442914D01*
X210791485Y-196585771D01*
X212148628Y-195085771D02*
X211862914Y-195085771D01*
X211720057Y-195157200D01*
X211648628Y-195228628D01*
X211505771Y-195442914D01*
X211434342Y-195728628D01*
X211434342Y-196300057D01*
X211505771Y-196442914D01*
X211577200Y-196514342D01*
X211720057Y-196585771D01*
X212005771Y-196585771D01*
X212148628Y-196514342D01*
X212220057Y-196442914D01*
X212291485Y-196300057D01*
X212291485Y-195942914D01*
X212220057Y-195800057D01*
X212148628Y-195728628D01*
X212005771Y-195657200D01*
X211720057Y-195657200D01*
X211577200Y-195728628D01*
X211505771Y-195800057D01*
X211434342Y-195942914D01*
X212934342Y-196014342D02*
X214077200Y-196014342D01*
X215434342Y-196585771D02*
X215434342Y-195085771D01*
X215434342Y-196514342D02*
X215291485Y-196585771D01*
X215005771Y-196585771D01*
X214862914Y-196514342D01*
X214791485Y-196442914D01*
X214720057Y-196300057D01*
X214720057Y-195871485D01*
X214791485Y-195728628D01*
X214862914Y-195657200D01*
X215005771Y-195585771D01*
X215291485Y-195585771D01*
X215434342Y-195657200D01*
X216148628Y-196585771D02*
X216148628Y-195585771D01*
X216148628Y-195085771D02*
X216077200Y-195157200D01*
X216148628Y-195228628D01*
X216220057Y-195157200D01*
X216148628Y-195085771D01*
X216148628Y-195228628D01*
X216862914Y-196585771D02*
X216862914Y-195585771D01*
X216862914Y-195871485D02*
X216934342Y-195728628D01*
X217005771Y-195657200D01*
X217148628Y-195585771D01*
X217291485Y-195585771D01*
X217577200Y-195585771D02*
X218148628Y-195585771D01*
X217791485Y-195085771D02*
X217791485Y-196371485D01*
X217862914Y-196514342D01*
X218005771Y-196585771D01*
X218148628Y-196585771D01*
X218505771Y-195585771D02*
X218862914Y-196585771D01*
X219220057Y-195585771D02*
X218862914Y-196585771D01*
X218720057Y-196942914D01*
X218648628Y-197014342D01*
X218505771Y-197085771D01*
X219648628Y-197157200D02*
X219720057Y-197085771D01*
X219862914Y-196871485D01*
X219934342Y-196728628D01*
X220005771Y-196514342D01*
X220077200Y-196157200D01*
X220077200Y-195871485D01*
X220005771Y-195514342D01*
X219934342Y-195300057D01*
X219862914Y-195157200D01*
X219720057Y-194942914D01*
X219648628Y-194871485D01*
D10*
D11*
X177002200Y-191507200D02*
X285002200Y-191507200D01*
D10*
D12*
X264411485Y-193785771D02*
X263911485Y-193071485D01*
X263554342Y-193785771D02*
X263554342Y-192285771D01*
X264125771Y-192285771D01*
X264268628Y-192357200D01*
X264340057Y-192428628D01*
X264411485Y-192571485D01*
X264411485Y-192785771D01*
X264340057Y-192928628D01*
X264268628Y-193000057D01*
X264125771Y-193071485D01*
X263554342Y-193071485D01*
X265625771Y-193714342D02*
X265482914Y-193785771D01*
X265197200Y-193785771D01*
X265054342Y-193714342D01*
X264982914Y-193571485D01*
X264982914Y-193000057D01*
X265054342Y-192857200D01*
X265197200Y-192785771D01*
X265482914Y-192785771D01*
X265625771Y-192857200D01*
X265697200Y-193000057D01*
X265697200Y-193142914D01*
X264982914Y-193285771D01*
X266197200Y-192785771D02*
X266554342Y-193785771D01*
X266911485Y-192785771D01*
X267482914Y-193642914D02*
X267554342Y-193714342D01*
X267482914Y-193785771D01*
X267411485Y-193714342D01*
X267482914Y-193642914D01*
X267482914Y-193785771D01*
X267482914Y-192857200D02*
X267554342Y-192928628D01*
X267482914Y-193000057D01*
X267411485Y-192928628D01*
X267482914Y-192857200D01*
X267482914Y-193000057D01*
D10*
D11*
X178362914Y-193714342D02*
X178577200Y-193785771D01*
X178934342Y-193785771D01*
X179077200Y-193714342D01*
X179148628Y-193642914D01*
X179220057Y-193500057D01*
X179220057Y-193357200D01*
X179148628Y-193214342D01*
X179077200Y-193142914D01*
X178934342Y-193071485D01*
X178648628Y-193000057D01*
X178505771Y-192928628D01*
X178434342Y-192857200D01*
X178362914Y-192714342D01*
X178362914Y-192571485D01*
X178434342Y-192428628D01*
X178505771Y-192357200D01*
X178648628Y-192285771D01*
X179005771Y-192285771D01*
X179220057Y-192357200D01*
X179862914Y-193785771D02*
X179862914Y-192785771D01*
X179862914Y-192285771D02*
X179791485Y-192357200D01*
X179862914Y-192428628D01*
X179934342Y-192357200D01*
X179862914Y-192285771D01*
X179862914Y-192428628D01*
X180434342Y-192785771D02*
X181220057Y-192785771D01*
X180434342Y-193785771D01*
X181220057Y-193785771D01*
X182362914Y-193714342D02*
X182220057Y-193785771D01*
X181934342Y-193785771D01*
X181791485Y-193714342D01*
X181720057Y-193571485D01*
X181720057Y-193000057D01*
X181791485Y-192857200D01*
X181934342Y-192785771D01*
X182220057Y-192785771D01*
X182362914Y-192857200D01*
X182434342Y-193000057D01*
X182434342Y-193142914D01*
X181720057Y-193285771D01*
X183077200Y-193642914D02*
X183148628Y-193714342D01*
X183077200Y-193785771D01*
X183005771Y-193714342D01*
X183077200Y-193642914D01*
X183077200Y-193785771D01*
X183077200Y-192857200D02*
X183148628Y-192928628D01*
X183077200Y-193000057D01*
X183005771Y-192928628D01*
X183077200Y-192857200D01*
X183077200Y-193000057D01*
X184862914Y-193357200D02*
X185577200Y-193357200D01*
X184720057Y-193785771D02*
X185220057Y-192285771D01*
X185720057Y-193785771D01*
X186862914Y-192785771D02*
X186862914Y-193785771D01*
X186505771Y-192214342D02*
X186148628Y-193285771D01*
X187077200Y-193285771D01*
D10*
D11*
X263434342Y-196585771D02*
X263434342Y-195085771D01*
X264791485Y-196585771D02*
X264791485Y-195085771D01*
X264791485Y-196514342D02*
X264648628Y-196585771D01*
X264362914Y-196585771D01*
X264220057Y-196514342D01*
X264148628Y-196442914D01*
X264077200Y-196300057D01*
X264077200Y-195871485D01*
X264148628Y-195728628D01*
X264220057Y-195657200D01*
X264362914Y-195585771D01*
X264648628Y-195585771D01*
X264791485Y-195657200D01*
X265505771Y-196442914D02*
X265577200Y-196514342D01*
X265505771Y-196585771D01*
X265434342Y-196514342D01*
X265505771Y-196442914D01*
X265505771Y-196585771D01*
X265505771Y-195657200D02*
X265577200Y-195728628D01*
X265505771Y-195800057D01*
X265434342Y-195728628D01*
X265505771Y-195657200D01*
X265505771Y-195800057D01*
X268148628Y-196585771D02*
X267291485Y-196585771D01*
X267720057Y-196585771D02*
X267720057Y-195085771D01*
X267577200Y-195300057D01*
X267434342Y-195442914D01*
X267291485Y-195514342D01*
X269862914Y-195014342D02*
X268577200Y-196942914D01*
X271148628Y-196585771D02*
X270291485Y-196585771D01*
X270720057Y-196585771D02*
X270720057Y-195085771D01*
X270577200Y-195300057D01*
X270434342Y-195442914D01*
X270291485Y-195514342D01*
D10*
D11*
X177002200Y-187507200D02*
X285002200Y-187507200D01*
D10*
D13*
X178714580Y-188211961D02*
X179857438Y-188211961D01*
X179036009Y-190211961D02*
X179286009Y-188211961D01*
X180274104Y-190211961D02*
X180440771Y-188878628D01*
X180524104Y-188211961D02*
X180416961Y-188307200D01*
X180500295Y-188402438D01*
X180607438Y-188307200D01*
X180524104Y-188211961D01*
X180500295Y-188402438D01*
X181107438Y-188878628D02*
X181869342Y-188878628D01*
X181476485Y-188211961D02*
X181262200Y-189926247D01*
X181333628Y-190116723D01*
X181512200Y-190211961D01*
X181702676Y-190211961D01*
X182655057Y-190211961D02*
X182476485Y-190116723D01*
X182405057Y-189926247D01*
X182619342Y-188211961D01*
X184190771Y-190116723D02*
X183988390Y-190211961D01*
X183607438Y-190211961D01*
X183428866Y-190116723D01*
X183357438Y-189926247D01*
X183452676Y-189164342D01*
X183571723Y-188973866D01*
X183774104Y-188878628D01*
X184155057Y-188878628D01*
X184333628Y-188973866D01*
X184405057Y-189164342D01*
X184381247Y-189354819D01*
X183405057Y-189545295D01*
X185155057Y-190021485D02*
X185238390Y-190116723D01*
X185131247Y-190211961D01*
X185047914Y-190116723D01*
X185155057Y-190021485D01*
X185131247Y-190211961D01*
X185286009Y-188973866D02*
X185369342Y-189069104D01*
X185262200Y-189164342D01*
X185178866Y-189069104D01*
X185286009Y-188973866D01*
X185262200Y-189164342D01*
D10*
D11*
X178934342Y-185600057D02*
X178434342Y-185600057D01*
X178434342Y-186385771D02*
X178434342Y-184885771D01*
X179148628Y-184885771D01*
X179720057Y-186385771D02*
X179720057Y-185385771D01*
X179720057Y-184885771D02*
X179648628Y-184957200D01*
X179720057Y-185028628D01*
X179791485Y-184957200D01*
X179720057Y-184885771D01*
X179720057Y-185028628D01*
X180648628Y-186385771D02*
X180505771Y-186314342D01*
X180434342Y-186171485D01*
X180434342Y-184885771D01*
X181791485Y-186314342D02*
X181648628Y-186385771D01*
X181362914Y-186385771D01*
X181220057Y-186314342D01*
X181148628Y-186171485D01*
X181148628Y-185600057D01*
X181220057Y-185457200D01*
X181362914Y-185385771D01*
X181648628Y-185385771D01*
X181791485Y-185457200D01*
X181862914Y-185600057D01*
X181862914Y-185742914D01*
X181148628Y-185885771D01*
X182505771Y-186242914D02*
X182577200Y-186314342D01*
X182505771Y-186385771D01*
X182434342Y-186314342D01*
X182505771Y-186242914D01*
X182505771Y-186385771D01*
X182505771Y-185457200D02*
X182577200Y-185528628D01*
X182505771Y-185600057D01*
X182434342Y-185528628D01*
X182505771Y-185457200D01*
X182505771Y-185600057D01*
X184934342Y-186314342D02*
X184791485Y-186385771D01*
X184505771Y-186385771D01*
X184362914Y-186314342D01*
X184291485Y-186171485D01*
X184291485Y-185600057D01*
X184362914Y-185457200D01*
X184505771Y-185385771D01*
X184791485Y-185385771D01*
X184934342Y-185457200D01*
X185005771Y-185600057D01*
X185005771Y-185742914D01*
X184291485Y-185885771D01*
X185577200Y-186314342D02*
X185720057Y-186385771D01*
X186005771Y-186385771D01*
X186148628Y-186314342D01*
X186220057Y-186171485D01*
X186220057Y-186100057D01*
X186148628Y-185957200D01*
X186005771Y-185885771D01*
X185791485Y-185885771D01*
X185648628Y-185814342D01*
X185577200Y-185671485D01*
X185577200Y-185600057D01*
X185648628Y-185457200D01*
X185791485Y-185385771D01*
X186005771Y-185385771D01*
X186148628Y-185457200D01*
X186862914Y-185385771D02*
X186862914Y-186885771D01*
X186862914Y-185457200D02*
X187005771Y-185385771D01*
X187291485Y-185385771D01*
X187434342Y-185457200D01*
X187505771Y-185528628D01*
X187577200Y-185671485D01*
X187577200Y-186100057D01*
X187505771Y-186242914D01*
X187434342Y-186314342D01*
X187291485Y-186385771D01*
X187005771Y-186385771D01*
X186862914Y-186314342D01*
X188077200Y-184885771D02*
X189005771Y-184885771D01*
X188505771Y-185457200D01*
X188720057Y-185457200D01*
X188862914Y-185528628D01*
X188934342Y-185600057D01*
X189005771Y-185742914D01*
X189005771Y-186100057D01*
X188934342Y-186242914D01*
X188862914Y-186314342D01*
X188720057Y-186385771D01*
X188291485Y-186385771D01*
X188148628Y-186314342D01*
X188077200Y-186242914D01*
X189577200Y-185028628D02*
X189648628Y-184957200D01*
X189791485Y-184885771D01*
X190148628Y-184885771D01*
X190291485Y-184957200D01*
X190362914Y-185028628D01*
X190434342Y-185171485D01*
X190434342Y-185314342D01*
X190362914Y-185528628D01*
X189505771Y-186385771D01*
X190434342Y-186385771D01*
X191720057Y-186314342D02*
X191577200Y-186385771D01*
X191291485Y-186385771D01*
X191148628Y-186314342D01*
X191077200Y-186242914D01*
X191005771Y-186100057D01*
X191005771Y-185671485D01*
X191077200Y-185528628D01*
X191148628Y-185457200D01*
X191291485Y-185385771D01*
X191577200Y-185385771D01*
X191720057Y-185457200D01*
X192577200Y-186385771D02*
X192434342Y-186314342D01*
X192362914Y-186242914D01*
X192291485Y-186100057D01*
X192291485Y-185671485D01*
X192362914Y-185528628D01*
X192434342Y-185457200D01*
X192577200Y-185385771D01*
X192791485Y-185385771D01*
X192934342Y-185457200D01*
X193005771Y-185528628D01*
X193077200Y-185671485D01*
X193077200Y-186100057D01*
X193005771Y-186242914D01*
X192934342Y-186314342D01*
X192791485Y-186385771D01*
X192577200Y-186385771D01*
X193720057Y-185385771D02*
X193720057Y-186385771D01*
X193720057Y-185528628D02*
X193791485Y-185457200D01*
X193934342Y-185385771D01*
X194148628Y-185385771D01*
X194291485Y-185457200D01*
X194362914Y-185600057D01*
X194362914Y-186385771D01*
X194862914Y-185385771D02*
X195434342Y-185385771D01*
X195077200Y-184885771D02*
X195077200Y-186171485D01*
X195148628Y-186314342D01*
X195291485Y-186385771D01*
X195434342Y-186385771D01*
X195934342Y-186385771D02*
X195934342Y-185385771D01*
X195934342Y-185671485D02*
X196005771Y-185528628D01*
X196077200Y-185457200D01*
X196220057Y-185385771D01*
X196362914Y-185385771D01*
X197077200Y-186385771D02*
X196934342Y-186314342D01*
X196862914Y-186242914D01*
X196791485Y-186100057D01*
X196791485Y-185671485D01*
X196862914Y-185528628D01*
X196934342Y-185457200D01*
X197077200Y-185385771D01*
X197291485Y-185385771D01*
X197434342Y-185457200D01*
X197505771Y-185528628D01*
X197577200Y-185671485D01*
X197577200Y-186100057D01*
X197505771Y-186242914D01*
X197434342Y-186314342D01*
X197291485Y-186385771D01*
X197077200Y-186385771D01*
X198434342Y-186385771D02*
X198291485Y-186314342D01*
X198220057Y-186171485D01*
X198220057Y-184885771D01*
X199005771Y-186242914D02*
X199077200Y-186314342D01*
X199005771Y-186385771D01*
X198934342Y-186314342D01*
X199005771Y-186242914D01*
X199005771Y-186385771D01*
X199720057Y-186385771D02*
X199720057Y-184885771D01*
X199862914Y-185814342D02*
X200291485Y-186385771D01*
X200291485Y-185385771D02*
X199720057Y-185957200D01*
X200934342Y-186385771D02*
X200934342Y-185385771D01*
X200934342Y-184885771D02*
X200862914Y-184957200D01*
X200934342Y-185028628D01*
X201005771Y-184957200D01*
X200934342Y-184885771D01*
X200934342Y-185028628D01*
X202291485Y-186314342D02*
X202148628Y-186385771D01*
X201862914Y-186385771D01*
X201720057Y-186314342D01*
X201648628Y-186242914D01*
X201577200Y-186100057D01*
X201577200Y-185671485D01*
X201648628Y-185528628D01*
X201720057Y-185457200D01*
X201862914Y-185385771D01*
X202148628Y-185385771D01*
X202291485Y-185457200D01*
X203577200Y-186385771D02*
X203577200Y-185600057D01*
X203505771Y-185457200D01*
X203362914Y-185385771D01*
X203077200Y-185385771D01*
X202934342Y-185457200D01*
X203577200Y-186314342D02*
X203434342Y-186385771D01*
X203077200Y-186385771D01*
X202934342Y-186314342D01*
X202862914Y-186171485D01*
X202862914Y-186028628D01*
X202934342Y-185885771D01*
X203077200Y-185814342D01*
X203434342Y-185814342D01*
X203577200Y-185742914D01*
X204934342Y-186385771D02*
X204934342Y-184885771D01*
X204934342Y-186314342D02*
X204791485Y-186385771D01*
X204505771Y-186385771D01*
X204362914Y-186314342D01*
X204291485Y-186242914D01*
X204220057Y-186100057D01*
X204220057Y-185671485D01*
X204291485Y-185528628D01*
X204362914Y-185457200D01*
X204505771Y-185385771D01*
X204791485Y-185385771D01*
X204934342Y-185457200D01*
X205291485Y-186528628D02*
X206434342Y-186528628D01*
X206791485Y-185385771D02*
X206791485Y-186885771D01*
X206791485Y-185457200D02*
X206934342Y-185385771D01*
X207220057Y-185385771D01*
X207362914Y-185457200D01*
X207434342Y-185528628D01*
X207505771Y-185671485D01*
X207505771Y-186100057D01*
X207434342Y-186242914D01*
X207362914Y-186314342D01*
X207220057Y-186385771D01*
X206934342Y-186385771D01*
X206791485Y-186314342D01*
X208791485Y-186314342D02*
X208648628Y-186385771D01*
X208362914Y-186385771D01*
X208220057Y-186314342D01*
X208148628Y-186242914D01*
X208077200Y-186100057D01*
X208077200Y-185671485D01*
X208148628Y-185528628D01*
X208220057Y-185457200D01*
X208362914Y-185385771D01*
X208648628Y-185385771D01*
X208791485Y-185457200D01*
X209434342Y-186385771D02*
X209434342Y-184885771D01*
X209434342Y-185457200D02*
X209577200Y-185385771D01*
X209862914Y-185385771D01*
X210005771Y-185457200D01*
X210077200Y-185528628D01*
X210148628Y-185671485D01*
X210148628Y-186100057D01*
X210077200Y-186242914D01*
X210005771Y-186314342D01*
X209862914Y-186385771D01*
X209577200Y-186385771D01*
X209434342Y-186314342D01*
D10*
D11*
X177002200Y-181507200D02*
X285002200Y-181507200D01*
D10*
D11*
X178362914Y-183614342D02*
X178577200Y-183685771D01*
X178934342Y-183685771D01*
X179077200Y-183614342D01*
X179148628Y-183542914D01*
X179220057Y-183400057D01*
X179220057Y-183257200D01*
X179148628Y-183114342D01*
X179077200Y-183042914D01*
X178934342Y-182971485D01*
X178648628Y-182900057D01*
X178505771Y-182828628D01*
X178434342Y-182757200D01*
X178362914Y-182614342D01*
X178362914Y-182471485D01*
X178434342Y-182328628D01*
X178505771Y-182257200D01*
X178648628Y-182185771D01*
X179005771Y-182185771D01*
X179220057Y-182257200D01*
X179862914Y-183685771D02*
X179862914Y-182185771D01*
X180505771Y-183685771D02*
X180505771Y-182900057D01*
X180434342Y-182757200D01*
X180291485Y-182685771D01*
X180077200Y-182685771D01*
X179934342Y-182757200D01*
X179862914Y-182828628D01*
X181791485Y-183614342D02*
X181648628Y-183685771D01*
X181362914Y-183685771D01*
X181220057Y-183614342D01*
X181148628Y-183471485D01*
X181148628Y-182900057D01*
X181220057Y-182757200D01*
X181362914Y-182685771D01*
X181648628Y-182685771D01*
X181791485Y-182757200D01*
X181862914Y-182900057D01*
X181862914Y-183042914D01*
X181148628Y-183185771D01*
X183077200Y-183614342D02*
X182934342Y-183685771D01*
X182648628Y-183685771D01*
X182505771Y-183614342D01*
X182434342Y-183471485D01*
X182434342Y-182900057D01*
X182505771Y-182757200D01*
X182648628Y-182685771D01*
X182934342Y-182685771D01*
X183077200Y-182757200D01*
X183148628Y-182900057D01*
X183148628Y-183042914D01*
X182434342Y-183185771D01*
X183577200Y-182685771D02*
X184148628Y-182685771D01*
X183791485Y-182185771D02*
X183791485Y-183471485D01*
X183862914Y-183614342D01*
X184005771Y-183685771D01*
X184148628Y-183685771D01*
X184648628Y-183542914D02*
X184720057Y-183614342D01*
X184648628Y-183685771D01*
X184577200Y-183614342D01*
X184648628Y-183542914D01*
X184648628Y-183685771D01*
X184648628Y-182757200D02*
X184720057Y-182828628D01*
X184648628Y-182900057D01*
X184577200Y-182828628D01*
X184648628Y-182757200D01*
X184648628Y-182900057D01*
D10*
D11*
X197002200Y-191507200D02*
X197002200Y-194507200D01*
D10*
D11*
X261002200Y-191507200D02*
X261002200Y-198007200D01*
D10*
G36*
X103264926Y-115681522D02*
G01*
X103264929Y-115681523D01*
X103264930Y-115681523D01*
X103434580Y-115732986D01*
X103434582Y-115732987D01*
X103434585Y-115732988D01*
X103590932Y-115816556D01*
X103727975Y-115929025D01*
X103840444Y-116066069D01*
X103924012Y-116222414D01*
X103975478Y-116392073D01*
X103988500Y-116524289D01*
X103988500Y-117212710D01*
X103975478Y-117344926D01*
X103975477Y-117344928D01*
X103975477Y-117344931D01*
X103924014Y-117514581D01*
X103924012Y-117514584D01*
X103924012Y-117514585D01*
X103840444Y-117670932D01*
X103727975Y-117807975D01*
X103590931Y-117920444D01*
X103434586Y-118004012D01*
X103434583Y-118004013D01*
X103434581Y-118004014D01*
X103264931Y-118055477D01*
X103264930Y-118055477D01*
X103264927Y-118055478D01*
X103088500Y-118072854D01*
X102912074Y-118055478D01*
X102912071Y-118055477D01*
X102912070Y-118055477D01*
X102742420Y-118004014D01*
X102742418Y-118004013D01*
X102742415Y-118004012D01*
X102586070Y-117920444D01*
X102449026Y-117807975D01*
X102336557Y-117670931D01*
X102252986Y-117514581D01*
X102201522Y-117344932D01*
X102188500Y-117212711D01*
X102188500Y-116524290D01*
X102201522Y-116392074D01*
X102201523Y-116392070D01*
X102252986Y-116222420D01*
X102252987Y-116222418D01*
X102252988Y-116222415D01*
X102336556Y-116066068D01*
X102449025Y-115929025D01*
X102586069Y-115816556D01*
X102742414Y-115732988D01*
X102742417Y-115732987D01*
X102742419Y-115732986D01*
X102912069Y-115681523D01*
X102912070Y-115681523D01*
X102912073Y-115681522D01*
X103088500Y-115664146D01*
X103264926Y-115681522D01*
G37*
G36*
X113424926Y-115681522D02*
G01*
X113424929Y-115681523D01*
X113424930Y-115681523D01*
X113594580Y-115732986D01*
X113594582Y-115732987D01*
X113594585Y-115732988D01*
X113750932Y-115816556D01*
X113887975Y-115929025D01*
X114000444Y-116066069D01*
X114084012Y-116222414D01*
X114135478Y-116392073D01*
X114148500Y-116524289D01*
X114148500Y-117212710D01*
X114135478Y-117344926D01*
X114135477Y-117344928D01*
X114135477Y-117344931D01*
X114084014Y-117514581D01*
X114084012Y-117514584D01*
X114084012Y-117514585D01*
X114000444Y-117670932D01*
X113887975Y-117807975D01*
X113750931Y-117920444D01*
X113594586Y-118004012D01*
X113594583Y-118004013D01*
X113594581Y-118004014D01*
X113424931Y-118055477D01*
X113424930Y-118055477D01*
X113424927Y-118055478D01*
X113248500Y-118072854D01*
X113072074Y-118055478D01*
X113072071Y-118055477D01*
X113072070Y-118055477D01*
X112902420Y-118004014D01*
X112902418Y-118004013D01*
X112902415Y-118004012D01*
X112746070Y-117920444D01*
X112609026Y-117807975D01*
X112496557Y-117670931D01*
X112412986Y-117514581D01*
X112361522Y-117344932D01*
X112348500Y-117212711D01*
X112348500Y-116524290D01*
X112361522Y-116392074D01*
X112361523Y-116392070D01*
X112412986Y-116222420D01*
X112412987Y-116222418D01*
X112412988Y-116222415D01*
X112496556Y-116066068D01*
X112609025Y-115929025D01*
X112746069Y-115816556D01*
X112902414Y-115732988D01*
X112902417Y-115732987D01*
X112902419Y-115732986D01*
X113072069Y-115681523D01*
X113072070Y-115681523D01*
X113072073Y-115681522D01*
X113248500Y-115664146D01*
X113424926Y-115681522D01*
G37*
G36*
X108344926Y-115681522D02*
G01*
X108344929Y-115681523D01*
X108344930Y-115681523D01*
X108514580Y-115732986D01*
X108514582Y-115732987D01*
X108514585Y-115732988D01*
X108670932Y-115816556D01*
X108807975Y-115929025D01*
X108920444Y-116066069D01*
X109004012Y-116222414D01*
X109055478Y-116392073D01*
X109068500Y-116524289D01*
X109068500Y-117212710D01*
X109055478Y-117344926D01*
X109055477Y-117344928D01*
X109055477Y-117344931D01*
X109004014Y-117514581D01*
X109004012Y-117514584D01*
X109004012Y-117514585D01*
X108920444Y-117670932D01*
X108807975Y-117807975D01*
X108670931Y-117920444D01*
X108514586Y-118004012D01*
X108514583Y-118004013D01*
X108514581Y-118004014D01*
X108344931Y-118055477D01*
X108344930Y-118055477D01*
X108344927Y-118055478D01*
X108168500Y-118072854D01*
X107992074Y-118055478D01*
X107992071Y-118055477D01*
X107992070Y-118055477D01*
X107822420Y-118004014D01*
X107822418Y-118004013D01*
X107822415Y-118004012D01*
X107666070Y-117920444D01*
X107529026Y-117807975D01*
X107416557Y-117670931D01*
X107332986Y-117514581D01*
X107281522Y-117344932D01*
X107268500Y-117212711D01*
X107268500Y-116524290D01*
X107281522Y-116392074D01*
X107281523Y-116392070D01*
X107332986Y-116222420D01*
X107332987Y-116222418D01*
X107332988Y-116222415D01*
X107416556Y-116066068D01*
X107529025Y-115929025D01*
X107666069Y-115816556D01*
X107822414Y-115732988D01*
X107822417Y-115732987D01*
X107822419Y-115732986D01*
X107992069Y-115681523D01*
X107992070Y-115681523D01*
X107992073Y-115681522D01*
X108168500Y-115664146D01*
X108344926Y-115681522D01*
G37*
G36*
X57544926Y-115681522D02*
G01*
X57544929Y-115681523D01*
X57544930Y-115681523D01*
X57714580Y-115732986D01*
X57714582Y-115732987D01*
X57714585Y-115732988D01*
X57870932Y-115816556D01*
X58007975Y-115929025D01*
X58120444Y-116066069D01*
X58204012Y-116222414D01*
X58255478Y-116392073D01*
X58268500Y-116524289D01*
X58268500Y-117212710D01*
X58255478Y-117344926D01*
X58255477Y-117344928D01*
X58255477Y-117344931D01*
X58204014Y-117514581D01*
X58204012Y-117514584D01*
X58204012Y-117514585D01*
X58120444Y-117670932D01*
X58007975Y-117807975D01*
X57870931Y-117920444D01*
X57714586Y-118004012D01*
X57714583Y-118004013D01*
X57714581Y-118004014D01*
X57544931Y-118055477D01*
X57544930Y-118055477D01*
X57544927Y-118055478D01*
X57368500Y-118072854D01*
X57192074Y-118055478D01*
X57192071Y-118055477D01*
X57192070Y-118055477D01*
X57022420Y-118004014D01*
X57022418Y-118004013D01*
X57022415Y-118004012D01*
X56866070Y-117920444D01*
X56729026Y-117807975D01*
X56616557Y-117670931D01*
X56532986Y-117514581D01*
X56481522Y-117344932D01*
X56468500Y-117212711D01*
X56468500Y-116524290D01*
X56481522Y-116392074D01*
X56481523Y-116392070D01*
X56532986Y-116222420D01*
X56532987Y-116222418D01*
X56532988Y-116222415D01*
X56616556Y-116066068D01*
X56729025Y-115929025D01*
X56866069Y-115816556D01*
X57022414Y-115732988D01*
X57022417Y-115732987D01*
X57022419Y-115732986D01*
X57192069Y-115681523D01*
X57192070Y-115681523D01*
X57192073Y-115681522D01*
X57368500Y-115664146D01*
X57544926Y-115681522D01*
G37*
G36*
X62624926Y-115681522D02*
G01*
X62624929Y-115681523D01*
X62624930Y-115681523D01*
X62794580Y-115732986D01*
X62794582Y-115732987D01*
X62794585Y-115732988D01*
X62950932Y-115816556D01*
X63087975Y-115929025D01*
X63200444Y-116066069D01*
X63284012Y-116222414D01*
X63335478Y-116392073D01*
X63348500Y-116524289D01*
X63348500Y-117212710D01*
X63335478Y-117344926D01*
X63335477Y-117344928D01*
X63335477Y-117344931D01*
X63284014Y-117514581D01*
X63284012Y-117514584D01*
X63284012Y-117514585D01*
X63200444Y-117670932D01*
X63087975Y-117807975D01*
X62950931Y-117920444D01*
X62794586Y-118004012D01*
X62794583Y-118004013D01*
X62794581Y-118004014D01*
X62624931Y-118055477D01*
X62624930Y-118055477D01*
X62624927Y-118055478D01*
X62448500Y-118072854D01*
X62272074Y-118055478D01*
X62272071Y-118055477D01*
X62272070Y-118055477D01*
X62102420Y-118004014D01*
X62102418Y-118004013D01*
X62102415Y-118004012D01*
X61946070Y-117920444D01*
X61809026Y-117807975D01*
X61696557Y-117670931D01*
X61612986Y-117514581D01*
X61561522Y-117344932D01*
X61548500Y-117212711D01*
X61548500Y-116524290D01*
X61561522Y-116392074D01*
X61561523Y-116392070D01*
X61612986Y-116222420D01*
X61612987Y-116222418D01*
X61612988Y-116222415D01*
X61696556Y-116066068D01*
X61809025Y-115929025D01*
X61946069Y-115816556D01*
X62102414Y-115732988D01*
X62102417Y-115732987D01*
X62102419Y-115732986D01*
X62272069Y-115681523D01*
X62272070Y-115681523D01*
X62272073Y-115681522D01*
X62448500Y-115664146D01*
X62624926Y-115681522D01*
G37*
G36*
X67704926Y-115681522D02*
G01*
X67704929Y-115681523D01*
X67704930Y-115681523D01*
X67874580Y-115732986D01*
X67874582Y-115732987D01*
X67874585Y-115732988D01*
X68030932Y-115816556D01*
X68167975Y-115929025D01*
X68280444Y-116066069D01*
X68364012Y-116222414D01*
X68415478Y-116392073D01*
X68428500Y-116524289D01*
X68428500Y-117212710D01*
X68415478Y-117344926D01*
X68415477Y-117344928D01*
X68415477Y-117344931D01*
X68364014Y-117514581D01*
X68364012Y-117514584D01*
X68364012Y-117514585D01*
X68280444Y-117670932D01*
X68167975Y-117807975D01*
X68030931Y-117920444D01*
X67874586Y-118004012D01*
X67874583Y-118004013D01*
X67874581Y-118004014D01*
X67704931Y-118055477D01*
X67704930Y-118055477D01*
X67704927Y-118055478D01*
X67528500Y-118072854D01*
X67352074Y-118055478D01*
X67352071Y-118055477D01*
X67352070Y-118055477D01*
X67182420Y-118004014D01*
X67182418Y-118004013D01*
X67182415Y-118004012D01*
X67026070Y-117920444D01*
X66889026Y-117807975D01*
X66776557Y-117670931D01*
X66692986Y-117514581D01*
X66641522Y-117344932D01*
X66628500Y-117212711D01*
X66628500Y-116524290D01*
X66641522Y-116392074D01*
X66641523Y-116392070D01*
X66692986Y-116222420D01*
X66692987Y-116222418D01*
X66692988Y-116222415D01*
X66776556Y-116066068D01*
X66889025Y-115929025D01*
X67026069Y-115816556D01*
X67182414Y-115732988D01*
X67182417Y-115732987D01*
X67182419Y-115732986D01*
X67352069Y-115681523D01*
X67352070Y-115681523D01*
X67352073Y-115681522D01*
X67528500Y-115664146D01*
X67704926Y-115681522D01*
G37*
G36*
X72784926Y-115681522D02*
G01*
X72784929Y-115681523D01*
X72784930Y-115681523D01*
X72954580Y-115732986D01*
X72954582Y-115732987D01*
X72954585Y-115732988D01*
X73110932Y-115816556D01*
X73247975Y-115929025D01*
X73360444Y-116066069D01*
X73444012Y-116222414D01*
X73495478Y-116392073D01*
X73508500Y-116524289D01*
X73508500Y-117212710D01*
X73495478Y-117344926D01*
X73495477Y-117344928D01*
X73495477Y-117344931D01*
X73444014Y-117514581D01*
X73444012Y-117514584D01*
X73444012Y-117514585D01*
X73360444Y-117670932D01*
X73247975Y-117807975D01*
X73110931Y-117920444D01*
X72954586Y-118004012D01*
X72954583Y-118004013D01*
X72954581Y-118004014D01*
X72784931Y-118055477D01*
X72784930Y-118055477D01*
X72784927Y-118055478D01*
X72608500Y-118072854D01*
X72432074Y-118055478D01*
X72432071Y-118055477D01*
X72432070Y-118055477D01*
X72262420Y-118004014D01*
X72262418Y-118004013D01*
X72262415Y-118004012D01*
X72106070Y-117920444D01*
X71969026Y-117807975D01*
X71856557Y-117670931D01*
X71772986Y-117514581D01*
X71721522Y-117344932D01*
X71708500Y-117212711D01*
X71708500Y-116524290D01*
X71721522Y-116392074D01*
X71721523Y-116392070D01*
X71772986Y-116222420D01*
X71772987Y-116222418D01*
X71772988Y-116222415D01*
X71856556Y-116066068D01*
X71969025Y-115929025D01*
X72106069Y-115816556D01*
X72262414Y-115732988D01*
X72262417Y-115732987D01*
X72262419Y-115732986D01*
X72432069Y-115681523D01*
X72432070Y-115681523D01*
X72432073Y-115681522D01*
X72608500Y-115664146D01*
X72784926Y-115681522D01*
G37*
G36*
X82944926Y-115681522D02*
G01*
X82944929Y-115681523D01*
X82944930Y-115681523D01*
X83114580Y-115732986D01*
X83114582Y-115732987D01*
X83114585Y-115732988D01*
X83270932Y-115816556D01*
X83407975Y-115929025D01*
X83520444Y-116066069D01*
X83604012Y-116222414D01*
X83655478Y-116392073D01*
X83668500Y-116524289D01*
X83668500Y-117212710D01*
X83655478Y-117344926D01*
X83655477Y-117344928D01*
X83655477Y-117344931D01*
X83604014Y-117514581D01*
X83604012Y-117514584D01*
X83604012Y-117514585D01*
X83520444Y-117670932D01*
X83407975Y-117807975D01*
X83270931Y-117920444D01*
X83114586Y-118004012D01*
X83114583Y-118004013D01*
X83114581Y-118004014D01*
X82944931Y-118055477D01*
X82944930Y-118055477D01*
X82944927Y-118055478D01*
X82768500Y-118072854D01*
X82592074Y-118055478D01*
X82592071Y-118055477D01*
X82592070Y-118055477D01*
X82422420Y-118004014D01*
X82422418Y-118004013D01*
X82422415Y-118004012D01*
X82266070Y-117920444D01*
X82129026Y-117807975D01*
X82016557Y-117670931D01*
X81932986Y-117514581D01*
X81881522Y-117344932D01*
X81868500Y-117212711D01*
X81868500Y-116524290D01*
X81881522Y-116392074D01*
X81881523Y-116392070D01*
X81932986Y-116222420D01*
X81932987Y-116222418D01*
X81932988Y-116222415D01*
X82016556Y-116066068D01*
X82129025Y-115929025D01*
X82266069Y-115816556D01*
X82422414Y-115732988D01*
X82422417Y-115732987D01*
X82422419Y-115732986D01*
X82592069Y-115681523D01*
X82592070Y-115681523D01*
X82592073Y-115681522D01*
X82768500Y-115664146D01*
X82944926Y-115681522D01*
G37*
G36*
X88024926Y-115681522D02*
G01*
X88024929Y-115681523D01*
X88024930Y-115681523D01*
X88194580Y-115732986D01*
X88194582Y-115732987D01*
X88194585Y-115732988D01*
X88350932Y-115816556D01*
X88487975Y-115929025D01*
X88600444Y-116066069D01*
X88684012Y-116222414D01*
X88735478Y-116392073D01*
X88748500Y-116524289D01*
X88748500Y-117212710D01*
X88735478Y-117344926D01*
X88735477Y-117344928D01*
X88735477Y-117344931D01*
X88684014Y-117514581D01*
X88684012Y-117514584D01*
X88684012Y-117514585D01*
X88600444Y-117670932D01*
X88487975Y-117807975D01*
X88350931Y-117920444D01*
X88194586Y-118004012D01*
X88194583Y-118004013D01*
X88194581Y-118004014D01*
X88024931Y-118055477D01*
X88024930Y-118055477D01*
X88024927Y-118055478D01*
X87848500Y-118072854D01*
X87672074Y-118055478D01*
X87672071Y-118055477D01*
X87672070Y-118055477D01*
X87502420Y-118004014D01*
X87502418Y-118004013D01*
X87502415Y-118004012D01*
X87346070Y-117920444D01*
X87209026Y-117807975D01*
X87096557Y-117670931D01*
X87012986Y-117514581D01*
X86961522Y-117344932D01*
X86948500Y-117212711D01*
X86948500Y-116524290D01*
X86961522Y-116392074D01*
X86961523Y-116392070D01*
X87012986Y-116222420D01*
X87012987Y-116222418D01*
X87012988Y-116222415D01*
X87096556Y-116066068D01*
X87209025Y-115929025D01*
X87346069Y-115816556D01*
X87502414Y-115732988D01*
X87502417Y-115732987D01*
X87502419Y-115732986D01*
X87672069Y-115681523D01*
X87672070Y-115681523D01*
X87672073Y-115681522D01*
X87848500Y-115664146D01*
X88024926Y-115681522D01*
G37*
G36*
X93104926Y-115681522D02*
G01*
X93104929Y-115681523D01*
X93104930Y-115681523D01*
X93274580Y-115732986D01*
X93274582Y-115732987D01*
X93274585Y-115732988D01*
X93430932Y-115816556D01*
X93567975Y-115929025D01*
X93680444Y-116066069D01*
X93764012Y-116222414D01*
X93815478Y-116392073D01*
X93828500Y-116524289D01*
X93828500Y-117212710D01*
X93815478Y-117344926D01*
X93815477Y-117344928D01*
X93815477Y-117344931D01*
X93764014Y-117514581D01*
X93764012Y-117514584D01*
X93764012Y-117514585D01*
X93680444Y-117670932D01*
X93567975Y-117807975D01*
X93430931Y-117920444D01*
X93274586Y-118004012D01*
X93274583Y-118004013D01*
X93274581Y-118004014D01*
X93104931Y-118055477D01*
X93104930Y-118055477D01*
X93104927Y-118055478D01*
X92928500Y-118072854D01*
X92752074Y-118055478D01*
X92752071Y-118055477D01*
X92752070Y-118055477D01*
X92582420Y-118004014D01*
X92582418Y-118004013D01*
X92582415Y-118004012D01*
X92426070Y-117920444D01*
X92289026Y-117807975D01*
X92176557Y-117670931D01*
X92092986Y-117514581D01*
X92041522Y-117344932D01*
X92028500Y-117212711D01*
X92028500Y-116524290D01*
X92041522Y-116392074D01*
X92041523Y-116392070D01*
X92092986Y-116222420D01*
X92092987Y-116222418D01*
X92092988Y-116222415D01*
X92176556Y-116066068D01*
X92289025Y-115929025D01*
X92426069Y-115816556D01*
X92582414Y-115732988D01*
X92582417Y-115732987D01*
X92582419Y-115732986D01*
X92752069Y-115681523D01*
X92752070Y-115681523D01*
X92752073Y-115681522D01*
X92928500Y-115664146D01*
X93104926Y-115681522D01*
G37*
G36*
X98184926Y-115681522D02*
G01*
X98184929Y-115681523D01*
X98184930Y-115681523D01*
X98354580Y-115732986D01*
X98354582Y-115732987D01*
X98354585Y-115732988D01*
X98510932Y-115816556D01*
X98647975Y-115929025D01*
X98760444Y-116066069D01*
X98844012Y-116222414D01*
X98895478Y-116392073D01*
X98908500Y-116524289D01*
X98908500Y-117212710D01*
X98895478Y-117344926D01*
X98895477Y-117344928D01*
X98895477Y-117344931D01*
X98844014Y-117514581D01*
X98844012Y-117514584D01*
X98844012Y-117514585D01*
X98760444Y-117670932D01*
X98647975Y-117807975D01*
X98510931Y-117920444D01*
X98354586Y-118004012D01*
X98354583Y-118004013D01*
X98354581Y-118004014D01*
X98184931Y-118055477D01*
X98184930Y-118055477D01*
X98184927Y-118055478D01*
X98008500Y-118072854D01*
X97832074Y-118055478D01*
X97832071Y-118055477D01*
X97832070Y-118055477D01*
X97662420Y-118004014D01*
X97662418Y-118004013D01*
X97662415Y-118004012D01*
X97506070Y-117920444D01*
X97369026Y-117807975D01*
X97256557Y-117670931D01*
X97172986Y-117514581D01*
X97121522Y-117344932D01*
X97108500Y-117212711D01*
X97108500Y-116524290D01*
X97121522Y-116392074D01*
X97121523Y-116392070D01*
X97172986Y-116222420D01*
X97172987Y-116222418D01*
X97172988Y-116222415D01*
X97256556Y-116066068D01*
X97369025Y-115929025D01*
X97506069Y-115816556D01*
X97662414Y-115732988D01*
X97662417Y-115732987D01*
X97662419Y-115732986D01*
X97832069Y-115681523D01*
X97832070Y-115681523D01*
X97832073Y-115681522D01*
X98008500Y-115664146D01*
X98184926Y-115681522D01*
G37*
G36*
X77864926Y-115681522D02*
G01*
X77864929Y-115681523D01*
X77864930Y-115681523D01*
X78034580Y-115732986D01*
X78034582Y-115732987D01*
X78034585Y-115732988D01*
X78190932Y-115816556D01*
X78327975Y-115929025D01*
X78440444Y-116066069D01*
X78524012Y-116222414D01*
X78575478Y-116392073D01*
X78588500Y-116524289D01*
X78588500Y-117212710D01*
X78575478Y-117344926D01*
X78575477Y-117344928D01*
X78575477Y-117344931D01*
X78524014Y-117514581D01*
X78524012Y-117514584D01*
X78524012Y-117514585D01*
X78440444Y-117670932D01*
X78327975Y-117807975D01*
X78190931Y-117920444D01*
X78034586Y-118004012D01*
X78034583Y-118004013D01*
X78034581Y-118004014D01*
X77864931Y-118055477D01*
X77864930Y-118055477D01*
X77864927Y-118055478D01*
X77688500Y-118072854D01*
X77512074Y-118055478D01*
X77512071Y-118055477D01*
X77512070Y-118055477D01*
X77342420Y-118004014D01*
X77342418Y-118004013D01*
X77342415Y-118004012D01*
X77186070Y-117920444D01*
X77049026Y-117807975D01*
X76936557Y-117670931D01*
X76852986Y-117514581D01*
X76801522Y-117344932D01*
X76788500Y-117212711D01*
X76788500Y-116524290D01*
X76801522Y-116392074D01*
X76801523Y-116392070D01*
X76852986Y-116222420D01*
X76852987Y-116222418D01*
X76852988Y-116222415D01*
X76936556Y-116066068D01*
X77049025Y-115929025D01*
X77186069Y-115816556D01*
X77342414Y-115732988D01*
X77342417Y-115732987D01*
X77342419Y-115732986D01*
X77512069Y-115681523D01*
X77512070Y-115681523D01*
X77512073Y-115681522D01*
X77688500Y-115664146D01*
X77864926Y-115681522D01*
G37*
G36*
X60713280Y-101028066D02*
G01*
X61012737Y-101087631D01*
X61576901Y-101321315D01*
X62084635Y-101660572D01*
X62516428Y-102092365D01*
X62855685Y-102600099D01*
X63089369Y-103164263D01*
X63208500Y-103763177D01*
X63208500Y-104373823D01*
X63089369Y-104972737D01*
X62855685Y-105536901D01*
X62516428Y-106044635D01*
X62084635Y-106476428D01*
X61576901Y-106815685D01*
X61012737Y-107049369D01*
X60713280Y-107108934D01*
X60413825Y-107168500D01*
X59803175Y-107168500D01*
X59503720Y-107108934D01*
X59204263Y-107049369D01*
X58640099Y-106815685D01*
X58132365Y-106476428D01*
X57700572Y-106044635D01*
X57361315Y-105536901D01*
X57127631Y-104972737D01*
X57008500Y-104373823D01*
X57008500Y-103763177D01*
X57127631Y-103164263D01*
X57361315Y-102600099D01*
X57700572Y-102092365D01*
X58132365Y-101660572D01*
X58640099Y-101321315D01*
X59204263Y-101087631D01*
X59503720Y-101028066D01*
X59803175Y-100968500D01*
X60413825Y-100968500D01*
X60713280Y-101028066D01*
G37*
G36*
X58512520Y-95884586D02*
G01*
X58676310Y-95952430D01*
X58823717Y-96050924D01*
X58949076Y-96176283D01*
X59047570Y-96323690D01*
X59115414Y-96487480D01*
X59150000Y-96661358D01*
X59150000Y-96838642D01*
X59115414Y-97012520D01*
X59047570Y-97176310D01*
X58949076Y-97323717D01*
X58823717Y-97449076D01*
X58676310Y-97547570D01*
X58676309Y-97547571D01*
X58676308Y-97547571D01*
X58512520Y-97615414D01*
X58338644Y-97650000D01*
X58161356Y-97650000D01*
X57987480Y-97615414D01*
X57823692Y-97547571D01*
X57823691Y-97547571D01*
X57823690Y-97547570D01*
X57676283Y-97449076D01*
X57550924Y-97323717D01*
X57452430Y-97176310D01*
X57384586Y-97012520D01*
X57350000Y-96838642D01*
X57350000Y-96661358D01*
X57384586Y-96487480D01*
X57452430Y-96323690D01*
X57550924Y-96176283D01*
X57676283Y-96050924D01*
X57823690Y-95952430D01*
X57987480Y-95884586D01*
X58161356Y-95850000D01*
X58338644Y-95850000D01*
X58512520Y-95884586D01*
G37*
G36*
X55650000Y-97650000D02*
G01*
X53850000Y-97650000D01*
X53850000Y-95850000D01*
X55650000Y-95850000D01*
X55650000Y-97650000D01*
G37*
G36*
X114703836Y-89616754D02*
G01*
X114795605Y-89635008D01*
X114968494Y-89706621D01*
X115124090Y-89810587D01*
X115256413Y-89942910D01*
X115360379Y-90098506D01*
X115431992Y-90271395D01*
X115468500Y-90454933D01*
X115468500Y-90642067D01*
X115431992Y-90825605D01*
X115360379Y-90998494D01*
X115256413Y-91154090D01*
X115124090Y-91286413D01*
X114968494Y-91390379D01*
X114795605Y-91461992D01*
X114703836Y-91480246D01*
X114612068Y-91498500D01*
X114424932Y-91498500D01*
X114333164Y-91480246D01*
X114241395Y-91461992D01*
X114068506Y-91390379D01*
X113912910Y-91286413D01*
X113780587Y-91154090D01*
X113676621Y-90998494D01*
X113605008Y-90825605D01*
X113568500Y-90642067D01*
X113568500Y-90454933D01*
X113605008Y-90271395D01*
X113676621Y-90098506D01*
X113780587Y-89942910D01*
X113912910Y-89810587D01*
X114068506Y-89706621D01*
X114241395Y-89635008D01*
X114333164Y-89616754D01*
X114424932Y-89598500D01*
X114612068Y-89598500D01*
X114703836Y-89616754D01*
G37*
G36*
X112163836Y-89616754D02*
G01*
X112255605Y-89635008D01*
X112428494Y-89706621D01*
X112584090Y-89810587D01*
X112716413Y-89942910D01*
X112820379Y-90098506D01*
X112891992Y-90271395D01*
X112928500Y-90454933D01*
X112928500Y-90642067D01*
X112891992Y-90825605D01*
X112820379Y-90998494D01*
X112716413Y-91154090D01*
X112584090Y-91286413D01*
X112428494Y-91390379D01*
X112255605Y-91461992D01*
X112163836Y-91480246D01*
X112072068Y-91498500D01*
X111884932Y-91498500D01*
X111793164Y-91480246D01*
X111701395Y-91461992D01*
X111528506Y-91390379D01*
X111372910Y-91286413D01*
X111240587Y-91154090D01*
X111136621Y-90998494D01*
X111065008Y-90825605D01*
X111028500Y-90642067D01*
X111028500Y-90454933D01*
X111065008Y-90271395D01*
X111136621Y-90098506D01*
X111240587Y-89942910D01*
X111372910Y-89810587D01*
X111528506Y-89706621D01*
X111701395Y-89635008D01*
X111793164Y-89616754D01*
X111884932Y-89598500D01*
X112072068Y-89598500D01*
X112163836Y-89616754D01*
G37*
G36*
X112163836Y-87076754D02*
G01*
X112255605Y-87095008D01*
X112428494Y-87166621D01*
X112584090Y-87270587D01*
X112716413Y-87402910D01*
X112820379Y-87558506D01*
X112891992Y-87731395D01*
X112928500Y-87914933D01*
X112928500Y-88102067D01*
X112891992Y-88285605D01*
X112820379Y-88458494D01*
X112716413Y-88614090D01*
X112584090Y-88746413D01*
X112428494Y-88850379D01*
X112255605Y-88921992D01*
X112163836Y-88940246D01*
X112072068Y-88958500D01*
X111884932Y-88958500D01*
X111793164Y-88940246D01*
X111701395Y-88921992D01*
X111528506Y-88850379D01*
X111372910Y-88746413D01*
X111240587Y-88614090D01*
X111136621Y-88458494D01*
X111065008Y-88285605D01*
X111028500Y-88102067D01*
X111028500Y-87914933D01*
X111065008Y-87731395D01*
X111136621Y-87558506D01*
X111240587Y-87402910D01*
X111372910Y-87270587D01*
X111528506Y-87166621D01*
X111701395Y-87095008D01*
X111793164Y-87076754D01*
X111884932Y-87058500D01*
X112072068Y-87058500D01*
X112163836Y-87076754D01*
G37*
G36*
X114703836Y-87076754D02*
G01*
X114795605Y-87095008D01*
X114968494Y-87166621D01*
X115124090Y-87270587D01*
X115256413Y-87402910D01*
X115360379Y-87558506D01*
X115431992Y-87731395D01*
X115468500Y-87914933D01*
X115468500Y-88102067D01*
X115431992Y-88285605D01*
X115360379Y-88458494D01*
X115256413Y-88614090D01*
X115124090Y-88746413D01*
X114968494Y-88850379D01*
X114795605Y-88921992D01*
X114703836Y-88940246D01*
X114612068Y-88958500D01*
X114424932Y-88958500D01*
X114333164Y-88940246D01*
X114241395Y-88921992D01*
X114068506Y-88850379D01*
X113912910Y-88746413D01*
X113780587Y-88614090D01*
X113676621Y-88458494D01*
X113605008Y-88285605D01*
X113568500Y-88102067D01*
X113568500Y-87914933D01*
X113605008Y-87731395D01*
X113676621Y-87558506D01*
X113780587Y-87402910D01*
X113912910Y-87270587D01*
X114068506Y-87166621D01*
X114241395Y-87095008D01*
X114333164Y-87076754D01*
X114424932Y-87058500D01*
X114612068Y-87058500D01*
X114703836Y-87076754D01*
G37*
G36*
X112163836Y-84536754D02*
G01*
X112255605Y-84555008D01*
X112428494Y-84626621D01*
X112584090Y-84730587D01*
X112716413Y-84862910D01*
X112820379Y-85018506D01*
X112891992Y-85191395D01*
X112928500Y-85374933D01*
X112928500Y-85562067D01*
X112891992Y-85745605D01*
X112820379Y-85918494D01*
X112716413Y-86074090D01*
X112584090Y-86206413D01*
X112428494Y-86310379D01*
X112255605Y-86381992D01*
X112163836Y-86400246D01*
X112072068Y-86418500D01*
X111884932Y-86418500D01*
X111793164Y-86400246D01*
X111701395Y-86381992D01*
X111528506Y-86310379D01*
X111372910Y-86206413D01*
X111240587Y-86074090D01*
X111136621Y-85918494D01*
X111065008Y-85745605D01*
X111028500Y-85562067D01*
X111028500Y-85374933D01*
X111065008Y-85191395D01*
X111136621Y-85018506D01*
X111240587Y-84862910D01*
X111372910Y-84730587D01*
X111528506Y-84626621D01*
X111701395Y-84555008D01*
X111793164Y-84536754D01*
X111884932Y-84518500D01*
X112072068Y-84518500D01*
X112163836Y-84536754D01*
G37*
G36*
X114703836Y-84536754D02*
G01*
X114795605Y-84555008D01*
X114968494Y-84626621D01*
X115124090Y-84730587D01*
X115256413Y-84862910D01*
X115360379Y-85018506D01*
X115431992Y-85191395D01*
X115468500Y-85374933D01*
X115468500Y-85562067D01*
X115431992Y-85745605D01*
X115360379Y-85918494D01*
X115256413Y-86074090D01*
X115124090Y-86206413D01*
X114968494Y-86310379D01*
X114795605Y-86381992D01*
X114703836Y-86400246D01*
X114612068Y-86418500D01*
X114424932Y-86418500D01*
X114333164Y-86400246D01*
X114241395Y-86381992D01*
X114068506Y-86310379D01*
X113912910Y-86206413D01*
X113780587Y-86074090D01*
X113676621Y-85918494D01*
X113605008Y-85745605D01*
X113568500Y-85562067D01*
X113568500Y-85374933D01*
X113605008Y-85191395D01*
X113676621Y-85018506D01*
X113780587Y-84862910D01*
X113912910Y-84730587D01*
X114068506Y-84626621D01*
X114241395Y-84555008D01*
X114333164Y-84536754D01*
X114424932Y-84518500D01*
X114612068Y-84518500D01*
X114703836Y-84536754D01*
G37*
G36*
X114703836Y-81996754D02*
G01*
X114795605Y-82015008D01*
X114968494Y-82086621D01*
X115124090Y-82190587D01*
X115256413Y-82322910D01*
X115360379Y-82478506D01*
X115431992Y-82651395D01*
X115468500Y-82834933D01*
X115468500Y-83022067D01*
X115431992Y-83205605D01*
X115360379Y-83378494D01*
X115256413Y-83534090D01*
X115124090Y-83666413D01*
X114968494Y-83770379D01*
X114795605Y-83841992D01*
X114703836Y-83860246D01*
X114612068Y-83878500D01*
X114424932Y-83878500D01*
X114333164Y-83860246D01*
X114241395Y-83841992D01*
X114068506Y-83770379D01*
X113912910Y-83666413D01*
X113780587Y-83534090D01*
X113676621Y-83378494D01*
X113605008Y-83205605D01*
X113568500Y-83022067D01*
X113568500Y-82834933D01*
X113605008Y-82651395D01*
X113676621Y-82478506D01*
X113780587Y-82322910D01*
X113912910Y-82190587D01*
X114068506Y-82086621D01*
X114241395Y-82015008D01*
X114333164Y-81996754D01*
X114424932Y-81978500D01*
X114612068Y-81978500D01*
X114703836Y-81996754D01*
G37*
G36*
X112163836Y-81996754D02*
G01*
X112255605Y-82015008D01*
X112428494Y-82086621D01*
X112584090Y-82190587D01*
X112716413Y-82322910D01*
X112820379Y-82478506D01*
X112891992Y-82651395D01*
X112928500Y-82834933D01*
X112928500Y-83022067D01*
X112891992Y-83205605D01*
X112820379Y-83378494D01*
X112716413Y-83534090D01*
X112584090Y-83666413D01*
X112428494Y-83770379D01*
X112255605Y-83841992D01*
X112163836Y-83860246D01*
X112072068Y-83878500D01*
X111884932Y-83878500D01*
X111793164Y-83860246D01*
X111701395Y-83841992D01*
X111528506Y-83770379D01*
X111372910Y-83666413D01*
X111240587Y-83534090D01*
X111136621Y-83378494D01*
X111065008Y-83205605D01*
X111028500Y-83022067D01*
X111028500Y-82834933D01*
X111065008Y-82651395D01*
X111136621Y-82478506D01*
X111240587Y-82322910D01*
X111372910Y-82190587D01*
X111528506Y-82086621D01*
X111701395Y-82015008D01*
X111793164Y-81996754D01*
X111884932Y-81978500D01*
X112072068Y-81978500D01*
X112163836Y-81996754D01*
G37*
G36*
X114703836Y-79456754D02*
G01*
X114795605Y-79475008D01*
X114968494Y-79546621D01*
X115124090Y-79650587D01*
X115256413Y-79782910D01*
X115360379Y-79938506D01*
X115431992Y-80111395D01*
X115468500Y-80294933D01*
X115468500Y-80482067D01*
X115431992Y-80665605D01*
X115360379Y-80838494D01*
X115256413Y-80994090D01*
X115124090Y-81126413D01*
X114968494Y-81230379D01*
X114795605Y-81301992D01*
X114703836Y-81320246D01*
X114612068Y-81338500D01*
X114424932Y-81338500D01*
X114333164Y-81320246D01*
X114241395Y-81301992D01*
X114068506Y-81230379D01*
X113912910Y-81126413D01*
X113780587Y-80994090D01*
X113676621Y-80838494D01*
X113605008Y-80665605D01*
X113568500Y-80482067D01*
X113568500Y-80294933D01*
X113605008Y-80111395D01*
X113676621Y-79938506D01*
X113780587Y-79782910D01*
X113912910Y-79650587D01*
X114068506Y-79546621D01*
X114241395Y-79475008D01*
X114333164Y-79456754D01*
X114424932Y-79438500D01*
X114612068Y-79438500D01*
X114703836Y-79456754D01*
G37*
G36*
X112163836Y-79456754D02*
G01*
X112255605Y-79475008D01*
X112428494Y-79546621D01*
X112584090Y-79650587D01*
X112716413Y-79782910D01*
X112820379Y-79938506D01*
X112891992Y-80111395D01*
X112928500Y-80294933D01*
X112928500Y-80482067D01*
X112891992Y-80665605D01*
X112820379Y-80838494D01*
X112716413Y-80994090D01*
X112584090Y-81126413D01*
X112428494Y-81230379D01*
X112255605Y-81301992D01*
X112163836Y-81320246D01*
X112072068Y-81338500D01*
X111884932Y-81338500D01*
X111793164Y-81320246D01*
X111701395Y-81301992D01*
X111528506Y-81230379D01*
X111372910Y-81126413D01*
X111240587Y-80994090D01*
X111136621Y-80838494D01*
X111065008Y-80665605D01*
X111028500Y-80482067D01*
X111028500Y-80294933D01*
X111065008Y-80111395D01*
X111136621Y-79938506D01*
X111240587Y-79782910D01*
X111372910Y-79650587D01*
X111528506Y-79546621D01*
X111701395Y-79475008D01*
X111793164Y-79456754D01*
X111884932Y-79438500D01*
X112072068Y-79438500D01*
X112163836Y-79456754D01*
G37*
G36*
X112163836Y-76916754D02*
G01*
X112255605Y-76935008D01*
X112428494Y-77006621D01*
X112584090Y-77110587D01*
X112716413Y-77242910D01*
X112820379Y-77398506D01*
X112891992Y-77571395D01*
X112928500Y-77754933D01*
X112928500Y-77942067D01*
X112891992Y-78125605D01*
X112820379Y-78298494D01*
X112716413Y-78454090D01*
X112584090Y-78586413D01*
X112428494Y-78690379D01*
X112255605Y-78761992D01*
X112163836Y-78780246D01*
X112072068Y-78798500D01*
X111884932Y-78798500D01*
X111793164Y-78780246D01*
X111701395Y-78761992D01*
X111528506Y-78690379D01*
X111372910Y-78586413D01*
X111240587Y-78454090D01*
X111136621Y-78298494D01*
X111065008Y-78125605D01*
X111028500Y-77942067D01*
X111028500Y-77754933D01*
X111065008Y-77571395D01*
X111136621Y-77398506D01*
X111240587Y-77242910D01*
X111372910Y-77110587D01*
X111528506Y-77006621D01*
X111701395Y-76935008D01*
X111793164Y-76916754D01*
X111884932Y-76898500D01*
X112072068Y-76898500D01*
X112163836Y-76916754D01*
G37*
G36*
X114703836Y-76916754D02*
G01*
X114795605Y-76935008D01*
X114968494Y-77006621D01*
X115124090Y-77110587D01*
X115256413Y-77242910D01*
X115360379Y-77398506D01*
X115431992Y-77571395D01*
X115468500Y-77754933D01*
X115468500Y-77942067D01*
X115431992Y-78125605D01*
X115360379Y-78298494D01*
X115256413Y-78454090D01*
X115124090Y-78586413D01*
X114968494Y-78690379D01*
X114795605Y-78761992D01*
X114703836Y-78780246D01*
X114612068Y-78798500D01*
X114424932Y-78798500D01*
X114333164Y-78780246D01*
X114241395Y-78761992D01*
X114068506Y-78690379D01*
X113912910Y-78586413D01*
X113780587Y-78454090D01*
X113676621Y-78298494D01*
X113605008Y-78125605D01*
X113568500Y-77942067D01*
X113568500Y-77754933D01*
X113605008Y-77571395D01*
X113676621Y-77398506D01*
X113780587Y-77242910D01*
X113912910Y-77110587D01*
X114068506Y-77006621D01*
X114241395Y-76935008D01*
X114333164Y-76916754D01*
X114424932Y-76898500D01*
X114612068Y-76898500D01*
X114703836Y-76916754D01*
G37*
G36*
X114703836Y-74376754D02*
G01*
X114795605Y-74395008D01*
X114968494Y-74466621D01*
X115124090Y-74570587D01*
X115256413Y-74702910D01*
X115360379Y-74858506D01*
X115431992Y-75031395D01*
X115468500Y-75214933D01*
X115468500Y-75402067D01*
X115431992Y-75585605D01*
X115360379Y-75758494D01*
X115256413Y-75914090D01*
X115124090Y-76046413D01*
X114968494Y-76150379D01*
X114795605Y-76221992D01*
X114703836Y-76240246D01*
X114612068Y-76258500D01*
X114424932Y-76258500D01*
X114333164Y-76240246D01*
X114241395Y-76221992D01*
X114068506Y-76150379D01*
X113912910Y-76046413D01*
X113780587Y-75914090D01*
X113676621Y-75758494D01*
X113605008Y-75585605D01*
X113568500Y-75402067D01*
X113568500Y-75214933D01*
X113605008Y-75031395D01*
X113676621Y-74858506D01*
X113780587Y-74702910D01*
X113912910Y-74570587D01*
X114068506Y-74466621D01*
X114241395Y-74395008D01*
X114333164Y-74376754D01*
X114424932Y-74358500D01*
X114612068Y-74358500D01*
X114703836Y-74376754D01*
G37*
G36*
X112163836Y-74376754D02*
G01*
X112255605Y-74395008D01*
X112428494Y-74466621D01*
X112584090Y-74570587D01*
X112716413Y-74702910D01*
X112820379Y-74858506D01*
X112891992Y-75031395D01*
X112928500Y-75214933D01*
X112928500Y-75402067D01*
X112891992Y-75585605D01*
X112820379Y-75758494D01*
X112716413Y-75914090D01*
X112584090Y-76046413D01*
X112428494Y-76150379D01*
X112255605Y-76221992D01*
X112163836Y-76240246D01*
X112072068Y-76258500D01*
X111884932Y-76258500D01*
X111793164Y-76240246D01*
X111701395Y-76221992D01*
X111528506Y-76150379D01*
X111372910Y-76046413D01*
X111240587Y-75914090D01*
X111136621Y-75758494D01*
X111065008Y-75585605D01*
X111028500Y-75402067D01*
X111028500Y-75214933D01*
X111065008Y-75031395D01*
X111136621Y-74858506D01*
X111240587Y-74702910D01*
X111372910Y-74570587D01*
X111528506Y-74466621D01*
X111701395Y-74395008D01*
X111793164Y-74376754D01*
X111884932Y-74358500D01*
X112072068Y-74358500D01*
X112163836Y-74376754D01*
G37*
G36*
X59466703Y-72561486D02*
G01*
X59757883Y-72682097D01*
X60019940Y-72857198D01*
X60242802Y-73080060D01*
X60417903Y-73342117D01*
X60538514Y-73633297D01*
X60600000Y-73942412D01*
X60600000Y-74257588D01*
X60538514Y-74566703D01*
X60417903Y-74857883D01*
X60242802Y-75119940D01*
X60019940Y-75342802D01*
X59757883Y-75517903D01*
X59466703Y-75638514D01*
X59157588Y-75700000D01*
X58842412Y-75700000D01*
X58533297Y-75638514D01*
X58242117Y-75517903D01*
X57980060Y-75342802D01*
X57757198Y-75119940D01*
X57582097Y-74857883D01*
X57461486Y-74566703D01*
X57400000Y-74257588D01*
X57400000Y-73942412D01*
X57461486Y-73633297D01*
X57582097Y-73342117D01*
X57757198Y-73080060D01*
X57980060Y-72857198D01*
X58242117Y-72682097D01*
X58533297Y-72561486D01*
X58842412Y-72500000D01*
X59157588Y-72500000D01*
X59466703Y-72561486D01*
G37*
G36*
X114703836Y-71836754D02*
G01*
X114795605Y-71855008D01*
X114968494Y-71926621D01*
X115124090Y-72030587D01*
X115256413Y-72162910D01*
X115360379Y-72318506D01*
X115431992Y-72491395D01*
X115468500Y-72674933D01*
X115468500Y-72862067D01*
X115431992Y-73045605D01*
X115360379Y-73218494D01*
X115256413Y-73374090D01*
X115124090Y-73506413D01*
X114968494Y-73610379D01*
X114795605Y-73681992D01*
X114703836Y-73700246D01*
X114612068Y-73718500D01*
X114424932Y-73718500D01*
X114333164Y-73700246D01*
X114241395Y-73681992D01*
X114068506Y-73610379D01*
X113912910Y-73506413D01*
X113780587Y-73374090D01*
X113676621Y-73218494D01*
X113605008Y-73045605D01*
X113568500Y-72862067D01*
X113568500Y-72674933D01*
X113605008Y-72491395D01*
X113676621Y-72318506D01*
X113780587Y-72162910D01*
X113912910Y-72030587D01*
X114068506Y-71926621D01*
X114241395Y-71855008D01*
X114333164Y-71836754D01*
X114424932Y-71818500D01*
X114612068Y-71818500D01*
X114703836Y-71836754D01*
G37*
G36*
X112163836Y-71836754D02*
G01*
X112255605Y-71855008D01*
X112428494Y-71926621D01*
X112584090Y-72030587D01*
X112716413Y-72162910D01*
X112820379Y-72318506D01*
X112891992Y-72491395D01*
X112928500Y-72674933D01*
X112928500Y-72862067D01*
X112891992Y-73045605D01*
X112820379Y-73218494D01*
X112716413Y-73374090D01*
X112584090Y-73506413D01*
X112428494Y-73610379D01*
X112255605Y-73681992D01*
X112163836Y-73700246D01*
X112072068Y-73718500D01*
X111884932Y-73718500D01*
X111793164Y-73700246D01*
X111701395Y-73681992D01*
X111528506Y-73610379D01*
X111372910Y-73506413D01*
X111240587Y-73374090D01*
X111136621Y-73218494D01*
X111065008Y-73045605D01*
X111028500Y-72862067D01*
X111028500Y-72674933D01*
X111065008Y-72491395D01*
X111136621Y-72318506D01*
X111240587Y-72162910D01*
X111372910Y-72030587D01*
X111528506Y-71926621D01*
X111701395Y-71855008D01*
X111793164Y-71836754D01*
X111884932Y-71818500D01*
X112072068Y-71818500D01*
X112163836Y-71836754D01*
G37*
G36*
X112163836Y-69296754D02*
G01*
X112255605Y-69315008D01*
X112428494Y-69386621D01*
X112584090Y-69490587D01*
X112716413Y-69622910D01*
X112820379Y-69778506D01*
X112891992Y-69951395D01*
X112928500Y-70134933D01*
X112928500Y-70322067D01*
X112891992Y-70505605D01*
X112820379Y-70678494D01*
X112716413Y-70834090D01*
X112584090Y-70966413D01*
X112428494Y-71070379D01*
X112255605Y-71141992D01*
X112163836Y-71160246D01*
X112072068Y-71178500D01*
X111884932Y-71178500D01*
X111793164Y-71160246D01*
X111701395Y-71141992D01*
X111528506Y-71070379D01*
X111372910Y-70966413D01*
X111240587Y-70834090D01*
X111136621Y-70678494D01*
X111065008Y-70505605D01*
X111028500Y-70322067D01*
X111028500Y-70134933D01*
X111065008Y-69951395D01*
X111136621Y-69778506D01*
X111240587Y-69622910D01*
X111372910Y-69490587D01*
X111528506Y-69386621D01*
X111701395Y-69315008D01*
X111793164Y-69296754D01*
X111884932Y-69278500D01*
X112072068Y-69278500D01*
X112163836Y-69296754D01*
G37*
G36*
X114703836Y-69296754D02*
G01*
X114795605Y-69315008D01*
X114968494Y-69386621D01*
X115124090Y-69490587D01*
X115256413Y-69622910D01*
X115360379Y-69778506D01*
X115431992Y-69951395D01*
X115468500Y-70134933D01*
X115468500Y-70322067D01*
X115431992Y-70505605D01*
X115360379Y-70678494D01*
X115256413Y-70834090D01*
X115124090Y-70966413D01*
X114968494Y-71070379D01*
X114795605Y-71141992D01*
X114703836Y-71160246D01*
X114612068Y-71178500D01*
X114424932Y-71178500D01*
X114333164Y-71160246D01*
X114241395Y-71141992D01*
X114068506Y-71070379D01*
X113912910Y-70966413D01*
X113780587Y-70834090D01*
X113676621Y-70678494D01*
X113605008Y-70505605D01*
X113568500Y-70322067D01*
X113568500Y-70134933D01*
X113605008Y-69951395D01*
X113676621Y-69778506D01*
X113780587Y-69622910D01*
X113912910Y-69490587D01*
X114068506Y-69386621D01*
X114241395Y-69315008D01*
X114333164Y-69296754D01*
X114424932Y-69278500D01*
X114612068Y-69278500D01*
X114703836Y-69296754D01*
G37*
G36*
X112928500Y-68638500D02*
G01*
X111028500Y-68638500D01*
X111028500Y-66738500D01*
X112928500Y-66738500D01*
X112928500Y-68638500D01*
G37*
G36*
X114703836Y-66756754D02*
G01*
X114795605Y-66775008D01*
X114968494Y-66846621D01*
X115124090Y-66950587D01*
X115256413Y-67082910D01*
X115360379Y-67238506D01*
X115431992Y-67411395D01*
X115468500Y-67594933D01*
X115468500Y-67782067D01*
X115431992Y-67965605D01*
X115360379Y-68138494D01*
X115256413Y-68294090D01*
X115124090Y-68426413D01*
X114968494Y-68530379D01*
X114795605Y-68601992D01*
X114703836Y-68620246D01*
X114612068Y-68638500D01*
X114424932Y-68638500D01*
X114333164Y-68620246D01*
X114241395Y-68601992D01*
X114068506Y-68530379D01*
X113912910Y-68426413D01*
X113780587Y-68294090D01*
X113676621Y-68138494D01*
X113605008Y-67965605D01*
X113568500Y-67782067D01*
X113568500Y-67594933D01*
X113605008Y-67411395D01*
X113676621Y-67238506D01*
X113780587Y-67082910D01*
X113912910Y-66950587D01*
X114068506Y-66846621D01*
X114241395Y-66775008D01*
X114333164Y-66756754D01*
X114424932Y-66738500D01*
X114612068Y-66738500D01*
X114703836Y-66756754D01*
G37*
G36*
X59466703Y-59361486D02*
G01*
X59757883Y-59482097D01*
X60019940Y-59657198D01*
X60242802Y-59880060D01*
X60417903Y-60142117D01*
X60538514Y-60433297D01*
X60600000Y-60742412D01*
X60600000Y-61057588D01*
X60538514Y-61366703D01*
X60417903Y-61657883D01*
X60242802Y-61919940D01*
X60019940Y-62142802D01*
X59757883Y-62317903D01*
X59466703Y-62438514D01*
X59157588Y-62500000D01*
X58842412Y-62500000D01*
X58533297Y-62438514D01*
X58242117Y-62317903D01*
X57980060Y-62142802D01*
X57757198Y-61919940D01*
X57582097Y-61657883D01*
X57461486Y-61366703D01*
X57400000Y-61057588D01*
X57400000Y-60742412D01*
X57461486Y-60433297D01*
X57582097Y-60142117D01*
X57757198Y-59880060D01*
X57980060Y-59657198D01*
X58242117Y-59482097D01*
X58533297Y-59361486D01*
X58842412Y-59300000D01*
X59157588Y-59300000D01*
X59466703Y-59361486D01*
G37*
G36*
X111113280Y-51128066D02*
G01*
X111412737Y-51187631D01*
X111976901Y-51421315D01*
X112484635Y-51760572D01*
X112916428Y-52192365D01*
X113255685Y-52700099D01*
X113489369Y-53264263D01*
X113608500Y-53863177D01*
X113608500Y-54473823D01*
X113489369Y-55072737D01*
X113255685Y-55636901D01*
X112916428Y-56144635D01*
X112484635Y-56576428D01*
X111976901Y-56915685D01*
X111412737Y-57149369D01*
X111113280Y-57208935D01*
X110813825Y-57268500D01*
X110203175Y-57268500D01*
X109903720Y-57208935D01*
X109604263Y-57149369D01*
X109040099Y-56915685D01*
X108532365Y-56576428D01*
X108100572Y-56144635D01*
X107761315Y-55636901D01*
X107527631Y-55072737D01*
X107408500Y-54473823D01*
X107408500Y-53863177D01*
X107527631Y-53264263D01*
X107761315Y-52700099D01*
X108100572Y-52192365D01*
X108532365Y-51760572D01*
X109040099Y-51421315D01*
X109604263Y-51187631D01*
X109903720Y-51128066D01*
X110203175Y-51068500D01*
X110813825Y-51068500D01*
X111113280Y-51128066D01*
G37*
G36*
X113424926Y-40181522D02*
G01*
X113424929Y-40181523D01*
X113424930Y-40181523D01*
X113594580Y-40232986D01*
X113594582Y-40232987D01*
X113594585Y-40232988D01*
X113750932Y-40316556D01*
X113887975Y-40429025D01*
X114000444Y-40566069D01*
X114084012Y-40722414D01*
X114135478Y-40892073D01*
X114148500Y-41024289D01*
X114148500Y-41712710D01*
X114135478Y-41844926D01*
X114135477Y-41844928D01*
X114135477Y-41844931D01*
X114084014Y-42014581D01*
X114084012Y-42014584D01*
X114084012Y-42014585D01*
X114000444Y-42170932D01*
X113887975Y-42307975D01*
X113750931Y-42420444D01*
X113594586Y-42504012D01*
X113594583Y-42504013D01*
X113594581Y-42504014D01*
X113424931Y-42555477D01*
X113424930Y-42555477D01*
X113424927Y-42555478D01*
X113248500Y-42572854D01*
X113072074Y-42555478D01*
X113072071Y-42555477D01*
X113072070Y-42555477D01*
X112902420Y-42504014D01*
X112902418Y-42504013D01*
X112902415Y-42504012D01*
X112746070Y-42420444D01*
X112609026Y-42307975D01*
X112496557Y-42170931D01*
X112412986Y-42014581D01*
X112361522Y-41844932D01*
X112348500Y-41712711D01*
X112348500Y-41024290D01*
X112361522Y-40892074D01*
X112361523Y-40892070D01*
X112412986Y-40722420D01*
X112412987Y-40722418D01*
X112412988Y-40722415D01*
X112496556Y-40566068D01*
X112609025Y-40429025D01*
X112746069Y-40316556D01*
X112902414Y-40232988D01*
X112902417Y-40232987D01*
X112902419Y-40232986D01*
X113072069Y-40181523D01*
X113072070Y-40181523D01*
X113072073Y-40181522D01*
X113248500Y-40164146D01*
X113424926Y-40181522D01*
G37*
G36*
X103264926Y-40181522D02*
G01*
X103264929Y-40181523D01*
X103264930Y-40181523D01*
X103434580Y-40232986D01*
X103434582Y-40232987D01*
X103434585Y-40232988D01*
X103590932Y-40316556D01*
X103727975Y-40429025D01*
X103840444Y-40566069D01*
X103924012Y-40722414D01*
X103975478Y-40892073D01*
X103988500Y-41024289D01*
X103988500Y-41712710D01*
X103975478Y-41844926D01*
X103975477Y-41844928D01*
X103975477Y-41844931D01*
X103924014Y-42014581D01*
X103924012Y-42014584D01*
X103924012Y-42014585D01*
X103840444Y-42170932D01*
X103727975Y-42307975D01*
X103590931Y-42420444D01*
X103434586Y-42504012D01*
X103434583Y-42504013D01*
X103434581Y-42504014D01*
X103264931Y-42555477D01*
X103264930Y-42555477D01*
X103264927Y-42555478D01*
X103088500Y-42572854D01*
X102912074Y-42555478D01*
X102912071Y-42555477D01*
X102912070Y-42555477D01*
X102742420Y-42504014D01*
X102742418Y-42504013D01*
X102742415Y-42504012D01*
X102586070Y-42420444D01*
X102449026Y-42307975D01*
X102336557Y-42170931D01*
X102252986Y-42014581D01*
X102201522Y-41844932D01*
X102188500Y-41712711D01*
X102188500Y-41024290D01*
X102201522Y-40892074D01*
X102201523Y-40892070D01*
X102252986Y-40722420D01*
X102252987Y-40722418D01*
X102252988Y-40722415D01*
X102336556Y-40566068D01*
X102449025Y-40429025D01*
X102586069Y-40316556D01*
X102742414Y-40232988D01*
X102742417Y-40232987D01*
X102742419Y-40232986D01*
X102912069Y-40181523D01*
X102912070Y-40181523D01*
X102912073Y-40181522D01*
X103088500Y-40164146D01*
X103264926Y-40181522D01*
G37*
G36*
X98184926Y-40181522D02*
G01*
X98184929Y-40181523D01*
X98184930Y-40181523D01*
X98354580Y-40232986D01*
X98354582Y-40232987D01*
X98354585Y-40232988D01*
X98510932Y-40316556D01*
X98647975Y-40429025D01*
X98760444Y-40566069D01*
X98844012Y-40722414D01*
X98895478Y-40892073D01*
X98908500Y-41024289D01*
X98908500Y-41712710D01*
X98895478Y-41844926D01*
X98895477Y-41844928D01*
X98895477Y-41844931D01*
X98844014Y-42014581D01*
X98844012Y-42014584D01*
X98844012Y-42014585D01*
X98760444Y-42170932D01*
X98647975Y-42307975D01*
X98510931Y-42420444D01*
X98354586Y-42504012D01*
X98354583Y-42504013D01*
X98354581Y-42504014D01*
X98184931Y-42555477D01*
X98184930Y-42555477D01*
X98184927Y-42555478D01*
X98008500Y-42572854D01*
X97832074Y-42555478D01*
X97832071Y-42555477D01*
X97832070Y-42555477D01*
X97662420Y-42504014D01*
X97662418Y-42504013D01*
X97662415Y-42504012D01*
X97506070Y-42420444D01*
X97369026Y-42307975D01*
X97256557Y-42170931D01*
X97172986Y-42014581D01*
X97121522Y-41844932D01*
X97108500Y-41712711D01*
X97108500Y-41024290D01*
X97121522Y-40892074D01*
X97121523Y-40892070D01*
X97172986Y-40722420D01*
X97172987Y-40722418D01*
X97172988Y-40722415D01*
X97256556Y-40566068D01*
X97369025Y-40429025D01*
X97506069Y-40316556D01*
X97662414Y-40232988D01*
X97662417Y-40232987D01*
X97662419Y-40232986D01*
X97832069Y-40181523D01*
X97832070Y-40181523D01*
X97832073Y-40181522D01*
X98008500Y-40164146D01*
X98184926Y-40181522D01*
G37*
G36*
X93104926Y-40181522D02*
G01*
X93104929Y-40181523D01*
X93104930Y-40181523D01*
X93274580Y-40232986D01*
X93274582Y-40232987D01*
X93274585Y-40232988D01*
X93430932Y-40316556D01*
X93567975Y-40429025D01*
X93680444Y-40566069D01*
X93764012Y-40722414D01*
X93815478Y-40892073D01*
X93828500Y-41024289D01*
X93828500Y-41712710D01*
X93815478Y-41844926D01*
X93815477Y-41844928D01*
X93815477Y-41844931D01*
X93764014Y-42014581D01*
X93764012Y-42014584D01*
X93764012Y-42014585D01*
X93680444Y-42170932D01*
X93567975Y-42307975D01*
X93430931Y-42420444D01*
X93274586Y-42504012D01*
X93274583Y-42504013D01*
X93274581Y-42504014D01*
X93104931Y-42555477D01*
X93104930Y-42555477D01*
X93104927Y-42555478D01*
X92928500Y-42572854D01*
X92752074Y-42555478D01*
X92752071Y-42555477D01*
X92752070Y-42555477D01*
X92582420Y-42504014D01*
X92582418Y-42504013D01*
X92582415Y-42504012D01*
X92426070Y-42420444D01*
X92289026Y-42307975D01*
X92176557Y-42170931D01*
X92092986Y-42014581D01*
X92041522Y-41844932D01*
X92028500Y-41712711D01*
X92028500Y-41024290D01*
X92041522Y-40892074D01*
X92041523Y-40892070D01*
X92092986Y-40722420D01*
X92092987Y-40722418D01*
X92092988Y-40722415D01*
X92176556Y-40566068D01*
X92289025Y-40429025D01*
X92426069Y-40316556D01*
X92582414Y-40232988D01*
X92582417Y-40232987D01*
X92582419Y-40232986D01*
X92752069Y-40181523D01*
X92752070Y-40181523D01*
X92752073Y-40181522D01*
X92928500Y-40164146D01*
X93104926Y-40181522D01*
G37*
G36*
X77864926Y-40181522D02*
G01*
X77864929Y-40181523D01*
X77864930Y-40181523D01*
X78034580Y-40232986D01*
X78034582Y-40232987D01*
X78034585Y-40232988D01*
X78190932Y-40316556D01*
X78327975Y-40429025D01*
X78440444Y-40566069D01*
X78524012Y-40722414D01*
X78575478Y-40892073D01*
X78588500Y-41024289D01*
X78588500Y-41712710D01*
X78575478Y-41844926D01*
X78575477Y-41844928D01*
X78575477Y-41844931D01*
X78524014Y-42014581D01*
X78524012Y-42014584D01*
X78524012Y-42014585D01*
X78440444Y-42170932D01*
X78327975Y-42307975D01*
X78190931Y-42420444D01*
X78034586Y-42504012D01*
X78034583Y-42504013D01*
X78034581Y-42504014D01*
X77864931Y-42555477D01*
X77864930Y-42555477D01*
X77864927Y-42555478D01*
X77688500Y-42572854D01*
X77512074Y-42555478D01*
X77512071Y-42555477D01*
X77512070Y-42555477D01*
X77342420Y-42504014D01*
X77342418Y-42504013D01*
X77342415Y-42504012D01*
X77186070Y-42420444D01*
X77049026Y-42307975D01*
X76936557Y-42170931D01*
X76852986Y-42014581D01*
X76801522Y-41844932D01*
X76788500Y-41712711D01*
X76788500Y-41024290D01*
X76801522Y-40892074D01*
X76801523Y-40892070D01*
X76852986Y-40722420D01*
X76852987Y-40722418D01*
X76852988Y-40722415D01*
X76936556Y-40566068D01*
X77049025Y-40429025D01*
X77186069Y-40316556D01*
X77342414Y-40232988D01*
X77342417Y-40232987D01*
X77342419Y-40232986D01*
X77512069Y-40181523D01*
X77512070Y-40181523D01*
X77512073Y-40181522D01*
X77688500Y-40164146D01*
X77864926Y-40181522D01*
G37*
G36*
X82944926Y-40181522D02*
G01*
X82944929Y-40181523D01*
X82944930Y-40181523D01*
X83114580Y-40232986D01*
X83114582Y-40232987D01*
X83114585Y-40232988D01*
X83270932Y-40316556D01*
X83407975Y-40429025D01*
X83520444Y-40566069D01*
X83604012Y-40722414D01*
X83655478Y-40892073D01*
X83668500Y-41024289D01*
X83668500Y-41712710D01*
X83655478Y-41844926D01*
X83655477Y-41844928D01*
X83655477Y-41844931D01*
X83604014Y-42014581D01*
X83604012Y-42014584D01*
X83604012Y-42014585D01*
X83520444Y-42170932D01*
X83407975Y-42307975D01*
X83270931Y-42420444D01*
X83114586Y-42504012D01*
X83114583Y-42504013D01*
X83114581Y-42504014D01*
X82944931Y-42555477D01*
X82944930Y-42555477D01*
X82944927Y-42555478D01*
X82768500Y-42572854D01*
X82592074Y-42555478D01*
X82592071Y-42555477D01*
X82592070Y-42555477D01*
X82422420Y-42504014D01*
X82422418Y-42504013D01*
X82422415Y-42504012D01*
X82266070Y-42420444D01*
X82129026Y-42307975D01*
X82016557Y-42170931D01*
X81932986Y-42014581D01*
X81881522Y-41844932D01*
X81868500Y-41712711D01*
X81868500Y-41024290D01*
X81881522Y-40892074D01*
X81881523Y-40892070D01*
X81932986Y-40722420D01*
X81932987Y-40722418D01*
X81932988Y-40722415D01*
X82016556Y-40566068D01*
X82129025Y-40429025D01*
X82266069Y-40316556D01*
X82422414Y-40232988D01*
X82422417Y-40232987D01*
X82422419Y-40232986D01*
X82592069Y-40181523D01*
X82592070Y-40181523D01*
X82592073Y-40181522D01*
X82768500Y-40164146D01*
X82944926Y-40181522D01*
G37*
G36*
X108344926Y-40181522D02*
G01*
X108344929Y-40181523D01*
X108344930Y-40181523D01*
X108514580Y-40232986D01*
X108514582Y-40232987D01*
X108514585Y-40232988D01*
X108670932Y-40316556D01*
X108807975Y-40429025D01*
X108920444Y-40566069D01*
X109004012Y-40722414D01*
X109055478Y-40892073D01*
X109068500Y-41024289D01*
X109068500Y-41712710D01*
X109055478Y-41844926D01*
X109055477Y-41844928D01*
X109055477Y-41844931D01*
X109004014Y-42014581D01*
X109004012Y-42014584D01*
X109004012Y-42014585D01*
X108920444Y-42170932D01*
X108807975Y-42307975D01*
X108670931Y-42420444D01*
X108514586Y-42504012D01*
X108514583Y-42504013D01*
X108514581Y-42504014D01*
X108344931Y-42555477D01*
X108344930Y-42555477D01*
X108344927Y-42555478D01*
X108168500Y-42572854D01*
X107992074Y-42555478D01*
X107992071Y-42555477D01*
X107992070Y-42555477D01*
X107822420Y-42504014D01*
X107822418Y-42504013D01*
X107822415Y-42504012D01*
X107666070Y-42420444D01*
X107529026Y-42307975D01*
X107416557Y-42170931D01*
X107332986Y-42014581D01*
X107281522Y-41844932D01*
X107268500Y-41712711D01*
X107268500Y-41024290D01*
X107281522Y-40892074D01*
X107281523Y-40892070D01*
X107332986Y-40722420D01*
X107332987Y-40722418D01*
X107332988Y-40722415D01*
X107416556Y-40566068D01*
X107529025Y-40429025D01*
X107666069Y-40316556D01*
X107822414Y-40232988D01*
X107822417Y-40232987D01*
X107822419Y-40232986D01*
X107992069Y-40181523D01*
X107992070Y-40181523D01*
X107992073Y-40181522D01*
X108168500Y-40164146D01*
X108344926Y-40181522D01*
G37*
G36*
X72784926Y-40181522D02*
G01*
X72784929Y-40181523D01*
X72784930Y-40181523D01*
X72954580Y-40232986D01*
X72954582Y-40232987D01*
X72954585Y-40232988D01*
X73110932Y-40316556D01*
X73247975Y-40429025D01*
X73360444Y-40566069D01*
X73444012Y-40722414D01*
X73495478Y-40892073D01*
X73508500Y-41024289D01*
X73508500Y-41712710D01*
X73495478Y-41844926D01*
X73495477Y-41844928D01*
X73495477Y-41844931D01*
X73444014Y-42014581D01*
X73444012Y-42014584D01*
X73444012Y-42014585D01*
X73360444Y-42170932D01*
X73247975Y-42307975D01*
X73110931Y-42420444D01*
X72954586Y-42504012D01*
X72954583Y-42504013D01*
X72954581Y-42504014D01*
X72784931Y-42555477D01*
X72784930Y-42555477D01*
X72784927Y-42555478D01*
X72608500Y-42572854D01*
X72432074Y-42555478D01*
X72432071Y-42555477D01*
X72432070Y-42555477D01*
X72262420Y-42504014D01*
X72262418Y-42504013D01*
X72262415Y-42504012D01*
X72106070Y-42420444D01*
X71969026Y-42307975D01*
X71856557Y-42170931D01*
X71772986Y-42014581D01*
X71721522Y-41844932D01*
X71708500Y-41712711D01*
X71708500Y-41024290D01*
X71721522Y-40892074D01*
X71721523Y-40892070D01*
X71772986Y-40722420D01*
X71772987Y-40722418D01*
X71772988Y-40722415D01*
X71856556Y-40566068D01*
X71969025Y-40429025D01*
X72106069Y-40316556D01*
X72262414Y-40232988D01*
X72262417Y-40232987D01*
X72262419Y-40232986D01*
X72432069Y-40181523D01*
X72432070Y-40181523D01*
X72432073Y-40181522D01*
X72608500Y-40164146D01*
X72784926Y-40181522D01*
G37*
G36*
X67704926Y-40181522D02*
G01*
X67704929Y-40181523D01*
X67704930Y-40181523D01*
X67874580Y-40232986D01*
X67874582Y-40232987D01*
X67874585Y-40232988D01*
X68030932Y-40316556D01*
X68167975Y-40429025D01*
X68280444Y-40566069D01*
X68364012Y-40722414D01*
X68415478Y-40892073D01*
X68428500Y-41024289D01*
X68428500Y-41712710D01*
X68415478Y-41844926D01*
X68415477Y-41844928D01*
X68415477Y-41844931D01*
X68364014Y-42014581D01*
X68364012Y-42014584D01*
X68364012Y-42014585D01*
X68280444Y-42170932D01*
X68167975Y-42307975D01*
X68030931Y-42420444D01*
X67874586Y-42504012D01*
X67874583Y-42504013D01*
X67874581Y-42504014D01*
X67704931Y-42555477D01*
X67704930Y-42555477D01*
X67704927Y-42555478D01*
X67528500Y-42572854D01*
X67352074Y-42555478D01*
X67352071Y-42555477D01*
X67352070Y-42555477D01*
X67182420Y-42504014D01*
X67182418Y-42504013D01*
X67182415Y-42504012D01*
X67026070Y-42420444D01*
X66889026Y-42307975D01*
X66776557Y-42170931D01*
X66692986Y-42014581D01*
X66641522Y-41844932D01*
X66628500Y-41712711D01*
X66628500Y-41024290D01*
X66641522Y-40892074D01*
X66641523Y-40892070D01*
X66692986Y-40722420D01*
X66692987Y-40722418D01*
X66692988Y-40722415D01*
X66776556Y-40566068D01*
X66889025Y-40429025D01*
X67026069Y-40316556D01*
X67182414Y-40232988D01*
X67182417Y-40232987D01*
X67182419Y-40232986D01*
X67352069Y-40181523D01*
X67352070Y-40181523D01*
X67352073Y-40181522D01*
X67528500Y-40164146D01*
X67704926Y-40181522D01*
G37*
G36*
X62624926Y-40181522D02*
G01*
X62624929Y-40181523D01*
X62624930Y-40181523D01*
X62794580Y-40232986D01*
X62794582Y-40232987D01*
X62794585Y-40232988D01*
X62950932Y-40316556D01*
X63087975Y-40429025D01*
X63200444Y-40566069D01*
X63284012Y-40722414D01*
X63335478Y-40892073D01*
X63348500Y-41024289D01*
X63348500Y-41712710D01*
X63335478Y-41844926D01*
X63335477Y-41844928D01*
X63335477Y-41844931D01*
X63284014Y-42014581D01*
X63284012Y-42014584D01*
X63284012Y-42014585D01*
X63200444Y-42170932D01*
X63087975Y-42307975D01*
X62950931Y-42420444D01*
X62794586Y-42504012D01*
X62794583Y-42504013D01*
X62794581Y-42504014D01*
X62624931Y-42555477D01*
X62624930Y-42555477D01*
X62624927Y-42555478D01*
X62448500Y-42572854D01*
X62272074Y-42555478D01*
X62272071Y-42555477D01*
X62272070Y-42555477D01*
X62102420Y-42504014D01*
X62102418Y-42504013D01*
X62102415Y-42504012D01*
X61946070Y-42420444D01*
X61809026Y-42307975D01*
X61696557Y-42170931D01*
X61612986Y-42014581D01*
X61561522Y-41844932D01*
X61548500Y-41712711D01*
X61548500Y-41024290D01*
X61561522Y-40892074D01*
X61561523Y-40892070D01*
X61612986Y-40722420D01*
X61612987Y-40722418D01*
X61612988Y-40722415D01*
X61696556Y-40566068D01*
X61809025Y-40429025D01*
X61946069Y-40316556D01*
X62102414Y-40232988D01*
X62102417Y-40232987D01*
X62102419Y-40232986D01*
X62272069Y-40181523D01*
X62272070Y-40181523D01*
X62272073Y-40181522D01*
X62448500Y-40164146D01*
X62624926Y-40181522D01*
G37*
G36*
X57544926Y-40181522D02*
G01*
X57544929Y-40181523D01*
X57544930Y-40181523D01*
X57714580Y-40232986D01*
X57714582Y-40232987D01*
X57714585Y-40232988D01*
X57870932Y-40316556D01*
X58007975Y-40429025D01*
X58120444Y-40566069D01*
X58204012Y-40722414D01*
X58255478Y-40892073D01*
X58268500Y-41024289D01*
X58268500Y-41712710D01*
X58255478Y-41844926D01*
X58255477Y-41844928D01*
X58255477Y-41844931D01*
X58204014Y-42014581D01*
X58204012Y-42014584D01*
X58204012Y-42014585D01*
X58120444Y-42170932D01*
X58007975Y-42307975D01*
X57870931Y-42420444D01*
X57714586Y-42504012D01*
X57714583Y-42504013D01*
X57714581Y-42504014D01*
X57544931Y-42555477D01*
X57544930Y-42555477D01*
X57544927Y-42555478D01*
X57368500Y-42572854D01*
X57192074Y-42555478D01*
X57192071Y-42555477D01*
X57192070Y-42555477D01*
X57022420Y-42504014D01*
X57022418Y-42504013D01*
X57022415Y-42504012D01*
X56866070Y-42420444D01*
X56729026Y-42307975D01*
X56616557Y-42170931D01*
X56532986Y-42014581D01*
X56481522Y-41844932D01*
X56468500Y-41712711D01*
X56468500Y-41024290D01*
X56481522Y-40892074D01*
X56481523Y-40892070D01*
X56532986Y-40722420D01*
X56532987Y-40722418D01*
X56532988Y-40722415D01*
X56616556Y-40566068D01*
X56729025Y-40429025D01*
X56866069Y-40316556D01*
X57022414Y-40232988D01*
X57022417Y-40232987D01*
X57022419Y-40232986D01*
X57192069Y-40181523D01*
X57192070Y-40181523D01*
X57192073Y-40181522D01*
X57368500Y-40164146D01*
X57544926Y-40181522D01*
G37*
G36*
X88024926Y-40181522D02*
G01*
X88024929Y-40181523D01*
X88024930Y-40181523D01*
X88194580Y-40232986D01*
X88194582Y-40232987D01*
X88194585Y-40232988D01*
X88350932Y-40316556D01*
X88487975Y-40429025D01*
X88600444Y-40566069D01*
X88684012Y-40722414D01*
X88735478Y-40892073D01*
X88748500Y-41024289D01*
X88748500Y-41712710D01*
X88735478Y-41844926D01*
X88735477Y-41844928D01*
X88735477Y-41844931D01*
X88684014Y-42014581D01*
X88684012Y-42014584D01*
X88684012Y-42014585D01*
X88600444Y-42170932D01*
X88487975Y-42307975D01*
X88350931Y-42420444D01*
X88194586Y-42504012D01*
X88194583Y-42504013D01*
X88194581Y-42504014D01*
X88024931Y-42555477D01*
X88024930Y-42555477D01*
X88024927Y-42555478D01*
X87848500Y-42572854D01*
X87672074Y-42555478D01*
X87672071Y-42555477D01*
X87672070Y-42555477D01*
X87502420Y-42504014D01*
X87502418Y-42504013D01*
X87502415Y-42504012D01*
X87346070Y-42420444D01*
X87209026Y-42307975D01*
X87096557Y-42170931D01*
X87012986Y-42014581D01*
X86961522Y-41844932D01*
X86948500Y-41712711D01*
X86948500Y-41024290D01*
X86961522Y-40892074D01*
X86961523Y-40892070D01*
X87012986Y-40722420D01*
X87012987Y-40722418D01*
X87012988Y-40722415D01*
X87096556Y-40566068D01*
X87209025Y-40429025D01*
X87346069Y-40316556D01*
X87502414Y-40232988D01*
X87502417Y-40232987D01*
X87502419Y-40232986D01*
X87672069Y-40181523D01*
X87672070Y-40181523D01*
X87672073Y-40181522D01*
X87848500Y-40164146D01*
X88024926Y-40181522D01*
G37*
M02*
