G04 #@! TF.GenerationSoftware,KiCad,Pcbnew,5.1.5-5.1.5*
G04 #@! TF.CreationDate,2020-03-30T20:46:44+02:00*
G04 #@! TF.ProjectId,esp32control,65737033-3263-46f6-9e74-726f6c2e6b69,rev?*
G04 #@! TF.SameCoordinates,Original*
G04 #@! TF.FileFunction,Copper,L2,Bot*
G04 #@! TF.FilePolarity,Positive*
%FSLAX46Y46*%
G04 Gerber Fmt 4.6, Leading zero omitted, Abs format (unit mm)*
G04 Created by KiCad (PCBNEW 5.1.5-5.1.5) date 2020-03-30 20:46:44*
%MOMM*%
%LPD*%
G04 APERTURE LIST*
%ADD10C,0.200000*%
%ADD11C,0.150000*%
%ADD12C,0.300000*%
%ADD13C,0.400000*%
%ADD14O,1.700000X1.700000*%
%ADD15R,1.700000X1.700000*%
%ADD16C,1.600000*%
%ADD17R,1.600000X1.600000*%
%ADD18C,6.000000*%
%ADD19O,1.600000X2.200000*%
%ADD20C,0.800000*%
%ADD21C,0.800000*%
%ADD22C,0.600000*%
%ADD23C,1.000000*%
%ADD24C,0.254000*%
G04 APERTURE END LIST*
D10*
D11*
X177002200Y-166007200D02*
X177002200Y-198007200D01*
X285002200Y-198007200D01*
X285002200Y-166007200D01*
X177002200Y-166007200D01*
D10*
D11*
X10000000Y-10000000D02*
X10000000Y-200007200D01*
X287002200Y-200007200D01*
X287002200Y-10000000D01*
X10000000Y-10000000D01*
D10*
D11*
X12000000Y-12000000D02*
X12000000Y-198007200D01*
X285002200Y-198007200D01*
X285002200Y-12000000D01*
X12000000Y-12000000D01*
D10*
D11*
X60000000Y-12000000D02*
X60000000Y-10000000D01*
D10*
D11*
X110000000Y-12000000D02*
X110000000Y-10000000D01*
D10*
D11*
X160000000Y-12000000D02*
X160000000Y-10000000D01*
D10*
D11*
X210000000Y-12000000D02*
X210000000Y-10000000D01*
D10*
D11*
X260000000Y-12000000D02*
X260000000Y-10000000D01*
D10*
D11*
X36065476Y-11588095D02*
X35322619Y-11588095D01*
X35694047Y-11588095D02*
X35694047Y-10288095D01*
X35570238Y-10473809D01*
X35446428Y-10597619D01*
X35322619Y-10659523D01*
D10*
D11*
X85322619Y-10411904D02*
X85384523Y-10350000D01*
X85508333Y-10288095D01*
X85817857Y-10288095D01*
X85941666Y-10350000D01*
X86003571Y-10411904D01*
X86065476Y-10535714D01*
X86065476Y-10659523D01*
X86003571Y-10845238D01*
X85260714Y-11588095D01*
X86065476Y-11588095D01*
D10*
D11*
X135260714Y-10288095D02*
X136065476Y-10288095D01*
X135632142Y-10783333D01*
X135817857Y-10783333D01*
X135941666Y-10845238D01*
X136003571Y-10907142D01*
X136065476Y-11030952D01*
X136065476Y-11340476D01*
X136003571Y-11464285D01*
X135941666Y-11526190D01*
X135817857Y-11588095D01*
X135446428Y-11588095D01*
X135322619Y-11526190D01*
X135260714Y-11464285D01*
D10*
D11*
X185941666Y-10721428D02*
X185941666Y-11588095D01*
X185632142Y-10226190D02*
X185322619Y-11154761D01*
X186127380Y-11154761D01*
D10*
D11*
X236003571Y-10288095D02*
X235384523Y-10288095D01*
X235322619Y-10907142D01*
X235384523Y-10845238D01*
X235508333Y-10783333D01*
X235817857Y-10783333D01*
X235941666Y-10845238D01*
X236003571Y-10907142D01*
X236065476Y-11030952D01*
X236065476Y-11340476D01*
X236003571Y-11464285D01*
X235941666Y-11526190D01*
X235817857Y-11588095D01*
X235508333Y-11588095D01*
X235384523Y-11526190D01*
X235322619Y-11464285D01*
D10*
D11*
X285941666Y-10288095D02*
X285694047Y-10288095D01*
X285570238Y-10350000D01*
X285508333Y-10411904D01*
X285384523Y-10597619D01*
X285322619Y-10845238D01*
X285322619Y-11340476D01*
X285384523Y-11464285D01*
X285446428Y-11526190D01*
X285570238Y-11588095D01*
X285817857Y-11588095D01*
X285941666Y-11526190D01*
X286003571Y-11464285D01*
X286065476Y-11340476D01*
X286065476Y-11030952D01*
X286003571Y-10907142D01*
X285941666Y-10845238D01*
X285817857Y-10783333D01*
X285570238Y-10783333D01*
X285446428Y-10845238D01*
X285384523Y-10907142D01*
X285322619Y-11030952D01*
D10*
D11*
X60000000Y-198007200D02*
X60000000Y-200007200D01*
D10*
D11*
X110000000Y-198007200D02*
X110000000Y-200007200D01*
D10*
D11*
X160000000Y-198007200D02*
X160000000Y-200007200D01*
D10*
D11*
X210000000Y-198007200D02*
X210000000Y-200007200D01*
D10*
D11*
X260000000Y-198007200D02*
X260000000Y-200007200D01*
D10*
D11*
X36065476Y-199595295D02*
X35322619Y-199595295D01*
X35694047Y-199595295D02*
X35694047Y-198295295D01*
X35570238Y-198481009D01*
X35446428Y-198604819D01*
X35322619Y-198666723D01*
D10*
D11*
X85322619Y-198419104D02*
X85384523Y-198357200D01*
X85508333Y-198295295D01*
X85817857Y-198295295D01*
X85941666Y-198357200D01*
X86003571Y-198419104D01*
X86065476Y-198542914D01*
X86065476Y-198666723D01*
X86003571Y-198852438D01*
X85260714Y-199595295D01*
X86065476Y-199595295D01*
D10*
D11*
X135260714Y-198295295D02*
X136065476Y-198295295D01*
X135632142Y-198790533D01*
X135817857Y-198790533D01*
X135941666Y-198852438D01*
X136003571Y-198914342D01*
X136065476Y-199038152D01*
X136065476Y-199347676D01*
X136003571Y-199471485D01*
X135941666Y-199533390D01*
X135817857Y-199595295D01*
X135446428Y-199595295D01*
X135322619Y-199533390D01*
X135260714Y-199471485D01*
D10*
D11*
X185941666Y-198728628D02*
X185941666Y-199595295D01*
X185632142Y-198233390D02*
X185322619Y-199161961D01*
X186127380Y-199161961D01*
D10*
D11*
X236003571Y-198295295D02*
X235384523Y-198295295D01*
X235322619Y-198914342D01*
X235384523Y-198852438D01*
X235508333Y-198790533D01*
X235817857Y-198790533D01*
X235941666Y-198852438D01*
X236003571Y-198914342D01*
X236065476Y-199038152D01*
X236065476Y-199347676D01*
X236003571Y-199471485D01*
X235941666Y-199533390D01*
X235817857Y-199595295D01*
X235508333Y-199595295D01*
X235384523Y-199533390D01*
X235322619Y-199471485D01*
D10*
D11*
X285941666Y-198295295D02*
X285694047Y-198295295D01*
X285570238Y-198357200D01*
X285508333Y-198419104D01*
X285384523Y-198604819D01*
X285322619Y-198852438D01*
X285322619Y-199347676D01*
X285384523Y-199471485D01*
X285446428Y-199533390D01*
X285570238Y-199595295D01*
X285817857Y-199595295D01*
X285941666Y-199533390D01*
X286003571Y-199471485D01*
X286065476Y-199347676D01*
X286065476Y-199038152D01*
X286003571Y-198914342D01*
X285941666Y-198852438D01*
X285817857Y-198790533D01*
X285570238Y-198790533D01*
X285446428Y-198852438D01*
X285384523Y-198914342D01*
X285322619Y-199038152D01*
D10*
D11*
X10000000Y-60000000D02*
X12000000Y-60000000D01*
D10*
D11*
X10000000Y-110000000D02*
X12000000Y-110000000D01*
D10*
D11*
X10000000Y-160000000D02*
X12000000Y-160000000D01*
D10*
D11*
X10690476Y-35216666D02*
X11309523Y-35216666D01*
X10566666Y-35588095D02*
X11000000Y-34288095D01*
X11433333Y-35588095D01*
D10*
D11*
X11092857Y-84907142D02*
X11278571Y-84969047D01*
X11340476Y-85030952D01*
X11402380Y-85154761D01*
X11402380Y-85340476D01*
X11340476Y-85464285D01*
X11278571Y-85526190D01*
X11154761Y-85588095D01*
X10659523Y-85588095D01*
X10659523Y-84288095D01*
X11092857Y-84288095D01*
X11216666Y-84350000D01*
X11278571Y-84411904D01*
X11340476Y-84535714D01*
X11340476Y-84659523D01*
X11278571Y-84783333D01*
X11216666Y-84845238D01*
X11092857Y-84907142D01*
X10659523Y-84907142D01*
D10*
D11*
X11402380Y-135464285D02*
X11340476Y-135526190D01*
X11154761Y-135588095D01*
X11030952Y-135588095D01*
X10845238Y-135526190D01*
X10721428Y-135402380D01*
X10659523Y-135278571D01*
X10597619Y-135030952D01*
X10597619Y-134845238D01*
X10659523Y-134597619D01*
X10721428Y-134473809D01*
X10845238Y-134350000D01*
X11030952Y-134288095D01*
X11154761Y-134288095D01*
X11340476Y-134350000D01*
X11402380Y-134411904D01*
D10*
D11*
X10659523Y-185588095D02*
X10659523Y-184288095D01*
X10969047Y-184288095D01*
X11154761Y-184350000D01*
X11278571Y-184473809D01*
X11340476Y-184597619D01*
X11402380Y-184845238D01*
X11402380Y-185030952D01*
X11340476Y-185278571D01*
X11278571Y-185402380D01*
X11154761Y-185526190D01*
X10969047Y-185588095D01*
X10659523Y-185588095D01*
D10*
D11*
X287002200Y-60000000D02*
X285002200Y-60000000D01*
D10*
D11*
X287002200Y-110000000D02*
X285002200Y-110000000D01*
D10*
D11*
X287002200Y-160000000D02*
X285002200Y-160000000D01*
D10*
D11*
X285692676Y-35216666D02*
X286311723Y-35216666D01*
X285568866Y-35588095D02*
X286002200Y-34288095D01*
X286435533Y-35588095D01*
D10*
D11*
X286095057Y-84907142D02*
X286280771Y-84969047D01*
X286342676Y-85030952D01*
X286404580Y-85154761D01*
X286404580Y-85340476D01*
X286342676Y-85464285D01*
X286280771Y-85526190D01*
X286156961Y-85588095D01*
X285661723Y-85588095D01*
X285661723Y-84288095D01*
X286095057Y-84288095D01*
X286218866Y-84350000D01*
X286280771Y-84411904D01*
X286342676Y-84535714D01*
X286342676Y-84659523D01*
X286280771Y-84783333D01*
X286218866Y-84845238D01*
X286095057Y-84907142D01*
X285661723Y-84907142D01*
D10*
D11*
X286404580Y-135464285D02*
X286342676Y-135526190D01*
X286156961Y-135588095D01*
X286033152Y-135588095D01*
X285847438Y-135526190D01*
X285723628Y-135402380D01*
X285661723Y-135278571D01*
X285599819Y-135030952D01*
X285599819Y-134845238D01*
X285661723Y-134597619D01*
X285723628Y-134473809D01*
X285847438Y-134350000D01*
X286033152Y-134288095D01*
X286156961Y-134288095D01*
X286342676Y-134350000D01*
X286404580Y-134411904D01*
D10*
D11*
X285661723Y-185588095D02*
X285661723Y-184288095D01*
X285971247Y-184288095D01*
X286156961Y-184350000D01*
X286280771Y-184473809D01*
X286342676Y-184597619D01*
X286404580Y-184845238D01*
X286404580Y-185030952D01*
X286342676Y-185278571D01*
X286280771Y-185402380D01*
X286156961Y-185526190D01*
X285971247Y-185588095D01*
X285661723Y-185588095D01*
D10*
D11*
X200434342Y-193785771D02*
X200434342Y-192285771D01*
X200791485Y-192285771D01*
X201005771Y-192357200D01*
X201148628Y-192500057D01*
X201220057Y-192642914D01*
X201291485Y-192928628D01*
X201291485Y-193142914D01*
X201220057Y-193428628D01*
X201148628Y-193571485D01*
X201005771Y-193714342D01*
X200791485Y-193785771D01*
X200434342Y-193785771D01*
X202577200Y-193785771D02*
X202577200Y-193000057D01*
X202505771Y-192857200D01*
X202362914Y-192785771D01*
X202077200Y-192785771D01*
X201934342Y-192857200D01*
X202577200Y-193714342D02*
X202434342Y-193785771D01*
X202077200Y-193785771D01*
X201934342Y-193714342D01*
X201862914Y-193571485D01*
X201862914Y-193428628D01*
X201934342Y-193285771D01*
X202077200Y-193214342D01*
X202434342Y-193214342D01*
X202577200Y-193142914D01*
X203077200Y-192785771D02*
X203648628Y-192785771D01*
X203291485Y-192285771D02*
X203291485Y-193571485D01*
X203362914Y-193714342D01*
X203505771Y-193785771D01*
X203648628Y-193785771D01*
X204720057Y-193714342D02*
X204577200Y-193785771D01*
X204291485Y-193785771D01*
X204148628Y-193714342D01*
X204077200Y-193571485D01*
X204077200Y-193000057D01*
X204148628Y-192857200D01*
X204291485Y-192785771D01*
X204577200Y-192785771D01*
X204720057Y-192857200D01*
X204791485Y-193000057D01*
X204791485Y-193142914D01*
X204077200Y-193285771D01*
X205434342Y-193642914D02*
X205505771Y-193714342D01*
X205434342Y-193785771D01*
X205362914Y-193714342D01*
X205434342Y-193642914D01*
X205434342Y-193785771D01*
X205434342Y-192857200D02*
X205505771Y-192928628D01*
X205434342Y-193000057D01*
X205362914Y-192928628D01*
X205434342Y-192857200D01*
X205434342Y-193000057D01*
D10*
D11*
X177002200Y-194507200D02*
X285002200Y-194507200D01*
D10*
D11*
X178434342Y-196585771D02*
X178434342Y-195085771D01*
X179291485Y-196585771D02*
X178648628Y-195728628D01*
X179291485Y-195085771D02*
X178434342Y-195942914D01*
X179934342Y-196585771D02*
X179934342Y-195585771D01*
X179934342Y-195085771D02*
X179862914Y-195157200D01*
X179934342Y-195228628D01*
X180005771Y-195157200D01*
X179934342Y-195085771D01*
X179934342Y-195228628D01*
X181505771Y-196442914D02*
X181434342Y-196514342D01*
X181220057Y-196585771D01*
X181077200Y-196585771D01*
X180862914Y-196514342D01*
X180720057Y-196371485D01*
X180648628Y-196228628D01*
X180577200Y-195942914D01*
X180577200Y-195728628D01*
X180648628Y-195442914D01*
X180720057Y-195300057D01*
X180862914Y-195157200D01*
X181077200Y-195085771D01*
X181220057Y-195085771D01*
X181434342Y-195157200D01*
X181505771Y-195228628D01*
X182791485Y-196585771D02*
X182791485Y-195800057D01*
X182720057Y-195657200D01*
X182577200Y-195585771D01*
X182291485Y-195585771D01*
X182148628Y-195657200D01*
X182791485Y-196514342D02*
X182648628Y-196585771D01*
X182291485Y-196585771D01*
X182148628Y-196514342D01*
X182077200Y-196371485D01*
X182077200Y-196228628D01*
X182148628Y-196085771D01*
X182291485Y-196014342D01*
X182648628Y-196014342D01*
X182791485Y-195942914D01*
X184148628Y-196585771D02*
X184148628Y-195085771D01*
X184148628Y-196514342D02*
X184005771Y-196585771D01*
X183720057Y-196585771D01*
X183577200Y-196514342D01*
X183505771Y-196442914D01*
X183434342Y-196300057D01*
X183434342Y-195871485D01*
X183505771Y-195728628D01*
X183577200Y-195657200D01*
X183720057Y-195585771D01*
X184005771Y-195585771D01*
X184148628Y-195657200D01*
X186005771Y-195800057D02*
X186505771Y-195800057D01*
X186720057Y-196585771D02*
X186005771Y-196585771D01*
X186005771Y-195085771D01*
X186720057Y-195085771D01*
X187362914Y-196442914D02*
X187434342Y-196514342D01*
X187362914Y-196585771D01*
X187291485Y-196514342D01*
X187362914Y-196442914D01*
X187362914Y-196585771D01*
X188077200Y-196585771D02*
X188077200Y-195085771D01*
X188434342Y-195085771D01*
X188648628Y-195157200D01*
X188791485Y-195300057D01*
X188862914Y-195442914D01*
X188934342Y-195728628D01*
X188934342Y-195942914D01*
X188862914Y-196228628D01*
X188791485Y-196371485D01*
X188648628Y-196514342D01*
X188434342Y-196585771D01*
X188077200Y-196585771D01*
X189577200Y-196442914D02*
X189648628Y-196514342D01*
X189577200Y-196585771D01*
X189505771Y-196514342D01*
X189577200Y-196442914D01*
X189577200Y-196585771D01*
X190220057Y-196157200D02*
X190934342Y-196157200D01*
X190077200Y-196585771D02*
X190577200Y-195085771D01*
X191077200Y-196585771D01*
X191577200Y-196442914D02*
X191648628Y-196514342D01*
X191577200Y-196585771D01*
X191505771Y-196514342D01*
X191577200Y-196442914D01*
X191577200Y-196585771D01*
X194577200Y-196585771D02*
X194577200Y-195085771D01*
X194720057Y-196014342D02*
X195148628Y-196585771D01*
X195148628Y-195585771D02*
X194577200Y-196157200D01*
X195791485Y-196585771D02*
X195791485Y-195585771D01*
X195791485Y-195085771D02*
X195720057Y-195157200D01*
X195791485Y-195228628D01*
X195862914Y-195157200D01*
X195791485Y-195085771D01*
X195791485Y-195228628D01*
X197148628Y-196514342D02*
X197005771Y-196585771D01*
X196720057Y-196585771D01*
X196577200Y-196514342D01*
X196505771Y-196442914D01*
X196434342Y-196300057D01*
X196434342Y-195871485D01*
X196505771Y-195728628D01*
X196577200Y-195657200D01*
X196720057Y-195585771D01*
X197005771Y-195585771D01*
X197148628Y-195657200D01*
X198434342Y-196585771D02*
X198434342Y-195800057D01*
X198362914Y-195657200D01*
X198220057Y-195585771D01*
X197934342Y-195585771D01*
X197791485Y-195657200D01*
X198434342Y-196514342D02*
X198291485Y-196585771D01*
X197934342Y-196585771D01*
X197791485Y-196514342D01*
X197720057Y-196371485D01*
X197720057Y-196228628D01*
X197791485Y-196085771D01*
X197934342Y-196014342D01*
X198291485Y-196014342D01*
X198434342Y-195942914D01*
X199791485Y-196585771D02*
X199791485Y-195085771D01*
X199791485Y-196514342D02*
X199648628Y-196585771D01*
X199362914Y-196585771D01*
X199220057Y-196514342D01*
X199148628Y-196442914D01*
X199077200Y-196300057D01*
X199077200Y-195871485D01*
X199148628Y-195728628D01*
X199220057Y-195657200D01*
X199362914Y-195585771D01*
X199648628Y-195585771D01*
X199791485Y-195657200D01*
X202362914Y-195085771D02*
X201648628Y-195085771D01*
X201577200Y-195800057D01*
X201648628Y-195728628D01*
X201791485Y-195657200D01*
X202148628Y-195657200D01*
X202291485Y-195728628D01*
X202362914Y-195800057D01*
X202434342Y-195942914D01*
X202434342Y-196300057D01*
X202362914Y-196442914D01*
X202291485Y-196514342D01*
X202148628Y-196585771D01*
X201791485Y-196585771D01*
X201648628Y-196514342D01*
X201577200Y-196442914D01*
X203077200Y-196442914D02*
X203148628Y-196514342D01*
X203077200Y-196585771D01*
X203005771Y-196514342D01*
X203077200Y-196442914D01*
X203077200Y-196585771D01*
X204577200Y-196585771D02*
X203720057Y-196585771D01*
X204148628Y-196585771D02*
X204148628Y-195085771D01*
X204005771Y-195300057D01*
X203862914Y-195442914D01*
X203720057Y-195514342D01*
X205220057Y-196442914D02*
X205291485Y-196514342D01*
X205220057Y-196585771D01*
X205148628Y-196514342D01*
X205220057Y-196442914D01*
X205220057Y-196585771D01*
X206648628Y-195085771D02*
X205934342Y-195085771D01*
X205862914Y-195800057D01*
X205934342Y-195728628D01*
X206077200Y-195657200D01*
X206434342Y-195657200D01*
X206577200Y-195728628D01*
X206648628Y-195800057D01*
X206720057Y-195942914D01*
X206720057Y-196300057D01*
X206648628Y-196442914D01*
X206577200Y-196514342D01*
X206434342Y-196585771D01*
X206077200Y-196585771D01*
X205934342Y-196514342D01*
X205862914Y-196442914D01*
X207362914Y-196014342D02*
X208505771Y-196014342D01*
X209934342Y-195085771D02*
X209220057Y-195085771D01*
X209148628Y-195800057D01*
X209220057Y-195728628D01*
X209362914Y-195657200D01*
X209720057Y-195657200D01*
X209862914Y-195728628D01*
X209934342Y-195800057D01*
X210005771Y-195942914D01*
X210005771Y-196300057D01*
X209934342Y-196442914D01*
X209862914Y-196514342D01*
X209720057Y-196585771D01*
X209362914Y-196585771D01*
X209220057Y-196514342D01*
X209148628Y-196442914D01*
X210648628Y-196442914D02*
X210720057Y-196514342D01*
X210648628Y-196585771D01*
X210577200Y-196514342D01*
X210648628Y-196442914D01*
X210648628Y-196585771D01*
X212148628Y-196585771D02*
X211291485Y-196585771D01*
X211720057Y-196585771D02*
X211720057Y-195085771D01*
X211577200Y-195300057D01*
X211434342Y-195442914D01*
X211291485Y-195514342D01*
X212791485Y-196442914D02*
X212862914Y-196514342D01*
X212791485Y-196585771D01*
X212720057Y-196514342D01*
X212791485Y-196442914D01*
X212791485Y-196585771D01*
X214220057Y-195085771D02*
X213505771Y-195085771D01*
X213434342Y-195800057D01*
X213505771Y-195728628D01*
X213648628Y-195657200D01*
X214005771Y-195657200D01*
X214148628Y-195728628D01*
X214220057Y-195800057D01*
X214291485Y-195942914D01*
X214291485Y-196300057D01*
X214220057Y-196442914D01*
X214148628Y-196514342D01*
X214005771Y-196585771D01*
X213648628Y-196585771D01*
X213505771Y-196514342D01*
X213434342Y-196442914D01*
D10*
D11*
X177002200Y-191507200D02*
X285002200Y-191507200D01*
D10*
D12*
X264411485Y-193785771D02*
X263911485Y-193071485D01*
X263554342Y-193785771D02*
X263554342Y-192285771D01*
X264125771Y-192285771D01*
X264268628Y-192357200D01*
X264340057Y-192428628D01*
X264411485Y-192571485D01*
X264411485Y-192785771D01*
X264340057Y-192928628D01*
X264268628Y-193000057D01*
X264125771Y-193071485D01*
X263554342Y-193071485D01*
X265625771Y-193714342D02*
X265482914Y-193785771D01*
X265197200Y-193785771D01*
X265054342Y-193714342D01*
X264982914Y-193571485D01*
X264982914Y-193000057D01*
X265054342Y-192857200D01*
X265197200Y-192785771D01*
X265482914Y-192785771D01*
X265625771Y-192857200D01*
X265697200Y-193000057D01*
X265697200Y-193142914D01*
X264982914Y-193285771D01*
X266197200Y-192785771D02*
X266554342Y-193785771D01*
X266911485Y-192785771D01*
X267482914Y-193642914D02*
X267554342Y-193714342D01*
X267482914Y-193785771D01*
X267411485Y-193714342D01*
X267482914Y-193642914D01*
X267482914Y-193785771D01*
X267482914Y-192857200D02*
X267554342Y-192928628D01*
X267482914Y-193000057D01*
X267411485Y-192928628D01*
X267482914Y-192857200D01*
X267482914Y-193000057D01*
D10*
D11*
X178362914Y-193714342D02*
X178577200Y-193785771D01*
X178934342Y-193785771D01*
X179077200Y-193714342D01*
X179148628Y-193642914D01*
X179220057Y-193500057D01*
X179220057Y-193357200D01*
X179148628Y-193214342D01*
X179077200Y-193142914D01*
X178934342Y-193071485D01*
X178648628Y-193000057D01*
X178505771Y-192928628D01*
X178434342Y-192857200D01*
X178362914Y-192714342D01*
X178362914Y-192571485D01*
X178434342Y-192428628D01*
X178505771Y-192357200D01*
X178648628Y-192285771D01*
X179005771Y-192285771D01*
X179220057Y-192357200D01*
X179862914Y-193785771D02*
X179862914Y-192785771D01*
X179862914Y-192285771D02*
X179791485Y-192357200D01*
X179862914Y-192428628D01*
X179934342Y-192357200D01*
X179862914Y-192285771D01*
X179862914Y-192428628D01*
X180434342Y-192785771D02*
X181220057Y-192785771D01*
X180434342Y-193785771D01*
X181220057Y-193785771D01*
X182362914Y-193714342D02*
X182220057Y-193785771D01*
X181934342Y-193785771D01*
X181791485Y-193714342D01*
X181720057Y-193571485D01*
X181720057Y-193000057D01*
X181791485Y-192857200D01*
X181934342Y-192785771D01*
X182220057Y-192785771D01*
X182362914Y-192857200D01*
X182434342Y-193000057D01*
X182434342Y-193142914D01*
X181720057Y-193285771D01*
X183077200Y-193642914D02*
X183148628Y-193714342D01*
X183077200Y-193785771D01*
X183005771Y-193714342D01*
X183077200Y-193642914D01*
X183077200Y-193785771D01*
X183077200Y-192857200D02*
X183148628Y-192928628D01*
X183077200Y-193000057D01*
X183005771Y-192928628D01*
X183077200Y-192857200D01*
X183077200Y-193000057D01*
X184862914Y-193357200D02*
X185577200Y-193357200D01*
X184720057Y-193785771D02*
X185220057Y-192285771D01*
X185720057Y-193785771D01*
X186862914Y-192785771D02*
X186862914Y-193785771D01*
X186505771Y-192214342D02*
X186148628Y-193285771D01*
X187077200Y-193285771D01*
D10*
D11*
X263434342Y-196585771D02*
X263434342Y-195085771D01*
X264791485Y-196585771D02*
X264791485Y-195085771D01*
X264791485Y-196514342D02*
X264648628Y-196585771D01*
X264362914Y-196585771D01*
X264220057Y-196514342D01*
X264148628Y-196442914D01*
X264077200Y-196300057D01*
X264077200Y-195871485D01*
X264148628Y-195728628D01*
X264220057Y-195657200D01*
X264362914Y-195585771D01*
X264648628Y-195585771D01*
X264791485Y-195657200D01*
X265505771Y-196442914D02*
X265577200Y-196514342D01*
X265505771Y-196585771D01*
X265434342Y-196514342D01*
X265505771Y-196442914D01*
X265505771Y-196585771D01*
X265505771Y-195657200D02*
X265577200Y-195728628D01*
X265505771Y-195800057D01*
X265434342Y-195728628D01*
X265505771Y-195657200D01*
X265505771Y-195800057D01*
X268148628Y-196585771D02*
X267291485Y-196585771D01*
X267720057Y-196585771D02*
X267720057Y-195085771D01*
X267577200Y-195300057D01*
X267434342Y-195442914D01*
X267291485Y-195514342D01*
X269862914Y-195014342D02*
X268577200Y-196942914D01*
X271148628Y-196585771D02*
X270291485Y-196585771D01*
X270720057Y-196585771D02*
X270720057Y-195085771D01*
X270577200Y-195300057D01*
X270434342Y-195442914D01*
X270291485Y-195514342D01*
D10*
D11*
X177002200Y-187507200D02*
X285002200Y-187507200D01*
D10*
D13*
X178714580Y-188211961D02*
X179857438Y-188211961D01*
X179036009Y-190211961D02*
X179286009Y-188211961D01*
X180274104Y-190211961D02*
X180440771Y-188878628D01*
X180524104Y-188211961D02*
X180416961Y-188307200D01*
X180500295Y-188402438D01*
X180607438Y-188307200D01*
X180524104Y-188211961D01*
X180500295Y-188402438D01*
X181107438Y-188878628D02*
X181869342Y-188878628D01*
X181476485Y-188211961D02*
X181262200Y-189926247D01*
X181333628Y-190116723D01*
X181512200Y-190211961D01*
X181702676Y-190211961D01*
X182655057Y-190211961D02*
X182476485Y-190116723D01*
X182405057Y-189926247D01*
X182619342Y-188211961D01*
X184190771Y-190116723D02*
X183988390Y-190211961D01*
X183607438Y-190211961D01*
X183428866Y-190116723D01*
X183357438Y-189926247D01*
X183452676Y-189164342D01*
X183571723Y-188973866D01*
X183774104Y-188878628D01*
X184155057Y-188878628D01*
X184333628Y-188973866D01*
X184405057Y-189164342D01*
X184381247Y-189354819D01*
X183405057Y-189545295D01*
X185155057Y-190021485D02*
X185238390Y-190116723D01*
X185131247Y-190211961D01*
X185047914Y-190116723D01*
X185155057Y-190021485D01*
X185131247Y-190211961D01*
X185286009Y-188973866D02*
X185369342Y-189069104D01*
X185262200Y-189164342D01*
X185178866Y-189069104D01*
X185286009Y-188973866D01*
X185262200Y-189164342D01*
D10*
D11*
X178934342Y-185600057D02*
X178434342Y-185600057D01*
X178434342Y-186385771D02*
X178434342Y-184885771D01*
X179148628Y-184885771D01*
X179720057Y-186385771D02*
X179720057Y-185385771D01*
X179720057Y-184885771D02*
X179648628Y-184957200D01*
X179720057Y-185028628D01*
X179791485Y-184957200D01*
X179720057Y-184885771D01*
X179720057Y-185028628D01*
X180648628Y-186385771D02*
X180505771Y-186314342D01*
X180434342Y-186171485D01*
X180434342Y-184885771D01*
X181791485Y-186314342D02*
X181648628Y-186385771D01*
X181362914Y-186385771D01*
X181220057Y-186314342D01*
X181148628Y-186171485D01*
X181148628Y-185600057D01*
X181220057Y-185457200D01*
X181362914Y-185385771D01*
X181648628Y-185385771D01*
X181791485Y-185457200D01*
X181862914Y-185600057D01*
X181862914Y-185742914D01*
X181148628Y-185885771D01*
X182505771Y-186242914D02*
X182577200Y-186314342D01*
X182505771Y-186385771D01*
X182434342Y-186314342D01*
X182505771Y-186242914D01*
X182505771Y-186385771D01*
X182505771Y-185457200D02*
X182577200Y-185528628D01*
X182505771Y-185600057D01*
X182434342Y-185528628D01*
X182505771Y-185457200D01*
X182505771Y-185600057D01*
X184934342Y-186314342D02*
X184791485Y-186385771D01*
X184505771Y-186385771D01*
X184362914Y-186314342D01*
X184291485Y-186171485D01*
X184291485Y-185600057D01*
X184362914Y-185457200D01*
X184505771Y-185385771D01*
X184791485Y-185385771D01*
X184934342Y-185457200D01*
X185005771Y-185600057D01*
X185005771Y-185742914D01*
X184291485Y-185885771D01*
X185577200Y-186314342D02*
X185720057Y-186385771D01*
X186005771Y-186385771D01*
X186148628Y-186314342D01*
X186220057Y-186171485D01*
X186220057Y-186100057D01*
X186148628Y-185957200D01*
X186005771Y-185885771D01*
X185791485Y-185885771D01*
X185648628Y-185814342D01*
X185577200Y-185671485D01*
X185577200Y-185600057D01*
X185648628Y-185457200D01*
X185791485Y-185385771D01*
X186005771Y-185385771D01*
X186148628Y-185457200D01*
X186862914Y-185385771D02*
X186862914Y-186885771D01*
X186862914Y-185457200D02*
X187005771Y-185385771D01*
X187291485Y-185385771D01*
X187434342Y-185457200D01*
X187505771Y-185528628D01*
X187577200Y-185671485D01*
X187577200Y-186100057D01*
X187505771Y-186242914D01*
X187434342Y-186314342D01*
X187291485Y-186385771D01*
X187005771Y-186385771D01*
X186862914Y-186314342D01*
X188077200Y-184885771D02*
X189005771Y-184885771D01*
X188505771Y-185457200D01*
X188720057Y-185457200D01*
X188862914Y-185528628D01*
X188934342Y-185600057D01*
X189005771Y-185742914D01*
X189005771Y-186100057D01*
X188934342Y-186242914D01*
X188862914Y-186314342D01*
X188720057Y-186385771D01*
X188291485Y-186385771D01*
X188148628Y-186314342D01*
X188077200Y-186242914D01*
X189577200Y-185028628D02*
X189648628Y-184957200D01*
X189791485Y-184885771D01*
X190148628Y-184885771D01*
X190291485Y-184957200D01*
X190362914Y-185028628D01*
X190434342Y-185171485D01*
X190434342Y-185314342D01*
X190362914Y-185528628D01*
X189505771Y-186385771D01*
X190434342Y-186385771D01*
X191720057Y-186314342D02*
X191577200Y-186385771D01*
X191291485Y-186385771D01*
X191148628Y-186314342D01*
X191077200Y-186242914D01*
X191005771Y-186100057D01*
X191005771Y-185671485D01*
X191077200Y-185528628D01*
X191148628Y-185457200D01*
X191291485Y-185385771D01*
X191577200Y-185385771D01*
X191720057Y-185457200D01*
X192577200Y-186385771D02*
X192434342Y-186314342D01*
X192362914Y-186242914D01*
X192291485Y-186100057D01*
X192291485Y-185671485D01*
X192362914Y-185528628D01*
X192434342Y-185457200D01*
X192577200Y-185385771D01*
X192791485Y-185385771D01*
X192934342Y-185457200D01*
X193005771Y-185528628D01*
X193077200Y-185671485D01*
X193077200Y-186100057D01*
X193005771Y-186242914D01*
X192934342Y-186314342D01*
X192791485Y-186385771D01*
X192577200Y-186385771D01*
X193720057Y-185385771D02*
X193720057Y-186385771D01*
X193720057Y-185528628D02*
X193791485Y-185457200D01*
X193934342Y-185385771D01*
X194148628Y-185385771D01*
X194291485Y-185457200D01*
X194362914Y-185600057D01*
X194362914Y-186385771D01*
X194862914Y-185385771D02*
X195434342Y-185385771D01*
X195077200Y-184885771D02*
X195077200Y-186171485D01*
X195148628Y-186314342D01*
X195291485Y-186385771D01*
X195434342Y-186385771D01*
X195934342Y-186385771D02*
X195934342Y-185385771D01*
X195934342Y-185671485D02*
X196005771Y-185528628D01*
X196077200Y-185457200D01*
X196220057Y-185385771D01*
X196362914Y-185385771D01*
X197077200Y-186385771D02*
X196934342Y-186314342D01*
X196862914Y-186242914D01*
X196791485Y-186100057D01*
X196791485Y-185671485D01*
X196862914Y-185528628D01*
X196934342Y-185457200D01*
X197077200Y-185385771D01*
X197291485Y-185385771D01*
X197434342Y-185457200D01*
X197505771Y-185528628D01*
X197577200Y-185671485D01*
X197577200Y-186100057D01*
X197505771Y-186242914D01*
X197434342Y-186314342D01*
X197291485Y-186385771D01*
X197077200Y-186385771D01*
X198434342Y-186385771D02*
X198291485Y-186314342D01*
X198220057Y-186171485D01*
X198220057Y-184885771D01*
X199005771Y-186242914D02*
X199077200Y-186314342D01*
X199005771Y-186385771D01*
X198934342Y-186314342D01*
X199005771Y-186242914D01*
X199005771Y-186385771D01*
X199720057Y-186385771D02*
X199720057Y-184885771D01*
X199862914Y-185814342D02*
X200291485Y-186385771D01*
X200291485Y-185385771D02*
X199720057Y-185957200D01*
X200934342Y-186385771D02*
X200934342Y-185385771D01*
X200934342Y-184885771D02*
X200862914Y-184957200D01*
X200934342Y-185028628D01*
X201005771Y-184957200D01*
X200934342Y-184885771D01*
X200934342Y-185028628D01*
X202291485Y-186314342D02*
X202148628Y-186385771D01*
X201862914Y-186385771D01*
X201720057Y-186314342D01*
X201648628Y-186242914D01*
X201577200Y-186100057D01*
X201577200Y-185671485D01*
X201648628Y-185528628D01*
X201720057Y-185457200D01*
X201862914Y-185385771D01*
X202148628Y-185385771D01*
X202291485Y-185457200D01*
X203577200Y-186385771D02*
X203577200Y-185600057D01*
X203505771Y-185457200D01*
X203362914Y-185385771D01*
X203077200Y-185385771D01*
X202934342Y-185457200D01*
X203577200Y-186314342D02*
X203434342Y-186385771D01*
X203077200Y-186385771D01*
X202934342Y-186314342D01*
X202862914Y-186171485D01*
X202862914Y-186028628D01*
X202934342Y-185885771D01*
X203077200Y-185814342D01*
X203434342Y-185814342D01*
X203577200Y-185742914D01*
X204934342Y-186385771D02*
X204934342Y-184885771D01*
X204934342Y-186314342D02*
X204791485Y-186385771D01*
X204505771Y-186385771D01*
X204362914Y-186314342D01*
X204291485Y-186242914D01*
X204220057Y-186100057D01*
X204220057Y-185671485D01*
X204291485Y-185528628D01*
X204362914Y-185457200D01*
X204505771Y-185385771D01*
X204791485Y-185385771D01*
X204934342Y-185457200D01*
X205291485Y-186528628D02*
X206434342Y-186528628D01*
X206791485Y-185385771D02*
X206791485Y-186885771D01*
X206791485Y-185457200D02*
X206934342Y-185385771D01*
X207220057Y-185385771D01*
X207362914Y-185457200D01*
X207434342Y-185528628D01*
X207505771Y-185671485D01*
X207505771Y-186100057D01*
X207434342Y-186242914D01*
X207362914Y-186314342D01*
X207220057Y-186385771D01*
X206934342Y-186385771D01*
X206791485Y-186314342D01*
X208791485Y-186314342D02*
X208648628Y-186385771D01*
X208362914Y-186385771D01*
X208220057Y-186314342D01*
X208148628Y-186242914D01*
X208077200Y-186100057D01*
X208077200Y-185671485D01*
X208148628Y-185528628D01*
X208220057Y-185457200D01*
X208362914Y-185385771D01*
X208648628Y-185385771D01*
X208791485Y-185457200D01*
X209434342Y-186385771D02*
X209434342Y-184885771D01*
X209434342Y-185457200D02*
X209577200Y-185385771D01*
X209862914Y-185385771D01*
X210005771Y-185457200D01*
X210077200Y-185528628D01*
X210148628Y-185671485D01*
X210148628Y-186100057D01*
X210077200Y-186242914D01*
X210005771Y-186314342D01*
X209862914Y-186385771D01*
X209577200Y-186385771D01*
X209434342Y-186314342D01*
D10*
D11*
X177002200Y-181507200D02*
X285002200Y-181507200D01*
D10*
D11*
X178362914Y-183614342D02*
X178577200Y-183685771D01*
X178934342Y-183685771D01*
X179077200Y-183614342D01*
X179148628Y-183542914D01*
X179220057Y-183400057D01*
X179220057Y-183257200D01*
X179148628Y-183114342D01*
X179077200Y-183042914D01*
X178934342Y-182971485D01*
X178648628Y-182900057D01*
X178505771Y-182828628D01*
X178434342Y-182757200D01*
X178362914Y-182614342D01*
X178362914Y-182471485D01*
X178434342Y-182328628D01*
X178505771Y-182257200D01*
X178648628Y-182185771D01*
X179005771Y-182185771D01*
X179220057Y-182257200D01*
X179862914Y-183685771D02*
X179862914Y-182185771D01*
X180505771Y-183685771D02*
X180505771Y-182900057D01*
X180434342Y-182757200D01*
X180291485Y-182685771D01*
X180077200Y-182685771D01*
X179934342Y-182757200D01*
X179862914Y-182828628D01*
X181791485Y-183614342D02*
X181648628Y-183685771D01*
X181362914Y-183685771D01*
X181220057Y-183614342D01*
X181148628Y-183471485D01*
X181148628Y-182900057D01*
X181220057Y-182757200D01*
X181362914Y-182685771D01*
X181648628Y-182685771D01*
X181791485Y-182757200D01*
X181862914Y-182900057D01*
X181862914Y-183042914D01*
X181148628Y-183185771D01*
X183077200Y-183614342D02*
X182934342Y-183685771D01*
X182648628Y-183685771D01*
X182505771Y-183614342D01*
X182434342Y-183471485D01*
X182434342Y-182900057D01*
X182505771Y-182757200D01*
X182648628Y-182685771D01*
X182934342Y-182685771D01*
X183077200Y-182757200D01*
X183148628Y-182900057D01*
X183148628Y-183042914D01*
X182434342Y-183185771D01*
X183577200Y-182685771D02*
X184148628Y-182685771D01*
X183791485Y-182185771D02*
X183791485Y-183471485D01*
X183862914Y-183614342D01*
X184005771Y-183685771D01*
X184148628Y-183685771D01*
X184648628Y-183542914D02*
X184720057Y-183614342D01*
X184648628Y-183685771D01*
X184577200Y-183614342D01*
X184648628Y-183542914D01*
X184648628Y-183685771D01*
X184648628Y-182757200D02*
X184720057Y-182828628D01*
X184648628Y-182900057D01*
X184577200Y-182828628D01*
X184648628Y-182757200D01*
X184648628Y-182900057D01*
D10*
D11*
X197002200Y-191507200D02*
X197002200Y-194507200D01*
D10*
D11*
X261002200Y-191507200D02*
X261002200Y-198007200D01*
D14*
X114518500Y-90548500D03*
X111978500Y-90548500D03*
X114518500Y-88008500D03*
X111978500Y-88008500D03*
X114518500Y-85468500D03*
X111978500Y-85468500D03*
X114518500Y-82928500D03*
X111978500Y-82928500D03*
X114518500Y-80388500D03*
X111978500Y-80388500D03*
X114518500Y-77848500D03*
X111978500Y-77848500D03*
X114518500Y-75308500D03*
X111978500Y-75308500D03*
X114518500Y-72768500D03*
X111978500Y-72768500D03*
X114518500Y-70228500D03*
X111978500Y-70228500D03*
X114518500Y-67688500D03*
D15*
X111978500Y-67688500D03*
D16*
X58328500Y-96644500D03*
D17*
X54828500Y-96644500D03*
D16*
X60536000Y-72324000D03*
D17*
X64036000Y-72324000D03*
D18*
X110508500Y-54168500D03*
X60108500Y-104068500D03*
D19*
X113248500Y-41368500D03*
X108168500Y-41368500D03*
X103088500Y-41368500D03*
X98008500Y-41368500D03*
X92928500Y-41368500D03*
X87848500Y-41368500D03*
X82768500Y-41368500D03*
X77688500Y-41368500D03*
X72608500Y-41368500D03*
X67528500Y-41368500D03*
X62448500Y-41368500D03*
X57368500Y-41368500D03*
X113248500Y-116868500D03*
X108168500Y-116868500D03*
X103088500Y-116868500D03*
X98008500Y-116868500D03*
X92928500Y-116868500D03*
X87848500Y-116868500D03*
X82768500Y-116868500D03*
X77688500Y-116868500D03*
X72608500Y-116868500D03*
X67528500Y-116868500D03*
X62448500Y-116868500D03*
X57368500Y-116868500D03*
D20*
X86498500Y-71374500D03*
X86498500Y-82274500D03*
X94198500Y-72274500D03*
X107152500Y-95374500D03*
X98516500Y-95120500D03*
X78704500Y-95120500D03*
X88356500Y-95120500D03*
X70322500Y-106094000D03*
X67560000Y-110868500D03*
X94178000Y-86738500D03*
X94198500Y-69974500D03*
X66056000Y-65097000D03*
X70803000Y-57556000D03*
X75910500Y-57274500D03*
X81752500Y-57274500D03*
X86518500Y-57274500D03*
X74132500Y-94866492D03*
X67794500Y-90282500D03*
X112994500Y-47368500D03*
X100802500Y-58067992D03*
X56416000Y-86992500D03*
X74386504Y-70355500D03*
X115534500Y-110614500D03*
X117820500Y-110614500D03*
X117820500Y-107058500D03*
X117820500Y-99692500D03*
X118074500Y-56004500D03*
X118074500Y-47622500D03*
X52796500Y-66418500D03*
X52542500Y-57782500D03*
X53050500Y-101978500D03*
X53050500Y-89278500D03*
X78450500Y-80642500D03*
X78958500Y-70482500D03*
X81498500Y-62608500D03*
X101202499Y-52702500D03*
X106390500Y-47368500D03*
X78450500Y-77340500D03*
X63464500Y-57782500D03*
X75148500Y-65656500D03*
X67782500Y-57782500D03*
X74640500Y-86484500D03*
X76672500Y-83182500D03*
X70322500Y-102994500D03*
X74640500Y-88516500D03*
X73624500Y-64132500D03*
X89880500Y-64132500D03*
X78704500Y-64132500D03*
X72416490Y-65910516D03*
X84306628Y-64048480D03*
X63464500Y-62354500D03*
X91658500Y-71944500D03*
X92928500Y-77340500D03*
X92928500Y-79564510D03*
X105156000Y-83820000D03*
X105216323Y-81104500D03*
X105156000Y-79304478D03*
X57368500Y-49654500D03*
X54066500Y-67688500D03*
X80208000Y-87733002D03*
X88392000Y-90994500D03*
X95187500Y-90994500D03*
X96520000Y-90294500D03*
X95758000Y-89600010D03*
X101092000Y-84074000D03*
X101092000Y-81280000D03*
X99330000Y-51889000D03*
X69306504Y-68450500D03*
X102326500Y-49146500D03*
X97500500Y-49146500D03*
X96586064Y-59447157D03*
X96800000Y-56100000D03*
X105882500Y-63878500D03*
X99532500Y-64894500D03*
X107950000Y-81534000D03*
X79987517Y-74787481D03*
X81228668Y-76594332D03*
X84038500Y-69596000D03*
X90056789Y-71229124D03*
X102491127Y-74408503D03*
X82419000Y-110614500D03*
X92452000Y-110614500D03*
X102612000Y-110614500D03*
X112264000Y-110614500D03*
X116840000Y-70104000D03*
X109728000Y-77724000D03*
X108895940Y-77169294D03*
D21*
X89880500Y-95120500D02*
X94198500Y-95120500D01*
X94198500Y-95120500D02*
X100040500Y-95120500D01*
X82260500Y-95120500D02*
X80228500Y-95120500D01*
X82260500Y-95120500D02*
X89880500Y-95120500D01*
X94178000Y-95100000D02*
X94178000Y-87304185D01*
X94178000Y-87304185D02*
X94178000Y-86738500D01*
X94198500Y-95120500D02*
X94178000Y-95100000D01*
X94198500Y-75562500D02*
X94198500Y-72514500D01*
X80228500Y-95120500D02*
X74386508Y-95120500D01*
X70322500Y-106094000D02*
X74132500Y-102284000D01*
X74132500Y-102284000D02*
X74132500Y-95432177D01*
X74132500Y-95432177D02*
X74132500Y-94866492D01*
X74386508Y-95120500D02*
X74132500Y-94866492D01*
X67528500Y-41368500D02*
X67528500Y-47368500D01*
X67528500Y-47368500D02*
X68798500Y-48638500D01*
X101202499Y-52556501D02*
X101202499Y-52702500D01*
X106390500Y-47368500D02*
X106390500Y-47368500D01*
X101202499Y-57667993D02*
X100802500Y-58067992D01*
X112994500Y-47368500D02*
X106390500Y-47368500D01*
D22*
X67834000Y-65097000D02*
X66056000Y-65097000D01*
X68798500Y-64132500D02*
X67834000Y-65097000D01*
X68826000Y-57556000D02*
X70803000Y-57556000D01*
X68798500Y-57528500D02*
X68826000Y-57556000D01*
X68798500Y-48638500D02*
X68798500Y-57528500D01*
X68798500Y-57583500D02*
X68826000Y-57556000D01*
X68798500Y-58290500D02*
X68798500Y-57583500D01*
X68798500Y-57782500D02*
X68798500Y-58290500D01*
X68798500Y-58290500D02*
X68798500Y-64132500D01*
D21*
X101202499Y-52702500D02*
X101202499Y-57667993D01*
X106390500Y-47368500D02*
X101202499Y-52556501D01*
X100294500Y-95374500D02*
X107152500Y-95374500D01*
X100040500Y-95120500D02*
X100294500Y-95374500D01*
D23*
X111978500Y-90548500D02*
X114518500Y-90548500D01*
X111978500Y-90548500D02*
X108751500Y-90548500D01*
X107152500Y-92147500D02*
X107152500Y-95374500D01*
X108751500Y-90548500D02*
X107152500Y-92147500D01*
D21*
X73624500Y-64132500D02*
X89880500Y-64132500D01*
X73624500Y-64132500D02*
X73624500Y-64702506D01*
X72816489Y-65510517D02*
X72416490Y-65910516D01*
X73624500Y-64702506D02*
X72816489Y-65510517D01*
D10*
X91658500Y-72510185D02*
X92674500Y-73526185D01*
X91658500Y-71944500D02*
X91658500Y-72510185D01*
X92674500Y-77086500D02*
X92928500Y-77340500D01*
X92674500Y-73526185D02*
X92674500Y-77086500D01*
X85754510Y-79564510D02*
X92362815Y-79564510D01*
X63464500Y-62354500D02*
X63464500Y-65910500D01*
X92362815Y-79564510D02*
X92928500Y-79564510D01*
X63464500Y-65910500D02*
X70576500Y-73022500D01*
X70576500Y-73022500D02*
X79212500Y-73022500D01*
X79212500Y-73022500D02*
X85754510Y-79564510D01*
X105156000Y-83820000D02*
X105156000Y-81164823D01*
X105156000Y-81164823D02*
X105216323Y-81104500D01*
X92928500Y-79564510D02*
X104895968Y-79564510D01*
X104895968Y-79564510D02*
X105156000Y-79304478D01*
D23*
X57368500Y-49654500D02*
X57368500Y-64386500D01*
X57368500Y-64386500D02*
X54066500Y-67688500D01*
D10*
X80208000Y-87733002D02*
X82653002Y-87733002D01*
X85914500Y-90994500D02*
X86360000Y-90994500D01*
X82653002Y-87733002D02*
X85914500Y-90994500D01*
X86360000Y-90994500D02*
X88392000Y-90994500D01*
X95057999Y-89196499D02*
X96878498Y-87376000D01*
X95057999Y-90299314D02*
X95057999Y-89196499D01*
X95187500Y-90428815D02*
X95057999Y-90299314D01*
X95187500Y-90994500D02*
X95187500Y-90428815D01*
X110071000Y-87376000D02*
X111978500Y-85468500D01*
X96878498Y-87376000D02*
X110071000Y-87376000D01*
X113668501Y-86318499D02*
X114518500Y-85468500D01*
X113368499Y-86618501D02*
X113668501Y-86318499D01*
X113368499Y-88320503D02*
X113368499Y-86618501D01*
X112530501Y-89158501D02*
X113368499Y-88320503D01*
X97843184Y-89158501D02*
X112530501Y-89158501D01*
X96707185Y-90294500D02*
X97843184Y-89158501D01*
X97349510Y-88008500D02*
X96157999Y-89200011D01*
X111978500Y-88008500D02*
X97349510Y-88008500D01*
X96157999Y-89200011D02*
X95758000Y-89600010D01*
X101092000Y-81280000D02*
X101092000Y-84074000D01*
D21*
X98532499Y-68212499D02*
X98770500Y-68450500D01*
X98532499Y-52686501D02*
X98532499Y-68212499D01*
X99330000Y-51889000D02*
X98532499Y-52686501D01*
X98770500Y-68450500D02*
X69306504Y-68450500D01*
X109566500Y-68450500D02*
X98770500Y-68450500D01*
X110328500Y-67688500D02*
X109566500Y-68450500D01*
X111978500Y-67688500D02*
X110328500Y-67688500D01*
D13*
X102326500Y-49146500D02*
X97500500Y-49146500D01*
D10*
X96600000Y-56900000D02*
X96586064Y-59447157D01*
X96800000Y-56665685D02*
X96600000Y-56900000D01*
X96800000Y-56100000D02*
X96800000Y-56665685D01*
X105882500Y-63878500D02*
X100802500Y-63878500D01*
X99786500Y-64894500D02*
X99532500Y-64894500D01*
X100802500Y-63878500D02*
X99786500Y-64894500D01*
X113668501Y-82078501D02*
X114518500Y-82928500D01*
X113128501Y-81538501D02*
X113668501Y-82078501D01*
X108520186Y-81538501D02*
X113128501Y-81538501D01*
X108515685Y-81534000D02*
X108520186Y-81538501D01*
X107950000Y-81534000D02*
X108515685Y-81534000D01*
X100590310Y-80179988D02*
X101593690Y-80179988D01*
X104714633Y-80004488D02*
X107447512Y-80004488D01*
X79987517Y-74787481D02*
X80387516Y-75187480D01*
X80811780Y-75187480D02*
X85866789Y-80242489D01*
X113128501Y-78998501D02*
X113668501Y-79538501D01*
X101593690Y-80179988D02*
X101678214Y-80264512D01*
X113668501Y-79538501D02*
X114518500Y-80388500D01*
X101678214Y-80264512D02*
X104454609Y-80264512D01*
X104454609Y-80264512D02*
X104714633Y-80004488D01*
X80387516Y-75187480D02*
X80811780Y-75187480D01*
X108453499Y-78998501D02*
X113128501Y-78998501D01*
X100505786Y-80264512D02*
X100590310Y-80179988D01*
X92570475Y-80242489D02*
X92592498Y-80264512D01*
X107447512Y-80004488D02*
X108453499Y-78998501D01*
X92592498Y-80264512D02*
X100505786Y-80264512D01*
X85866789Y-80242489D02*
X92570475Y-80242489D01*
X100671475Y-80664523D02*
X100755999Y-80579999D01*
X107696000Y-80388500D02*
X110776419Y-80388500D01*
X81228668Y-76594332D02*
X85298859Y-80664523D01*
X101428001Y-80579999D02*
X101512525Y-80664523D01*
X104620298Y-80664523D02*
X104880322Y-80404499D01*
X104880322Y-80404499D02*
X107680001Y-80404499D01*
X85298859Y-80664523D02*
X100671475Y-80664523D01*
X107680001Y-80404499D02*
X107696000Y-80388500D01*
X101512525Y-80664523D02*
X104620298Y-80664523D01*
X110776419Y-80388500D02*
X111978500Y-80388500D01*
X100755999Y-80579999D02*
X101428001Y-80579999D01*
X111381500Y-77848500D02*
X111978500Y-77848500D01*
X104394000Y-78486000D02*
X110744000Y-78486000D01*
X104015500Y-78864500D02*
X104394000Y-78486000D01*
X110744000Y-78486000D02*
X111381500Y-77848500D01*
X85620198Y-78864500D02*
X104015500Y-78864500D01*
X84038500Y-77282802D02*
X85620198Y-78864500D01*
X84038500Y-69596000D02*
X84038500Y-77282802D01*
X99311748Y-71229124D02*
X102091128Y-74008504D01*
X90056789Y-71229124D02*
X99311748Y-71229124D01*
X102091128Y-74008504D02*
X102491127Y-74408503D01*
D23*
X72608500Y-114768500D02*
X76762500Y-110614500D01*
X72608500Y-116868500D02*
X72608500Y-114768500D01*
X76762500Y-110614500D02*
X92420500Y-110614500D01*
X92420500Y-110614500D02*
X102580500Y-110614500D01*
X102580500Y-110614500D02*
X112232500Y-110614500D01*
D10*
X114643000Y-70104000D02*
X114518500Y-70228500D01*
X116840000Y-70104000D02*
X114643000Y-70104000D01*
X109728000Y-77724000D02*
X109728000Y-72390000D01*
X110739499Y-71378501D02*
X112771499Y-71378501D01*
X109728000Y-72390000D02*
X110739499Y-71378501D01*
X113668501Y-68538499D02*
X114518500Y-67688500D01*
X113128501Y-69078499D02*
X113668501Y-68538499D01*
X113128501Y-71021499D02*
X113128501Y-69078499D01*
X112771499Y-71378501D02*
X113128501Y-71021499D01*
X108895940Y-76603609D02*
X108895940Y-77169294D01*
X110776419Y-70228500D02*
X108895940Y-72108979D01*
X108895940Y-72108979D02*
X108895940Y-76603609D01*
X111978500Y-70228500D02*
X110776419Y-70228500D01*
D24*
G36*
X118663501Y-59873000D02*
G01*
X99259499Y-59873000D01*
X99259499Y-53840819D01*
X107181500Y-53840819D01*
X107181500Y-54496181D01*
X107309355Y-55138950D01*
X107560151Y-55744425D01*
X107924250Y-56289339D01*
X108387661Y-56752750D01*
X108932575Y-57116849D01*
X109538050Y-57367645D01*
X110180819Y-57495500D01*
X110836181Y-57495500D01*
X111478950Y-57367645D01*
X112084425Y-57116849D01*
X112629339Y-56752750D01*
X113092750Y-56289339D01*
X113456849Y-55744425D01*
X113707645Y-55138950D01*
X113835500Y-54496181D01*
X113835500Y-53840819D01*
X113707645Y-53198050D01*
X113456849Y-52592575D01*
X113092750Y-52047661D01*
X112629339Y-51584250D01*
X112084425Y-51220151D01*
X111478950Y-50969355D01*
X110836181Y-50841500D01*
X110180819Y-50841500D01*
X109538050Y-50969355D01*
X108932575Y-51220151D01*
X108387661Y-51584250D01*
X107924250Y-52047661D01*
X107560151Y-52592575D01*
X107309355Y-53198050D01*
X107181500Y-53840819D01*
X99259499Y-53840819D01*
X99259499Y-52987634D01*
X99869316Y-52377818D01*
X99894698Y-52352436D01*
X99914645Y-52322583D01*
X99937402Y-52294853D01*
X99954313Y-52263216D01*
X99974259Y-52233364D01*
X99987996Y-52200201D01*
X100004910Y-52168557D01*
X100015326Y-52134219D01*
X100029062Y-52101058D01*
X100036065Y-52065853D01*
X100046480Y-52031518D01*
X100049997Y-51995810D01*
X100057000Y-51960603D01*
X100057000Y-51924708D01*
X100060517Y-51889000D01*
X100057000Y-51853292D01*
X100057000Y-51817397D01*
X100049997Y-51782190D01*
X100046480Y-51746483D01*
X100036065Y-51712150D01*
X100029062Y-51676942D01*
X100015325Y-51643778D01*
X100004910Y-51609444D01*
X99987997Y-51577802D01*
X99974259Y-51544636D01*
X99954312Y-51514783D01*
X99937402Y-51483147D01*
X99914647Y-51455420D01*
X99894698Y-51425564D01*
X99869308Y-51400174D01*
X99846553Y-51372447D01*
X99818826Y-51349692D01*
X99793436Y-51324302D01*
X99763580Y-51304353D01*
X99735853Y-51281598D01*
X99704217Y-51264688D01*
X99674364Y-51244741D01*
X99641198Y-51231003D01*
X99609556Y-51214090D01*
X99575222Y-51203675D01*
X99542058Y-51189938D01*
X99506850Y-51182935D01*
X99472517Y-51172520D01*
X99436810Y-51169003D01*
X99401603Y-51162000D01*
X99365708Y-51162000D01*
X99330000Y-51158483D01*
X99294292Y-51162000D01*
X99258397Y-51162000D01*
X99223190Y-51169003D01*
X99187482Y-51172520D01*
X99153147Y-51182935D01*
X99117942Y-51189938D01*
X99084781Y-51203674D01*
X99050443Y-51214090D01*
X99018799Y-51231004D01*
X98985636Y-51244741D01*
X98955784Y-51264687D01*
X98924147Y-51281598D01*
X98896417Y-51304355D01*
X98866564Y-51324302D01*
X98841182Y-51349684D01*
X98043688Y-52147180D01*
X98015945Y-52169948D01*
X97925097Y-52280648D01*
X97857589Y-52406945D01*
X97816019Y-52543984D01*
X97801982Y-52686501D01*
X97805499Y-52722209D01*
X97805499Y-59873000D01*
X97175881Y-59873000D01*
X97230323Y-59791521D01*
X97285126Y-59659215D01*
X97313064Y-59518760D01*
X97313064Y-59375554D01*
X97285126Y-59235099D01*
X97230323Y-59102793D01*
X97150762Y-58983721D01*
X97049500Y-58882459D01*
X97016281Y-58860263D01*
X97026139Y-57058462D01*
X97100178Y-56971720D01*
X97103395Y-56969080D01*
X97127448Y-56939772D01*
X97138397Y-56926944D01*
X97140762Y-56923548D01*
X97156755Y-56904061D01*
X97164739Y-56889125D01*
X97174422Y-56875222D01*
X97184520Y-56852117D01*
X97196405Y-56829881D01*
X97201324Y-56813666D01*
X97208105Y-56798150D01*
X97213497Y-56773537D01*
X97220822Y-56749392D01*
X97222484Y-56732521D01*
X97226106Y-56715987D01*
X97226593Y-56690795D01*
X97226749Y-56689211D01*
X97263436Y-56664698D01*
X97364698Y-56563436D01*
X97444259Y-56444364D01*
X97499062Y-56312058D01*
X97527000Y-56171603D01*
X97527000Y-56028397D01*
X97499062Y-55887942D01*
X97444259Y-55755636D01*
X97364698Y-55636564D01*
X97263436Y-55535302D01*
X97144364Y-55455741D01*
X97012058Y-55400938D01*
X96871603Y-55373000D01*
X96728397Y-55373000D01*
X96587942Y-55400938D01*
X96455636Y-55455741D01*
X96336564Y-55535302D01*
X96235302Y-55636564D01*
X96155741Y-55755636D01*
X96100938Y-55887942D01*
X96073000Y-56028397D01*
X96073000Y-56171603D01*
X96100938Y-56312058D01*
X96155741Y-56444364D01*
X96235302Y-56563436D01*
X96284005Y-56612139D01*
X96273344Y-56624985D01*
X96261603Y-56638741D01*
X96259903Y-56641182D01*
X96244555Y-56659676D01*
X96235935Y-56675593D01*
X96225577Y-56690464D01*
X96215942Y-56712509D01*
X96204500Y-56733638D01*
X96199150Y-56750934D01*
X96191894Y-56767536D01*
X96186749Y-56791022D01*
X96179643Y-56813993D01*
X96177769Y-56832014D01*
X96173894Y-56849700D01*
X96173429Y-56873732D01*
X96173122Y-56876687D01*
X96173023Y-56894733D01*
X96172268Y-56933794D01*
X96172793Y-56936731D01*
X96162293Y-58855956D01*
X96122628Y-58882459D01*
X96021366Y-58983721D01*
X95941805Y-59102793D01*
X95887002Y-59235099D01*
X95859064Y-59375554D01*
X95859064Y-59518760D01*
X95887002Y-59659215D01*
X95941805Y-59791521D01*
X95996247Y-59873000D01*
X95000000Y-59873000D01*
X94975224Y-59875440D01*
X94951399Y-59882667D01*
X94929443Y-59894403D01*
X94910197Y-59910197D01*
X94894403Y-59929443D01*
X94882667Y-59951399D01*
X94875440Y-59975224D01*
X94873000Y-60000000D01*
X94873000Y-67723500D01*
X69234901Y-67723500D01*
X69199694Y-67730503D01*
X69163987Y-67734020D01*
X69129653Y-67744435D01*
X69094446Y-67751438D01*
X69061284Y-67765174D01*
X69026947Y-67775590D01*
X68995301Y-67792505D01*
X68962140Y-67806241D01*
X68932294Y-67826183D01*
X68900651Y-67843097D01*
X68872916Y-67865858D01*
X68843068Y-67885802D01*
X68817687Y-67911183D01*
X68789950Y-67933946D01*
X68767187Y-67961683D01*
X68741806Y-67987064D01*
X68721862Y-68016912D01*
X68699101Y-68044647D01*
X68682187Y-68076290D01*
X68662245Y-68106136D01*
X68648509Y-68139297D01*
X68631594Y-68170943D01*
X68621178Y-68205280D01*
X68607442Y-68238442D01*
X68600439Y-68273649D01*
X68590024Y-68307983D01*
X68586507Y-68343690D01*
X68579504Y-68378897D01*
X68579504Y-68414792D01*
X68575987Y-68450500D01*
X68579504Y-68486208D01*
X68579504Y-68522103D01*
X68586507Y-68557310D01*
X68590024Y-68593017D01*
X68600439Y-68627351D01*
X68607442Y-68662558D01*
X68621178Y-68695720D01*
X68631594Y-68730057D01*
X68648509Y-68761703D01*
X68662245Y-68794864D01*
X68682187Y-68824710D01*
X68699101Y-68856353D01*
X68721862Y-68884088D01*
X68741806Y-68913936D01*
X68767187Y-68939317D01*
X68789950Y-68967054D01*
X68817685Y-68989815D01*
X68843068Y-69015198D01*
X68872916Y-69035142D01*
X68900651Y-69057903D01*
X68932294Y-69074817D01*
X68962140Y-69094759D01*
X68995301Y-69108495D01*
X69026947Y-69125410D01*
X69061284Y-69135826D01*
X69094446Y-69149562D01*
X69129653Y-69156565D01*
X69163987Y-69166980D01*
X69199694Y-69170497D01*
X69234901Y-69177500D01*
X83443777Y-69177500D01*
X83394241Y-69251636D01*
X83339438Y-69383942D01*
X83311500Y-69524397D01*
X83311500Y-69667603D01*
X83339438Y-69808058D01*
X83394241Y-69940364D01*
X83473802Y-70059436D01*
X83575064Y-70160698D01*
X83611500Y-70185044D01*
X83611501Y-76817632D01*
X79529267Y-72735399D01*
X79515895Y-72719105D01*
X79450876Y-72665745D01*
X79376696Y-72626095D01*
X79296207Y-72601678D01*
X79233478Y-72595500D01*
X79233467Y-72595500D01*
X79212500Y-72593435D01*
X79191533Y-72595500D01*
X70753369Y-72595500D01*
X64068385Y-65910516D01*
X71685973Y-65910516D01*
X71689490Y-65946224D01*
X71689490Y-65982119D01*
X71696493Y-66017326D01*
X71700010Y-66053033D01*
X71710425Y-66087366D01*
X71717428Y-66122574D01*
X71731165Y-66155738D01*
X71741580Y-66190072D01*
X71758493Y-66221714D01*
X71772231Y-66254880D01*
X71792178Y-66284733D01*
X71809088Y-66316369D01*
X71831843Y-66344096D01*
X71851792Y-66373952D01*
X71877182Y-66399342D01*
X71899937Y-66427069D01*
X71927664Y-66449824D01*
X71953054Y-66475214D01*
X71982910Y-66495163D01*
X72010637Y-66517918D01*
X72042273Y-66534828D01*
X72072126Y-66554775D01*
X72105292Y-66568513D01*
X72136934Y-66585426D01*
X72171268Y-66595841D01*
X72204432Y-66609578D01*
X72239640Y-66616581D01*
X72273973Y-66626996D01*
X72309680Y-66630513D01*
X72344887Y-66637516D01*
X72380782Y-66637516D01*
X72416490Y-66641033D01*
X72452198Y-66637516D01*
X72488093Y-66637516D01*
X72523300Y-66630513D01*
X72559007Y-66626996D01*
X72593340Y-66616581D01*
X72628548Y-66609578D01*
X72661712Y-66595841D01*
X72696046Y-66585426D01*
X72727688Y-66568513D01*
X72760854Y-66554775D01*
X72790707Y-66534828D01*
X72822343Y-66517918D01*
X72850069Y-66495163D01*
X72879926Y-66475214D01*
X72981188Y-66373952D01*
X72981192Y-66373946D01*
X73355804Y-65999334D01*
X74113312Y-65241827D01*
X74141054Y-65219060D01*
X74231903Y-65108359D01*
X74299410Y-64982063D01*
X74336589Y-64859500D01*
X89952103Y-64859500D01*
X89987310Y-64852497D01*
X90023017Y-64848980D01*
X90057351Y-64838565D01*
X90092558Y-64831562D01*
X90125720Y-64817826D01*
X90160057Y-64807410D01*
X90191703Y-64790495D01*
X90224864Y-64776759D01*
X90254710Y-64756817D01*
X90286353Y-64739903D01*
X90314088Y-64717142D01*
X90343936Y-64697198D01*
X90369317Y-64671817D01*
X90397054Y-64649054D01*
X90419817Y-64621317D01*
X90445198Y-64595936D01*
X90465142Y-64566088D01*
X90487903Y-64538353D01*
X90504817Y-64506710D01*
X90524759Y-64476864D01*
X90538495Y-64443703D01*
X90555410Y-64412057D01*
X90565826Y-64377720D01*
X90579562Y-64344558D01*
X90586565Y-64309351D01*
X90596980Y-64275017D01*
X90600497Y-64239310D01*
X90607500Y-64204103D01*
X90607500Y-64168208D01*
X90611017Y-64132500D01*
X90607500Y-64096792D01*
X90607500Y-64060897D01*
X90600497Y-64025690D01*
X90596980Y-63989983D01*
X90586565Y-63955649D01*
X90579562Y-63920442D01*
X90565826Y-63887280D01*
X90555410Y-63852943D01*
X90538495Y-63821297D01*
X90524759Y-63788136D01*
X90504817Y-63758290D01*
X90487903Y-63726647D01*
X90465142Y-63698912D01*
X90445198Y-63669064D01*
X90419817Y-63643683D01*
X90397054Y-63615946D01*
X90369317Y-63593183D01*
X90343936Y-63567802D01*
X90314088Y-63547858D01*
X90286353Y-63525097D01*
X90254710Y-63508183D01*
X90224864Y-63488241D01*
X90191703Y-63474505D01*
X90160057Y-63457590D01*
X90125720Y-63447174D01*
X90092558Y-63433438D01*
X90057351Y-63426435D01*
X90023017Y-63416020D01*
X89987310Y-63412503D01*
X89952103Y-63405500D01*
X84652906Y-63405500D01*
X84650992Y-63404221D01*
X84518686Y-63349418D01*
X84378231Y-63321480D01*
X84235025Y-63321480D01*
X84094570Y-63349418D01*
X83962264Y-63404221D01*
X83960350Y-63405500D01*
X73660208Y-63405500D01*
X73624500Y-63401983D01*
X73588792Y-63405500D01*
X73552897Y-63405500D01*
X73517690Y-63412503D01*
X73481983Y-63416020D01*
X73447649Y-63426435D01*
X73412442Y-63433438D01*
X73379280Y-63447174D01*
X73344943Y-63457590D01*
X73313297Y-63474505D01*
X73280136Y-63488241D01*
X73250290Y-63508183D01*
X73218647Y-63525097D01*
X73190912Y-63547858D01*
X73161064Y-63567802D01*
X73135683Y-63593183D01*
X73107946Y-63615946D01*
X73085183Y-63643683D01*
X73059802Y-63669064D01*
X73039858Y-63698912D01*
X73017097Y-63726647D01*
X73000183Y-63758290D01*
X72980241Y-63788136D01*
X72966505Y-63821297D01*
X72949590Y-63852943D01*
X72939174Y-63887280D01*
X72925438Y-63920442D01*
X72918435Y-63955649D01*
X72908020Y-63989983D01*
X72904503Y-64025690D01*
X72897500Y-64060897D01*
X72897500Y-64096792D01*
X72893983Y-64132500D01*
X72897500Y-64168208D01*
X72897500Y-64401373D01*
X72327672Y-64971202D01*
X71953060Y-65345814D01*
X71953054Y-65345818D01*
X71851792Y-65447080D01*
X71831843Y-65476937D01*
X71809088Y-65504663D01*
X71792178Y-65536299D01*
X71772231Y-65566152D01*
X71758493Y-65599318D01*
X71741580Y-65630960D01*
X71731165Y-65665294D01*
X71717428Y-65698458D01*
X71710425Y-65733666D01*
X71700010Y-65767999D01*
X71696493Y-65803706D01*
X71689490Y-65838913D01*
X71689490Y-65874808D01*
X71685973Y-65910516D01*
X64068385Y-65910516D01*
X63891500Y-65733632D01*
X63891500Y-62943544D01*
X63927936Y-62919198D01*
X64029198Y-62817936D01*
X64108759Y-62698864D01*
X64163562Y-62566558D01*
X64191500Y-62426103D01*
X64191500Y-62282897D01*
X64163562Y-62142442D01*
X64108759Y-62010136D01*
X64029198Y-61891064D01*
X63927936Y-61789802D01*
X63808864Y-61710241D01*
X63676558Y-61655438D01*
X63536103Y-61627500D01*
X63392897Y-61627500D01*
X63252442Y-61655438D01*
X63120136Y-61710241D01*
X63001064Y-61789802D01*
X62899802Y-61891064D01*
X62820241Y-62010136D01*
X62765438Y-62142442D01*
X62737500Y-62282897D01*
X62737500Y-62426103D01*
X62765438Y-62566558D01*
X62820241Y-62698864D01*
X62899802Y-62817936D01*
X63001064Y-62919198D01*
X63037500Y-62943544D01*
X63037501Y-65889523D01*
X63035435Y-65910500D01*
X63037501Y-65931477D01*
X63037501Y-65931478D01*
X63043679Y-65994207D01*
X63053648Y-66027070D01*
X63068096Y-66074696D01*
X63107745Y-66148876D01*
X63147732Y-66197600D01*
X63147737Y-66197605D01*
X63161106Y-66213895D01*
X63177396Y-66227264D01*
X70259736Y-73309605D01*
X70273105Y-73325895D01*
X70289395Y-73339264D01*
X70289399Y-73339268D01*
X70338123Y-73379255D01*
X70371708Y-73397206D01*
X70412304Y-73418905D01*
X70492793Y-73443322D01*
X70555522Y-73449500D01*
X70555533Y-73449500D01*
X70576500Y-73451565D01*
X70597467Y-73449500D01*
X79035632Y-73449500D01*
X79704106Y-74117974D01*
X79643153Y-74143222D01*
X79524081Y-74222783D01*
X79422819Y-74324045D01*
X79343258Y-74443117D01*
X79288455Y-74575423D01*
X79260517Y-74715878D01*
X79260517Y-74859084D01*
X79288455Y-74999539D01*
X79343258Y-75131845D01*
X79422819Y-75250917D01*
X79524081Y-75352179D01*
X79643153Y-75431740D01*
X79775459Y-75486543D01*
X79915914Y-75514481D01*
X80059120Y-75514481D01*
X80102395Y-75505873D01*
X80149139Y-75544235D01*
X80188789Y-75565428D01*
X80223320Y-75583885D01*
X80303809Y-75608302D01*
X80366538Y-75614480D01*
X80366548Y-75614480D01*
X80387515Y-75616545D01*
X80408482Y-75614480D01*
X80634912Y-75614480D01*
X80945257Y-75924825D01*
X80884304Y-75950073D01*
X80765232Y-76029634D01*
X80663970Y-76130896D01*
X80584409Y-76249968D01*
X80529606Y-76382274D01*
X80501668Y-76522729D01*
X80501668Y-76665935D01*
X80529606Y-76806390D01*
X80584409Y-76938696D01*
X80663970Y-77057768D01*
X80765232Y-77159030D01*
X80884304Y-77238591D01*
X81016610Y-77293394D01*
X81157065Y-77321332D01*
X81300271Y-77321332D01*
X81343251Y-77312783D01*
X84982100Y-80951634D01*
X84995464Y-80967918D01*
X85011748Y-80981282D01*
X85011757Y-80981291D01*
X85060482Y-81021278D01*
X85098548Y-81041624D01*
X85134663Y-81060928D01*
X85215152Y-81085345D01*
X85277881Y-81091523D01*
X85277893Y-81091523D01*
X85298858Y-81093588D01*
X85319823Y-81091523D01*
X94873000Y-81091523D01*
X94873000Y-88777630D01*
X94770894Y-88879736D01*
X94754605Y-88893104D01*
X94741236Y-88909394D01*
X94741231Y-88909399D01*
X94701244Y-88958123D01*
X94681905Y-88994305D01*
X94661595Y-89032303D01*
X94638930Y-89107019D01*
X94637178Y-89112793D01*
X94628934Y-89196499D01*
X94631000Y-89217476D01*
X94630999Y-90278347D01*
X94628934Y-90299314D01*
X94630999Y-90320281D01*
X94630999Y-90320291D01*
X94637177Y-90383020D01*
X94661594Y-90463509D01*
X94661595Y-90463510D01*
X94671613Y-90482253D01*
X94622802Y-90531064D01*
X94543241Y-90650136D01*
X94488438Y-90782442D01*
X94460500Y-90922897D01*
X94460500Y-91066103D01*
X94488438Y-91206558D01*
X94543241Y-91338864D01*
X94622802Y-91457936D01*
X94724064Y-91559198D01*
X94843136Y-91638759D01*
X94873000Y-91651129D01*
X94873000Y-95000000D01*
X94875440Y-95024776D01*
X94882667Y-95048601D01*
X94894403Y-95070557D01*
X94910197Y-95089803D01*
X94929443Y-95105597D01*
X94951399Y-95117333D01*
X94975224Y-95124560D01*
X95000000Y-95127000D01*
X118663500Y-95127000D01*
X118663500Y-110873000D01*
X114127000Y-110873000D01*
X114127000Y-104000000D01*
X114124560Y-103975224D01*
X114117333Y-103951399D01*
X114105597Y-103929443D01*
X114089803Y-103910197D01*
X114070557Y-103894403D01*
X114048601Y-103882667D01*
X114024776Y-103875440D01*
X114000000Y-103873000D01*
X73000000Y-103873000D01*
X72975224Y-103875440D01*
X72951399Y-103882667D01*
X72929443Y-103894403D01*
X72910197Y-103910197D01*
X72894403Y-103929443D01*
X72882667Y-103951399D01*
X72875440Y-103975224D01*
X72873000Y-104000000D01*
X72873000Y-108932032D01*
X69961548Y-110873000D01*
X52127000Y-110873000D01*
X52127000Y-103740819D01*
X56781500Y-103740819D01*
X56781500Y-104396181D01*
X56909355Y-105038950D01*
X57160151Y-105644425D01*
X57524250Y-106189339D01*
X57987661Y-106652750D01*
X58532575Y-107016849D01*
X59138050Y-107267645D01*
X59780819Y-107395500D01*
X60436181Y-107395500D01*
X61078950Y-107267645D01*
X61684425Y-107016849D01*
X62229339Y-106652750D01*
X62692750Y-106189339D01*
X63056849Y-105644425D01*
X63307645Y-105038950D01*
X63435500Y-104396181D01*
X63435500Y-103740819D01*
X63307645Y-103098050D01*
X63056849Y-102492575D01*
X62692750Y-101947661D01*
X62229339Y-101484250D01*
X61684425Y-101120151D01*
X61078950Y-100869355D01*
X60436181Y-100741500D01*
X59780819Y-100741500D01*
X59138050Y-100869355D01*
X58532575Y-101120151D01*
X57987661Y-101484250D01*
X57524250Y-101947661D01*
X57160151Y-102492575D01*
X56909355Y-103098050D01*
X56781500Y-103740819D01*
X52127000Y-103740819D01*
X52127000Y-95844500D01*
X53699918Y-95844500D01*
X53699918Y-97444500D01*
X53706232Y-97508603D01*
X53724930Y-97570243D01*
X53755294Y-97627050D01*
X53796157Y-97676843D01*
X53845950Y-97717706D01*
X53902757Y-97748070D01*
X53964397Y-97766768D01*
X54028500Y-97773082D01*
X55628500Y-97773082D01*
X55692603Y-97766768D01*
X55754243Y-97748070D01*
X55811050Y-97717706D01*
X55860843Y-97676843D01*
X55893374Y-97637202D01*
X57515403Y-97637202D01*
X57586986Y-97881171D01*
X57842496Y-98002071D01*
X58116684Y-98070800D01*
X58399012Y-98084717D01*
X58678630Y-98043287D01*
X58944792Y-97948103D01*
X59070014Y-97881171D01*
X59141597Y-97637202D01*
X58328500Y-96824105D01*
X57515403Y-97637202D01*
X55893374Y-97637202D01*
X55901706Y-97627050D01*
X55932070Y-97570243D01*
X55950768Y-97508603D01*
X55957082Y-97444500D01*
X55957082Y-96715012D01*
X56888283Y-96715012D01*
X56929713Y-96994630D01*
X57024897Y-97260792D01*
X57091829Y-97386014D01*
X57335798Y-97457597D01*
X58148895Y-96644500D01*
X58508105Y-96644500D01*
X59321202Y-97457597D01*
X59565171Y-97386014D01*
X59686071Y-97130504D01*
X59754800Y-96856316D01*
X59768717Y-96573988D01*
X59727287Y-96294370D01*
X59632103Y-96028208D01*
X59565171Y-95902986D01*
X59321202Y-95831403D01*
X58508105Y-96644500D01*
X58148895Y-96644500D01*
X57335798Y-95831403D01*
X57091829Y-95902986D01*
X56970929Y-96158496D01*
X56902200Y-96432684D01*
X56888283Y-96715012D01*
X55957082Y-96715012D01*
X55957082Y-95844500D01*
X55950768Y-95780397D01*
X55932070Y-95718757D01*
X55901706Y-95661950D01*
X55893375Y-95651798D01*
X57515403Y-95651798D01*
X58328500Y-96464895D01*
X59141597Y-95651798D01*
X59070014Y-95407829D01*
X58814504Y-95286929D01*
X58540316Y-95218200D01*
X58257988Y-95204283D01*
X57978370Y-95245713D01*
X57712208Y-95340897D01*
X57586986Y-95407829D01*
X57515403Y-95651798D01*
X55893375Y-95651798D01*
X55860843Y-95612157D01*
X55811050Y-95571294D01*
X55754243Y-95540930D01*
X55692603Y-95522232D01*
X55628500Y-95515918D01*
X54028500Y-95515918D01*
X53964397Y-95522232D01*
X53902757Y-95540930D01*
X53845950Y-95571294D01*
X53796157Y-95612157D01*
X53755294Y-95661950D01*
X53724930Y-95718757D01*
X53706232Y-95780397D01*
X53699918Y-95844500D01*
X52127000Y-95844500D01*
X52127000Y-87661399D01*
X79481000Y-87661399D01*
X79481000Y-87804605D01*
X79508938Y-87945060D01*
X79563741Y-88077366D01*
X79643302Y-88196438D01*
X79744564Y-88297700D01*
X79863636Y-88377261D01*
X79995942Y-88432064D01*
X80136397Y-88460002D01*
X80279603Y-88460002D01*
X80420058Y-88432064D01*
X80552364Y-88377261D01*
X80671436Y-88297700D01*
X80772698Y-88196438D01*
X80797044Y-88160002D01*
X82476134Y-88160002D01*
X85597736Y-91281605D01*
X85611105Y-91297895D01*
X85627395Y-91311264D01*
X85627399Y-91311268D01*
X85676123Y-91351256D01*
X85733038Y-91381676D01*
X85750304Y-91390905D01*
X85830793Y-91415322D01*
X85893522Y-91421500D01*
X85893533Y-91421500D01*
X85914500Y-91423565D01*
X85935467Y-91421500D01*
X87802956Y-91421500D01*
X87827302Y-91457936D01*
X87928564Y-91559198D01*
X88047636Y-91638759D01*
X88179942Y-91693562D01*
X88320397Y-91721500D01*
X88463603Y-91721500D01*
X88604058Y-91693562D01*
X88736364Y-91638759D01*
X88855436Y-91559198D01*
X88956698Y-91457936D01*
X89036259Y-91338864D01*
X89091062Y-91206558D01*
X89119000Y-91066103D01*
X89119000Y-90922897D01*
X89091062Y-90782442D01*
X89036259Y-90650136D01*
X88956698Y-90531064D01*
X88855436Y-90429802D01*
X88736364Y-90350241D01*
X88604058Y-90295438D01*
X88463603Y-90267500D01*
X88320397Y-90267500D01*
X88179942Y-90295438D01*
X88047636Y-90350241D01*
X87928564Y-90429802D01*
X87827302Y-90531064D01*
X87802956Y-90567500D01*
X86091369Y-90567500D01*
X82969770Y-87445902D01*
X82956397Y-87429607D01*
X82891378Y-87376247D01*
X82817198Y-87336597D01*
X82736709Y-87312180D01*
X82673980Y-87306002D01*
X82673969Y-87306002D01*
X82653002Y-87303937D01*
X82632035Y-87306002D01*
X80797044Y-87306002D01*
X80772698Y-87269566D01*
X80671436Y-87168304D01*
X80552364Y-87088743D01*
X80420058Y-87033940D01*
X80279603Y-87006002D01*
X80136397Y-87006002D01*
X79995942Y-87033940D01*
X79863636Y-87088743D01*
X79744564Y-87168304D01*
X79643302Y-87269566D01*
X79563741Y-87388638D01*
X79508938Y-87520944D01*
X79481000Y-87661399D01*
X52127000Y-87661399D01*
X52127000Y-73316702D01*
X59722903Y-73316702D01*
X59794486Y-73560671D01*
X60049996Y-73681571D01*
X60324184Y-73750300D01*
X60606512Y-73764217D01*
X60886130Y-73722787D01*
X61152292Y-73627603D01*
X61277514Y-73560671D01*
X61349097Y-73316702D01*
X60536000Y-72503605D01*
X59722903Y-73316702D01*
X52127000Y-73316702D01*
X52127000Y-72394512D01*
X59095783Y-72394512D01*
X59137213Y-72674130D01*
X59232397Y-72940292D01*
X59299329Y-73065514D01*
X59543298Y-73137097D01*
X60356395Y-72324000D01*
X60715605Y-72324000D01*
X61528702Y-73137097D01*
X61772671Y-73065514D01*
X61893571Y-72810004D01*
X61962300Y-72535816D01*
X61976217Y-72253488D01*
X61934787Y-71973870D01*
X61839603Y-71707708D01*
X61772671Y-71582486D01*
X61573340Y-71524000D01*
X62907418Y-71524000D01*
X62907418Y-73124000D01*
X62913732Y-73188103D01*
X62932430Y-73249743D01*
X62962794Y-73306550D01*
X63003657Y-73356343D01*
X63053450Y-73397206D01*
X63110257Y-73427570D01*
X63171897Y-73446268D01*
X63236000Y-73452582D01*
X64836000Y-73452582D01*
X64900103Y-73446268D01*
X64961743Y-73427570D01*
X65018550Y-73397206D01*
X65068343Y-73356343D01*
X65109206Y-73306550D01*
X65139570Y-73249743D01*
X65158268Y-73188103D01*
X65164582Y-73124000D01*
X65164582Y-71524000D01*
X65158268Y-71459897D01*
X65139570Y-71398257D01*
X65109206Y-71341450D01*
X65068343Y-71291657D01*
X65018550Y-71250794D01*
X64961743Y-71220430D01*
X64900103Y-71201732D01*
X64836000Y-71195418D01*
X63236000Y-71195418D01*
X63171897Y-71201732D01*
X63110257Y-71220430D01*
X63053450Y-71250794D01*
X63003657Y-71291657D01*
X62962794Y-71341450D01*
X62932430Y-71398257D01*
X62913732Y-71459897D01*
X62907418Y-71524000D01*
X61573340Y-71524000D01*
X61528702Y-71510903D01*
X60715605Y-72324000D01*
X60356395Y-72324000D01*
X59543298Y-71510903D01*
X59299329Y-71582486D01*
X59178429Y-71837996D01*
X59109700Y-72112184D01*
X59095783Y-72394512D01*
X52127000Y-72394512D01*
X52127000Y-71331298D01*
X59722903Y-71331298D01*
X60536000Y-72144395D01*
X61349097Y-71331298D01*
X61277514Y-71087329D01*
X61022004Y-70966429D01*
X60747816Y-70897700D01*
X60465488Y-70883783D01*
X60185870Y-70925213D01*
X59919708Y-71020397D01*
X59794486Y-71087329D01*
X59722903Y-71331298D01*
X52127000Y-71331298D01*
X52127000Y-67688500D01*
X53235500Y-67688500D01*
X53251467Y-67850620D01*
X53298756Y-68006510D01*
X53375548Y-68150179D01*
X53478894Y-68276106D01*
X53604821Y-68379452D01*
X53748490Y-68456244D01*
X53904380Y-68503533D01*
X54066500Y-68519500D01*
X54228620Y-68503533D01*
X54384510Y-68456244D01*
X54528179Y-68379452D01*
X54622551Y-68302002D01*
X57924553Y-65000001D01*
X57956106Y-64974106D01*
X57982002Y-64942552D01*
X58059452Y-64848181D01*
X58136244Y-64704511D01*
X58136245Y-64704510D01*
X58183534Y-64548620D01*
X58195500Y-64427124D01*
X58195500Y-64427115D01*
X58199500Y-64386501D01*
X58195500Y-64345887D01*
X58195500Y-49613876D01*
X58183534Y-49492380D01*
X58136245Y-49336490D01*
X58059452Y-49192821D01*
X57962674Y-49074897D01*
X96773500Y-49074897D01*
X96773500Y-49218103D01*
X96801438Y-49358558D01*
X96856241Y-49490864D01*
X96935802Y-49609936D01*
X97037064Y-49711198D01*
X97156136Y-49790759D01*
X97288442Y-49845562D01*
X97428897Y-49873500D01*
X97572103Y-49873500D01*
X97712558Y-49845562D01*
X97844864Y-49790759D01*
X97963936Y-49711198D01*
X98001634Y-49673500D01*
X101825366Y-49673500D01*
X101863064Y-49711198D01*
X101982136Y-49790759D01*
X102114442Y-49845562D01*
X102254897Y-49873500D01*
X102398103Y-49873500D01*
X102538558Y-49845562D01*
X102670864Y-49790759D01*
X102789936Y-49711198D01*
X102891198Y-49609936D01*
X102970759Y-49490864D01*
X103025562Y-49358558D01*
X103053500Y-49218103D01*
X103053500Y-49074897D01*
X103025562Y-48934442D01*
X102970759Y-48802136D01*
X102891198Y-48683064D01*
X102789936Y-48581802D01*
X102670864Y-48502241D01*
X102538558Y-48447438D01*
X102398103Y-48419500D01*
X102254897Y-48419500D01*
X102114442Y-48447438D01*
X101982136Y-48502241D01*
X101863064Y-48581802D01*
X101825366Y-48619500D01*
X98001634Y-48619500D01*
X97963936Y-48581802D01*
X97844864Y-48502241D01*
X97712558Y-48447438D01*
X97572103Y-48419500D01*
X97428897Y-48419500D01*
X97288442Y-48447438D01*
X97156136Y-48502241D01*
X97037064Y-48581802D01*
X96935802Y-48683064D01*
X96856241Y-48802136D01*
X96801438Y-48934442D01*
X96773500Y-49074897D01*
X57962674Y-49074897D01*
X57956106Y-49066894D01*
X57830178Y-48963548D01*
X57686509Y-48886755D01*
X57530619Y-48839466D01*
X57368500Y-48823499D01*
X57206380Y-48839466D01*
X57050490Y-48886755D01*
X56906821Y-48963548D01*
X56780894Y-49066894D01*
X56677548Y-49192822D01*
X56600755Y-49336491D01*
X56553466Y-49492381D01*
X56541500Y-49613877D01*
X56541501Y-64043945D01*
X53452998Y-67132449D01*
X53375548Y-67226821D01*
X53298756Y-67370490D01*
X53251467Y-67526380D01*
X53235500Y-67688500D01*
X52127000Y-67688500D01*
X52127000Y-47127000D01*
X118663501Y-47127000D01*
X118663501Y-59873000D01*
G37*
X118663501Y-59873000D02*
X99259499Y-59873000D01*
X99259499Y-53840819D01*
X107181500Y-53840819D01*
X107181500Y-54496181D01*
X107309355Y-55138950D01*
X107560151Y-55744425D01*
X107924250Y-56289339D01*
X108387661Y-56752750D01*
X108932575Y-57116849D01*
X109538050Y-57367645D01*
X110180819Y-57495500D01*
X110836181Y-57495500D01*
X111478950Y-57367645D01*
X112084425Y-57116849D01*
X112629339Y-56752750D01*
X113092750Y-56289339D01*
X113456849Y-55744425D01*
X113707645Y-55138950D01*
X113835500Y-54496181D01*
X113835500Y-53840819D01*
X113707645Y-53198050D01*
X113456849Y-52592575D01*
X113092750Y-52047661D01*
X112629339Y-51584250D01*
X112084425Y-51220151D01*
X111478950Y-50969355D01*
X110836181Y-50841500D01*
X110180819Y-50841500D01*
X109538050Y-50969355D01*
X108932575Y-51220151D01*
X108387661Y-51584250D01*
X107924250Y-52047661D01*
X107560151Y-52592575D01*
X107309355Y-53198050D01*
X107181500Y-53840819D01*
X99259499Y-53840819D01*
X99259499Y-52987634D01*
X99869316Y-52377818D01*
X99894698Y-52352436D01*
X99914645Y-52322583D01*
X99937402Y-52294853D01*
X99954313Y-52263216D01*
X99974259Y-52233364D01*
X99987996Y-52200201D01*
X100004910Y-52168557D01*
X100015326Y-52134219D01*
X100029062Y-52101058D01*
X100036065Y-52065853D01*
X100046480Y-52031518D01*
X100049997Y-51995810D01*
X100057000Y-51960603D01*
X100057000Y-51924708D01*
X100060517Y-51889000D01*
X100057000Y-51853292D01*
X100057000Y-51817397D01*
X100049997Y-51782190D01*
X100046480Y-51746483D01*
X100036065Y-51712150D01*
X100029062Y-51676942D01*
X100015325Y-51643778D01*
X100004910Y-51609444D01*
X99987997Y-51577802D01*
X99974259Y-51544636D01*
X99954312Y-51514783D01*
X99937402Y-51483147D01*
X99914647Y-51455420D01*
X99894698Y-51425564D01*
X99869308Y-51400174D01*
X99846553Y-51372447D01*
X99818826Y-51349692D01*
X99793436Y-51324302D01*
X99763580Y-51304353D01*
X99735853Y-51281598D01*
X99704217Y-51264688D01*
X99674364Y-51244741D01*
X99641198Y-51231003D01*
X99609556Y-51214090D01*
X99575222Y-51203675D01*
X99542058Y-51189938D01*
X99506850Y-51182935D01*
X99472517Y-51172520D01*
X99436810Y-51169003D01*
X99401603Y-51162000D01*
X99365708Y-51162000D01*
X99330000Y-51158483D01*
X99294292Y-51162000D01*
X99258397Y-51162000D01*
X99223190Y-51169003D01*
X99187482Y-51172520D01*
X99153147Y-51182935D01*
X99117942Y-51189938D01*
X99084781Y-51203674D01*
X99050443Y-51214090D01*
X99018799Y-51231004D01*
X98985636Y-51244741D01*
X98955784Y-51264687D01*
X98924147Y-51281598D01*
X98896417Y-51304355D01*
X98866564Y-51324302D01*
X98841182Y-51349684D01*
X98043688Y-52147180D01*
X98015945Y-52169948D01*
X97925097Y-52280648D01*
X97857589Y-52406945D01*
X97816019Y-52543984D01*
X97801982Y-52686501D01*
X97805499Y-52722209D01*
X97805499Y-59873000D01*
X97175881Y-59873000D01*
X97230323Y-59791521D01*
X97285126Y-59659215D01*
X97313064Y-59518760D01*
X97313064Y-59375554D01*
X97285126Y-59235099D01*
X97230323Y-59102793D01*
X97150762Y-58983721D01*
X97049500Y-58882459D01*
X97016281Y-58860263D01*
X97026139Y-57058462D01*
X97100178Y-56971720D01*
X97103395Y-56969080D01*
X97127448Y-56939772D01*
X97138397Y-56926944D01*
X97140762Y-56923548D01*
X97156755Y-56904061D01*
X97164739Y-56889125D01*
X97174422Y-56875222D01*
X97184520Y-56852117D01*
X97196405Y-56829881D01*
X97201324Y-56813666D01*
X97208105Y-56798150D01*
X97213497Y-56773537D01*
X97220822Y-56749392D01*
X97222484Y-56732521D01*
X97226106Y-56715987D01*
X97226593Y-56690795D01*
X97226749Y-56689211D01*
X97263436Y-56664698D01*
X97364698Y-56563436D01*
X97444259Y-56444364D01*
X97499062Y-56312058D01*
X97527000Y-56171603D01*
X97527000Y-56028397D01*
X97499062Y-55887942D01*
X97444259Y-55755636D01*
X97364698Y-55636564D01*
X97263436Y-55535302D01*
X97144364Y-55455741D01*
X97012058Y-55400938D01*
X96871603Y-55373000D01*
X96728397Y-55373000D01*
X96587942Y-55400938D01*
X96455636Y-55455741D01*
X96336564Y-55535302D01*
X96235302Y-55636564D01*
X96155741Y-55755636D01*
X96100938Y-55887942D01*
X96073000Y-56028397D01*
X96073000Y-56171603D01*
X96100938Y-56312058D01*
X96155741Y-56444364D01*
X96235302Y-56563436D01*
X96284005Y-56612139D01*
X96273344Y-56624985D01*
X96261603Y-56638741D01*
X96259903Y-56641182D01*
X96244555Y-56659676D01*
X96235935Y-56675593D01*
X96225577Y-56690464D01*
X96215942Y-56712509D01*
X96204500Y-56733638D01*
X96199150Y-56750934D01*
X96191894Y-56767536D01*
X96186749Y-56791022D01*
X96179643Y-56813993D01*
X96177769Y-56832014D01*
X96173894Y-56849700D01*
X96173429Y-56873732D01*
X96173122Y-56876687D01*
X96173023Y-56894733D01*
X96172268Y-56933794D01*
X96172793Y-56936731D01*
X96162293Y-58855956D01*
X96122628Y-58882459D01*
X96021366Y-58983721D01*
X95941805Y-59102793D01*
X95887002Y-59235099D01*
X95859064Y-59375554D01*
X95859064Y-59518760D01*
X95887002Y-59659215D01*
X95941805Y-59791521D01*
X95996247Y-59873000D01*
X95000000Y-59873000D01*
X94975224Y-59875440D01*
X94951399Y-59882667D01*
X94929443Y-59894403D01*
X94910197Y-59910197D01*
X94894403Y-59929443D01*
X94882667Y-59951399D01*
X94875440Y-59975224D01*
X94873000Y-60000000D01*
X94873000Y-67723500D01*
X69234901Y-67723500D01*
X69199694Y-67730503D01*
X69163987Y-67734020D01*
X69129653Y-67744435D01*
X69094446Y-67751438D01*
X69061284Y-67765174D01*
X69026947Y-67775590D01*
X68995301Y-67792505D01*
X68962140Y-67806241D01*
X68932294Y-67826183D01*
X68900651Y-67843097D01*
X68872916Y-67865858D01*
X68843068Y-67885802D01*
X68817687Y-67911183D01*
X68789950Y-67933946D01*
X68767187Y-67961683D01*
X68741806Y-67987064D01*
X68721862Y-68016912D01*
X68699101Y-68044647D01*
X68682187Y-68076290D01*
X68662245Y-68106136D01*
X68648509Y-68139297D01*
X68631594Y-68170943D01*
X68621178Y-68205280D01*
X68607442Y-68238442D01*
X68600439Y-68273649D01*
X68590024Y-68307983D01*
X68586507Y-68343690D01*
X68579504Y-68378897D01*
X68579504Y-68414792D01*
X68575987Y-68450500D01*
X68579504Y-68486208D01*
X68579504Y-68522103D01*
X68586507Y-68557310D01*
X68590024Y-68593017D01*
X68600439Y-68627351D01*
X68607442Y-68662558D01*
X68621178Y-68695720D01*
X68631594Y-68730057D01*
X68648509Y-68761703D01*
X68662245Y-68794864D01*
X68682187Y-68824710D01*
X68699101Y-68856353D01*
X68721862Y-68884088D01*
X68741806Y-68913936D01*
X68767187Y-68939317D01*
X68789950Y-68967054D01*
X68817685Y-68989815D01*
X68843068Y-69015198D01*
X68872916Y-69035142D01*
X68900651Y-69057903D01*
X68932294Y-69074817D01*
X68962140Y-69094759D01*
X68995301Y-69108495D01*
X69026947Y-69125410D01*
X69061284Y-69135826D01*
X69094446Y-69149562D01*
X69129653Y-69156565D01*
X69163987Y-69166980D01*
X69199694Y-69170497D01*
X69234901Y-69177500D01*
X83443777Y-69177500D01*
X83394241Y-69251636D01*
X83339438Y-69383942D01*
X83311500Y-69524397D01*
X83311500Y-69667603D01*
X83339438Y-69808058D01*
X83394241Y-69940364D01*
X83473802Y-70059436D01*
X83575064Y-70160698D01*
X83611500Y-70185044D01*
X83611501Y-76817632D01*
X79529267Y-72735399D01*
X79515895Y-72719105D01*
X79450876Y-72665745D01*
X79376696Y-72626095D01*
X79296207Y-72601678D01*
X79233478Y-72595500D01*
X79233467Y-72595500D01*
X79212500Y-72593435D01*
X79191533Y-72595500D01*
X70753369Y-72595500D01*
X64068385Y-65910516D01*
X71685973Y-65910516D01*
X71689490Y-65946224D01*
X71689490Y-65982119D01*
X71696493Y-66017326D01*
X71700010Y-66053033D01*
X71710425Y-66087366D01*
X71717428Y-66122574D01*
X71731165Y-66155738D01*
X71741580Y-66190072D01*
X71758493Y-66221714D01*
X71772231Y-66254880D01*
X71792178Y-66284733D01*
X71809088Y-66316369D01*
X71831843Y-66344096D01*
X71851792Y-66373952D01*
X71877182Y-66399342D01*
X71899937Y-66427069D01*
X71927664Y-66449824D01*
X71953054Y-66475214D01*
X71982910Y-66495163D01*
X72010637Y-66517918D01*
X72042273Y-66534828D01*
X72072126Y-66554775D01*
X72105292Y-66568513D01*
X72136934Y-66585426D01*
X72171268Y-66595841D01*
X72204432Y-66609578D01*
X72239640Y-66616581D01*
X72273973Y-66626996D01*
X72309680Y-66630513D01*
X72344887Y-66637516D01*
X72380782Y-66637516D01*
X72416490Y-66641033D01*
X72452198Y-66637516D01*
X72488093Y-66637516D01*
X72523300Y-66630513D01*
X72559007Y-66626996D01*
X72593340Y-66616581D01*
X72628548Y-66609578D01*
X72661712Y-66595841D01*
X72696046Y-66585426D01*
X72727688Y-66568513D01*
X72760854Y-66554775D01*
X72790707Y-66534828D01*
X72822343Y-66517918D01*
X72850069Y-66495163D01*
X72879926Y-66475214D01*
X72981188Y-66373952D01*
X72981192Y-66373946D01*
X73355804Y-65999334D01*
X74113312Y-65241827D01*
X74141054Y-65219060D01*
X74231903Y-65108359D01*
X74299410Y-64982063D01*
X74336589Y-64859500D01*
X89952103Y-64859500D01*
X89987310Y-64852497D01*
X90023017Y-64848980D01*
X90057351Y-64838565D01*
X90092558Y-64831562D01*
X90125720Y-64817826D01*
X90160057Y-64807410D01*
X90191703Y-64790495D01*
X90224864Y-64776759D01*
X90254710Y-64756817D01*
X90286353Y-64739903D01*
X90314088Y-64717142D01*
X90343936Y-64697198D01*
X90369317Y-64671817D01*
X90397054Y-64649054D01*
X90419817Y-64621317D01*
X90445198Y-64595936D01*
X90465142Y-64566088D01*
X90487903Y-64538353D01*
X90504817Y-64506710D01*
X90524759Y-64476864D01*
X90538495Y-64443703D01*
X90555410Y-64412057D01*
X90565826Y-64377720D01*
X90579562Y-64344558D01*
X90586565Y-64309351D01*
X90596980Y-64275017D01*
X90600497Y-64239310D01*
X90607500Y-64204103D01*
X90607500Y-64168208D01*
X90611017Y-64132500D01*
X90607500Y-64096792D01*
X90607500Y-64060897D01*
X90600497Y-64025690D01*
X90596980Y-63989983D01*
X90586565Y-63955649D01*
X90579562Y-63920442D01*
X90565826Y-63887280D01*
X90555410Y-63852943D01*
X90538495Y-63821297D01*
X90524759Y-63788136D01*
X90504817Y-63758290D01*
X90487903Y-63726647D01*
X90465142Y-63698912D01*
X90445198Y-63669064D01*
X90419817Y-63643683D01*
X90397054Y-63615946D01*
X90369317Y-63593183D01*
X90343936Y-63567802D01*
X90314088Y-63547858D01*
X90286353Y-63525097D01*
X90254710Y-63508183D01*
X90224864Y-63488241D01*
X90191703Y-63474505D01*
X90160057Y-63457590D01*
X90125720Y-63447174D01*
X90092558Y-63433438D01*
X90057351Y-63426435D01*
X90023017Y-63416020D01*
X89987310Y-63412503D01*
X89952103Y-63405500D01*
X84652906Y-63405500D01*
X84650992Y-63404221D01*
X84518686Y-63349418D01*
X84378231Y-63321480D01*
X84235025Y-63321480D01*
X84094570Y-63349418D01*
X83962264Y-63404221D01*
X83960350Y-63405500D01*
X73660208Y-63405500D01*
X73624500Y-63401983D01*
X73588792Y-63405500D01*
X73552897Y-63405500D01*
X73517690Y-63412503D01*
X73481983Y-63416020D01*
X73447649Y-63426435D01*
X73412442Y-63433438D01*
X73379280Y-63447174D01*
X73344943Y-63457590D01*
X73313297Y-63474505D01*
X73280136Y-63488241D01*
X73250290Y-63508183D01*
X73218647Y-63525097D01*
X73190912Y-63547858D01*
X73161064Y-63567802D01*
X73135683Y-63593183D01*
X73107946Y-63615946D01*
X73085183Y-63643683D01*
X73059802Y-63669064D01*
X73039858Y-63698912D01*
X73017097Y-63726647D01*
X73000183Y-63758290D01*
X72980241Y-63788136D01*
X72966505Y-63821297D01*
X72949590Y-63852943D01*
X72939174Y-63887280D01*
X72925438Y-63920442D01*
X72918435Y-63955649D01*
X72908020Y-63989983D01*
X72904503Y-64025690D01*
X72897500Y-64060897D01*
X72897500Y-64096792D01*
X72893983Y-64132500D01*
X72897500Y-64168208D01*
X72897500Y-64401373D01*
X72327672Y-64971202D01*
X71953060Y-65345814D01*
X71953054Y-65345818D01*
X71851792Y-65447080D01*
X71831843Y-65476937D01*
X71809088Y-65504663D01*
X71792178Y-65536299D01*
X71772231Y-65566152D01*
X71758493Y-65599318D01*
X71741580Y-65630960D01*
X71731165Y-65665294D01*
X71717428Y-65698458D01*
X71710425Y-65733666D01*
X71700010Y-65767999D01*
X71696493Y-65803706D01*
X71689490Y-65838913D01*
X71689490Y-65874808D01*
X71685973Y-65910516D01*
X64068385Y-65910516D01*
X63891500Y-65733632D01*
X63891500Y-62943544D01*
X63927936Y-62919198D01*
X64029198Y-62817936D01*
X64108759Y-62698864D01*
X64163562Y-62566558D01*
X64191500Y-62426103D01*
X64191500Y-62282897D01*
X64163562Y-62142442D01*
X64108759Y-62010136D01*
X64029198Y-61891064D01*
X63927936Y-61789802D01*
X63808864Y-61710241D01*
X63676558Y-61655438D01*
X63536103Y-61627500D01*
X63392897Y-61627500D01*
X63252442Y-61655438D01*
X63120136Y-61710241D01*
X63001064Y-61789802D01*
X62899802Y-61891064D01*
X62820241Y-62010136D01*
X62765438Y-62142442D01*
X62737500Y-62282897D01*
X62737500Y-62426103D01*
X62765438Y-62566558D01*
X62820241Y-62698864D01*
X62899802Y-62817936D01*
X63001064Y-62919198D01*
X63037500Y-62943544D01*
X63037501Y-65889523D01*
X63035435Y-65910500D01*
X63037501Y-65931477D01*
X63037501Y-65931478D01*
X63043679Y-65994207D01*
X63053648Y-66027070D01*
X63068096Y-66074696D01*
X63107745Y-66148876D01*
X63147732Y-66197600D01*
X63147737Y-66197605D01*
X63161106Y-66213895D01*
X63177396Y-66227264D01*
X70259736Y-73309605D01*
X70273105Y-73325895D01*
X70289395Y-73339264D01*
X70289399Y-73339268D01*
X70338123Y-73379255D01*
X70371708Y-73397206D01*
X70412304Y-73418905D01*
X70492793Y-73443322D01*
X70555522Y-73449500D01*
X70555533Y-73449500D01*
X70576500Y-73451565D01*
X70597467Y-73449500D01*
X79035632Y-73449500D01*
X79704106Y-74117974D01*
X79643153Y-74143222D01*
X79524081Y-74222783D01*
X79422819Y-74324045D01*
X79343258Y-74443117D01*
X79288455Y-74575423D01*
X79260517Y-74715878D01*
X79260517Y-74859084D01*
X79288455Y-74999539D01*
X79343258Y-75131845D01*
X79422819Y-75250917D01*
X79524081Y-75352179D01*
X79643153Y-75431740D01*
X79775459Y-75486543D01*
X79915914Y-75514481D01*
X80059120Y-75514481D01*
X80102395Y-75505873D01*
X80149139Y-75544235D01*
X80188789Y-75565428D01*
X80223320Y-75583885D01*
X80303809Y-75608302D01*
X80366538Y-75614480D01*
X80366548Y-75614480D01*
X80387515Y-75616545D01*
X80408482Y-75614480D01*
X80634912Y-75614480D01*
X80945257Y-75924825D01*
X80884304Y-75950073D01*
X80765232Y-76029634D01*
X80663970Y-76130896D01*
X80584409Y-76249968D01*
X80529606Y-76382274D01*
X80501668Y-76522729D01*
X80501668Y-76665935D01*
X80529606Y-76806390D01*
X80584409Y-76938696D01*
X80663970Y-77057768D01*
X80765232Y-77159030D01*
X80884304Y-77238591D01*
X81016610Y-77293394D01*
X81157065Y-77321332D01*
X81300271Y-77321332D01*
X81343251Y-77312783D01*
X84982100Y-80951634D01*
X84995464Y-80967918D01*
X85011748Y-80981282D01*
X85011757Y-80981291D01*
X85060482Y-81021278D01*
X85098548Y-81041624D01*
X85134663Y-81060928D01*
X85215152Y-81085345D01*
X85277881Y-81091523D01*
X85277893Y-81091523D01*
X85298858Y-81093588D01*
X85319823Y-81091523D01*
X94873000Y-81091523D01*
X94873000Y-88777630D01*
X94770894Y-88879736D01*
X94754605Y-88893104D01*
X94741236Y-88909394D01*
X94741231Y-88909399D01*
X94701244Y-88958123D01*
X94681905Y-88994305D01*
X94661595Y-89032303D01*
X94638930Y-89107019D01*
X94637178Y-89112793D01*
X94628934Y-89196499D01*
X94631000Y-89217476D01*
X94630999Y-90278347D01*
X94628934Y-90299314D01*
X94630999Y-90320281D01*
X94630999Y-90320291D01*
X94637177Y-90383020D01*
X94661594Y-90463509D01*
X94661595Y-90463510D01*
X94671613Y-90482253D01*
X94622802Y-90531064D01*
X94543241Y-90650136D01*
X94488438Y-90782442D01*
X94460500Y-90922897D01*
X94460500Y-91066103D01*
X94488438Y-91206558D01*
X94543241Y-91338864D01*
X94622802Y-91457936D01*
X94724064Y-91559198D01*
X94843136Y-91638759D01*
X94873000Y-91651129D01*
X94873000Y-95000000D01*
X94875440Y-95024776D01*
X94882667Y-95048601D01*
X94894403Y-95070557D01*
X94910197Y-95089803D01*
X94929443Y-95105597D01*
X94951399Y-95117333D01*
X94975224Y-95124560D01*
X95000000Y-95127000D01*
X118663500Y-95127000D01*
X118663500Y-110873000D01*
X114127000Y-110873000D01*
X114127000Y-104000000D01*
X114124560Y-103975224D01*
X114117333Y-103951399D01*
X114105597Y-103929443D01*
X114089803Y-103910197D01*
X114070557Y-103894403D01*
X114048601Y-103882667D01*
X114024776Y-103875440D01*
X114000000Y-103873000D01*
X73000000Y-103873000D01*
X72975224Y-103875440D01*
X72951399Y-103882667D01*
X72929443Y-103894403D01*
X72910197Y-103910197D01*
X72894403Y-103929443D01*
X72882667Y-103951399D01*
X72875440Y-103975224D01*
X72873000Y-104000000D01*
X72873000Y-108932032D01*
X69961548Y-110873000D01*
X52127000Y-110873000D01*
X52127000Y-103740819D01*
X56781500Y-103740819D01*
X56781500Y-104396181D01*
X56909355Y-105038950D01*
X57160151Y-105644425D01*
X57524250Y-106189339D01*
X57987661Y-106652750D01*
X58532575Y-107016849D01*
X59138050Y-107267645D01*
X59780819Y-107395500D01*
X60436181Y-107395500D01*
X61078950Y-107267645D01*
X61684425Y-107016849D01*
X62229339Y-106652750D01*
X62692750Y-106189339D01*
X63056849Y-105644425D01*
X63307645Y-105038950D01*
X63435500Y-104396181D01*
X63435500Y-103740819D01*
X63307645Y-103098050D01*
X63056849Y-102492575D01*
X62692750Y-101947661D01*
X62229339Y-101484250D01*
X61684425Y-101120151D01*
X61078950Y-100869355D01*
X60436181Y-100741500D01*
X59780819Y-100741500D01*
X59138050Y-100869355D01*
X58532575Y-101120151D01*
X57987661Y-101484250D01*
X57524250Y-101947661D01*
X57160151Y-102492575D01*
X56909355Y-103098050D01*
X56781500Y-103740819D01*
X52127000Y-103740819D01*
X52127000Y-95844500D01*
X53699918Y-95844500D01*
X53699918Y-97444500D01*
X53706232Y-97508603D01*
X53724930Y-97570243D01*
X53755294Y-97627050D01*
X53796157Y-97676843D01*
X53845950Y-97717706D01*
X53902757Y-97748070D01*
X53964397Y-97766768D01*
X54028500Y-97773082D01*
X55628500Y-97773082D01*
X55692603Y-97766768D01*
X55754243Y-97748070D01*
X55811050Y-97717706D01*
X55860843Y-97676843D01*
X55893374Y-97637202D01*
X57515403Y-97637202D01*
X57586986Y-97881171D01*
X57842496Y-98002071D01*
X58116684Y-98070800D01*
X58399012Y-98084717D01*
X58678630Y-98043287D01*
X58944792Y-97948103D01*
X59070014Y-97881171D01*
X59141597Y-97637202D01*
X58328500Y-96824105D01*
X57515403Y-97637202D01*
X55893374Y-97637202D01*
X55901706Y-97627050D01*
X55932070Y-97570243D01*
X55950768Y-97508603D01*
X55957082Y-97444500D01*
X55957082Y-96715012D01*
X56888283Y-96715012D01*
X56929713Y-96994630D01*
X57024897Y-97260792D01*
X57091829Y-97386014D01*
X57335798Y-97457597D01*
X58148895Y-96644500D01*
X58508105Y-96644500D01*
X59321202Y-97457597D01*
X59565171Y-97386014D01*
X59686071Y-97130504D01*
X59754800Y-96856316D01*
X59768717Y-96573988D01*
X59727287Y-96294370D01*
X59632103Y-96028208D01*
X59565171Y-95902986D01*
X59321202Y-95831403D01*
X58508105Y-96644500D01*
X58148895Y-96644500D01*
X57335798Y-95831403D01*
X57091829Y-95902986D01*
X56970929Y-96158496D01*
X56902200Y-96432684D01*
X56888283Y-96715012D01*
X55957082Y-96715012D01*
X55957082Y-95844500D01*
X55950768Y-95780397D01*
X55932070Y-95718757D01*
X55901706Y-95661950D01*
X55893375Y-95651798D01*
X57515403Y-95651798D01*
X58328500Y-96464895D01*
X59141597Y-95651798D01*
X59070014Y-95407829D01*
X58814504Y-95286929D01*
X58540316Y-95218200D01*
X58257988Y-95204283D01*
X57978370Y-95245713D01*
X57712208Y-95340897D01*
X57586986Y-95407829D01*
X57515403Y-95651798D01*
X55893375Y-95651798D01*
X55860843Y-95612157D01*
X55811050Y-95571294D01*
X55754243Y-95540930D01*
X55692603Y-95522232D01*
X55628500Y-95515918D01*
X54028500Y-95515918D01*
X53964397Y-95522232D01*
X53902757Y-95540930D01*
X53845950Y-95571294D01*
X53796157Y-95612157D01*
X53755294Y-95661950D01*
X53724930Y-95718757D01*
X53706232Y-95780397D01*
X53699918Y-95844500D01*
X52127000Y-95844500D01*
X52127000Y-87661399D01*
X79481000Y-87661399D01*
X79481000Y-87804605D01*
X79508938Y-87945060D01*
X79563741Y-88077366D01*
X79643302Y-88196438D01*
X79744564Y-88297700D01*
X79863636Y-88377261D01*
X79995942Y-88432064D01*
X80136397Y-88460002D01*
X80279603Y-88460002D01*
X80420058Y-88432064D01*
X80552364Y-88377261D01*
X80671436Y-88297700D01*
X80772698Y-88196438D01*
X80797044Y-88160002D01*
X82476134Y-88160002D01*
X85597736Y-91281605D01*
X85611105Y-91297895D01*
X85627395Y-91311264D01*
X85627399Y-91311268D01*
X85676123Y-91351256D01*
X85733038Y-91381676D01*
X85750304Y-91390905D01*
X85830793Y-91415322D01*
X85893522Y-91421500D01*
X85893533Y-91421500D01*
X85914500Y-91423565D01*
X85935467Y-91421500D01*
X87802956Y-91421500D01*
X87827302Y-91457936D01*
X87928564Y-91559198D01*
X88047636Y-91638759D01*
X88179942Y-91693562D01*
X88320397Y-91721500D01*
X88463603Y-91721500D01*
X88604058Y-91693562D01*
X88736364Y-91638759D01*
X88855436Y-91559198D01*
X88956698Y-91457936D01*
X89036259Y-91338864D01*
X89091062Y-91206558D01*
X89119000Y-91066103D01*
X89119000Y-90922897D01*
X89091062Y-90782442D01*
X89036259Y-90650136D01*
X88956698Y-90531064D01*
X88855436Y-90429802D01*
X88736364Y-90350241D01*
X88604058Y-90295438D01*
X88463603Y-90267500D01*
X88320397Y-90267500D01*
X88179942Y-90295438D01*
X88047636Y-90350241D01*
X87928564Y-90429802D01*
X87827302Y-90531064D01*
X87802956Y-90567500D01*
X86091369Y-90567500D01*
X82969770Y-87445902D01*
X82956397Y-87429607D01*
X82891378Y-87376247D01*
X82817198Y-87336597D01*
X82736709Y-87312180D01*
X82673980Y-87306002D01*
X82673969Y-87306002D01*
X82653002Y-87303937D01*
X82632035Y-87306002D01*
X80797044Y-87306002D01*
X80772698Y-87269566D01*
X80671436Y-87168304D01*
X80552364Y-87088743D01*
X80420058Y-87033940D01*
X80279603Y-87006002D01*
X80136397Y-87006002D01*
X79995942Y-87033940D01*
X79863636Y-87088743D01*
X79744564Y-87168304D01*
X79643302Y-87269566D01*
X79563741Y-87388638D01*
X79508938Y-87520944D01*
X79481000Y-87661399D01*
X52127000Y-87661399D01*
X52127000Y-73316702D01*
X59722903Y-73316702D01*
X59794486Y-73560671D01*
X60049996Y-73681571D01*
X60324184Y-73750300D01*
X60606512Y-73764217D01*
X60886130Y-73722787D01*
X61152292Y-73627603D01*
X61277514Y-73560671D01*
X61349097Y-73316702D01*
X60536000Y-72503605D01*
X59722903Y-73316702D01*
X52127000Y-73316702D01*
X52127000Y-72394512D01*
X59095783Y-72394512D01*
X59137213Y-72674130D01*
X59232397Y-72940292D01*
X59299329Y-73065514D01*
X59543298Y-73137097D01*
X60356395Y-72324000D01*
X60715605Y-72324000D01*
X61528702Y-73137097D01*
X61772671Y-73065514D01*
X61893571Y-72810004D01*
X61962300Y-72535816D01*
X61976217Y-72253488D01*
X61934787Y-71973870D01*
X61839603Y-71707708D01*
X61772671Y-71582486D01*
X61573340Y-71524000D01*
X62907418Y-71524000D01*
X62907418Y-73124000D01*
X62913732Y-73188103D01*
X62932430Y-73249743D01*
X62962794Y-73306550D01*
X63003657Y-73356343D01*
X63053450Y-73397206D01*
X63110257Y-73427570D01*
X63171897Y-73446268D01*
X63236000Y-73452582D01*
X64836000Y-73452582D01*
X64900103Y-73446268D01*
X64961743Y-73427570D01*
X65018550Y-73397206D01*
X65068343Y-73356343D01*
X65109206Y-73306550D01*
X65139570Y-73249743D01*
X65158268Y-73188103D01*
X65164582Y-73124000D01*
X65164582Y-71524000D01*
X65158268Y-71459897D01*
X65139570Y-71398257D01*
X65109206Y-71341450D01*
X65068343Y-71291657D01*
X65018550Y-71250794D01*
X64961743Y-71220430D01*
X64900103Y-71201732D01*
X64836000Y-71195418D01*
X63236000Y-71195418D01*
X63171897Y-71201732D01*
X63110257Y-71220430D01*
X63053450Y-71250794D01*
X63003657Y-71291657D01*
X62962794Y-71341450D01*
X62932430Y-71398257D01*
X62913732Y-71459897D01*
X62907418Y-71524000D01*
X61573340Y-71524000D01*
X61528702Y-71510903D01*
X60715605Y-72324000D01*
X60356395Y-72324000D01*
X59543298Y-71510903D01*
X59299329Y-71582486D01*
X59178429Y-71837996D01*
X59109700Y-72112184D01*
X59095783Y-72394512D01*
X52127000Y-72394512D01*
X52127000Y-71331298D01*
X59722903Y-71331298D01*
X60536000Y-72144395D01*
X61349097Y-71331298D01*
X61277514Y-71087329D01*
X61022004Y-70966429D01*
X60747816Y-70897700D01*
X60465488Y-70883783D01*
X60185870Y-70925213D01*
X59919708Y-71020397D01*
X59794486Y-71087329D01*
X59722903Y-71331298D01*
X52127000Y-71331298D01*
X52127000Y-67688500D01*
X53235500Y-67688500D01*
X53251467Y-67850620D01*
X53298756Y-68006510D01*
X53375548Y-68150179D01*
X53478894Y-68276106D01*
X53604821Y-68379452D01*
X53748490Y-68456244D01*
X53904380Y-68503533D01*
X54066500Y-68519500D01*
X54228620Y-68503533D01*
X54384510Y-68456244D01*
X54528179Y-68379452D01*
X54622551Y-68302002D01*
X57924553Y-65000001D01*
X57956106Y-64974106D01*
X57982002Y-64942552D01*
X58059452Y-64848181D01*
X58136244Y-64704511D01*
X58136245Y-64704510D01*
X58183534Y-64548620D01*
X58195500Y-64427124D01*
X58195500Y-64427115D01*
X58199500Y-64386501D01*
X58195500Y-64345887D01*
X58195500Y-49613876D01*
X58183534Y-49492380D01*
X58136245Y-49336490D01*
X58059452Y-49192821D01*
X57962674Y-49074897D01*
X96773500Y-49074897D01*
X96773500Y-49218103D01*
X96801438Y-49358558D01*
X96856241Y-49490864D01*
X96935802Y-49609936D01*
X97037064Y-49711198D01*
X97156136Y-49790759D01*
X97288442Y-49845562D01*
X97428897Y-49873500D01*
X97572103Y-49873500D01*
X97712558Y-49845562D01*
X97844864Y-49790759D01*
X97963936Y-49711198D01*
X98001634Y-49673500D01*
X101825366Y-49673500D01*
X101863064Y-49711198D01*
X101982136Y-49790759D01*
X102114442Y-49845562D01*
X102254897Y-49873500D01*
X102398103Y-49873500D01*
X102538558Y-49845562D01*
X102670864Y-49790759D01*
X102789936Y-49711198D01*
X102891198Y-49609936D01*
X102970759Y-49490864D01*
X103025562Y-49358558D01*
X103053500Y-49218103D01*
X103053500Y-49074897D01*
X103025562Y-48934442D01*
X102970759Y-48802136D01*
X102891198Y-48683064D01*
X102789936Y-48581802D01*
X102670864Y-48502241D01*
X102538558Y-48447438D01*
X102398103Y-48419500D01*
X102254897Y-48419500D01*
X102114442Y-48447438D01*
X101982136Y-48502241D01*
X101863064Y-48581802D01*
X101825366Y-48619500D01*
X98001634Y-48619500D01*
X97963936Y-48581802D01*
X97844864Y-48502241D01*
X97712558Y-48447438D01*
X97572103Y-48419500D01*
X97428897Y-48419500D01*
X97288442Y-48447438D01*
X97156136Y-48502241D01*
X97037064Y-48581802D01*
X96935802Y-48683064D01*
X96856241Y-48802136D01*
X96801438Y-48934442D01*
X96773500Y-49074897D01*
X57962674Y-49074897D01*
X57956106Y-49066894D01*
X57830178Y-48963548D01*
X57686509Y-48886755D01*
X57530619Y-48839466D01*
X57368500Y-48823499D01*
X57206380Y-48839466D01*
X57050490Y-48886755D01*
X56906821Y-48963548D01*
X56780894Y-49066894D01*
X56677548Y-49192822D01*
X56600755Y-49336491D01*
X56553466Y-49492381D01*
X56541500Y-49613877D01*
X56541501Y-64043945D01*
X53452998Y-67132449D01*
X53375548Y-67226821D01*
X53298756Y-67370490D01*
X53251467Y-67526380D01*
X53235500Y-67688500D01*
X52127000Y-67688500D01*
X52127000Y-47127000D01*
X118663501Y-47127000D01*
X118663501Y-59873000D01*
G36*
X94873000Y-70802124D02*
G01*
X90645833Y-70802124D01*
X90621487Y-70765688D01*
X90520225Y-70664426D01*
X90401153Y-70584865D01*
X90268847Y-70530062D01*
X90128392Y-70502124D01*
X89985186Y-70502124D01*
X89844731Y-70530062D01*
X89712425Y-70584865D01*
X89593353Y-70664426D01*
X89492091Y-70765688D01*
X89412530Y-70884760D01*
X89357727Y-71017066D01*
X89329789Y-71157521D01*
X89329789Y-71300727D01*
X89357727Y-71441182D01*
X89412530Y-71573488D01*
X89492091Y-71692560D01*
X89593353Y-71793822D01*
X89712425Y-71873383D01*
X89844731Y-71928186D01*
X89985186Y-71956124D01*
X90128392Y-71956124D01*
X90268847Y-71928186D01*
X90401153Y-71873383D01*
X90520225Y-71793822D01*
X90621487Y-71692560D01*
X90645833Y-71656124D01*
X90991050Y-71656124D01*
X90959438Y-71732442D01*
X90931500Y-71872897D01*
X90931500Y-72016103D01*
X90959438Y-72156558D01*
X91014241Y-72288864D01*
X91093802Y-72407936D01*
X91195064Y-72509198D01*
X91231752Y-72533712D01*
X91237679Y-72593892D01*
X91248140Y-72628376D01*
X91262096Y-72674381D01*
X91301745Y-72748561D01*
X91341732Y-72797285D01*
X91341737Y-72797290D01*
X91355106Y-72813580D01*
X91371395Y-72826948D01*
X92247500Y-73703054D01*
X92247501Y-77065523D01*
X92245435Y-77086500D01*
X92245699Y-77089184D01*
X92229438Y-77128442D01*
X92201500Y-77268897D01*
X92201500Y-77412103D01*
X92229438Y-77552558D01*
X92284241Y-77684864D01*
X92363802Y-77803936D01*
X92465064Y-77905198D01*
X92584136Y-77984759D01*
X92716442Y-78039562D01*
X92856897Y-78067500D01*
X93000103Y-78067500D01*
X93140558Y-78039562D01*
X93272864Y-77984759D01*
X93391936Y-77905198D01*
X93493198Y-77803936D01*
X93572759Y-77684864D01*
X93627562Y-77552558D01*
X93655500Y-77412103D01*
X93655500Y-77268897D01*
X93627562Y-77128442D01*
X93572759Y-76996136D01*
X93493198Y-76877064D01*
X93391936Y-76775802D01*
X93272864Y-76696241D01*
X93140558Y-76641438D01*
X93101500Y-76633669D01*
X93101500Y-73547152D01*
X93103565Y-73526185D01*
X93101500Y-73505218D01*
X93101500Y-73505207D01*
X93095322Y-73442478D01*
X93070905Y-73361989D01*
X93042903Y-73309600D01*
X93031255Y-73287808D01*
X92991268Y-73239084D01*
X92991264Y-73239080D01*
X92977895Y-73222790D01*
X92961606Y-73209422D01*
X92191659Y-72439475D01*
X92223198Y-72407936D01*
X92302759Y-72288864D01*
X92357562Y-72156558D01*
X92385500Y-72016103D01*
X92385500Y-71872897D01*
X92357562Y-71732442D01*
X92325950Y-71656124D01*
X94873000Y-71656124D01*
X94873000Y-78437500D01*
X85797067Y-78437500D01*
X84465500Y-77105934D01*
X84465500Y-70185044D01*
X84501936Y-70160698D01*
X84603198Y-70059436D01*
X84682759Y-69940364D01*
X84737562Y-69808058D01*
X84765500Y-69667603D01*
X84765500Y-69524397D01*
X84737562Y-69383942D01*
X84682759Y-69251636D01*
X84633223Y-69177500D01*
X94873000Y-69177500D01*
X94873000Y-70802124D01*
G37*
X94873000Y-70802124D02*
X90645833Y-70802124D01*
X90621487Y-70765688D01*
X90520225Y-70664426D01*
X90401153Y-70584865D01*
X90268847Y-70530062D01*
X90128392Y-70502124D01*
X89985186Y-70502124D01*
X89844731Y-70530062D01*
X89712425Y-70584865D01*
X89593353Y-70664426D01*
X89492091Y-70765688D01*
X89412530Y-70884760D01*
X89357727Y-71017066D01*
X89329789Y-71157521D01*
X89329789Y-71300727D01*
X89357727Y-71441182D01*
X89412530Y-71573488D01*
X89492091Y-71692560D01*
X89593353Y-71793822D01*
X89712425Y-71873383D01*
X89844731Y-71928186D01*
X89985186Y-71956124D01*
X90128392Y-71956124D01*
X90268847Y-71928186D01*
X90401153Y-71873383D01*
X90520225Y-71793822D01*
X90621487Y-71692560D01*
X90645833Y-71656124D01*
X90991050Y-71656124D01*
X90959438Y-71732442D01*
X90931500Y-71872897D01*
X90931500Y-72016103D01*
X90959438Y-72156558D01*
X91014241Y-72288864D01*
X91093802Y-72407936D01*
X91195064Y-72509198D01*
X91231752Y-72533712D01*
X91237679Y-72593892D01*
X91248140Y-72628376D01*
X91262096Y-72674381D01*
X91301745Y-72748561D01*
X91341732Y-72797285D01*
X91341737Y-72797290D01*
X91355106Y-72813580D01*
X91371395Y-72826948D01*
X92247500Y-73703054D01*
X92247501Y-77065523D01*
X92245435Y-77086500D01*
X92245699Y-77089184D01*
X92229438Y-77128442D01*
X92201500Y-77268897D01*
X92201500Y-77412103D01*
X92229438Y-77552558D01*
X92284241Y-77684864D01*
X92363802Y-77803936D01*
X92465064Y-77905198D01*
X92584136Y-77984759D01*
X92716442Y-78039562D01*
X92856897Y-78067500D01*
X93000103Y-78067500D01*
X93140558Y-78039562D01*
X93272864Y-77984759D01*
X93391936Y-77905198D01*
X93493198Y-77803936D01*
X93572759Y-77684864D01*
X93627562Y-77552558D01*
X93655500Y-77412103D01*
X93655500Y-77268897D01*
X93627562Y-77128442D01*
X93572759Y-76996136D01*
X93493198Y-76877064D01*
X93391936Y-76775802D01*
X93272864Y-76696241D01*
X93140558Y-76641438D01*
X93101500Y-76633669D01*
X93101500Y-73547152D01*
X93103565Y-73526185D01*
X93101500Y-73505218D01*
X93101500Y-73505207D01*
X93095322Y-73442478D01*
X93070905Y-73361989D01*
X93042903Y-73309600D01*
X93031255Y-73287808D01*
X92991268Y-73239084D01*
X92991264Y-73239080D01*
X92977895Y-73222790D01*
X92961606Y-73209422D01*
X92191659Y-72439475D01*
X92223198Y-72407936D01*
X92302759Y-72288864D01*
X92357562Y-72156558D01*
X92385500Y-72016103D01*
X92385500Y-71872897D01*
X92357562Y-71732442D01*
X92325950Y-71656124D01*
X94873000Y-71656124D01*
X94873000Y-78437500D01*
X85797067Y-78437500D01*
X84465500Y-77105934D01*
X84465500Y-70185044D01*
X84501936Y-70160698D01*
X84603198Y-70059436D01*
X84682759Y-69940364D01*
X84737562Y-69808058D01*
X84765500Y-69667603D01*
X84765500Y-69524397D01*
X84737562Y-69383942D01*
X84682759Y-69251636D01*
X84633223Y-69177500D01*
X94873000Y-69177500D01*
X94873000Y-70802124D01*
M02*
