G04 #@! TF.GenerationSoftware,KiCad,Pcbnew,(5.1.6-dirty)*
G04 #@! TF.CreationDate,2020-05-23T11:00:52+02:00*
G04 #@! TF.ProjectId,esp32control,65737033-3263-46f6-9e74-726f6c2e6b69,rev?*
G04 #@! TF.SameCoordinates,Original*
G04 #@! TF.FileFunction,Legend,Top*
G04 #@! TF.FilePolarity,Positive*
%FSLAX46Y46*%
G04 Gerber Fmt 4.6, Leading zero omitted, Abs format (unit mm)*
G04 Created by KiCad (PCBNEW (5.1.6-dirty)) date 2020-05-23 11:00:52*
%MOMM*%
%LPD*%
G01*
G04 APERTURE LIST*
%ADD10C,0.200000*%
%ADD11C,0.300000*%
%ADD12C,0.150000*%
%ADD13C,0.120000*%
%ADD14C,0.500000*%
G04 APERTURE END LIST*
D10*
X119344500Y-79118500D02*
X108168500Y-79118500D01*
D11*
X73014285Y-94257142D02*
X73014285Y-93857142D01*
X73642857Y-93685714D02*
X73642857Y-94257142D01*
X72442857Y-94257142D01*
X72442857Y-93685714D01*
X73585714Y-93228571D02*
X73642857Y-93057142D01*
X73642857Y-92771428D01*
X73585714Y-92657142D01*
X73528571Y-92600000D01*
X73414285Y-92542857D01*
X73300000Y-92542857D01*
X73185714Y-92600000D01*
X73128571Y-92657142D01*
X73071428Y-92771428D01*
X73014285Y-93000000D01*
X72957142Y-93114285D01*
X72900000Y-93171428D01*
X72785714Y-93228571D01*
X72671428Y-93228571D01*
X72557142Y-93171428D01*
X72500000Y-93114285D01*
X72442857Y-93000000D01*
X72442857Y-92714285D01*
X72500000Y-92542857D01*
X73642857Y-92028571D02*
X72442857Y-92028571D01*
X72442857Y-91571428D01*
X72500000Y-91457142D01*
X72557142Y-91400000D01*
X72671428Y-91342857D01*
X72842857Y-91342857D01*
X72957142Y-91400000D01*
X73014285Y-91457142D01*
X73071428Y-91571428D01*
X73071428Y-92028571D01*
X72442857Y-90942857D02*
X72442857Y-90200000D01*
X72900000Y-90600000D01*
X72900000Y-90428571D01*
X72957142Y-90314285D01*
X73014285Y-90257142D01*
X73128571Y-90200000D01*
X73414285Y-90200000D01*
X73528571Y-90257142D01*
X73585714Y-90314285D01*
X73642857Y-90428571D01*
X73642857Y-90771428D01*
X73585714Y-90885714D01*
X73528571Y-90942857D01*
X72557142Y-89742857D02*
X72500000Y-89685714D01*
X72442857Y-89571428D01*
X72442857Y-89285714D01*
X72500000Y-89171428D01*
X72557142Y-89114285D01*
X72671428Y-89057142D01*
X72785714Y-89057142D01*
X72957142Y-89114285D01*
X73642857Y-89800000D01*
X73642857Y-89057142D01*
X73528571Y-87857142D02*
X73585714Y-87914285D01*
X73642857Y-88085714D01*
X73642857Y-88200000D01*
X73585714Y-88371428D01*
X73471428Y-88485714D01*
X73357142Y-88542857D01*
X73128571Y-88600000D01*
X72957142Y-88600000D01*
X72728571Y-88542857D01*
X72614285Y-88485714D01*
X72500000Y-88371428D01*
X72442857Y-88200000D01*
X72442857Y-88085714D01*
X72500000Y-87914285D01*
X72557142Y-87857142D01*
X73642857Y-87171428D02*
X73585714Y-87285714D01*
X73528571Y-87342857D01*
X73414285Y-87400000D01*
X73071428Y-87400000D01*
X72957142Y-87342857D01*
X72900000Y-87285714D01*
X72842857Y-87171428D01*
X72842857Y-87000000D01*
X72900000Y-86885714D01*
X72957142Y-86828571D01*
X73071428Y-86771428D01*
X73414285Y-86771428D01*
X73528571Y-86828571D01*
X73585714Y-86885714D01*
X73642857Y-87000000D01*
X73642857Y-87171428D01*
X72842857Y-86257142D02*
X73642857Y-86257142D01*
X72957142Y-86257142D02*
X72900000Y-86200000D01*
X72842857Y-86085714D01*
X72842857Y-85914285D01*
X72900000Y-85800000D01*
X73014285Y-85742857D01*
X73642857Y-85742857D01*
X72842857Y-85342857D02*
X72842857Y-84885714D01*
X72442857Y-85171428D02*
X73471428Y-85171428D01*
X73585714Y-85114285D01*
X73642857Y-85000000D01*
X73642857Y-84885714D01*
X73642857Y-84485714D02*
X72842857Y-84485714D01*
X73071428Y-84485714D02*
X72957142Y-84428571D01*
X72900000Y-84371428D01*
X72842857Y-84257142D01*
X72842857Y-84142857D01*
X73642857Y-83571428D02*
X73585714Y-83685714D01*
X73528571Y-83742857D01*
X73414285Y-83800000D01*
X73071428Y-83800000D01*
X72957142Y-83742857D01*
X72900000Y-83685714D01*
X72842857Y-83571428D01*
X72842857Y-83400000D01*
X72900000Y-83285714D01*
X72957142Y-83228571D01*
X73071428Y-83171428D01*
X73414285Y-83171428D01*
X73528571Y-83228571D01*
X73585714Y-83285714D01*
X73642857Y-83400000D01*
X73642857Y-83571428D01*
X73642857Y-82485714D02*
X73585714Y-82600000D01*
X73471428Y-82657142D01*
X72442857Y-82657142D01*
X73642857Y-80428571D02*
X73071428Y-80828571D01*
X73642857Y-81114285D02*
X72442857Y-81114285D01*
X72442857Y-80657142D01*
X72500000Y-80542857D01*
X72557142Y-80485714D01*
X72671428Y-80428571D01*
X72842857Y-80428571D01*
X72957142Y-80485714D01*
X73014285Y-80542857D01*
X73071428Y-80657142D01*
X73071428Y-81114285D01*
X73585714Y-79457142D02*
X73642857Y-79571428D01*
X73642857Y-79800000D01*
X73585714Y-79914285D01*
X73471428Y-79971428D01*
X73014285Y-79971428D01*
X72900000Y-79914285D01*
X72842857Y-79800000D01*
X72842857Y-79571428D01*
X72900000Y-79457142D01*
X73014285Y-79400000D01*
X73128571Y-79400000D01*
X73242857Y-79971428D01*
X72842857Y-79000000D02*
X73642857Y-78714285D01*
X72842857Y-78428571D01*
X73014285Y-77571428D02*
X73071428Y-77400000D01*
X73128571Y-77342857D01*
X73242857Y-77285714D01*
X73414285Y-77285714D01*
X73528571Y-77342857D01*
X73585714Y-77400000D01*
X73642857Y-77514285D01*
X73642857Y-77971428D01*
X72442857Y-77971428D01*
X72442857Y-77571428D01*
X72500000Y-77457142D01*
X72557142Y-77400000D01*
X72671428Y-77342857D01*
X72785714Y-77342857D01*
X72900000Y-77400000D01*
X72957142Y-77457142D01*
X73014285Y-77571428D01*
X73014285Y-77971428D01*
X54321428Y-46892857D02*
X54535714Y-46964285D01*
X54607142Y-47035714D01*
X54678571Y-47178571D01*
X54678571Y-47392857D01*
X54607142Y-47535714D01*
X54535714Y-47607142D01*
X54392857Y-47678571D01*
X53821428Y-47678571D01*
X53821428Y-46178571D01*
X54321428Y-46178571D01*
X54464285Y-46250000D01*
X54535714Y-46321428D01*
X54607142Y-46464285D01*
X54607142Y-46607142D01*
X54535714Y-46750000D01*
X54464285Y-46821428D01*
X54321428Y-46892857D01*
X53821428Y-46892857D01*
X55535714Y-47678571D02*
X55392857Y-47607142D01*
X55321428Y-47535714D01*
X55250000Y-47392857D01*
X55250000Y-46964285D01*
X55321428Y-46821428D01*
X55392857Y-46750000D01*
X55535714Y-46678571D01*
X55750000Y-46678571D01*
X55892857Y-46750000D01*
X55964285Y-46821428D01*
X56035714Y-46964285D01*
X56035714Y-47392857D01*
X55964285Y-47535714D01*
X55892857Y-47607142D01*
X55750000Y-47678571D01*
X55535714Y-47678571D01*
X56892857Y-47678571D02*
X56750000Y-47607142D01*
X56678571Y-47535714D01*
X56607142Y-47392857D01*
X56607142Y-46964285D01*
X56678571Y-46821428D01*
X56750000Y-46750000D01*
X56892857Y-46678571D01*
X57107142Y-46678571D01*
X57250000Y-46750000D01*
X57321428Y-46821428D01*
X57392857Y-46964285D01*
X57392857Y-47392857D01*
X57321428Y-47535714D01*
X57250000Y-47607142D01*
X57107142Y-47678571D01*
X56892857Y-47678571D01*
X57821428Y-46678571D02*
X58392857Y-46678571D01*
X58035714Y-46178571D02*
X58035714Y-47464285D01*
X58107142Y-47607142D01*
X58250000Y-47678571D01*
X58392857Y-47678571D01*
X61142857Y-47678571D02*
X60642857Y-46964285D01*
X60285714Y-47678571D02*
X60285714Y-46178571D01*
X60857142Y-46178571D01*
X61000000Y-46250000D01*
X61071428Y-46321428D01*
X61142857Y-46464285D01*
X61142857Y-46678571D01*
X61071428Y-46821428D01*
X61000000Y-46892857D01*
X60857142Y-46964285D01*
X60285714Y-46964285D01*
X62357142Y-47607142D02*
X62214285Y-47678571D01*
X61928571Y-47678571D01*
X61785714Y-47607142D01*
X61714285Y-47464285D01*
X61714285Y-46892857D01*
X61785714Y-46750000D01*
X61928571Y-46678571D01*
X62214285Y-46678571D01*
X62357142Y-46750000D01*
X62428571Y-46892857D01*
X62428571Y-47035714D01*
X61714285Y-47178571D01*
X63000000Y-47607142D02*
X63142857Y-47678571D01*
X63428571Y-47678571D01*
X63571428Y-47607142D01*
X63642857Y-47464285D01*
X63642857Y-47392857D01*
X63571428Y-47250000D01*
X63428571Y-47178571D01*
X63214285Y-47178571D01*
X63071428Y-47107142D01*
X63000000Y-46964285D01*
X63000000Y-46892857D01*
X63071428Y-46750000D01*
X63214285Y-46678571D01*
X63428571Y-46678571D01*
X63571428Y-46750000D01*
X64857142Y-47607142D02*
X64714285Y-47678571D01*
X64428571Y-47678571D01*
X64285714Y-47607142D01*
X64214285Y-47464285D01*
X64214285Y-46892857D01*
X64285714Y-46750000D01*
X64428571Y-46678571D01*
X64714285Y-46678571D01*
X64857142Y-46750000D01*
X64928571Y-46892857D01*
X64928571Y-47035714D01*
X64214285Y-47178571D01*
X65357142Y-46678571D02*
X65928571Y-46678571D01*
X65571428Y-46178571D02*
X65571428Y-47464285D01*
X65642857Y-47607142D01*
X65785714Y-47678571D01*
X65928571Y-47678571D01*
D12*
X51308500Y-46868500D02*
X119308500Y-46868500D01*
X51308500Y-111368500D02*
X119308500Y-111368500D01*
D13*
X71660000Y-67502064D02*
X71660000Y-66297936D01*
X69840000Y-67502064D02*
X69840000Y-66297936D01*
X65547936Y-80160000D02*
X66752064Y-80160000D01*
X65547936Y-78340000D02*
X66752064Y-78340000D01*
X65040000Y-75560000D02*
X65040000Y-74440000D01*
X64970000Y-75560000D02*
X65040000Y-75560000D01*
X68960000Y-75560000D02*
X68960000Y-74440000D01*
X64970000Y-76500000D02*
X64970000Y-75560000D01*
X70950000Y-78000000D02*
G75*
G03*
X70950000Y-78000000I-950000J0D01*
G01*
X117110000Y-62147779D02*
X117110000Y-61822221D01*
X116090000Y-62147779D02*
X116090000Y-61822221D01*
X112610000Y-62147779D02*
X112610000Y-61822221D01*
X111590000Y-62147779D02*
X111590000Y-61822221D01*
X71662779Y-71490000D02*
X71337221Y-71490000D01*
X71662779Y-72510000D02*
X71337221Y-72510000D01*
X113565000Y-60540000D02*
X113565000Y-63000000D01*
X115035000Y-60540000D02*
X113565000Y-60540000D01*
X115035000Y-63000000D02*
X115035000Y-60540000D01*
X108865000Y-60540000D02*
X108865000Y-63000000D01*
X110335000Y-60540000D02*
X108865000Y-60540000D01*
X110335000Y-63000000D02*
X110335000Y-60540000D01*
X63162779Y-75490000D02*
X62837221Y-75490000D01*
X63162779Y-76510000D02*
X62837221Y-76510000D01*
X62450000Y-74250000D02*
X60800000Y-74250000D01*
X65050000Y-71650000D02*
X62450000Y-74250000D01*
X65850000Y-71650000D02*
X65050000Y-71650000D01*
X65850000Y-63350000D02*
X65850000Y-71650000D01*
X65050000Y-63350000D02*
X65850000Y-63350000D01*
X62450000Y-60750000D02*
X65050000Y-63350000D01*
X60800000Y-60750000D02*
X62450000Y-60750000D01*
X57200000Y-60750000D02*
X54900000Y-60750000D01*
X57200000Y-74250000D02*
X54900000Y-74250000D01*
X54950000Y-60750000D02*
G75*
G03*
X53400000Y-62200000I-50000J-1500000D01*
G01*
X54950000Y-74250000D02*
G75*
G02*
X53400000Y-72800000I-50000J1500000D01*
G01*
X53415840Y-62085385D02*
G75*
G03*
X53800000Y-63000000I984160J-124615D01*
G01*
X53415840Y-72914615D02*
G75*
G02*
X53800000Y-72000000I984160J124615D01*
G01*
X53768000Y-79788000D02*
X56068000Y-79788000D01*
X53768000Y-87188000D02*
X53768000Y-79788000D01*
X56068000Y-87188000D02*
X53768000Y-87188000D01*
X61168000Y-87188000D02*
X58868000Y-87188000D01*
X61168000Y-79788000D02*
X61168000Y-87188000D01*
X58868000Y-79788000D02*
X61168000Y-79788000D01*
X110648500Y-66358500D02*
X111978500Y-66358500D01*
X110648500Y-67688500D02*
X110648500Y-66358500D01*
X113248500Y-66358500D02*
X115848500Y-66358500D01*
X113248500Y-68958500D02*
X113248500Y-66358500D01*
X110648500Y-68958500D02*
X113248500Y-68958500D01*
X115848500Y-66358500D02*
X115848500Y-91878500D01*
X110648500Y-68958500D02*
X110648500Y-91878500D01*
X110648500Y-91878500D02*
X115848500Y-91878500D01*
X78194500Y-62191721D02*
X78194500Y-62517279D01*
X79214500Y-62191721D02*
X79214500Y-62517279D01*
X59624721Y-78510000D02*
X59950279Y-78510000D01*
X59624721Y-77490000D02*
X59950279Y-77490000D01*
X98417221Y-50990000D02*
X98742779Y-50990000D01*
X98417221Y-49970000D02*
X98742779Y-49970000D01*
X115443279Y-93594500D02*
X115117721Y-93594500D01*
X115443279Y-94614500D02*
X115117721Y-94614500D01*
X112141279Y-93594500D02*
X111815721Y-93594500D01*
X112141279Y-94614500D02*
X111815721Y-94614500D01*
X104106500Y-93505279D02*
X104106500Y-93179721D01*
X103086500Y-93505279D02*
X103086500Y-93179721D01*
X101118000Y-93179721D02*
X101118000Y-93505279D01*
X102138000Y-93179721D02*
X102138000Y-93505279D01*
X70337221Y-64010000D02*
X70662779Y-64010000D01*
X70337221Y-62990000D02*
X70662779Y-62990000D01*
X77178500Y-88099721D02*
X77178500Y-88425279D01*
X78198500Y-88099721D02*
X78198500Y-88425279D01*
X102987221Y-90800000D02*
X103312779Y-90800000D01*
X102987221Y-89780000D02*
X103312779Y-89780000D01*
X106299279Y-89784500D02*
X105973721Y-89784500D01*
X106299279Y-90804500D02*
X105973721Y-90804500D01*
X92555779Y-63368500D02*
X92230221Y-63368500D01*
X92555779Y-64388500D02*
X92230221Y-64388500D01*
X89370500Y-62191721D02*
X89370500Y-62517279D01*
X90390500Y-62191721D02*
X90390500Y-62517279D01*
X72990000Y-62191721D02*
X72990000Y-62517279D01*
X74010000Y-62191721D02*
X74010000Y-62517279D01*
X102032779Y-49970000D02*
X101707221Y-49970000D01*
X102032779Y-50990000D02*
X101707221Y-50990000D01*
X105186000Y-50134779D02*
X105186000Y-49809221D01*
X104166000Y-50134779D02*
X104166000Y-49809221D01*
X96550000Y-50134779D02*
X96550000Y-49809221D01*
X95530000Y-50134779D02*
X95530000Y-49809221D01*
X103822779Y-64384500D02*
X103497221Y-64384500D01*
X103822779Y-65404500D02*
X103497221Y-65404500D01*
X97726779Y-64384500D02*
X97401221Y-64384500D01*
X97726779Y-65404500D02*
X97401221Y-65404500D01*
X70337221Y-62510000D02*
X70662779Y-62510000D01*
X70337221Y-61490000D02*
X70662779Y-61490000D01*
X71337221Y-75510000D02*
X71662779Y-75510000D01*
X71337221Y-74490000D02*
X71662779Y-74490000D01*
X83782500Y-62191721D02*
X83782500Y-62517279D01*
X84802500Y-62191721D02*
X84802500Y-62517279D01*
X89855000Y-50331779D02*
X89855000Y-50006221D01*
X88835000Y-50331779D02*
X88835000Y-50006221D01*
X93946500Y-93505279D02*
X93946500Y-93179721D01*
X92926500Y-93505279D02*
X92926500Y-93179721D01*
X90958000Y-93179721D02*
X90958000Y-93505279D01*
X91978000Y-93179721D02*
X91978000Y-93505279D01*
X84775000Y-50331779D02*
X84775000Y-50006221D01*
X83755000Y-50331779D02*
X83755000Y-50006221D01*
X79187000Y-50331779D02*
X79187000Y-50006221D01*
X78167000Y-50331779D02*
X78167000Y-50006221D01*
X73599000Y-50331779D02*
X73599000Y-50006221D01*
X72579000Y-50331779D02*
X72579000Y-50006221D01*
X84802500Y-93505279D02*
X84802500Y-93179721D01*
X83782500Y-93505279D02*
X83782500Y-93179721D01*
X81306000Y-93179721D02*
X81306000Y-93505279D01*
X82326000Y-93179721D02*
X82326000Y-93505279D01*
X61765000Y-77340000D02*
X61765000Y-79800000D01*
X63235000Y-77340000D02*
X61765000Y-77340000D01*
X63235000Y-79800000D02*
X63235000Y-77340000D01*
X99722000Y-52668000D02*
X99722000Y-58068000D01*
X96422000Y-52668000D02*
X96422000Y-58068000D01*
X99722000Y-52668000D02*
X96422000Y-52668000D01*
X113664000Y-110042000D02*
X108264000Y-110042000D01*
X113664000Y-106742000D02*
X108264000Y-106742000D01*
X113664000Y-110042000D02*
X113664000Y-106742000D01*
X104012000Y-110042000D02*
X98612000Y-110042000D01*
X104012000Y-106742000D02*
X98612000Y-106742000D01*
X104012000Y-110042000D02*
X104012000Y-106742000D01*
X93852000Y-110042000D02*
X88452000Y-110042000D01*
X93852000Y-106742000D02*
X88452000Y-106742000D01*
X93852000Y-110042000D02*
X93852000Y-106742000D01*
X62160000Y-107250000D02*
X67560000Y-107250000D01*
X62160000Y-110550000D02*
X67560000Y-110550000D01*
X62160000Y-107250000D02*
X62160000Y-110550000D01*
X105310000Y-52668000D02*
X105310000Y-58068000D01*
X102010000Y-52668000D02*
X102010000Y-58068000D01*
X105310000Y-52668000D02*
X102010000Y-52668000D01*
X55526000Y-103468000D02*
X55526000Y-108868000D01*
X52226000Y-103468000D02*
X52226000Y-108868000D01*
X55526000Y-103468000D02*
X52226000Y-103468000D01*
X55084000Y-88442000D02*
X60484000Y-88442000D01*
X55084000Y-91742000D02*
X60484000Y-91742000D01*
X55084000Y-88442000D02*
X55084000Y-91742000D01*
X83819000Y-110169000D02*
X78419000Y-110169000D01*
X83819000Y-106869000D02*
X78419000Y-106869000D01*
X83819000Y-110169000D02*
X83819000Y-106869000D01*
X52490302Y-94035000D02*
X52490302Y-94835000D01*
X52090302Y-94435000D02*
X52890302Y-94435000D01*
X60581000Y-96217000D02*
X60581000Y-97283000D01*
X60541000Y-95982000D02*
X60541000Y-97518000D01*
X60501000Y-95802000D02*
X60501000Y-97698000D01*
X60461000Y-95652000D02*
X60461000Y-97848000D01*
X60421000Y-95521000D02*
X60421000Y-97979000D01*
X60381000Y-95404000D02*
X60381000Y-98096000D01*
X60341000Y-95297000D02*
X60341000Y-98203000D01*
X60301000Y-95198000D02*
X60301000Y-98302000D01*
X60261000Y-95105000D02*
X60261000Y-98395000D01*
X60221000Y-95019000D02*
X60221000Y-98481000D01*
X60181000Y-94937000D02*
X60181000Y-98563000D01*
X60141000Y-94860000D02*
X60141000Y-98640000D01*
X60101000Y-94786000D02*
X60101000Y-98714000D01*
X60061000Y-94716000D02*
X60061000Y-98784000D01*
X60021000Y-94648000D02*
X60021000Y-98852000D01*
X59981000Y-94584000D02*
X59981000Y-98916000D01*
X59941000Y-94522000D02*
X59941000Y-98978000D01*
X59901000Y-94463000D02*
X59901000Y-99037000D01*
X59861000Y-94405000D02*
X59861000Y-99095000D01*
X59821000Y-94350000D02*
X59821000Y-99150000D01*
X59781000Y-94296000D02*
X59781000Y-99204000D01*
X59741000Y-94245000D02*
X59741000Y-99255000D01*
X59701000Y-94194000D02*
X59701000Y-99306000D01*
X59661000Y-94146000D02*
X59661000Y-99354000D01*
X59621000Y-94099000D02*
X59621000Y-99401000D01*
X59581000Y-94053000D02*
X59581000Y-99447000D01*
X59541000Y-94009000D02*
X59541000Y-99491000D01*
X59501000Y-93966000D02*
X59501000Y-99534000D01*
X59461000Y-93924000D02*
X59461000Y-99576000D01*
X59421000Y-93883000D02*
X59421000Y-99617000D01*
X59381000Y-93843000D02*
X59381000Y-99657000D01*
X59341000Y-93805000D02*
X59341000Y-99695000D01*
X59301000Y-93767000D02*
X59301000Y-99733000D01*
X59261000Y-97790000D02*
X59261000Y-99769000D01*
X59261000Y-93731000D02*
X59261000Y-95710000D01*
X59221000Y-97790000D02*
X59221000Y-99805000D01*
X59221000Y-93695000D02*
X59221000Y-95710000D01*
X59181000Y-97790000D02*
X59181000Y-99840000D01*
X59181000Y-93660000D02*
X59181000Y-95710000D01*
X59141000Y-97790000D02*
X59141000Y-99874000D01*
X59141000Y-93626000D02*
X59141000Y-95710000D01*
X59101000Y-97790000D02*
X59101000Y-99906000D01*
X59101000Y-93594000D02*
X59101000Y-95710000D01*
X59061000Y-97790000D02*
X59061000Y-99939000D01*
X59061000Y-93561000D02*
X59061000Y-95710000D01*
X59021000Y-97790000D02*
X59021000Y-99970000D01*
X59021000Y-93530000D02*
X59021000Y-95710000D01*
X58981000Y-97790000D02*
X58981000Y-100000000D01*
X58981000Y-93500000D02*
X58981000Y-95710000D01*
X58941000Y-97790000D02*
X58941000Y-100030000D01*
X58941000Y-93470000D02*
X58941000Y-95710000D01*
X58901000Y-97790000D02*
X58901000Y-100059000D01*
X58901000Y-93441000D02*
X58901000Y-95710000D01*
X58861000Y-97790000D02*
X58861000Y-100088000D01*
X58861000Y-93412000D02*
X58861000Y-95710000D01*
X58821000Y-97790000D02*
X58821000Y-100115000D01*
X58821000Y-93385000D02*
X58821000Y-95710000D01*
X58781000Y-97790000D02*
X58781000Y-100142000D01*
X58781000Y-93358000D02*
X58781000Y-95710000D01*
X58741000Y-97790000D02*
X58741000Y-100168000D01*
X58741000Y-93332000D02*
X58741000Y-95710000D01*
X58701000Y-97790000D02*
X58701000Y-100194000D01*
X58701000Y-93306000D02*
X58701000Y-95710000D01*
X58661000Y-97790000D02*
X58661000Y-100219000D01*
X58661000Y-93281000D02*
X58661000Y-95710000D01*
X58621000Y-97790000D02*
X58621000Y-100243000D01*
X58621000Y-93257000D02*
X58621000Y-95710000D01*
X58581000Y-97790000D02*
X58581000Y-100267000D01*
X58581000Y-93233000D02*
X58581000Y-95710000D01*
X58541000Y-97790000D02*
X58541000Y-100290000D01*
X58541000Y-93210000D02*
X58541000Y-95710000D01*
X58501000Y-97790000D02*
X58501000Y-100312000D01*
X58501000Y-93188000D02*
X58501000Y-95710000D01*
X58461000Y-97790000D02*
X58461000Y-100334000D01*
X58461000Y-93166000D02*
X58461000Y-95710000D01*
X58421000Y-97790000D02*
X58421000Y-100356000D01*
X58421000Y-93144000D02*
X58421000Y-95710000D01*
X58381000Y-97790000D02*
X58381000Y-100377000D01*
X58381000Y-93123000D02*
X58381000Y-95710000D01*
X58341000Y-97790000D02*
X58341000Y-100397000D01*
X58341000Y-93103000D02*
X58341000Y-95710000D01*
X58301000Y-97790000D02*
X58301000Y-100416000D01*
X58301000Y-93084000D02*
X58301000Y-95710000D01*
X58261000Y-97790000D02*
X58261000Y-100436000D01*
X58261000Y-93064000D02*
X58261000Y-95710000D01*
X58221000Y-97790000D02*
X58221000Y-100454000D01*
X58221000Y-93046000D02*
X58221000Y-95710000D01*
X58181000Y-97790000D02*
X58181000Y-100472000D01*
X58181000Y-93028000D02*
X58181000Y-95710000D01*
X58141000Y-97790000D02*
X58141000Y-100490000D01*
X58141000Y-93010000D02*
X58141000Y-95710000D01*
X58101000Y-97790000D02*
X58101000Y-100507000D01*
X58101000Y-92993000D02*
X58101000Y-95710000D01*
X58061000Y-97790000D02*
X58061000Y-100524000D01*
X58061000Y-92976000D02*
X58061000Y-95710000D01*
X58021000Y-97790000D02*
X58021000Y-100540000D01*
X58021000Y-92960000D02*
X58021000Y-95710000D01*
X57981000Y-97790000D02*
X57981000Y-100555000D01*
X57981000Y-92945000D02*
X57981000Y-95710000D01*
X57941000Y-97790000D02*
X57941000Y-100571000D01*
X57941000Y-92929000D02*
X57941000Y-95710000D01*
X57901000Y-97790000D02*
X57901000Y-100585000D01*
X57901000Y-92915000D02*
X57901000Y-95710000D01*
X57861000Y-97790000D02*
X57861000Y-100600000D01*
X57861000Y-92900000D02*
X57861000Y-95710000D01*
X57821000Y-97790000D02*
X57821000Y-100613000D01*
X57821000Y-92887000D02*
X57821000Y-95710000D01*
X57781000Y-97790000D02*
X57781000Y-100627000D01*
X57781000Y-92873000D02*
X57781000Y-95710000D01*
X57741000Y-97790000D02*
X57741000Y-100639000D01*
X57741000Y-92861000D02*
X57741000Y-95710000D01*
X57701000Y-97790000D02*
X57701000Y-100652000D01*
X57701000Y-92848000D02*
X57701000Y-95710000D01*
X57661000Y-97790000D02*
X57661000Y-100664000D01*
X57661000Y-92836000D02*
X57661000Y-95710000D01*
X57621000Y-97790000D02*
X57621000Y-100675000D01*
X57621000Y-92825000D02*
X57621000Y-95710000D01*
X57581000Y-97790000D02*
X57581000Y-100686000D01*
X57581000Y-92814000D02*
X57581000Y-95710000D01*
X57541000Y-97790000D02*
X57541000Y-100697000D01*
X57541000Y-92803000D02*
X57541000Y-95710000D01*
X57501000Y-97790000D02*
X57501000Y-100707000D01*
X57501000Y-92793000D02*
X57501000Y-95710000D01*
X57461000Y-97790000D02*
X57461000Y-100717000D01*
X57461000Y-92783000D02*
X57461000Y-95710000D01*
X57421000Y-97790000D02*
X57421000Y-100726000D01*
X57421000Y-92774000D02*
X57421000Y-95710000D01*
X57381000Y-97790000D02*
X57381000Y-100735000D01*
X57381000Y-92765000D02*
X57381000Y-95710000D01*
X57341000Y-97790000D02*
X57341000Y-100744000D01*
X57341000Y-92756000D02*
X57341000Y-95710000D01*
X57301000Y-97790000D02*
X57301000Y-100752000D01*
X57301000Y-92748000D02*
X57301000Y-95710000D01*
X57261000Y-97790000D02*
X57261000Y-100760000D01*
X57261000Y-92740000D02*
X57261000Y-95710000D01*
X57221000Y-97790000D02*
X57221000Y-100767000D01*
X57221000Y-92733000D02*
X57221000Y-95710000D01*
X57180000Y-92726000D02*
X57180000Y-100774000D01*
X57140000Y-92720000D02*
X57140000Y-100780000D01*
X57100000Y-92713000D02*
X57100000Y-100787000D01*
X57060000Y-92708000D02*
X57060000Y-100792000D01*
X57020000Y-92702000D02*
X57020000Y-100798000D01*
X56980000Y-92698000D02*
X56980000Y-100802000D01*
X56940000Y-92693000D02*
X56940000Y-100807000D01*
X56900000Y-92689000D02*
X56900000Y-100811000D01*
X56860000Y-92685000D02*
X56860000Y-100815000D01*
X56820000Y-92682000D02*
X56820000Y-100818000D01*
X56780000Y-92679000D02*
X56780000Y-100821000D01*
X56740000Y-92676000D02*
X56740000Y-100824000D01*
X56700000Y-92674000D02*
X56700000Y-100826000D01*
X56660000Y-92673000D02*
X56660000Y-100827000D01*
X56620000Y-92671000D02*
X56620000Y-100829000D01*
X56580000Y-92670000D02*
X56580000Y-100830000D01*
X56540000Y-92670000D02*
X56540000Y-100830000D01*
X56500000Y-92670000D02*
X56500000Y-100830000D01*
X60620000Y-96750000D02*
G75*
G03*
X60620000Y-96750000I-4120000J0D01*
G01*
X65162779Y-89690000D02*
X64837221Y-89690000D01*
X65162779Y-90710000D02*
X64837221Y-90710000D01*
X55587221Y-78510000D02*
X55912779Y-78510000D01*
X55587221Y-77490000D02*
X55912779Y-77490000D01*
X69162779Y-69490000D02*
X68837221Y-69490000D01*
X69162779Y-70510000D02*
X68837221Y-70510000D01*
X68098000Y-105181221D02*
X68098000Y-105506779D01*
X69118000Y-105181221D02*
X69118000Y-105506779D01*
X71962000Y-105082748D02*
X71962000Y-105605252D01*
X73382000Y-105082748D02*
X73382000Y-105605252D01*
X68690000Y-84637221D02*
X68690000Y-84962779D01*
X69710000Y-84637221D02*
X69710000Y-84962779D01*
X107462500Y-86740500D02*
X107462500Y-88200500D01*
X104302500Y-86740500D02*
X104302500Y-88900500D01*
X104302500Y-86740500D02*
X105232500Y-86740500D01*
X107462500Y-86740500D02*
X106532500Y-86740500D01*
X102636500Y-86740500D02*
X102636500Y-88200500D01*
X99476500Y-86740500D02*
X99476500Y-88900500D01*
X99476500Y-86740500D02*
X100406500Y-86740500D01*
X102636500Y-86740500D02*
X101706500Y-86740500D01*
X68400000Y-95840000D02*
X74410000Y-95840000D01*
X70650000Y-102660000D02*
X74410000Y-102660000D01*
X74410000Y-95840000D02*
X74410000Y-97100000D01*
X74410000Y-102660000D02*
X74410000Y-101400000D01*
X99144000Y-60896000D02*
X99144000Y-62356000D01*
X95984000Y-60896000D02*
X95984000Y-63056000D01*
X95984000Y-60896000D02*
X96914000Y-60896000D01*
X99144000Y-60896000D02*
X98214000Y-60896000D01*
X105240000Y-60896000D02*
X105240000Y-62356000D01*
X102080000Y-60896000D02*
X102080000Y-63056000D01*
X102080000Y-60896000D02*
X103010000Y-60896000D01*
X105240000Y-60896000D02*
X104310000Y-60896000D01*
X80348000Y-92392000D02*
X80348000Y-93852000D01*
X77188000Y-92392000D02*
X77188000Y-94552000D01*
X77188000Y-92392000D02*
X78118000Y-92392000D01*
X80348000Y-92392000D02*
X79418000Y-92392000D01*
X90000000Y-92392000D02*
X90000000Y-93852000D01*
X86840000Y-92392000D02*
X86840000Y-94552000D01*
X86840000Y-92392000D02*
X87770000Y-92392000D01*
X90000000Y-92392000D02*
X89070000Y-92392000D01*
X100160000Y-92392000D02*
X100160000Y-93852000D01*
X97000000Y-92392000D02*
X97000000Y-94552000D01*
X97000000Y-92392000D02*
X97930000Y-92392000D01*
X100160000Y-92392000D02*
X99230000Y-92392000D01*
X108732500Y-92582500D02*
X108732500Y-94042500D01*
X105572500Y-92582500D02*
X105572500Y-94742500D01*
X105572500Y-92582500D02*
X106502500Y-92582500D01*
X108732500Y-92582500D02*
X107802500Y-92582500D01*
D12*
X59000000Y-56750000D02*
X53000000Y-56750000D01*
X59000000Y-50250000D02*
X59000000Y-56750000D01*
X53000000Y-50250000D02*
X59000000Y-50250000D01*
X53000000Y-56750000D02*
X53000000Y-50250000D01*
X66000000Y-56750000D02*
X60000000Y-56750000D01*
X66000000Y-50250000D02*
X66000000Y-56750000D01*
X60000000Y-50250000D02*
X66000000Y-50250000D01*
X60000000Y-56750000D02*
X60000000Y-50250000D01*
X101678000Y-85070500D02*
X101678000Y-67070500D01*
X76178000Y-85070500D02*
X76178000Y-67070500D01*
X101678000Y-85070500D02*
X76178000Y-85070500D01*
X101678000Y-67070500D02*
X76178000Y-67070500D01*
X95678000Y-85070500D02*
X95678000Y-67070500D01*
D14*
X95815981Y-66164500D02*
G75*
G03*
X95815981Y-66164500I-283981J0D01*
G01*
D13*
X79153000Y-58665000D02*
X78853000Y-58665000D01*
X79153000Y-53865000D02*
X79153000Y-58665000D01*
X78853000Y-53865000D02*
X79153000Y-53865000D01*
X75153000Y-53865000D02*
X75453000Y-53865000D01*
X75153000Y-58665000D02*
X75153000Y-53865000D01*
X75453000Y-58665000D02*
X75153000Y-58665000D01*
X78853000Y-53865000D02*
X78853000Y-52165000D01*
D12*
X67745060Y-82756560D02*
X67745060Y-81356560D01*
X62645060Y-82756560D02*
X62645060Y-86906560D01*
X67795060Y-82756560D02*
X67795060Y-86906560D01*
X62645060Y-82756560D02*
X62790060Y-82756560D01*
X62645060Y-86906560D02*
X62790060Y-86906560D01*
X67795060Y-86906560D02*
X67650060Y-86906560D01*
X67795060Y-82756560D02*
X67745060Y-82756560D01*
D13*
X94494500Y-95606500D02*
X93394500Y-95606500D01*
X93394500Y-95606500D02*
X93394500Y-98206500D01*
X94494500Y-95606500D02*
X94494500Y-98206500D01*
X84842500Y-95606500D02*
X84842500Y-98206500D01*
X83742500Y-95606500D02*
X83742500Y-98206500D01*
X84842500Y-95606500D02*
X83742500Y-95606500D01*
X104654500Y-95606500D02*
X103554500Y-95606500D01*
X103554500Y-95606500D02*
X103554500Y-98206500D01*
X104654500Y-95606500D02*
X104654500Y-98206500D01*
X114306500Y-95606500D02*
X114306500Y-98206500D01*
X113206500Y-95606500D02*
X113206500Y-98206500D01*
X114306500Y-95606500D02*
X113206500Y-95606500D01*
X73773000Y-53865000D02*
X73773000Y-52165000D01*
X70373000Y-58665000D02*
X70073000Y-58665000D01*
X70073000Y-58665000D02*
X70073000Y-53865000D01*
X70073000Y-53865000D02*
X70373000Y-53865000D01*
X73773000Y-53865000D02*
X74073000Y-53865000D01*
X74073000Y-53865000D02*
X74073000Y-58665000D01*
X74073000Y-58665000D02*
X73773000Y-58665000D01*
X84966295Y-58480521D02*
X84666295Y-58480521D01*
X84966295Y-53680521D02*
X84966295Y-58480521D01*
X84666295Y-53680521D02*
X84966295Y-53680521D01*
X80966295Y-53680521D02*
X81266295Y-53680521D01*
X80966295Y-58480521D02*
X80966295Y-53680521D01*
X81266295Y-58480521D02*
X80966295Y-58480521D01*
X84666295Y-53680521D02*
X84666295Y-51980521D01*
X90029000Y-53865000D02*
X90029000Y-52165000D01*
X86629000Y-58665000D02*
X86329000Y-58665000D01*
X86329000Y-58665000D02*
X86329000Y-53865000D01*
X86329000Y-53865000D02*
X86629000Y-53865000D01*
X90029000Y-53865000D02*
X90329000Y-53865000D01*
X90329000Y-53865000D02*
X90329000Y-58665000D01*
X90329000Y-58665000D02*
X90029000Y-58665000D01*
X112356000Y-99772000D02*
X112356000Y-98122000D01*
X112356000Y-98122000D02*
X107156000Y-98122000D01*
X107156000Y-98122000D02*
X107156000Y-103422000D01*
X107156000Y-103422000D02*
X112356000Y-103422000D01*
X112356000Y-103422000D02*
X112356000Y-101772000D01*
X112416000Y-95632000D02*
X107096000Y-95632000D01*
X107096000Y-95632000D02*
X107096000Y-105912000D01*
X107096000Y-105912000D02*
X112416000Y-105912000D01*
X112416000Y-105912000D02*
X112416000Y-95632000D01*
X112356000Y-101772000D02*
G75*
G02*
X112356000Y-99772000I0J1000000D01*
G01*
X102764000Y-105912000D02*
X102764000Y-95632000D01*
X97444000Y-105912000D02*
X102764000Y-105912000D01*
X97444000Y-95632000D02*
X97444000Y-105912000D01*
X102764000Y-95632000D02*
X97444000Y-95632000D01*
X102704000Y-103422000D02*
X102704000Y-101772000D01*
X97504000Y-103422000D02*
X102704000Y-103422000D01*
X97504000Y-98122000D02*
X97504000Y-103422000D01*
X102704000Y-98122000D02*
X97504000Y-98122000D01*
X102704000Y-99772000D02*
X102704000Y-98122000D01*
X102704000Y-101772000D02*
G75*
G02*
X102704000Y-99772000I0J1000000D01*
G01*
X82892000Y-99772000D02*
X82892000Y-98122000D01*
X82892000Y-98122000D02*
X77692000Y-98122000D01*
X77692000Y-98122000D02*
X77692000Y-103422000D01*
X77692000Y-103422000D02*
X82892000Y-103422000D01*
X82892000Y-103422000D02*
X82892000Y-101772000D01*
X82952000Y-95632000D02*
X77632000Y-95632000D01*
X77632000Y-95632000D02*
X77632000Y-105912000D01*
X77632000Y-105912000D02*
X82952000Y-105912000D01*
X82952000Y-105912000D02*
X82952000Y-95632000D01*
X82892000Y-101772000D02*
G75*
G02*
X82892000Y-99772000I0J1000000D01*
G01*
X92604000Y-105912000D02*
X92604000Y-95632000D01*
X87284000Y-105912000D02*
X92604000Y-105912000D01*
X87284000Y-95632000D02*
X87284000Y-105912000D01*
X92604000Y-95632000D02*
X87284000Y-95632000D01*
X92544000Y-103422000D02*
X92544000Y-101772000D01*
X87344000Y-103422000D02*
X92544000Y-103422000D01*
X87344000Y-98122000D02*
X87344000Y-103422000D01*
X92544000Y-98122000D02*
X87344000Y-98122000D01*
X92544000Y-99772000D02*
X92544000Y-98122000D01*
X92544000Y-101772000D02*
G75*
G02*
X92544000Y-99772000I0J1000000D01*
G01*
D10*
X112548500Y-41068500D02*
X112548500Y-41668500D01*
X113948500Y-41068500D02*
X113948500Y-41668500D01*
X112548500Y-41668500D02*
G75*
G03*
X113948500Y-41668500I700000J0D01*
G01*
X113948500Y-41068500D02*
G75*
G03*
X112548500Y-41068500I-700000J0D01*
G01*
X107468500Y-41068500D02*
X107468500Y-41668500D01*
X108868500Y-41068500D02*
X108868500Y-41668500D01*
X107468500Y-41668500D02*
G75*
G03*
X108868500Y-41668500I700000J0D01*
G01*
X108868500Y-41068500D02*
G75*
G03*
X107468500Y-41068500I-700000J0D01*
G01*
X102388500Y-41068500D02*
X102388500Y-41668500D01*
X103788500Y-41068500D02*
X103788500Y-41668500D01*
X102388500Y-41668500D02*
G75*
G03*
X103788500Y-41668500I700000J0D01*
G01*
X103788500Y-41068500D02*
G75*
G03*
X102388500Y-41068500I-700000J0D01*
G01*
X97308500Y-41068500D02*
X97308500Y-41668500D01*
X98708500Y-41068500D02*
X98708500Y-41668500D01*
X97308500Y-41668500D02*
G75*
G03*
X98708500Y-41668500I700000J0D01*
G01*
X98708500Y-41068500D02*
G75*
G03*
X97308500Y-41068500I-700000J0D01*
G01*
X92228500Y-41068500D02*
X92228500Y-41668500D01*
X93628500Y-41068500D02*
X93628500Y-41668500D01*
X92228500Y-41668500D02*
G75*
G03*
X93628500Y-41668500I700000J0D01*
G01*
X93628500Y-41068500D02*
G75*
G03*
X92228500Y-41068500I-700000J0D01*
G01*
X87148500Y-41068500D02*
X87148500Y-41668500D01*
X88548500Y-41068500D02*
X88548500Y-41668500D01*
X87148500Y-41668500D02*
G75*
G03*
X88548500Y-41668500I700000J0D01*
G01*
X88548500Y-41068500D02*
G75*
G03*
X87148500Y-41068500I-700000J0D01*
G01*
X82068500Y-41068500D02*
X82068500Y-41668500D01*
X83468500Y-41068500D02*
X83468500Y-41668500D01*
X82068500Y-41668500D02*
G75*
G03*
X83468500Y-41668500I700000J0D01*
G01*
X83468500Y-41068500D02*
G75*
G03*
X82068500Y-41068500I-700000J0D01*
G01*
X76988500Y-41068500D02*
X76988500Y-41668500D01*
X78388500Y-41068500D02*
X78388500Y-41668500D01*
X76988500Y-41668500D02*
G75*
G03*
X78388500Y-41668500I700000J0D01*
G01*
X78388500Y-41068500D02*
G75*
G03*
X76988500Y-41068500I-700000J0D01*
G01*
X71908500Y-41068500D02*
X71908500Y-41668500D01*
X73308500Y-41068500D02*
X73308500Y-41668500D01*
X71908500Y-41668500D02*
G75*
G03*
X73308500Y-41668500I700000J0D01*
G01*
X73308500Y-41068500D02*
G75*
G03*
X71908500Y-41068500I-700000J0D01*
G01*
X66828500Y-41068500D02*
X66828500Y-41668500D01*
X68228500Y-41068500D02*
X68228500Y-41668500D01*
X66828500Y-41668500D02*
G75*
G03*
X68228500Y-41668500I700000J0D01*
G01*
X68228500Y-41068500D02*
G75*
G03*
X66828500Y-41068500I-700000J0D01*
G01*
X61748500Y-41068500D02*
X61748500Y-41668500D01*
X63148500Y-41068500D02*
X63148500Y-41668500D01*
X61748500Y-41668500D02*
G75*
G03*
X63148500Y-41668500I700000J0D01*
G01*
X63148500Y-41068500D02*
G75*
G03*
X61748500Y-41068500I-700000J0D01*
G01*
X56668500Y-41068500D02*
X56668500Y-41668500D01*
X58068500Y-41068500D02*
X58068500Y-41668500D01*
X56668500Y-41668500D02*
G75*
G03*
X58068500Y-41668500I700000J0D01*
G01*
X58068500Y-41068500D02*
G75*
G03*
X56668500Y-41068500I-700000J0D01*
G01*
X112548500Y-116568500D02*
X112548500Y-117168500D01*
X113948500Y-116568500D02*
X113948500Y-117168500D01*
X112548500Y-117168500D02*
G75*
G03*
X113948500Y-117168500I700000J0D01*
G01*
X113948500Y-116568500D02*
G75*
G03*
X112548500Y-116568500I-700000J0D01*
G01*
X107468500Y-116568500D02*
X107468500Y-117168500D01*
X108868500Y-116568500D02*
X108868500Y-117168500D01*
X107468500Y-117168500D02*
G75*
G03*
X108868500Y-117168500I700000J0D01*
G01*
X108868500Y-116568500D02*
G75*
G03*
X107468500Y-116568500I-700000J0D01*
G01*
X102388500Y-116568500D02*
X102388500Y-117168500D01*
X103788500Y-116568500D02*
X103788500Y-117168500D01*
X102388500Y-117168500D02*
G75*
G03*
X103788500Y-117168500I700000J0D01*
G01*
X103788500Y-116568500D02*
G75*
G03*
X102388500Y-116568500I-700000J0D01*
G01*
X97308500Y-116568500D02*
X97308500Y-117168500D01*
X98708500Y-116568500D02*
X98708500Y-117168500D01*
X97308500Y-117168500D02*
G75*
G03*
X98708500Y-117168500I700000J0D01*
G01*
X98708500Y-116568500D02*
G75*
G03*
X97308500Y-116568500I-700000J0D01*
G01*
X92228500Y-116568500D02*
X92228500Y-117168500D01*
X93628500Y-116568500D02*
X93628500Y-117168500D01*
X92228500Y-117168500D02*
G75*
G03*
X93628500Y-117168500I700000J0D01*
G01*
X93628500Y-116568500D02*
G75*
G03*
X92228500Y-116568500I-700000J0D01*
G01*
X87148500Y-116568500D02*
X87148500Y-117168500D01*
X88548500Y-116568500D02*
X88548500Y-117168500D01*
X87148500Y-117168500D02*
G75*
G03*
X88548500Y-117168500I700000J0D01*
G01*
X88548500Y-116568500D02*
G75*
G03*
X87148500Y-116568500I-700000J0D01*
G01*
X82068500Y-116568500D02*
X82068500Y-117168500D01*
X83468500Y-116568500D02*
X83468500Y-117168500D01*
X82068500Y-117168500D02*
G75*
G03*
X83468500Y-117168500I700000J0D01*
G01*
X83468500Y-116568500D02*
G75*
G03*
X82068500Y-116568500I-700000J0D01*
G01*
X76988500Y-116568500D02*
X76988500Y-117168500D01*
X78388500Y-116568500D02*
X78388500Y-117168500D01*
X76988500Y-117168500D02*
G75*
G03*
X78388500Y-117168500I700000J0D01*
G01*
X78388500Y-116568500D02*
G75*
G03*
X76988500Y-116568500I-700000J0D01*
G01*
X71908500Y-116568500D02*
X71908500Y-117168500D01*
X73308500Y-116568500D02*
X73308500Y-117168500D01*
X71908500Y-117168500D02*
G75*
G03*
X73308500Y-117168500I700000J0D01*
G01*
X73308500Y-116568500D02*
G75*
G03*
X71908500Y-116568500I-700000J0D01*
G01*
X66828500Y-116568500D02*
X66828500Y-117168500D01*
X68228500Y-116568500D02*
X68228500Y-117168500D01*
X66828500Y-117168500D02*
G75*
G03*
X68228500Y-117168500I700000J0D01*
G01*
X68228500Y-116568500D02*
G75*
G03*
X66828500Y-116568500I-700000J0D01*
G01*
X61748500Y-116568500D02*
X61748500Y-117168500D01*
X63148500Y-116568500D02*
X63148500Y-117168500D01*
X61748500Y-117168500D02*
G75*
G03*
X63148500Y-117168500I700000J0D01*
G01*
X63148500Y-116568500D02*
G75*
G03*
X61748500Y-116568500I-700000J0D01*
G01*
X56668500Y-116568500D02*
X56668500Y-117168500D01*
X58068500Y-116568500D02*
X58068500Y-117168500D01*
X56668500Y-117168500D02*
G75*
G03*
X58068500Y-117168500I700000J0D01*
G01*
X58068500Y-116568500D02*
G75*
G03*
X56668500Y-116568500I-700000J0D01*
G01*
D12*
X63070404Y-120570880D02*
X63070404Y-121380404D01*
X63118023Y-121475642D01*
X63165642Y-121523261D01*
X63260880Y-121570880D01*
X63451357Y-121570880D01*
X63546595Y-121523261D01*
X63594214Y-121475642D01*
X63641833Y-121380404D01*
X63641833Y-120570880D01*
X64641833Y-121570880D02*
X64070404Y-121570880D01*
X64356119Y-121570880D02*
X64356119Y-120570880D01*
X64260880Y-120713738D01*
X64165642Y-120808976D01*
X64070404Y-120856595D01*
X65594214Y-121570880D02*
X65022785Y-121570880D01*
X65308500Y-121570880D02*
X65308500Y-120570880D01*
X65213261Y-120713738D01*
X65118023Y-120808976D01*
X65022785Y-120856595D01*
X69287142Y-67066666D02*
X69334761Y-67114285D01*
X69382380Y-67257142D01*
X69382380Y-67352380D01*
X69334761Y-67495238D01*
X69239523Y-67590476D01*
X69144285Y-67638095D01*
X68953809Y-67685714D01*
X68810952Y-67685714D01*
X68620476Y-67638095D01*
X68525238Y-67590476D01*
X68430000Y-67495238D01*
X68382380Y-67352380D01*
X68382380Y-67257142D01*
X68430000Y-67114285D01*
X68477619Y-67066666D01*
X68382380Y-66209523D02*
X68382380Y-66400000D01*
X68430000Y-66495238D01*
X68477619Y-66542857D01*
X68620476Y-66638095D01*
X68810952Y-66685714D01*
X69191904Y-66685714D01*
X69287142Y-66638095D01*
X69334761Y-66590476D01*
X69382380Y-66495238D01*
X69382380Y-66304761D01*
X69334761Y-66209523D01*
X69287142Y-66161904D01*
X69191904Y-66114285D01*
X68953809Y-66114285D01*
X68858571Y-66161904D01*
X68810952Y-66209523D01*
X68763333Y-66304761D01*
X68763333Y-66495238D01*
X68810952Y-66590476D01*
X68858571Y-66638095D01*
X68953809Y-66685714D01*
X69133333Y-80957142D02*
X69085714Y-81004761D01*
X68942857Y-81052380D01*
X68847619Y-81052380D01*
X68704761Y-81004761D01*
X68609523Y-80909523D01*
X68561904Y-80814285D01*
X68514285Y-80623809D01*
X68514285Y-80480952D01*
X68561904Y-80290476D01*
X68609523Y-80195238D01*
X68704761Y-80100000D01*
X68847619Y-80052380D01*
X68942857Y-80052380D01*
X69085714Y-80100000D01*
X69133333Y-80147619D01*
X70038095Y-80052380D02*
X69561904Y-80052380D01*
X69514285Y-80528571D01*
X69561904Y-80480952D01*
X69657142Y-80433333D01*
X69895238Y-80433333D01*
X69990476Y-80480952D01*
X70038095Y-80528571D01*
X70085714Y-80623809D01*
X70085714Y-80861904D01*
X70038095Y-80957142D01*
X69990476Y-81004761D01*
X69895238Y-81052380D01*
X69657142Y-81052380D01*
X69561904Y-81004761D01*
X69514285Y-80957142D01*
X66561904Y-72152380D02*
X66561904Y-72961904D01*
X66609523Y-73057142D01*
X66657142Y-73104761D01*
X66752380Y-73152380D01*
X66942857Y-73152380D01*
X67038095Y-73104761D01*
X67085714Y-73057142D01*
X67133333Y-72961904D01*
X67133333Y-72152380D01*
X68133333Y-73152380D02*
X67561904Y-73152380D01*
X67847619Y-73152380D02*
X67847619Y-72152380D01*
X67752380Y-72295238D01*
X67657142Y-72390476D01*
X67561904Y-72438095D01*
X68466666Y-72152380D02*
X69085714Y-72152380D01*
X68752380Y-72533333D01*
X68895238Y-72533333D01*
X68990476Y-72580952D01*
X69038095Y-72628571D01*
X69085714Y-72723809D01*
X69085714Y-72961904D01*
X69038095Y-73057142D01*
X68990476Y-73104761D01*
X68895238Y-73152380D01*
X68609523Y-73152380D01*
X68514285Y-73104761D01*
X68466666Y-73057142D01*
X70538095Y-76152380D02*
X71109523Y-76152380D01*
X70823809Y-77152380D02*
X70823809Y-76152380D01*
X71442857Y-77152380D02*
X71442857Y-76152380D01*
X71823809Y-76152380D01*
X71919047Y-76200000D01*
X71966666Y-76247619D01*
X72014285Y-76342857D01*
X72014285Y-76485714D01*
X71966666Y-76580952D01*
X71919047Y-76628571D01*
X71823809Y-76676190D01*
X71442857Y-76676190D01*
X72966666Y-77152380D02*
X72395238Y-77152380D01*
X72680952Y-77152380D02*
X72680952Y-76152380D01*
X72585714Y-76295238D01*
X72490476Y-76390476D01*
X72395238Y-76438095D01*
X116257142Y-60252380D02*
X115923809Y-59776190D01*
X115685714Y-60252380D02*
X115685714Y-59252380D01*
X116066666Y-59252380D01*
X116161904Y-59300000D01*
X116209523Y-59347619D01*
X116257142Y-59442857D01*
X116257142Y-59585714D01*
X116209523Y-59680952D01*
X116161904Y-59728571D01*
X116066666Y-59776190D01*
X115685714Y-59776190D01*
X116590476Y-59252380D02*
X117209523Y-59252380D01*
X116876190Y-59633333D01*
X117019047Y-59633333D01*
X117114285Y-59680952D01*
X117161904Y-59728571D01*
X117209523Y-59823809D01*
X117209523Y-60061904D01*
X117161904Y-60157142D01*
X117114285Y-60204761D01*
X117019047Y-60252380D01*
X116733333Y-60252380D01*
X116638095Y-60204761D01*
X116590476Y-60157142D01*
X117542857Y-59252380D02*
X118161904Y-59252380D01*
X117828571Y-59633333D01*
X117971428Y-59633333D01*
X118066666Y-59680952D01*
X118114285Y-59728571D01*
X118161904Y-59823809D01*
X118161904Y-60061904D01*
X118114285Y-60157142D01*
X118066666Y-60204761D01*
X117971428Y-60252380D01*
X117685714Y-60252380D01*
X117590476Y-60204761D01*
X117542857Y-60157142D01*
X111457142Y-60152380D02*
X111123809Y-59676190D01*
X110885714Y-60152380D02*
X110885714Y-59152380D01*
X111266666Y-59152380D01*
X111361904Y-59200000D01*
X111409523Y-59247619D01*
X111457142Y-59342857D01*
X111457142Y-59485714D01*
X111409523Y-59580952D01*
X111361904Y-59628571D01*
X111266666Y-59676190D01*
X110885714Y-59676190D01*
X111790476Y-59152380D02*
X112409523Y-59152380D01*
X112076190Y-59533333D01*
X112219047Y-59533333D01*
X112314285Y-59580952D01*
X112361904Y-59628571D01*
X112409523Y-59723809D01*
X112409523Y-59961904D01*
X112361904Y-60057142D01*
X112314285Y-60104761D01*
X112219047Y-60152380D01*
X111933333Y-60152380D01*
X111838095Y-60104761D01*
X111790476Y-60057142D01*
X112790476Y-59247619D02*
X112838095Y-59200000D01*
X112933333Y-59152380D01*
X113171428Y-59152380D01*
X113266666Y-59200000D01*
X113314285Y-59247619D01*
X113361904Y-59342857D01*
X113361904Y-59438095D01*
X113314285Y-59580952D01*
X112742857Y-60152380D01*
X113361904Y-60152380D01*
X71257142Y-70952380D02*
X70923809Y-70476190D01*
X70685714Y-70952380D02*
X70685714Y-69952380D01*
X71066666Y-69952380D01*
X71161904Y-70000000D01*
X71209523Y-70047619D01*
X71257142Y-70142857D01*
X71257142Y-70285714D01*
X71209523Y-70380952D01*
X71161904Y-70428571D01*
X71066666Y-70476190D01*
X70685714Y-70476190D01*
X71590476Y-69952380D02*
X72209523Y-69952380D01*
X71876190Y-70333333D01*
X72019047Y-70333333D01*
X72114285Y-70380952D01*
X72161904Y-70428571D01*
X72209523Y-70523809D01*
X72209523Y-70761904D01*
X72161904Y-70857142D01*
X72114285Y-70904761D01*
X72019047Y-70952380D01*
X71733333Y-70952380D01*
X71638095Y-70904761D01*
X71590476Y-70857142D01*
X73161904Y-70952380D02*
X72590476Y-70952380D01*
X72876190Y-70952380D02*
X72876190Y-69952380D01*
X72780952Y-70095238D01*
X72685714Y-70190476D01*
X72590476Y-70238095D01*
X113085714Y-65052380D02*
X113085714Y-64052380D01*
X113323809Y-64052380D01*
X113466666Y-64100000D01*
X113561904Y-64195238D01*
X113609523Y-64290476D01*
X113657142Y-64480952D01*
X113657142Y-64623809D01*
X113609523Y-64814285D01*
X113561904Y-64909523D01*
X113466666Y-65004761D01*
X113323809Y-65052380D01*
X113085714Y-65052380D01*
X114609523Y-65052380D02*
X114038095Y-65052380D01*
X114323809Y-65052380D02*
X114323809Y-64052380D01*
X114228571Y-64195238D01*
X114133333Y-64290476D01*
X114038095Y-64338095D01*
X115466666Y-64052380D02*
X115276190Y-64052380D01*
X115180952Y-64100000D01*
X115133333Y-64147619D01*
X115038095Y-64290476D01*
X114990476Y-64480952D01*
X114990476Y-64861904D01*
X115038095Y-64957142D01*
X115085714Y-65004761D01*
X115180952Y-65052380D01*
X115371428Y-65052380D01*
X115466666Y-65004761D01*
X115514285Y-64957142D01*
X115561904Y-64861904D01*
X115561904Y-64623809D01*
X115514285Y-64528571D01*
X115466666Y-64480952D01*
X115371428Y-64433333D01*
X115180952Y-64433333D01*
X115085714Y-64480952D01*
X115038095Y-64528571D01*
X114990476Y-64623809D01*
X108385714Y-65052380D02*
X108385714Y-64052380D01*
X108623809Y-64052380D01*
X108766666Y-64100000D01*
X108861904Y-64195238D01*
X108909523Y-64290476D01*
X108957142Y-64480952D01*
X108957142Y-64623809D01*
X108909523Y-64814285D01*
X108861904Y-64909523D01*
X108766666Y-65004761D01*
X108623809Y-65052380D01*
X108385714Y-65052380D01*
X109909523Y-65052380D02*
X109338095Y-65052380D01*
X109623809Y-65052380D02*
X109623809Y-64052380D01*
X109528571Y-64195238D01*
X109433333Y-64290476D01*
X109338095Y-64338095D01*
X110814285Y-64052380D02*
X110338095Y-64052380D01*
X110290476Y-64528571D01*
X110338095Y-64480952D01*
X110433333Y-64433333D01*
X110671428Y-64433333D01*
X110766666Y-64480952D01*
X110814285Y-64528571D01*
X110861904Y-64623809D01*
X110861904Y-64861904D01*
X110814285Y-64957142D01*
X110766666Y-65004761D01*
X110671428Y-65052380D01*
X110433333Y-65052380D01*
X110338095Y-65004761D01*
X110290476Y-64957142D01*
X63733333Y-75057142D02*
X63685714Y-75104761D01*
X63542857Y-75152380D01*
X63447619Y-75152380D01*
X63304761Y-75104761D01*
X63209523Y-75009523D01*
X63161904Y-74914285D01*
X63114285Y-74723809D01*
X63114285Y-74580952D01*
X63161904Y-74390476D01*
X63209523Y-74295238D01*
X63304761Y-74200000D01*
X63447619Y-74152380D01*
X63542857Y-74152380D01*
X63685714Y-74200000D01*
X63733333Y-74247619D01*
X64685714Y-75152380D02*
X64114285Y-75152380D01*
X64400000Y-75152380D02*
X64400000Y-74152380D01*
X64304761Y-74295238D01*
X64209523Y-74390476D01*
X64114285Y-74438095D01*
X64114285Y-60028571D02*
X64257142Y-60076190D01*
X64304761Y-60123809D01*
X64352380Y-60219047D01*
X64352380Y-60361904D01*
X64304761Y-60457142D01*
X64257142Y-60504761D01*
X64161904Y-60552380D01*
X63780952Y-60552380D01*
X63780952Y-59552380D01*
X64114285Y-59552380D01*
X64209523Y-59600000D01*
X64257142Y-59647619D01*
X64304761Y-59742857D01*
X64304761Y-59838095D01*
X64257142Y-59933333D01*
X64209523Y-59980952D01*
X64114285Y-60028571D01*
X63780952Y-60028571D01*
X64638095Y-59552380D02*
X65209523Y-59552380D01*
X64923809Y-60552380D02*
X64923809Y-59552380D01*
X66066666Y-60552380D02*
X65495238Y-60552380D01*
X65780952Y-60552380D02*
X65780952Y-59552380D01*
X65685714Y-59695238D01*
X65590476Y-59790476D01*
X65495238Y-59838095D01*
X52733333Y-78652380D02*
X52257142Y-78652380D01*
X52257142Y-77652380D01*
X53114285Y-78652380D02*
X53304761Y-78652380D01*
X53400000Y-78604761D01*
X53447619Y-78557142D01*
X53542857Y-78414285D01*
X53590476Y-78223809D01*
X53590476Y-77842857D01*
X53542857Y-77747619D01*
X53495238Y-77700000D01*
X53400000Y-77652380D01*
X53209523Y-77652380D01*
X53114285Y-77700000D01*
X53066666Y-77747619D01*
X53019047Y-77842857D01*
X53019047Y-78080952D01*
X53066666Y-78176190D01*
X53114285Y-78223809D01*
X53209523Y-78271428D01*
X53400000Y-78271428D01*
X53495238Y-78223809D01*
X53542857Y-78176190D01*
X53590476Y-78080952D01*
X112915166Y-64810880D02*
X112915166Y-65525166D01*
X112867547Y-65668023D01*
X112772309Y-65763261D01*
X112629452Y-65810880D01*
X112534214Y-65810880D01*
X113915166Y-65810880D02*
X113343738Y-65810880D01*
X113629452Y-65810880D02*
X113629452Y-64810880D01*
X113534214Y-64953738D01*
X113438976Y-65048976D01*
X113343738Y-65096595D01*
X77857142Y-64952380D02*
X77523809Y-64476190D01*
X77285714Y-64952380D02*
X77285714Y-63952380D01*
X77666666Y-63952380D01*
X77761904Y-64000000D01*
X77809523Y-64047619D01*
X77857142Y-64142857D01*
X77857142Y-64285714D01*
X77809523Y-64380952D01*
X77761904Y-64428571D01*
X77666666Y-64476190D01*
X77285714Y-64476190D01*
X78190476Y-63952380D02*
X78809523Y-63952380D01*
X78476190Y-64333333D01*
X78619047Y-64333333D01*
X78714285Y-64380952D01*
X78761904Y-64428571D01*
X78809523Y-64523809D01*
X78809523Y-64761904D01*
X78761904Y-64857142D01*
X78714285Y-64904761D01*
X78619047Y-64952380D01*
X78333333Y-64952380D01*
X78238095Y-64904761D01*
X78190476Y-64857142D01*
X79428571Y-63952380D02*
X79523809Y-63952380D01*
X79619047Y-64000000D01*
X79666666Y-64047619D01*
X79714285Y-64142857D01*
X79761904Y-64333333D01*
X79761904Y-64571428D01*
X79714285Y-64761904D01*
X79666666Y-64857142D01*
X79619047Y-64904761D01*
X79523809Y-64952380D01*
X79428571Y-64952380D01*
X79333333Y-64904761D01*
X79285714Y-64857142D01*
X79238095Y-64761904D01*
X79190476Y-64571428D01*
X79190476Y-64333333D01*
X79238095Y-64142857D01*
X79285714Y-64047619D01*
X79333333Y-64000000D01*
X79428571Y-63952380D01*
X59157142Y-77052380D02*
X58823809Y-76576190D01*
X58585714Y-77052380D02*
X58585714Y-76052380D01*
X58966666Y-76052380D01*
X59061904Y-76100000D01*
X59109523Y-76147619D01*
X59157142Y-76242857D01*
X59157142Y-76385714D01*
X59109523Y-76480952D01*
X59061904Y-76528571D01*
X58966666Y-76576190D01*
X58585714Y-76576190D01*
X59538095Y-76147619D02*
X59585714Y-76100000D01*
X59680952Y-76052380D01*
X59919047Y-76052380D01*
X60014285Y-76100000D01*
X60061904Y-76147619D01*
X60109523Y-76242857D01*
X60109523Y-76338095D01*
X60061904Y-76480952D01*
X59490476Y-77052380D01*
X60109523Y-77052380D01*
X60585714Y-77052380D02*
X60776190Y-77052380D01*
X60871428Y-77004761D01*
X60919047Y-76957142D01*
X61014285Y-76814285D01*
X61061904Y-76623809D01*
X61061904Y-76242857D01*
X61014285Y-76147619D01*
X60966666Y-76100000D01*
X60871428Y-76052380D01*
X60680952Y-76052380D01*
X60585714Y-76100000D01*
X60538095Y-76147619D01*
X60490476Y-76242857D01*
X60490476Y-76480952D01*
X60538095Y-76576190D01*
X60585714Y-76623809D01*
X60680952Y-76671428D01*
X60871428Y-76671428D01*
X60966666Y-76623809D01*
X61014285Y-76576190D01*
X61061904Y-76480952D01*
X97937142Y-49502380D02*
X97603809Y-49026190D01*
X97365714Y-49502380D02*
X97365714Y-48502380D01*
X97746666Y-48502380D01*
X97841904Y-48550000D01*
X97889523Y-48597619D01*
X97937142Y-48692857D01*
X97937142Y-48835714D01*
X97889523Y-48930952D01*
X97841904Y-48978571D01*
X97746666Y-49026190D01*
X97365714Y-49026190D01*
X98318095Y-48597619D02*
X98365714Y-48550000D01*
X98460952Y-48502380D01*
X98699047Y-48502380D01*
X98794285Y-48550000D01*
X98841904Y-48597619D01*
X98889523Y-48692857D01*
X98889523Y-48788095D01*
X98841904Y-48930952D01*
X98270476Y-49502380D01*
X98889523Y-49502380D01*
X99460952Y-48930952D02*
X99365714Y-48883333D01*
X99318095Y-48835714D01*
X99270476Y-48740476D01*
X99270476Y-48692857D01*
X99318095Y-48597619D01*
X99365714Y-48550000D01*
X99460952Y-48502380D01*
X99651428Y-48502380D01*
X99746666Y-48550000D01*
X99794285Y-48597619D01*
X99841904Y-48692857D01*
X99841904Y-48740476D01*
X99794285Y-48835714D01*
X99746666Y-48883333D01*
X99651428Y-48930952D01*
X99460952Y-48930952D01*
X99365714Y-48978571D01*
X99318095Y-49026190D01*
X99270476Y-49121428D01*
X99270476Y-49311904D01*
X99318095Y-49407142D01*
X99365714Y-49454761D01*
X99460952Y-49502380D01*
X99651428Y-49502380D01*
X99746666Y-49454761D01*
X99794285Y-49407142D01*
X99841904Y-49311904D01*
X99841904Y-49121428D01*
X99794285Y-49026190D01*
X99746666Y-48978571D01*
X99651428Y-48930952D01*
X115357142Y-96452380D02*
X115023809Y-95976190D01*
X114785714Y-96452380D02*
X114785714Y-95452380D01*
X115166666Y-95452380D01*
X115261904Y-95500000D01*
X115309523Y-95547619D01*
X115357142Y-95642857D01*
X115357142Y-95785714D01*
X115309523Y-95880952D01*
X115261904Y-95928571D01*
X115166666Y-95976190D01*
X114785714Y-95976190D01*
X115738095Y-95547619D02*
X115785714Y-95500000D01*
X115880952Y-95452380D01*
X116119047Y-95452380D01*
X116214285Y-95500000D01*
X116261904Y-95547619D01*
X116309523Y-95642857D01*
X116309523Y-95738095D01*
X116261904Y-95880952D01*
X115690476Y-96452380D01*
X116309523Y-96452380D01*
X116642857Y-95452380D02*
X117309523Y-95452380D01*
X116880952Y-96452380D01*
X111335642Y-92952380D02*
X111002309Y-92476190D01*
X110764214Y-92952380D02*
X110764214Y-91952380D01*
X111145166Y-91952380D01*
X111240404Y-92000000D01*
X111288023Y-92047619D01*
X111335642Y-92142857D01*
X111335642Y-92285714D01*
X111288023Y-92380952D01*
X111240404Y-92428571D01*
X111145166Y-92476190D01*
X110764214Y-92476190D01*
X111716595Y-92047619D02*
X111764214Y-92000000D01*
X111859452Y-91952380D01*
X112097547Y-91952380D01*
X112192785Y-92000000D01*
X112240404Y-92047619D01*
X112288023Y-92142857D01*
X112288023Y-92238095D01*
X112240404Y-92380952D01*
X111668976Y-92952380D01*
X112288023Y-92952380D01*
X113145166Y-91952380D02*
X112954690Y-91952380D01*
X112859452Y-92000000D01*
X112811833Y-92047619D01*
X112716595Y-92190476D01*
X112668976Y-92380952D01*
X112668976Y-92761904D01*
X112716595Y-92857142D01*
X112764214Y-92904761D01*
X112859452Y-92952380D01*
X113049928Y-92952380D01*
X113145166Y-92904761D01*
X113192785Y-92857142D01*
X113240404Y-92761904D01*
X113240404Y-92523809D01*
X113192785Y-92428571D01*
X113145166Y-92380952D01*
X113049928Y-92333333D01*
X112859452Y-92333333D01*
X112764214Y-92380952D01*
X112716595Y-92428571D01*
X112668976Y-92523809D01*
X100857142Y-91952380D02*
X100523809Y-91476190D01*
X100285714Y-91952380D02*
X100285714Y-90952380D01*
X100666666Y-90952380D01*
X100761904Y-91000000D01*
X100809523Y-91047619D01*
X100857142Y-91142857D01*
X100857142Y-91285714D01*
X100809523Y-91380952D01*
X100761904Y-91428571D01*
X100666666Y-91476190D01*
X100285714Y-91476190D01*
X101238095Y-91047619D02*
X101285714Y-91000000D01*
X101380952Y-90952380D01*
X101619047Y-90952380D01*
X101714285Y-91000000D01*
X101761904Y-91047619D01*
X101809523Y-91142857D01*
X101809523Y-91238095D01*
X101761904Y-91380952D01*
X101190476Y-91952380D01*
X101809523Y-91952380D01*
X102714285Y-90952380D02*
X102238095Y-90952380D01*
X102190476Y-91428571D01*
X102238095Y-91380952D01*
X102333333Y-91333333D01*
X102571428Y-91333333D01*
X102666666Y-91380952D01*
X102714285Y-91428571D01*
X102761904Y-91523809D01*
X102761904Y-91761904D01*
X102714285Y-91857142D01*
X102666666Y-91904761D01*
X102571428Y-91952380D01*
X102333333Y-91952380D01*
X102238095Y-91904761D01*
X102190476Y-91857142D01*
X103857142Y-91952380D02*
X103523809Y-91476190D01*
X103285714Y-91952380D02*
X103285714Y-90952380D01*
X103666666Y-90952380D01*
X103761904Y-91000000D01*
X103809523Y-91047619D01*
X103857142Y-91142857D01*
X103857142Y-91285714D01*
X103809523Y-91380952D01*
X103761904Y-91428571D01*
X103666666Y-91476190D01*
X103285714Y-91476190D01*
X104238095Y-91047619D02*
X104285714Y-91000000D01*
X104380952Y-90952380D01*
X104619047Y-90952380D01*
X104714285Y-91000000D01*
X104761904Y-91047619D01*
X104809523Y-91142857D01*
X104809523Y-91238095D01*
X104761904Y-91380952D01*
X104190476Y-91952380D01*
X104809523Y-91952380D01*
X105666666Y-91285714D02*
X105666666Y-91952380D01*
X105428571Y-90904761D02*
X105190476Y-91619047D01*
X105809523Y-91619047D01*
X66957142Y-63952380D02*
X66623809Y-63476190D01*
X66385714Y-63952380D02*
X66385714Y-62952380D01*
X66766666Y-62952380D01*
X66861904Y-63000000D01*
X66909523Y-63047619D01*
X66957142Y-63142857D01*
X66957142Y-63285714D01*
X66909523Y-63380952D01*
X66861904Y-63428571D01*
X66766666Y-63476190D01*
X66385714Y-63476190D01*
X67338095Y-63047619D02*
X67385714Y-63000000D01*
X67480952Y-62952380D01*
X67719047Y-62952380D01*
X67814285Y-63000000D01*
X67861904Y-63047619D01*
X67909523Y-63142857D01*
X67909523Y-63238095D01*
X67861904Y-63380952D01*
X67290476Y-63952380D01*
X67909523Y-63952380D01*
X68242857Y-62952380D02*
X68861904Y-62952380D01*
X68528571Y-63333333D01*
X68671428Y-63333333D01*
X68766666Y-63380952D01*
X68814285Y-63428571D01*
X68861904Y-63523809D01*
X68861904Y-63761904D01*
X68814285Y-63857142D01*
X68766666Y-63904761D01*
X68671428Y-63952380D01*
X68385714Y-63952380D01*
X68290476Y-63904761D01*
X68242857Y-63857142D01*
X79357142Y-87952380D02*
X79023809Y-87476190D01*
X78785714Y-87952380D02*
X78785714Y-86952380D01*
X79166666Y-86952380D01*
X79261904Y-87000000D01*
X79309523Y-87047619D01*
X79357142Y-87142857D01*
X79357142Y-87285714D01*
X79309523Y-87380952D01*
X79261904Y-87428571D01*
X79166666Y-87476190D01*
X78785714Y-87476190D01*
X79738095Y-87047619D02*
X79785714Y-87000000D01*
X79880952Y-86952380D01*
X80119047Y-86952380D01*
X80214285Y-87000000D01*
X80261904Y-87047619D01*
X80309523Y-87142857D01*
X80309523Y-87238095D01*
X80261904Y-87380952D01*
X79690476Y-87952380D01*
X80309523Y-87952380D01*
X80690476Y-87047619D02*
X80738095Y-87000000D01*
X80833333Y-86952380D01*
X81071428Y-86952380D01*
X81166666Y-87000000D01*
X81214285Y-87047619D01*
X81261904Y-87142857D01*
X81261904Y-87238095D01*
X81214285Y-87380952D01*
X80642857Y-87952380D01*
X81261904Y-87952380D01*
X99857142Y-90452380D02*
X99523809Y-89976190D01*
X99285714Y-90452380D02*
X99285714Y-89452380D01*
X99666666Y-89452380D01*
X99761904Y-89500000D01*
X99809523Y-89547619D01*
X99857142Y-89642857D01*
X99857142Y-89785714D01*
X99809523Y-89880952D01*
X99761904Y-89928571D01*
X99666666Y-89976190D01*
X99285714Y-89976190D01*
X100238095Y-89547619D02*
X100285714Y-89500000D01*
X100380952Y-89452380D01*
X100619047Y-89452380D01*
X100714285Y-89500000D01*
X100761904Y-89547619D01*
X100809523Y-89642857D01*
X100809523Y-89738095D01*
X100761904Y-89880952D01*
X100190476Y-90452380D01*
X100809523Y-90452380D01*
X101761904Y-90452380D02*
X101190476Y-90452380D01*
X101476190Y-90452380D02*
X101476190Y-89452380D01*
X101380952Y-89595238D01*
X101285714Y-89690476D01*
X101190476Y-89738095D01*
X108357142Y-89952380D02*
X108023809Y-89476190D01*
X107785714Y-89952380D02*
X107785714Y-88952380D01*
X108166666Y-88952380D01*
X108261904Y-89000000D01*
X108309523Y-89047619D01*
X108357142Y-89142857D01*
X108357142Y-89285714D01*
X108309523Y-89380952D01*
X108261904Y-89428571D01*
X108166666Y-89476190D01*
X107785714Y-89476190D01*
X108738095Y-89047619D02*
X108785714Y-89000000D01*
X108880952Y-88952380D01*
X109119047Y-88952380D01*
X109214285Y-89000000D01*
X109261904Y-89047619D01*
X109309523Y-89142857D01*
X109309523Y-89238095D01*
X109261904Y-89380952D01*
X108690476Y-89952380D01*
X109309523Y-89952380D01*
X109928571Y-88952380D02*
X110023809Y-88952380D01*
X110119047Y-89000000D01*
X110166666Y-89047619D01*
X110214285Y-89142857D01*
X110261904Y-89333333D01*
X110261904Y-89571428D01*
X110214285Y-89761904D01*
X110166666Y-89857142D01*
X110119047Y-89904761D01*
X110023809Y-89952380D01*
X109928571Y-89952380D01*
X109833333Y-89904761D01*
X109785714Y-89857142D01*
X109738095Y-89761904D01*
X109690476Y-89571428D01*
X109690476Y-89333333D01*
X109738095Y-89142857D01*
X109785714Y-89047619D01*
X109833333Y-89000000D01*
X109928571Y-88952380D01*
X91750142Y-65760880D02*
X91416809Y-65284690D01*
X91178714Y-65760880D02*
X91178714Y-64760880D01*
X91559666Y-64760880D01*
X91654904Y-64808500D01*
X91702523Y-64856119D01*
X91750142Y-64951357D01*
X91750142Y-65094214D01*
X91702523Y-65189452D01*
X91654904Y-65237071D01*
X91559666Y-65284690D01*
X91178714Y-65284690D01*
X92702523Y-65760880D02*
X92131095Y-65760880D01*
X92416809Y-65760880D02*
X92416809Y-64760880D01*
X92321571Y-64903738D01*
X92226333Y-64998976D01*
X92131095Y-65046595D01*
X93178714Y-65760880D02*
X93369190Y-65760880D01*
X93464428Y-65713261D01*
X93512047Y-65665642D01*
X93607285Y-65522785D01*
X93654904Y-65332309D01*
X93654904Y-64951357D01*
X93607285Y-64856119D01*
X93559666Y-64808500D01*
X93464428Y-64760880D01*
X93273952Y-64760880D01*
X93178714Y-64808500D01*
X93131095Y-64856119D01*
X93083476Y-64951357D01*
X93083476Y-65189452D01*
X93131095Y-65284690D01*
X93178714Y-65332309D01*
X93273952Y-65379928D01*
X93464428Y-65379928D01*
X93559666Y-65332309D01*
X93607285Y-65284690D01*
X93654904Y-65189452D01*
X88357142Y-64952380D02*
X88023809Y-64476190D01*
X87785714Y-64952380D02*
X87785714Y-63952380D01*
X88166666Y-63952380D01*
X88261904Y-64000000D01*
X88309523Y-64047619D01*
X88357142Y-64142857D01*
X88357142Y-64285714D01*
X88309523Y-64380952D01*
X88261904Y-64428571D01*
X88166666Y-64476190D01*
X87785714Y-64476190D01*
X89309523Y-64952380D02*
X88738095Y-64952380D01*
X89023809Y-64952380D02*
X89023809Y-63952380D01*
X88928571Y-64095238D01*
X88833333Y-64190476D01*
X88738095Y-64238095D01*
X89880952Y-64380952D02*
X89785714Y-64333333D01*
X89738095Y-64285714D01*
X89690476Y-64190476D01*
X89690476Y-64142857D01*
X89738095Y-64047619D01*
X89785714Y-64000000D01*
X89880952Y-63952380D01*
X90071428Y-63952380D01*
X90166666Y-64000000D01*
X90214285Y-64047619D01*
X90261904Y-64142857D01*
X90261904Y-64190476D01*
X90214285Y-64285714D01*
X90166666Y-64333333D01*
X90071428Y-64380952D01*
X89880952Y-64380952D01*
X89785714Y-64428571D01*
X89738095Y-64476190D01*
X89690476Y-64571428D01*
X89690476Y-64761904D01*
X89738095Y-64857142D01*
X89785714Y-64904761D01*
X89880952Y-64952380D01*
X90071428Y-64952380D01*
X90166666Y-64904761D01*
X90214285Y-64857142D01*
X90261904Y-64761904D01*
X90261904Y-64571428D01*
X90214285Y-64476190D01*
X90166666Y-64428571D01*
X90071428Y-64380952D01*
X72732642Y-64952380D02*
X72399309Y-64476190D01*
X72161214Y-64952380D02*
X72161214Y-63952380D01*
X72542166Y-63952380D01*
X72637404Y-64000000D01*
X72685023Y-64047619D01*
X72732642Y-64142857D01*
X72732642Y-64285714D01*
X72685023Y-64380952D01*
X72637404Y-64428571D01*
X72542166Y-64476190D01*
X72161214Y-64476190D01*
X73685023Y-64952380D02*
X73113595Y-64952380D01*
X73399309Y-64952380D02*
X73399309Y-63952380D01*
X73304071Y-64095238D01*
X73208833Y-64190476D01*
X73113595Y-64238095D01*
X74018357Y-63952380D02*
X74685023Y-63952380D01*
X74256452Y-64952380D01*
X101227142Y-49452380D02*
X100893809Y-48976190D01*
X100655714Y-49452380D02*
X100655714Y-48452380D01*
X101036666Y-48452380D01*
X101131904Y-48500000D01*
X101179523Y-48547619D01*
X101227142Y-48642857D01*
X101227142Y-48785714D01*
X101179523Y-48880952D01*
X101131904Y-48928571D01*
X101036666Y-48976190D01*
X100655714Y-48976190D01*
X102179523Y-49452380D02*
X101608095Y-49452380D01*
X101893809Y-49452380D02*
X101893809Y-48452380D01*
X101798571Y-48595238D01*
X101703333Y-48690476D01*
X101608095Y-48738095D01*
X103036666Y-48452380D02*
X102846190Y-48452380D01*
X102750952Y-48500000D01*
X102703333Y-48547619D01*
X102608095Y-48690476D01*
X102560476Y-48880952D01*
X102560476Y-49261904D01*
X102608095Y-49357142D01*
X102655714Y-49404761D01*
X102750952Y-49452380D01*
X102941428Y-49452380D01*
X103036666Y-49404761D01*
X103084285Y-49357142D01*
X103131904Y-49261904D01*
X103131904Y-49023809D01*
X103084285Y-48928571D01*
X103036666Y-48880952D01*
X102941428Y-48833333D01*
X102750952Y-48833333D01*
X102655714Y-48880952D01*
X102608095Y-48928571D01*
X102560476Y-49023809D01*
X104857142Y-47952380D02*
X104523809Y-47476190D01*
X104285714Y-47952380D02*
X104285714Y-46952380D01*
X104666666Y-46952380D01*
X104761904Y-47000000D01*
X104809523Y-47047619D01*
X104857142Y-47142857D01*
X104857142Y-47285714D01*
X104809523Y-47380952D01*
X104761904Y-47428571D01*
X104666666Y-47476190D01*
X104285714Y-47476190D01*
X105809523Y-47952380D02*
X105238095Y-47952380D01*
X105523809Y-47952380D02*
X105523809Y-46952380D01*
X105428571Y-47095238D01*
X105333333Y-47190476D01*
X105238095Y-47238095D01*
X106714285Y-46952380D02*
X106238095Y-46952380D01*
X106190476Y-47428571D01*
X106238095Y-47380952D01*
X106333333Y-47333333D01*
X106571428Y-47333333D01*
X106666666Y-47380952D01*
X106714285Y-47428571D01*
X106761904Y-47523809D01*
X106761904Y-47761904D01*
X106714285Y-47857142D01*
X106666666Y-47904761D01*
X106571428Y-47952380D01*
X106333333Y-47952380D01*
X106238095Y-47904761D01*
X106190476Y-47857142D01*
X94857142Y-47952380D02*
X94523809Y-47476190D01*
X94285714Y-47952380D02*
X94285714Y-46952380D01*
X94666666Y-46952380D01*
X94761904Y-47000000D01*
X94809523Y-47047619D01*
X94857142Y-47142857D01*
X94857142Y-47285714D01*
X94809523Y-47380952D01*
X94761904Y-47428571D01*
X94666666Y-47476190D01*
X94285714Y-47476190D01*
X95809523Y-47952380D02*
X95238095Y-47952380D01*
X95523809Y-47952380D02*
X95523809Y-46952380D01*
X95428571Y-47095238D01*
X95333333Y-47190476D01*
X95238095Y-47238095D01*
X96666666Y-47285714D02*
X96666666Y-47952380D01*
X96428571Y-46904761D02*
X96190476Y-47619047D01*
X96809523Y-47619047D01*
X103017142Y-66776880D02*
X102683809Y-66300690D01*
X102445714Y-66776880D02*
X102445714Y-65776880D01*
X102826666Y-65776880D01*
X102921904Y-65824500D01*
X102969523Y-65872119D01*
X103017142Y-65967357D01*
X103017142Y-66110214D01*
X102969523Y-66205452D01*
X102921904Y-66253071D01*
X102826666Y-66300690D01*
X102445714Y-66300690D01*
X103969523Y-66776880D02*
X103398095Y-66776880D01*
X103683809Y-66776880D02*
X103683809Y-65776880D01*
X103588571Y-65919738D01*
X103493333Y-66014976D01*
X103398095Y-66062595D01*
X104302857Y-65776880D02*
X104921904Y-65776880D01*
X104588571Y-66157833D01*
X104731428Y-66157833D01*
X104826666Y-66205452D01*
X104874285Y-66253071D01*
X104921904Y-66348309D01*
X104921904Y-66586404D01*
X104874285Y-66681642D01*
X104826666Y-66729261D01*
X104731428Y-66776880D01*
X104445714Y-66776880D01*
X104350476Y-66729261D01*
X104302857Y-66681642D01*
X96921142Y-66776880D02*
X96587809Y-66300690D01*
X96349714Y-66776880D02*
X96349714Y-65776880D01*
X96730666Y-65776880D01*
X96825904Y-65824500D01*
X96873523Y-65872119D01*
X96921142Y-65967357D01*
X96921142Y-66110214D01*
X96873523Y-66205452D01*
X96825904Y-66253071D01*
X96730666Y-66300690D01*
X96349714Y-66300690D01*
X97873523Y-66776880D02*
X97302095Y-66776880D01*
X97587809Y-66776880D02*
X97587809Y-65776880D01*
X97492571Y-65919738D01*
X97397333Y-66014976D01*
X97302095Y-66062595D01*
X98254476Y-65872119D02*
X98302095Y-65824500D01*
X98397333Y-65776880D01*
X98635428Y-65776880D01*
X98730666Y-65824500D01*
X98778285Y-65872119D01*
X98825904Y-65967357D01*
X98825904Y-66062595D01*
X98778285Y-66205452D01*
X98206857Y-66776880D01*
X98825904Y-66776880D01*
X67157142Y-62352380D02*
X66823809Y-61876190D01*
X66585714Y-62352380D02*
X66585714Y-61352380D01*
X66966666Y-61352380D01*
X67061904Y-61400000D01*
X67109523Y-61447619D01*
X67157142Y-61542857D01*
X67157142Y-61685714D01*
X67109523Y-61780952D01*
X67061904Y-61828571D01*
X66966666Y-61876190D01*
X66585714Y-61876190D01*
X68109523Y-62352380D02*
X67538095Y-62352380D01*
X67823809Y-62352380D02*
X67823809Y-61352380D01*
X67728571Y-61495238D01*
X67633333Y-61590476D01*
X67538095Y-61638095D01*
X69061904Y-62352380D02*
X68490476Y-62352380D01*
X68776190Y-62352380D02*
X68776190Y-61352380D01*
X68680952Y-61495238D01*
X68585714Y-61590476D01*
X68490476Y-61638095D01*
X70957142Y-74052380D02*
X70623809Y-73576190D01*
X70385714Y-74052380D02*
X70385714Y-73052380D01*
X70766666Y-73052380D01*
X70861904Y-73100000D01*
X70909523Y-73147619D01*
X70957142Y-73242857D01*
X70957142Y-73385714D01*
X70909523Y-73480952D01*
X70861904Y-73528571D01*
X70766666Y-73576190D01*
X70385714Y-73576190D01*
X71909523Y-74052380D02*
X71338095Y-74052380D01*
X71623809Y-74052380D02*
X71623809Y-73052380D01*
X71528571Y-73195238D01*
X71433333Y-73290476D01*
X71338095Y-73338095D01*
X72528571Y-73052380D02*
X72623809Y-73052380D01*
X72719047Y-73100000D01*
X72766666Y-73147619D01*
X72814285Y-73242857D01*
X72861904Y-73433333D01*
X72861904Y-73671428D01*
X72814285Y-73861904D01*
X72766666Y-73957142D01*
X72719047Y-74004761D01*
X72623809Y-74052380D01*
X72528571Y-74052380D01*
X72433333Y-74004761D01*
X72385714Y-73957142D01*
X72338095Y-73861904D01*
X72290476Y-73671428D01*
X72290476Y-73433333D01*
X72338095Y-73242857D01*
X72385714Y-73147619D01*
X72433333Y-73100000D01*
X72528571Y-73052380D01*
X83833333Y-64952380D02*
X83500000Y-64476190D01*
X83261904Y-64952380D02*
X83261904Y-63952380D01*
X83642857Y-63952380D01*
X83738095Y-64000000D01*
X83785714Y-64047619D01*
X83833333Y-64142857D01*
X83833333Y-64285714D01*
X83785714Y-64380952D01*
X83738095Y-64428571D01*
X83642857Y-64476190D01*
X83261904Y-64476190D01*
X84309523Y-64952380D02*
X84500000Y-64952380D01*
X84595238Y-64904761D01*
X84642857Y-64857142D01*
X84738095Y-64714285D01*
X84785714Y-64523809D01*
X84785714Y-64142857D01*
X84738095Y-64047619D01*
X84690476Y-64000000D01*
X84595238Y-63952380D01*
X84404761Y-63952380D01*
X84309523Y-64000000D01*
X84261904Y-64047619D01*
X84214285Y-64142857D01*
X84214285Y-64380952D01*
X84261904Y-64476190D01*
X84309523Y-64523809D01*
X84404761Y-64571428D01*
X84595238Y-64571428D01*
X84690476Y-64523809D01*
X84738095Y-64476190D01*
X84785714Y-64380952D01*
X88833333Y-48452380D02*
X88500000Y-47976190D01*
X88261904Y-48452380D02*
X88261904Y-47452380D01*
X88642857Y-47452380D01*
X88738095Y-47500000D01*
X88785714Y-47547619D01*
X88833333Y-47642857D01*
X88833333Y-47785714D01*
X88785714Y-47880952D01*
X88738095Y-47928571D01*
X88642857Y-47976190D01*
X88261904Y-47976190D01*
X89404761Y-47880952D02*
X89309523Y-47833333D01*
X89261904Y-47785714D01*
X89214285Y-47690476D01*
X89214285Y-47642857D01*
X89261904Y-47547619D01*
X89309523Y-47500000D01*
X89404761Y-47452380D01*
X89595238Y-47452380D01*
X89690476Y-47500000D01*
X89738095Y-47547619D01*
X89785714Y-47642857D01*
X89785714Y-47690476D01*
X89738095Y-47785714D01*
X89690476Y-47833333D01*
X89595238Y-47880952D01*
X89404761Y-47880952D01*
X89309523Y-47928571D01*
X89261904Y-47976190D01*
X89214285Y-48071428D01*
X89214285Y-48261904D01*
X89261904Y-48357142D01*
X89309523Y-48404761D01*
X89404761Y-48452380D01*
X89595238Y-48452380D01*
X89690476Y-48404761D01*
X89738095Y-48357142D01*
X89785714Y-48261904D01*
X89785714Y-48071428D01*
X89738095Y-47976190D01*
X89690476Y-47928571D01*
X89595238Y-47880952D01*
X93833333Y-91452380D02*
X93500000Y-90976190D01*
X93261904Y-91452380D02*
X93261904Y-90452380D01*
X93642857Y-90452380D01*
X93738095Y-90500000D01*
X93785714Y-90547619D01*
X93833333Y-90642857D01*
X93833333Y-90785714D01*
X93785714Y-90880952D01*
X93738095Y-90928571D01*
X93642857Y-90976190D01*
X93261904Y-90976190D01*
X94166666Y-90452380D02*
X94833333Y-90452380D01*
X94404761Y-91452380D01*
X91333333Y-91452380D02*
X91000000Y-90976190D01*
X90761904Y-91452380D02*
X90761904Y-90452380D01*
X91142857Y-90452380D01*
X91238095Y-90500000D01*
X91285714Y-90547619D01*
X91333333Y-90642857D01*
X91333333Y-90785714D01*
X91285714Y-90880952D01*
X91238095Y-90928571D01*
X91142857Y-90976190D01*
X90761904Y-90976190D01*
X92190476Y-90452380D02*
X92000000Y-90452380D01*
X91904761Y-90500000D01*
X91857142Y-90547619D01*
X91761904Y-90690476D01*
X91714285Y-90880952D01*
X91714285Y-91261904D01*
X91761904Y-91357142D01*
X91809523Y-91404761D01*
X91904761Y-91452380D01*
X92095238Y-91452380D01*
X92190476Y-91404761D01*
X92238095Y-91357142D01*
X92285714Y-91261904D01*
X92285714Y-91023809D01*
X92238095Y-90928571D01*
X92190476Y-90880952D01*
X92095238Y-90833333D01*
X91904761Y-90833333D01*
X91809523Y-90880952D01*
X91761904Y-90928571D01*
X91714285Y-91023809D01*
X83833333Y-48452380D02*
X83500000Y-47976190D01*
X83261904Y-48452380D02*
X83261904Y-47452380D01*
X83642857Y-47452380D01*
X83738095Y-47500000D01*
X83785714Y-47547619D01*
X83833333Y-47642857D01*
X83833333Y-47785714D01*
X83785714Y-47880952D01*
X83738095Y-47928571D01*
X83642857Y-47976190D01*
X83261904Y-47976190D01*
X84738095Y-47452380D02*
X84261904Y-47452380D01*
X84214285Y-47928571D01*
X84261904Y-47880952D01*
X84357142Y-47833333D01*
X84595238Y-47833333D01*
X84690476Y-47880952D01*
X84738095Y-47928571D01*
X84785714Y-48023809D01*
X84785714Y-48261904D01*
X84738095Y-48357142D01*
X84690476Y-48404761D01*
X84595238Y-48452380D01*
X84357142Y-48452380D01*
X84261904Y-48404761D01*
X84214285Y-48357142D01*
X78333333Y-48452380D02*
X78000000Y-47976190D01*
X77761904Y-48452380D02*
X77761904Y-47452380D01*
X78142857Y-47452380D01*
X78238095Y-47500000D01*
X78285714Y-47547619D01*
X78333333Y-47642857D01*
X78333333Y-47785714D01*
X78285714Y-47880952D01*
X78238095Y-47928571D01*
X78142857Y-47976190D01*
X77761904Y-47976190D01*
X79190476Y-47785714D02*
X79190476Y-48452380D01*
X78952380Y-47404761D02*
X78714285Y-48119047D01*
X79333333Y-48119047D01*
X72833333Y-48452380D02*
X72500000Y-47976190D01*
X72261904Y-48452380D02*
X72261904Y-47452380D01*
X72642857Y-47452380D01*
X72738095Y-47500000D01*
X72785714Y-47547619D01*
X72833333Y-47642857D01*
X72833333Y-47785714D01*
X72785714Y-47880952D01*
X72738095Y-47928571D01*
X72642857Y-47976190D01*
X72261904Y-47976190D01*
X73166666Y-47452380D02*
X73785714Y-47452380D01*
X73452380Y-47833333D01*
X73595238Y-47833333D01*
X73690476Y-47880952D01*
X73738095Y-47928571D01*
X73785714Y-48023809D01*
X73785714Y-48261904D01*
X73738095Y-48357142D01*
X73690476Y-48404761D01*
X73595238Y-48452380D01*
X73309523Y-48452380D01*
X73214285Y-48404761D01*
X73166666Y-48357142D01*
X84333333Y-91452380D02*
X84000000Y-90976190D01*
X83761904Y-91452380D02*
X83761904Y-90452380D01*
X84142857Y-90452380D01*
X84238095Y-90500000D01*
X84285714Y-90547619D01*
X84333333Y-90642857D01*
X84333333Y-90785714D01*
X84285714Y-90880952D01*
X84238095Y-90928571D01*
X84142857Y-90976190D01*
X83761904Y-90976190D01*
X84714285Y-90547619D02*
X84761904Y-90500000D01*
X84857142Y-90452380D01*
X85095238Y-90452380D01*
X85190476Y-90500000D01*
X85238095Y-90547619D01*
X85285714Y-90642857D01*
X85285714Y-90738095D01*
X85238095Y-90880952D01*
X84666666Y-91452380D01*
X85285714Y-91452380D01*
X81833333Y-91452380D02*
X81500000Y-90976190D01*
X81261904Y-91452380D02*
X81261904Y-90452380D01*
X81642857Y-90452380D01*
X81738095Y-90500000D01*
X81785714Y-90547619D01*
X81833333Y-90642857D01*
X81833333Y-90785714D01*
X81785714Y-90880952D01*
X81738095Y-90928571D01*
X81642857Y-90976190D01*
X81261904Y-90976190D01*
X82785714Y-91452380D02*
X82214285Y-91452380D01*
X82500000Y-91452380D02*
X82500000Y-90452380D01*
X82404761Y-90595238D01*
X82309523Y-90690476D01*
X82214285Y-90738095D01*
X63385714Y-77852380D02*
X63385714Y-76852380D01*
X63623809Y-76852380D01*
X63766666Y-76900000D01*
X63861904Y-76995238D01*
X63909523Y-77090476D01*
X63957142Y-77280952D01*
X63957142Y-77423809D01*
X63909523Y-77614285D01*
X63861904Y-77709523D01*
X63766666Y-77804761D01*
X63623809Y-77852380D01*
X63385714Y-77852380D01*
X64909523Y-77852380D02*
X64338095Y-77852380D01*
X64623809Y-77852380D02*
X64623809Y-76852380D01*
X64528571Y-76995238D01*
X64433333Y-77090476D01*
X64338095Y-77138095D01*
X65766666Y-77185714D02*
X65766666Y-77852380D01*
X65528571Y-76804761D02*
X65290476Y-77519047D01*
X65909523Y-77519047D01*
X93285714Y-55952380D02*
X93285714Y-54952380D01*
X93523809Y-54952380D01*
X93666666Y-55000000D01*
X93761904Y-55095238D01*
X93809523Y-55190476D01*
X93857142Y-55380952D01*
X93857142Y-55523809D01*
X93809523Y-55714285D01*
X93761904Y-55809523D01*
X93666666Y-55904761D01*
X93523809Y-55952380D01*
X93285714Y-55952380D01*
X94809523Y-55952380D02*
X94238095Y-55952380D01*
X94523809Y-55952380D02*
X94523809Y-54952380D01*
X94428571Y-55095238D01*
X94333333Y-55190476D01*
X94238095Y-55238095D01*
X95142857Y-54952380D02*
X95761904Y-54952380D01*
X95428571Y-55333333D01*
X95571428Y-55333333D01*
X95666666Y-55380952D01*
X95714285Y-55428571D01*
X95761904Y-55523809D01*
X95761904Y-55761904D01*
X95714285Y-55857142D01*
X95666666Y-55904761D01*
X95571428Y-55952380D01*
X95285714Y-55952380D01*
X95190476Y-55904761D01*
X95142857Y-55857142D01*
X109049714Y-111344380D02*
X109049714Y-110344380D01*
X109287809Y-110344380D01*
X109430666Y-110392000D01*
X109525904Y-110487238D01*
X109573523Y-110582476D01*
X109621142Y-110772952D01*
X109621142Y-110915809D01*
X109573523Y-111106285D01*
X109525904Y-111201523D01*
X109430666Y-111296761D01*
X109287809Y-111344380D01*
X109049714Y-111344380D01*
X110573523Y-111344380D02*
X110002095Y-111344380D01*
X110287809Y-111344380D02*
X110287809Y-110344380D01*
X110192571Y-110487238D01*
X110097333Y-110582476D01*
X110002095Y-110630095D01*
X110954476Y-110439619D02*
X111002095Y-110392000D01*
X111097333Y-110344380D01*
X111335428Y-110344380D01*
X111430666Y-110392000D01*
X111478285Y-110439619D01*
X111525904Y-110534857D01*
X111525904Y-110630095D01*
X111478285Y-110772952D01*
X110906857Y-111344380D01*
X111525904Y-111344380D01*
X99397714Y-111344380D02*
X99397714Y-110344380D01*
X99635809Y-110344380D01*
X99778666Y-110392000D01*
X99873904Y-110487238D01*
X99921523Y-110582476D01*
X99969142Y-110772952D01*
X99969142Y-110915809D01*
X99921523Y-111106285D01*
X99873904Y-111201523D01*
X99778666Y-111296761D01*
X99635809Y-111344380D01*
X99397714Y-111344380D01*
X100921523Y-111344380D02*
X100350095Y-111344380D01*
X100635809Y-111344380D02*
X100635809Y-110344380D01*
X100540571Y-110487238D01*
X100445333Y-110582476D01*
X100350095Y-110630095D01*
X101540571Y-110344380D02*
X101635809Y-110344380D01*
X101731047Y-110392000D01*
X101778666Y-110439619D01*
X101826285Y-110534857D01*
X101873904Y-110725333D01*
X101873904Y-110963428D01*
X101826285Y-111153904D01*
X101778666Y-111249142D01*
X101731047Y-111296761D01*
X101635809Y-111344380D01*
X101540571Y-111344380D01*
X101445333Y-111296761D01*
X101397714Y-111249142D01*
X101350095Y-111153904D01*
X101302476Y-110963428D01*
X101302476Y-110725333D01*
X101350095Y-110534857D01*
X101397714Y-110439619D01*
X101445333Y-110392000D01*
X101540571Y-110344380D01*
X89713904Y-111344380D02*
X89713904Y-110344380D01*
X89952000Y-110344380D01*
X90094857Y-110392000D01*
X90190095Y-110487238D01*
X90237714Y-110582476D01*
X90285333Y-110772952D01*
X90285333Y-110915809D01*
X90237714Y-111106285D01*
X90190095Y-111201523D01*
X90094857Y-111296761D01*
X89952000Y-111344380D01*
X89713904Y-111344380D01*
X90856761Y-110772952D02*
X90761523Y-110725333D01*
X90713904Y-110677714D01*
X90666285Y-110582476D01*
X90666285Y-110534857D01*
X90713904Y-110439619D01*
X90761523Y-110392000D01*
X90856761Y-110344380D01*
X91047238Y-110344380D01*
X91142476Y-110392000D01*
X91190095Y-110439619D01*
X91237714Y-110534857D01*
X91237714Y-110582476D01*
X91190095Y-110677714D01*
X91142476Y-110725333D01*
X91047238Y-110772952D01*
X90856761Y-110772952D01*
X90761523Y-110820571D01*
X90713904Y-110868190D01*
X90666285Y-110963428D01*
X90666285Y-111153904D01*
X90713904Y-111249142D01*
X90761523Y-111296761D01*
X90856761Y-111344380D01*
X91047238Y-111344380D01*
X91142476Y-111296761D01*
X91190095Y-111249142D01*
X91237714Y-111153904D01*
X91237714Y-110963428D01*
X91190095Y-110868190D01*
X91142476Y-110820571D01*
X91047238Y-110772952D01*
X64821904Y-106852380D02*
X64821904Y-105852380D01*
X65060000Y-105852380D01*
X65202857Y-105900000D01*
X65298095Y-105995238D01*
X65345714Y-106090476D01*
X65393333Y-106280952D01*
X65393333Y-106423809D01*
X65345714Y-106614285D01*
X65298095Y-106709523D01*
X65202857Y-106804761D01*
X65060000Y-106852380D01*
X64821904Y-106852380D01*
X65726666Y-105852380D02*
X66393333Y-105852380D01*
X65964761Y-106852380D01*
X106261904Y-58952380D02*
X106261904Y-57952380D01*
X106500000Y-57952380D01*
X106642857Y-58000000D01*
X106738095Y-58095238D01*
X106785714Y-58190476D01*
X106833333Y-58380952D01*
X106833333Y-58523809D01*
X106785714Y-58714285D01*
X106738095Y-58809523D01*
X106642857Y-58904761D01*
X106500000Y-58952380D01*
X106261904Y-58952380D01*
X107690476Y-57952380D02*
X107500000Y-57952380D01*
X107404761Y-58000000D01*
X107357142Y-58047619D01*
X107261904Y-58190476D01*
X107214285Y-58380952D01*
X107214285Y-58761904D01*
X107261904Y-58857142D01*
X107309523Y-58904761D01*
X107404761Y-58952380D01*
X107595238Y-58952380D01*
X107690476Y-58904761D01*
X107738095Y-58857142D01*
X107785714Y-58761904D01*
X107785714Y-58523809D01*
X107738095Y-58428571D01*
X107690476Y-58380952D01*
X107595238Y-58333333D01*
X107404761Y-58333333D01*
X107309523Y-58380952D01*
X107261904Y-58428571D01*
X107214285Y-58523809D01*
X52761904Y-102952380D02*
X52761904Y-101952380D01*
X53000000Y-101952380D01*
X53142857Y-102000000D01*
X53238095Y-102095238D01*
X53285714Y-102190476D01*
X53333333Y-102380952D01*
X53333333Y-102523809D01*
X53285714Y-102714285D01*
X53238095Y-102809523D01*
X53142857Y-102904761D01*
X53000000Y-102952380D01*
X52761904Y-102952380D01*
X54238095Y-101952380D02*
X53761904Y-101952380D01*
X53714285Y-102428571D01*
X53761904Y-102380952D01*
X53857142Y-102333333D01*
X54095238Y-102333333D01*
X54190476Y-102380952D01*
X54238095Y-102428571D01*
X54285714Y-102523809D01*
X54285714Y-102761904D01*
X54238095Y-102857142D01*
X54190476Y-102904761D01*
X54095238Y-102952380D01*
X53857142Y-102952380D01*
X53761904Y-102904761D01*
X53714285Y-102857142D01*
X53261904Y-90452380D02*
X53261904Y-89452380D01*
X53500000Y-89452380D01*
X53642857Y-89500000D01*
X53738095Y-89595238D01*
X53785714Y-89690476D01*
X53833333Y-89880952D01*
X53833333Y-90023809D01*
X53785714Y-90214285D01*
X53738095Y-90309523D01*
X53642857Y-90404761D01*
X53500000Y-90452380D01*
X53261904Y-90452380D01*
X54690476Y-89785714D02*
X54690476Y-90452380D01*
X54452380Y-89404761D02*
X54214285Y-90119047D01*
X54833333Y-90119047D01*
X79680904Y-111471380D02*
X79680904Y-110471380D01*
X79919000Y-110471380D01*
X80061857Y-110519000D01*
X80157095Y-110614238D01*
X80204714Y-110709476D01*
X80252333Y-110899952D01*
X80252333Y-111042809D01*
X80204714Y-111233285D01*
X80157095Y-111328523D01*
X80061857Y-111423761D01*
X79919000Y-111471380D01*
X79680904Y-111471380D01*
X80633285Y-110566619D02*
X80680904Y-110519000D01*
X80776142Y-110471380D01*
X81014238Y-110471380D01*
X81109476Y-110519000D01*
X81157095Y-110566619D01*
X81204714Y-110661857D01*
X81204714Y-110757095D01*
X81157095Y-110899952D01*
X80585666Y-111471380D01*
X81204714Y-111471380D01*
X61278642Y-99962642D02*
X61231023Y-100010261D01*
X61088166Y-100057880D01*
X60992928Y-100057880D01*
X60850071Y-100010261D01*
X60754833Y-99915023D01*
X60707214Y-99819785D01*
X60659595Y-99629309D01*
X60659595Y-99486452D01*
X60707214Y-99295976D01*
X60754833Y-99200738D01*
X60850071Y-99105500D01*
X60992928Y-99057880D01*
X61088166Y-99057880D01*
X61231023Y-99105500D01*
X61278642Y-99153119D01*
X61659595Y-99153119D02*
X61707214Y-99105500D01*
X61802452Y-99057880D01*
X62040547Y-99057880D01*
X62135785Y-99105500D01*
X62183404Y-99153119D01*
X62231023Y-99248357D01*
X62231023Y-99343595D01*
X62183404Y-99486452D01*
X61611976Y-100057880D01*
X62231023Y-100057880D01*
X62802452Y-99486452D02*
X62707214Y-99438833D01*
X62659595Y-99391214D01*
X62611976Y-99295976D01*
X62611976Y-99248357D01*
X62659595Y-99153119D01*
X62707214Y-99105500D01*
X62802452Y-99057880D01*
X62992928Y-99057880D01*
X63088166Y-99105500D01*
X63135785Y-99153119D01*
X63183404Y-99248357D01*
X63183404Y-99295976D01*
X63135785Y-99391214D01*
X63088166Y-99438833D01*
X62992928Y-99486452D01*
X62802452Y-99486452D01*
X62707214Y-99534071D01*
X62659595Y-99581690D01*
X62611976Y-99676928D01*
X62611976Y-99867404D01*
X62659595Y-99962642D01*
X62707214Y-100010261D01*
X62802452Y-100057880D01*
X62992928Y-100057880D01*
X63088166Y-100010261D01*
X63135785Y-99962642D01*
X63183404Y-99867404D01*
X63183404Y-99676928D01*
X63135785Y-99581690D01*
X63088166Y-99534071D01*
X62992928Y-99486452D01*
X64257142Y-92657142D02*
X64209523Y-92704761D01*
X64066666Y-92752380D01*
X63971428Y-92752380D01*
X63828571Y-92704761D01*
X63733333Y-92609523D01*
X63685714Y-92514285D01*
X63638095Y-92323809D01*
X63638095Y-92180952D01*
X63685714Y-91990476D01*
X63733333Y-91895238D01*
X63828571Y-91800000D01*
X63971428Y-91752380D01*
X64066666Y-91752380D01*
X64209523Y-91800000D01*
X64257142Y-91847619D01*
X64638095Y-91847619D02*
X64685714Y-91800000D01*
X64780952Y-91752380D01*
X65019047Y-91752380D01*
X65114285Y-91800000D01*
X65161904Y-91847619D01*
X65209523Y-91942857D01*
X65209523Y-92038095D01*
X65161904Y-92180952D01*
X64590476Y-92752380D01*
X65209523Y-92752380D01*
X65542857Y-91752380D02*
X66209523Y-91752380D01*
X65780952Y-92752380D01*
X55057142Y-76757142D02*
X55009523Y-76804761D01*
X54866666Y-76852380D01*
X54771428Y-76852380D01*
X54628571Y-76804761D01*
X54533333Y-76709523D01*
X54485714Y-76614285D01*
X54438095Y-76423809D01*
X54438095Y-76280952D01*
X54485714Y-76090476D01*
X54533333Y-75995238D01*
X54628571Y-75900000D01*
X54771428Y-75852380D01*
X54866666Y-75852380D01*
X55009523Y-75900000D01*
X55057142Y-75947619D01*
X55438095Y-75947619D02*
X55485714Y-75900000D01*
X55580952Y-75852380D01*
X55819047Y-75852380D01*
X55914285Y-75900000D01*
X55961904Y-75947619D01*
X56009523Y-76042857D01*
X56009523Y-76138095D01*
X55961904Y-76280952D01*
X55390476Y-76852380D01*
X56009523Y-76852380D01*
X56866666Y-75852380D02*
X56676190Y-75852380D01*
X56580952Y-75900000D01*
X56533333Y-75947619D01*
X56438095Y-76090476D01*
X56390476Y-76280952D01*
X56390476Y-76661904D01*
X56438095Y-76757142D01*
X56485714Y-76804761D01*
X56580952Y-76852380D01*
X56771428Y-76852380D01*
X56866666Y-76804761D01*
X56914285Y-76757142D01*
X56961904Y-76661904D01*
X56961904Y-76423809D01*
X56914285Y-76328571D01*
X56866666Y-76280952D01*
X56771428Y-76233333D01*
X56580952Y-76233333D01*
X56485714Y-76280952D01*
X56438095Y-76328571D01*
X56390476Y-76423809D01*
X65163142Y-70505142D02*
X65115523Y-70552761D01*
X64972666Y-70600380D01*
X64877428Y-70600380D01*
X64734571Y-70552761D01*
X64639333Y-70457523D01*
X64591714Y-70362285D01*
X64544095Y-70171809D01*
X64544095Y-70028952D01*
X64591714Y-69838476D01*
X64639333Y-69743238D01*
X64734571Y-69648000D01*
X64877428Y-69600380D01*
X64972666Y-69600380D01*
X65115523Y-69648000D01*
X65163142Y-69695619D01*
X65544095Y-69695619D02*
X65591714Y-69648000D01*
X65686952Y-69600380D01*
X65925047Y-69600380D01*
X66020285Y-69648000D01*
X66067904Y-69695619D01*
X66115523Y-69790857D01*
X66115523Y-69886095D01*
X66067904Y-70028952D01*
X65496476Y-70600380D01*
X66115523Y-70600380D01*
X66448857Y-69600380D02*
X67067904Y-69600380D01*
X66734571Y-69981333D01*
X66877428Y-69981333D01*
X66972666Y-70028952D01*
X67020285Y-70076571D01*
X67067904Y-70171809D01*
X67067904Y-70409904D01*
X67020285Y-70505142D01*
X66972666Y-70552761D01*
X66877428Y-70600380D01*
X66591714Y-70600380D01*
X66496476Y-70552761D01*
X66448857Y-70505142D01*
X66833333Y-103757142D02*
X66785714Y-103804761D01*
X66642857Y-103852380D01*
X66547619Y-103852380D01*
X66404761Y-103804761D01*
X66309523Y-103709523D01*
X66261904Y-103614285D01*
X66214285Y-103423809D01*
X66214285Y-103280952D01*
X66261904Y-103090476D01*
X66309523Y-102995238D01*
X66404761Y-102900000D01*
X66547619Y-102852380D01*
X66642857Y-102852380D01*
X66785714Y-102900000D01*
X66833333Y-102947619D01*
X67690476Y-103185714D02*
X67690476Y-103852380D01*
X67452380Y-102804761D02*
X67214285Y-103519047D01*
X67833333Y-103519047D01*
X72333333Y-108357142D02*
X72285714Y-108404761D01*
X72142857Y-108452380D01*
X72047619Y-108452380D01*
X71904761Y-108404761D01*
X71809523Y-108309523D01*
X71761904Y-108214285D01*
X71714285Y-108023809D01*
X71714285Y-107880952D01*
X71761904Y-107690476D01*
X71809523Y-107595238D01*
X71904761Y-107500000D01*
X72047619Y-107452380D01*
X72142857Y-107452380D01*
X72285714Y-107500000D01*
X72333333Y-107547619D01*
X72666666Y-107452380D02*
X73285714Y-107452380D01*
X72952380Y-107833333D01*
X73095238Y-107833333D01*
X73190476Y-107880952D01*
X73238095Y-107928571D01*
X73285714Y-108023809D01*
X73285714Y-108261904D01*
X73238095Y-108357142D01*
X73190476Y-108404761D01*
X73095238Y-108452380D01*
X72809523Y-108452380D01*
X72714285Y-108404761D01*
X72666666Y-108357142D01*
X70881333Y-85161142D02*
X70833714Y-85208761D01*
X70690857Y-85256380D01*
X70595619Y-85256380D01*
X70452761Y-85208761D01*
X70357523Y-85113523D01*
X70309904Y-85018285D01*
X70262285Y-84827809D01*
X70262285Y-84684952D01*
X70309904Y-84494476D01*
X70357523Y-84399238D01*
X70452761Y-84304000D01*
X70595619Y-84256380D01*
X70690857Y-84256380D01*
X70833714Y-84304000D01*
X70881333Y-84351619D01*
X71262285Y-84351619D02*
X71309904Y-84304000D01*
X71405142Y-84256380D01*
X71643238Y-84256380D01*
X71738476Y-84304000D01*
X71786095Y-84351619D01*
X71833714Y-84446857D01*
X71833714Y-84542095D01*
X71786095Y-84684952D01*
X71214666Y-85256380D01*
X71833714Y-85256380D01*
X106404761Y-85047619D02*
X106309523Y-85000000D01*
X106214285Y-84904761D01*
X106071428Y-84761904D01*
X105976190Y-84714285D01*
X105880952Y-84714285D01*
X105928571Y-84952380D02*
X105833333Y-84904761D01*
X105738095Y-84809523D01*
X105690476Y-84619047D01*
X105690476Y-84285714D01*
X105738095Y-84095238D01*
X105833333Y-84000000D01*
X105928571Y-83952380D01*
X106119047Y-83952380D01*
X106214285Y-84000000D01*
X106309523Y-84095238D01*
X106357142Y-84285714D01*
X106357142Y-84619047D01*
X106309523Y-84809523D01*
X106214285Y-84904761D01*
X106119047Y-84952380D01*
X105928571Y-84952380D01*
X106928571Y-84380952D02*
X106833333Y-84333333D01*
X106785714Y-84285714D01*
X106738095Y-84190476D01*
X106738095Y-84142857D01*
X106785714Y-84047619D01*
X106833333Y-84000000D01*
X106928571Y-83952380D01*
X107119047Y-83952380D01*
X107214285Y-84000000D01*
X107261904Y-84047619D01*
X107309523Y-84142857D01*
X107309523Y-84190476D01*
X107261904Y-84285714D01*
X107214285Y-84333333D01*
X107119047Y-84380952D01*
X106928571Y-84380952D01*
X106833333Y-84428571D01*
X106785714Y-84476190D01*
X106738095Y-84571428D01*
X106738095Y-84761904D01*
X106785714Y-84857142D01*
X106833333Y-84904761D01*
X106928571Y-84952380D01*
X107119047Y-84952380D01*
X107214285Y-84904761D01*
X107261904Y-84857142D01*
X107309523Y-84761904D01*
X107309523Y-84571428D01*
X107261904Y-84476190D01*
X107214285Y-84428571D01*
X107119047Y-84380952D01*
X97904761Y-87047619D02*
X97809523Y-87000000D01*
X97714285Y-86904761D01*
X97571428Y-86761904D01*
X97476190Y-86714285D01*
X97380952Y-86714285D01*
X97428571Y-86952380D02*
X97333333Y-86904761D01*
X97238095Y-86809523D01*
X97190476Y-86619047D01*
X97190476Y-86285714D01*
X97238095Y-86095238D01*
X97333333Y-86000000D01*
X97428571Y-85952380D01*
X97619047Y-85952380D01*
X97714285Y-86000000D01*
X97809523Y-86095238D01*
X97857142Y-86285714D01*
X97857142Y-86619047D01*
X97809523Y-86809523D01*
X97714285Y-86904761D01*
X97619047Y-86952380D01*
X97428571Y-86952380D01*
X98190476Y-85952380D02*
X98857142Y-85952380D01*
X98428571Y-86952380D01*
X67823619Y-96111904D02*
X67014095Y-96111904D01*
X66918857Y-96159523D01*
X66871238Y-96207142D01*
X66823619Y-96302380D01*
X66823619Y-96492857D01*
X66871238Y-96588095D01*
X66918857Y-96635714D01*
X67014095Y-96683333D01*
X67823619Y-96683333D01*
X66823619Y-97683333D02*
X66823619Y-97111904D01*
X66823619Y-97397619D02*
X67823619Y-97397619D01*
X67680761Y-97302380D01*
X67585523Y-97207142D01*
X67537904Y-97111904D01*
X67728380Y-98064285D02*
X67776000Y-98111904D01*
X67823619Y-98207142D01*
X67823619Y-98445238D01*
X67776000Y-98540476D01*
X67728380Y-98588095D01*
X67633142Y-98635714D01*
X67537904Y-98635714D01*
X67395047Y-98588095D01*
X66823619Y-98016666D01*
X66823619Y-98635714D01*
X94404761Y-62203619D02*
X94309523Y-62156000D01*
X94214285Y-62060761D01*
X94071428Y-61917904D01*
X93976190Y-61870285D01*
X93880952Y-61870285D01*
X93928571Y-62108380D02*
X93833333Y-62060761D01*
X93738095Y-61965523D01*
X93690476Y-61775047D01*
X93690476Y-61441714D01*
X93738095Y-61251238D01*
X93833333Y-61156000D01*
X93928571Y-61108380D01*
X94119047Y-61108380D01*
X94214285Y-61156000D01*
X94309523Y-61251238D01*
X94357142Y-61441714D01*
X94357142Y-61775047D01*
X94309523Y-61965523D01*
X94214285Y-62060761D01*
X94119047Y-62108380D01*
X93928571Y-62108380D01*
X95214285Y-61108380D02*
X95023809Y-61108380D01*
X94928571Y-61156000D01*
X94880952Y-61203619D01*
X94785714Y-61346476D01*
X94738095Y-61536952D01*
X94738095Y-61917904D01*
X94785714Y-62013142D01*
X94833333Y-62060761D01*
X94928571Y-62108380D01*
X95119047Y-62108380D01*
X95214285Y-62060761D01*
X95261904Y-62013142D01*
X95309523Y-61917904D01*
X95309523Y-61679809D01*
X95261904Y-61584571D01*
X95214285Y-61536952D01*
X95119047Y-61489333D01*
X94928571Y-61489333D01*
X94833333Y-61536952D01*
X94785714Y-61584571D01*
X94738095Y-61679809D01*
X100404761Y-62203619D02*
X100309523Y-62156000D01*
X100214285Y-62060761D01*
X100071428Y-61917904D01*
X99976190Y-61870285D01*
X99880952Y-61870285D01*
X99928571Y-62108380D02*
X99833333Y-62060761D01*
X99738095Y-61965523D01*
X99690476Y-61775047D01*
X99690476Y-61441714D01*
X99738095Y-61251238D01*
X99833333Y-61156000D01*
X99928571Y-61108380D01*
X100119047Y-61108380D01*
X100214285Y-61156000D01*
X100309523Y-61251238D01*
X100357142Y-61441714D01*
X100357142Y-61775047D01*
X100309523Y-61965523D01*
X100214285Y-62060761D01*
X100119047Y-62108380D01*
X99928571Y-62108380D01*
X101261904Y-61108380D02*
X100785714Y-61108380D01*
X100738095Y-61584571D01*
X100785714Y-61536952D01*
X100880952Y-61489333D01*
X101119047Y-61489333D01*
X101214285Y-61536952D01*
X101261904Y-61584571D01*
X101309523Y-61679809D01*
X101309523Y-61917904D01*
X101261904Y-62013142D01*
X101214285Y-62060761D01*
X101119047Y-62108380D01*
X100880952Y-62108380D01*
X100785714Y-62060761D01*
X100738095Y-62013142D01*
X77593261Y-91350119D02*
X77498023Y-91302500D01*
X77402785Y-91207261D01*
X77259928Y-91064404D01*
X77164690Y-91016785D01*
X77069452Y-91016785D01*
X77117071Y-91254880D02*
X77021833Y-91207261D01*
X76926595Y-91112023D01*
X76878976Y-90921547D01*
X76878976Y-90588214D01*
X76926595Y-90397738D01*
X77021833Y-90302500D01*
X77117071Y-90254880D01*
X77307547Y-90254880D01*
X77402785Y-90302500D01*
X77498023Y-90397738D01*
X77545642Y-90588214D01*
X77545642Y-90921547D01*
X77498023Y-91112023D01*
X77402785Y-91207261D01*
X77307547Y-91254880D01*
X77117071Y-91254880D01*
X78498023Y-91254880D02*
X77926595Y-91254880D01*
X78212309Y-91254880D02*
X78212309Y-90254880D01*
X78117071Y-90397738D01*
X78021833Y-90492976D01*
X77926595Y-90540595D01*
X87245261Y-91350119D02*
X87150023Y-91302500D01*
X87054785Y-91207261D01*
X86911928Y-91064404D01*
X86816690Y-91016785D01*
X86721452Y-91016785D01*
X86769071Y-91254880D02*
X86673833Y-91207261D01*
X86578595Y-91112023D01*
X86530976Y-90921547D01*
X86530976Y-90588214D01*
X86578595Y-90397738D01*
X86673833Y-90302500D01*
X86769071Y-90254880D01*
X86959547Y-90254880D01*
X87054785Y-90302500D01*
X87150023Y-90397738D01*
X87197642Y-90588214D01*
X87197642Y-90921547D01*
X87150023Y-91112023D01*
X87054785Y-91207261D01*
X86959547Y-91254880D01*
X86769071Y-91254880D01*
X87578595Y-90350119D02*
X87626214Y-90302500D01*
X87721452Y-90254880D01*
X87959547Y-90254880D01*
X88054785Y-90302500D01*
X88102404Y-90350119D01*
X88150023Y-90445357D01*
X88150023Y-90540595D01*
X88102404Y-90683452D01*
X87530976Y-91254880D01*
X88150023Y-91254880D01*
X97405261Y-91350119D02*
X97310023Y-91302500D01*
X97214785Y-91207261D01*
X97071928Y-91064404D01*
X96976690Y-91016785D01*
X96881452Y-91016785D01*
X96929071Y-91254880D02*
X96833833Y-91207261D01*
X96738595Y-91112023D01*
X96690976Y-90921547D01*
X96690976Y-90588214D01*
X96738595Y-90397738D01*
X96833833Y-90302500D01*
X96929071Y-90254880D01*
X97119547Y-90254880D01*
X97214785Y-90302500D01*
X97310023Y-90397738D01*
X97357642Y-90588214D01*
X97357642Y-90921547D01*
X97310023Y-91112023D01*
X97214785Y-91207261D01*
X97119547Y-91254880D01*
X96929071Y-91254880D01*
X97690976Y-90254880D02*
X98310023Y-90254880D01*
X97976690Y-90635833D01*
X98119547Y-90635833D01*
X98214785Y-90683452D01*
X98262404Y-90731071D01*
X98310023Y-90826309D01*
X98310023Y-91064404D01*
X98262404Y-91159642D01*
X98214785Y-91207261D01*
X98119547Y-91254880D01*
X97833833Y-91254880D01*
X97738595Y-91207261D01*
X97690976Y-91159642D01*
X108404761Y-91540619D02*
X108309523Y-91493000D01*
X108214285Y-91397761D01*
X108071428Y-91254904D01*
X107976190Y-91207285D01*
X107880952Y-91207285D01*
X107928571Y-91445380D02*
X107833333Y-91397761D01*
X107738095Y-91302523D01*
X107690476Y-91112047D01*
X107690476Y-90778714D01*
X107738095Y-90588238D01*
X107833333Y-90493000D01*
X107928571Y-90445380D01*
X108119047Y-90445380D01*
X108214285Y-90493000D01*
X108309523Y-90588238D01*
X108357142Y-90778714D01*
X108357142Y-91112047D01*
X108309523Y-91302523D01*
X108214285Y-91397761D01*
X108119047Y-91445380D01*
X107928571Y-91445380D01*
X109214285Y-90778714D02*
X109214285Y-91445380D01*
X108976190Y-90397761D02*
X108738095Y-91112047D01*
X109357142Y-91112047D01*
X54666666Y-53904761D02*
X54809523Y-53952380D01*
X55047619Y-53952380D01*
X55142857Y-53904761D01*
X55190476Y-53857142D01*
X55238095Y-53761904D01*
X55238095Y-53666666D01*
X55190476Y-53571428D01*
X55142857Y-53523809D01*
X55047619Y-53476190D01*
X54857142Y-53428571D01*
X54761904Y-53380952D01*
X54714285Y-53333333D01*
X54666666Y-53238095D01*
X54666666Y-53142857D01*
X54714285Y-53047619D01*
X54761904Y-53000000D01*
X54857142Y-52952380D01*
X55095238Y-52952380D01*
X55238095Y-53000000D01*
X55571428Y-52952380D02*
X55809523Y-53952380D01*
X56000000Y-53238095D01*
X56190476Y-53952380D01*
X56428571Y-52952380D01*
X57333333Y-53952380D02*
X56761904Y-53952380D01*
X57047619Y-53952380D02*
X57047619Y-52952380D01*
X56952380Y-53095238D01*
X56857142Y-53190476D01*
X56761904Y-53238095D01*
X61466666Y-53754761D02*
X61609523Y-53802380D01*
X61847619Y-53802380D01*
X61942857Y-53754761D01*
X61990476Y-53707142D01*
X62038095Y-53611904D01*
X62038095Y-53516666D01*
X61990476Y-53421428D01*
X61942857Y-53373809D01*
X61847619Y-53326190D01*
X61657142Y-53278571D01*
X61561904Y-53230952D01*
X61514285Y-53183333D01*
X61466666Y-53088095D01*
X61466666Y-52992857D01*
X61514285Y-52897619D01*
X61561904Y-52850000D01*
X61657142Y-52802380D01*
X61895238Y-52802380D01*
X62038095Y-52850000D01*
X62371428Y-52802380D02*
X62609523Y-53802380D01*
X62800000Y-53088095D01*
X62990476Y-53802380D01*
X63228571Y-52802380D01*
X63561904Y-52897619D02*
X63609523Y-52850000D01*
X63704761Y-52802380D01*
X63942857Y-52802380D01*
X64038095Y-52850000D01*
X64085714Y-52897619D01*
X64133333Y-52992857D01*
X64133333Y-53088095D01*
X64085714Y-53230952D01*
X63514285Y-53802380D01*
X64133333Y-53802380D01*
X102238095Y-67952380D02*
X102238095Y-68761904D01*
X102285714Y-68857142D01*
X102333333Y-68904761D01*
X102428571Y-68952380D01*
X102619047Y-68952380D01*
X102714285Y-68904761D01*
X102761904Y-68857142D01*
X102809523Y-68761904D01*
X102809523Y-67952380D01*
X103809523Y-68952380D02*
X103238095Y-68952380D01*
X103523809Y-68952380D02*
X103523809Y-67952380D01*
X103428571Y-68095238D01*
X103333333Y-68190476D01*
X103238095Y-68238095D01*
X83729619Y-81206071D02*
X84062952Y-81206071D01*
X84205809Y-81729880D02*
X83729619Y-81729880D01*
X83729619Y-80729880D01*
X84205809Y-80729880D01*
X84586761Y-81682261D02*
X84729619Y-81729880D01*
X84967714Y-81729880D01*
X85062952Y-81682261D01*
X85110571Y-81634642D01*
X85158190Y-81539404D01*
X85158190Y-81444166D01*
X85110571Y-81348928D01*
X85062952Y-81301309D01*
X84967714Y-81253690D01*
X84777238Y-81206071D01*
X84682000Y-81158452D01*
X84634380Y-81110833D01*
X84586761Y-81015595D01*
X84586761Y-80920357D01*
X84634380Y-80825119D01*
X84682000Y-80777500D01*
X84777238Y-80729880D01*
X85015333Y-80729880D01*
X85158190Y-80777500D01*
X85586761Y-81729880D02*
X85586761Y-80729880D01*
X85967714Y-80729880D01*
X86062952Y-80777500D01*
X86110571Y-80825119D01*
X86158190Y-80920357D01*
X86158190Y-81063214D01*
X86110571Y-81158452D01*
X86062952Y-81206071D01*
X85967714Y-81253690D01*
X85586761Y-81253690D01*
X86491523Y-80729880D02*
X87110571Y-80729880D01*
X86777238Y-81110833D01*
X86920095Y-81110833D01*
X87015333Y-81158452D01*
X87062952Y-81206071D01*
X87110571Y-81301309D01*
X87110571Y-81539404D01*
X87062952Y-81634642D01*
X87015333Y-81682261D01*
X86920095Y-81729880D01*
X86634380Y-81729880D01*
X86539142Y-81682261D01*
X86491523Y-81634642D01*
X87491523Y-80825119D02*
X87539142Y-80777500D01*
X87634380Y-80729880D01*
X87872476Y-80729880D01*
X87967714Y-80777500D01*
X88015333Y-80825119D01*
X88062952Y-80920357D01*
X88062952Y-81015595D01*
X88015333Y-81158452D01*
X87443904Y-81729880D01*
X88062952Y-81729880D01*
X88491523Y-81348928D02*
X89253428Y-81348928D01*
X89634380Y-80729880D02*
X89872476Y-81729880D01*
X90062952Y-81015595D01*
X90253428Y-81729880D01*
X90491523Y-80729880D01*
X91443904Y-81729880D02*
X91110571Y-81253690D01*
X90872476Y-81729880D02*
X90872476Y-80729880D01*
X91253428Y-80729880D01*
X91348666Y-80777500D01*
X91396285Y-80825119D01*
X91443904Y-80920357D01*
X91443904Y-81063214D01*
X91396285Y-81158452D01*
X91348666Y-81206071D01*
X91253428Y-81253690D01*
X90872476Y-81253690D01*
X92062952Y-80729880D02*
X92253428Y-80729880D01*
X92348666Y-80777500D01*
X92443904Y-80872738D01*
X92491523Y-81063214D01*
X92491523Y-81396547D01*
X92443904Y-81587023D01*
X92348666Y-81682261D01*
X92253428Y-81729880D01*
X92062952Y-81729880D01*
X91967714Y-81682261D01*
X91872476Y-81587023D01*
X91824857Y-81396547D01*
X91824857Y-81063214D01*
X91872476Y-80872738D01*
X91967714Y-80777500D01*
X92062952Y-80729880D01*
X93110571Y-80729880D02*
X93301047Y-80729880D01*
X93396285Y-80777500D01*
X93491523Y-80872738D01*
X93539142Y-81063214D01*
X93539142Y-81396547D01*
X93491523Y-81587023D01*
X93396285Y-81682261D01*
X93301047Y-81729880D01*
X93110571Y-81729880D01*
X93015333Y-81682261D01*
X92920095Y-81587023D01*
X92872476Y-81396547D01*
X92872476Y-81063214D01*
X92920095Y-80872738D01*
X93015333Y-80777500D01*
X93110571Y-80729880D01*
X93967714Y-81729880D02*
X93967714Y-80729880D01*
X94301047Y-81444166D01*
X94634380Y-80729880D01*
X94634380Y-81729880D01*
X81467571Y-82857071D02*
X81800904Y-82857071D01*
X81943761Y-83380880D02*
X81467571Y-83380880D01*
X81467571Y-82380880D01*
X81943761Y-82380880D01*
X82324714Y-83333261D02*
X82419952Y-83380880D01*
X82610428Y-83380880D01*
X82705666Y-83333261D01*
X82753285Y-83238023D01*
X82753285Y-83190404D01*
X82705666Y-83095166D01*
X82610428Y-83047547D01*
X82467571Y-83047547D01*
X82372333Y-82999928D01*
X82324714Y-82904690D01*
X82324714Y-82857071D01*
X82372333Y-82761833D01*
X82467571Y-82714214D01*
X82610428Y-82714214D01*
X82705666Y-82761833D01*
X83181857Y-82714214D02*
X83181857Y-83714214D01*
X83181857Y-82761833D02*
X83277095Y-82714214D01*
X83467571Y-82714214D01*
X83562809Y-82761833D01*
X83610428Y-82809452D01*
X83658047Y-82904690D01*
X83658047Y-83190404D01*
X83610428Y-83285642D01*
X83562809Y-83333261D01*
X83467571Y-83380880D01*
X83277095Y-83380880D01*
X83181857Y-83333261D01*
X84086619Y-83380880D02*
X84086619Y-82714214D01*
X84086619Y-82904690D02*
X84134238Y-82809452D01*
X84181857Y-82761833D01*
X84277095Y-82714214D01*
X84372333Y-82714214D01*
X85086619Y-83333261D02*
X84991380Y-83380880D01*
X84800904Y-83380880D01*
X84705666Y-83333261D01*
X84658047Y-83238023D01*
X84658047Y-82857071D01*
X84705666Y-82761833D01*
X84800904Y-82714214D01*
X84991380Y-82714214D01*
X85086619Y-82761833D01*
X85134238Y-82857071D01*
X85134238Y-82952309D01*
X84658047Y-83047547D01*
X85515190Y-83333261D02*
X85610428Y-83380880D01*
X85800904Y-83380880D01*
X85896142Y-83333261D01*
X85943761Y-83238023D01*
X85943761Y-83190404D01*
X85896142Y-83095166D01*
X85800904Y-83047547D01*
X85658047Y-83047547D01*
X85562809Y-82999928D01*
X85515190Y-82904690D01*
X85515190Y-82857071D01*
X85562809Y-82761833D01*
X85658047Y-82714214D01*
X85800904Y-82714214D01*
X85896142Y-82761833D01*
X86324714Y-83333261D02*
X86419952Y-83380880D01*
X86610428Y-83380880D01*
X86705666Y-83333261D01*
X86753285Y-83238023D01*
X86753285Y-83190404D01*
X86705666Y-83095166D01*
X86610428Y-83047547D01*
X86467571Y-83047547D01*
X86372333Y-82999928D01*
X86324714Y-82904690D01*
X86324714Y-82857071D01*
X86372333Y-82761833D01*
X86467571Y-82714214D01*
X86610428Y-82714214D01*
X86705666Y-82761833D01*
X87181857Y-83380880D02*
X87181857Y-82714214D01*
X87181857Y-82380880D02*
X87134238Y-82428500D01*
X87181857Y-82476119D01*
X87229476Y-82428500D01*
X87181857Y-82380880D01*
X87181857Y-82476119D01*
X87515190Y-82714214D02*
X87896142Y-82714214D01*
X87658047Y-83380880D02*
X87658047Y-82523738D01*
X87705666Y-82428500D01*
X87800904Y-82380880D01*
X87896142Y-82380880D01*
X88943761Y-83333261D02*
X89086619Y-83380880D01*
X89324714Y-83380880D01*
X89419952Y-83333261D01*
X89467571Y-83285642D01*
X89515190Y-83190404D01*
X89515190Y-83095166D01*
X89467571Y-82999928D01*
X89419952Y-82952309D01*
X89324714Y-82904690D01*
X89134238Y-82857071D01*
X89039000Y-82809452D01*
X88991380Y-82761833D01*
X88943761Y-82666595D01*
X88943761Y-82571357D01*
X88991380Y-82476119D01*
X89039000Y-82428500D01*
X89134238Y-82380880D01*
X89372333Y-82380880D01*
X89515190Y-82428500D01*
X89848523Y-82714214D02*
X90086619Y-83380880D01*
X90324714Y-82714214D02*
X90086619Y-83380880D01*
X89991380Y-83618976D01*
X89943761Y-83666595D01*
X89848523Y-83714214D01*
X90658047Y-83333261D02*
X90753285Y-83380880D01*
X90943761Y-83380880D01*
X91039000Y-83333261D01*
X91086619Y-83238023D01*
X91086619Y-83190404D01*
X91039000Y-83095166D01*
X90943761Y-83047547D01*
X90800904Y-83047547D01*
X90705666Y-82999928D01*
X90658047Y-82904690D01*
X90658047Y-82857071D01*
X90705666Y-82761833D01*
X90800904Y-82714214D01*
X90943761Y-82714214D01*
X91039000Y-82761833D01*
X91372333Y-82714214D02*
X91753285Y-82714214D01*
X91515190Y-82380880D02*
X91515190Y-83238023D01*
X91562809Y-83333261D01*
X91658047Y-83380880D01*
X91753285Y-83380880D01*
X92467571Y-83333261D02*
X92372333Y-83380880D01*
X92181857Y-83380880D01*
X92086619Y-83333261D01*
X92039000Y-83238023D01*
X92039000Y-82857071D01*
X92086619Y-82761833D01*
X92181857Y-82714214D01*
X92372333Y-82714214D01*
X92467571Y-82761833D01*
X92515190Y-82857071D01*
X92515190Y-82952309D01*
X92039000Y-83047547D01*
X92943761Y-83380880D02*
X92943761Y-82714214D01*
X92943761Y-82809452D02*
X92991380Y-82761833D01*
X93086619Y-82714214D01*
X93229476Y-82714214D01*
X93324714Y-82761833D01*
X93372333Y-82857071D01*
X93372333Y-83380880D01*
X93372333Y-82857071D02*
X93419952Y-82761833D01*
X93515190Y-82714214D01*
X93658047Y-82714214D01*
X93753285Y-82761833D01*
X93800904Y-82857071D01*
X93800904Y-83380880D01*
X94229476Y-83333261D02*
X94324714Y-83380880D01*
X94515190Y-83380880D01*
X94610428Y-83333261D01*
X94658047Y-83238023D01*
X94658047Y-83190404D01*
X94610428Y-83095166D01*
X94515190Y-83047547D01*
X94372333Y-83047547D01*
X94277095Y-82999928D01*
X94229476Y-82904690D01*
X94229476Y-82857071D01*
X94277095Y-82761833D01*
X94372333Y-82714214D01*
X94515190Y-82714214D01*
X94610428Y-82761833D01*
X75402595Y-60790880D02*
X75402595Y-61600404D01*
X75450214Y-61695642D01*
X75497833Y-61743261D01*
X75593071Y-61790880D01*
X75783547Y-61790880D01*
X75878785Y-61743261D01*
X75926404Y-61695642D01*
X75974023Y-61600404D01*
X75974023Y-60790880D01*
X76593071Y-61219452D02*
X76497833Y-61171833D01*
X76450214Y-61124214D01*
X76402595Y-61028976D01*
X76402595Y-60981357D01*
X76450214Y-60886119D01*
X76497833Y-60838500D01*
X76593071Y-60790880D01*
X76783547Y-60790880D01*
X76878785Y-60838500D01*
X76926404Y-60886119D01*
X76974023Y-60981357D01*
X76974023Y-61028976D01*
X76926404Y-61124214D01*
X76878785Y-61171833D01*
X76783547Y-61219452D01*
X76593071Y-61219452D01*
X76497833Y-61267071D01*
X76450214Y-61314690D01*
X76402595Y-61409928D01*
X76402595Y-61600404D01*
X76450214Y-61695642D01*
X76497833Y-61743261D01*
X76593071Y-61790880D01*
X76783547Y-61790880D01*
X76878785Y-61743261D01*
X76926404Y-61695642D01*
X76974023Y-61600404D01*
X76974023Y-61409928D01*
X76926404Y-61314690D01*
X76878785Y-61267071D01*
X76783547Y-61219452D01*
X68238095Y-87252380D02*
X68238095Y-88061904D01*
X68285714Y-88157142D01*
X68333333Y-88204761D01*
X68428571Y-88252380D01*
X68619047Y-88252380D01*
X68714285Y-88204761D01*
X68761904Y-88157142D01*
X68809523Y-88061904D01*
X68809523Y-87252380D01*
X69714285Y-87585714D02*
X69714285Y-88252380D01*
X69476190Y-87204761D02*
X69238095Y-87919047D01*
X69857142Y-87919047D01*
X93206404Y-100906880D02*
X93206404Y-99906880D01*
X93444500Y-99906880D01*
X93587357Y-99954500D01*
X93682595Y-100049738D01*
X93730214Y-100144976D01*
X93777833Y-100335452D01*
X93777833Y-100478309D01*
X93730214Y-100668785D01*
X93682595Y-100764023D01*
X93587357Y-100859261D01*
X93444500Y-100906880D01*
X93206404Y-100906880D01*
X94111166Y-99906880D02*
X94730214Y-99906880D01*
X94396880Y-100287833D01*
X94539738Y-100287833D01*
X94634976Y-100335452D01*
X94682595Y-100383071D01*
X94730214Y-100478309D01*
X94730214Y-100716404D01*
X94682595Y-100811642D01*
X94634976Y-100859261D01*
X94539738Y-100906880D01*
X94254023Y-100906880D01*
X94158785Y-100859261D01*
X94111166Y-100811642D01*
X83554404Y-100906880D02*
X83554404Y-99906880D01*
X83792500Y-99906880D01*
X83935357Y-99954500D01*
X84030595Y-100049738D01*
X84078214Y-100144976D01*
X84125833Y-100335452D01*
X84125833Y-100478309D01*
X84078214Y-100668785D01*
X84030595Y-100764023D01*
X83935357Y-100859261D01*
X83792500Y-100906880D01*
X83554404Y-100906880D01*
X85078214Y-100906880D02*
X84506785Y-100906880D01*
X84792500Y-100906880D02*
X84792500Y-99906880D01*
X84697261Y-100049738D01*
X84602023Y-100144976D01*
X84506785Y-100192595D01*
X103366404Y-100906880D02*
X103366404Y-99906880D01*
X103604500Y-99906880D01*
X103747357Y-99954500D01*
X103842595Y-100049738D01*
X103890214Y-100144976D01*
X103937833Y-100335452D01*
X103937833Y-100478309D01*
X103890214Y-100668785D01*
X103842595Y-100764023D01*
X103747357Y-100859261D01*
X103604500Y-100906880D01*
X103366404Y-100906880D01*
X104414023Y-100906880D02*
X104604500Y-100906880D01*
X104699738Y-100859261D01*
X104747357Y-100811642D01*
X104842595Y-100668785D01*
X104890214Y-100478309D01*
X104890214Y-100097357D01*
X104842595Y-100002119D01*
X104794976Y-99954500D01*
X104699738Y-99906880D01*
X104509261Y-99906880D01*
X104414023Y-99954500D01*
X104366404Y-100002119D01*
X104318785Y-100097357D01*
X104318785Y-100335452D01*
X104366404Y-100430690D01*
X104414023Y-100478309D01*
X104509261Y-100525928D01*
X104699738Y-100525928D01*
X104794976Y-100478309D01*
X104842595Y-100430690D01*
X104890214Y-100335452D01*
X113050214Y-100906880D02*
X113050214Y-99906880D01*
X113288309Y-99906880D01*
X113431166Y-99954500D01*
X113526404Y-100049738D01*
X113574023Y-100144976D01*
X113621642Y-100335452D01*
X113621642Y-100478309D01*
X113574023Y-100668785D01*
X113526404Y-100764023D01*
X113431166Y-100859261D01*
X113288309Y-100906880D01*
X113050214Y-100906880D01*
X114574023Y-100906880D02*
X114002595Y-100906880D01*
X114288309Y-100906880D02*
X114288309Y-99906880D01*
X114193071Y-100049738D01*
X114097833Y-100144976D01*
X114002595Y-100192595D01*
X115526404Y-100906880D02*
X114954976Y-100906880D01*
X115240690Y-100906880D02*
X115240690Y-99906880D01*
X115145452Y-100049738D01*
X115050214Y-100144976D01*
X114954976Y-100192595D01*
X68138095Y-59652380D02*
X68138095Y-60461904D01*
X68185714Y-60557142D01*
X68233333Y-60604761D01*
X68328571Y-60652380D01*
X68519047Y-60652380D01*
X68614285Y-60604761D01*
X68661904Y-60557142D01*
X68709523Y-60461904D01*
X68709523Y-59652380D01*
X69661904Y-59652380D02*
X69185714Y-59652380D01*
X69138095Y-60128571D01*
X69185714Y-60080952D01*
X69280952Y-60033333D01*
X69519047Y-60033333D01*
X69614285Y-60080952D01*
X69661904Y-60128571D01*
X69709523Y-60223809D01*
X69709523Y-60461904D01*
X69661904Y-60557142D01*
X69614285Y-60604761D01*
X69519047Y-60652380D01*
X69280952Y-60652380D01*
X69185714Y-60604761D01*
X69138095Y-60557142D01*
X80990595Y-60790880D02*
X80990595Y-61600404D01*
X81038214Y-61695642D01*
X81085833Y-61743261D01*
X81181071Y-61790880D01*
X81371547Y-61790880D01*
X81466785Y-61743261D01*
X81514404Y-61695642D01*
X81562023Y-61600404D01*
X81562023Y-60790880D01*
X82085833Y-61790880D02*
X82276309Y-61790880D01*
X82371547Y-61743261D01*
X82419166Y-61695642D01*
X82514404Y-61552785D01*
X82562023Y-61362309D01*
X82562023Y-60981357D01*
X82514404Y-60886119D01*
X82466785Y-60838500D01*
X82371547Y-60790880D01*
X82181071Y-60790880D01*
X82085833Y-60838500D01*
X82038214Y-60886119D01*
X81990595Y-60981357D01*
X81990595Y-61219452D01*
X82038214Y-61314690D01*
X82085833Y-61362309D01*
X82181071Y-61409928D01*
X82371547Y-61409928D01*
X82466785Y-61362309D01*
X82514404Y-61314690D01*
X82562023Y-61219452D01*
X86102404Y-60790880D02*
X86102404Y-61600404D01*
X86150023Y-61695642D01*
X86197642Y-61743261D01*
X86292880Y-61790880D01*
X86483357Y-61790880D01*
X86578595Y-61743261D01*
X86626214Y-61695642D01*
X86673833Y-61600404D01*
X86673833Y-60790880D01*
X87673833Y-61790880D02*
X87102404Y-61790880D01*
X87388119Y-61790880D02*
X87388119Y-60790880D01*
X87292880Y-60933738D01*
X87197642Y-61028976D01*
X87102404Y-61076595D01*
X88292880Y-60790880D02*
X88388119Y-60790880D01*
X88483357Y-60838500D01*
X88530976Y-60886119D01*
X88578595Y-60981357D01*
X88626214Y-61171833D01*
X88626214Y-61409928D01*
X88578595Y-61600404D01*
X88530976Y-61695642D01*
X88483357Y-61743261D01*
X88388119Y-61790880D01*
X88292880Y-61790880D01*
X88197642Y-61743261D01*
X88150023Y-61695642D01*
X88102404Y-61600404D01*
X88054785Y-61409928D01*
X88054785Y-61171833D01*
X88102404Y-60981357D01*
X88150023Y-60886119D01*
X88197642Y-60838500D01*
X88292880Y-60790880D01*
X112994595Y-102954880D02*
X112994595Y-103764404D01*
X113042214Y-103859642D01*
X113089833Y-103907261D01*
X113185071Y-103954880D01*
X113375547Y-103954880D01*
X113470785Y-103907261D01*
X113518404Y-103859642D01*
X113566023Y-103764404D01*
X113566023Y-102954880D01*
X113946976Y-102954880D02*
X114613642Y-102954880D01*
X114185071Y-103954880D01*
X103342595Y-102954880D02*
X103342595Y-103764404D01*
X103390214Y-103859642D01*
X103437833Y-103907261D01*
X103533071Y-103954880D01*
X103723547Y-103954880D01*
X103818785Y-103907261D01*
X103866404Y-103859642D01*
X103914023Y-103764404D01*
X103914023Y-102954880D01*
X104818785Y-102954880D02*
X104628309Y-102954880D01*
X104533071Y-103002500D01*
X104485452Y-103050119D01*
X104390214Y-103192976D01*
X104342595Y-103383452D01*
X104342595Y-103764404D01*
X104390214Y-103859642D01*
X104437833Y-103907261D01*
X104533071Y-103954880D01*
X104723547Y-103954880D01*
X104818785Y-103907261D01*
X104866404Y-103859642D01*
X104914023Y-103764404D01*
X104914023Y-103526309D01*
X104866404Y-103431071D01*
X104818785Y-103383452D01*
X104723547Y-103335833D01*
X104533071Y-103335833D01*
X104437833Y-103383452D01*
X104390214Y-103431071D01*
X104342595Y-103526309D01*
X83530595Y-102954880D02*
X83530595Y-103764404D01*
X83578214Y-103859642D01*
X83625833Y-103907261D01*
X83721071Y-103954880D01*
X83911547Y-103954880D01*
X84006785Y-103907261D01*
X84054404Y-103859642D01*
X84102023Y-103764404D01*
X84102023Y-102954880D01*
X84530595Y-103050119D02*
X84578214Y-103002500D01*
X84673452Y-102954880D01*
X84911547Y-102954880D01*
X85006785Y-103002500D01*
X85054404Y-103050119D01*
X85102023Y-103145357D01*
X85102023Y-103240595D01*
X85054404Y-103383452D01*
X84482976Y-103954880D01*
X85102023Y-103954880D01*
X93182595Y-102954880D02*
X93182595Y-103764404D01*
X93230214Y-103859642D01*
X93277833Y-103907261D01*
X93373071Y-103954880D01*
X93563547Y-103954880D01*
X93658785Y-103907261D01*
X93706404Y-103859642D01*
X93754023Y-103764404D01*
X93754023Y-102954880D01*
X94134976Y-102954880D02*
X94754023Y-102954880D01*
X94420690Y-103335833D01*
X94563547Y-103335833D01*
X94658785Y-103383452D01*
X94706404Y-103431071D01*
X94754023Y-103526309D01*
X94754023Y-103764404D01*
X94706404Y-103859642D01*
X94658785Y-103907261D01*
X94563547Y-103954880D01*
X94277833Y-103954880D01*
X94182595Y-103907261D01*
X94134976Y-103859642D01*
M02*
