%FSLAX45Y45*%
G04 Gerber Fmt 4.5, Leading zero omitted, Abs format (unit mm)*
G04 Created by KiCad (PCBNEW 5.0.2) date Fr 28 Dez 2018 21:47:53 CET*
%MOMM*%
%LPD*%
G01*
G04 APERTURE LIST*
%ADD10C,0.200000*%
%ADD11C,0.300000*%
G04 APERTURE END LIST*
D10*
X11909050Y-3619250D02*
X5152650Y-3619250D01*
X11909050Y-12204450D02*
X11909050Y-3619250D01*
X5152650Y-12204450D02*
X11909050Y-12204450D01*
X5152650Y-3619250D02*
X5152650Y-12204450D01*
D10*
X5860850Y-10256850D02*
X6160850Y-10556850D01*
X6160850Y-10256850D02*
X5860850Y-10556850D01*
X10900850Y-5266850D02*
X11200850Y-5566850D01*
X11200850Y-5266850D02*
X10900850Y-5566850D01*
D11*
X5429078Y-12680164D02*
X5429078Y-12380164D01*
X5500507Y-12380164D01*
X5543364Y-12394450D01*
X5571936Y-12423021D01*
X5586221Y-12451593D01*
X5600507Y-12508736D01*
X5600507Y-12551593D01*
X5586221Y-12608736D01*
X5571936Y-12637307D01*
X5543364Y-12665879D01*
X5500507Y-12680164D01*
X5429078Y-12680164D01*
X5729078Y-12680164D02*
X5729078Y-12480164D01*
X5729078Y-12537307D02*
X5743364Y-12508736D01*
X5757650Y-12494450D01*
X5786221Y-12480164D01*
X5814793Y-12480164D01*
X5914793Y-12680164D02*
X5914793Y-12480164D01*
X5914793Y-12380164D02*
X5900507Y-12394450D01*
X5914793Y-12408736D01*
X5929078Y-12394450D01*
X5914793Y-12380164D01*
X5914793Y-12408736D01*
X6100507Y-12680164D02*
X6071936Y-12665879D01*
X6057650Y-12637307D01*
X6057650Y-12380164D01*
X6257650Y-12680164D02*
X6229078Y-12665879D01*
X6214793Y-12637307D01*
X6214793Y-12380164D01*
X6600507Y-12680164D02*
X6600507Y-12380164D01*
X6700507Y-12594450D01*
X6800507Y-12380164D01*
X6800507Y-12680164D01*
X7071936Y-12680164D02*
X7071936Y-12523021D01*
X7057650Y-12494450D01*
X7029078Y-12480164D01*
X6971936Y-12480164D01*
X6943364Y-12494450D01*
X7071936Y-12665879D02*
X7043364Y-12680164D01*
X6971936Y-12680164D01*
X6943364Y-12665879D01*
X6929078Y-12637307D01*
X6929078Y-12608736D01*
X6943364Y-12580164D01*
X6971936Y-12565879D01*
X7043364Y-12565879D01*
X7071936Y-12551593D01*
X7214793Y-12480164D02*
X7214793Y-12780164D01*
X7214793Y-12494450D02*
X7243364Y-12480164D01*
X7300507Y-12480164D01*
X7329078Y-12494450D01*
X7343364Y-12508736D01*
X7357650Y-12537307D01*
X7357650Y-12623021D01*
X7343364Y-12651593D01*
X7329078Y-12665879D01*
X7300507Y-12680164D01*
X7243364Y-12680164D01*
X7214793Y-12665879D01*
X7486221Y-12651593D02*
X7500507Y-12665879D01*
X7486221Y-12680164D01*
X7471936Y-12665879D01*
X7486221Y-12651593D01*
X7486221Y-12680164D01*
X7486221Y-12494450D02*
X7500507Y-12508736D01*
X7486221Y-12523021D01*
X7471936Y-12508736D01*
X7486221Y-12494450D01*
X7486221Y-12523021D01*
X4842650Y-13024450D02*
X5142650Y-13324450D01*
X5142650Y-13024450D02*
X4842650Y-13324450D01*
X5400507Y-13010164D02*
X5586221Y-13010164D01*
X5486221Y-13124450D01*
X5529078Y-13124450D01*
X5557650Y-13138736D01*
X5571936Y-13153021D01*
X5586221Y-13181593D01*
X5586221Y-13253021D01*
X5571936Y-13281593D01*
X5557650Y-13295879D01*
X5529078Y-13310164D01*
X5443364Y-13310164D01*
X5414793Y-13295879D01*
X5400507Y-13281593D01*
X5714793Y-13281593D02*
X5729078Y-13295879D01*
X5714793Y-13310164D01*
X5700507Y-13295879D01*
X5714793Y-13281593D01*
X5714793Y-13310164D01*
X5914793Y-13010164D02*
X5943364Y-13010164D01*
X5971936Y-13024450D01*
X5986221Y-13038736D01*
X6000507Y-13067307D01*
X6014793Y-13124450D01*
X6014793Y-13195879D01*
X6000507Y-13253021D01*
X5986221Y-13281593D01*
X5971936Y-13295879D01*
X5943364Y-13310164D01*
X5914793Y-13310164D01*
X5886221Y-13295879D01*
X5871936Y-13281593D01*
X5857650Y-13253021D01*
X5843364Y-13195879D01*
X5843364Y-13124450D01*
X5857650Y-13067307D01*
X5871936Y-13038736D01*
X5886221Y-13024450D01*
X5914793Y-13010164D01*
X6200507Y-13010164D02*
X6229078Y-13010164D01*
X6257650Y-13024450D01*
X6271936Y-13038736D01*
X6286221Y-13067307D01*
X6300507Y-13124450D01*
X6300507Y-13195879D01*
X6286221Y-13253021D01*
X6271936Y-13281593D01*
X6257650Y-13295879D01*
X6229078Y-13310164D01*
X6200507Y-13310164D01*
X6171936Y-13295879D01*
X6157650Y-13281593D01*
X6143364Y-13253021D01*
X6129078Y-13195879D01*
X6129078Y-13124450D01*
X6143364Y-13067307D01*
X6157650Y-13038736D01*
X6171936Y-13024450D01*
X6200507Y-13010164D01*
X6429078Y-13310164D02*
X6429078Y-13110164D01*
X6429078Y-13138736D02*
X6443364Y-13124450D01*
X6471936Y-13110164D01*
X6514793Y-13110164D01*
X6543364Y-13124450D01*
X6557650Y-13153021D01*
X6557650Y-13310164D01*
X6557650Y-13153021D02*
X6571936Y-13124450D01*
X6600507Y-13110164D01*
X6643364Y-13110164D01*
X6671936Y-13124450D01*
X6686221Y-13153021D01*
X6686221Y-13310164D01*
X6829078Y-13310164D02*
X6829078Y-13110164D01*
X6829078Y-13138736D02*
X6843364Y-13124450D01*
X6871936Y-13110164D01*
X6914793Y-13110164D01*
X6943364Y-13124450D01*
X6957650Y-13153021D01*
X6957650Y-13310164D01*
X6957650Y-13153021D02*
X6971936Y-13124450D01*
X7000507Y-13110164D01*
X7043364Y-13110164D01*
X7071936Y-13124450D01*
X7086221Y-13153021D01*
X7086221Y-13310164D01*
X7671936Y-12995879D02*
X7414793Y-13381593D01*
X8057650Y-13010164D02*
X8086221Y-13010164D01*
X8114793Y-13024450D01*
X8129078Y-13038736D01*
X8143364Y-13067307D01*
X8157650Y-13124450D01*
X8157650Y-13195879D01*
X8143364Y-13253021D01*
X8129078Y-13281593D01*
X8114793Y-13295879D01*
X8086221Y-13310164D01*
X8057650Y-13310164D01*
X8029078Y-13295879D01*
X8014793Y-13281593D01*
X8000507Y-13253021D01*
X7986221Y-13195879D01*
X7986221Y-13124450D01*
X8000507Y-13067307D01*
X8014793Y-13038736D01*
X8029078Y-13024450D01*
X8057650Y-13010164D01*
X8286221Y-13281593D02*
X8300507Y-13295879D01*
X8286221Y-13310164D01*
X8271936Y-13295879D01*
X8286221Y-13281593D01*
X8286221Y-13310164D01*
X8586221Y-13310164D02*
X8414793Y-13310164D01*
X8500507Y-13310164D02*
X8500507Y-13010164D01*
X8471936Y-13053021D01*
X8443364Y-13081593D01*
X8414793Y-13095879D01*
X8871936Y-13310164D02*
X8700507Y-13310164D01*
X8786221Y-13310164D02*
X8786221Y-13010164D01*
X8757650Y-13053021D01*
X8729078Y-13081593D01*
X8700507Y-13095879D01*
X9043364Y-13138736D02*
X9014793Y-13124450D01*
X9000507Y-13110164D01*
X8986221Y-13081593D01*
X8986221Y-13067307D01*
X9000507Y-13038736D01*
X9014793Y-13024450D01*
X9043364Y-13010164D01*
X9100507Y-13010164D01*
X9129078Y-13024450D01*
X9143364Y-13038736D01*
X9157650Y-13067307D01*
X9157650Y-13081593D01*
X9143364Y-13110164D01*
X9129078Y-13124450D01*
X9100507Y-13138736D01*
X9043364Y-13138736D01*
X9014793Y-13153021D01*
X9000507Y-13167307D01*
X8986221Y-13195879D01*
X8986221Y-13253021D01*
X9000507Y-13281593D01*
X9014793Y-13295879D01*
X9043364Y-13310164D01*
X9100507Y-13310164D01*
X9129078Y-13295879D01*
X9143364Y-13281593D01*
X9157650Y-13253021D01*
X9157650Y-13195879D01*
X9143364Y-13167307D01*
X9129078Y-13153021D01*
X9100507Y-13138736D01*
X9271936Y-13010164D02*
X9271936Y-13067307D01*
X9386221Y-13010164D02*
X9386221Y-13067307D01*
X9829078Y-13424450D02*
X9814793Y-13410164D01*
X9786221Y-13367307D01*
X9771936Y-13338736D01*
X9757650Y-13295879D01*
X9743364Y-13224450D01*
X9743364Y-13167307D01*
X9757650Y-13095879D01*
X9771936Y-13053021D01*
X9786221Y-13024450D01*
X9814793Y-12981593D01*
X9829078Y-12967307D01*
X9929078Y-13038736D02*
X9943364Y-13024450D01*
X9971936Y-13010164D01*
X10043364Y-13010164D01*
X10071936Y-13024450D01*
X10086221Y-13038736D01*
X10100507Y-13067307D01*
X10100507Y-13095879D01*
X10086221Y-13138736D01*
X9914793Y-13310164D01*
X10100507Y-13310164D01*
X10457650Y-13310164D02*
X10457650Y-13010164D01*
X10586221Y-13310164D02*
X10586221Y-13153021D01*
X10571936Y-13124450D01*
X10543364Y-13110164D01*
X10500507Y-13110164D01*
X10471936Y-13124450D01*
X10457650Y-13138736D01*
X10771936Y-13310164D02*
X10743364Y-13295879D01*
X10729078Y-13281593D01*
X10714793Y-13253021D01*
X10714793Y-13167307D01*
X10729078Y-13138736D01*
X10743364Y-13124450D01*
X10771936Y-13110164D01*
X10814793Y-13110164D01*
X10843364Y-13124450D01*
X10857650Y-13138736D01*
X10871936Y-13167307D01*
X10871936Y-13253021D01*
X10857650Y-13281593D01*
X10843364Y-13295879D01*
X10814793Y-13310164D01*
X10771936Y-13310164D01*
X11043364Y-13310164D02*
X11014793Y-13295879D01*
X11000507Y-13267307D01*
X11000507Y-13010164D01*
X11271936Y-13295879D02*
X11243364Y-13310164D01*
X11186221Y-13310164D01*
X11157650Y-13295879D01*
X11143364Y-13267307D01*
X11143364Y-13153021D01*
X11157650Y-13124450D01*
X11186221Y-13110164D01*
X11243364Y-13110164D01*
X11271936Y-13124450D01*
X11286221Y-13153021D01*
X11286221Y-13181593D01*
X11143364Y-13210164D01*
X11400507Y-13295879D02*
X11429078Y-13310164D01*
X11486221Y-13310164D01*
X11514793Y-13295879D01*
X11529078Y-13267307D01*
X11529078Y-13253021D01*
X11514793Y-13224450D01*
X11486221Y-13210164D01*
X11443364Y-13210164D01*
X11414793Y-13195879D01*
X11400507Y-13167307D01*
X11400507Y-13153021D01*
X11414793Y-13124450D01*
X11443364Y-13110164D01*
X11486221Y-13110164D01*
X11514793Y-13124450D01*
X11629078Y-13424450D02*
X11643364Y-13410164D01*
X11671936Y-13367307D01*
X11686221Y-13338736D01*
X11700507Y-13295879D01*
X11714793Y-13224450D01*
X11714793Y-13167307D01*
X11700507Y-13095879D01*
X11686221Y-13053021D01*
X11671936Y-13024450D01*
X11643364Y-12981593D01*
X11629078Y-12967307D01*
X12171936Y-13424450D02*
X12157650Y-13410164D01*
X12129078Y-13367307D01*
X12114793Y-13338736D01*
X12100507Y-13295879D01*
X12086221Y-13224450D01*
X12086221Y-13167307D01*
X12100507Y-13095879D01*
X12114793Y-13053021D01*
X12129078Y-13024450D01*
X12157650Y-12981593D01*
X12171936Y-12967307D01*
X12286221Y-13110164D02*
X12286221Y-13310164D01*
X12286221Y-13138736D02*
X12300507Y-13124450D01*
X12329078Y-13110164D01*
X12371936Y-13110164D01*
X12400507Y-13124450D01*
X12414793Y-13153021D01*
X12414793Y-13310164D01*
X12600507Y-13310164D02*
X12571936Y-13295879D01*
X12557650Y-13281593D01*
X12543364Y-13253021D01*
X12543364Y-13167307D01*
X12557650Y-13138736D01*
X12571936Y-13124450D01*
X12600507Y-13110164D01*
X12643364Y-13110164D01*
X12671936Y-13124450D01*
X12686221Y-13138736D01*
X12700507Y-13167307D01*
X12700507Y-13253021D01*
X12686221Y-13281593D01*
X12671936Y-13295879D01*
X12643364Y-13310164D01*
X12600507Y-13310164D01*
X12786221Y-13110164D02*
X12900507Y-13110164D01*
X12829078Y-13010164D02*
X12829078Y-13267307D01*
X12843364Y-13295879D01*
X12871936Y-13310164D01*
X12900507Y-13310164D01*
X13229078Y-13110164D02*
X13229078Y-13410164D01*
X13229078Y-13124450D02*
X13257650Y-13110164D01*
X13314793Y-13110164D01*
X13343364Y-13124450D01*
X13357650Y-13138736D01*
X13371936Y-13167307D01*
X13371936Y-13253021D01*
X13357650Y-13281593D01*
X13343364Y-13295879D01*
X13314793Y-13310164D01*
X13257650Y-13310164D01*
X13229078Y-13295879D01*
X13543364Y-13310164D02*
X13514793Y-13295879D01*
X13500507Y-13267307D01*
X13500507Y-13010164D01*
X13786221Y-13310164D02*
X13786221Y-13153021D01*
X13771936Y-13124450D01*
X13743364Y-13110164D01*
X13686221Y-13110164D01*
X13657650Y-13124450D01*
X13786221Y-13295879D02*
X13757650Y-13310164D01*
X13686221Y-13310164D01*
X13657650Y-13295879D01*
X13643364Y-13267307D01*
X13643364Y-13238736D01*
X13657650Y-13210164D01*
X13686221Y-13195879D01*
X13757650Y-13195879D01*
X13786221Y-13181593D01*
X13886221Y-13110164D02*
X14000507Y-13110164D01*
X13929078Y-13010164D02*
X13929078Y-13267307D01*
X13943364Y-13295879D01*
X13971936Y-13310164D01*
X14000507Y-13310164D01*
X14214793Y-13295879D02*
X14186221Y-13310164D01*
X14129078Y-13310164D01*
X14100507Y-13295879D01*
X14086221Y-13267307D01*
X14086221Y-13153021D01*
X14100507Y-13124450D01*
X14129078Y-13110164D01*
X14186221Y-13110164D01*
X14214793Y-13124450D01*
X14229078Y-13153021D01*
X14229078Y-13181593D01*
X14086221Y-13210164D01*
X14486221Y-13310164D02*
X14486221Y-13010164D01*
X14486221Y-13295879D02*
X14457650Y-13310164D01*
X14400507Y-13310164D01*
X14371936Y-13295879D01*
X14357650Y-13281593D01*
X14343364Y-13253021D01*
X14343364Y-13167307D01*
X14357650Y-13138736D01*
X14371936Y-13124450D01*
X14400507Y-13110164D01*
X14457650Y-13110164D01*
X14486221Y-13124450D01*
X14600507Y-13424450D02*
X14614793Y-13410164D01*
X14643364Y-13367307D01*
X14657650Y-13338736D01*
X14671936Y-13295879D01*
X14686221Y-13224450D01*
X14686221Y-13167307D01*
X14671936Y-13095879D01*
X14657650Y-13053021D01*
X14643364Y-13024450D01*
X14614793Y-12981593D01*
X14600507Y-12967307D01*
M02*
