G04 #@! TF.GenerationSoftware,KiCad,Pcbnew,(5.1.6-dirty)*
G04 #@! TF.CreationDate,2020-05-23T11:00:52+02:00*
G04 #@! TF.ProjectId,esp32control,65737033-3263-46f6-9e74-726f6c2e6b69,rev?*
G04 #@! TF.SameCoordinates,Original*
G04 #@! TF.FileFunction,Paste,Top*
G04 #@! TF.FilePolarity,Positive*
%FSLAX46Y46*%
G04 Gerber Fmt 4.6, Leading zero omitted, Abs format (unit mm)*
G04 Created by KiCad (PCBNEW (5.1.6-dirty)) date 2020-05-23 11:00:52*
%MOMM*%
%LPD*%
G01*
G04 APERTURE LIST*
%ADD10R,0.500000X0.800000*%
%ADD11R,2.200000X1.500000*%
%ADD12R,1.800000X2.500000*%
%ADD13R,2.500000X1.800000*%
%ADD14R,0.800000X0.900000*%
%ADD15R,2.000000X1.500000*%
%ADD16R,2.000000X3.800000*%
%ADD17R,1.000000X3.200000*%
%ADD18R,6.000000X6.000000*%
%ADD19O,0.900000X2.500000*%
%ADD20O,2.500000X0.900000*%
%ADD21R,0.640000X2.000000*%
%ADD22R,0.600000X1.550000*%
%ADD23R,0.900000X1.200000*%
%ADD24R,1.600000X1.600000*%
G04 APERTURE END LIST*
G36*
G01*
X71375000Y-66125000D02*
X70125000Y-66125000D01*
G75*
G02*
X69875000Y-65875000I0J250000D01*
G01*
X69875000Y-65125000D01*
G75*
G02*
X70125000Y-64875000I250000J0D01*
G01*
X71375000Y-64875000D01*
G75*
G02*
X71625000Y-65125000I0J-250000D01*
G01*
X71625000Y-65875000D01*
G75*
G02*
X71375000Y-66125000I-250000J0D01*
G01*
G37*
G36*
G01*
X71375000Y-68925000D02*
X70125000Y-68925000D01*
G75*
G02*
X69875000Y-68675000I0J250000D01*
G01*
X69875000Y-67925000D01*
G75*
G02*
X70125000Y-67675000I250000J0D01*
G01*
X71375000Y-67675000D01*
G75*
G02*
X71625000Y-67925000I0J-250000D01*
G01*
X71625000Y-68675000D01*
G75*
G02*
X71375000Y-68925000I-250000J0D01*
G01*
G37*
G36*
G01*
X66925000Y-79875000D02*
X66925000Y-78625000D01*
G75*
G02*
X67175000Y-78375000I250000J0D01*
G01*
X67925000Y-78375000D01*
G75*
G02*
X68175000Y-78625000I0J-250000D01*
G01*
X68175000Y-79875000D01*
G75*
G02*
X67925000Y-80125000I-250000J0D01*
G01*
X67175000Y-80125000D01*
G75*
G02*
X66925000Y-79875000I0J250000D01*
G01*
G37*
G36*
G01*
X64125000Y-79875000D02*
X64125000Y-78625000D01*
G75*
G02*
X64375000Y-78375000I250000J0D01*
G01*
X65125000Y-78375000D01*
G75*
G02*
X65375000Y-78625000I0J-250000D01*
G01*
X65375000Y-79875000D01*
G75*
G02*
X65125000Y-80125000I-250000J0D01*
G01*
X64375000Y-80125000D01*
G75*
G02*
X64125000Y-79875000I0J250000D01*
G01*
G37*
D10*
X65400000Y-73900000D03*
X66200000Y-73900000D03*
X67000000Y-73900000D03*
X67800000Y-73900000D03*
X68600000Y-73900000D03*
X68600000Y-76100000D03*
X67800000Y-76100000D03*
X67000000Y-76100000D03*
X66200000Y-76100000D03*
X65400000Y-76100000D03*
G36*
G01*
X116856250Y-61635000D02*
X116343750Y-61635000D01*
G75*
G02*
X116125000Y-61416250I0J218750D01*
G01*
X116125000Y-60978750D01*
G75*
G02*
X116343750Y-60760000I218750J0D01*
G01*
X116856250Y-60760000D01*
G75*
G02*
X117075000Y-60978750I0J-218750D01*
G01*
X117075000Y-61416250D01*
G75*
G02*
X116856250Y-61635000I-218750J0D01*
G01*
G37*
G36*
G01*
X116856250Y-63210000D02*
X116343750Y-63210000D01*
G75*
G02*
X116125000Y-62991250I0J218750D01*
G01*
X116125000Y-62553750D01*
G75*
G02*
X116343750Y-62335000I218750J0D01*
G01*
X116856250Y-62335000D01*
G75*
G02*
X117075000Y-62553750I0J-218750D01*
G01*
X117075000Y-62991250D01*
G75*
G02*
X116856250Y-63210000I-218750J0D01*
G01*
G37*
G36*
G01*
X112356250Y-61635000D02*
X111843750Y-61635000D01*
G75*
G02*
X111625000Y-61416250I0J218750D01*
G01*
X111625000Y-60978750D01*
G75*
G02*
X111843750Y-60760000I218750J0D01*
G01*
X112356250Y-60760000D01*
G75*
G02*
X112575000Y-60978750I0J-218750D01*
G01*
X112575000Y-61416250D01*
G75*
G02*
X112356250Y-61635000I-218750J0D01*
G01*
G37*
G36*
G01*
X112356250Y-63210000D02*
X111843750Y-63210000D01*
G75*
G02*
X111625000Y-62991250I0J218750D01*
G01*
X111625000Y-62553750D01*
G75*
G02*
X111843750Y-62335000I218750J0D01*
G01*
X112356250Y-62335000D01*
G75*
G02*
X112575000Y-62553750I0J-218750D01*
G01*
X112575000Y-62991250D01*
G75*
G02*
X112356250Y-63210000I-218750J0D01*
G01*
G37*
G36*
G01*
X71150000Y-71743750D02*
X71150000Y-72256250D01*
G75*
G02*
X70931250Y-72475000I-218750J0D01*
G01*
X70493750Y-72475000D01*
G75*
G02*
X70275000Y-72256250I0J218750D01*
G01*
X70275000Y-71743750D01*
G75*
G02*
X70493750Y-71525000I218750J0D01*
G01*
X70931250Y-71525000D01*
G75*
G02*
X71150000Y-71743750I0J-218750D01*
G01*
G37*
G36*
G01*
X72725000Y-71743750D02*
X72725000Y-72256250D01*
G75*
G02*
X72506250Y-72475000I-218750J0D01*
G01*
X72068750Y-72475000D01*
G75*
G02*
X71850000Y-72256250I0J218750D01*
G01*
X71850000Y-71743750D01*
G75*
G02*
X72068750Y-71525000I218750J0D01*
G01*
X72506250Y-71525000D01*
G75*
G02*
X72725000Y-71743750I0J-218750D01*
G01*
G37*
G36*
G01*
X114062500Y-62550000D02*
X114537500Y-62550000D01*
G75*
G02*
X114775000Y-62787500I0J-237500D01*
G01*
X114775000Y-63362500D01*
G75*
G02*
X114537500Y-63600000I-237500J0D01*
G01*
X114062500Y-63600000D01*
G75*
G02*
X113825000Y-63362500I0J237500D01*
G01*
X113825000Y-62787500D01*
G75*
G02*
X114062500Y-62550000I237500J0D01*
G01*
G37*
G36*
G01*
X114062500Y-60800000D02*
X114537500Y-60800000D01*
G75*
G02*
X114775000Y-61037500I0J-237500D01*
G01*
X114775000Y-61612500D01*
G75*
G02*
X114537500Y-61850000I-237500J0D01*
G01*
X114062500Y-61850000D01*
G75*
G02*
X113825000Y-61612500I0J237500D01*
G01*
X113825000Y-61037500D01*
G75*
G02*
X114062500Y-60800000I237500J0D01*
G01*
G37*
G36*
G01*
X109362500Y-62550000D02*
X109837500Y-62550000D01*
G75*
G02*
X110075000Y-62787500I0J-237500D01*
G01*
X110075000Y-63362500D01*
G75*
G02*
X109837500Y-63600000I-237500J0D01*
G01*
X109362500Y-63600000D01*
G75*
G02*
X109125000Y-63362500I0J237500D01*
G01*
X109125000Y-62787500D01*
G75*
G02*
X109362500Y-62550000I237500J0D01*
G01*
G37*
G36*
G01*
X109362500Y-60800000D02*
X109837500Y-60800000D01*
G75*
G02*
X110075000Y-61037500I0J-237500D01*
G01*
X110075000Y-61612500D01*
G75*
G02*
X109837500Y-61850000I-237500J0D01*
G01*
X109362500Y-61850000D01*
G75*
G02*
X109125000Y-61612500I0J237500D01*
G01*
X109125000Y-61037500D01*
G75*
G02*
X109362500Y-60800000I237500J0D01*
G01*
G37*
G36*
G01*
X62650000Y-75743750D02*
X62650000Y-76256250D01*
G75*
G02*
X62431250Y-76475000I-218750J0D01*
G01*
X61993750Y-76475000D01*
G75*
G02*
X61775000Y-76256250I0J218750D01*
G01*
X61775000Y-75743750D01*
G75*
G02*
X61993750Y-75525000I218750J0D01*
G01*
X62431250Y-75525000D01*
G75*
G02*
X62650000Y-75743750I0J-218750D01*
G01*
G37*
G36*
G01*
X64225000Y-75743750D02*
X64225000Y-76256250D01*
G75*
G02*
X64006250Y-76475000I-218750J0D01*
G01*
X63568750Y-76475000D01*
G75*
G02*
X63350000Y-76256250I0J218750D01*
G01*
X63350000Y-75743750D01*
G75*
G02*
X63568750Y-75525000I218750J0D01*
G01*
X64006250Y-75525000D01*
G75*
G02*
X64225000Y-75743750I0J-218750D01*
G01*
G37*
D11*
X57468000Y-80288000D03*
X57468000Y-86688000D03*
G36*
G01*
X78448250Y-62704500D02*
X78960750Y-62704500D01*
G75*
G02*
X79179500Y-62923250I0J-218750D01*
G01*
X79179500Y-63360750D01*
G75*
G02*
X78960750Y-63579500I-218750J0D01*
G01*
X78448250Y-63579500D01*
G75*
G02*
X78229500Y-63360750I0J218750D01*
G01*
X78229500Y-62923250D01*
G75*
G02*
X78448250Y-62704500I218750J0D01*
G01*
G37*
G36*
G01*
X78448250Y-61129500D02*
X78960750Y-61129500D01*
G75*
G02*
X79179500Y-61348250I0J-218750D01*
G01*
X79179500Y-61785750D01*
G75*
G02*
X78960750Y-62004500I-218750J0D01*
G01*
X78448250Y-62004500D01*
G75*
G02*
X78229500Y-61785750I0J218750D01*
G01*
X78229500Y-61348250D01*
G75*
G02*
X78448250Y-61129500I218750J0D01*
G01*
G37*
G36*
G01*
X60137500Y-78256250D02*
X60137500Y-77743750D01*
G75*
G02*
X60356250Y-77525000I218750J0D01*
G01*
X60793750Y-77525000D01*
G75*
G02*
X61012500Y-77743750I0J-218750D01*
G01*
X61012500Y-78256250D01*
G75*
G02*
X60793750Y-78475000I-218750J0D01*
G01*
X60356250Y-78475000D01*
G75*
G02*
X60137500Y-78256250I0J218750D01*
G01*
G37*
G36*
G01*
X58562500Y-78256250D02*
X58562500Y-77743750D01*
G75*
G02*
X58781250Y-77525000I218750J0D01*
G01*
X59218750Y-77525000D01*
G75*
G02*
X59437500Y-77743750I0J-218750D01*
G01*
X59437500Y-78256250D01*
G75*
G02*
X59218750Y-78475000I-218750J0D01*
G01*
X58781250Y-78475000D01*
G75*
G02*
X58562500Y-78256250I0J218750D01*
G01*
G37*
G36*
G01*
X98930000Y-50736250D02*
X98930000Y-50223750D01*
G75*
G02*
X99148750Y-50005000I218750J0D01*
G01*
X99586250Y-50005000D01*
G75*
G02*
X99805000Y-50223750I0J-218750D01*
G01*
X99805000Y-50736250D01*
G75*
G02*
X99586250Y-50955000I-218750J0D01*
G01*
X99148750Y-50955000D01*
G75*
G02*
X98930000Y-50736250I0J218750D01*
G01*
G37*
G36*
G01*
X97355000Y-50736250D02*
X97355000Y-50223750D01*
G75*
G02*
X97573750Y-50005000I218750J0D01*
G01*
X98011250Y-50005000D01*
G75*
G02*
X98230000Y-50223750I0J-218750D01*
G01*
X98230000Y-50736250D01*
G75*
G02*
X98011250Y-50955000I-218750J0D01*
G01*
X97573750Y-50955000D01*
G75*
G02*
X97355000Y-50736250I0J218750D01*
G01*
G37*
G36*
G01*
X114930500Y-93848250D02*
X114930500Y-94360750D01*
G75*
G02*
X114711750Y-94579500I-218750J0D01*
G01*
X114274250Y-94579500D01*
G75*
G02*
X114055500Y-94360750I0J218750D01*
G01*
X114055500Y-93848250D01*
G75*
G02*
X114274250Y-93629500I218750J0D01*
G01*
X114711750Y-93629500D01*
G75*
G02*
X114930500Y-93848250I0J-218750D01*
G01*
G37*
G36*
G01*
X116505500Y-93848250D02*
X116505500Y-94360750D01*
G75*
G02*
X116286750Y-94579500I-218750J0D01*
G01*
X115849250Y-94579500D01*
G75*
G02*
X115630500Y-94360750I0J218750D01*
G01*
X115630500Y-93848250D01*
G75*
G02*
X115849250Y-93629500I218750J0D01*
G01*
X116286750Y-93629500D01*
G75*
G02*
X116505500Y-93848250I0J-218750D01*
G01*
G37*
G36*
G01*
X111628500Y-93848250D02*
X111628500Y-94360750D01*
G75*
G02*
X111409750Y-94579500I-218750J0D01*
G01*
X110972250Y-94579500D01*
G75*
G02*
X110753500Y-94360750I0J218750D01*
G01*
X110753500Y-93848250D01*
G75*
G02*
X110972250Y-93629500I218750J0D01*
G01*
X111409750Y-93629500D01*
G75*
G02*
X111628500Y-93848250I0J-218750D01*
G01*
G37*
G36*
G01*
X113203500Y-93848250D02*
X113203500Y-94360750D01*
G75*
G02*
X112984750Y-94579500I-218750J0D01*
G01*
X112547250Y-94579500D01*
G75*
G02*
X112328500Y-94360750I0J218750D01*
G01*
X112328500Y-93848250D01*
G75*
G02*
X112547250Y-93629500I218750J0D01*
G01*
X112984750Y-93629500D01*
G75*
G02*
X113203500Y-93848250I0J-218750D01*
G01*
G37*
G36*
G01*
X103852750Y-92992500D02*
X103340250Y-92992500D01*
G75*
G02*
X103121500Y-92773750I0J218750D01*
G01*
X103121500Y-92336250D01*
G75*
G02*
X103340250Y-92117500I218750J0D01*
G01*
X103852750Y-92117500D01*
G75*
G02*
X104071500Y-92336250I0J-218750D01*
G01*
X104071500Y-92773750D01*
G75*
G02*
X103852750Y-92992500I-218750J0D01*
G01*
G37*
G36*
G01*
X103852750Y-94567500D02*
X103340250Y-94567500D01*
G75*
G02*
X103121500Y-94348750I0J218750D01*
G01*
X103121500Y-93911250D01*
G75*
G02*
X103340250Y-93692500I218750J0D01*
G01*
X103852750Y-93692500D01*
G75*
G02*
X104071500Y-93911250I0J-218750D01*
G01*
X104071500Y-94348750D01*
G75*
G02*
X103852750Y-94567500I-218750J0D01*
G01*
G37*
G36*
G01*
X101371750Y-93692500D02*
X101884250Y-93692500D01*
G75*
G02*
X102103000Y-93911250I0J-218750D01*
G01*
X102103000Y-94348750D01*
G75*
G02*
X101884250Y-94567500I-218750J0D01*
G01*
X101371750Y-94567500D01*
G75*
G02*
X101153000Y-94348750I0J218750D01*
G01*
X101153000Y-93911250D01*
G75*
G02*
X101371750Y-93692500I218750J0D01*
G01*
G37*
G36*
G01*
X101371750Y-92117500D02*
X101884250Y-92117500D01*
G75*
G02*
X102103000Y-92336250I0J-218750D01*
G01*
X102103000Y-92773750D01*
G75*
G02*
X101884250Y-92992500I-218750J0D01*
G01*
X101371750Y-92992500D01*
G75*
G02*
X101153000Y-92773750I0J218750D01*
G01*
X101153000Y-92336250D01*
G75*
G02*
X101371750Y-92117500I218750J0D01*
G01*
G37*
G36*
G01*
X70850000Y-63756250D02*
X70850000Y-63243750D01*
G75*
G02*
X71068750Y-63025000I218750J0D01*
G01*
X71506250Y-63025000D01*
G75*
G02*
X71725000Y-63243750I0J-218750D01*
G01*
X71725000Y-63756250D01*
G75*
G02*
X71506250Y-63975000I-218750J0D01*
G01*
X71068750Y-63975000D01*
G75*
G02*
X70850000Y-63756250I0J218750D01*
G01*
G37*
G36*
G01*
X69275000Y-63756250D02*
X69275000Y-63243750D01*
G75*
G02*
X69493750Y-63025000I218750J0D01*
G01*
X69931250Y-63025000D01*
G75*
G02*
X70150000Y-63243750I0J-218750D01*
G01*
X70150000Y-63756250D01*
G75*
G02*
X69931250Y-63975000I-218750J0D01*
G01*
X69493750Y-63975000D01*
G75*
G02*
X69275000Y-63756250I0J218750D01*
G01*
G37*
G36*
G01*
X77432250Y-88612500D02*
X77944750Y-88612500D01*
G75*
G02*
X78163500Y-88831250I0J-218750D01*
G01*
X78163500Y-89268750D01*
G75*
G02*
X77944750Y-89487500I-218750J0D01*
G01*
X77432250Y-89487500D01*
G75*
G02*
X77213500Y-89268750I0J218750D01*
G01*
X77213500Y-88831250D01*
G75*
G02*
X77432250Y-88612500I218750J0D01*
G01*
G37*
G36*
G01*
X77432250Y-87037500D02*
X77944750Y-87037500D01*
G75*
G02*
X78163500Y-87256250I0J-218750D01*
G01*
X78163500Y-87693750D01*
G75*
G02*
X77944750Y-87912500I-218750J0D01*
G01*
X77432250Y-87912500D01*
G75*
G02*
X77213500Y-87693750I0J218750D01*
G01*
X77213500Y-87256250D01*
G75*
G02*
X77432250Y-87037500I218750J0D01*
G01*
G37*
G36*
G01*
X103500000Y-90546250D02*
X103500000Y-90033750D01*
G75*
G02*
X103718750Y-89815000I218750J0D01*
G01*
X104156250Y-89815000D01*
G75*
G02*
X104375000Y-90033750I0J-218750D01*
G01*
X104375000Y-90546250D01*
G75*
G02*
X104156250Y-90765000I-218750J0D01*
G01*
X103718750Y-90765000D01*
G75*
G02*
X103500000Y-90546250I0J218750D01*
G01*
G37*
G36*
G01*
X101925000Y-90546250D02*
X101925000Y-90033750D01*
G75*
G02*
X102143750Y-89815000I218750J0D01*
G01*
X102581250Y-89815000D01*
G75*
G02*
X102800000Y-90033750I0J-218750D01*
G01*
X102800000Y-90546250D01*
G75*
G02*
X102581250Y-90765000I-218750J0D01*
G01*
X102143750Y-90765000D01*
G75*
G02*
X101925000Y-90546250I0J218750D01*
G01*
G37*
G36*
G01*
X105786500Y-90038250D02*
X105786500Y-90550750D01*
G75*
G02*
X105567750Y-90769500I-218750J0D01*
G01*
X105130250Y-90769500D01*
G75*
G02*
X104911500Y-90550750I0J218750D01*
G01*
X104911500Y-90038250D01*
G75*
G02*
X105130250Y-89819500I218750J0D01*
G01*
X105567750Y-89819500D01*
G75*
G02*
X105786500Y-90038250I0J-218750D01*
G01*
G37*
G36*
G01*
X107361500Y-90038250D02*
X107361500Y-90550750D01*
G75*
G02*
X107142750Y-90769500I-218750J0D01*
G01*
X106705250Y-90769500D01*
G75*
G02*
X106486500Y-90550750I0J218750D01*
G01*
X106486500Y-90038250D01*
G75*
G02*
X106705250Y-89819500I218750J0D01*
G01*
X107142750Y-89819500D01*
G75*
G02*
X107361500Y-90038250I0J-218750D01*
G01*
G37*
G36*
G01*
X92043000Y-63622250D02*
X92043000Y-64134750D01*
G75*
G02*
X91824250Y-64353500I-218750J0D01*
G01*
X91386750Y-64353500D01*
G75*
G02*
X91168000Y-64134750I0J218750D01*
G01*
X91168000Y-63622250D01*
G75*
G02*
X91386750Y-63403500I218750J0D01*
G01*
X91824250Y-63403500D01*
G75*
G02*
X92043000Y-63622250I0J-218750D01*
G01*
G37*
G36*
G01*
X93618000Y-63622250D02*
X93618000Y-64134750D01*
G75*
G02*
X93399250Y-64353500I-218750J0D01*
G01*
X92961750Y-64353500D01*
G75*
G02*
X92743000Y-64134750I0J218750D01*
G01*
X92743000Y-63622250D01*
G75*
G02*
X92961750Y-63403500I218750J0D01*
G01*
X93399250Y-63403500D01*
G75*
G02*
X93618000Y-63622250I0J-218750D01*
G01*
G37*
G36*
G01*
X89624250Y-62704500D02*
X90136750Y-62704500D01*
G75*
G02*
X90355500Y-62923250I0J-218750D01*
G01*
X90355500Y-63360750D01*
G75*
G02*
X90136750Y-63579500I-218750J0D01*
G01*
X89624250Y-63579500D01*
G75*
G02*
X89405500Y-63360750I0J218750D01*
G01*
X89405500Y-62923250D01*
G75*
G02*
X89624250Y-62704500I218750J0D01*
G01*
G37*
G36*
G01*
X89624250Y-61129500D02*
X90136750Y-61129500D01*
G75*
G02*
X90355500Y-61348250I0J-218750D01*
G01*
X90355500Y-61785750D01*
G75*
G02*
X90136750Y-62004500I-218750J0D01*
G01*
X89624250Y-62004500D01*
G75*
G02*
X89405500Y-61785750I0J218750D01*
G01*
X89405500Y-61348250D01*
G75*
G02*
X89624250Y-61129500I218750J0D01*
G01*
G37*
G36*
G01*
X73243750Y-62704500D02*
X73756250Y-62704500D01*
G75*
G02*
X73975000Y-62923250I0J-218750D01*
G01*
X73975000Y-63360750D01*
G75*
G02*
X73756250Y-63579500I-218750J0D01*
G01*
X73243750Y-63579500D01*
G75*
G02*
X73025000Y-63360750I0J218750D01*
G01*
X73025000Y-62923250D01*
G75*
G02*
X73243750Y-62704500I218750J0D01*
G01*
G37*
G36*
G01*
X73243750Y-61129500D02*
X73756250Y-61129500D01*
G75*
G02*
X73975000Y-61348250I0J-218750D01*
G01*
X73975000Y-61785750D01*
G75*
G02*
X73756250Y-62004500I-218750J0D01*
G01*
X73243750Y-62004500D01*
G75*
G02*
X73025000Y-61785750I0J218750D01*
G01*
X73025000Y-61348250D01*
G75*
G02*
X73243750Y-61129500I218750J0D01*
G01*
G37*
G36*
G01*
X101520000Y-50223750D02*
X101520000Y-50736250D01*
G75*
G02*
X101301250Y-50955000I-218750J0D01*
G01*
X100863750Y-50955000D01*
G75*
G02*
X100645000Y-50736250I0J218750D01*
G01*
X100645000Y-50223750D01*
G75*
G02*
X100863750Y-50005000I218750J0D01*
G01*
X101301250Y-50005000D01*
G75*
G02*
X101520000Y-50223750I0J-218750D01*
G01*
G37*
G36*
G01*
X103095000Y-50223750D02*
X103095000Y-50736250D01*
G75*
G02*
X102876250Y-50955000I-218750J0D01*
G01*
X102438750Y-50955000D01*
G75*
G02*
X102220000Y-50736250I0J218750D01*
G01*
X102220000Y-50223750D01*
G75*
G02*
X102438750Y-50005000I218750J0D01*
G01*
X102876250Y-50005000D01*
G75*
G02*
X103095000Y-50223750I0J-218750D01*
G01*
G37*
G36*
G01*
X104932250Y-49622000D02*
X104419750Y-49622000D01*
G75*
G02*
X104201000Y-49403250I0J218750D01*
G01*
X104201000Y-48965750D01*
G75*
G02*
X104419750Y-48747000I218750J0D01*
G01*
X104932250Y-48747000D01*
G75*
G02*
X105151000Y-48965750I0J-218750D01*
G01*
X105151000Y-49403250D01*
G75*
G02*
X104932250Y-49622000I-218750J0D01*
G01*
G37*
G36*
G01*
X104932250Y-51197000D02*
X104419750Y-51197000D01*
G75*
G02*
X104201000Y-50978250I0J218750D01*
G01*
X104201000Y-50540750D01*
G75*
G02*
X104419750Y-50322000I218750J0D01*
G01*
X104932250Y-50322000D01*
G75*
G02*
X105151000Y-50540750I0J-218750D01*
G01*
X105151000Y-50978250D01*
G75*
G02*
X104932250Y-51197000I-218750J0D01*
G01*
G37*
G36*
G01*
X96296250Y-49622000D02*
X95783750Y-49622000D01*
G75*
G02*
X95565000Y-49403250I0J218750D01*
G01*
X95565000Y-48965750D01*
G75*
G02*
X95783750Y-48747000I218750J0D01*
G01*
X96296250Y-48747000D01*
G75*
G02*
X96515000Y-48965750I0J-218750D01*
G01*
X96515000Y-49403250D01*
G75*
G02*
X96296250Y-49622000I-218750J0D01*
G01*
G37*
G36*
G01*
X96296250Y-51197000D02*
X95783750Y-51197000D01*
G75*
G02*
X95565000Y-50978250I0J218750D01*
G01*
X95565000Y-50540750D01*
G75*
G02*
X95783750Y-50322000I218750J0D01*
G01*
X96296250Y-50322000D01*
G75*
G02*
X96515000Y-50540750I0J-218750D01*
G01*
X96515000Y-50978250D01*
G75*
G02*
X96296250Y-51197000I-218750J0D01*
G01*
G37*
G36*
G01*
X103310000Y-64638250D02*
X103310000Y-65150750D01*
G75*
G02*
X103091250Y-65369500I-218750J0D01*
G01*
X102653750Y-65369500D01*
G75*
G02*
X102435000Y-65150750I0J218750D01*
G01*
X102435000Y-64638250D01*
G75*
G02*
X102653750Y-64419500I218750J0D01*
G01*
X103091250Y-64419500D01*
G75*
G02*
X103310000Y-64638250I0J-218750D01*
G01*
G37*
G36*
G01*
X104885000Y-64638250D02*
X104885000Y-65150750D01*
G75*
G02*
X104666250Y-65369500I-218750J0D01*
G01*
X104228750Y-65369500D01*
G75*
G02*
X104010000Y-65150750I0J218750D01*
G01*
X104010000Y-64638250D01*
G75*
G02*
X104228750Y-64419500I218750J0D01*
G01*
X104666250Y-64419500D01*
G75*
G02*
X104885000Y-64638250I0J-218750D01*
G01*
G37*
G36*
G01*
X97214000Y-64638250D02*
X97214000Y-65150750D01*
G75*
G02*
X96995250Y-65369500I-218750J0D01*
G01*
X96557750Y-65369500D01*
G75*
G02*
X96339000Y-65150750I0J218750D01*
G01*
X96339000Y-64638250D01*
G75*
G02*
X96557750Y-64419500I218750J0D01*
G01*
X96995250Y-64419500D01*
G75*
G02*
X97214000Y-64638250I0J-218750D01*
G01*
G37*
G36*
G01*
X98789000Y-64638250D02*
X98789000Y-65150750D01*
G75*
G02*
X98570250Y-65369500I-218750J0D01*
G01*
X98132750Y-65369500D01*
G75*
G02*
X97914000Y-65150750I0J218750D01*
G01*
X97914000Y-64638250D01*
G75*
G02*
X98132750Y-64419500I218750J0D01*
G01*
X98570250Y-64419500D01*
G75*
G02*
X98789000Y-64638250I0J-218750D01*
G01*
G37*
G36*
G01*
X70850000Y-62256250D02*
X70850000Y-61743750D01*
G75*
G02*
X71068750Y-61525000I218750J0D01*
G01*
X71506250Y-61525000D01*
G75*
G02*
X71725000Y-61743750I0J-218750D01*
G01*
X71725000Y-62256250D01*
G75*
G02*
X71506250Y-62475000I-218750J0D01*
G01*
X71068750Y-62475000D01*
G75*
G02*
X70850000Y-62256250I0J218750D01*
G01*
G37*
G36*
G01*
X69275000Y-62256250D02*
X69275000Y-61743750D01*
G75*
G02*
X69493750Y-61525000I218750J0D01*
G01*
X69931250Y-61525000D01*
G75*
G02*
X70150000Y-61743750I0J-218750D01*
G01*
X70150000Y-62256250D01*
G75*
G02*
X69931250Y-62475000I-218750J0D01*
G01*
X69493750Y-62475000D01*
G75*
G02*
X69275000Y-62256250I0J218750D01*
G01*
G37*
G36*
G01*
X71850000Y-75256250D02*
X71850000Y-74743750D01*
G75*
G02*
X72068750Y-74525000I218750J0D01*
G01*
X72506250Y-74525000D01*
G75*
G02*
X72725000Y-74743750I0J-218750D01*
G01*
X72725000Y-75256250D01*
G75*
G02*
X72506250Y-75475000I-218750J0D01*
G01*
X72068750Y-75475000D01*
G75*
G02*
X71850000Y-75256250I0J218750D01*
G01*
G37*
G36*
G01*
X70275000Y-75256250D02*
X70275000Y-74743750D01*
G75*
G02*
X70493750Y-74525000I218750J0D01*
G01*
X70931250Y-74525000D01*
G75*
G02*
X71150000Y-74743750I0J-218750D01*
G01*
X71150000Y-75256250D01*
G75*
G02*
X70931250Y-75475000I-218750J0D01*
G01*
X70493750Y-75475000D01*
G75*
G02*
X70275000Y-75256250I0J218750D01*
G01*
G37*
G36*
G01*
X84036250Y-62704500D02*
X84548750Y-62704500D01*
G75*
G02*
X84767500Y-62923250I0J-218750D01*
G01*
X84767500Y-63360750D01*
G75*
G02*
X84548750Y-63579500I-218750J0D01*
G01*
X84036250Y-63579500D01*
G75*
G02*
X83817500Y-63360750I0J218750D01*
G01*
X83817500Y-62923250D01*
G75*
G02*
X84036250Y-62704500I218750J0D01*
G01*
G37*
G36*
G01*
X84036250Y-61129500D02*
X84548750Y-61129500D01*
G75*
G02*
X84767500Y-61348250I0J-218750D01*
G01*
X84767500Y-61785750D01*
G75*
G02*
X84548750Y-62004500I-218750J0D01*
G01*
X84036250Y-62004500D01*
G75*
G02*
X83817500Y-61785750I0J218750D01*
G01*
X83817500Y-61348250D01*
G75*
G02*
X84036250Y-61129500I218750J0D01*
G01*
G37*
G36*
G01*
X89601250Y-49819000D02*
X89088750Y-49819000D01*
G75*
G02*
X88870000Y-49600250I0J218750D01*
G01*
X88870000Y-49162750D01*
G75*
G02*
X89088750Y-48944000I218750J0D01*
G01*
X89601250Y-48944000D01*
G75*
G02*
X89820000Y-49162750I0J-218750D01*
G01*
X89820000Y-49600250D01*
G75*
G02*
X89601250Y-49819000I-218750J0D01*
G01*
G37*
G36*
G01*
X89601250Y-51394000D02*
X89088750Y-51394000D01*
G75*
G02*
X88870000Y-51175250I0J218750D01*
G01*
X88870000Y-50737750D01*
G75*
G02*
X89088750Y-50519000I218750J0D01*
G01*
X89601250Y-50519000D01*
G75*
G02*
X89820000Y-50737750I0J-218750D01*
G01*
X89820000Y-51175250D01*
G75*
G02*
X89601250Y-51394000I-218750J0D01*
G01*
G37*
G36*
G01*
X93692750Y-92992500D02*
X93180250Y-92992500D01*
G75*
G02*
X92961500Y-92773750I0J218750D01*
G01*
X92961500Y-92336250D01*
G75*
G02*
X93180250Y-92117500I218750J0D01*
G01*
X93692750Y-92117500D01*
G75*
G02*
X93911500Y-92336250I0J-218750D01*
G01*
X93911500Y-92773750D01*
G75*
G02*
X93692750Y-92992500I-218750J0D01*
G01*
G37*
G36*
G01*
X93692750Y-94567500D02*
X93180250Y-94567500D01*
G75*
G02*
X92961500Y-94348750I0J218750D01*
G01*
X92961500Y-93911250D01*
G75*
G02*
X93180250Y-93692500I218750J0D01*
G01*
X93692750Y-93692500D01*
G75*
G02*
X93911500Y-93911250I0J-218750D01*
G01*
X93911500Y-94348750D01*
G75*
G02*
X93692750Y-94567500I-218750J0D01*
G01*
G37*
G36*
G01*
X91211750Y-93692500D02*
X91724250Y-93692500D01*
G75*
G02*
X91943000Y-93911250I0J-218750D01*
G01*
X91943000Y-94348750D01*
G75*
G02*
X91724250Y-94567500I-218750J0D01*
G01*
X91211750Y-94567500D01*
G75*
G02*
X90993000Y-94348750I0J218750D01*
G01*
X90993000Y-93911250D01*
G75*
G02*
X91211750Y-93692500I218750J0D01*
G01*
G37*
G36*
G01*
X91211750Y-92117500D02*
X91724250Y-92117500D01*
G75*
G02*
X91943000Y-92336250I0J-218750D01*
G01*
X91943000Y-92773750D01*
G75*
G02*
X91724250Y-92992500I-218750J0D01*
G01*
X91211750Y-92992500D01*
G75*
G02*
X90993000Y-92773750I0J218750D01*
G01*
X90993000Y-92336250D01*
G75*
G02*
X91211750Y-92117500I218750J0D01*
G01*
G37*
G36*
G01*
X84521250Y-49819000D02*
X84008750Y-49819000D01*
G75*
G02*
X83790000Y-49600250I0J218750D01*
G01*
X83790000Y-49162750D01*
G75*
G02*
X84008750Y-48944000I218750J0D01*
G01*
X84521250Y-48944000D01*
G75*
G02*
X84740000Y-49162750I0J-218750D01*
G01*
X84740000Y-49600250D01*
G75*
G02*
X84521250Y-49819000I-218750J0D01*
G01*
G37*
G36*
G01*
X84521250Y-51394000D02*
X84008750Y-51394000D01*
G75*
G02*
X83790000Y-51175250I0J218750D01*
G01*
X83790000Y-50737750D01*
G75*
G02*
X84008750Y-50519000I218750J0D01*
G01*
X84521250Y-50519000D01*
G75*
G02*
X84740000Y-50737750I0J-218750D01*
G01*
X84740000Y-51175250D01*
G75*
G02*
X84521250Y-51394000I-218750J0D01*
G01*
G37*
G36*
G01*
X78933250Y-49819000D02*
X78420750Y-49819000D01*
G75*
G02*
X78202000Y-49600250I0J218750D01*
G01*
X78202000Y-49162750D01*
G75*
G02*
X78420750Y-48944000I218750J0D01*
G01*
X78933250Y-48944000D01*
G75*
G02*
X79152000Y-49162750I0J-218750D01*
G01*
X79152000Y-49600250D01*
G75*
G02*
X78933250Y-49819000I-218750J0D01*
G01*
G37*
G36*
G01*
X78933250Y-51394000D02*
X78420750Y-51394000D01*
G75*
G02*
X78202000Y-51175250I0J218750D01*
G01*
X78202000Y-50737750D01*
G75*
G02*
X78420750Y-50519000I218750J0D01*
G01*
X78933250Y-50519000D01*
G75*
G02*
X79152000Y-50737750I0J-218750D01*
G01*
X79152000Y-51175250D01*
G75*
G02*
X78933250Y-51394000I-218750J0D01*
G01*
G37*
G36*
G01*
X73345250Y-49819000D02*
X72832750Y-49819000D01*
G75*
G02*
X72614000Y-49600250I0J218750D01*
G01*
X72614000Y-49162750D01*
G75*
G02*
X72832750Y-48944000I218750J0D01*
G01*
X73345250Y-48944000D01*
G75*
G02*
X73564000Y-49162750I0J-218750D01*
G01*
X73564000Y-49600250D01*
G75*
G02*
X73345250Y-49819000I-218750J0D01*
G01*
G37*
G36*
G01*
X73345250Y-51394000D02*
X72832750Y-51394000D01*
G75*
G02*
X72614000Y-51175250I0J218750D01*
G01*
X72614000Y-50737750D01*
G75*
G02*
X72832750Y-50519000I218750J0D01*
G01*
X73345250Y-50519000D01*
G75*
G02*
X73564000Y-50737750I0J-218750D01*
G01*
X73564000Y-51175250D01*
G75*
G02*
X73345250Y-51394000I-218750J0D01*
G01*
G37*
G36*
G01*
X84548750Y-92992500D02*
X84036250Y-92992500D01*
G75*
G02*
X83817500Y-92773750I0J218750D01*
G01*
X83817500Y-92336250D01*
G75*
G02*
X84036250Y-92117500I218750J0D01*
G01*
X84548750Y-92117500D01*
G75*
G02*
X84767500Y-92336250I0J-218750D01*
G01*
X84767500Y-92773750D01*
G75*
G02*
X84548750Y-92992500I-218750J0D01*
G01*
G37*
G36*
G01*
X84548750Y-94567500D02*
X84036250Y-94567500D01*
G75*
G02*
X83817500Y-94348750I0J218750D01*
G01*
X83817500Y-93911250D01*
G75*
G02*
X84036250Y-93692500I218750J0D01*
G01*
X84548750Y-93692500D01*
G75*
G02*
X84767500Y-93911250I0J-218750D01*
G01*
X84767500Y-94348750D01*
G75*
G02*
X84548750Y-94567500I-218750J0D01*
G01*
G37*
G36*
G01*
X81559750Y-93692500D02*
X82072250Y-93692500D01*
G75*
G02*
X82291000Y-93911250I0J-218750D01*
G01*
X82291000Y-94348750D01*
G75*
G02*
X82072250Y-94567500I-218750J0D01*
G01*
X81559750Y-94567500D01*
G75*
G02*
X81341000Y-94348750I0J218750D01*
G01*
X81341000Y-93911250D01*
G75*
G02*
X81559750Y-93692500I218750J0D01*
G01*
G37*
G36*
G01*
X81559750Y-92117500D02*
X82072250Y-92117500D01*
G75*
G02*
X82291000Y-92336250I0J-218750D01*
G01*
X82291000Y-92773750D01*
G75*
G02*
X82072250Y-92992500I-218750J0D01*
G01*
X81559750Y-92992500D01*
G75*
G02*
X81341000Y-92773750I0J218750D01*
G01*
X81341000Y-92336250D01*
G75*
G02*
X81559750Y-92117500I218750J0D01*
G01*
G37*
G36*
G01*
X62262500Y-79350000D02*
X62737500Y-79350000D01*
G75*
G02*
X62975000Y-79587500I0J-237500D01*
G01*
X62975000Y-80162500D01*
G75*
G02*
X62737500Y-80400000I-237500J0D01*
G01*
X62262500Y-80400000D01*
G75*
G02*
X62025000Y-80162500I0J237500D01*
G01*
X62025000Y-79587500D01*
G75*
G02*
X62262500Y-79350000I237500J0D01*
G01*
G37*
G36*
G01*
X62262500Y-77600000D02*
X62737500Y-77600000D01*
G75*
G02*
X62975000Y-77837500I0J-237500D01*
G01*
X62975000Y-78412500D01*
G75*
G02*
X62737500Y-78650000I-237500J0D01*
G01*
X62262500Y-78650000D01*
G75*
G02*
X62025000Y-78412500I0J237500D01*
G01*
X62025000Y-77837500D01*
G75*
G02*
X62262500Y-77600000I237500J0D01*
G01*
G37*
D12*
X98072000Y-58068000D03*
X98072000Y-54068000D03*
D13*
X108264000Y-108392000D03*
X112264000Y-108392000D03*
X98612000Y-108392000D03*
X102612000Y-108392000D03*
X88452000Y-108392000D03*
X92452000Y-108392000D03*
X67560000Y-108900000D03*
X63560000Y-108900000D03*
D12*
X103660000Y-58068000D03*
X103660000Y-54068000D03*
X53876000Y-108868000D03*
X53876000Y-104868000D03*
D13*
X60484000Y-90092000D03*
X56484000Y-90092000D03*
X78419000Y-108519000D03*
X82419000Y-108519000D03*
G36*
G01*
X64650000Y-89943750D02*
X64650000Y-90456250D01*
G75*
G02*
X64431250Y-90675000I-218750J0D01*
G01*
X63993750Y-90675000D01*
G75*
G02*
X63775000Y-90456250I0J218750D01*
G01*
X63775000Y-89943750D01*
G75*
G02*
X63993750Y-89725000I218750J0D01*
G01*
X64431250Y-89725000D01*
G75*
G02*
X64650000Y-89943750I0J-218750D01*
G01*
G37*
G36*
G01*
X66225000Y-89943750D02*
X66225000Y-90456250D01*
G75*
G02*
X66006250Y-90675000I-218750J0D01*
G01*
X65568750Y-90675000D01*
G75*
G02*
X65350000Y-90456250I0J218750D01*
G01*
X65350000Y-89943750D01*
G75*
G02*
X65568750Y-89725000I218750J0D01*
G01*
X66006250Y-89725000D01*
G75*
G02*
X66225000Y-89943750I0J-218750D01*
G01*
G37*
G36*
G01*
X56100000Y-78256250D02*
X56100000Y-77743750D01*
G75*
G02*
X56318750Y-77525000I218750J0D01*
G01*
X56756250Y-77525000D01*
G75*
G02*
X56975000Y-77743750I0J-218750D01*
G01*
X56975000Y-78256250D01*
G75*
G02*
X56756250Y-78475000I-218750J0D01*
G01*
X56318750Y-78475000D01*
G75*
G02*
X56100000Y-78256250I0J218750D01*
G01*
G37*
G36*
G01*
X54525000Y-78256250D02*
X54525000Y-77743750D01*
G75*
G02*
X54743750Y-77525000I218750J0D01*
G01*
X55181250Y-77525000D01*
G75*
G02*
X55400000Y-77743750I0J-218750D01*
G01*
X55400000Y-78256250D01*
G75*
G02*
X55181250Y-78475000I-218750J0D01*
G01*
X54743750Y-78475000D01*
G75*
G02*
X54525000Y-78256250I0J218750D01*
G01*
G37*
G36*
G01*
X68650000Y-69743750D02*
X68650000Y-70256250D01*
G75*
G02*
X68431250Y-70475000I-218750J0D01*
G01*
X67993750Y-70475000D01*
G75*
G02*
X67775000Y-70256250I0J218750D01*
G01*
X67775000Y-69743750D01*
G75*
G02*
X67993750Y-69525000I218750J0D01*
G01*
X68431250Y-69525000D01*
G75*
G02*
X68650000Y-69743750I0J-218750D01*
G01*
G37*
G36*
G01*
X70225000Y-69743750D02*
X70225000Y-70256250D01*
G75*
G02*
X70006250Y-70475000I-218750J0D01*
G01*
X69568750Y-70475000D01*
G75*
G02*
X69350000Y-70256250I0J218750D01*
G01*
X69350000Y-69743750D01*
G75*
G02*
X69568750Y-69525000I218750J0D01*
G01*
X70006250Y-69525000D01*
G75*
G02*
X70225000Y-69743750I0J-218750D01*
G01*
G37*
G36*
G01*
X68351750Y-105694000D02*
X68864250Y-105694000D01*
G75*
G02*
X69083000Y-105912750I0J-218750D01*
G01*
X69083000Y-106350250D01*
G75*
G02*
X68864250Y-106569000I-218750J0D01*
G01*
X68351750Y-106569000D01*
G75*
G02*
X68133000Y-106350250I0J218750D01*
G01*
X68133000Y-105912750D01*
G75*
G02*
X68351750Y-105694000I218750J0D01*
G01*
G37*
G36*
G01*
X68351750Y-104119000D02*
X68864250Y-104119000D01*
G75*
G02*
X69083000Y-104337750I0J-218750D01*
G01*
X69083000Y-104775250D01*
G75*
G02*
X68864250Y-104994000I-218750J0D01*
G01*
X68351750Y-104994000D01*
G75*
G02*
X68133000Y-104775250I0J218750D01*
G01*
X68133000Y-104337750D01*
G75*
G02*
X68351750Y-104119000I218750J0D01*
G01*
G37*
G36*
G01*
X72221999Y-105794000D02*
X73122001Y-105794000D01*
G75*
G02*
X73372000Y-106043999I0J-249999D01*
G01*
X73372000Y-106694001D01*
G75*
G02*
X73122001Y-106944000I-249999J0D01*
G01*
X72221999Y-106944000D01*
G75*
G02*
X71972000Y-106694001I0J249999D01*
G01*
X71972000Y-106043999D01*
G75*
G02*
X72221999Y-105794000I249999J0D01*
G01*
G37*
G36*
G01*
X72221999Y-103744000D02*
X73122001Y-103744000D01*
G75*
G02*
X73372000Y-103993999I0J-249999D01*
G01*
X73372000Y-104644001D01*
G75*
G02*
X73122001Y-104894000I-249999J0D01*
G01*
X72221999Y-104894000D01*
G75*
G02*
X71972000Y-104644001I0J249999D01*
G01*
X71972000Y-103993999D01*
G75*
G02*
X72221999Y-103744000I249999J0D01*
G01*
G37*
G36*
G01*
X68943750Y-85150000D02*
X69456250Y-85150000D01*
G75*
G02*
X69675000Y-85368750I0J-218750D01*
G01*
X69675000Y-85806250D01*
G75*
G02*
X69456250Y-86025000I-218750J0D01*
G01*
X68943750Y-86025000D01*
G75*
G02*
X68725000Y-85806250I0J218750D01*
G01*
X68725000Y-85368750D01*
G75*
G02*
X68943750Y-85150000I218750J0D01*
G01*
G37*
G36*
G01*
X68943750Y-83575000D02*
X69456250Y-83575000D01*
G75*
G02*
X69675000Y-83793750I0J-218750D01*
G01*
X69675000Y-84231250D01*
G75*
G02*
X69456250Y-84450000I-218750J0D01*
G01*
X68943750Y-84450000D01*
G75*
G02*
X68725000Y-84231250I0J218750D01*
G01*
X68725000Y-83793750D01*
G75*
G02*
X68943750Y-83575000I218750J0D01*
G01*
G37*
D14*
X105882500Y-86500500D03*
X106832500Y-88500500D03*
X104932500Y-88500500D03*
X101056500Y-86500500D03*
X102006500Y-88500500D03*
X100106500Y-88500500D03*
D15*
X69350000Y-96950000D03*
X69350000Y-101550000D03*
X69350000Y-99250000D03*
D16*
X75650000Y-99250000D03*
D14*
X97564000Y-60656000D03*
X98514000Y-62656000D03*
X96614000Y-62656000D03*
X103660000Y-60656000D03*
X104610000Y-62656000D03*
X102710000Y-62656000D03*
X78768000Y-92152000D03*
X79718000Y-94152000D03*
X77818000Y-94152000D03*
X88420000Y-92152000D03*
X89370000Y-94152000D03*
X87470000Y-94152000D03*
X98580000Y-92152000D03*
X99530000Y-94152000D03*
X97630000Y-94152000D03*
X107152500Y-92342500D03*
X108102500Y-94342500D03*
X106202500Y-94342500D03*
D17*
X54000000Y-50100000D03*
X54000000Y-56900000D03*
X58000000Y-56900000D03*
X58000000Y-50100000D03*
X61000000Y-50100000D03*
X61000000Y-56900000D03*
X65000000Y-56900000D03*
X65000000Y-50100000D03*
D18*
X86478000Y-75770500D03*
D19*
X94178000Y-67070500D03*
X92908000Y-67070500D03*
X91638000Y-67070500D03*
X90368000Y-67070500D03*
X89098000Y-67070500D03*
X87828000Y-67070500D03*
X86558000Y-67070500D03*
X85288000Y-67070500D03*
X84018000Y-67070500D03*
X82748000Y-67070500D03*
X81478000Y-67070500D03*
X80208000Y-67070500D03*
X78938000Y-67070500D03*
X77668000Y-67070500D03*
D20*
X76178000Y-70355500D03*
X76178000Y-71625500D03*
X76178000Y-72895500D03*
X76178000Y-74165500D03*
X76178000Y-75435500D03*
X76178000Y-76705500D03*
X76178000Y-77975500D03*
X76178000Y-79245500D03*
X76178000Y-80515500D03*
X76178000Y-81785500D03*
D19*
X77668000Y-85070500D03*
X78938000Y-85070500D03*
X80208000Y-85070500D03*
X81478000Y-85070500D03*
X82748000Y-85070500D03*
X84018000Y-85070500D03*
X85288000Y-85070500D03*
X86558000Y-85070500D03*
X87828000Y-85070500D03*
X89098000Y-85070500D03*
X90368000Y-85070500D03*
X91638000Y-85070500D03*
X92908000Y-85070500D03*
X94178000Y-85070500D03*
D21*
X78423000Y-59415000D03*
X75883000Y-59415000D03*
X75883000Y-53115000D03*
X78423000Y-53115000D03*
D22*
X67125060Y-87531560D03*
X65855060Y-87531560D03*
X64585060Y-87531560D03*
X63315060Y-87531560D03*
X63315060Y-82131560D03*
X64585060Y-82131560D03*
X65855060Y-82131560D03*
X67125060Y-82131560D03*
D23*
X93944500Y-96306500D03*
X93944500Y-98506500D03*
X84292500Y-98506500D03*
X84292500Y-96306500D03*
X104104500Y-96306500D03*
X104104500Y-98506500D03*
X113756500Y-98506500D03*
X113756500Y-96306500D03*
D21*
X73343000Y-53115000D03*
X70803000Y-53115000D03*
X70803000Y-59415000D03*
X73343000Y-59415000D03*
X84236295Y-59230521D03*
X81696295Y-59230521D03*
X81696295Y-52930521D03*
X84236295Y-52930521D03*
X89599000Y-53115000D03*
X87059000Y-53115000D03*
X87059000Y-59415000D03*
X89599000Y-59415000D03*
D24*
X111026000Y-96962000D03*
X108486000Y-104582000D03*
X108486000Y-96962000D03*
X111026000Y-104582000D03*
X101374000Y-104582000D03*
X98834000Y-96962000D03*
X98834000Y-104582000D03*
X101374000Y-96962000D03*
X81562000Y-96962000D03*
X79022000Y-104582000D03*
X79022000Y-96962000D03*
X81562000Y-104582000D03*
X91214000Y-104582000D03*
X88674000Y-96962000D03*
X88674000Y-104582000D03*
X91214000Y-96962000D03*
M02*
