G04 #@! TF.GenerationSoftware,KiCad,Pcbnew,(5.1.6-dirty)*
G04 #@! TF.CreationDate,2020-05-24T17:16:13+02:00*
G04 #@! TF.ProjectId,esp32control,65737033-3263-46f6-9e74-726f6c2e6b69,rev?*
G04 #@! TF.SameCoordinates,Original*
G04 #@! TF.FileFunction,Copper,L2,Bot*
G04 #@! TF.FilePolarity,Positive*
%FSLAX46Y46*%
G04 Gerber Fmt 4.6, Leading zero omitted, Abs format (unit mm)*
G04 Created by KiCad (PCBNEW (5.1.6-dirty)) date 2020-05-24 17:16:13*
%MOMM*%
%LPD*%
G01*
G04 APERTURE LIST*
G04 #@! TA.AperFunction,ComponentPad*
%ADD10C,6.000000*%
G04 #@! TD*
G04 #@! TA.AperFunction,ComponentPad*
%ADD11O,1.600000X2.200000*%
G04 #@! TD*
G04 #@! TA.AperFunction,ComponentPad*
%ADD12C,3.000000*%
G04 #@! TD*
G04 #@! TA.AperFunction,ComponentPad*
%ADD13O,1.700000X1.700000*%
G04 #@! TD*
G04 #@! TA.AperFunction,ComponentPad*
%ADD14R,1.700000X1.700000*%
G04 #@! TD*
G04 #@! TA.AperFunction,ComponentPad*
%ADD15C,1.600000*%
G04 #@! TD*
G04 #@! TA.AperFunction,ComponentPad*
%ADD16R,1.600000X1.600000*%
G04 #@! TD*
G04 #@! TA.AperFunction,ViaPad*
%ADD17C,0.800000*%
G04 #@! TD*
G04 #@! TA.AperFunction,Conductor*
%ADD18C,0.800000*%
G04 #@! TD*
G04 #@! TA.AperFunction,Conductor*
%ADD19C,0.600000*%
G04 #@! TD*
G04 #@! TA.AperFunction,Conductor*
%ADD20C,0.200000*%
G04 #@! TD*
G04 #@! TA.AperFunction,Conductor*
%ADD21C,1.000000*%
G04 #@! TD*
G04 #@! TA.AperFunction,Conductor*
%ADD22C,0.400000*%
G04 #@! TD*
G04 #@! TA.AperFunction,Conductor*
%ADD23C,0.254000*%
G04 #@! TD*
G04 APERTURE END LIST*
D10*
X110508500Y-54168500D03*
X60108500Y-104068500D03*
D11*
X113248500Y-41368500D03*
X108168500Y-41368500D03*
X103088500Y-41368500D03*
X98008500Y-41368500D03*
X92928500Y-41368500D03*
X87848500Y-41368500D03*
X82768500Y-41368500D03*
X77688500Y-41368500D03*
X72608500Y-41368500D03*
X67528500Y-41368500D03*
X62448500Y-41368500D03*
X57368500Y-41368500D03*
X113248500Y-116868500D03*
X108168500Y-116868500D03*
X103088500Y-116868500D03*
X98008500Y-116868500D03*
X92928500Y-116868500D03*
X87848500Y-116868500D03*
X82768500Y-116868500D03*
X77688500Y-116868500D03*
X72608500Y-116868500D03*
X67528500Y-116868500D03*
X62448500Y-116868500D03*
X57368500Y-116868500D03*
D12*
X59000000Y-74100000D03*
X59000000Y-60900000D03*
D13*
X78740000Y-88960000D03*
X76200000Y-88960000D03*
X78740000Y-86420000D03*
X76200000Y-86420000D03*
X78740000Y-83880000D03*
X76200000Y-83880000D03*
X78740000Y-81340000D03*
X76200000Y-81340000D03*
X78740000Y-78800000D03*
X76200000Y-78800000D03*
X78740000Y-76260000D03*
X76200000Y-76260000D03*
X78740000Y-73720000D03*
X76200000Y-73720000D03*
X78740000Y-71180000D03*
X76200000Y-71180000D03*
X78740000Y-68640000D03*
X76200000Y-68640000D03*
X78740000Y-66100000D03*
D14*
X76200000Y-66100000D03*
D15*
X58250000Y-96750000D03*
D16*
X54750000Y-96750000D03*
D17*
X107152500Y-95374500D03*
X98516500Y-95120500D03*
X78704500Y-95120500D03*
X88356500Y-95120500D03*
X70322500Y-106094000D03*
X67560000Y-110868500D03*
X66056000Y-65097000D03*
X70803000Y-57556000D03*
X75910500Y-57274500D03*
X81752500Y-57274500D03*
X86518500Y-57274500D03*
X112994500Y-47368500D03*
X100802500Y-58067992D03*
X101202499Y-52702500D03*
X106390500Y-47368500D03*
X74000000Y-95100000D03*
X67908500Y-72768500D03*
X66908500Y-69968500D03*
X111308500Y-88368500D03*
X62608500Y-90168500D03*
X111308500Y-83568500D03*
X111308500Y-69768500D03*
X108108500Y-76368500D03*
X69308500Y-65368500D03*
X69138641Y-80624609D03*
X99808500Y-71268543D03*
X95708500Y-71268543D03*
X87208500Y-67968500D03*
X100708500Y-65068500D03*
X110408500Y-61868500D03*
X107608500Y-63868500D03*
X87108500Y-87268500D03*
X81008500Y-89468500D03*
X83608500Y-65168500D03*
X74608500Y-69868500D03*
X80508500Y-80468500D03*
X92008500Y-83968500D03*
X52708500Y-96668500D03*
X52808500Y-102368500D03*
X54308500Y-92868500D03*
X52808500Y-47868500D03*
X101308500Y-47368500D03*
X94308500Y-47368500D03*
X91308500Y-47368500D03*
X86308500Y-47368500D03*
X81308500Y-47368500D03*
X75808500Y-47368500D03*
X70308500Y-47368500D03*
X118308500Y-110368500D03*
X118308500Y-92868500D03*
X95408500Y-64968500D03*
X88208500Y-72268500D03*
X80508500Y-73768500D03*
X91508500Y-74068500D03*
X71416480Y-96950000D03*
X73624500Y-64132500D03*
X72416490Y-65910516D03*
X80008500Y-63168500D03*
X85408500Y-63168500D03*
X88735000Y-63142000D03*
X92808500Y-89068500D03*
X85308500Y-89068500D03*
X71208500Y-70768500D03*
X106010027Y-63068500D03*
X91408477Y-65068500D03*
X57368500Y-47368494D03*
X54066500Y-61500000D03*
X99508500Y-90768500D03*
X88108500Y-91068500D03*
X85908500Y-93168500D03*
X97046510Y-90568510D03*
X98608500Y-89068500D03*
X85308522Y-91468522D03*
X97579991Y-91927723D03*
X87114604Y-91178932D03*
X62400000Y-58700000D03*
X56500000Y-59500000D03*
X55166500Y-59100000D03*
X63700000Y-59400000D03*
X81308500Y-83068500D03*
X90608500Y-83868523D03*
X83557279Y-69068468D03*
X103644502Y-70568510D03*
X105008500Y-69768500D03*
X89008500Y-69168500D03*
X102326500Y-49146500D03*
X97500500Y-49146500D03*
X96586064Y-59447157D03*
X96800000Y-56100000D03*
X104908500Y-81968500D03*
X90108500Y-81968500D03*
X70564188Y-79714152D03*
X106108500Y-65068500D03*
X93208500Y-65268500D03*
X90508500Y-65868500D03*
X90008490Y-80868520D03*
X70208500Y-78368500D03*
X102608500Y-81668481D03*
X99608500Y-63068500D03*
X96208500Y-87668500D03*
X66159432Y-78268500D03*
X97208500Y-78268500D03*
X98508510Y-77368500D03*
X98908521Y-76168500D03*
X81631571Y-69701607D03*
X101190000Y-71368532D03*
X82522447Y-69247336D03*
X102508500Y-70968521D03*
X105208500Y-71268500D03*
X107508500Y-70468500D03*
X109608500Y-60568500D03*
X89508490Y-72326598D03*
X89908500Y-85468500D03*
X86408500Y-85368500D03*
X85819977Y-71278663D03*
X106608500Y-59668500D03*
X106056918Y-64069819D03*
X110980006Y-65817337D03*
X89508490Y-73326611D03*
X107508500Y-83268500D03*
X85408094Y-67168490D03*
X87508500Y-82668521D03*
X106208500Y-83368500D03*
X83977217Y-67268521D03*
X87268171Y-83639225D03*
X66762238Y-72612202D03*
X59412000Y-80288000D03*
X69306504Y-68450500D03*
X63100000Y-95700000D03*
X60512000Y-80288000D03*
X64750000Y-77550000D03*
X99308500Y-52068500D03*
X82419000Y-110614500D03*
X92452000Y-110614500D03*
X102612000Y-110614500D03*
X112264000Y-110614500D03*
X110108500Y-75368500D03*
X70708500Y-73668500D03*
D18*
X94198500Y-95120500D02*
X100040500Y-95120500D01*
X94198500Y-95120500D02*
X94178000Y-95100000D01*
X67528500Y-41368500D02*
X67528500Y-47368500D01*
X67528500Y-47368500D02*
X68798500Y-48638500D01*
X101202499Y-52556501D02*
X101202499Y-52702500D01*
X101202499Y-57667993D02*
X100802500Y-58067992D01*
X112994500Y-47368500D02*
X106390500Y-47368500D01*
D19*
X67834000Y-65097000D02*
X66056000Y-65097000D01*
X68798500Y-64132500D02*
X67834000Y-65097000D01*
X68826000Y-57556000D02*
X70803000Y-57556000D01*
X68798500Y-57528500D02*
X68826000Y-57556000D01*
X68798500Y-48638500D02*
X68798500Y-57528500D01*
X68798500Y-57583500D02*
X68826000Y-57556000D01*
X68798500Y-58290500D02*
X68798500Y-57583500D01*
X68798500Y-57782500D02*
X68798500Y-58290500D01*
X68798500Y-58290500D02*
X68798500Y-64132500D01*
D18*
X101202499Y-52702500D02*
X101202499Y-57667993D01*
X106390500Y-47368500D02*
X101202499Y-52556501D01*
X100294500Y-95374500D02*
X107152500Y-95374500D01*
X100040500Y-95120500D02*
X100294500Y-95374500D01*
X74020500Y-95120500D02*
X74000000Y-95100000D01*
X94198500Y-95120500D02*
X74020500Y-95120500D01*
D20*
X66908500Y-71768500D02*
X66908500Y-69968500D01*
X67908500Y-72768500D02*
X66908500Y-71768500D01*
D19*
X111308500Y-88368500D02*
X111308500Y-94368500D01*
X110302500Y-95374500D02*
X107152500Y-95374500D01*
X111308500Y-94368500D02*
X110302500Y-95374500D01*
X108108500Y-76368500D02*
X111308500Y-76368500D01*
X111308500Y-76368500D02*
X111308500Y-69768500D01*
X111308500Y-83568500D02*
X111308500Y-76368500D01*
X96274185Y-71268543D02*
X99808500Y-71268543D01*
X95708500Y-71268543D02*
X96274185Y-71268543D01*
D18*
X73266480Y-95100000D02*
X71416480Y-96950000D01*
X74000000Y-95100000D02*
X73266480Y-95100000D01*
X73624500Y-64132500D02*
X73624500Y-64702506D01*
X73624500Y-64702506D02*
X72416490Y-65910516D01*
X88708500Y-63168500D02*
X88735000Y-63142000D01*
X85408500Y-63168500D02*
X88708500Y-63168500D01*
X80008500Y-63168500D02*
X85408500Y-63168500D01*
X92808500Y-89068500D02*
X85308500Y-89068500D01*
D20*
X90108500Y-65068500D02*
X91408477Y-65068500D01*
X80808500Y-66168500D02*
X89008500Y-66168500D01*
X77290001Y-67250001D02*
X77350001Y-67190001D01*
X77350001Y-67190001D02*
X77350001Y-65326979D01*
X74726999Y-67250001D02*
X77290001Y-67250001D01*
X77350001Y-65326979D02*
X77858490Y-64818490D01*
X77858490Y-64818490D02*
X79458490Y-64818490D01*
X79458490Y-64818490D02*
X80808500Y-66168500D01*
X71208500Y-70768500D02*
X74726999Y-67250001D01*
X89008500Y-66168500D02*
X90108500Y-65068500D01*
X106010027Y-63068500D02*
X104897504Y-61955977D01*
X91408477Y-64502815D02*
X91408477Y-65068500D01*
X97765509Y-62368488D02*
X93542804Y-62368488D01*
X93542804Y-62368488D02*
X91408477Y-64502815D01*
X104897504Y-61955977D02*
X98178020Y-61955977D01*
X98178020Y-61955977D02*
X97765509Y-62368488D01*
D21*
X57131506Y-47368494D02*
X57368500Y-47368494D01*
X54066500Y-50433500D02*
X57131506Y-47368494D01*
X54066500Y-61500000D02*
X54066500Y-50433500D01*
D20*
X99508500Y-90768500D02*
X97844514Y-90768500D01*
X97344502Y-91268512D02*
X88308512Y-91268512D01*
X97844514Y-90768500D02*
X97344502Y-91268512D01*
X88308512Y-91268512D02*
X88108500Y-91068500D01*
X86989021Y-90268511D02*
X96746511Y-90268511D01*
X96746511Y-90268511D02*
X97046510Y-90568510D01*
X85908500Y-93168500D02*
X86414602Y-92662398D01*
X86414602Y-92662398D02*
X86414602Y-90842930D01*
X86414602Y-90842930D02*
X86989021Y-90268511D01*
X97808500Y-89868500D02*
X86342859Y-89868500D01*
X86342859Y-89868500D02*
X85308522Y-90902837D01*
X98608500Y-89068500D02*
X97808500Y-89868500D01*
X85308522Y-90902837D02*
X85308522Y-91468522D01*
X87863395Y-91927723D02*
X87114604Y-91178932D01*
X97579991Y-91927723D02*
X87863395Y-91927723D01*
X62400000Y-58700000D02*
X57000000Y-58700000D01*
X56500000Y-59200000D02*
X56500000Y-59500000D01*
X57000000Y-58700000D02*
X56500000Y-59200000D01*
X55166500Y-59100000D02*
X56066500Y-58200000D01*
X62736001Y-57999999D02*
X63700000Y-58963998D01*
X59400001Y-57999999D02*
X62736001Y-57999999D01*
X59200000Y-58200000D02*
X59400001Y-57999999D01*
X56066500Y-58200000D02*
X59200000Y-58200000D01*
X63700000Y-58963998D02*
X63700000Y-59400000D01*
X85674200Y-83068500D02*
X86944927Y-84339227D01*
X81308500Y-83068500D02*
X85674200Y-83068500D01*
X86944927Y-84339227D02*
X90137796Y-84339227D01*
X90137796Y-84339227D02*
X90608500Y-83868523D01*
X87872466Y-69068468D02*
X88672499Y-69868501D01*
X83557279Y-69068468D02*
X87872466Y-69068468D01*
X88672499Y-69868501D02*
X89344501Y-69868501D01*
X89344501Y-69868501D02*
X89444491Y-69768511D01*
X102844503Y-69768511D02*
X103644502Y-70568510D01*
X89444491Y-69768511D02*
X102844503Y-69768511D01*
X104408500Y-69168500D02*
X89008500Y-69168500D01*
X105008500Y-69768500D02*
X104408500Y-69168500D01*
D22*
X102326500Y-49146500D02*
X97500500Y-49146500D01*
D20*
X96600000Y-56900000D02*
X96586064Y-59447157D01*
X96800000Y-56665685D02*
X96600000Y-56900000D01*
X96800000Y-56100000D02*
X96800000Y-56665685D01*
X71518536Y-80668500D02*
X70564188Y-79714152D01*
X75528500Y-80668500D02*
X71518536Y-80668500D01*
X76200000Y-81340000D02*
X75528500Y-80668500D01*
X77350001Y-82490001D02*
X80850995Y-82490001D01*
X81372496Y-81968500D02*
X90108500Y-81968500D01*
X76200000Y-81340000D02*
X77350001Y-82490001D01*
X80850995Y-82490001D02*
X81372496Y-81968500D01*
X90508499Y-82368499D02*
X104508501Y-82368499D01*
X104508501Y-82368499D02*
X104908500Y-81968500D01*
X90108500Y-81968500D02*
X90508499Y-82368499D01*
X106108500Y-65068500D02*
X105542815Y-65068500D01*
X98206810Y-64168512D02*
X94308488Y-64168512D01*
X105542815Y-65068500D02*
X104742827Y-64268512D01*
X94308488Y-64168512D02*
X93208500Y-65268500D01*
X104742827Y-64268512D02*
X98306810Y-64268512D01*
X98306810Y-64268512D02*
X98206810Y-64168512D01*
X90040468Y-80900498D02*
X90008490Y-80868520D01*
X90076502Y-80900498D02*
X90040468Y-80900498D01*
X72008500Y-80168500D02*
X70208500Y-78368500D01*
X77568500Y-80168500D02*
X72008500Y-80168500D01*
X78740000Y-81340000D02*
X77568500Y-80168500D01*
X78968500Y-81568500D02*
X78740000Y-81340000D01*
X89408500Y-81568500D02*
X78968500Y-81568500D01*
X90076502Y-80900498D02*
X89408500Y-81568500D01*
X102308515Y-81968466D02*
X102608500Y-81668481D01*
X91808466Y-81968466D02*
X102308515Y-81968466D01*
X90740498Y-80900498D02*
X91808466Y-81968466D01*
X90076502Y-80900498D02*
X90740498Y-80900498D01*
X92108487Y-65468513D02*
X92108487Y-64766809D01*
X93806796Y-63068500D02*
X99608500Y-63068500D01*
X91708500Y-65868500D02*
X92108487Y-65468513D01*
X90508500Y-65868500D02*
X91708500Y-65868500D01*
X92108487Y-64766809D02*
X93806796Y-63068500D01*
X79908500Y-84568500D02*
X79446999Y-85030001D01*
X80808500Y-84568500D02*
X79908500Y-84568500D01*
X81808500Y-83568500D02*
X80808500Y-84568500D01*
X79446999Y-85030001D02*
X72355248Y-85030001D01*
X85608500Y-83568500D02*
X81808500Y-83568500D01*
X86595742Y-84568500D02*
X86595742Y-84555742D01*
X72355248Y-85030001D02*
X66159432Y-78834185D01*
X86766480Y-84739238D02*
X86595742Y-84568500D01*
X66159432Y-78834185D02*
X66159432Y-78268500D01*
X86595742Y-84555742D02*
X85608500Y-83568500D01*
X93279238Y-84739238D02*
X86766480Y-84739238D01*
X96208500Y-87668500D02*
X93279238Y-84739238D01*
X81471500Y-76068500D02*
X78740000Y-78800000D01*
X97208500Y-78268500D02*
X95008500Y-76068500D01*
X95008500Y-76068500D02*
X81471500Y-76068500D01*
X77350001Y-77649999D02*
X79324301Y-77649999D01*
X96874200Y-77368500D02*
X98508510Y-77368500D01*
X76200000Y-78800000D02*
X77350001Y-77649999D01*
X95174189Y-75668489D02*
X96874200Y-77368500D01*
X81305811Y-75668489D02*
X95174189Y-75668489D01*
X79324301Y-77649999D02*
X81305811Y-75668489D01*
X80148600Y-76260000D02*
X81140122Y-75268478D01*
X96239900Y-76168500D02*
X98908521Y-76168500D01*
X78740000Y-76260000D02*
X80148600Y-76260000D01*
X95339878Y-75268478D02*
X96239900Y-76168500D01*
X81140122Y-75268478D02*
X95339878Y-75268478D01*
X89675879Y-70668523D02*
X89775869Y-70568533D01*
X88341121Y-70668523D02*
X89675879Y-70668523D01*
X89775869Y-70568533D02*
X100390001Y-70568533D01*
X88241131Y-70568533D02*
X88341121Y-70668523D01*
X82498497Y-70568533D02*
X88241131Y-70568533D01*
X81631571Y-69701607D02*
X82498497Y-70568533D01*
X100390001Y-70568533D02*
X101190000Y-71368532D01*
X88506810Y-70268512D02*
X89510190Y-70268512D01*
X88406820Y-70168522D02*
X88506810Y-70268512D01*
X101708501Y-70168522D02*
X102508500Y-70968521D01*
X89510190Y-70268512D02*
X89610180Y-70168522D01*
X83443633Y-70168522D02*
X88406820Y-70168522D01*
X89610180Y-70168522D02*
X101708501Y-70168522D01*
X82522447Y-69247336D02*
X83443633Y-70168522D01*
X104808477Y-71668523D02*
X105208500Y-71268500D01*
X103410202Y-71668523D02*
X104808477Y-71668523D01*
X102610180Y-72468545D02*
X103410202Y-71668523D01*
X91556516Y-72468545D02*
X102610180Y-72468545D01*
X90556516Y-71468545D02*
X91556516Y-72468545D01*
X87308455Y-71468545D02*
X90556516Y-71468545D01*
X86398325Y-72378675D02*
X87308455Y-71468545D01*
X77541325Y-72378675D02*
X86398325Y-72378675D01*
X76200000Y-73720000D02*
X77541325Y-72378675D01*
X91750532Y-72068534D02*
X90750532Y-71068534D01*
X104780516Y-70468500D02*
X103980504Y-71268512D01*
X90750532Y-71068534D02*
X87066108Y-71068534D01*
X102444491Y-72068534D02*
X91750532Y-72068534D01*
X103980504Y-71268512D02*
X103244513Y-71268512D01*
X87066108Y-71068534D02*
X86155978Y-71978664D01*
X79942081Y-71180000D02*
X78740000Y-71180000D01*
X86155978Y-71978664D02*
X80740745Y-71978664D01*
X80740745Y-71978664D02*
X79942081Y-71180000D01*
X103244513Y-71268512D02*
X102444491Y-72068534D01*
X107508500Y-70468500D02*
X104780516Y-70468500D01*
X103575891Y-72068534D02*
X102775869Y-72868556D01*
X107808466Y-72068534D02*
X103575891Y-72068534D01*
X109608500Y-70268500D02*
X107808466Y-72068534D01*
X109608500Y-60568500D02*
X109608500Y-70268500D01*
X102775869Y-72868556D02*
X90050448Y-72868556D01*
X90050448Y-72868556D02*
X89508490Y-72326598D01*
X86508500Y-85468500D02*
X86408500Y-85368500D01*
X89908500Y-85468500D02*
X86508500Y-85468500D01*
X77350001Y-70029999D02*
X80569999Y-70029999D01*
X76200000Y-71180000D02*
X77350001Y-70029999D01*
X80569999Y-70029999D02*
X81818663Y-71278663D01*
X81818663Y-71278663D02*
X85819977Y-71278663D01*
X107108499Y-60168499D02*
X107108499Y-63018238D01*
X107108499Y-63018238D02*
X106056918Y-64069819D01*
X106608500Y-59668500D02*
X107108499Y-60168499D01*
X93672495Y-63768501D02*
X98372499Y-63768501D01*
X92508498Y-64932498D02*
X93672495Y-63768501D01*
X98372499Y-63768501D02*
X98472499Y-63868501D01*
X85808534Y-68368466D02*
X87508500Y-66668500D01*
X105855600Y-63868501D02*
X106056918Y-64069819D01*
X79011534Y-68368466D02*
X85808534Y-68368466D01*
X92508498Y-65668502D02*
X92508498Y-64932498D01*
X87508500Y-66668500D02*
X91508500Y-66668500D01*
X78740000Y-68640000D02*
X79011534Y-68368466D01*
X91508500Y-66668500D02*
X92508498Y-65668502D01*
X98472499Y-63868501D02*
X105855600Y-63868501D01*
X103066611Y-73326611D02*
X103066611Y-73310389D01*
X103066611Y-73326611D02*
X89508490Y-73326611D01*
X103066611Y-73310389D02*
X103808500Y-72568500D01*
X103808500Y-72568500D02*
X107908500Y-72568500D01*
X107908500Y-72568500D02*
X110108500Y-70368500D01*
X110108500Y-66688843D02*
X110980006Y-65817337D01*
X110108500Y-70368500D02*
X110108500Y-66688843D01*
X78740000Y-66100000D02*
X79208511Y-66568511D01*
X84808115Y-66568511D02*
X85408094Y-67168490D01*
X79208511Y-66568511D02*
X84808115Y-66568511D01*
X88074185Y-82668521D02*
X87508500Y-82668521D01*
X105772494Y-82768502D02*
X88174166Y-82768502D01*
X107508500Y-83268500D02*
X106908498Y-82668498D01*
X106908498Y-82668498D02*
X105872498Y-82668498D01*
X88174166Y-82768502D02*
X88074185Y-82668521D01*
X105872498Y-82668498D02*
X105772494Y-82768502D01*
X77974179Y-67268521D02*
X83977217Y-67268521D01*
X76602700Y-68640000D02*
X77974179Y-67268521D01*
X76200000Y-68640000D02*
X76602700Y-68640000D01*
X87833856Y-83639225D02*
X87268171Y-83639225D01*
X88304568Y-83168513D02*
X87833856Y-83639225D01*
X106008513Y-83168513D02*
X88304568Y-83168513D01*
X106208500Y-83368500D02*
X106008513Y-83168513D01*
D18*
X59000000Y-60900000D02*
X59000000Y-74100000D01*
D22*
X59000000Y-74100000D02*
X60887797Y-72212203D01*
X60887797Y-72212203D02*
X66362239Y-72212203D01*
X66362239Y-72212203D02*
X66762238Y-72612202D01*
D18*
X63100000Y-95700000D02*
X60500000Y-93100000D01*
X60500000Y-80300000D02*
X60512000Y-80288000D01*
X60500000Y-93100000D02*
X60500000Y-80300000D01*
X59412000Y-80288000D02*
X60512000Y-80288000D01*
D19*
X69306504Y-69466504D02*
X69306504Y-68470496D01*
D18*
X69306504Y-69466504D02*
X69306504Y-68450500D01*
X69306504Y-69466504D02*
X69306504Y-68170496D01*
X69306504Y-68170496D02*
X69908500Y-67568500D01*
X69908500Y-67568500D02*
X73108500Y-67568500D01*
X74577000Y-66100000D02*
X76200000Y-66100000D01*
X73108500Y-67568500D02*
X74577000Y-66100000D01*
X76200000Y-66100000D02*
X76200000Y-61877000D01*
X76200000Y-61877000D02*
X77908500Y-60168500D01*
X77908500Y-60168500D02*
X90708500Y-60168500D01*
X98808500Y-52068500D02*
X99308500Y-52068500D01*
X90708500Y-60168500D02*
X98808500Y-52068500D01*
X68908500Y-69864508D02*
X69306504Y-69466504D01*
X68908500Y-76368500D02*
X68908500Y-69864508D01*
X68508500Y-76768500D02*
X68908500Y-76368500D01*
X64965815Y-76768500D02*
X68508500Y-76768500D01*
X64750000Y-76984315D02*
X64965815Y-76768500D01*
X64750000Y-77550000D02*
X64750000Y-76984315D01*
D21*
X72608500Y-114768500D02*
X76762500Y-110614500D01*
X72608500Y-116868500D02*
X72608500Y-114768500D01*
X76762500Y-110614500D02*
X112232500Y-110614500D01*
D20*
X72008499Y-74968499D02*
X70708500Y-73668500D01*
X80874401Y-74968499D02*
X72008499Y-74968499D01*
X80974433Y-74868467D02*
X80874401Y-74968499D01*
X110108500Y-75368500D02*
X109608467Y-74868467D01*
X109608467Y-74868467D02*
X80974433Y-74868467D01*
D23*
G36*
X53510448Y-49819999D02*
G01*
X53478895Y-49845894D01*
X53453000Y-49877447D01*
X53452998Y-49877449D01*
X53375548Y-49971821D01*
X53298756Y-50115490D01*
X53251467Y-50271380D01*
X53235500Y-50433500D01*
X53239501Y-50474124D01*
X53239500Y-61540623D01*
X53251466Y-61662119D01*
X53298755Y-61818009D01*
X53375548Y-61961678D01*
X53478894Y-62087606D01*
X53604821Y-62190952D01*
X53748490Y-62267745D01*
X53904380Y-62315034D01*
X54066500Y-62331001D01*
X54228619Y-62315034D01*
X54384509Y-62267745D01*
X54528178Y-62190952D01*
X54654106Y-62087606D01*
X54757452Y-61961679D01*
X54834245Y-61818010D01*
X54881534Y-61662120D01*
X54893500Y-61540624D01*
X54893500Y-59773819D01*
X54954442Y-59799062D01*
X55094897Y-59827000D01*
X55238103Y-59827000D01*
X55378558Y-59799062D01*
X55510864Y-59744259D01*
X55629936Y-59664698D01*
X55731198Y-59563436D01*
X55773000Y-59500875D01*
X55773000Y-59571603D01*
X55800938Y-59712058D01*
X55855741Y-59844364D01*
X55935302Y-59963436D01*
X56036564Y-60064698D01*
X56155636Y-60144259D01*
X56287942Y-60199062D01*
X56428397Y-60227000D01*
X56571603Y-60227000D01*
X56712058Y-60199062D01*
X56844364Y-60144259D01*
X56963436Y-60064698D01*
X57064698Y-59963436D01*
X57144259Y-59844364D01*
X57199062Y-59712058D01*
X57227000Y-59571603D01*
X57227000Y-59428397D01*
X57199062Y-59287942D01*
X57145423Y-59158446D01*
X57176869Y-59127000D01*
X58548582Y-59127000D01*
X58467084Y-59143211D01*
X58134591Y-59280934D01*
X57835355Y-59480876D01*
X57580876Y-59735355D01*
X57380934Y-60034591D01*
X57243211Y-60367084D01*
X57173000Y-60720056D01*
X57173000Y-61079944D01*
X57243211Y-61432916D01*
X57380934Y-61765409D01*
X57580876Y-62064645D01*
X57835355Y-62319124D01*
X58134591Y-62519066D01*
X58273000Y-62576397D01*
X58273001Y-72423603D01*
X58134591Y-72480934D01*
X57835355Y-72680876D01*
X57580876Y-72935355D01*
X57380934Y-73234591D01*
X57243211Y-73567084D01*
X57173000Y-73920056D01*
X57173000Y-74279944D01*
X57243211Y-74632916D01*
X57380934Y-74965409D01*
X57580876Y-75264645D01*
X57835355Y-75519124D01*
X58134591Y-75719066D01*
X58467084Y-75856789D01*
X58820056Y-75927000D01*
X59179944Y-75927000D01*
X59532916Y-75856789D01*
X59865409Y-75719066D01*
X60164645Y-75519124D01*
X60419124Y-75264645D01*
X60619066Y-74965409D01*
X60756789Y-74632916D01*
X60827000Y-74279944D01*
X60827000Y-73920056D01*
X60756789Y-73567084D01*
X60619066Y-73234591D01*
X60615715Y-73229575D01*
X61106087Y-72739203D01*
X66046257Y-72739203D01*
X66063176Y-72824260D01*
X66117979Y-72956566D01*
X66197540Y-73075638D01*
X66298802Y-73176900D01*
X66417874Y-73256461D01*
X66550180Y-73311264D01*
X66690635Y-73339202D01*
X66833841Y-73339202D01*
X66974296Y-73311264D01*
X67106602Y-73256461D01*
X67225674Y-73176900D01*
X67326936Y-73075638D01*
X67406497Y-72956566D01*
X67461300Y-72824260D01*
X67489238Y-72683805D01*
X67489238Y-72540599D01*
X67461300Y-72400144D01*
X67406497Y-72267838D01*
X67326936Y-72148766D01*
X67225674Y-72047504D01*
X67106602Y-71967943D01*
X66974296Y-71913140D01*
X66833841Y-71885202D01*
X66780527Y-71885202D01*
X66753194Y-71857869D01*
X66736687Y-71837755D01*
X66656441Y-71771899D01*
X66564889Y-71722964D01*
X66465549Y-71692829D01*
X66388120Y-71685203D01*
X66362239Y-71682654D01*
X66336358Y-71685203D01*
X60913677Y-71685203D01*
X60887796Y-71682654D01*
X60797351Y-71691562D01*
X60784487Y-71692829D01*
X60685147Y-71722964D01*
X60593595Y-71771899D01*
X60513349Y-71837755D01*
X60496846Y-71857864D01*
X59870425Y-72484285D01*
X59865409Y-72480934D01*
X59727000Y-72423603D01*
X59727000Y-65910516D01*
X71685973Y-65910516D01*
X71689490Y-65946224D01*
X71689490Y-65982119D01*
X71696493Y-66017326D01*
X71700010Y-66053033D01*
X71710425Y-66087366D01*
X71717428Y-66122574D01*
X71731165Y-66155738D01*
X71741580Y-66190072D01*
X71758493Y-66221714D01*
X71772231Y-66254880D01*
X71792178Y-66284733D01*
X71809088Y-66316369D01*
X71831843Y-66344096D01*
X71851792Y-66373952D01*
X71877182Y-66399342D01*
X71899937Y-66427069D01*
X71927664Y-66449824D01*
X71953054Y-66475214D01*
X71982910Y-66495163D01*
X72010637Y-66517918D01*
X72042273Y-66534828D01*
X72072126Y-66554775D01*
X72105292Y-66568513D01*
X72136934Y-66585426D01*
X72171268Y-66595841D01*
X72204432Y-66609578D01*
X72239640Y-66616581D01*
X72273973Y-66626996D01*
X72309680Y-66630513D01*
X72344887Y-66637516D01*
X72380782Y-66637516D01*
X72416490Y-66641033D01*
X72452198Y-66637516D01*
X72488093Y-66637516D01*
X72523300Y-66630513D01*
X72559007Y-66626996D01*
X72593340Y-66616581D01*
X72628548Y-66609578D01*
X72661712Y-66595841D01*
X72696046Y-66585426D01*
X72727688Y-66568513D01*
X72760854Y-66554775D01*
X72790707Y-66534828D01*
X72822343Y-66517918D01*
X72850069Y-66495163D01*
X72879926Y-66475214D01*
X72981188Y-66373952D01*
X72981192Y-66373946D01*
X74113312Y-65241827D01*
X74141054Y-65219060D01*
X74231903Y-65108359D01*
X74299410Y-64982063D01*
X74340980Y-64845023D01*
X74342448Y-64830124D01*
X74355017Y-64702507D01*
X74351500Y-64666799D01*
X74351500Y-64060897D01*
X74344497Y-64025690D01*
X74340980Y-63989983D01*
X74330565Y-63955649D01*
X74323562Y-63920442D01*
X74309826Y-63887280D01*
X74299410Y-63852943D01*
X74282495Y-63821297D01*
X74268759Y-63788136D01*
X74248817Y-63758290D01*
X74231903Y-63726647D01*
X74209143Y-63698914D01*
X74189198Y-63669064D01*
X74163812Y-63643678D01*
X74141053Y-63615946D01*
X74113322Y-63593188D01*
X74087936Y-63567802D01*
X74058079Y-63547852D01*
X74030352Y-63525097D01*
X73998714Y-63508186D01*
X73968864Y-63488241D01*
X73935699Y-63474503D01*
X73904056Y-63457590D01*
X73869723Y-63447175D01*
X73836558Y-63433438D01*
X73801348Y-63426434D01*
X73767016Y-63416020D01*
X73731311Y-63412503D01*
X73696103Y-63405500D01*
X73660208Y-63405500D01*
X73624500Y-63401983D01*
X73588792Y-63405500D01*
X73552897Y-63405500D01*
X73517690Y-63412503D01*
X73481983Y-63416020D01*
X73447649Y-63426435D01*
X73412442Y-63433438D01*
X73379280Y-63447174D01*
X73344943Y-63457590D01*
X73313297Y-63474505D01*
X73280136Y-63488241D01*
X73250290Y-63508183D01*
X73218647Y-63525097D01*
X73190914Y-63547857D01*
X73161064Y-63567802D01*
X73135678Y-63593188D01*
X73107946Y-63615947D01*
X73085188Y-63643678D01*
X73059802Y-63669064D01*
X73039855Y-63698917D01*
X73017097Y-63726648D01*
X73000186Y-63758286D01*
X72980241Y-63788136D01*
X72966503Y-63821301D01*
X72949590Y-63852944D01*
X72939175Y-63887277D01*
X72925438Y-63920442D01*
X72918434Y-63955652D01*
X72908020Y-63989984D01*
X72904503Y-64025689D01*
X72897500Y-64060897D01*
X72897500Y-64401373D01*
X71953060Y-65345814D01*
X71953054Y-65345818D01*
X71851792Y-65447080D01*
X71831843Y-65476937D01*
X71809088Y-65504663D01*
X71792178Y-65536299D01*
X71772231Y-65566152D01*
X71758493Y-65599318D01*
X71741580Y-65630960D01*
X71731165Y-65665294D01*
X71717428Y-65698458D01*
X71710425Y-65733666D01*
X71700010Y-65767999D01*
X71696493Y-65803706D01*
X71689490Y-65838913D01*
X71689490Y-65874808D01*
X71685973Y-65910516D01*
X59727000Y-65910516D01*
X59727000Y-62576397D01*
X59865409Y-62519066D01*
X60164645Y-62319124D01*
X60419124Y-62064645D01*
X60619066Y-61765409D01*
X60756789Y-61432916D01*
X60827000Y-61079944D01*
X60827000Y-60720056D01*
X60756789Y-60367084D01*
X60619066Y-60034591D01*
X60419124Y-59735355D01*
X60164645Y-59480876D01*
X59865409Y-59280934D01*
X59532916Y-59143211D01*
X59451418Y-59127000D01*
X61810956Y-59127000D01*
X61835302Y-59163436D01*
X61936564Y-59264698D01*
X62055636Y-59344259D01*
X62187942Y-59399062D01*
X62328397Y-59427000D01*
X62471603Y-59427000D01*
X62612058Y-59399062D01*
X62744364Y-59344259D01*
X62863436Y-59264698D01*
X62964698Y-59163436D01*
X63044259Y-59044364D01*
X63082991Y-58950857D01*
X63108624Y-58976491D01*
X63055741Y-59055636D01*
X63000938Y-59187942D01*
X62973000Y-59328397D01*
X62973000Y-59471603D01*
X63000938Y-59612058D01*
X63055741Y-59744364D01*
X63135302Y-59863436D01*
X63236564Y-59964698D01*
X63355636Y-60044259D01*
X63487942Y-60099062D01*
X63628397Y-60127000D01*
X63771603Y-60127000D01*
X63912058Y-60099062D01*
X64044364Y-60044259D01*
X64163436Y-59964698D01*
X64264698Y-59863436D01*
X64344259Y-59744364D01*
X64399062Y-59612058D01*
X64427000Y-59471603D01*
X64427000Y-59328397D01*
X64399062Y-59187942D01*
X64344259Y-59055636D01*
X64264698Y-58936564D01*
X64163436Y-58835302D01*
X64088682Y-58785353D01*
X64056756Y-58725623D01*
X64056755Y-58725621D01*
X64016767Y-58676896D01*
X64016764Y-58676893D01*
X64003395Y-58660603D01*
X63987106Y-58647235D01*
X63052769Y-57712899D01*
X63039396Y-57696604D01*
X62974377Y-57643244D01*
X62900197Y-57603594D01*
X62819708Y-57579177D01*
X62756979Y-57572999D01*
X62756968Y-57572999D01*
X62736001Y-57570934D01*
X62715034Y-57572999D01*
X59420967Y-57572999D01*
X59400000Y-57570934D01*
X59379033Y-57572999D01*
X59379023Y-57572999D01*
X59316294Y-57579177D01*
X59235805Y-57603594D01*
X59161625Y-57643244D01*
X59096606Y-57696604D01*
X59083233Y-57712899D01*
X59023132Y-57773000D01*
X56087466Y-57773000D01*
X56066499Y-57770935D01*
X56045532Y-57773000D01*
X56045522Y-57773000D01*
X55982793Y-57779178D01*
X55902304Y-57803595D01*
X55867773Y-57822052D01*
X55828123Y-57843245D01*
X55779398Y-57883232D01*
X55779389Y-57883241D01*
X55763105Y-57896605D01*
X55749741Y-57912889D01*
X55281082Y-58381549D01*
X55238103Y-58373000D01*
X55094897Y-58373000D01*
X54954442Y-58400938D01*
X54893500Y-58426181D01*
X54893500Y-50776053D01*
X56594656Y-49074897D01*
X96773500Y-49074897D01*
X96773500Y-49218103D01*
X96801438Y-49358558D01*
X96856241Y-49490864D01*
X96935802Y-49609936D01*
X97037064Y-49711198D01*
X97156136Y-49790759D01*
X97288442Y-49845562D01*
X97428897Y-49873500D01*
X97572103Y-49873500D01*
X97712558Y-49845562D01*
X97844864Y-49790759D01*
X97963936Y-49711198D01*
X98001634Y-49673500D01*
X101825366Y-49673500D01*
X101863064Y-49711198D01*
X101982136Y-49790759D01*
X102114442Y-49845562D01*
X102254897Y-49873500D01*
X102398103Y-49873500D01*
X102538558Y-49845562D01*
X102670864Y-49790759D01*
X102789936Y-49711198D01*
X102891198Y-49609936D01*
X102970759Y-49490864D01*
X103025562Y-49358558D01*
X103053500Y-49218103D01*
X103053500Y-49074897D01*
X103025562Y-48934442D01*
X102970759Y-48802136D01*
X102891198Y-48683064D01*
X102789936Y-48581802D01*
X102670864Y-48502241D01*
X102538558Y-48447438D01*
X102398103Y-48419500D01*
X102254897Y-48419500D01*
X102114442Y-48447438D01*
X101982136Y-48502241D01*
X101863064Y-48581802D01*
X101825366Y-48619500D01*
X98001634Y-48619500D01*
X97963936Y-48581802D01*
X97844864Y-48502241D01*
X97712558Y-48447438D01*
X97572103Y-48419500D01*
X97428897Y-48419500D01*
X97288442Y-48447438D01*
X97156136Y-48502241D01*
X97037064Y-48581802D01*
X96935802Y-48683064D01*
X96856241Y-48802136D01*
X96801438Y-48934442D01*
X96773500Y-49074897D01*
X56594656Y-49074897D01*
X57481154Y-48188400D01*
X57530620Y-48183528D01*
X57686510Y-48136239D01*
X57830179Y-48059446D01*
X57956106Y-47956100D01*
X58059452Y-47830173D01*
X58136245Y-47686504D01*
X58183534Y-47530614D01*
X58199501Y-47368494D01*
X58183534Y-47206374D01*
X58159456Y-47127000D01*
X118663501Y-47127000D01*
X118663501Y-59873000D01*
X113000000Y-59873000D01*
X112975224Y-59875440D01*
X112951399Y-59882667D01*
X112929443Y-59894403D01*
X112910197Y-59910197D01*
X112894403Y-59929443D01*
X112882667Y-59951399D01*
X112875440Y-59975224D01*
X112873000Y-60000000D01*
X112873000Y-91800000D01*
X112875440Y-91824776D01*
X112882667Y-91848601D01*
X112894403Y-91870557D01*
X112910197Y-91889803D01*
X112929443Y-91905597D01*
X112951399Y-91917333D01*
X112975224Y-91924560D01*
X113000000Y-91927000D01*
X118663500Y-91927000D01*
X118663500Y-110873000D01*
X114127000Y-110873000D01*
X114127000Y-104000000D01*
X114124560Y-103975224D01*
X114117333Y-103951399D01*
X114105597Y-103929443D01*
X114089803Y-103910197D01*
X114070557Y-103894403D01*
X114048601Y-103882667D01*
X114024776Y-103875440D01*
X114000000Y-103873000D01*
X73000000Y-103873000D01*
X72975224Y-103875440D01*
X72951399Y-103882667D01*
X72929443Y-103894403D01*
X72910197Y-103910197D01*
X72894403Y-103929443D01*
X72882667Y-103951399D01*
X72875440Y-103975224D01*
X72873000Y-104000000D01*
X72873000Y-108932032D01*
X69961548Y-110873000D01*
X52127000Y-110873000D01*
X52127000Y-103740819D01*
X56781500Y-103740819D01*
X56781500Y-104396181D01*
X56909355Y-105038950D01*
X57160151Y-105644425D01*
X57524250Y-106189339D01*
X57987661Y-106652750D01*
X58532575Y-107016849D01*
X59138050Y-107267645D01*
X59780819Y-107395500D01*
X60436181Y-107395500D01*
X61078950Y-107267645D01*
X61684425Y-107016849D01*
X62229339Y-106652750D01*
X62692750Y-106189339D01*
X63056849Y-105644425D01*
X63307645Y-105038950D01*
X63435500Y-104396181D01*
X63435500Y-103740819D01*
X63307645Y-103098050D01*
X63056849Y-102492575D01*
X62692750Y-101947661D01*
X62229339Y-101484250D01*
X61684425Y-101120151D01*
X61078950Y-100869355D01*
X60436181Y-100741500D01*
X59780819Y-100741500D01*
X59138050Y-100869355D01*
X58532575Y-101120151D01*
X57987661Y-101484250D01*
X57524250Y-101947661D01*
X57160151Y-102492575D01*
X56909355Y-103098050D01*
X56781500Y-103740819D01*
X52127000Y-103740819D01*
X52127000Y-95950000D01*
X53621418Y-95950000D01*
X53621418Y-97550000D01*
X53627732Y-97614103D01*
X53646430Y-97675743D01*
X53676794Y-97732550D01*
X53717657Y-97782343D01*
X53767450Y-97823206D01*
X53824257Y-97853570D01*
X53885897Y-97872268D01*
X53950000Y-97878582D01*
X55550000Y-97878582D01*
X55614103Y-97872268D01*
X55675743Y-97853570D01*
X55732550Y-97823206D01*
X55782343Y-97782343D01*
X55814874Y-97742702D01*
X57436903Y-97742702D01*
X57508486Y-97986671D01*
X57763996Y-98107571D01*
X58038184Y-98176300D01*
X58320512Y-98190217D01*
X58600130Y-98148787D01*
X58866292Y-98053603D01*
X58991514Y-97986671D01*
X59063097Y-97742702D01*
X58250000Y-96929605D01*
X57436903Y-97742702D01*
X55814874Y-97742702D01*
X55823206Y-97732550D01*
X55853570Y-97675743D01*
X55872268Y-97614103D01*
X55878582Y-97550000D01*
X55878582Y-96820512D01*
X56809783Y-96820512D01*
X56851213Y-97100130D01*
X56946397Y-97366292D01*
X57013329Y-97491514D01*
X57257298Y-97563097D01*
X58070395Y-96750000D01*
X58429605Y-96750000D01*
X59242702Y-97563097D01*
X59486671Y-97491514D01*
X59607571Y-97236004D01*
X59676300Y-96961816D01*
X59690217Y-96679488D01*
X59648787Y-96399870D01*
X59553603Y-96133708D01*
X59486671Y-96008486D01*
X59242702Y-95936903D01*
X58429605Y-96750000D01*
X58070395Y-96750000D01*
X57257298Y-95936903D01*
X57013329Y-96008486D01*
X56892429Y-96263996D01*
X56823700Y-96538184D01*
X56809783Y-96820512D01*
X55878582Y-96820512D01*
X55878582Y-95950000D01*
X55872268Y-95885897D01*
X55853570Y-95824257D01*
X55823206Y-95767450D01*
X55814875Y-95757298D01*
X57436903Y-95757298D01*
X58250000Y-96570395D01*
X59063097Y-95757298D01*
X58991514Y-95513329D01*
X58736004Y-95392429D01*
X58461816Y-95323700D01*
X58179488Y-95309783D01*
X57899870Y-95351213D01*
X57633708Y-95446397D01*
X57508486Y-95513329D01*
X57436903Y-95757298D01*
X55814875Y-95757298D01*
X55782343Y-95717657D01*
X55732550Y-95676794D01*
X55675743Y-95646430D01*
X55614103Y-95627732D01*
X55550000Y-95621418D01*
X53950000Y-95621418D01*
X53885897Y-95627732D01*
X53824257Y-95646430D01*
X53767450Y-95676794D01*
X53717657Y-95717657D01*
X53676794Y-95767450D01*
X53646430Y-95824257D01*
X53627732Y-95885897D01*
X53621418Y-95950000D01*
X52127000Y-95950000D01*
X52127000Y-80288000D01*
X58681483Y-80288000D01*
X58685000Y-80323708D01*
X58685000Y-80359603D01*
X58692003Y-80394810D01*
X58695520Y-80430517D01*
X58705935Y-80464851D01*
X58712938Y-80500058D01*
X58726674Y-80533220D01*
X58737090Y-80567557D01*
X58754005Y-80599203D01*
X58767741Y-80632364D01*
X58787683Y-80662210D01*
X58804597Y-80693853D01*
X58827358Y-80721588D01*
X58847302Y-80751436D01*
X58872682Y-80776816D01*
X58895446Y-80804554D01*
X58923183Y-80827317D01*
X58948564Y-80852698D01*
X58978412Y-80872642D01*
X59006147Y-80895403D01*
X59037790Y-80912317D01*
X59067636Y-80932259D01*
X59100797Y-80945995D01*
X59132443Y-80962910D01*
X59166780Y-80973326D01*
X59199942Y-80987062D01*
X59235149Y-80994065D01*
X59269483Y-81004480D01*
X59305190Y-81007997D01*
X59340397Y-81015000D01*
X59773001Y-81015000D01*
X59773000Y-93064292D01*
X59769483Y-93100000D01*
X59773000Y-93135707D01*
X59783520Y-93242516D01*
X59825090Y-93379556D01*
X59892597Y-93505852D01*
X59983446Y-93616553D01*
X60011189Y-93639321D01*
X62535300Y-96163433D01*
X62535302Y-96163436D01*
X62636564Y-96264698D01*
X62666415Y-96284644D01*
X62694146Y-96307402D01*
X62725786Y-96324314D01*
X62755636Y-96344259D01*
X62788804Y-96357998D01*
X62820443Y-96374909D01*
X62854774Y-96385323D01*
X62887942Y-96399062D01*
X62923149Y-96406065D01*
X62957482Y-96416480D01*
X62993191Y-96419997D01*
X63028397Y-96427000D01*
X63064291Y-96427000D01*
X63099999Y-96430517D01*
X63135707Y-96427000D01*
X63171603Y-96427000D01*
X63206811Y-96419997D01*
X63242517Y-96416480D01*
X63276848Y-96406066D01*
X63312058Y-96399062D01*
X63345229Y-96385322D01*
X63379556Y-96374909D01*
X63411190Y-96358000D01*
X63444364Y-96344259D01*
X63474221Y-96324309D01*
X63505852Y-96307402D01*
X63533576Y-96284650D01*
X63563436Y-96264698D01*
X63588828Y-96239306D01*
X63616553Y-96216553D01*
X63639306Y-96188828D01*
X63664698Y-96163436D01*
X63684650Y-96133576D01*
X63707402Y-96105852D01*
X63724309Y-96074221D01*
X63744259Y-96044364D01*
X63758000Y-96011190D01*
X63774909Y-95979556D01*
X63785322Y-95945229D01*
X63799062Y-95912058D01*
X63806066Y-95876848D01*
X63816480Y-95842517D01*
X63819997Y-95806811D01*
X63827000Y-95771603D01*
X63827000Y-95735707D01*
X63830517Y-95699999D01*
X63827000Y-95664291D01*
X63827000Y-95628397D01*
X63819997Y-95593191D01*
X63816480Y-95557482D01*
X63806065Y-95523149D01*
X63799062Y-95487942D01*
X63785323Y-95454774D01*
X63774909Y-95420443D01*
X63757998Y-95388804D01*
X63744259Y-95355636D01*
X63724314Y-95325786D01*
X63707402Y-95294146D01*
X63684644Y-95266415D01*
X63664698Y-95236564D01*
X63563436Y-95135302D01*
X63563433Y-95135300D01*
X61227000Y-92798868D01*
X61227000Y-89316890D01*
X74758524Y-89316890D01*
X74803175Y-89464099D01*
X74928359Y-89726920D01*
X75102412Y-89960269D01*
X75318645Y-90155178D01*
X75568748Y-90304157D01*
X75843109Y-90401481D01*
X76073000Y-90280814D01*
X76073000Y-89087000D01*
X76327000Y-89087000D01*
X76327000Y-90280814D01*
X76556891Y-90401481D01*
X76831252Y-90304157D01*
X77081355Y-90155178D01*
X77297588Y-89960269D01*
X77470000Y-89729120D01*
X77642412Y-89960269D01*
X77858645Y-90155178D01*
X78108748Y-90304157D01*
X78383109Y-90401481D01*
X78613000Y-90280814D01*
X78613000Y-89087000D01*
X78867000Y-89087000D01*
X78867000Y-90280814D01*
X79096891Y-90401481D01*
X79371252Y-90304157D01*
X79621355Y-90155178D01*
X79837588Y-89960269D01*
X80011641Y-89726920D01*
X80136825Y-89464099D01*
X80181476Y-89316890D01*
X80060155Y-89087000D01*
X78867000Y-89087000D01*
X78613000Y-89087000D01*
X76327000Y-89087000D01*
X76073000Y-89087000D01*
X74879845Y-89087000D01*
X74758524Y-89316890D01*
X61227000Y-89316890D01*
X61227000Y-89068500D01*
X84577983Y-89068500D01*
X84581500Y-89104208D01*
X84581500Y-89140103D01*
X84588503Y-89175310D01*
X84592020Y-89211017D01*
X84602435Y-89245351D01*
X84609438Y-89280558D01*
X84623174Y-89313720D01*
X84633590Y-89348057D01*
X84650505Y-89379703D01*
X84664241Y-89412864D01*
X84684183Y-89442710D01*
X84701097Y-89474353D01*
X84723858Y-89502088D01*
X84743802Y-89531936D01*
X84769183Y-89557317D01*
X84791946Y-89585054D01*
X84819683Y-89607817D01*
X84845064Y-89633198D01*
X84874912Y-89653142D01*
X84902647Y-89675903D01*
X84934290Y-89692817D01*
X84964136Y-89712759D01*
X84997297Y-89726495D01*
X85028943Y-89743410D01*
X85063280Y-89753826D01*
X85096442Y-89767562D01*
X85131649Y-89774565D01*
X85165983Y-89784980D01*
X85201690Y-89788497D01*
X85236897Y-89795500D01*
X85811990Y-89795500D01*
X85021422Y-90586069D01*
X85005127Y-90599442D01*
X84991755Y-90615736D01*
X84991754Y-90615737D01*
X84951767Y-90664461D01*
X84944138Y-90678734D01*
X84912117Y-90738642D01*
X84887700Y-90819131D01*
X84881773Y-90879311D01*
X84845086Y-90903824D01*
X84743824Y-91005086D01*
X84664263Y-91124158D01*
X84609460Y-91256464D01*
X84581522Y-91396919D01*
X84581522Y-91540125D01*
X84609460Y-91680580D01*
X84664263Y-91812886D01*
X84743824Y-91931958D01*
X84845086Y-92033220D01*
X84964158Y-92112781D01*
X85096464Y-92167584D01*
X85236919Y-92195522D01*
X85380125Y-92195522D01*
X85520580Y-92167584D01*
X85652886Y-92112781D01*
X85771958Y-92033220D01*
X85873220Y-91931958D01*
X85952781Y-91812886D01*
X85987603Y-91728820D01*
X85987602Y-92442992D01*
X85980103Y-92441500D01*
X85836897Y-92441500D01*
X85696442Y-92469438D01*
X85564136Y-92524241D01*
X85445064Y-92603802D01*
X85343802Y-92705064D01*
X85264241Y-92824136D01*
X85209438Y-92956442D01*
X85181500Y-93096897D01*
X85181500Y-93240103D01*
X85209438Y-93380558D01*
X85264241Y-93512864D01*
X85343802Y-93631936D01*
X85445064Y-93733198D01*
X85564136Y-93812759D01*
X85696442Y-93867562D01*
X85836897Y-93895500D01*
X85980103Y-93895500D01*
X86120558Y-93867562D01*
X86252864Y-93812759D01*
X86371936Y-93733198D01*
X86473198Y-93631936D01*
X86552759Y-93512864D01*
X86607562Y-93380558D01*
X86635500Y-93240103D01*
X86635500Y-93096897D01*
X86626951Y-93053918D01*
X86701714Y-92979156D01*
X86717997Y-92965793D01*
X86731361Y-92949509D01*
X86731370Y-92949500D01*
X86771357Y-92900775D01*
X86811006Y-92826595D01*
X86811007Y-92826594D01*
X86835424Y-92746105D01*
X86841602Y-92683376D01*
X86841602Y-92683364D01*
X86843667Y-92662399D01*
X86841602Y-92641434D01*
X86841602Y-91852750D01*
X86902546Y-91877994D01*
X87043001Y-91905932D01*
X87186207Y-91905932D01*
X87229186Y-91897383D01*
X87546636Y-92214834D01*
X87560000Y-92231118D01*
X87576284Y-92244482D01*
X87576293Y-92244491D01*
X87625018Y-92284478D01*
X87664616Y-92305643D01*
X87699199Y-92324128D01*
X87779688Y-92348545D01*
X87842417Y-92354723D01*
X87842429Y-92354723D01*
X87863394Y-92356788D01*
X87884359Y-92354723D01*
X96990947Y-92354723D01*
X97015293Y-92391159D01*
X97116555Y-92492421D01*
X97235627Y-92571982D01*
X97367933Y-92626785D01*
X97508388Y-92654723D01*
X97651594Y-92654723D01*
X97792049Y-92626785D01*
X97924355Y-92571982D01*
X98043427Y-92492421D01*
X98144689Y-92391159D01*
X98224250Y-92272087D01*
X98279053Y-92139781D01*
X98306991Y-91999326D01*
X98306991Y-91856120D01*
X98279053Y-91715665D01*
X98224250Y-91583359D01*
X98144689Y-91464287D01*
X98043427Y-91363025D01*
X97929788Y-91287094D01*
X98021383Y-91195500D01*
X98919456Y-91195500D01*
X98943802Y-91231936D01*
X99045064Y-91333198D01*
X99164136Y-91412759D01*
X99296442Y-91467562D01*
X99436897Y-91495500D01*
X99580103Y-91495500D01*
X99720558Y-91467562D01*
X99852864Y-91412759D01*
X99971936Y-91333198D01*
X100073198Y-91231936D01*
X100152759Y-91112864D01*
X100207562Y-90980558D01*
X100235500Y-90840103D01*
X100235500Y-90696897D01*
X100207562Y-90556442D01*
X100152759Y-90424136D01*
X100073198Y-90305064D01*
X99971936Y-90203802D01*
X99852864Y-90124241D01*
X99720558Y-90069438D01*
X99580103Y-90041500D01*
X99436897Y-90041500D01*
X99296442Y-90069438D01*
X99164136Y-90124241D01*
X99045064Y-90203802D01*
X98943802Y-90305064D01*
X98919456Y-90341500D01*
X97865481Y-90341500D01*
X97844514Y-90339435D01*
X97823547Y-90341500D01*
X97823536Y-90341500D01*
X97760807Y-90347678D01*
X97744044Y-90352763D01*
X97720325Y-90295500D01*
X97787533Y-90295500D01*
X97808500Y-90297565D01*
X97829467Y-90295500D01*
X97829478Y-90295500D01*
X97892207Y-90289322D01*
X97972696Y-90264905D01*
X98046876Y-90225255D01*
X98111895Y-90171895D01*
X98125268Y-90155600D01*
X98493918Y-89786951D01*
X98536897Y-89795500D01*
X98680103Y-89795500D01*
X98820558Y-89767562D01*
X98952864Y-89712759D01*
X99071936Y-89633198D01*
X99173198Y-89531936D01*
X99252759Y-89412864D01*
X99307562Y-89280558D01*
X99335500Y-89140103D01*
X99335500Y-88996897D01*
X99307562Y-88856442D01*
X99252759Y-88724136D01*
X99173198Y-88605064D01*
X99071936Y-88503802D01*
X98952864Y-88424241D01*
X98820558Y-88369438D01*
X98680103Y-88341500D01*
X98536897Y-88341500D01*
X98396442Y-88369438D01*
X98264136Y-88424241D01*
X98145064Y-88503802D01*
X98043802Y-88605064D01*
X97964241Y-88724136D01*
X97909438Y-88856442D01*
X97881500Y-88996897D01*
X97881500Y-89140103D01*
X97890049Y-89183082D01*
X97631632Y-89441500D01*
X93433625Y-89441500D01*
X93452759Y-89412864D01*
X93466495Y-89379703D01*
X93483410Y-89348057D01*
X93493826Y-89313720D01*
X93507562Y-89280558D01*
X93514565Y-89245351D01*
X93524980Y-89211017D01*
X93528497Y-89175310D01*
X93535500Y-89140103D01*
X93535500Y-89104208D01*
X93539017Y-89068500D01*
X93535500Y-89032792D01*
X93535500Y-88996897D01*
X93528497Y-88961690D01*
X93524980Y-88925983D01*
X93514565Y-88891649D01*
X93507562Y-88856442D01*
X93493826Y-88823280D01*
X93483410Y-88788943D01*
X93466495Y-88757297D01*
X93452759Y-88724136D01*
X93432817Y-88694290D01*
X93415903Y-88662647D01*
X93393142Y-88634912D01*
X93373198Y-88605064D01*
X93347817Y-88579683D01*
X93325054Y-88551946D01*
X93297317Y-88529183D01*
X93271936Y-88503802D01*
X93242088Y-88483858D01*
X93214353Y-88461097D01*
X93182710Y-88444183D01*
X93152864Y-88424241D01*
X93119703Y-88410505D01*
X93088057Y-88393590D01*
X93053720Y-88383174D01*
X93020558Y-88369438D01*
X92985351Y-88362435D01*
X92951017Y-88352020D01*
X92915310Y-88348503D01*
X92880103Y-88341500D01*
X85236897Y-88341500D01*
X85201690Y-88348503D01*
X85165983Y-88352020D01*
X85131649Y-88362435D01*
X85096442Y-88369438D01*
X85063280Y-88383174D01*
X85028943Y-88393590D01*
X84997297Y-88410505D01*
X84964136Y-88424241D01*
X84934290Y-88444183D01*
X84902647Y-88461097D01*
X84874912Y-88483858D01*
X84845064Y-88503802D01*
X84819683Y-88529183D01*
X84791946Y-88551946D01*
X84769183Y-88579683D01*
X84743802Y-88605064D01*
X84723858Y-88634912D01*
X84701097Y-88662647D01*
X84684183Y-88694290D01*
X84664241Y-88724136D01*
X84650505Y-88757297D01*
X84633590Y-88788943D01*
X84623174Y-88823280D01*
X84609438Y-88856442D01*
X84602435Y-88891649D01*
X84592020Y-88925983D01*
X84588503Y-88961690D01*
X84581500Y-88996897D01*
X84581500Y-89032792D01*
X84577983Y-89068500D01*
X61227000Y-89068500D01*
X61227000Y-80435396D01*
X61228480Y-80430517D01*
X61231997Y-80394810D01*
X61239000Y-80359603D01*
X61239000Y-80323708D01*
X61242517Y-80288000D01*
X61239000Y-80252292D01*
X61239000Y-80216397D01*
X61231997Y-80181190D01*
X61228480Y-80145483D01*
X61218065Y-80111149D01*
X61211062Y-80075942D01*
X61197326Y-80042780D01*
X61186910Y-80008443D01*
X61169995Y-79976797D01*
X61156259Y-79943636D01*
X61136317Y-79913790D01*
X61119403Y-79882147D01*
X61096642Y-79854412D01*
X61076698Y-79824564D01*
X61051317Y-79799183D01*
X61028554Y-79771446D01*
X61000817Y-79748683D01*
X60975436Y-79723302D01*
X60945588Y-79703358D01*
X60917853Y-79680597D01*
X60886210Y-79663683D01*
X60856364Y-79643741D01*
X60823203Y-79630005D01*
X60791557Y-79613090D01*
X60757220Y-79602674D01*
X60724058Y-79588938D01*
X60688851Y-79581935D01*
X60654517Y-79571520D01*
X60618810Y-79568003D01*
X60583603Y-79561000D01*
X60547708Y-79561000D01*
X60512000Y-79557483D01*
X60476292Y-79561000D01*
X59340397Y-79561000D01*
X59305190Y-79568003D01*
X59269483Y-79571520D01*
X59235149Y-79581935D01*
X59199942Y-79588938D01*
X59166780Y-79602674D01*
X59132443Y-79613090D01*
X59100797Y-79630005D01*
X59067636Y-79643741D01*
X59037790Y-79663683D01*
X59006147Y-79680597D01*
X58978412Y-79703358D01*
X58948564Y-79723302D01*
X58923183Y-79748683D01*
X58895446Y-79771446D01*
X58872683Y-79799183D01*
X58847302Y-79824564D01*
X58827358Y-79854412D01*
X58804597Y-79882147D01*
X58787683Y-79913790D01*
X58767741Y-79943636D01*
X58754005Y-79976797D01*
X58737090Y-80008443D01*
X58726674Y-80042780D01*
X58712938Y-80075942D01*
X58705935Y-80111149D01*
X58695520Y-80145483D01*
X58692003Y-80181190D01*
X58685000Y-80216397D01*
X58685000Y-80252292D01*
X58681483Y-80288000D01*
X52127000Y-80288000D01*
X52127000Y-76984315D01*
X64019483Y-76984315D01*
X64023000Y-77020023D01*
X64023000Y-77621603D01*
X64030003Y-77656811D01*
X64033520Y-77692516D01*
X64043934Y-77726848D01*
X64050938Y-77762058D01*
X64064675Y-77795223D01*
X64075090Y-77829556D01*
X64092003Y-77861199D01*
X64105741Y-77894364D01*
X64125686Y-77924214D01*
X64142597Y-77955852D01*
X64165355Y-77983583D01*
X64185302Y-78013436D01*
X64210688Y-78038822D01*
X64233446Y-78066553D01*
X64261178Y-78089312D01*
X64286564Y-78114698D01*
X64316414Y-78134643D01*
X64344147Y-78157403D01*
X64375790Y-78174317D01*
X64405636Y-78194259D01*
X64438797Y-78207995D01*
X64470443Y-78224910D01*
X64504780Y-78235326D01*
X64537942Y-78249062D01*
X64573149Y-78256065D01*
X64607483Y-78266480D01*
X64643190Y-78269997D01*
X64678397Y-78277000D01*
X64714292Y-78277000D01*
X64750000Y-78280517D01*
X64785708Y-78277000D01*
X64821603Y-78277000D01*
X64856811Y-78269997D01*
X64892516Y-78266480D01*
X64926848Y-78256066D01*
X64962058Y-78249062D01*
X64995223Y-78235325D01*
X65029556Y-78224910D01*
X65061199Y-78207997D01*
X65094364Y-78194259D01*
X65124214Y-78174314D01*
X65155852Y-78157403D01*
X65183583Y-78134645D01*
X65213436Y-78114698D01*
X65238822Y-78089312D01*
X65266553Y-78066554D01*
X65289312Y-78038822D01*
X65314698Y-78013436D01*
X65334643Y-77983586D01*
X65357403Y-77955853D01*
X65374317Y-77924210D01*
X65394259Y-77894364D01*
X65407995Y-77861203D01*
X65424910Y-77829557D01*
X65435326Y-77795220D01*
X65449062Y-77762058D01*
X65456065Y-77726851D01*
X65466480Y-77692517D01*
X65469997Y-77656810D01*
X65477000Y-77621603D01*
X65477000Y-77495500D01*
X68472792Y-77495500D01*
X68508500Y-77499017D01*
X68651017Y-77484980D01*
X68788057Y-77443410D01*
X68914353Y-77375903D01*
X69025054Y-77285054D01*
X69047826Y-77257306D01*
X69397311Y-76907821D01*
X69425053Y-76885054D01*
X69515903Y-76774353D01*
X69583410Y-76648057D01*
X69624980Y-76511017D01*
X69635500Y-76404208D01*
X69635500Y-76404206D01*
X69639017Y-76368501D01*
X69635500Y-76332795D01*
X69635500Y-70165641D01*
X69795320Y-70005821D01*
X69823057Y-69983058D01*
X69913907Y-69872357D01*
X69981414Y-69746061D01*
X70000530Y-69683044D01*
X70022984Y-69609022D01*
X70037021Y-69466504D01*
X70033504Y-69430796D01*
X70033504Y-68471629D01*
X70209633Y-68295500D01*
X73072792Y-68295500D01*
X73077197Y-68295934D01*
X71323083Y-70050049D01*
X71280103Y-70041500D01*
X71136897Y-70041500D01*
X70996442Y-70069438D01*
X70864136Y-70124241D01*
X70745064Y-70203802D01*
X70643802Y-70305064D01*
X70564241Y-70424136D01*
X70509438Y-70556442D01*
X70481500Y-70696897D01*
X70481500Y-70840103D01*
X70509438Y-70980558D01*
X70564241Y-71112864D01*
X70643802Y-71231936D01*
X70745064Y-71333198D01*
X70864136Y-71412759D01*
X70996442Y-71467562D01*
X71136897Y-71495500D01*
X71280103Y-71495500D01*
X71420558Y-71467562D01*
X71552864Y-71412759D01*
X71671936Y-71333198D01*
X71773198Y-71231936D01*
X71852759Y-71112864D01*
X71907562Y-70980558D01*
X71935500Y-70840103D01*
X71935500Y-70696897D01*
X71926951Y-70653917D01*
X74903868Y-67677001D01*
X75522685Y-67677001D01*
X75449706Y-67725764D01*
X75285764Y-67889706D01*
X75156956Y-68082481D01*
X75068231Y-68296682D01*
X75023000Y-68524076D01*
X75023000Y-68755924D01*
X75068231Y-68983318D01*
X75156956Y-69197519D01*
X75285764Y-69390294D01*
X75449706Y-69554236D01*
X75642481Y-69683044D01*
X75856682Y-69771769D01*
X76084076Y-69817000D01*
X76315924Y-69817000D01*
X76543318Y-69771769D01*
X76757519Y-69683044D01*
X76950294Y-69554236D01*
X77114236Y-69390294D01*
X77243044Y-69197519D01*
X77331769Y-68983318D01*
X77377000Y-68755924D01*
X77377000Y-68524076D01*
X77367957Y-68478612D01*
X77649486Y-68197083D01*
X77608231Y-68296682D01*
X77563000Y-68524076D01*
X77563000Y-68755924D01*
X77608231Y-68983318D01*
X77696956Y-69197519D01*
X77825764Y-69390294D01*
X77989706Y-69554236D01*
X78062685Y-69602999D01*
X77370967Y-69602999D01*
X77350000Y-69600934D01*
X77329033Y-69602999D01*
X77329023Y-69602999D01*
X77266294Y-69609177D01*
X77185805Y-69633594D01*
X77151274Y-69652051D01*
X77111624Y-69673244D01*
X77062900Y-69713231D01*
X77062896Y-69713235D01*
X77046606Y-69726604D01*
X77033237Y-69742894D01*
X76673837Y-70102294D01*
X76543318Y-70048231D01*
X76315924Y-70003000D01*
X76084076Y-70003000D01*
X75856682Y-70048231D01*
X75642481Y-70136956D01*
X75449706Y-70265764D01*
X75285764Y-70429706D01*
X75156956Y-70622481D01*
X75068231Y-70836682D01*
X75023000Y-71064076D01*
X75023000Y-71295924D01*
X75068231Y-71523318D01*
X75156956Y-71737519D01*
X75285764Y-71930294D01*
X75449706Y-72094236D01*
X75642481Y-72223044D01*
X75856682Y-72311769D01*
X76084076Y-72357000D01*
X76315924Y-72357000D01*
X76543318Y-72311769D01*
X76757519Y-72223044D01*
X76950294Y-72094236D01*
X77114236Y-71930294D01*
X77243044Y-71737519D01*
X77331769Y-71523318D01*
X77377000Y-71295924D01*
X77377000Y-71064076D01*
X77331769Y-70836682D01*
X77277706Y-70706163D01*
X77526870Y-70456999D01*
X77807527Y-70456999D01*
X77696956Y-70622481D01*
X77608231Y-70836682D01*
X77563000Y-71064076D01*
X77563000Y-71295924D01*
X77608231Y-71523318D01*
X77696956Y-71737519D01*
X77825764Y-71930294D01*
X77847145Y-71951675D01*
X77562291Y-71951675D01*
X77541324Y-71949610D01*
X77520357Y-71951675D01*
X77520347Y-71951675D01*
X77457618Y-71957853D01*
X77377129Y-71982270D01*
X77342598Y-72000727D01*
X77302948Y-72021920D01*
X77254224Y-72061907D01*
X77254220Y-72061911D01*
X77237930Y-72075280D01*
X77224561Y-72091570D01*
X76673837Y-72642294D01*
X76543318Y-72588231D01*
X76315924Y-72543000D01*
X76084076Y-72543000D01*
X75856682Y-72588231D01*
X75642481Y-72676956D01*
X75449706Y-72805764D01*
X75285764Y-72969706D01*
X75156956Y-73162481D01*
X75068231Y-73376682D01*
X75023000Y-73604076D01*
X75023000Y-73835924D01*
X75068231Y-74063318D01*
X75156956Y-74277519D01*
X75285764Y-74470294D01*
X75356969Y-74541499D01*
X72185369Y-74541499D01*
X71426951Y-73783082D01*
X71435500Y-73740103D01*
X71435500Y-73596897D01*
X71407562Y-73456442D01*
X71352759Y-73324136D01*
X71273198Y-73205064D01*
X71171936Y-73103802D01*
X71052864Y-73024241D01*
X70920558Y-72969438D01*
X70780103Y-72941500D01*
X70636897Y-72941500D01*
X70496442Y-72969438D01*
X70364136Y-73024241D01*
X70245064Y-73103802D01*
X70143802Y-73205064D01*
X70064241Y-73324136D01*
X70009438Y-73456442D01*
X69981500Y-73596897D01*
X69981500Y-73740103D01*
X70009438Y-73880558D01*
X70064241Y-74012864D01*
X70143802Y-74131936D01*
X70245064Y-74233198D01*
X70364136Y-74312759D01*
X70496442Y-74367562D01*
X70636897Y-74395500D01*
X70780103Y-74395500D01*
X70823082Y-74386951D01*
X71691740Y-75255610D01*
X71705104Y-75271894D01*
X71721388Y-75285258D01*
X71721397Y-75285267D01*
X71770122Y-75325254D01*
X71808495Y-75345764D01*
X71844303Y-75364904D01*
X71924792Y-75389321D01*
X71987521Y-75395499D01*
X71987531Y-75395499D01*
X72008498Y-75397564D01*
X72029465Y-75395499D01*
X75399971Y-75395499D01*
X75285764Y-75509706D01*
X75156956Y-75702481D01*
X75068231Y-75916682D01*
X75023000Y-76144076D01*
X75023000Y-76375924D01*
X75068231Y-76603318D01*
X75156956Y-76817519D01*
X75285764Y-77010294D01*
X75449706Y-77174236D01*
X75642481Y-77303044D01*
X75856682Y-77391769D01*
X76084076Y-77437000D01*
X76315924Y-77437000D01*
X76543318Y-77391769D01*
X76757519Y-77303044D01*
X76950294Y-77174236D01*
X77114236Y-77010294D01*
X77243044Y-76817519D01*
X77331769Y-76603318D01*
X77377000Y-76375924D01*
X77377000Y-76144076D01*
X77331769Y-75916682D01*
X77243044Y-75702481D01*
X77114236Y-75509706D01*
X77000029Y-75395499D01*
X77939971Y-75395499D01*
X77825764Y-75509706D01*
X77696956Y-75702481D01*
X77608231Y-75916682D01*
X77563000Y-76144076D01*
X77563000Y-76375924D01*
X77608231Y-76603318D01*
X77696956Y-76817519D01*
X77825764Y-77010294D01*
X77989706Y-77174236D01*
X78062685Y-77222999D01*
X77370967Y-77222999D01*
X77350000Y-77220934D01*
X77329033Y-77222999D01*
X77329023Y-77222999D01*
X77266294Y-77229177D01*
X77185805Y-77253594D01*
X77178840Y-77257317D01*
X77111624Y-77293244D01*
X77062900Y-77333231D01*
X77062896Y-77333235D01*
X77046606Y-77346604D01*
X77033237Y-77362894D01*
X76673837Y-77722294D01*
X76543318Y-77668231D01*
X76315924Y-77623000D01*
X76084076Y-77623000D01*
X75856682Y-77668231D01*
X75642481Y-77756956D01*
X75449706Y-77885764D01*
X75285764Y-78049706D01*
X75156956Y-78242481D01*
X75068231Y-78456682D01*
X75023000Y-78684076D01*
X75023000Y-78915924D01*
X75068231Y-79143318D01*
X75156956Y-79357519D01*
X75285764Y-79550294D01*
X75449706Y-79714236D01*
X75490510Y-79741500D01*
X72185369Y-79741500D01*
X70926951Y-78483083D01*
X70935500Y-78440103D01*
X70935500Y-78296897D01*
X70907562Y-78156442D01*
X70852759Y-78024136D01*
X70773198Y-77905064D01*
X70671936Y-77803802D01*
X70552864Y-77724241D01*
X70420558Y-77669438D01*
X70280103Y-77641500D01*
X70136897Y-77641500D01*
X69996442Y-77669438D01*
X69864136Y-77724241D01*
X69745064Y-77803802D01*
X69643802Y-77905064D01*
X69564241Y-78024136D01*
X69509438Y-78156442D01*
X69481500Y-78296897D01*
X69481500Y-78440103D01*
X69509438Y-78580558D01*
X69564241Y-78712864D01*
X69643802Y-78831936D01*
X69745064Y-78933198D01*
X69864136Y-79012759D01*
X69996442Y-79067562D01*
X70136897Y-79095500D01*
X70181500Y-79095500D01*
X70100752Y-79149454D01*
X69999490Y-79250716D01*
X69919929Y-79369788D01*
X69865126Y-79502094D01*
X69837188Y-79642549D01*
X69837188Y-79785755D01*
X69865126Y-79926210D01*
X69919929Y-80058516D01*
X69999490Y-80177588D01*
X70100752Y-80278850D01*
X70219824Y-80358411D01*
X70352130Y-80413214D01*
X70492585Y-80441152D01*
X70635791Y-80441152D01*
X70678770Y-80432603D01*
X71201772Y-80955605D01*
X71215141Y-80971895D01*
X71231431Y-80985264D01*
X71231435Y-80985268D01*
X71280159Y-81025255D01*
X71301394Y-81036605D01*
X71354340Y-81064905D01*
X71434829Y-81089322D01*
X71497558Y-81095500D01*
X71497569Y-81095500D01*
X71518536Y-81097565D01*
X71539503Y-81095500D01*
X75048575Y-81095500D01*
X75023000Y-81224076D01*
X75023000Y-81455924D01*
X75068231Y-81683318D01*
X75156956Y-81897519D01*
X75285764Y-82090294D01*
X75449706Y-82254236D01*
X75642481Y-82383044D01*
X75856682Y-82471769D01*
X76084076Y-82517000D01*
X76315924Y-82517000D01*
X76543318Y-82471769D01*
X76673837Y-82417706D01*
X77033237Y-82777106D01*
X77046606Y-82793396D01*
X77062896Y-82806765D01*
X77062900Y-82806769D01*
X77111624Y-82846756D01*
X77129746Y-82856442D01*
X77185805Y-82886406D01*
X77266294Y-82910823D01*
X77329023Y-82917001D01*
X77329033Y-82917001D01*
X77350000Y-82919066D01*
X77370967Y-82917001D01*
X78062685Y-82917001D01*
X77989706Y-82965764D01*
X77825764Y-83129706D01*
X77696956Y-83322481D01*
X77608231Y-83536682D01*
X77563000Y-83764076D01*
X77563000Y-83995924D01*
X77608231Y-84223318D01*
X77696956Y-84437519D01*
X77807527Y-84603001D01*
X77132473Y-84603001D01*
X77243044Y-84437519D01*
X77331769Y-84223318D01*
X77377000Y-83995924D01*
X77377000Y-83764076D01*
X77331769Y-83536682D01*
X77243044Y-83322481D01*
X77114236Y-83129706D01*
X76950294Y-82965764D01*
X76757519Y-82836956D01*
X76543318Y-82748231D01*
X76315924Y-82703000D01*
X76084076Y-82703000D01*
X75856682Y-82748231D01*
X75642481Y-82836956D01*
X75449706Y-82965764D01*
X75285764Y-83129706D01*
X75156956Y-83322481D01*
X75068231Y-83536682D01*
X75023000Y-83764076D01*
X75023000Y-83995924D01*
X75068231Y-84223318D01*
X75156956Y-84437519D01*
X75267527Y-84603001D01*
X72532117Y-84603001D01*
X66692591Y-78763475D01*
X66724130Y-78731936D01*
X66803691Y-78612864D01*
X66858494Y-78480558D01*
X66886432Y-78340103D01*
X66886432Y-78196897D01*
X66858494Y-78056442D01*
X66803691Y-77924136D01*
X66724130Y-77805064D01*
X66622868Y-77703802D01*
X66503796Y-77624241D01*
X66371490Y-77569438D01*
X66231035Y-77541500D01*
X66087829Y-77541500D01*
X65947374Y-77569438D01*
X65815068Y-77624241D01*
X65695996Y-77703802D01*
X65594734Y-77805064D01*
X65515173Y-77924136D01*
X65460370Y-78056442D01*
X65432432Y-78196897D01*
X65432432Y-78340103D01*
X65460370Y-78480558D01*
X65515173Y-78612864D01*
X65594734Y-78731936D01*
X65695996Y-78833198D01*
X65732683Y-78857711D01*
X65738610Y-78917891D01*
X65763027Y-78998380D01*
X65763028Y-78998381D01*
X65802677Y-79072561D01*
X65821503Y-79095500D01*
X65856037Y-79137580D01*
X65872332Y-79150953D01*
X72038484Y-85317106D01*
X72051853Y-85333396D01*
X72068143Y-85346765D01*
X72068147Y-85346769D01*
X72116871Y-85386756D01*
X72135844Y-85396897D01*
X72191052Y-85426406D01*
X72271541Y-85450823D01*
X72334270Y-85457001D01*
X72334280Y-85457001D01*
X72355247Y-85459066D01*
X72376214Y-85457001D01*
X75522685Y-85457001D01*
X75449706Y-85505764D01*
X75285764Y-85669706D01*
X75156956Y-85862481D01*
X75068231Y-86076682D01*
X75023000Y-86304076D01*
X75023000Y-86535924D01*
X75068231Y-86763318D01*
X75156956Y-86977519D01*
X75285764Y-87170294D01*
X75449706Y-87334236D01*
X75642481Y-87463044D01*
X75807179Y-87531264D01*
X75568748Y-87615843D01*
X75318645Y-87764822D01*
X75102412Y-87959731D01*
X74928359Y-88193080D01*
X74803175Y-88455901D01*
X74758524Y-88603110D01*
X74879845Y-88833000D01*
X76073000Y-88833000D01*
X76073000Y-88813000D01*
X76327000Y-88813000D01*
X76327000Y-88833000D01*
X78613000Y-88833000D01*
X78613000Y-88813000D01*
X78867000Y-88813000D01*
X78867000Y-88833000D01*
X80060155Y-88833000D01*
X80181476Y-88603110D01*
X80136825Y-88455901D01*
X80011641Y-88193080D01*
X79837588Y-87959731D01*
X79621355Y-87764822D01*
X79371252Y-87615843D01*
X79132821Y-87531264D01*
X79297519Y-87463044D01*
X79490294Y-87334236D01*
X79654236Y-87170294D01*
X79783044Y-86977519D01*
X79871769Y-86763318D01*
X79917000Y-86535924D01*
X79917000Y-86304076D01*
X79871769Y-86076682D01*
X79783044Y-85862481D01*
X79654236Y-85669706D01*
X79490294Y-85505764D01*
X79417315Y-85457001D01*
X79426032Y-85457001D01*
X79446999Y-85459066D01*
X79467966Y-85457001D01*
X79467977Y-85457001D01*
X79530706Y-85450823D01*
X79611195Y-85426406D01*
X79685375Y-85386756D01*
X79750394Y-85333396D01*
X79763767Y-85317101D01*
X80085369Y-84995500D01*
X80787533Y-84995500D01*
X80808500Y-84997565D01*
X80829467Y-84995500D01*
X80829478Y-84995500D01*
X80892207Y-84989322D01*
X80972696Y-84964905D01*
X81046876Y-84925255D01*
X81111895Y-84871895D01*
X81125268Y-84855600D01*
X81985369Y-83995500D01*
X85431632Y-83995500D01*
X86132185Y-84696054D01*
X86064136Y-84724241D01*
X85945064Y-84803802D01*
X85843802Y-84905064D01*
X85764241Y-85024136D01*
X85709438Y-85156442D01*
X85681500Y-85296897D01*
X85681500Y-85440103D01*
X85709438Y-85580558D01*
X85764241Y-85712864D01*
X85843802Y-85831936D01*
X85945064Y-85933198D01*
X86064136Y-86012759D01*
X86196442Y-86067562D01*
X86336897Y-86095500D01*
X86480103Y-86095500D01*
X86620558Y-86067562D01*
X86752864Y-86012759D01*
X86871936Y-85933198D01*
X86909634Y-85895500D01*
X89319456Y-85895500D01*
X89343802Y-85931936D01*
X89445064Y-86033198D01*
X89564136Y-86112759D01*
X89696442Y-86167562D01*
X89836897Y-86195500D01*
X89980103Y-86195500D01*
X90120558Y-86167562D01*
X90252864Y-86112759D01*
X90371936Y-86033198D01*
X90473198Y-85931936D01*
X90552759Y-85812864D01*
X90607562Y-85680558D01*
X90635500Y-85540103D01*
X90635500Y-85396897D01*
X90607562Y-85256442D01*
X90570198Y-85166238D01*
X93102370Y-85166238D01*
X95490049Y-87553918D01*
X95481500Y-87596897D01*
X95481500Y-87740103D01*
X95509438Y-87880558D01*
X95564241Y-88012864D01*
X95643802Y-88131936D01*
X95745064Y-88233198D01*
X95864136Y-88312759D01*
X95996442Y-88367562D01*
X96136897Y-88395500D01*
X96280103Y-88395500D01*
X96420558Y-88367562D01*
X96552864Y-88312759D01*
X96671936Y-88233198D01*
X96773198Y-88131936D01*
X96852759Y-88012864D01*
X96907562Y-87880558D01*
X96935500Y-87740103D01*
X96935500Y-87596897D01*
X96907562Y-87456442D01*
X96852759Y-87324136D01*
X96773198Y-87205064D01*
X96671936Y-87103802D01*
X96552864Y-87024241D01*
X96420558Y-86969438D01*
X96280103Y-86941500D01*
X96136897Y-86941500D01*
X96093918Y-86950049D01*
X93596006Y-84452138D01*
X93582633Y-84435843D01*
X93517614Y-84382483D01*
X93443434Y-84342833D01*
X93362945Y-84318416D01*
X93300216Y-84312238D01*
X93300205Y-84312238D01*
X93279238Y-84310173D01*
X93258271Y-84312238D01*
X91186375Y-84312238D01*
X91252759Y-84212887D01*
X91307562Y-84080581D01*
X91335500Y-83940126D01*
X91335500Y-83796920D01*
X91307562Y-83656465D01*
X91282315Y-83595513D01*
X105515633Y-83595513D01*
X105564241Y-83712864D01*
X105643802Y-83831936D01*
X105745064Y-83933198D01*
X105864136Y-84012759D01*
X105996442Y-84067562D01*
X106136897Y-84095500D01*
X106280103Y-84095500D01*
X106420558Y-84067562D01*
X106552864Y-84012759D01*
X106671936Y-83933198D01*
X106773198Y-83831936D01*
X106852759Y-83712864D01*
X106882723Y-83640524D01*
X106943802Y-83731936D01*
X107045064Y-83833198D01*
X107164136Y-83912759D01*
X107296442Y-83967562D01*
X107436897Y-83995500D01*
X107580103Y-83995500D01*
X107720558Y-83967562D01*
X107852864Y-83912759D01*
X107971936Y-83833198D01*
X108073198Y-83731936D01*
X108152759Y-83612864D01*
X108207562Y-83480558D01*
X108235500Y-83340103D01*
X108235500Y-83196897D01*
X108207562Y-83056442D01*
X108152759Y-82924136D01*
X108073198Y-82805064D01*
X107971936Y-82703802D01*
X107852864Y-82624241D01*
X107720558Y-82569438D01*
X107580103Y-82541500D01*
X107436897Y-82541500D01*
X107393917Y-82550049D01*
X107225266Y-82381398D01*
X107211893Y-82365103D01*
X107146874Y-82311743D01*
X107072694Y-82272093D01*
X106992205Y-82247676D01*
X106929476Y-82241498D01*
X106929465Y-82241498D01*
X106908498Y-82239433D01*
X106887531Y-82241498D01*
X105893464Y-82241498D01*
X105872497Y-82239433D01*
X105851530Y-82241498D01*
X105851520Y-82241498D01*
X105788791Y-82247676D01*
X105708302Y-82272093D01*
X105634122Y-82311743D01*
X105597861Y-82341502D01*
X105533624Y-82341502D01*
X105552759Y-82312864D01*
X105607562Y-82180558D01*
X105635500Y-82040103D01*
X105635500Y-81896897D01*
X105607562Y-81756442D01*
X105552759Y-81624136D01*
X105473198Y-81505064D01*
X105371936Y-81403802D01*
X105252864Y-81324241D01*
X105120558Y-81269438D01*
X104980103Y-81241500D01*
X104836897Y-81241500D01*
X104696442Y-81269438D01*
X104564136Y-81324241D01*
X104445064Y-81403802D01*
X104343802Y-81505064D01*
X104264241Y-81624136D01*
X104209438Y-81756442D01*
X104181500Y-81896897D01*
X104181500Y-81941499D01*
X103282312Y-81941499D01*
X103307562Y-81880539D01*
X103335500Y-81740084D01*
X103335500Y-81596878D01*
X103307562Y-81456423D01*
X103252759Y-81324117D01*
X103173198Y-81205045D01*
X103071936Y-81103783D01*
X102952864Y-81024222D01*
X102820558Y-80969419D01*
X102680103Y-80941481D01*
X102536897Y-80941481D01*
X102396442Y-80969419D01*
X102264136Y-81024222D01*
X102145064Y-81103783D01*
X102043802Y-81205045D01*
X101964241Y-81324117D01*
X101909438Y-81456423D01*
X101892522Y-81541466D01*
X91985335Y-81541466D01*
X91057266Y-80613398D01*
X91043893Y-80597103D01*
X90978874Y-80543743D01*
X90904694Y-80504093D01*
X90824205Y-80479676D01*
X90761476Y-80473498D01*
X90761465Y-80473498D01*
X90740498Y-80471433D01*
X90719531Y-80473498D01*
X90618901Y-80473498D01*
X90573188Y-80405084D01*
X90471926Y-80303822D01*
X90352854Y-80224261D01*
X90220548Y-80169458D01*
X90080093Y-80141520D01*
X89936887Y-80141520D01*
X89796432Y-80169458D01*
X89664126Y-80224261D01*
X89545054Y-80303822D01*
X89443792Y-80405084D01*
X89364231Y-80524156D01*
X89309428Y-80656462D01*
X89281490Y-80796917D01*
X89281490Y-80940123D01*
X89306628Y-81066503D01*
X89231632Y-81141500D01*
X79900575Y-81141500D01*
X79871769Y-80996682D01*
X79783044Y-80782481D01*
X79654236Y-80589706D01*
X79490294Y-80425764D01*
X79297519Y-80296956D01*
X79083318Y-80208231D01*
X78855924Y-80163000D01*
X78624076Y-80163000D01*
X78396682Y-80208231D01*
X78266163Y-80262294D01*
X77885266Y-79881398D01*
X77871895Y-79865105D01*
X77806876Y-79811745D01*
X77732696Y-79772095D01*
X77652207Y-79747678D01*
X77589478Y-79741500D01*
X77589467Y-79741500D01*
X77568500Y-79739435D01*
X77547533Y-79741500D01*
X76909490Y-79741500D01*
X76950294Y-79714236D01*
X77114236Y-79550294D01*
X77243044Y-79357519D01*
X77331769Y-79143318D01*
X77377000Y-78915924D01*
X77377000Y-78684076D01*
X77331769Y-78456682D01*
X77277706Y-78326163D01*
X77526870Y-78076999D01*
X77807527Y-78076999D01*
X77696956Y-78242481D01*
X77608231Y-78456682D01*
X77563000Y-78684076D01*
X77563000Y-78915924D01*
X77608231Y-79143318D01*
X77696956Y-79357519D01*
X77825764Y-79550294D01*
X77989706Y-79714236D01*
X78182481Y-79843044D01*
X78396682Y-79931769D01*
X78624076Y-79977000D01*
X78855924Y-79977000D01*
X79083318Y-79931769D01*
X79297519Y-79843044D01*
X79490294Y-79714236D01*
X79654236Y-79550294D01*
X79783044Y-79357519D01*
X79871769Y-79143318D01*
X79917000Y-78915924D01*
X79917000Y-78684076D01*
X79871769Y-78456682D01*
X79817706Y-78326163D01*
X81648370Y-76495500D01*
X94831632Y-76495500D01*
X96490049Y-78153918D01*
X96481500Y-78196897D01*
X96481500Y-78340103D01*
X96509438Y-78480558D01*
X96564241Y-78612864D01*
X96643802Y-78731936D01*
X96745064Y-78833198D01*
X96864136Y-78912759D01*
X96996442Y-78967562D01*
X97136897Y-78995500D01*
X97280103Y-78995500D01*
X97420558Y-78967562D01*
X97552864Y-78912759D01*
X97671936Y-78833198D01*
X97773198Y-78731936D01*
X97852759Y-78612864D01*
X97907562Y-78480558D01*
X97935500Y-78340103D01*
X97935500Y-78196897D01*
X97907562Y-78056442D01*
X97852759Y-77924136D01*
X97773198Y-77805064D01*
X97763634Y-77795500D01*
X97919466Y-77795500D01*
X97943812Y-77831936D01*
X98045074Y-77933198D01*
X98164146Y-78012759D01*
X98296452Y-78067562D01*
X98436907Y-78095500D01*
X98580113Y-78095500D01*
X98720568Y-78067562D01*
X98852874Y-78012759D01*
X98971946Y-77933198D01*
X99073208Y-77831936D01*
X99152769Y-77712864D01*
X99207572Y-77580558D01*
X99235510Y-77440103D01*
X99235510Y-77296897D01*
X99207572Y-77156442D01*
X99152769Y-77024136D01*
X99073208Y-76905064D01*
X99049787Y-76881643D01*
X99120579Y-76867562D01*
X99252885Y-76812759D01*
X99371957Y-76733198D01*
X99473219Y-76631936D01*
X99552780Y-76512864D01*
X99607583Y-76380558D01*
X99635521Y-76240103D01*
X99635521Y-76096897D01*
X99607583Y-75956442D01*
X99552780Y-75824136D01*
X99473219Y-75705064D01*
X99371957Y-75603802D01*
X99252885Y-75524241D01*
X99120579Y-75469438D01*
X98980124Y-75441500D01*
X98836918Y-75441500D01*
X98696463Y-75469438D01*
X98564157Y-75524241D01*
X98445085Y-75603802D01*
X98343823Y-75705064D01*
X98319477Y-75741500D01*
X96416770Y-75741500D01*
X95970736Y-75295467D01*
X109381784Y-75295467D01*
X109381500Y-75296897D01*
X109381500Y-75440103D01*
X109409438Y-75580558D01*
X109464241Y-75712864D01*
X109543802Y-75831936D01*
X109645064Y-75933198D01*
X109764136Y-76012759D01*
X109896442Y-76067562D01*
X110036897Y-76095500D01*
X110180103Y-76095500D01*
X110320558Y-76067562D01*
X110452864Y-76012759D01*
X110571936Y-75933198D01*
X110673198Y-75831936D01*
X110752759Y-75712864D01*
X110807562Y-75580558D01*
X110835500Y-75440103D01*
X110835500Y-75296897D01*
X110807562Y-75156442D01*
X110752759Y-75024136D01*
X110673198Y-74905064D01*
X110571936Y-74803802D01*
X110452864Y-74724241D01*
X110320558Y-74669438D01*
X110180103Y-74641500D01*
X110036897Y-74641500D01*
X109993917Y-74650049D01*
X109925235Y-74581367D01*
X109911862Y-74565072D01*
X109846843Y-74511712D01*
X109772663Y-74472062D01*
X109692174Y-74447645D01*
X109629445Y-74441467D01*
X109629434Y-74441467D01*
X109608467Y-74439402D01*
X109587500Y-74441467D01*
X80995400Y-74441467D01*
X80974433Y-74439402D01*
X80953466Y-74441467D01*
X80953455Y-74441467D01*
X80890726Y-74447645D01*
X80816065Y-74470294D01*
X80810237Y-74472062D01*
X80736057Y-74511711D01*
X80699761Y-74541499D01*
X79583031Y-74541499D01*
X79654236Y-74470294D01*
X79783044Y-74277519D01*
X79871769Y-74063318D01*
X79917000Y-73835924D01*
X79917000Y-73604076D01*
X79871769Y-73376682D01*
X79783044Y-73162481D01*
X79654236Y-72969706D01*
X79490294Y-72805764D01*
X79490161Y-72805675D01*
X86377358Y-72805675D01*
X86398325Y-72807740D01*
X86419292Y-72805675D01*
X86419303Y-72805675D01*
X86482032Y-72799497D01*
X86562521Y-72775080D01*
X86636701Y-72735430D01*
X86701720Y-72682070D01*
X86715093Y-72665775D01*
X87485325Y-71895545D01*
X88922154Y-71895545D01*
X88864231Y-71982234D01*
X88809428Y-72114540D01*
X88781490Y-72254995D01*
X88781490Y-72398201D01*
X88809428Y-72538656D01*
X88864231Y-72670962D01*
X88943792Y-72790034D01*
X88980363Y-72826605D01*
X88943792Y-72863175D01*
X88864231Y-72982247D01*
X88809428Y-73114553D01*
X88781490Y-73255008D01*
X88781490Y-73398214D01*
X88809428Y-73538669D01*
X88864231Y-73670975D01*
X88943792Y-73790047D01*
X89045054Y-73891309D01*
X89164126Y-73970870D01*
X89296432Y-74025673D01*
X89436887Y-74053611D01*
X89580093Y-74053611D01*
X89720548Y-74025673D01*
X89852854Y-73970870D01*
X89971926Y-73891309D01*
X90073188Y-73790047D01*
X90097534Y-73753611D01*
X103045633Y-73753611D01*
X103066611Y-73755677D01*
X103087588Y-73753611D01*
X103087589Y-73753611D01*
X103150318Y-73747433D01*
X103230807Y-73723016D01*
X103304987Y-73683366D01*
X103370006Y-73630006D01*
X103423366Y-73564987D01*
X103431961Y-73548907D01*
X103985369Y-72995500D01*
X107887533Y-72995500D01*
X107908500Y-72997565D01*
X107929467Y-72995500D01*
X107929478Y-72995500D01*
X107992207Y-72989322D01*
X108072696Y-72964905D01*
X108146876Y-72925255D01*
X108211895Y-72871895D01*
X108225268Y-72855600D01*
X110395606Y-70685263D01*
X110411895Y-70671895D01*
X110425264Y-70655605D01*
X110425268Y-70655601D01*
X110465255Y-70606877D01*
X110487678Y-70564926D01*
X110504905Y-70532696D01*
X110529322Y-70452207D01*
X110535500Y-70389478D01*
X110535500Y-70389467D01*
X110537565Y-70368500D01*
X110535500Y-70347533D01*
X110535500Y-66865711D01*
X110865424Y-66535788D01*
X110908403Y-66544337D01*
X111051609Y-66544337D01*
X111192064Y-66516399D01*
X111324370Y-66461596D01*
X111443442Y-66382035D01*
X111544704Y-66280773D01*
X111624265Y-66161701D01*
X111679068Y-66029395D01*
X111707006Y-65888940D01*
X111707006Y-65745734D01*
X111679068Y-65605279D01*
X111624265Y-65472973D01*
X111544704Y-65353901D01*
X111443442Y-65252639D01*
X111324370Y-65173078D01*
X111192064Y-65118275D01*
X111051609Y-65090337D01*
X110908403Y-65090337D01*
X110767948Y-65118275D01*
X110635642Y-65173078D01*
X110516570Y-65252639D01*
X110415308Y-65353901D01*
X110335747Y-65472973D01*
X110280944Y-65605279D01*
X110253006Y-65745734D01*
X110253006Y-65888940D01*
X110261555Y-65931919D01*
X110035500Y-66157975D01*
X110035500Y-61157544D01*
X110071936Y-61133198D01*
X110173198Y-61031936D01*
X110252759Y-60912864D01*
X110307562Y-60780558D01*
X110335500Y-60640103D01*
X110335500Y-60496897D01*
X110307562Y-60356442D01*
X110252759Y-60224136D01*
X110173198Y-60105064D01*
X110071936Y-60003802D01*
X109952864Y-59924241D01*
X109820558Y-59869438D01*
X109680103Y-59841500D01*
X109536897Y-59841500D01*
X109396442Y-59869438D01*
X109264136Y-59924241D01*
X109145064Y-60003802D01*
X109043802Y-60105064D01*
X108964241Y-60224136D01*
X108909438Y-60356442D01*
X108881500Y-60496897D01*
X108881500Y-60640103D01*
X108909438Y-60780558D01*
X108964241Y-60912864D01*
X109043802Y-61031936D01*
X109145064Y-61133198D01*
X109181500Y-61157544D01*
X109181501Y-70091630D01*
X107631598Y-71641534D01*
X105833602Y-71641534D01*
X105852759Y-71612864D01*
X105907562Y-71480558D01*
X105935500Y-71340103D01*
X105935500Y-71196897D01*
X105907562Y-71056442D01*
X105852759Y-70924136D01*
X105833625Y-70895500D01*
X106919456Y-70895500D01*
X106943802Y-70931936D01*
X107045064Y-71033198D01*
X107164136Y-71112759D01*
X107296442Y-71167562D01*
X107436897Y-71195500D01*
X107580103Y-71195500D01*
X107720558Y-71167562D01*
X107852864Y-71112759D01*
X107971936Y-71033198D01*
X108073198Y-70931936D01*
X108152759Y-70812864D01*
X108207562Y-70680558D01*
X108235500Y-70540103D01*
X108235500Y-70396897D01*
X108207562Y-70256442D01*
X108152759Y-70124136D01*
X108073198Y-70005064D01*
X107971936Y-69903802D01*
X107852864Y-69824241D01*
X107720558Y-69769438D01*
X107580103Y-69741500D01*
X107436897Y-69741500D01*
X107296442Y-69769438D01*
X107164136Y-69824241D01*
X107045064Y-69903802D01*
X106943802Y-70005064D01*
X106919456Y-70041500D01*
X105682319Y-70041500D01*
X105707562Y-69980558D01*
X105735500Y-69840103D01*
X105735500Y-69696897D01*
X105707562Y-69556442D01*
X105652759Y-69424136D01*
X105573198Y-69305064D01*
X105471936Y-69203802D01*
X105352864Y-69124241D01*
X105220558Y-69069438D01*
X105080103Y-69041500D01*
X104936897Y-69041500D01*
X104893918Y-69050049D01*
X104725268Y-68881400D01*
X104711895Y-68865105D01*
X104646876Y-68811745D01*
X104572696Y-68772095D01*
X104492207Y-68747678D01*
X104429478Y-68741500D01*
X104429467Y-68741500D01*
X104408500Y-68739435D01*
X104387533Y-68741500D01*
X89597544Y-68741500D01*
X89573198Y-68705064D01*
X89471936Y-68603802D01*
X89352864Y-68524241D01*
X89220558Y-68469438D01*
X89080103Y-68441500D01*
X88936897Y-68441500D01*
X88796442Y-68469438D01*
X88664136Y-68524241D01*
X88545064Y-68603802D01*
X88443802Y-68705064D01*
X88364241Y-68824136D01*
X88325509Y-68917643D01*
X88189234Y-68781368D01*
X88175861Y-68765073D01*
X88110842Y-68711713D01*
X88036662Y-68672063D01*
X87956173Y-68647646D01*
X87893444Y-68641468D01*
X87893433Y-68641468D01*
X87872466Y-68639403D01*
X87851499Y-68641468D01*
X86139400Y-68641468D01*
X87685369Y-67095500D01*
X91487533Y-67095500D01*
X91508500Y-67097565D01*
X91529467Y-67095500D01*
X91529478Y-67095500D01*
X91592207Y-67089322D01*
X91672696Y-67064905D01*
X91746876Y-67025255D01*
X91811895Y-66971895D01*
X91825268Y-66955600D01*
X92795604Y-65985265D01*
X92811893Y-65971897D01*
X92825262Y-65955607D01*
X92825266Y-65955603D01*
X92861741Y-65911159D01*
X92864136Y-65912759D01*
X92996442Y-65967562D01*
X93136897Y-65995500D01*
X93280103Y-65995500D01*
X93420558Y-65967562D01*
X93552864Y-65912759D01*
X93671936Y-65833198D01*
X93773198Y-65731936D01*
X93852759Y-65612864D01*
X93907562Y-65480558D01*
X93935500Y-65340103D01*
X93935500Y-65196897D01*
X93926951Y-65153917D01*
X94485357Y-64595512D01*
X98032177Y-64595512D01*
X98067184Y-64624241D01*
X98068434Y-64625267D01*
X98142614Y-64664917D01*
X98223103Y-64689334D01*
X98285832Y-64695512D01*
X98285844Y-64695512D01*
X98306809Y-64697577D01*
X98327774Y-64695512D01*
X104565959Y-64695512D01*
X105226051Y-65355605D01*
X105239420Y-65371895D01*
X105255710Y-65385264D01*
X105255714Y-65385268D01*
X105304438Y-65425255D01*
X105334831Y-65441500D01*
X105378619Y-65464905D01*
X105459108Y-65489322D01*
X105519289Y-65495249D01*
X105543802Y-65531936D01*
X105645064Y-65633198D01*
X105764136Y-65712759D01*
X105896442Y-65767562D01*
X106036897Y-65795500D01*
X106180103Y-65795500D01*
X106320558Y-65767562D01*
X106452864Y-65712759D01*
X106571936Y-65633198D01*
X106673198Y-65531936D01*
X106752759Y-65412864D01*
X106807562Y-65280558D01*
X106835500Y-65140103D01*
X106835500Y-64996897D01*
X106807562Y-64856442D01*
X106752759Y-64724136D01*
X106673198Y-64605064D01*
X106611503Y-64543369D01*
X106621616Y-64533255D01*
X106701177Y-64414183D01*
X106755980Y-64281877D01*
X106783918Y-64141422D01*
X106783918Y-63998216D01*
X106775369Y-63955236D01*
X107395604Y-63335002D01*
X107411894Y-63321633D01*
X107425263Y-63305343D01*
X107425267Y-63305339D01*
X107465254Y-63256615D01*
X107504903Y-63182435D01*
X107504904Y-63182434D01*
X107529321Y-63101945D01*
X107535499Y-63039216D01*
X107535499Y-63039206D01*
X107537564Y-63018239D01*
X107535499Y-62997272D01*
X107535499Y-60189463D01*
X107537564Y-60168498D01*
X107535499Y-60147533D01*
X107535499Y-60147521D01*
X107529321Y-60084792D01*
X107504904Y-60004303D01*
X107465255Y-59930124D01*
X107465254Y-59930122D01*
X107425267Y-59881397D01*
X107425258Y-59881388D01*
X107411894Y-59865104D01*
X107395610Y-59851741D01*
X107326951Y-59783081D01*
X107335500Y-59740103D01*
X107335500Y-59596897D01*
X107307562Y-59456442D01*
X107252759Y-59324136D01*
X107173198Y-59205064D01*
X107071936Y-59103802D01*
X106952864Y-59024241D01*
X106820558Y-58969438D01*
X106680103Y-58941500D01*
X106536897Y-58941500D01*
X106396442Y-58969438D01*
X106264136Y-59024241D01*
X106145064Y-59103802D01*
X106043802Y-59205064D01*
X105964241Y-59324136D01*
X105909438Y-59456442D01*
X105881500Y-59596897D01*
X105881500Y-59740103D01*
X105909438Y-59880558D01*
X105964241Y-60012864D01*
X106043802Y-60131936D01*
X106145064Y-60233198D01*
X106264136Y-60312759D01*
X106396442Y-60367562D01*
X106536897Y-60395500D01*
X106680103Y-60395500D01*
X106681499Y-60395222D01*
X106681500Y-62789836D01*
X106654286Y-62724136D01*
X106574725Y-62605064D01*
X106473463Y-62503802D01*
X106354391Y-62424241D01*
X106222085Y-62369438D01*
X106081630Y-62341500D01*
X105938424Y-62341500D01*
X105895445Y-62350049D01*
X105214272Y-61668877D01*
X105200899Y-61652582D01*
X105135880Y-61599222D01*
X105061700Y-61559572D01*
X104981211Y-61535155D01*
X104918482Y-61528977D01*
X104918471Y-61528977D01*
X104897504Y-61526912D01*
X104876537Y-61528977D01*
X98198987Y-61528977D01*
X98178020Y-61526912D01*
X98157053Y-61528977D01*
X98157042Y-61528977D01*
X98094313Y-61535155D01*
X98032557Y-61553889D01*
X98013823Y-61559572D01*
X97939643Y-61599221D01*
X97890919Y-61639209D01*
X97890915Y-61639213D01*
X97874625Y-61652582D01*
X97861256Y-61668872D01*
X97588641Y-61941488D01*
X93563770Y-61941488D01*
X93542803Y-61939423D01*
X93521836Y-61941488D01*
X93521826Y-61941488D01*
X93459097Y-61947666D01*
X93378608Y-61972083D01*
X93344077Y-61990540D01*
X93304427Y-62011733D01*
X93255702Y-62051720D01*
X93255693Y-62051729D01*
X93239409Y-62065093D01*
X93226045Y-62081377D01*
X91121377Y-64186047D01*
X91105082Y-64199420D01*
X91091710Y-64215714D01*
X91091709Y-64215715D01*
X91051722Y-64264439D01*
X91034504Y-64296653D01*
X91012072Y-64338620D01*
X90987655Y-64419109D01*
X90981728Y-64479289D01*
X90945041Y-64503802D01*
X90843779Y-64605064D01*
X90819433Y-64641500D01*
X90129467Y-64641500D01*
X90108500Y-64639435D01*
X90087533Y-64641500D01*
X90087522Y-64641500D01*
X90024793Y-64647678D01*
X89944304Y-64672095D01*
X89912056Y-64689332D01*
X89870123Y-64711745D01*
X89821399Y-64751732D01*
X89821395Y-64751736D01*
X89805105Y-64765105D01*
X89791736Y-64781395D01*
X88831632Y-65741500D01*
X80985369Y-65741500D01*
X79775258Y-64531390D01*
X79761885Y-64515095D01*
X79696866Y-64461735D01*
X79622686Y-64422085D01*
X79542197Y-64397668D01*
X79479468Y-64391490D01*
X79479457Y-64391490D01*
X79458490Y-64389425D01*
X79437523Y-64391490D01*
X77879456Y-64391490D01*
X77858489Y-64389425D01*
X77837522Y-64391490D01*
X77837512Y-64391490D01*
X77774783Y-64397668D01*
X77694294Y-64422085D01*
X77685896Y-64426574D01*
X77620113Y-64461735D01*
X77571389Y-64501722D01*
X77571385Y-64501726D01*
X77555095Y-64515095D01*
X77541726Y-64531385D01*
X77138100Y-64935011D01*
X77114103Y-64927732D01*
X77050000Y-64921418D01*
X76927000Y-64921418D01*
X76927000Y-63168500D01*
X79277983Y-63168500D01*
X79281500Y-63204208D01*
X79281500Y-63240103D01*
X79288503Y-63275310D01*
X79292020Y-63311017D01*
X79302435Y-63345351D01*
X79309438Y-63380558D01*
X79323174Y-63413720D01*
X79333590Y-63448057D01*
X79350505Y-63479703D01*
X79364241Y-63512864D01*
X79384183Y-63542710D01*
X79401097Y-63574353D01*
X79423858Y-63602088D01*
X79443802Y-63631936D01*
X79469183Y-63657317D01*
X79491946Y-63685054D01*
X79519681Y-63707815D01*
X79545064Y-63733198D01*
X79574912Y-63753142D01*
X79602647Y-63775903D01*
X79634290Y-63792817D01*
X79664136Y-63812759D01*
X79697297Y-63826495D01*
X79728943Y-63843410D01*
X79763280Y-63853826D01*
X79796442Y-63867562D01*
X79831649Y-63874565D01*
X79865983Y-63884980D01*
X79901690Y-63888497D01*
X79936897Y-63895500D01*
X88672792Y-63895500D01*
X88708500Y-63899017D01*
X88851017Y-63884980D01*
X88893454Y-63872107D01*
X88988057Y-63843410D01*
X89114353Y-63775903D01*
X89225054Y-63685054D01*
X89247817Y-63657317D01*
X89299698Y-63605436D01*
X89319648Y-63575578D01*
X89342402Y-63547852D01*
X89359310Y-63516220D01*
X89379259Y-63486364D01*
X89392997Y-63453197D01*
X89409910Y-63421556D01*
X89420325Y-63387222D01*
X89434062Y-63354058D01*
X89441065Y-63318850D01*
X89451480Y-63284517D01*
X89454997Y-63248810D01*
X89462000Y-63213603D01*
X89462000Y-63177708D01*
X89465517Y-63142000D01*
X89462000Y-63106292D01*
X89462000Y-63070397D01*
X89454997Y-63035190D01*
X89451480Y-62999483D01*
X89441065Y-62965149D01*
X89434062Y-62929942D01*
X89420326Y-62896780D01*
X89409910Y-62862443D01*
X89392996Y-62830799D01*
X89379259Y-62797636D01*
X89359313Y-62767784D01*
X89342402Y-62736147D01*
X89319647Y-62708420D01*
X89299698Y-62678564D01*
X89274308Y-62653174D01*
X89251553Y-62625447D01*
X89223826Y-62602692D01*
X89198436Y-62577302D01*
X89168580Y-62557353D01*
X89140853Y-62534598D01*
X89109216Y-62517687D01*
X89079364Y-62497741D01*
X89046201Y-62484004D01*
X89014557Y-62467090D01*
X88980220Y-62456674D01*
X88947058Y-62442938D01*
X88911851Y-62435935D01*
X88877517Y-62425520D01*
X88841810Y-62422003D01*
X88806603Y-62415000D01*
X88770708Y-62415000D01*
X88735000Y-62411483D01*
X88699292Y-62415000D01*
X88663397Y-62415000D01*
X88628190Y-62422003D01*
X88592483Y-62425520D01*
X88558150Y-62435935D01*
X88530171Y-62441500D01*
X79936897Y-62441500D01*
X79901690Y-62448503D01*
X79865983Y-62452020D01*
X79831649Y-62462435D01*
X79796442Y-62469438D01*
X79763280Y-62483174D01*
X79728943Y-62493590D01*
X79697297Y-62510505D01*
X79664136Y-62524241D01*
X79634290Y-62544183D01*
X79602647Y-62561097D01*
X79574912Y-62583858D01*
X79545064Y-62603802D01*
X79519683Y-62629183D01*
X79491946Y-62651946D01*
X79469183Y-62679683D01*
X79443802Y-62705064D01*
X79423858Y-62734912D01*
X79401097Y-62762647D01*
X79384183Y-62794290D01*
X79364241Y-62824136D01*
X79350505Y-62857297D01*
X79333590Y-62888943D01*
X79323174Y-62923280D01*
X79309438Y-62956442D01*
X79302435Y-62991649D01*
X79292020Y-63025983D01*
X79288503Y-63061690D01*
X79281500Y-63096897D01*
X79281500Y-63132792D01*
X79277983Y-63168500D01*
X76927000Y-63168500D01*
X76927000Y-62178132D01*
X78209634Y-60895500D01*
X90672792Y-60895500D01*
X90708500Y-60899017D01*
X90851017Y-60884980D01*
X90988057Y-60843410D01*
X91114353Y-60775903D01*
X91225054Y-60685054D01*
X91247826Y-60657306D01*
X96168314Y-55736819D01*
X96155741Y-55755636D01*
X96100938Y-55887942D01*
X96073000Y-56028397D01*
X96073000Y-56171603D01*
X96100938Y-56312058D01*
X96155741Y-56444364D01*
X96235302Y-56563436D01*
X96284005Y-56612139D01*
X96273344Y-56624985D01*
X96261603Y-56638741D01*
X96259903Y-56641182D01*
X96244555Y-56659676D01*
X96235935Y-56675593D01*
X96225577Y-56690464D01*
X96215942Y-56712509D01*
X96204500Y-56733638D01*
X96199150Y-56750934D01*
X96191894Y-56767536D01*
X96186749Y-56791022D01*
X96179643Y-56813993D01*
X96177769Y-56832014D01*
X96173894Y-56849700D01*
X96173429Y-56873732D01*
X96173122Y-56876687D01*
X96173023Y-56894733D01*
X96172268Y-56933794D01*
X96172793Y-56936731D01*
X96162293Y-58855956D01*
X96122628Y-58882459D01*
X96021366Y-58983721D01*
X95941805Y-59102793D01*
X95887002Y-59235099D01*
X95859064Y-59375554D01*
X95859064Y-59518760D01*
X95887002Y-59659215D01*
X95941805Y-59791521D01*
X96021366Y-59910593D01*
X96122628Y-60011855D01*
X96241700Y-60091416D01*
X96374006Y-60146219D01*
X96514461Y-60174157D01*
X96657667Y-60174157D01*
X96798122Y-60146219D01*
X96930428Y-60091416D01*
X97049500Y-60011855D01*
X97150762Y-59910593D01*
X97230323Y-59791521D01*
X97285126Y-59659215D01*
X97313064Y-59518760D01*
X97313064Y-59375554D01*
X97285126Y-59235099D01*
X97230323Y-59102793D01*
X97150762Y-58983721D01*
X97049500Y-58882459D01*
X97016281Y-58860263D01*
X97026139Y-57058462D01*
X97100178Y-56971720D01*
X97103395Y-56969080D01*
X97127448Y-56939772D01*
X97138397Y-56926944D01*
X97140762Y-56923548D01*
X97156755Y-56904061D01*
X97164739Y-56889125D01*
X97174422Y-56875222D01*
X97184520Y-56852117D01*
X97196405Y-56829881D01*
X97201324Y-56813666D01*
X97208105Y-56798150D01*
X97213497Y-56773537D01*
X97220822Y-56749392D01*
X97222484Y-56732521D01*
X97226106Y-56715987D01*
X97226593Y-56690795D01*
X97226749Y-56689211D01*
X97263436Y-56664698D01*
X97364698Y-56563436D01*
X97444259Y-56444364D01*
X97499062Y-56312058D01*
X97527000Y-56171603D01*
X97527000Y-56028397D01*
X97499062Y-55887942D01*
X97444259Y-55755636D01*
X97364698Y-55636564D01*
X97263436Y-55535302D01*
X97144364Y-55455741D01*
X97012058Y-55400938D01*
X96871603Y-55373000D01*
X96728397Y-55373000D01*
X96587942Y-55400938D01*
X96455636Y-55455741D01*
X96436820Y-55468314D01*
X98064315Y-53840819D01*
X107181500Y-53840819D01*
X107181500Y-54496181D01*
X107309355Y-55138950D01*
X107560151Y-55744425D01*
X107924250Y-56289339D01*
X108387661Y-56752750D01*
X108932575Y-57116849D01*
X109538050Y-57367645D01*
X110180819Y-57495500D01*
X110836181Y-57495500D01*
X111478950Y-57367645D01*
X112084425Y-57116849D01*
X112629339Y-56752750D01*
X113092750Y-56289339D01*
X113456849Y-55744425D01*
X113707645Y-55138950D01*
X113835500Y-54496181D01*
X113835500Y-53840819D01*
X113707645Y-53198050D01*
X113456849Y-52592575D01*
X113092750Y-52047661D01*
X112629339Y-51584250D01*
X112084425Y-51220151D01*
X111478950Y-50969355D01*
X110836181Y-50841500D01*
X110180819Y-50841500D01*
X109538050Y-50969355D01*
X108932575Y-51220151D01*
X108387661Y-51584250D01*
X107924250Y-52047661D01*
X107560151Y-52592575D01*
X107309355Y-53198050D01*
X107181500Y-53840819D01*
X98064315Y-53840819D01*
X99109634Y-52795500D01*
X99380103Y-52795500D01*
X99415310Y-52788497D01*
X99451017Y-52784980D01*
X99485351Y-52774565D01*
X99520558Y-52767562D01*
X99553720Y-52753826D01*
X99588057Y-52743410D01*
X99619703Y-52726495D01*
X99652864Y-52712759D01*
X99682710Y-52692817D01*
X99714353Y-52675903D01*
X99742088Y-52653142D01*
X99771936Y-52633198D01*
X99797317Y-52607817D01*
X99825054Y-52585054D01*
X99847817Y-52557317D01*
X99873198Y-52531936D01*
X99893142Y-52502088D01*
X99915903Y-52474353D01*
X99932817Y-52442710D01*
X99952759Y-52412864D01*
X99966495Y-52379703D01*
X99983410Y-52348057D01*
X99993826Y-52313720D01*
X100007562Y-52280558D01*
X100014565Y-52245351D01*
X100024980Y-52211017D01*
X100028497Y-52175310D01*
X100035500Y-52140103D01*
X100035500Y-52104208D01*
X100039017Y-52068500D01*
X100035500Y-52032792D01*
X100035500Y-51996897D01*
X100028497Y-51961690D01*
X100024980Y-51925983D01*
X100014565Y-51891649D01*
X100007562Y-51856442D01*
X99993826Y-51823280D01*
X99983410Y-51788943D01*
X99966495Y-51757297D01*
X99952759Y-51724136D01*
X99932817Y-51694290D01*
X99915903Y-51662647D01*
X99893142Y-51634912D01*
X99873198Y-51605064D01*
X99847817Y-51579683D01*
X99825054Y-51551946D01*
X99797317Y-51529183D01*
X99771936Y-51503802D01*
X99742088Y-51483858D01*
X99714353Y-51461097D01*
X99682710Y-51444183D01*
X99652864Y-51424241D01*
X99619703Y-51410505D01*
X99588057Y-51393590D01*
X99553720Y-51383174D01*
X99520558Y-51369438D01*
X99485351Y-51362435D01*
X99451017Y-51352020D01*
X99415310Y-51348503D01*
X99380103Y-51341500D01*
X98844208Y-51341500D01*
X98808500Y-51337983D01*
X98665982Y-51352020D01*
X98528943Y-51393590D01*
X98402647Y-51461097D01*
X98291946Y-51551946D01*
X98269183Y-51579683D01*
X90407368Y-59441500D01*
X77944208Y-59441500D01*
X77908500Y-59437983D01*
X77765982Y-59452020D01*
X77670856Y-59480876D01*
X77628943Y-59493590D01*
X77502647Y-59561097D01*
X77391946Y-59651946D01*
X77369183Y-59679683D01*
X75711189Y-61337679D01*
X75683447Y-61360446D01*
X75627682Y-61428397D01*
X75592598Y-61471147D01*
X75525090Y-61597444D01*
X75483520Y-61734483D01*
X75469483Y-61877000D01*
X75473001Y-61912718D01*
X75473000Y-64921418D01*
X75350000Y-64921418D01*
X75285897Y-64927732D01*
X75224257Y-64946430D01*
X75167450Y-64976794D01*
X75117657Y-65017657D01*
X75076794Y-65067450D01*
X75046430Y-65124257D01*
X75027732Y-65185897D01*
X75021418Y-65250000D01*
X75021418Y-65373000D01*
X74612708Y-65373000D01*
X74577000Y-65369483D01*
X74434482Y-65383520D01*
X74337747Y-65412864D01*
X74297443Y-65425090D01*
X74171147Y-65492597D01*
X74060446Y-65583446D01*
X74037679Y-65611188D01*
X72807368Y-66841500D01*
X69944208Y-66841500D01*
X69908500Y-66837983D01*
X69765982Y-66852020D01*
X69630077Y-66893246D01*
X69628943Y-66893590D01*
X69502647Y-66961097D01*
X69391946Y-67051946D01*
X69369183Y-67079683D01*
X68817692Y-67631176D01*
X68789951Y-67653942D01*
X68709939Y-67751438D01*
X68699102Y-67764643D01*
X68631594Y-67890940D01*
X68590024Y-68027979D01*
X68575987Y-68170496D01*
X68579505Y-68206214D01*
X68579505Y-68378893D01*
X68579504Y-68378897D01*
X68579504Y-68522103D01*
X68579505Y-68522107D01*
X68579504Y-69165371D01*
X68419689Y-69325187D01*
X68391947Y-69347954D01*
X68303605Y-69455600D01*
X68301098Y-69458655D01*
X68233590Y-69584952D01*
X68192020Y-69721991D01*
X68177983Y-69864508D01*
X68181501Y-69900226D01*
X68181500Y-76041500D01*
X65001520Y-76041500D01*
X64965814Y-76037983D01*
X64930109Y-76041500D01*
X64930107Y-76041500D01*
X64823298Y-76052020D01*
X64686258Y-76093590D01*
X64559962Y-76161097D01*
X64449261Y-76251946D01*
X64426489Y-76279694D01*
X64261189Y-76444994D01*
X64233447Y-76467761D01*
X64142598Y-76578462D01*
X64075090Y-76704758D01*
X64055754Y-76768501D01*
X64033520Y-76841798D01*
X64019483Y-76984315D01*
X52127000Y-76984315D01*
X52127000Y-47127000D01*
X56203446Y-47127000D01*
X53510448Y-49819999D01*
G37*
X53510448Y-49819999D02*
X53478895Y-49845894D01*
X53453000Y-49877447D01*
X53452998Y-49877449D01*
X53375548Y-49971821D01*
X53298756Y-50115490D01*
X53251467Y-50271380D01*
X53235500Y-50433500D01*
X53239501Y-50474124D01*
X53239500Y-61540623D01*
X53251466Y-61662119D01*
X53298755Y-61818009D01*
X53375548Y-61961678D01*
X53478894Y-62087606D01*
X53604821Y-62190952D01*
X53748490Y-62267745D01*
X53904380Y-62315034D01*
X54066500Y-62331001D01*
X54228619Y-62315034D01*
X54384509Y-62267745D01*
X54528178Y-62190952D01*
X54654106Y-62087606D01*
X54757452Y-61961679D01*
X54834245Y-61818010D01*
X54881534Y-61662120D01*
X54893500Y-61540624D01*
X54893500Y-59773819D01*
X54954442Y-59799062D01*
X55094897Y-59827000D01*
X55238103Y-59827000D01*
X55378558Y-59799062D01*
X55510864Y-59744259D01*
X55629936Y-59664698D01*
X55731198Y-59563436D01*
X55773000Y-59500875D01*
X55773000Y-59571603D01*
X55800938Y-59712058D01*
X55855741Y-59844364D01*
X55935302Y-59963436D01*
X56036564Y-60064698D01*
X56155636Y-60144259D01*
X56287942Y-60199062D01*
X56428397Y-60227000D01*
X56571603Y-60227000D01*
X56712058Y-60199062D01*
X56844364Y-60144259D01*
X56963436Y-60064698D01*
X57064698Y-59963436D01*
X57144259Y-59844364D01*
X57199062Y-59712058D01*
X57227000Y-59571603D01*
X57227000Y-59428397D01*
X57199062Y-59287942D01*
X57145423Y-59158446D01*
X57176869Y-59127000D01*
X58548582Y-59127000D01*
X58467084Y-59143211D01*
X58134591Y-59280934D01*
X57835355Y-59480876D01*
X57580876Y-59735355D01*
X57380934Y-60034591D01*
X57243211Y-60367084D01*
X57173000Y-60720056D01*
X57173000Y-61079944D01*
X57243211Y-61432916D01*
X57380934Y-61765409D01*
X57580876Y-62064645D01*
X57835355Y-62319124D01*
X58134591Y-62519066D01*
X58273000Y-62576397D01*
X58273001Y-72423603D01*
X58134591Y-72480934D01*
X57835355Y-72680876D01*
X57580876Y-72935355D01*
X57380934Y-73234591D01*
X57243211Y-73567084D01*
X57173000Y-73920056D01*
X57173000Y-74279944D01*
X57243211Y-74632916D01*
X57380934Y-74965409D01*
X57580876Y-75264645D01*
X57835355Y-75519124D01*
X58134591Y-75719066D01*
X58467084Y-75856789D01*
X58820056Y-75927000D01*
X59179944Y-75927000D01*
X59532916Y-75856789D01*
X59865409Y-75719066D01*
X60164645Y-75519124D01*
X60419124Y-75264645D01*
X60619066Y-74965409D01*
X60756789Y-74632916D01*
X60827000Y-74279944D01*
X60827000Y-73920056D01*
X60756789Y-73567084D01*
X60619066Y-73234591D01*
X60615715Y-73229575D01*
X61106087Y-72739203D01*
X66046257Y-72739203D01*
X66063176Y-72824260D01*
X66117979Y-72956566D01*
X66197540Y-73075638D01*
X66298802Y-73176900D01*
X66417874Y-73256461D01*
X66550180Y-73311264D01*
X66690635Y-73339202D01*
X66833841Y-73339202D01*
X66974296Y-73311264D01*
X67106602Y-73256461D01*
X67225674Y-73176900D01*
X67326936Y-73075638D01*
X67406497Y-72956566D01*
X67461300Y-72824260D01*
X67489238Y-72683805D01*
X67489238Y-72540599D01*
X67461300Y-72400144D01*
X67406497Y-72267838D01*
X67326936Y-72148766D01*
X67225674Y-72047504D01*
X67106602Y-71967943D01*
X66974296Y-71913140D01*
X66833841Y-71885202D01*
X66780527Y-71885202D01*
X66753194Y-71857869D01*
X66736687Y-71837755D01*
X66656441Y-71771899D01*
X66564889Y-71722964D01*
X66465549Y-71692829D01*
X66388120Y-71685203D01*
X66362239Y-71682654D01*
X66336358Y-71685203D01*
X60913677Y-71685203D01*
X60887796Y-71682654D01*
X60797351Y-71691562D01*
X60784487Y-71692829D01*
X60685147Y-71722964D01*
X60593595Y-71771899D01*
X60513349Y-71837755D01*
X60496846Y-71857864D01*
X59870425Y-72484285D01*
X59865409Y-72480934D01*
X59727000Y-72423603D01*
X59727000Y-65910516D01*
X71685973Y-65910516D01*
X71689490Y-65946224D01*
X71689490Y-65982119D01*
X71696493Y-66017326D01*
X71700010Y-66053033D01*
X71710425Y-66087366D01*
X71717428Y-66122574D01*
X71731165Y-66155738D01*
X71741580Y-66190072D01*
X71758493Y-66221714D01*
X71772231Y-66254880D01*
X71792178Y-66284733D01*
X71809088Y-66316369D01*
X71831843Y-66344096D01*
X71851792Y-66373952D01*
X71877182Y-66399342D01*
X71899937Y-66427069D01*
X71927664Y-66449824D01*
X71953054Y-66475214D01*
X71982910Y-66495163D01*
X72010637Y-66517918D01*
X72042273Y-66534828D01*
X72072126Y-66554775D01*
X72105292Y-66568513D01*
X72136934Y-66585426D01*
X72171268Y-66595841D01*
X72204432Y-66609578D01*
X72239640Y-66616581D01*
X72273973Y-66626996D01*
X72309680Y-66630513D01*
X72344887Y-66637516D01*
X72380782Y-66637516D01*
X72416490Y-66641033D01*
X72452198Y-66637516D01*
X72488093Y-66637516D01*
X72523300Y-66630513D01*
X72559007Y-66626996D01*
X72593340Y-66616581D01*
X72628548Y-66609578D01*
X72661712Y-66595841D01*
X72696046Y-66585426D01*
X72727688Y-66568513D01*
X72760854Y-66554775D01*
X72790707Y-66534828D01*
X72822343Y-66517918D01*
X72850069Y-66495163D01*
X72879926Y-66475214D01*
X72981188Y-66373952D01*
X72981192Y-66373946D01*
X74113312Y-65241827D01*
X74141054Y-65219060D01*
X74231903Y-65108359D01*
X74299410Y-64982063D01*
X74340980Y-64845023D01*
X74342448Y-64830124D01*
X74355017Y-64702507D01*
X74351500Y-64666799D01*
X74351500Y-64060897D01*
X74344497Y-64025690D01*
X74340980Y-63989983D01*
X74330565Y-63955649D01*
X74323562Y-63920442D01*
X74309826Y-63887280D01*
X74299410Y-63852943D01*
X74282495Y-63821297D01*
X74268759Y-63788136D01*
X74248817Y-63758290D01*
X74231903Y-63726647D01*
X74209143Y-63698914D01*
X74189198Y-63669064D01*
X74163812Y-63643678D01*
X74141053Y-63615946D01*
X74113322Y-63593188D01*
X74087936Y-63567802D01*
X74058079Y-63547852D01*
X74030352Y-63525097D01*
X73998714Y-63508186D01*
X73968864Y-63488241D01*
X73935699Y-63474503D01*
X73904056Y-63457590D01*
X73869723Y-63447175D01*
X73836558Y-63433438D01*
X73801348Y-63426434D01*
X73767016Y-63416020D01*
X73731311Y-63412503D01*
X73696103Y-63405500D01*
X73660208Y-63405500D01*
X73624500Y-63401983D01*
X73588792Y-63405500D01*
X73552897Y-63405500D01*
X73517690Y-63412503D01*
X73481983Y-63416020D01*
X73447649Y-63426435D01*
X73412442Y-63433438D01*
X73379280Y-63447174D01*
X73344943Y-63457590D01*
X73313297Y-63474505D01*
X73280136Y-63488241D01*
X73250290Y-63508183D01*
X73218647Y-63525097D01*
X73190914Y-63547857D01*
X73161064Y-63567802D01*
X73135678Y-63593188D01*
X73107946Y-63615947D01*
X73085188Y-63643678D01*
X73059802Y-63669064D01*
X73039855Y-63698917D01*
X73017097Y-63726648D01*
X73000186Y-63758286D01*
X72980241Y-63788136D01*
X72966503Y-63821301D01*
X72949590Y-63852944D01*
X72939175Y-63887277D01*
X72925438Y-63920442D01*
X72918434Y-63955652D01*
X72908020Y-63989984D01*
X72904503Y-64025689D01*
X72897500Y-64060897D01*
X72897500Y-64401373D01*
X71953060Y-65345814D01*
X71953054Y-65345818D01*
X71851792Y-65447080D01*
X71831843Y-65476937D01*
X71809088Y-65504663D01*
X71792178Y-65536299D01*
X71772231Y-65566152D01*
X71758493Y-65599318D01*
X71741580Y-65630960D01*
X71731165Y-65665294D01*
X71717428Y-65698458D01*
X71710425Y-65733666D01*
X71700010Y-65767999D01*
X71696493Y-65803706D01*
X71689490Y-65838913D01*
X71689490Y-65874808D01*
X71685973Y-65910516D01*
X59727000Y-65910516D01*
X59727000Y-62576397D01*
X59865409Y-62519066D01*
X60164645Y-62319124D01*
X60419124Y-62064645D01*
X60619066Y-61765409D01*
X60756789Y-61432916D01*
X60827000Y-61079944D01*
X60827000Y-60720056D01*
X60756789Y-60367084D01*
X60619066Y-60034591D01*
X60419124Y-59735355D01*
X60164645Y-59480876D01*
X59865409Y-59280934D01*
X59532916Y-59143211D01*
X59451418Y-59127000D01*
X61810956Y-59127000D01*
X61835302Y-59163436D01*
X61936564Y-59264698D01*
X62055636Y-59344259D01*
X62187942Y-59399062D01*
X62328397Y-59427000D01*
X62471603Y-59427000D01*
X62612058Y-59399062D01*
X62744364Y-59344259D01*
X62863436Y-59264698D01*
X62964698Y-59163436D01*
X63044259Y-59044364D01*
X63082991Y-58950857D01*
X63108624Y-58976491D01*
X63055741Y-59055636D01*
X63000938Y-59187942D01*
X62973000Y-59328397D01*
X62973000Y-59471603D01*
X63000938Y-59612058D01*
X63055741Y-59744364D01*
X63135302Y-59863436D01*
X63236564Y-59964698D01*
X63355636Y-60044259D01*
X63487942Y-60099062D01*
X63628397Y-60127000D01*
X63771603Y-60127000D01*
X63912058Y-60099062D01*
X64044364Y-60044259D01*
X64163436Y-59964698D01*
X64264698Y-59863436D01*
X64344259Y-59744364D01*
X64399062Y-59612058D01*
X64427000Y-59471603D01*
X64427000Y-59328397D01*
X64399062Y-59187942D01*
X64344259Y-59055636D01*
X64264698Y-58936564D01*
X64163436Y-58835302D01*
X64088682Y-58785353D01*
X64056756Y-58725623D01*
X64056755Y-58725621D01*
X64016767Y-58676896D01*
X64016764Y-58676893D01*
X64003395Y-58660603D01*
X63987106Y-58647235D01*
X63052769Y-57712899D01*
X63039396Y-57696604D01*
X62974377Y-57643244D01*
X62900197Y-57603594D01*
X62819708Y-57579177D01*
X62756979Y-57572999D01*
X62756968Y-57572999D01*
X62736001Y-57570934D01*
X62715034Y-57572999D01*
X59420967Y-57572999D01*
X59400000Y-57570934D01*
X59379033Y-57572999D01*
X59379023Y-57572999D01*
X59316294Y-57579177D01*
X59235805Y-57603594D01*
X59161625Y-57643244D01*
X59096606Y-57696604D01*
X59083233Y-57712899D01*
X59023132Y-57773000D01*
X56087466Y-57773000D01*
X56066499Y-57770935D01*
X56045532Y-57773000D01*
X56045522Y-57773000D01*
X55982793Y-57779178D01*
X55902304Y-57803595D01*
X55867773Y-57822052D01*
X55828123Y-57843245D01*
X55779398Y-57883232D01*
X55779389Y-57883241D01*
X55763105Y-57896605D01*
X55749741Y-57912889D01*
X55281082Y-58381549D01*
X55238103Y-58373000D01*
X55094897Y-58373000D01*
X54954442Y-58400938D01*
X54893500Y-58426181D01*
X54893500Y-50776053D01*
X56594656Y-49074897D01*
X96773500Y-49074897D01*
X96773500Y-49218103D01*
X96801438Y-49358558D01*
X96856241Y-49490864D01*
X96935802Y-49609936D01*
X97037064Y-49711198D01*
X97156136Y-49790759D01*
X97288442Y-49845562D01*
X97428897Y-49873500D01*
X97572103Y-49873500D01*
X97712558Y-49845562D01*
X97844864Y-49790759D01*
X97963936Y-49711198D01*
X98001634Y-49673500D01*
X101825366Y-49673500D01*
X101863064Y-49711198D01*
X101982136Y-49790759D01*
X102114442Y-49845562D01*
X102254897Y-49873500D01*
X102398103Y-49873500D01*
X102538558Y-49845562D01*
X102670864Y-49790759D01*
X102789936Y-49711198D01*
X102891198Y-49609936D01*
X102970759Y-49490864D01*
X103025562Y-49358558D01*
X103053500Y-49218103D01*
X103053500Y-49074897D01*
X103025562Y-48934442D01*
X102970759Y-48802136D01*
X102891198Y-48683064D01*
X102789936Y-48581802D01*
X102670864Y-48502241D01*
X102538558Y-48447438D01*
X102398103Y-48419500D01*
X102254897Y-48419500D01*
X102114442Y-48447438D01*
X101982136Y-48502241D01*
X101863064Y-48581802D01*
X101825366Y-48619500D01*
X98001634Y-48619500D01*
X97963936Y-48581802D01*
X97844864Y-48502241D01*
X97712558Y-48447438D01*
X97572103Y-48419500D01*
X97428897Y-48419500D01*
X97288442Y-48447438D01*
X97156136Y-48502241D01*
X97037064Y-48581802D01*
X96935802Y-48683064D01*
X96856241Y-48802136D01*
X96801438Y-48934442D01*
X96773500Y-49074897D01*
X56594656Y-49074897D01*
X57481154Y-48188400D01*
X57530620Y-48183528D01*
X57686510Y-48136239D01*
X57830179Y-48059446D01*
X57956106Y-47956100D01*
X58059452Y-47830173D01*
X58136245Y-47686504D01*
X58183534Y-47530614D01*
X58199501Y-47368494D01*
X58183534Y-47206374D01*
X58159456Y-47127000D01*
X118663501Y-47127000D01*
X118663501Y-59873000D01*
X113000000Y-59873000D01*
X112975224Y-59875440D01*
X112951399Y-59882667D01*
X112929443Y-59894403D01*
X112910197Y-59910197D01*
X112894403Y-59929443D01*
X112882667Y-59951399D01*
X112875440Y-59975224D01*
X112873000Y-60000000D01*
X112873000Y-91800000D01*
X112875440Y-91824776D01*
X112882667Y-91848601D01*
X112894403Y-91870557D01*
X112910197Y-91889803D01*
X112929443Y-91905597D01*
X112951399Y-91917333D01*
X112975224Y-91924560D01*
X113000000Y-91927000D01*
X118663500Y-91927000D01*
X118663500Y-110873000D01*
X114127000Y-110873000D01*
X114127000Y-104000000D01*
X114124560Y-103975224D01*
X114117333Y-103951399D01*
X114105597Y-103929443D01*
X114089803Y-103910197D01*
X114070557Y-103894403D01*
X114048601Y-103882667D01*
X114024776Y-103875440D01*
X114000000Y-103873000D01*
X73000000Y-103873000D01*
X72975224Y-103875440D01*
X72951399Y-103882667D01*
X72929443Y-103894403D01*
X72910197Y-103910197D01*
X72894403Y-103929443D01*
X72882667Y-103951399D01*
X72875440Y-103975224D01*
X72873000Y-104000000D01*
X72873000Y-108932032D01*
X69961548Y-110873000D01*
X52127000Y-110873000D01*
X52127000Y-103740819D01*
X56781500Y-103740819D01*
X56781500Y-104396181D01*
X56909355Y-105038950D01*
X57160151Y-105644425D01*
X57524250Y-106189339D01*
X57987661Y-106652750D01*
X58532575Y-107016849D01*
X59138050Y-107267645D01*
X59780819Y-107395500D01*
X60436181Y-107395500D01*
X61078950Y-107267645D01*
X61684425Y-107016849D01*
X62229339Y-106652750D01*
X62692750Y-106189339D01*
X63056849Y-105644425D01*
X63307645Y-105038950D01*
X63435500Y-104396181D01*
X63435500Y-103740819D01*
X63307645Y-103098050D01*
X63056849Y-102492575D01*
X62692750Y-101947661D01*
X62229339Y-101484250D01*
X61684425Y-101120151D01*
X61078950Y-100869355D01*
X60436181Y-100741500D01*
X59780819Y-100741500D01*
X59138050Y-100869355D01*
X58532575Y-101120151D01*
X57987661Y-101484250D01*
X57524250Y-101947661D01*
X57160151Y-102492575D01*
X56909355Y-103098050D01*
X56781500Y-103740819D01*
X52127000Y-103740819D01*
X52127000Y-95950000D01*
X53621418Y-95950000D01*
X53621418Y-97550000D01*
X53627732Y-97614103D01*
X53646430Y-97675743D01*
X53676794Y-97732550D01*
X53717657Y-97782343D01*
X53767450Y-97823206D01*
X53824257Y-97853570D01*
X53885897Y-97872268D01*
X53950000Y-97878582D01*
X55550000Y-97878582D01*
X55614103Y-97872268D01*
X55675743Y-97853570D01*
X55732550Y-97823206D01*
X55782343Y-97782343D01*
X55814874Y-97742702D01*
X57436903Y-97742702D01*
X57508486Y-97986671D01*
X57763996Y-98107571D01*
X58038184Y-98176300D01*
X58320512Y-98190217D01*
X58600130Y-98148787D01*
X58866292Y-98053603D01*
X58991514Y-97986671D01*
X59063097Y-97742702D01*
X58250000Y-96929605D01*
X57436903Y-97742702D01*
X55814874Y-97742702D01*
X55823206Y-97732550D01*
X55853570Y-97675743D01*
X55872268Y-97614103D01*
X55878582Y-97550000D01*
X55878582Y-96820512D01*
X56809783Y-96820512D01*
X56851213Y-97100130D01*
X56946397Y-97366292D01*
X57013329Y-97491514D01*
X57257298Y-97563097D01*
X58070395Y-96750000D01*
X58429605Y-96750000D01*
X59242702Y-97563097D01*
X59486671Y-97491514D01*
X59607571Y-97236004D01*
X59676300Y-96961816D01*
X59690217Y-96679488D01*
X59648787Y-96399870D01*
X59553603Y-96133708D01*
X59486671Y-96008486D01*
X59242702Y-95936903D01*
X58429605Y-96750000D01*
X58070395Y-96750000D01*
X57257298Y-95936903D01*
X57013329Y-96008486D01*
X56892429Y-96263996D01*
X56823700Y-96538184D01*
X56809783Y-96820512D01*
X55878582Y-96820512D01*
X55878582Y-95950000D01*
X55872268Y-95885897D01*
X55853570Y-95824257D01*
X55823206Y-95767450D01*
X55814875Y-95757298D01*
X57436903Y-95757298D01*
X58250000Y-96570395D01*
X59063097Y-95757298D01*
X58991514Y-95513329D01*
X58736004Y-95392429D01*
X58461816Y-95323700D01*
X58179488Y-95309783D01*
X57899870Y-95351213D01*
X57633708Y-95446397D01*
X57508486Y-95513329D01*
X57436903Y-95757298D01*
X55814875Y-95757298D01*
X55782343Y-95717657D01*
X55732550Y-95676794D01*
X55675743Y-95646430D01*
X55614103Y-95627732D01*
X55550000Y-95621418D01*
X53950000Y-95621418D01*
X53885897Y-95627732D01*
X53824257Y-95646430D01*
X53767450Y-95676794D01*
X53717657Y-95717657D01*
X53676794Y-95767450D01*
X53646430Y-95824257D01*
X53627732Y-95885897D01*
X53621418Y-95950000D01*
X52127000Y-95950000D01*
X52127000Y-80288000D01*
X58681483Y-80288000D01*
X58685000Y-80323708D01*
X58685000Y-80359603D01*
X58692003Y-80394810D01*
X58695520Y-80430517D01*
X58705935Y-80464851D01*
X58712938Y-80500058D01*
X58726674Y-80533220D01*
X58737090Y-80567557D01*
X58754005Y-80599203D01*
X58767741Y-80632364D01*
X58787683Y-80662210D01*
X58804597Y-80693853D01*
X58827358Y-80721588D01*
X58847302Y-80751436D01*
X58872682Y-80776816D01*
X58895446Y-80804554D01*
X58923183Y-80827317D01*
X58948564Y-80852698D01*
X58978412Y-80872642D01*
X59006147Y-80895403D01*
X59037790Y-80912317D01*
X59067636Y-80932259D01*
X59100797Y-80945995D01*
X59132443Y-80962910D01*
X59166780Y-80973326D01*
X59199942Y-80987062D01*
X59235149Y-80994065D01*
X59269483Y-81004480D01*
X59305190Y-81007997D01*
X59340397Y-81015000D01*
X59773001Y-81015000D01*
X59773000Y-93064292D01*
X59769483Y-93100000D01*
X59773000Y-93135707D01*
X59783520Y-93242516D01*
X59825090Y-93379556D01*
X59892597Y-93505852D01*
X59983446Y-93616553D01*
X60011189Y-93639321D01*
X62535300Y-96163433D01*
X62535302Y-96163436D01*
X62636564Y-96264698D01*
X62666415Y-96284644D01*
X62694146Y-96307402D01*
X62725786Y-96324314D01*
X62755636Y-96344259D01*
X62788804Y-96357998D01*
X62820443Y-96374909D01*
X62854774Y-96385323D01*
X62887942Y-96399062D01*
X62923149Y-96406065D01*
X62957482Y-96416480D01*
X62993191Y-96419997D01*
X63028397Y-96427000D01*
X63064291Y-96427000D01*
X63099999Y-96430517D01*
X63135707Y-96427000D01*
X63171603Y-96427000D01*
X63206811Y-96419997D01*
X63242517Y-96416480D01*
X63276848Y-96406066D01*
X63312058Y-96399062D01*
X63345229Y-96385322D01*
X63379556Y-96374909D01*
X63411190Y-96358000D01*
X63444364Y-96344259D01*
X63474221Y-96324309D01*
X63505852Y-96307402D01*
X63533576Y-96284650D01*
X63563436Y-96264698D01*
X63588828Y-96239306D01*
X63616553Y-96216553D01*
X63639306Y-96188828D01*
X63664698Y-96163436D01*
X63684650Y-96133576D01*
X63707402Y-96105852D01*
X63724309Y-96074221D01*
X63744259Y-96044364D01*
X63758000Y-96011190D01*
X63774909Y-95979556D01*
X63785322Y-95945229D01*
X63799062Y-95912058D01*
X63806066Y-95876848D01*
X63816480Y-95842517D01*
X63819997Y-95806811D01*
X63827000Y-95771603D01*
X63827000Y-95735707D01*
X63830517Y-95699999D01*
X63827000Y-95664291D01*
X63827000Y-95628397D01*
X63819997Y-95593191D01*
X63816480Y-95557482D01*
X63806065Y-95523149D01*
X63799062Y-95487942D01*
X63785323Y-95454774D01*
X63774909Y-95420443D01*
X63757998Y-95388804D01*
X63744259Y-95355636D01*
X63724314Y-95325786D01*
X63707402Y-95294146D01*
X63684644Y-95266415D01*
X63664698Y-95236564D01*
X63563436Y-95135302D01*
X63563433Y-95135300D01*
X61227000Y-92798868D01*
X61227000Y-89316890D01*
X74758524Y-89316890D01*
X74803175Y-89464099D01*
X74928359Y-89726920D01*
X75102412Y-89960269D01*
X75318645Y-90155178D01*
X75568748Y-90304157D01*
X75843109Y-90401481D01*
X76073000Y-90280814D01*
X76073000Y-89087000D01*
X76327000Y-89087000D01*
X76327000Y-90280814D01*
X76556891Y-90401481D01*
X76831252Y-90304157D01*
X77081355Y-90155178D01*
X77297588Y-89960269D01*
X77470000Y-89729120D01*
X77642412Y-89960269D01*
X77858645Y-90155178D01*
X78108748Y-90304157D01*
X78383109Y-90401481D01*
X78613000Y-90280814D01*
X78613000Y-89087000D01*
X78867000Y-89087000D01*
X78867000Y-90280814D01*
X79096891Y-90401481D01*
X79371252Y-90304157D01*
X79621355Y-90155178D01*
X79837588Y-89960269D01*
X80011641Y-89726920D01*
X80136825Y-89464099D01*
X80181476Y-89316890D01*
X80060155Y-89087000D01*
X78867000Y-89087000D01*
X78613000Y-89087000D01*
X76327000Y-89087000D01*
X76073000Y-89087000D01*
X74879845Y-89087000D01*
X74758524Y-89316890D01*
X61227000Y-89316890D01*
X61227000Y-89068500D01*
X84577983Y-89068500D01*
X84581500Y-89104208D01*
X84581500Y-89140103D01*
X84588503Y-89175310D01*
X84592020Y-89211017D01*
X84602435Y-89245351D01*
X84609438Y-89280558D01*
X84623174Y-89313720D01*
X84633590Y-89348057D01*
X84650505Y-89379703D01*
X84664241Y-89412864D01*
X84684183Y-89442710D01*
X84701097Y-89474353D01*
X84723858Y-89502088D01*
X84743802Y-89531936D01*
X84769183Y-89557317D01*
X84791946Y-89585054D01*
X84819683Y-89607817D01*
X84845064Y-89633198D01*
X84874912Y-89653142D01*
X84902647Y-89675903D01*
X84934290Y-89692817D01*
X84964136Y-89712759D01*
X84997297Y-89726495D01*
X85028943Y-89743410D01*
X85063280Y-89753826D01*
X85096442Y-89767562D01*
X85131649Y-89774565D01*
X85165983Y-89784980D01*
X85201690Y-89788497D01*
X85236897Y-89795500D01*
X85811990Y-89795500D01*
X85021422Y-90586069D01*
X85005127Y-90599442D01*
X84991755Y-90615736D01*
X84991754Y-90615737D01*
X84951767Y-90664461D01*
X84944138Y-90678734D01*
X84912117Y-90738642D01*
X84887700Y-90819131D01*
X84881773Y-90879311D01*
X84845086Y-90903824D01*
X84743824Y-91005086D01*
X84664263Y-91124158D01*
X84609460Y-91256464D01*
X84581522Y-91396919D01*
X84581522Y-91540125D01*
X84609460Y-91680580D01*
X84664263Y-91812886D01*
X84743824Y-91931958D01*
X84845086Y-92033220D01*
X84964158Y-92112781D01*
X85096464Y-92167584D01*
X85236919Y-92195522D01*
X85380125Y-92195522D01*
X85520580Y-92167584D01*
X85652886Y-92112781D01*
X85771958Y-92033220D01*
X85873220Y-91931958D01*
X85952781Y-91812886D01*
X85987603Y-91728820D01*
X85987602Y-92442992D01*
X85980103Y-92441500D01*
X85836897Y-92441500D01*
X85696442Y-92469438D01*
X85564136Y-92524241D01*
X85445064Y-92603802D01*
X85343802Y-92705064D01*
X85264241Y-92824136D01*
X85209438Y-92956442D01*
X85181500Y-93096897D01*
X85181500Y-93240103D01*
X85209438Y-93380558D01*
X85264241Y-93512864D01*
X85343802Y-93631936D01*
X85445064Y-93733198D01*
X85564136Y-93812759D01*
X85696442Y-93867562D01*
X85836897Y-93895500D01*
X85980103Y-93895500D01*
X86120558Y-93867562D01*
X86252864Y-93812759D01*
X86371936Y-93733198D01*
X86473198Y-93631936D01*
X86552759Y-93512864D01*
X86607562Y-93380558D01*
X86635500Y-93240103D01*
X86635500Y-93096897D01*
X86626951Y-93053918D01*
X86701714Y-92979156D01*
X86717997Y-92965793D01*
X86731361Y-92949509D01*
X86731370Y-92949500D01*
X86771357Y-92900775D01*
X86811006Y-92826595D01*
X86811007Y-92826594D01*
X86835424Y-92746105D01*
X86841602Y-92683376D01*
X86841602Y-92683364D01*
X86843667Y-92662399D01*
X86841602Y-92641434D01*
X86841602Y-91852750D01*
X86902546Y-91877994D01*
X87043001Y-91905932D01*
X87186207Y-91905932D01*
X87229186Y-91897383D01*
X87546636Y-92214834D01*
X87560000Y-92231118D01*
X87576284Y-92244482D01*
X87576293Y-92244491D01*
X87625018Y-92284478D01*
X87664616Y-92305643D01*
X87699199Y-92324128D01*
X87779688Y-92348545D01*
X87842417Y-92354723D01*
X87842429Y-92354723D01*
X87863394Y-92356788D01*
X87884359Y-92354723D01*
X96990947Y-92354723D01*
X97015293Y-92391159D01*
X97116555Y-92492421D01*
X97235627Y-92571982D01*
X97367933Y-92626785D01*
X97508388Y-92654723D01*
X97651594Y-92654723D01*
X97792049Y-92626785D01*
X97924355Y-92571982D01*
X98043427Y-92492421D01*
X98144689Y-92391159D01*
X98224250Y-92272087D01*
X98279053Y-92139781D01*
X98306991Y-91999326D01*
X98306991Y-91856120D01*
X98279053Y-91715665D01*
X98224250Y-91583359D01*
X98144689Y-91464287D01*
X98043427Y-91363025D01*
X97929788Y-91287094D01*
X98021383Y-91195500D01*
X98919456Y-91195500D01*
X98943802Y-91231936D01*
X99045064Y-91333198D01*
X99164136Y-91412759D01*
X99296442Y-91467562D01*
X99436897Y-91495500D01*
X99580103Y-91495500D01*
X99720558Y-91467562D01*
X99852864Y-91412759D01*
X99971936Y-91333198D01*
X100073198Y-91231936D01*
X100152759Y-91112864D01*
X100207562Y-90980558D01*
X100235500Y-90840103D01*
X100235500Y-90696897D01*
X100207562Y-90556442D01*
X100152759Y-90424136D01*
X100073198Y-90305064D01*
X99971936Y-90203802D01*
X99852864Y-90124241D01*
X99720558Y-90069438D01*
X99580103Y-90041500D01*
X99436897Y-90041500D01*
X99296442Y-90069438D01*
X99164136Y-90124241D01*
X99045064Y-90203802D01*
X98943802Y-90305064D01*
X98919456Y-90341500D01*
X97865481Y-90341500D01*
X97844514Y-90339435D01*
X97823547Y-90341500D01*
X97823536Y-90341500D01*
X97760807Y-90347678D01*
X97744044Y-90352763D01*
X97720325Y-90295500D01*
X97787533Y-90295500D01*
X97808500Y-90297565D01*
X97829467Y-90295500D01*
X97829478Y-90295500D01*
X97892207Y-90289322D01*
X97972696Y-90264905D01*
X98046876Y-90225255D01*
X98111895Y-90171895D01*
X98125268Y-90155600D01*
X98493918Y-89786951D01*
X98536897Y-89795500D01*
X98680103Y-89795500D01*
X98820558Y-89767562D01*
X98952864Y-89712759D01*
X99071936Y-89633198D01*
X99173198Y-89531936D01*
X99252759Y-89412864D01*
X99307562Y-89280558D01*
X99335500Y-89140103D01*
X99335500Y-88996897D01*
X99307562Y-88856442D01*
X99252759Y-88724136D01*
X99173198Y-88605064D01*
X99071936Y-88503802D01*
X98952864Y-88424241D01*
X98820558Y-88369438D01*
X98680103Y-88341500D01*
X98536897Y-88341500D01*
X98396442Y-88369438D01*
X98264136Y-88424241D01*
X98145064Y-88503802D01*
X98043802Y-88605064D01*
X97964241Y-88724136D01*
X97909438Y-88856442D01*
X97881500Y-88996897D01*
X97881500Y-89140103D01*
X97890049Y-89183082D01*
X97631632Y-89441500D01*
X93433625Y-89441500D01*
X93452759Y-89412864D01*
X93466495Y-89379703D01*
X93483410Y-89348057D01*
X93493826Y-89313720D01*
X93507562Y-89280558D01*
X93514565Y-89245351D01*
X93524980Y-89211017D01*
X93528497Y-89175310D01*
X93535500Y-89140103D01*
X93535500Y-89104208D01*
X93539017Y-89068500D01*
X93535500Y-89032792D01*
X93535500Y-88996897D01*
X93528497Y-88961690D01*
X93524980Y-88925983D01*
X93514565Y-88891649D01*
X93507562Y-88856442D01*
X93493826Y-88823280D01*
X93483410Y-88788943D01*
X93466495Y-88757297D01*
X93452759Y-88724136D01*
X93432817Y-88694290D01*
X93415903Y-88662647D01*
X93393142Y-88634912D01*
X93373198Y-88605064D01*
X93347817Y-88579683D01*
X93325054Y-88551946D01*
X93297317Y-88529183D01*
X93271936Y-88503802D01*
X93242088Y-88483858D01*
X93214353Y-88461097D01*
X93182710Y-88444183D01*
X93152864Y-88424241D01*
X93119703Y-88410505D01*
X93088057Y-88393590D01*
X93053720Y-88383174D01*
X93020558Y-88369438D01*
X92985351Y-88362435D01*
X92951017Y-88352020D01*
X92915310Y-88348503D01*
X92880103Y-88341500D01*
X85236897Y-88341500D01*
X85201690Y-88348503D01*
X85165983Y-88352020D01*
X85131649Y-88362435D01*
X85096442Y-88369438D01*
X85063280Y-88383174D01*
X85028943Y-88393590D01*
X84997297Y-88410505D01*
X84964136Y-88424241D01*
X84934290Y-88444183D01*
X84902647Y-88461097D01*
X84874912Y-88483858D01*
X84845064Y-88503802D01*
X84819683Y-88529183D01*
X84791946Y-88551946D01*
X84769183Y-88579683D01*
X84743802Y-88605064D01*
X84723858Y-88634912D01*
X84701097Y-88662647D01*
X84684183Y-88694290D01*
X84664241Y-88724136D01*
X84650505Y-88757297D01*
X84633590Y-88788943D01*
X84623174Y-88823280D01*
X84609438Y-88856442D01*
X84602435Y-88891649D01*
X84592020Y-88925983D01*
X84588503Y-88961690D01*
X84581500Y-88996897D01*
X84581500Y-89032792D01*
X84577983Y-89068500D01*
X61227000Y-89068500D01*
X61227000Y-80435396D01*
X61228480Y-80430517D01*
X61231997Y-80394810D01*
X61239000Y-80359603D01*
X61239000Y-80323708D01*
X61242517Y-80288000D01*
X61239000Y-80252292D01*
X61239000Y-80216397D01*
X61231997Y-80181190D01*
X61228480Y-80145483D01*
X61218065Y-80111149D01*
X61211062Y-80075942D01*
X61197326Y-80042780D01*
X61186910Y-80008443D01*
X61169995Y-79976797D01*
X61156259Y-79943636D01*
X61136317Y-79913790D01*
X61119403Y-79882147D01*
X61096642Y-79854412D01*
X61076698Y-79824564D01*
X61051317Y-79799183D01*
X61028554Y-79771446D01*
X61000817Y-79748683D01*
X60975436Y-79723302D01*
X60945588Y-79703358D01*
X60917853Y-79680597D01*
X60886210Y-79663683D01*
X60856364Y-79643741D01*
X60823203Y-79630005D01*
X60791557Y-79613090D01*
X60757220Y-79602674D01*
X60724058Y-79588938D01*
X60688851Y-79581935D01*
X60654517Y-79571520D01*
X60618810Y-79568003D01*
X60583603Y-79561000D01*
X60547708Y-79561000D01*
X60512000Y-79557483D01*
X60476292Y-79561000D01*
X59340397Y-79561000D01*
X59305190Y-79568003D01*
X59269483Y-79571520D01*
X59235149Y-79581935D01*
X59199942Y-79588938D01*
X59166780Y-79602674D01*
X59132443Y-79613090D01*
X59100797Y-79630005D01*
X59067636Y-79643741D01*
X59037790Y-79663683D01*
X59006147Y-79680597D01*
X58978412Y-79703358D01*
X58948564Y-79723302D01*
X58923183Y-79748683D01*
X58895446Y-79771446D01*
X58872683Y-79799183D01*
X58847302Y-79824564D01*
X58827358Y-79854412D01*
X58804597Y-79882147D01*
X58787683Y-79913790D01*
X58767741Y-79943636D01*
X58754005Y-79976797D01*
X58737090Y-80008443D01*
X58726674Y-80042780D01*
X58712938Y-80075942D01*
X58705935Y-80111149D01*
X58695520Y-80145483D01*
X58692003Y-80181190D01*
X58685000Y-80216397D01*
X58685000Y-80252292D01*
X58681483Y-80288000D01*
X52127000Y-80288000D01*
X52127000Y-76984315D01*
X64019483Y-76984315D01*
X64023000Y-77020023D01*
X64023000Y-77621603D01*
X64030003Y-77656811D01*
X64033520Y-77692516D01*
X64043934Y-77726848D01*
X64050938Y-77762058D01*
X64064675Y-77795223D01*
X64075090Y-77829556D01*
X64092003Y-77861199D01*
X64105741Y-77894364D01*
X64125686Y-77924214D01*
X64142597Y-77955852D01*
X64165355Y-77983583D01*
X64185302Y-78013436D01*
X64210688Y-78038822D01*
X64233446Y-78066553D01*
X64261178Y-78089312D01*
X64286564Y-78114698D01*
X64316414Y-78134643D01*
X64344147Y-78157403D01*
X64375790Y-78174317D01*
X64405636Y-78194259D01*
X64438797Y-78207995D01*
X64470443Y-78224910D01*
X64504780Y-78235326D01*
X64537942Y-78249062D01*
X64573149Y-78256065D01*
X64607483Y-78266480D01*
X64643190Y-78269997D01*
X64678397Y-78277000D01*
X64714292Y-78277000D01*
X64750000Y-78280517D01*
X64785708Y-78277000D01*
X64821603Y-78277000D01*
X64856811Y-78269997D01*
X64892516Y-78266480D01*
X64926848Y-78256066D01*
X64962058Y-78249062D01*
X64995223Y-78235325D01*
X65029556Y-78224910D01*
X65061199Y-78207997D01*
X65094364Y-78194259D01*
X65124214Y-78174314D01*
X65155852Y-78157403D01*
X65183583Y-78134645D01*
X65213436Y-78114698D01*
X65238822Y-78089312D01*
X65266553Y-78066554D01*
X65289312Y-78038822D01*
X65314698Y-78013436D01*
X65334643Y-77983586D01*
X65357403Y-77955853D01*
X65374317Y-77924210D01*
X65394259Y-77894364D01*
X65407995Y-77861203D01*
X65424910Y-77829557D01*
X65435326Y-77795220D01*
X65449062Y-77762058D01*
X65456065Y-77726851D01*
X65466480Y-77692517D01*
X65469997Y-77656810D01*
X65477000Y-77621603D01*
X65477000Y-77495500D01*
X68472792Y-77495500D01*
X68508500Y-77499017D01*
X68651017Y-77484980D01*
X68788057Y-77443410D01*
X68914353Y-77375903D01*
X69025054Y-77285054D01*
X69047826Y-77257306D01*
X69397311Y-76907821D01*
X69425053Y-76885054D01*
X69515903Y-76774353D01*
X69583410Y-76648057D01*
X69624980Y-76511017D01*
X69635500Y-76404208D01*
X69635500Y-76404206D01*
X69639017Y-76368501D01*
X69635500Y-76332795D01*
X69635500Y-70165641D01*
X69795320Y-70005821D01*
X69823057Y-69983058D01*
X69913907Y-69872357D01*
X69981414Y-69746061D01*
X70000530Y-69683044D01*
X70022984Y-69609022D01*
X70037021Y-69466504D01*
X70033504Y-69430796D01*
X70033504Y-68471629D01*
X70209633Y-68295500D01*
X73072792Y-68295500D01*
X73077197Y-68295934D01*
X71323083Y-70050049D01*
X71280103Y-70041500D01*
X71136897Y-70041500D01*
X70996442Y-70069438D01*
X70864136Y-70124241D01*
X70745064Y-70203802D01*
X70643802Y-70305064D01*
X70564241Y-70424136D01*
X70509438Y-70556442D01*
X70481500Y-70696897D01*
X70481500Y-70840103D01*
X70509438Y-70980558D01*
X70564241Y-71112864D01*
X70643802Y-71231936D01*
X70745064Y-71333198D01*
X70864136Y-71412759D01*
X70996442Y-71467562D01*
X71136897Y-71495500D01*
X71280103Y-71495500D01*
X71420558Y-71467562D01*
X71552864Y-71412759D01*
X71671936Y-71333198D01*
X71773198Y-71231936D01*
X71852759Y-71112864D01*
X71907562Y-70980558D01*
X71935500Y-70840103D01*
X71935500Y-70696897D01*
X71926951Y-70653917D01*
X74903868Y-67677001D01*
X75522685Y-67677001D01*
X75449706Y-67725764D01*
X75285764Y-67889706D01*
X75156956Y-68082481D01*
X75068231Y-68296682D01*
X75023000Y-68524076D01*
X75023000Y-68755924D01*
X75068231Y-68983318D01*
X75156956Y-69197519D01*
X75285764Y-69390294D01*
X75449706Y-69554236D01*
X75642481Y-69683044D01*
X75856682Y-69771769D01*
X76084076Y-69817000D01*
X76315924Y-69817000D01*
X76543318Y-69771769D01*
X76757519Y-69683044D01*
X76950294Y-69554236D01*
X77114236Y-69390294D01*
X77243044Y-69197519D01*
X77331769Y-68983318D01*
X77377000Y-68755924D01*
X77377000Y-68524076D01*
X77367957Y-68478612D01*
X77649486Y-68197083D01*
X77608231Y-68296682D01*
X77563000Y-68524076D01*
X77563000Y-68755924D01*
X77608231Y-68983318D01*
X77696956Y-69197519D01*
X77825764Y-69390294D01*
X77989706Y-69554236D01*
X78062685Y-69602999D01*
X77370967Y-69602999D01*
X77350000Y-69600934D01*
X77329033Y-69602999D01*
X77329023Y-69602999D01*
X77266294Y-69609177D01*
X77185805Y-69633594D01*
X77151274Y-69652051D01*
X77111624Y-69673244D01*
X77062900Y-69713231D01*
X77062896Y-69713235D01*
X77046606Y-69726604D01*
X77033237Y-69742894D01*
X76673837Y-70102294D01*
X76543318Y-70048231D01*
X76315924Y-70003000D01*
X76084076Y-70003000D01*
X75856682Y-70048231D01*
X75642481Y-70136956D01*
X75449706Y-70265764D01*
X75285764Y-70429706D01*
X75156956Y-70622481D01*
X75068231Y-70836682D01*
X75023000Y-71064076D01*
X75023000Y-71295924D01*
X75068231Y-71523318D01*
X75156956Y-71737519D01*
X75285764Y-71930294D01*
X75449706Y-72094236D01*
X75642481Y-72223044D01*
X75856682Y-72311769D01*
X76084076Y-72357000D01*
X76315924Y-72357000D01*
X76543318Y-72311769D01*
X76757519Y-72223044D01*
X76950294Y-72094236D01*
X77114236Y-71930294D01*
X77243044Y-71737519D01*
X77331769Y-71523318D01*
X77377000Y-71295924D01*
X77377000Y-71064076D01*
X77331769Y-70836682D01*
X77277706Y-70706163D01*
X77526870Y-70456999D01*
X77807527Y-70456999D01*
X77696956Y-70622481D01*
X77608231Y-70836682D01*
X77563000Y-71064076D01*
X77563000Y-71295924D01*
X77608231Y-71523318D01*
X77696956Y-71737519D01*
X77825764Y-71930294D01*
X77847145Y-71951675D01*
X77562291Y-71951675D01*
X77541324Y-71949610D01*
X77520357Y-71951675D01*
X77520347Y-71951675D01*
X77457618Y-71957853D01*
X77377129Y-71982270D01*
X77342598Y-72000727D01*
X77302948Y-72021920D01*
X77254224Y-72061907D01*
X77254220Y-72061911D01*
X77237930Y-72075280D01*
X77224561Y-72091570D01*
X76673837Y-72642294D01*
X76543318Y-72588231D01*
X76315924Y-72543000D01*
X76084076Y-72543000D01*
X75856682Y-72588231D01*
X75642481Y-72676956D01*
X75449706Y-72805764D01*
X75285764Y-72969706D01*
X75156956Y-73162481D01*
X75068231Y-73376682D01*
X75023000Y-73604076D01*
X75023000Y-73835924D01*
X75068231Y-74063318D01*
X75156956Y-74277519D01*
X75285764Y-74470294D01*
X75356969Y-74541499D01*
X72185369Y-74541499D01*
X71426951Y-73783082D01*
X71435500Y-73740103D01*
X71435500Y-73596897D01*
X71407562Y-73456442D01*
X71352759Y-73324136D01*
X71273198Y-73205064D01*
X71171936Y-73103802D01*
X71052864Y-73024241D01*
X70920558Y-72969438D01*
X70780103Y-72941500D01*
X70636897Y-72941500D01*
X70496442Y-72969438D01*
X70364136Y-73024241D01*
X70245064Y-73103802D01*
X70143802Y-73205064D01*
X70064241Y-73324136D01*
X70009438Y-73456442D01*
X69981500Y-73596897D01*
X69981500Y-73740103D01*
X70009438Y-73880558D01*
X70064241Y-74012864D01*
X70143802Y-74131936D01*
X70245064Y-74233198D01*
X70364136Y-74312759D01*
X70496442Y-74367562D01*
X70636897Y-74395500D01*
X70780103Y-74395500D01*
X70823082Y-74386951D01*
X71691740Y-75255610D01*
X71705104Y-75271894D01*
X71721388Y-75285258D01*
X71721397Y-75285267D01*
X71770122Y-75325254D01*
X71808495Y-75345764D01*
X71844303Y-75364904D01*
X71924792Y-75389321D01*
X71987521Y-75395499D01*
X71987531Y-75395499D01*
X72008498Y-75397564D01*
X72029465Y-75395499D01*
X75399971Y-75395499D01*
X75285764Y-75509706D01*
X75156956Y-75702481D01*
X75068231Y-75916682D01*
X75023000Y-76144076D01*
X75023000Y-76375924D01*
X75068231Y-76603318D01*
X75156956Y-76817519D01*
X75285764Y-77010294D01*
X75449706Y-77174236D01*
X75642481Y-77303044D01*
X75856682Y-77391769D01*
X76084076Y-77437000D01*
X76315924Y-77437000D01*
X76543318Y-77391769D01*
X76757519Y-77303044D01*
X76950294Y-77174236D01*
X77114236Y-77010294D01*
X77243044Y-76817519D01*
X77331769Y-76603318D01*
X77377000Y-76375924D01*
X77377000Y-76144076D01*
X77331769Y-75916682D01*
X77243044Y-75702481D01*
X77114236Y-75509706D01*
X77000029Y-75395499D01*
X77939971Y-75395499D01*
X77825764Y-75509706D01*
X77696956Y-75702481D01*
X77608231Y-75916682D01*
X77563000Y-76144076D01*
X77563000Y-76375924D01*
X77608231Y-76603318D01*
X77696956Y-76817519D01*
X77825764Y-77010294D01*
X77989706Y-77174236D01*
X78062685Y-77222999D01*
X77370967Y-77222999D01*
X77350000Y-77220934D01*
X77329033Y-77222999D01*
X77329023Y-77222999D01*
X77266294Y-77229177D01*
X77185805Y-77253594D01*
X77178840Y-77257317D01*
X77111624Y-77293244D01*
X77062900Y-77333231D01*
X77062896Y-77333235D01*
X77046606Y-77346604D01*
X77033237Y-77362894D01*
X76673837Y-77722294D01*
X76543318Y-77668231D01*
X76315924Y-77623000D01*
X76084076Y-77623000D01*
X75856682Y-77668231D01*
X75642481Y-77756956D01*
X75449706Y-77885764D01*
X75285764Y-78049706D01*
X75156956Y-78242481D01*
X75068231Y-78456682D01*
X75023000Y-78684076D01*
X75023000Y-78915924D01*
X75068231Y-79143318D01*
X75156956Y-79357519D01*
X75285764Y-79550294D01*
X75449706Y-79714236D01*
X75490510Y-79741500D01*
X72185369Y-79741500D01*
X70926951Y-78483083D01*
X70935500Y-78440103D01*
X70935500Y-78296897D01*
X70907562Y-78156442D01*
X70852759Y-78024136D01*
X70773198Y-77905064D01*
X70671936Y-77803802D01*
X70552864Y-77724241D01*
X70420558Y-77669438D01*
X70280103Y-77641500D01*
X70136897Y-77641500D01*
X69996442Y-77669438D01*
X69864136Y-77724241D01*
X69745064Y-77803802D01*
X69643802Y-77905064D01*
X69564241Y-78024136D01*
X69509438Y-78156442D01*
X69481500Y-78296897D01*
X69481500Y-78440103D01*
X69509438Y-78580558D01*
X69564241Y-78712864D01*
X69643802Y-78831936D01*
X69745064Y-78933198D01*
X69864136Y-79012759D01*
X69996442Y-79067562D01*
X70136897Y-79095500D01*
X70181500Y-79095500D01*
X70100752Y-79149454D01*
X69999490Y-79250716D01*
X69919929Y-79369788D01*
X69865126Y-79502094D01*
X69837188Y-79642549D01*
X69837188Y-79785755D01*
X69865126Y-79926210D01*
X69919929Y-80058516D01*
X69999490Y-80177588D01*
X70100752Y-80278850D01*
X70219824Y-80358411D01*
X70352130Y-80413214D01*
X70492585Y-80441152D01*
X70635791Y-80441152D01*
X70678770Y-80432603D01*
X71201772Y-80955605D01*
X71215141Y-80971895D01*
X71231431Y-80985264D01*
X71231435Y-80985268D01*
X71280159Y-81025255D01*
X71301394Y-81036605D01*
X71354340Y-81064905D01*
X71434829Y-81089322D01*
X71497558Y-81095500D01*
X71497569Y-81095500D01*
X71518536Y-81097565D01*
X71539503Y-81095500D01*
X75048575Y-81095500D01*
X75023000Y-81224076D01*
X75023000Y-81455924D01*
X75068231Y-81683318D01*
X75156956Y-81897519D01*
X75285764Y-82090294D01*
X75449706Y-82254236D01*
X75642481Y-82383044D01*
X75856682Y-82471769D01*
X76084076Y-82517000D01*
X76315924Y-82517000D01*
X76543318Y-82471769D01*
X76673837Y-82417706D01*
X77033237Y-82777106D01*
X77046606Y-82793396D01*
X77062896Y-82806765D01*
X77062900Y-82806769D01*
X77111624Y-82846756D01*
X77129746Y-82856442D01*
X77185805Y-82886406D01*
X77266294Y-82910823D01*
X77329023Y-82917001D01*
X77329033Y-82917001D01*
X77350000Y-82919066D01*
X77370967Y-82917001D01*
X78062685Y-82917001D01*
X77989706Y-82965764D01*
X77825764Y-83129706D01*
X77696956Y-83322481D01*
X77608231Y-83536682D01*
X77563000Y-83764076D01*
X77563000Y-83995924D01*
X77608231Y-84223318D01*
X77696956Y-84437519D01*
X77807527Y-84603001D01*
X77132473Y-84603001D01*
X77243044Y-84437519D01*
X77331769Y-84223318D01*
X77377000Y-83995924D01*
X77377000Y-83764076D01*
X77331769Y-83536682D01*
X77243044Y-83322481D01*
X77114236Y-83129706D01*
X76950294Y-82965764D01*
X76757519Y-82836956D01*
X76543318Y-82748231D01*
X76315924Y-82703000D01*
X76084076Y-82703000D01*
X75856682Y-82748231D01*
X75642481Y-82836956D01*
X75449706Y-82965764D01*
X75285764Y-83129706D01*
X75156956Y-83322481D01*
X75068231Y-83536682D01*
X75023000Y-83764076D01*
X75023000Y-83995924D01*
X75068231Y-84223318D01*
X75156956Y-84437519D01*
X75267527Y-84603001D01*
X72532117Y-84603001D01*
X66692591Y-78763475D01*
X66724130Y-78731936D01*
X66803691Y-78612864D01*
X66858494Y-78480558D01*
X66886432Y-78340103D01*
X66886432Y-78196897D01*
X66858494Y-78056442D01*
X66803691Y-77924136D01*
X66724130Y-77805064D01*
X66622868Y-77703802D01*
X66503796Y-77624241D01*
X66371490Y-77569438D01*
X66231035Y-77541500D01*
X66087829Y-77541500D01*
X65947374Y-77569438D01*
X65815068Y-77624241D01*
X65695996Y-77703802D01*
X65594734Y-77805064D01*
X65515173Y-77924136D01*
X65460370Y-78056442D01*
X65432432Y-78196897D01*
X65432432Y-78340103D01*
X65460370Y-78480558D01*
X65515173Y-78612864D01*
X65594734Y-78731936D01*
X65695996Y-78833198D01*
X65732683Y-78857711D01*
X65738610Y-78917891D01*
X65763027Y-78998380D01*
X65763028Y-78998381D01*
X65802677Y-79072561D01*
X65821503Y-79095500D01*
X65856037Y-79137580D01*
X65872332Y-79150953D01*
X72038484Y-85317106D01*
X72051853Y-85333396D01*
X72068143Y-85346765D01*
X72068147Y-85346769D01*
X72116871Y-85386756D01*
X72135844Y-85396897D01*
X72191052Y-85426406D01*
X72271541Y-85450823D01*
X72334270Y-85457001D01*
X72334280Y-85457001D01*
X72355247Y-85459066D01*
X72376214Y-85457001D01*
X75522685Y-85457001D01*
X75449706Y-85505764D01*
X75285764Y-85669706D01*
X75156956Y-85862481D01*
X75068231Y-86076682D01*
X75023000Y-86304076D01*
X75023000Y-86535924D01*
X75068231Y-86763318D01*
X75156956Y-86977519D01*
X75285764Y-87170294D01*
X75449706Y-87334236D01*
X75642481Y-87463044D01*
X75807179Y-87531264D01*
X75568748Y-87615843D01*
X75318645Y-87764822D01*
X75102412Y-87959731D01*
X74928359Y-88193080D01*
X74803175Y-88455901D01*
X74758524Y-88603110D01*
X74879845Y-88833000D01*
X76073000Y-88833000D01*
X76073000Y-88813000D01*
X76327000Y-88813000D01*
X76327000Y-88833000D01*
X78613000Y-88833000D01*
X78613000Y-88813000D01*
X78867000Y-88813000D01*
X78867000Y-88833000D01*
X80060155Y-88833000D01*
X80181476Y-88603110D01*
X80136825Y-88455901D01*
X80011641Y-88193080D01*
X79837588Y-87959731D01*
X79621355Y-87764822D01*
X79371252Y-87615843D01*
X79132821Y-87531264D01*
X79297519Y-87463044D01*
X79490294Y-87334236D01*
X79654236Y-87170294D01*
X79783044Y-86977519D01*
X79871769Y-86763318D01*
X79917000Y-86535924D01*
X79917000Y-86304076D01*
X79871769Y-86076682D01*
X79783044Y-85862481D01*
X79654236Y-85669706D01*
X79490294Y-85505764D01*
X79417315Y-85457001D01*
X79426032Y-85457001D01*
X79446999Y-85459066D01*
X79467966Y-85457001D01*
X79467977Y-85457001D01*
X79530706Y-85450823D01*
X79611195Y-85426406D01*
X79685375Y-85386756D01*
X79750394Y-85333396D01*
X79763767Y-85317101D01*
X80085369Y-84995500D01*
X80787533Y-84995500D01*
X80808500Y-84997565D01*
X80829467Y-84995500D01*
X80829478Y-84995500D01*
X80892207Y-84989322D01*
X80972696Y-84964905D01*
X81046876Y-84925255D01*
X81111895Y-84871895D01*
X81125268Y-84855600D01*
X81985369Y-83995500D01*
X85431632Y-83995500D01*
X86132185Y-84696054D01*
X86064136Y-84724241D01*
X85945064Y-84803802D01*
X85843802Y-84905064D01*
X85764241Y-85024136D01*
X85709438Y-85156442D01*
X85681500Y-85296897D01*
X85681500Y-85440103D01*
X85709438Y-85580558D01*
X85764241Y-85712864D01*
X85843802Y-85831936D01*
X85945064Y-85933198D01*
X86064136Y-86012759D01*
X86196442Y-86067562D01*
X86336897Y-86095500D01*
X86480103Y-86095500D01*
X86620558Y-86067562D01*
X86752864Y-86012759D01*
X86871936Y-85933198D01*
X86909634Y-85895500D01*
X89319456Y-85895500D01*
X89343802Y-85931936D01*
X89445064Y-86033198D01*
X89564136Y-86112759D01*
X89696442Y-86167562D01*
X89836897Y-86195500D01*
X89980103Y-86195500D01*
X90120558Y-86167562D01*
X90252864Y-86112759D01*
X90371936Y-86033198D01*
X90473198Y-85931936D01*
X90552759Y-85812864D01*
X90607562Y-85680558D01*
X90635500Y-85540103D01*
X90635500Y-85396897D01*
X90607562Y-85256442D01*
X90570198Y-85166238D01*
X93102370Y-85166238D01*
X95490049Y-87553918D01*
X95481500Y-87596897D01*
X95481500Y-87740103D01*
X95509438Y-87880558D01*
X95564241Y-88012864D01*
X95643802Y-88131936D01*
X95745064Y-88233198D01*
X95864136Y-88312759D01*
X95996442Y-88367562D01*
X96136897Y-88395500D01*
X96280103Y-88395500D01*
X96420558Y-88367562D01*
X96552864Y-88312759D01*
X96671936Y-88233198D01*
X96773198Y-88131936D01*
X96852759Y-88012864D01*
X96907562Y-87880558D01*
X96935500Y-87740103D01*
X96935500Y-87596897D01*
X96907562Y-87456442D01*
X96852759Y-87324136D01*
X96773198Y-87205064D01*
X96671936Y-87103802D01*
X96552864Y-87024241D01*
X96420558Y-86969438D01*
X96280103Y-86941500D01*
X96136897Y-86941500D01*
X96093918Y-86950049D01*
X93596006Y-84452138D01*
X93582633Y-84435843D01*
X93517614Y-84382483D01*
X93443434Y-84342833D01*
X93362945Y-84318416D01*
X93300216Y-84312238D01*
X93300205Y-84312238D01*
X93279238Y-84310173D01*
X93258271Y-84312238D01*
X91186375Y-84312238D01*
X91252759Y-84212887D01*
X91307562Y-84080581D01*
X91335500Y-83940126D01*
X91335500Y-83796920D01*
X91307562Y-83656465D01*
X91282315Y-83595513D01*
X105515633Y-83595513D01*
X105564241Y-83712864D01*
X105643802Y-83831936D01*
X105745064Y-83933198D01*
X105864136Y-84012759D01*
X105996442Y-84067562D01*
X106136897Y-84095500D01*
X106280103Y-84095500D01*
X106420558Y-84067562D01*
X106552864Y-84012759D01*
X106671936Y-83933198D01*
X106773198Y-83831936D01*
X106852759Y-83712864D01*
X106882723Y-83640524D01*
X106943802Y-83731936D01*
X107045064Y-83833198D01*
X107164136Y-83912759D01*
X107296442Y-83967562D01*
X107436897Y-83995500D01*
X107580103Y-83995500D01*
X107720558Y-83967562D01*
X107852864Y-83912759D01*
X107971936Y-83833198D01*
X108073198Y-83731936D01*
X108152759Y-83612864D01*
X108207562Y-83480558D01*
X108235500Y-83340103D01*
X108235500Y-83196897D01*
X108207562Y-83056442D01*
X108152759Y-82924136D01*
X108073198Y-82805064D01*
X107971936Y-82703802D01*
X107852864Y-82624241D01*
X107720558Y-82569438D01*
X107580103Y-82541500D01*
X107436897Y-82541500D01*
X107393917Y-82550049D01*
X107225266Y-82381398D01*
X107211893Y-82365103D01*
X107146874Y-82311743D01*
X107072694Y-82272093D01*
X106992205Y-82247676D01*
X106929476Y-82241498D01*
X106929465Y-82241498D01*
X106908498Y-82239433D01*
X106887531Y-82241498D01*
X105893464Y-82241498D01*
X105872497Y-82239433D01*
X105851530Y-82241498D01*
X105851520Y-82241498D01*
X105788791Y-82247676D01*
X105708302Y-82272093D01*
X105634122Y-82311743D01*
X105597861Y-82341502D01*
X105533624Y-82341502D01*
X105552759Y-82312864D01*
X105607562Y-82180558D01*
X105635500Y-82040103D01*
X105635500Y-81896897D01*
X105607562Y-81756442D01*
X105552759Y-81624136D01*
X105473198Y-81505064D01*
X105371936Y-81403802D01*
X105252864Y-81324241D01*
X105120558Y-81269438D01*
X104980103Y-81241500D01*
X104836897Y-81241500D01*
X104696442Y-81269438D01*
X104564136Y-81324241D01*
X104445064Y-81403802D01*
X104343802Y-81505064D01*
X104264241Y-81624136D01*
X104209438Y-81756442D01*
X104181500Y-81896897D01*
X104181500Y-81941499D01*
X103282312Y-81941499D01*
X103307562Y-81880539D01*
X103335500Y-81740084D01*
X103335500Y-81596878D01*
X103307562Y-81456423D01*
X103252759Y-81324117D01*
X103173198Y-81205045D01*
X103071936Y-81103783D01*
X102952864Y-81024222D01*
X102820558Y-80969419D01*
X102680103Y-80941481D01*
X102536897Y-80941481D01*
X102396442Y-80969419D01*
X102264136Y-81024222D01*
X102145064Y-81103783D01*
X102043802Y-81205045D01*
X101964241Y-81324117D01*
X101909438Y-81456423D01*
X101892522Y-81541466D01*
X91985335Y-81541466D01*
X91057266Y-80613398D01*
X91043893Y-80597103D01*
X90978874Y-80543743D01*
X90904694Y-80504093D01*
X90824205Y-80479676D01*
X90761476Y-80473498D01*
X90761465Y-80473498D01*
X90740498Y-80471433D01*
X90719531Y-80473498D01*
X90618901Y-80473498D01*
X90573188Y-80405084D01*
X90471926Y-80303822D01*
X90352854Y-80224261D01*
X90220548Y-80169458D01*
X90080093Y-80141520D01*
X89936887Y-80141520D01*
X89796432Y-80169458D01*
X89664126Y-80224261D01*
X89545054Y-80303822D01*
X89443792Y-80405084D01*
X89364231Y-80524156D01*
X89309428Y-80656462D01*
X89281490Y-80796917D01*
X89281490Y-80940123D01*
X89306628Y-81066503D01*
X89231632Y-81141500D01*
X79900575Y-81141500D01*
X79871769Y-80996682D01*
X79783044Y-80782481D01*
X79654236Y-80589706D01*
X79490294Y-80425764D01*
X79297519Y-80296956D01*
X79083318Y-80208231D01*
X78855924Y-80163000D01*
X78624076Y-80163000D01*
X78396682Y-80208231D01*
X78266163Y-80262294D01*
X77885266Y-79881398D01*
X77871895Y-79865105D01*
X77806876Y-79811745D01*
X77732696Y-79772095D01*
X77652207Y-79747678D01*
X77589478Y-79741500D01*
X77589467Y-79741500D01*
X77568500Y-79739435D01*
X77547533Y-79741500D01*
X76909490Y-79741500D01*
X76950294Y-79714236D01*
X77114236Y-79550294D01*
X77243044Y-79357519D01*
X77331769Y-79143318D01*
X77377000Y-78915924D01*
X77377000Y-78684076D01*
X77331769Y-78456682D01*
X77277706Y-78326163D01*
X77526870Y-78076999D01*
X77807527Y-78076999D01*
X77696956Y-78242481D01*
X77608231Y-78456682D01*
X77563000Y-78684076D01*
X77563000Y-78915924D01*
X77608231Y-79143318D01*
X77696956Y-79357519D01*
X77825764Y-79550294D01*
X77989706Y-79714236D01*
X78182481Y-79843044D01*
X78396682Y-79931769D01*
X78624076Y-79977000D01*
X78855924Y-79977000D01*
X79083318Y-79931769D01*
X79297519Y-79843044D01*
X79490294Y-79714236D01*
X79654236Y-79550294D01*
X79783044Y-79357519D01*
X79871769Y-79143318D01*
X79917000Y-78915924D01*
X79917000Y-78684076D01*
X79871769Y-78456682D01*
X79817706Y-78326163D01*
X81648370Y-76495500D01*
X94831632Y-76495500D01*
X96490049Y-78153918D01*
X96481500Y-78196897D01*
X96481500Y-78340103D01*
X96509438Y-78480558D01*
X96564241Y-78612864D01*
X96643802Y-78731936D01*
X96745064Y-78833198D01*
X96864136Y-78912759D01*
X96996442Y-78967562D01*
X97136897Y-78995500D01*
X97280103Y-78995500D01*
X97420558Y-78967562D01*
X97552864Y-78912759D01*
X97671936Y-78833198D01*
X97773198Y-78731936D01*
X97852759Y-78612864D01*
X97907562Y-78480558D01*
X97935500Y-78340103D01*
X97935500Y-78196897D01*
X97907562Y-78056442D01*
X97852759Y-77924136D01*
X97773198Y-77805064D01*
X97763634Y-77795500D01*
X97919466Y-77795500D01*
X97943812Y-77831936D01*
X98045074Y-77933198D01*
X98164146Y-78012759D01*
X98296452Y-78067562D01*
X98436907Y-78095500D01*
X98580113Y-78095500D01*
X98720568Y-78067562D01*
X98852874Y-78012759D01*
X98971946Y-77933198D01*
X99073208Y-77831936D01*
X99152769Y-77712864D01*
X99207572Y-77580558D01*
X99235510Y-77440103D01*
X99235510Y-77296897D01*
X99207572Y-77156442D01*
X99152769Y-77024136D01*
X99073208Y-76905064D01*
X99049787Y-76881643D01*
X99120579Y-76867562D01*
X99252885Y-76812759D01*
X99371957Y-76733198D01*
X99473219Y-76631936D01*
X99552780Y-76512864D01*
X99607583Y-76380558D01*
X99635521Y-76240103D01*
X99635521Y-76096897D01*
X99607583Y-75956442D01*
X99552780Y-75824136D01*
X99473219Y-75705064D01*
X99371957Y-75603802D01*
X99252885Y-75524241D01*
X99120579Y-75469438D01*
X98980124Y-75441500D01*
X98836918Y-75441500D01*
X98696463Y-75469438D01*
X98564157Y-75524241D01*
X98445085Y-75603802D01*
X98343823Y-75705064D01*
X98319477Y-75741500D01*
X96416770Y-75741500D01*
X95970736Y-75295467D01*
X109381784Y-75295467D01*
X109381500Y-75296897D01*
X109381500Y-75440103D01*
X109409438Y-75580558D01*
X109464241Y-75712864D01*
X109543802Y-75831936D01*
X109645064Y-75933198D01*
X109764136Y-76012759D01*
X109896442Y-76067562D01*
X110036897Y-76095500D01*
X110180103Y-76095500D01*
X110320558Y-76067562D01*
X110452864Y-76012759D01*
X110571936Y-75933198D01*
X110673198Y-75831936D01*
X110752759Y-75712864D01*
X110807562Y-75580558D01*
X110835500Y-75440103D01*
X110835500Y-75296897D01*
X110807562Y-75156442D01*
X110752759Y-75024136D01*
X110673198Y-74905064D01*
X110571936Y-74803802D01*
X110452864Y-74724241D01*
X110320558Y-74669438D01*
X110180103Y-74641500D01*
X110036897Y-74641500D01*
X109993917Y-74650049D01*
X109925235Y-74581367D01*
X109911862Y-74565072D01*
X109846843Y-74511712D01*
X109772663Y-74472062D01*
X109692174Y-74447645D01*
X109629445Y-74441467D01*
X109629434Y-74441467D01*
X109608467Y-74439402D01*
X109587500Y-74441467D01*
X80995400Y-74441467D01*
X80974433Y-74439402D01*
X80953466Y-74441467D01*
X80953455Y-74441467D01*
X80890726Y-74447645D01*
X80816065Y-74470294D01*
X80810237Y-74472062D01*
X80736057Y-74511711D01*
X80699761Y-74541499D01*
X79583031Y-74541499D01*
X79654236Y-74470294D01*
X79783044Y-74277519D01*
X79871769Y-74063318D01*
X79917000Y-73835924D01*
X79917000Y-73604076D01*
X79871769Y-73376682D01*
X79783044Y-73162481D01*
X79654236Y-72969706D01*
X79490294Y-72805764D01*
X79490161Y-72805675D01*
X86377358Y-72805675D01*
X86398325Y-72807740D01*
X86419292Y-72805675D01*
X86419303Y-72805675D01*
X86482032Y-72799497D01*
X86562521Y-72775080D01*
X86636701Y-72735430D01*
X86701720Y-72682070D01*
X86715093Y-72665775D01*
X87485325Y-71895545D01*
X88922154Y-71895545D01*
X88864231Y-71982234D01*
X88809428Y-72114540D01*
X88781490Y-72254995D01*
X88781490Y-72398201D01*
X88809428Y-72538656D01*
X88864231Y-72670962D01*
X88943792Y-72790034D01*
X88980363Y-72826605D01*
X88943792Y-72863175D01*
X88864231Y-72982247D01*
X88809428Y-73114553D01*
X88781490Y-73255008D01*
X88781490Y-73398214D01*
X88809428Y-73538669D01*
X88864231Y-73670975D01*
X88943792Y-73790047D01*
X89045054Y-73891309D01*
X89164126Y-73970870D01*
X89296432Y-74025673D01*
X89436887Y-74053611D01*
X89580093Y-74053611D01*
X89720548Y-74025673D01*
X89852854Y-73970870D01*
X89971926Y-73891309D01*
X90073188Y-73790047D01*
X90097534Y-73753611D01*
X103045633Y-73753611D01*
X103066611Y-73755677D01*
X103087588Y-73753611D01*
X103087589Y-73753611D01*
X103150318Y-73747433D01*
X103230807Y-73723016D01*
X103304987Y-73683366D01*
X103370006Y-73630006D01*
X103423366Y-73564987D01*
X103431961Y-73548907D01*
X103985369Y-72995500D01*
X107887533Y-72995500D01*
X107908500Y-72997565D01*
X107929467Y-72995500D01*
X107929478Y-72995500D01*
X107992207Y-72989322D01*
X108072696Y-72964905D01*
X108146876Y-72925255D01*
X108211895Y-72871895D01*
X108225268Y-72855600D01*
X110395606Y-70685263D01*
X110411895Y-70671895D01*
X110425264Y-70655605D01*
X110425268Y-70655601D01*
X110465255Y-70606877D01*
X110487678Y-70564926D01*
X110504905Y-70532696D01*
X110529322Y-70452207D01*
X110535500Y-70389478D01*
X110535500Y-70389467D01*
X110537565Y-70368500D01*
X110535500Y-70347533D01*
X110535500Y-66865711D01*
X110865424Y-66535788D01*
X110908403Y-66544337D01*
X111051609Y-66544337D01*
X111192064Y-66516399D01*
X111324370Y-66461596D01*
X111443442Y-66382035D01*
X111544704Y-66280773D01*
X111624265Y-66161701D01*
X111679068Y-66029395D01*
X111707006Y-65888940D01*
X111707006Y-65745734D01*
X111679068Y-65605279D01*
X111624265Y-65472973D01*
X111544704Y-65353901D01*
X111443442Y-65252639D01*
X111324370Y-65173078D01*
X111192064Y-65118275D01*
X111051609Y-65090337D01*
X110908403Y-65090337D01*
X110767948Y-65118275D01*
X110635642Y-65173078D01*
X110516570Y-65252639D01*
X110415308Y-65353901D01*
X110335747Y-65472973D01*
X110280944Y-65605279D01*
X110253006Y-65745734D01*
X110253006Y-65888940D01*
X110261555Y-65931919D01*
X110035500Y-66157975D01*
X110035500Y-61157544D01*
X110071936Y-61133198D01*
X110173198Y-61031936D01*
X110252759Y-60912864D01*
X110307562Y-60780558D01*
X110335500Y-60640103D01*
X110335500Y-60496897D01*
X110307562Y-60356442D01*
X110252759Y-60224136D01*
X110173198Y-60105064D01*
X110071936Y-60003802D01*
X109952864Y-59924241D01*
X109820558Y-59869438D01*
X109680103Y-59841500D01*
X109536897Y-59841500D01*
X109396442Y-59869438D01*
X109264136Y-59924241D01*
X109145064Y-60003802D01*
X109043802Y-60105064D01*
X108964241Y-60224136D01*
X108909438Y-60356442D01*
X108881500Y-60496897D01*
X108881500Y-60640103D01*
X108909438Y-60780558D01*
X108964241Y-60912864D01*
X109043802Y-61031936D01*
X109145064Y-61133198D01*
X109181500Y-61157544D01*
X109181501Y-70091630D01*
X107631598Y-71641534D01*
X105833602Y-71641534D01*
X105852759Y-71612864D01*
X105907562Y-71480558D01*
X105935500Y-71340103D01*
X105935500Y-71196897D01*
X105907562Y-71056442D01*
X105852759Y-70924136D01*
X105833625Y-70895500D01*
X106919456Y-70895500D01*
X106943802Y-70931936D01*
X107045064Y-71033198D01*
X107164136Y-71112759D01*
X107296442Y-71167562D01*
X107436897Y-71195500D01*
X107580103Y-71195500D01*
X107720558Y-71167562D01*
X107852864Y-71112759D01*
X107971936Y-71033198D01*
X108073198Y-70931936D01*
X108152759Y-70812864D01*
X108207562Y-70680558D01*
X108235500Y-70540103D01*
X108235500Y-70396897D01*
X108207562Y-70256442D01*
X108152759Y-70124136D01*
X108073198Y-70005064D01*
X107971936Y-69903802D01*
X107852864Y-69824241D01*
X107720558Y-69769438D01*
X107580103Y-69741500D01*
X107436897Y-69741500D01*
X107296442Y-69769438D01*
X107164136Y-69824241D01*
X107045064Y-69903802D01*
X106943802Y-70005064D01*
X106919456Y-70041500D01*
X105682319Y-70041500D01*
X105707562Y-69980558D01*
X105735500Y-69840103D01*
X105735500Y-69696897D01*
X105707562Y-69556442D01*
X105652759Y-69424136D01*
X105573198Y-69305064D01*
X105471936Y-69203802D01*
X105352864Y-69124241D01*
X105220558Y-69069438D01*
X105080103Y-69041500D01*
X104936897Y-69041500D01*
X104893918Y-69050049D01*
X104725268Y-68881400D01*
X104711895Y-68865105D01*
X104646876Y-68811745D01*
X104572696Y-68772095D01*
X104492207Y-68747678D01*
X104429478Y-68741500D01*
X104429467Y-68741500D01*
X104408500Y-68739435D01*
X104387533Y-68741500D01*
X89597544Y-68741500D01*
X89573198Y-68705064D01*
X89471936Y-68603802D01*
X89352864Y-68524241D01*
X89220558Y-68469438D01*
X89080103Y-68441500D01*
X88936897Y-68441500D01*
X88796442Y-68469438D01*
X88664136Y-68524241D01*
X88545064Y-68603802D01*
X88443802Y-68705064D01*
X88364241Y-68824136D01*
X88325509Y-68917643D01*
X88189234Y-68781368D01*
X88175861Y-68765073D01*
X88110842Y-68711713D01*
X88036662Y-68672063D01*
X87956173Y-68647646D01*
X87893444Y-68641468D01*
X87893433Y-68641468D01*
X87872466Y-68639403D01*
X87851499Y-68641468D01*
X86139400Y-68641468D01*
X87685369Y-67095500D01*
X91487533Y-67095500D01*
X91508500Y-67097565D01*
X91529467Y-67095500D01*
X91529478Y-67095500D01*
X91592207Y-67089322D01*
X91672696Y-67064905D01*
X91746876Y-67025255D01*
X91811895Y-66971895D01*
X91825268Y-66955600D01*
X92795604Y-65985265D01*
X92811893Y-65971897D01*
X92825262Y-65955607D01*
X92825266Y-65955603D01*
X92861741Y-65911159D01*
X92864136Y-65912759D01*
X92996442Y-65967562D01*
X93136897Y-65995500D01*
X93280103Y-65995500D01*
X93420558Y-65967562D01*
X93552864Y-65912759D01*
X93671936Y-65833198D01*
X93773198Y-65731936D01*
X93852759Y-65612864D01*
X93907562Y-65480558D01*
X93935500Y-65340103D01*
X93935500Y-65196897D01*
X93926951Y-65153917D01*
X94485357Y-64595512D01*
X98032177Y-64595512D01*
X98067184Y-64624241D01*
X98068434Y-64625267D01*
X98142614Y-64664917D01*
X98223103Y-64689334D01*
X98285832Y-64695512D01*
X98285844Y-64695512D01*
X98306809Y-64697577D01*
X98327774Y-64695512D01*
X104565959Y-64695512D01*
X105226051Y-65355605D01*
X105239420Y-65371895D01*
X105255710Y-65385264D01*
X105255714Y-65385268D01*
X105304438Y-65425255D01*
X105334831Y-65441500D01*
X105378619Y-65464905D01*
X105459108Y-65489322D01*
X105519289Y-65495249D01*
X105543802Y-65531936D01*
X105645064Y-65633198D01*
X105764136Y-65712759D01*
X105896442Y-65767562D01*
X106036897Y-65795500D01*
X106180103Y-65795500D01*
X106320558Y-65767562D01*
X106452864Y-65712759D01*
X106571936Y-65633198D01*
X106673198Y-65531936D01*
X106752759Y-65412864D01*
X106807562Y-65280558D01*
X106835500Y-65140103D01*
X106835500Y-64996897D01*
X106807562Y-64856442D01*
X106752759Y-64724136D01*
X106673198Y-64605064D01*
X106611503Y-64543369D01*
X106621616Y-64533255D01*
X106701177Y-64414183D01*
X106755980Y-64281877D01*
X106783918Y-64141422D01*
X106783918Y-63998216D01*
X106775369Y-63955236D01*
X107395604Y-63335002D01*
X107411894Y-63321633D01*
X107425263Y-63305343D01*
X107425267Y-63305339D01*
X107465254Y-63256615D01*
X107504903Y-63182435D01*
X107504904Y-63182434D01*
X107529321Y-63101945D01*
X107535499Y-63039216D01*
X107535499Y-63039206D01*
X107537564Y-63018239D01*
X107535499Y-62997272D01*
X107535499Y-60189463D01*
X107537564Y-60168498D01*
X107535499Y-60147533D01*
X107535499Y-60147521D01*
X107529321Y-60084792D01*
X107504904Y-60004303D01*
X107465255Y-59930124D01*
X107465254Y-59930122D01*
X107425267Y-59881397D01*
X107425258Y-59881388D01*
X107411894Y-59865104D01*
X107395610Y-59851741D01*
X107326951Y-59783081D01*
X107335500Y-59740103D01*
X107335500Y-59596897D01*
X107307562Y-59456442D01*
X107252759Y-59324136D01*
X107173198Y-59205064D01*
X107071936Y-59103802D01*
X106952864Y-59024241D01*
X106820558Y-58969438D01*
X106680103Y-58941500D01*
X106536897Y-58941500D01*
X106396442Y-58969438D01*
X106264136Y-59024241D01*
X106145064Y-59103802D01*
X106043802Y-59205064D01*
X105964241Y-59324136D01*
X105909438Y-59456442D01*
X105881500Y-59596897D01*
X105881500Y-59740103D01*
X105909438Y-59880558D01*
X105964241Y-60012864D01*
X106043802Y-60131936D01*
X106145064Y-60233198D01*
X106264136Y-60312759D01*
X106396442Y-60367562D01*
X106536897Y-60395500D01*
X106680103Y-60395500D01*
X106681499Y-60395222D01*
X106681500Y-62789836D01*
X106654286Y-62724136D01*
X106574725Y-62605064D01*
X106473463Y-62503802D01*
X106354391Y-62424241D01*
X106222085Y-62369438D01*
X106081630Y-62341500D01*
X105938424Y-62341500D01*
X105895445Y-62350049D01*
X105214272Y-61668877D01*
X105200899Y-61652582D01*
X105135880Y-61599222D01*
X105061700Y-61559572D01*
X104981211Y-61535155D01*
X104918482Y-61528977D01*
X104918471Y-61528977D01*
X104897504Y-61526912D01*
X104876537Y-61528977D01*
X98198987Y-61528977D01*
X98178020Y-61526912D01*
X98157053Y-61528977D01*
X98157042Y-61528977D01*
X98094313Y-61535155D01*
X98032557Y-61553889D01*
X98013823Y-61559572D01*
X97939643Y-61599221D01*
X97890919Y-61639209D01*
X97890915Y-61639213D01*
X97874625Y-61652582D01*
X97861256Y-61668872D01*
X97588641Y-61941488D01*
X93563770Y-61941488D01*
X93542803Y-61939423D01*
X93521836Y-61941488D01*
X93521826Y-61941488D01*
X93459097Y-61947666D01*
X93378608Y-61972083D01*
X93344077Y-61990540D01*
X93304427Y-62011733D01*
X93255702Y-62051720D01*
X93255693Y-62051729D01*
X93239409Y-62065093D01*
X93226045Y-62081377D01*
X91121377Y-64186047D01*
X91105082Y-64199420D01*
X91091710Y-64215714D01*
X91091709Y-64215715D01*
X91051722Y-64264439D01*
X91034504Y-64296653D01*
X91012072Y-64338620D01*
X90987655Y-64419109D01*
X90981728Y-64479289D01*
X90945041Y-64503802D01*
X90843779Y-64605064D01*
X90819433Y-64641500D01*
X90129467Y-64641500D01*
X90108500Y-64639435D01*
X90087533Y-64641500D01*
X90087522Y-64641500D01*
X90024793Y-64647678D01*
X89944304Y-64672095D01*
X89912056Y-64689332D01*
X89870123Y-64711745D01*
X89821399Y-64751732D01*
X89821395Y-64751736D01*
X89805105Y-64765105D01*
X89791736Y-64781395D01*
X88831632Y-65741500D01*
X80985369Y-65741500D01*
X79775258Y-64531390D01*
X79761885Y-64515095D01*
X79696866Y-64461735D01*
X79622686Y-64422085D01*
X79542197Y-64397668D01*
X79479468Y-64391490D01*
X79479457Y-64391490D01*
X79458490Y-64389425D01*
X79437523Y-64391490D01*
X77879456Y-64391490D01*
X77858489Y-64389425D01*
X77837522Y-64391490D01*
X77837512Y-64391490D01*
X77774783Y-64397668D01*
X77694294Y-64422085D01*
X77685896Y-64426574D01*
X77620113Y-64461735D01*
X77571389Y-64501722D01*
X77571385Y-64501726D01*
X77555095Y-64515095D01*
X77541726Y-64531385D01*
X77138100Y-64935011D01*
X77114103Y-64927732D01*
X77050000Y-64921418D01*
X76927000Y-64921418D01*
X76927000Y-63168500D01*
X79277983Y-63168500D01*
X79281500Y-63204208D01*
X79281500Y-63240103D01*
X79288503Y-63275310D01*
X79292020Y-63311017D01*
X79302435Y-63345351D01*
X79309438Y-63380558D01*
X79323174Y-63413720D01*
X79333590Y-63448057D01*
X79350505Y-63479703D01*
X79364241Y-63512864D01*
X79384183Y-63542710D01*
X79401097Y-63574353D01*
X79423858Y-63602088D01*
X79443802Y-63631936D01*
X79469183Y-63657317D01*
X79491946Y-63685054D01*
X79519681Y-63707815D01*
X79545064Y-63733198D01*
X79574912Y-63753142D01*
X79602647Y-63775903D01*
X79634290Y-63792817D01*
X79664136Y-63812759D01*
X79697297Y-63826495D01*
X79728943Y-63843410D01*
X79763280Y-63853826D01*
X79796442Y-63867562D01*
X79831649Y-63874565D01*
X79865983Y-63884980D01*
X79901690Y-63888497D01*
X79936897Y-63895500D01*
X88672792Y-63895500D01*
X88708500Y-63899017D01*
X88851017Y-63884980D01*
X88893454Y-63872107D01*
X88988057Y-63843410D01*
X89114353Y-63775903D01*
X89225054Y-63685054D01*
X89247817Y-63657317D01*
X89299698Y-63605436D01*
X89319648Y-63575578D01*
X89342402Y-63547852D01*
X89359310Y-63516220D01*
X89379259Y-63486364D01*
X89392997Y-63453197D01*
X89409910Y-63421556D01*
X89420325Y-63387222D01*
X89434062Y-63354058D01*
X89441065Y-63318850D01*
X89451480Y-63284517D01*
X89454997Y-63248810D01*
X89462000Y-63213603D01*
X89462000Y-63177708D01*
X89465517Y-63142000D01*
X89462000Y-63106292D01*
X89462000Y-63070397D01*
X89454997Y-63035190D01*
X89451480Y-62999483D01*
X89441065Y-62965149D01*
X89434062Y-62929942D01*
X89420326Y-62896780D01*
X89409910Y-62862443D01*
X89392996Y-62830799D01*
X89379259Y-62797636D01*
X89359313Y-62767784D01*
X89342402Y-62736147D01*
X89319647Y-62708420D01*
X89299698Y-62678564D01*
X89274308Y-62653174D01*
X89251553Y-62625447D01*
X89223826Y-62602692D01*
X89198436Y-62577302D01*
X89168580Y-62557353D01*
X89140853Y-62534598D01*
X89109216Y-62517687D01*
X89079364Y-62497741D01*
X89046201Y-62484004D01*
X89014557Y-62467090D01*
X88980220Y-62456674D01*
X88947058Y-62442938D01*
X88911851Y-62435935D01*
X88877517Y-62425520D01*
X88841810Y-62422003D01*
X88806603Y-62415000D01*
X88770708Y-62415000D01*
X88735000Y-62411483D01*
X88699292Y-62415000D01*
X88663397Y-62415000D01*
X88628190Y-62422003D01*
X88592483Y-62425520D01*
X88558150Y-62435935D01*
X88530171Y-62441500D01*
X79936897Y-62441500D01*
X79901690Y-62448503D01*
X79865983Y-62452020D01*
X79831649Y-62462435D01*
X79796442Y-62469438D01*
X79763280Y-62483174D01*
X79728943Y-62493590D01*
X79697297Y-62510505D01*
X79664136Y-62524241D01*
X79634290Y-62544183D01*
X79602647Y-62561097D01*
X79574912Y-62583858D01*
X79545064Y-62603802D01*
X79519683Y-62629183D01*
X79491946Y-62651946D01*
X79469183Y-62679683D01*
X79443802Y-62705064D01*
X79423858Y-62734912D01*
X79401097Y-62762647D01*
X79384183Y-62794290D01*
X79364241Y-62824136D01*
X79350505Y-62857297D01*
X79333590Y-62888943D01*
X79323174Y-62923280D01*
X79309438Y-62956442D01*
X79302435Y-62991649D01*
X79292020Y-63025983D01*
X79288503Y-63061690D01*
X79281500Y-63096897D01*
X79281500Y-63132792D01*
X79277983Y-63168500D01*
X76927000Y-63168500D01*
X76927000Y-62178132D01*
X78209634Y-60895500D01*
X90672792Y-60895500D01*
X90708500Y-60899017D01*
X90851017Y-60884980D01*
X90988057Y-60843410D01*
X91114353Y-60775903D01*
X91225054Y-60685054D01*
X91247826Y-60657306D01*
X96168314Y-55736819D01*
X96155741Y-55755636D01*
X96100938Y-55887942D01*
X96073000Y-56028397D01*
X96073000Y-56171603D01*
X96100938Y-56312058D01*
X96155741Y-56444364D01*
X96235302Y-56563436D01*
X96284005Y-56612139D01*
X96273344Y-56624985D01*
X96261603Y-56638741D01*
X96259903Y-56641182D01*
X96244555Y-56659676D01*
X96235935Y-56675593D01*
X96225577Y-56690464D01*
X96215942Y-56712509D01*
X96204500Y-56733638D01*
X96199150Y-56750934D01*
X96191894Y-56767536D01*
X96186749Y-56791022D01*
X96179643Y-56813993D01*
X96177769Y-56832014D01*
X96173894Y-56849700D01*
X96173429Y-56873732D01*
X96173122Y-56876687D01*
X96173023Y-56894733D01*
X96172268Y-56933794D01*
X96172793Y-56936731D01*
X96162293Y-58855956D01*
X96122628Y-58882459D01*
X96021366Y-58983721D01*
X95941805Y-59102793D01*
X95887002Y-59235099D01*
X95859064Y-59375554D01*
X95859064Y-59518760D01*
X95887002Y-59659215D01*
X95941805Y-59791521D01*
X96021366Y-59910593D01*
X96122628Y-60011855D01*
X96241700Y-60091416D01*
X96374006Y-60146219D01*
X96514461Y-60174157D01*
X96657667Y-60174157D01*
X96798122Y-60146219D01*
X96930428Y-60091416D01*
X97049500Y-60011855D01*
X97150762Y-59910593D01*
X97230323Y-59791521D01*
X97285126Y-59659215D01*
X97313064Y-59518760D01*
X97313064Y-59375554D01*
X97285126Y-59235099D01*
X97230323Y-59102793D01*
X97150762Y-58983721D01*
X97049500Y-58882459D01*
X97016281Y-58860263D01*
X97026139Y-57058462D01*
X97100178Y-56971720D01*
X97103395Y-56969080D01*
X97127448Y-56939772D01*
X97138397Y-56926944D01*
X97140762Y-56923548D01*
X97156755Y-56904061D01*
X97164739Y-56889125D01*
X97174422Y-56875222D01*
X97184520Y-56852117D01*
X97196405Y-56829881D01*
X97201324Y-56813666D01*
X97208105Y-56798150D01*
X97213497Y-56773537D01*
X97220822Y-56749392D01*
X97222484Y-56732521D01*
X97226106Y-56715987D01*
X97226593Y-56690795D01*
X97226749Y-56689211D01*
X97263436Y-56664698D01*
X97364698Y-56563436D01*
X97444259Y-56444364D01*
X97499062Y-56312058D01*
X97527000Y-56171603D01*
X97527000Y-56028397D01*
X97499062Y-55887942D01*
X97444259Y-55755636D01*
X97364698Y-55636564D01*
X97263436Y-55535302D01*
X97144364Y-55455741D01*
X97012058Y-55400938D01*
X96871603Y-55373000D01*
X96728397Y-55373000D01*
X96587942Y-55400938D01*
X96455636Y-55455741D01*
X96436820Y-55468314D01*
X98064315Y-53840819D01*
X107181500Y-53840819D01*
X107181500Y-54496181D01*
X107309355Y-55138950D01*
X107560151Y-55744425D01*
X107924250Y-56289339D01*
X108387661Y-56752750D01*
X108932575Y-57116849D01*
X109538050Y-57367645D01*
X110180819Y-57495500D01*
X110836181Y-57495500D01*
X111478950Y-57367645D01*
X112084425Y-57116849D01*
X112629339Y-56752750D01*
X113092750Y-56289339D01*
X113456849Y-55744425D01*
X113707645Y-55138950D01*
X113835500Y-54496181D01*
X113835500Y-53840819D01*
X113707645Y-53198050D01*
X113456849Y-52592575D01*
X113092750Y-52047661D01*
X112629339Y-51584250D01*
X112084425Y-51220151D01*
X111478950Y-50969355D01*
X110836181Y-50841500D01*
X110180819Y-50841500D01*
X109538050Y-50969355D01*
X108932575Y-51220151D01*
X108387661Y-51584250D01*
X107924250Y-52047661D01*
X107560151Y-52592575D01*
X107309355Y-53198050D01*
X107181500Y-53840819D01*
X98064315Y-53840819D01*
X99109634Y-52795500D01*
X99380103Y-52795500D01*
X99415310Y-52788497D01*
X99451017Y-52784980D01*
X99485351Y-52774565D01*
X99520558Y-52767562D01*
X99553720Y-52753826D01*
X99588057Y-52743410D01*
X99619703Y-52726495D01*
X99652864Y-52712759D01*
X99682710Y-52692817D01*
X99714353Y-52675903D01*
X99742088Y-52653142D01*
X99771936Y-52633198D01*
X99797317Y-52607817D01*
X99825054Y-52585054D01*
X99847817Y-52557317D01*
X99873198Y-52531936D01*
X99893142Y-52502088D01*
X99915903Y-52474353D01*
X99932817Y-52442710D01*
X99952759Y-52412864D01*
X99966495Y-52379703D01*
X99983410Y-52348057D01*
X99993826Y-52313720D01*
X100007562Y-52280558D01*
X100014565Y-52245351D01*
X100024980Y-52211017D01*
X100028497Y-52175310D01*
X100035500Y-52140103D01*
X100035500Y-52104208D01*
X100039017Y-52068500D01*
X100035500Y-52032792D01*
X100035500Y-51996897D01*
X100028497Y-51961690D01*
X100024980Y-51925983D01*
X100014565Y-51891649D01*
X100007562Y-51856442D01*
X99993826Y-51823280D01*
X99983410Y-51788943D01*
X99966495Y-51757297D01*
X99952759Y-51724136D01*
X99932817Y-51694290D01*
X99915903Y-51662647D01*
X99893142Y-51634912D01*
X99873198Y-51605064D01*
X99847817Y-51579683D01*
X99825054Y-51551946D01*
X99797317Y-51529183D01*
X99771936Y-51503802D01*
X99742088Y-51483858D01*
X99714353Y-51461097D01*
X99682710Y-51444183D01*
X99652864Y-51424241D01*
X99619703Y-51410505D01*
X99588057Y-51393590D01*
X99553720Y-51383174D01*
X99520558Y-51369438D01*
X99485351Y-51362435D01*
X99451017Y-51352020D01*
X99415310Y-51348503D01*
X99380103Y-51341500D01*
X98844208Y-51341500D01*
X98808500Y-51337983D01*
X98665982Y-51352020D01*
X98528943Y-51393590D01*
X98402647Y-51461097D01*
X98291946Y-51551946D01*
X98269183Y-51579683D01*
X90407368Y-59441500D01*
X77944208Y-59441500D01*
X77908500Y-59437983D01*
X77765982Y-59452020D01*
X77670856Y-59480876D01*
X77628943Y-59493590D01*
X77502647Y-59561097D01*
X77391946Y-59651946D01*
X77369183Y-59679683D01*
X75711189Y-61337679D01*
X75683447Y-61360446D01*
X75627682Y-61428397D01*
X75592598Y-61471147D01*
X75525090Y-61597444D01*
X75483520Y-61734483D01*
X75469483Y-61877000D01*
X75473001Y-61912718D01*
X75473000Y-64921418D01*
X75350000Y-64921418D01*
X75285897Y-64927732D01*
X75224257Y-64946430D01*
X75167450Y-64976794D01*
X75117657Y-65017657D01*
X75076794Y-65067450D01*
X75046430Y-65124257D01*
X75027732Y-65185897D01*
X75021418Y-65250000D01*
X75021418Y-65373000D01*
X74612708Y-65373000D01*
X74577000Y-65369483D01*
X74434482Y-65383520D01*
X74337747Y-65412864D01*
X74297443Y-65425090D01*
X74171147Y-65492597D01*
X74060446Y-65583446D01*
X74037679Y-65611188D01*
X72807368Y-66841500D01*
X69944208Y-66841500D01*
X69908500Y-66837983D01*
X69765982Y-66852020D01*
X69630077Y-66893246D01*
X69628943Y-66893590D01*
X69502647Y-66961097D01*
X69391946Y-67051946D01*
X69369183Y-67079683D01*
X68817692Y-67631176D01*
X68789951Y-67653942D01*
X68709939Y-67751438D01*
X68699102Y-67764643D01*
X68631594Y-67890940D01*
X68590024Y-68027979D01*
X68575987Y-68170496D01*
X68579505Y-68206214D01*
X68579505Y-68378893D01*
X68579504Y-68378897D01*
X68579504Y-68522103D01*
X68579505Y-68522107D01*
X68579504Y-69165371D01*
X68419689Y-69325187D01*
X68391947Y-69347954D01*
X68303605Y-69455600D01*
X68301098Y-69458655D01*
X68233590Y-69584952D01*
X68192020Y-69721991D01*
X68177983Y-69864508D01*
X68181501Y-69900226D01*
X68181500Y-76041500D01*
X65001520Y-76041500D01*
X64965814Y-76037983D01*
X64930109Y-76041500D01*
X64930107Y-76041500D01*
X64823298Y-76052020D01*
X64686258Y-76093590D01*
X64559962Y-76161097D01*
X64449261Y-76251946D01*
X64426489Y-76279694D01*
X64261189Y-76444994D01*
X64233447Y-76467761D01*
X64142598Y-76578462D01*
X64075090Y-76704758D01*
X64055754Y-76768501D01*
X64033520Y-76841798D01*
X64019483Y-76984315D01*
X52127000Y-76984315D01*
X52127000Y-47127000D01*
X56203446Y-47127000D01*
X53510448Y-49819999D01*
G36*
X100471549Y-71253950D02*
G01*
X100463000Y-71296929D01*
X100463000Y-71440135D01*
X100490938Y-71580590D01*
X100516182Y-71641534D01*
X91927401Y-71641534D01*
X91281399Y-70995533D01*
X100213133Y-70995533D01*
X100471549Y-71253950D01*
G37*
X100471549Y-71253950D02*
X100463000Y-71296929D01*
X100463000Y-71440135D01*
X100490938Y-71580590D01*
X100516182Y-71641534D01*
X91927401Y-71641534D01*
X91281399Y-70995533D01*
X100213133Y-70995533D01*
X100471549Y-71253950D01*
M02*
