G04 #@! TF.GenerationSoftware,KiCad,Pcbnew,(5.1.6-dirty)*
G04 #@! TF.CreationDate,2020-05-24T16:44:56+02:00*
G04 #@! TF.ProjectId,esp32control,65737033-3263-46f6-9e74-726f6c2e6b69,rev?*
G04 #@! TF.SameCoordinates,Original*
G04 #@! TF.FileFunction,Legend,Top*
G04 #@! TF.FilePolarity,Positive*
%FSLAX46Y46*%
G04 Gerber Fmt 4.6, Leading zero omitted, Abs format (unit mm)*
G04 Created by KiCad (PCBNEW (5.1.6-dirty)) date 2020-05-24 16:44:56*
%MOMM*%
%LPD*%
G01*
G04 APERTURE LIST*
%ADD10C,0.300000*%
%ADD11C,0.010000*%
%ADD12C,0.150000*%
%ADD13C,0.120000*%
%ADD14C,0.500000*%
%ADD15C,0.200000*%
G04 APERTURE END LIST*
D10*
X90622785Y-84625642D02*
X90622785Y-84225642D01*
X91251357Y-84054214D02*
X91251357Y-84625642D01*
X90051357Y-84625642D01*
X90051357Y-84054214D01*
X91194214Y-83597071D02*
X91251357Y-83425642D01*
X91251357Y-83139928D01*
X91194214Y-83025642D01*
X91137071Y-82968500D01*
X91022785Y-82911357D01*
X90908500Y-82911357D01*
X90794214Y-82968500D01*
X90737071Y-83025642D01*
X90679928Y-83139928D01*
X90622785Y-83368500D01*
X90565642Y-83482785D01*
X90508500Y-83539928D01*
X90394214Y-83597071D01*
X90279928Y-83597071D01*
X90165642Y-83539928D01*
X90108500Y-83482785D01*
X90051357Y-83368500D01*
X90051357Y-83082785D01*
X90108500Y-82911357D01*
X91251357Y-82397071D02*
X90051357Y-82397071D01*
X90051357Y-81939928D01*
X90108500Y-81825642D01*
X90165642Y-81768500D01*
X90279928Y-81711357D01*
X90451357Y-81711357D01*
X90565642Y-81768500D01*
X90622785Y-81825642D01*
X90679928Y-81939928D01*
X90679928Y-82397071D01*
X90051357Y-81311357D02*
X90051357Y-80568500D01*
X90508500Y-80968500D01*
X90508500Y-80797071D01*
X90565642Y-80682785D01*
X90622785Y-80625642D01*
X90737071Y-80568500D01*
X91022785Y-80568500D01*
X91137071Y-80625642D01*
X91194214Y-80682785D01*
X91251357Y-80797071D01*
X91251357Y-81139928D01*
X91194214Y-81254214D01*
X91137071Y-81311357D01*
X90165642Y-80111357D02*
X90108500Y-80054214D01*
X90051357Y-79939928D01*
X90051357Y-79654214D01*
X90108500Y-79539928D01*
X90165642Y-79482785D01*
X90279928Y-79425642D01*
X90394214Y-79425642D01*
X90565642Y-79482785D01*
X91251357Y-80168500D01*
X91251357Y-79425642D01*
X91137071Y-78225642D02*
X91194214Y-78282785D01*
X91251357Y-78454214D01*
X91251357Y-78568500D01*
X91194214Y-78739928D01*
X91079928Y-78854214D01*
X90965642Y-78911357D01*
X90737071Y-78968500D01*
X90565642Y-78968500D01*
X90337071Y-78911357D01*
X90222785Y-78854214D01*
X90108500Y-78739928D01*
X90051357Y-78568500D01*
X90051357Y-78454214D01*
X90108500Y-78282785D01*
X90165642Y-78225642D01*
X91251357Y-77539928D02*
X91194214Y-77654214D01*
X91137071Y-77711357D01*
X91022785Y-77768500D01*
X90679928Y-77768500D01*
X90565642Y-77711357D01*
X90508500Y-77654214D01*
X90451357Y-77539928D01*
X90451357Y-77368500D01*
X90508500Y-77254214D01*
X90565642Y-77197071D01*
X90679928Y-77139928D01*
X91022785Y-77139928D01*
X91137071Y-77197071D01*
X91194214Y-77254214D01*
X91251357Y-77368500D01*
X91251357Y-77539928D01*
X90451357Y-76625642D02*
X91251357Y-76625642D01*
X90565642Y-76625642D02*
X90508500Y-76568500D01*
X90451357Y-76454214D01*
X90451357Y-76282785D01*
X90508500Y-76168500D01*
X90622785Y-76111357D01*
X91251357Y-76111357D01*
X90451357Y-75711357D02*
X90451357Y-75254214D01*
X90051357Y-75539928D02*
X91079928Y-75539928D01*
X91194214Y-75482785D01*
X91251357Y-75368500D01*
X91251357Y-75254214D01*
X91251357Y-74854214D02*
X90451357Y-74854214D01*
X90679928Y-74854214D02*
X90565642Y-74797071D01*
X90508500Y-74739928D01*
X90451357Y-74625642D01*
X90451357Y-74511357D01*
X91251357Y-73939928D02*
X91194214Y-74054214D01*
X91137071Y-74111357D01*
X91022785Y-74168500D01*
X90679928Y-74168500D01*
X90565642Y-74111357D01*
X90508500Y-74054214D01*
X90451357Y-73939928D01*
X90451357Y-73768500D01*
X90508500Y-73654214D01*
X90565642Y-73597071D01*
X90679928Y-73539928D01*
X91022785Y-73539928D01*
X91137071Y-73597071D01*
X91194214Y-73654214D01*
X91251357Y-73768500D01*
X91251357Y-73939928D01*
X91251357Y-72854214D02*
X91194214Y-72968500D01*
X91079928Y-73025642D01*
X90051357Y-73025642D01*
X91251357Y-70797071D02*
X90679928Y-71197071D01*
X91251357Y-71482785D02*
X90051357Y-71482785D01*
X90051357Y-71025642D01*
X90108500Y-70911357D01*
X90165642Y-70854214D01*
X90279928Y-70797071D01*
X90451357Y-70797071D01*
X90565642Y-70854214D01*
X90622785Y-70911357D01*
X90679928Y-71025642D01*
X90679928Y-71482785D01*
X91194214Y-69825642D02*
X91251357Y-69939928D01*
X91251357Y-70168500D01*
X91194214Y-70282785D01*
X91079928Y-70339928D01*
X90622785Y-70339928D01*
X90508500Y-70282785D01*
X90451357Y-70168500D01*
X90451357Y-69939928D01*
X90508500Y-69825642D01*
X90622785Y-69768500D01*
X90737071Y-69768500D01*
X90851357Y-70339928D01*
X90451357Y-69368500D02*
X91251357Y-69082785D01*
X90451357Y-68797071D01*
X90622785Y-67939928D02*
X90679928Y-67768500D01*
X90737071Y-67711357D01*
X90851357Y-67654214D01*
X91022785Y-67654214D01*
X91137071Y-67711357D01*
X91194214Y-67768500D01*
X91251357Y-67882785D01*
X91251357Y-68339928D01*
X90051357Y-68339928D01*
X90051357Y-67939928D01*
X90108500Y-67825642D01*
X90165642Y-67768500D01*
X90279928Y-67711357D01*
X90394214Y-67711357D01*
X90508500Y-67768500D01*
X90565642Y-67825642D01*
X90622785Y-67939928D01*
X90622785Y-68339928D01*
X54321428Y-46892857D02*
X54535714Y-46964285D01*
X54607142Y-47035714D01*
X54678571Y-47178571D01*
X54678571Y-47392857D01*
X54607142Y-47535714D01*
X54535714Y-47607142D01*
X54392857Y-47678571D01*
X53821428Y-47678571D01*
X53821428Y-46178571D01*
X54321428Y-46178571D01*
X54464285Y-46250000D01*
X54535714Y-46321428D01*
X54607142Y-46464285D01*
X54607142Y-46607142D01*
X54535714Y-46750000D01*
X54464285Y-46821428D01*
X54321428Y-46892857D01*
X53821428Y-46892857D01*
X55535714Y-47678571D02*
X55392857Y-47607142D01*
X55321428Y-47535714D01*
X55250000Y-47392857D01*
X55250000Y-46964285D01*
X55321428Y-46821428D01*
X55392857Y-46750000D01*
X55535714Y-46678571D01*
X55750000Y-46678571D01*
X55892857Y-46750000D01*
X55964285Y-46821428D01*
X56035714Y-46964285D01*
X56035714Y-47392857D01*
X55964285Y-47535714D01*
X55892857Y-47607142D01*
X55750000Y-47678571D01*
X55535714Y-47678571D01*
X56892857Y-47678571D02*
X56750000Y-47607142D01*
X56678571Y-47535714D01*
X56607142Y-47392857D01*
X56607142Y-46964285D01*
X56678571Y-46821428D01*
X56750000Y-46750000D01*
X56892857Y-46678571D01*
X57107142Y-46678571D01*
X57250000Y-46750000D01*
X57321428Y-46821428D01*
X57392857Y-46964285D01*
X57392857Y-47392857D01*
X57321428Y-47535714D01*
X57250000Y-47607142D01*
X57107142Y-47678571D01*
X56892857Y-47678571D01*
X57821428Y-46678571D02*
X58392857Y-46678571D01*
X58035714Y-46178571D02*
X58035714Y-47464285D01*
X58107142Y-47607142D01*
X58250000Y-47678571D01*
X58392857Y-47678571D01*
X61142857Y-47678571D02*
X60642857Y-46964285D01*
X60285714Y-47678571D02*
X60285714Y-46178571D01*
X60857142Y-46178571D01*
X61000000Y-46250000D01*
X61071428Y-46321428D01*
X61142857Y-46464285D01*
X61142857Y-46678571D01*
X61071428Y-46821428D01*
X61000000Y-46892857D01*
X60857142Y-46964285D01*
X60285714Y-46964285D01*
X62357142Y-47607142D02*
X62214285Y-47678571D01*
X61928571Y-47678571D01*
X61785714Y-47607142D01*
X61714285Y-47464285D01*
X61714285Y-46892857D01*
X61785714Y-46750000D01*
X61928571Y-46678571D01*
X62214285Y-46678571D01*
X62357142Y-46750000D01*
X62428571Y-46892857D01*
X62428571Y-47035714D01*
X61714285Y-47178571D01*
X63000000Y-47607142D02*
X63142857Y-47678571D01*
X63428571Y-47678571D01*
X63571428Y-47607142D01*
X63642857Y-47464285D01*
X63642857Y-47392857D01*
X63571428Y-47250000D01*
X63428571Y-47178571D01*
X63214285Y-47178571D01*
X63071428Y-47107142D01*
X63000000Y-46964285D01*
X63000000Y-46892857D01*
X63071428Y-46750000D01*
X63214285Y-46678571D01*
X63428571Y-46678571D01*
X63571428Y-46750000D01*
X64857142Y-47607142D02*
X64714285Y-47678571D01*
X64428571Y-47678571D01*
X64285714Y-47607142D01*
X64214285Y-47464285D01*
X64214285Y-46892857D01*
X64285714Y-46750000D01*
X64428571Y-46678571D01*
X64714285Y-46678571D01*
X64857142Y-46750000D01*
X64928571Y-46892857D01*
X64928571Y-47035714D01*
X64214285Y-47178571D01*
X65357142Y-46678571D02*
X65928571Y-46678571D01*
X65571428Y-46178571D02*
X65571428Y-47464285D01*
X65642857Y-47607142D01*
X65785714Y-47678571D01*
X65928571Y-47678571D01*
D11*
G36*
X82508244Y-74388418D02*
G01*
X82563701Y-74416068D01*
X82612648Y-74466980D01*
X82626129Y-74485838D01*
X82640814Y-74510515D01*
X82650342Y-74537316D01*
X82655793Y-74573087D01*
X82658247Y-74624669D01*
X82658786Y-74692767D01*
X82656352Y-74786088D01*
X82647894Y-74856157D01*
X82631674Y-74908431D01*
X82605954Y-74948369D01*
X82568997Y-74981429D01*
X82566282Y-74983386D01*
X82529860Y-75003408D01*
X82486002Y-75013315D01*
X82430224Y-75015757D01*
X82339548Y-75015757D01*
X82339510Y-75103783D01*
X82338666Y-75152808D01*
X82333524Y-75181565D01*
X82320087Y-75198811D01*
X82294358Y-75213308D01*
X82288179Y-75216269D01*
X82259264Y-75230148D01*
X82236876Y-75238914D01*
X82220229Y-75239671D01*
X82208536Y-75229523D01*
X82201010Y-75205573D01*
X82196866Y-75164926D01*
X82195315Y-75104686D01*
X82195571Y-75021955D01*
X82196849Y-74913839D01*
X82197248Y-74881500D01*
X82198685Y-74770024D01*
X82199972Y-74697103D01*
X82339471Y-74697103D01*
X82340255Y-74758999D01*
X82343740Y-74799497D01*
X82351624Y-74826208D01*
X82365605Y-74846744D01*
X82375097Y-74856760D01*
X82413904Y-74886067D01*
X82448263Y-74888452D01*
X82483716Y-74864250D01*
X82484614Y-74863357D01*
X82499039Y-74844653D01*
X82507813Y-74819232D01*
X82512239Y-74780084D01*
X82513618Y-74720197D01*
X82513643Y-74706930D01*
X82510312Y-74624401D01*
X82499469Y-74567191D01*
X82479840Y-74532266D01*
X82450150Y-74516594D01*
X82432991Y-74515014D01*
X82392266Y-74522426D01*
X82364332Y-74546830D01*
X82347517Y-74591480D01*
X82340150Y-74659630D01*
X82339471Y-74697103D01*
X82199972Y-74697103D01*
X82200208Y-74683745D01*
X82202177Y-74618833D01*
X82204950Y-74571458D01*
X82208888Y-74537790D01*
X82214349Y-74513998D01*
X82221692Y-74496253D01*
X82231277Y-74480724D01*
X82235387Y-74474881D01*
X82289905Y-74419685D01*
X82358836Y-74388390D01*
X82438572Y-74379665D01*
X82508244Y-74388418D01*
G37*
X82508244Y-74388418D02*
X82563701Y-74416068D01*
X82612648Y-74466980D01*
X82626129Y-74485838D01*
X82640814Y-74510515D01*
X82650342Y-74537316D01*
X82655793Y-74573087D01*
X82658247Y-74624669D01*
X82658786Y-74692767D01*
X82656352Y-74786088D01*
X82647894Y-74856157D01*
X82631674Y-74908431D01*
X82605954Y-74948369D01*
X82568997Y-74981429D01*
X82566282Y-74983386D01*
X82529860Y-75003408D01*
X82486002Y-75013315D01*
X82430224Y-75015757D01*
X82339548Y-75015757D01*
X82339510Y-75103783D01*
X82338666Y-75152808D01*
X82333524Y-75181565D01*
X82320087Y-75198811D01*
X82294358Y-75213308D01*
X82288179Y-75216269D01*
X82259264Y-75230148D01*
X82236876Y-75238914D01*
X82220229Y-75239671D01*
X82208536Y-75229523D01*
X82201010Y-75205573D01*
X82196866Y-75164926D01*
X82195315Y-75104686D01*
X82195571Y-75021955D01*
X82196849Y-74913839D01*
X82197248Y-74881500D01*
X82198685Y-74770024D01*
X82199972Y-74697103D01*
X82339471Y-74697103D01*
X82340255Y-74758999D01*
X82343740Y-74799497D01*
X82351624Y-74826208D01*
X82365605Y-74846744D01*
X82375097Y-74856760D01*
X82413904Y-74886067D01*
X82448263Y-74888452D01*
X82483716Y-74864250D01*
X82484614Y-74863357D01*
X82499039Y-74844653D01*
X82507813Y-74819232D01*
X82512239Y-74780084D01*
X82513618Y-74720197D01*
X82513643Y-74706930D01*
X82510312Y-74624401D01*
X82499469Y-74567191D01*
X82479840Y-74532266D01*
X82450150Y-74516594D01*
X82432991Y-74515014D01*
X82392266Y-74522426D01*
X82364332Y-74546830D01*
X82347517Y-74591480D01*
X82340150Y-74659630D01*
X82339471Y-74697103D01*
X82199972Y-74697103D01*
X82200208Y-74683745D01*
X82202177Y-74618833D01*
X82204950Y-74571458D01*
X82208888Y-74537790D01*
X82214349Y-74513998D01*
X82221692Y-74496253D01*
X82231277Y-74480724D01*
X82235387Y-74474881D01*
X82289905Y-74419685D01*
X82358836Y-74388390D01*
X82438572Y-74379665D01*
X82508244Y-74388418D01*
G36*
X83624593Y-74396280D02*
G01*
X83671172Y-74423223D01*
X83703557Y-74449966D01*
X83727242Y-74477984D01*
X83743559Y-74512248D01*
X83753839Y-74557727D01*
X83759414Y-74619392D01*
X83761616Y-74702211D01*
X83761871Y-74761746D01*
X83761871Y-74980891D01*
X83700186Y-75008544D01*
X83638500Y-75036197D01*
X83631243Y-74796170D01*
X83628244Y-74706528D01*
X83625098Y-74641462D01*
X83621201Y-74596526D01*
X83615947Y-74567270D01*
X83608731Y-74549248D01*
X83598950Y-74538011D01*
X83595812Y-74535579D01*
X83548261Y-74516583D01*
X83500197Y-74524100D01*
X83471586Y-74544043D01*
X83459947Y-74558175D01*
X83451891Y-74576720D01*
X83446771Y-74604834D01*
X83443941Y-74647673D01*
X83442756Y-74710395D01*
X83442557Y-74775761D01*
X83442518Y-74857768D01*
X83441114Y-74915816D01*
X83436414Y-74954965D01*
X83426487Y-74980280D01*
X83409403Y-74996823D01*
X83383232Y-75009656D01*
X83348275Y-75022991D01*
X83310096Y-75037507D01*
X83314641Y-74779889D01*
X83316471Y-74687019D01*
X83318612Y-74618389D01*
X83321681Y-74569211D01*
X83326294Y-74534698D01*
X83333068Y-74510062D01*
X83342619Y-74490516D01*
X83354134Y-74473270D01*
X83409690Y-74418180D01*
X83477480Y-74386322D01*
X83551213Y-74378691D01*
X83624593Y-74396280D01*
G37*
X83624593Y-74396280D02*
X83671172Y-74423223D01*
X83703557Y-74449966D01*
X83727242Y-74477984D01*
X83743559Y-74512248D01*
X83753839Y-74557727D01*
X83759414Y-74619392D01*
X83761616Y-74702211D01*
X83761871Y-74761746D01*
X83761871Y-74980891D01*
X83700186Y-75008544D01*
X83638500Y-75036197D01*
X83631243Y-74796170D01*
X83628244Y-74706528D01*
X83625098Y-74641462D01*
X83621201Y-74596526D01*
X83615947Y-74567270D01*
X83608731Y-74549248D01*
X83598950Y-74538011D01*
X83595812Y-74535579D01*
X83548261Y-74516583D01*
X83500197Y-74524100D01*
X83471586Y-74544043D01*
X83459947Y-74558175D01*
X83451891Y-74576720D01*
X83446771Y-74604834D01*
X83443941Y-74647673D01*
X83442756Y-74710395D01*
X83442557Y-74775761D01*
X83442518Y-74857768D01*
X83441114Y-74915816D01*
X83436414Y-74954965D01*
X83426487Y-74980280D01*
X83409403Y-74996823D01*
X83383232Y-75009656D01*
X83348275Y-75022991D01*
X83310096Y-75037507D01*
X83314641Y-74779889D01*
X83316471Y-74687019D01*
X83318612Y-74618389D01*
X83321681Y-74569211D01*
X83326294Y-74534698D01*
X83333068Y-74510062D01*
X83342619Y-74490516D01*
X83354134Y-74473270D01*
X83409690Y-74418180D01*
X83477480Y-74386322D01*
X83551213Y-74378691D01*
X83624593Y-74396280D01*
G36*
X81949615Y-74390462D02*
G01*
X82017645Y-74426233D01*
X82067851Y-74483801D01*
X82085685Y-74520812D01*
X82099563Y-74576382D01*
X82106667Y-74646596D01*
X82107340Y-74723227D01*
X82101927Y-74798052D01*
X82090770Y-74862842D01*
X82074214Y-74909373D01*
X82069126Y-74917387D01*
X82008855Y-74977207D01*
X81937269Y-75013035D01*
X81859592Y-75023520D01*
X81781048Y-75007310D01*
X81759189Y-74997592D01*
X81716622Y-74967643D01*
X81679263Y-74927933D01*
X81675732Y-74922897D01*
X81661381Y-74898624D01*
X81651894Y-74872678D01*
X81646290Y-74838522D01*
X81643586Y-74789619D01*
X81642799Y-74719435D01*
X81642786Y-74703700D01*
X81642822Y-74698692D01*
X81787929Y-74698692D01*
X81788773Y-74764930D01*
X81792096Y-74808886D01*
X81799083Y-74837279D01*
X81810916Y-74856825D01*
X81816957Y-74863357D01*
X81851686Y-74888180D01*
X81885403Y-74887048D01*
X81919495Y-74865516D01*
X81939829Y-74842529D01*
X81951871Y-74808978D01*
X81958634Y-74756069D01*
X81959098Y-74749899D01*
X81960252Y-74654013D01*
X81948188Y-74582799D01*
X81923070Y-74536694D01*
X81885060Y-74516135D01*
X81871492Y-74515014D01*
X81835864Y-74520652D01*
X81811494Y-74540186D01*
X81796593Y-74577542D01*
X81789375Y-74636650D01*
X81787929Y-74698692D01*
X81642822Y-74698692D01*
X81643326Y-74628913D01*
X81645596Y-74576659D01*
X81650568Y-74540449D01*
X81659213Y-74513799D01*
X81672505Y-74490222D01*
X81675443Y-74485838D01*
X81724813Y-74426749D01*
X81778609Y-74392447D01*
X81844102Y-74378831D01*
X81866342Y-74378165D01*
X81949615Y-74390462D01*
G37*
X81949615Y-74390462D02*
X82017645Y-74426233D01*
X82067851Y-74483801D01*
X82085685Y-74520812D01*
X82099563Y-74576382D01*
X82106667Y-74646596D01*
X82107340Y-74723227D01*
X82101927Y-74798052D01*
X82090770Y-74862842D01*
X82074214Y-74909373D01*
X82069126Y-74917387D01*
X82008855Y-74977207D01*
X81937269Y-75013035D01*
X81859592Y-75023520D01*
X81781048Y-75007310D01*
X81759189Y-74997592D01*
X81716622Y-74967643D01*
X81679263Y-74927933D01*
X81675732Y-74922897D01*
X81661381Y-74898624D01*
X81651894Y-74872678D01*
X81646290Y-74838522D01*
X81643586Y-74789619D01*
X81642799Y-74719435D01*
X81642786Y-74703700D01*
X81642822Y-74698692D01*
X81787929Y-74698692D01*
X81788773Y-74764930D01*
X81792096Y-74808886D01*
X81799083Y-74837279D01*
X81810916Y-74856825D01*
X81816957Y-74863357D01*
X81851686Y-74888180D01*
X81885403Y-74887048D01*
X81919495Y-74865516D01*
X81939829Y-74842529D01*
X81951871Y-74808978D01*
X81958634Y-74756069D01*
X81959098Y-74749899D01*
X81960252Y-74654013D01*
X81948188Y-74582799D01*
X81923070Y-74536694D01*
X81885060Y-74516135D01*
X81871492Y-74515014D01*
X81835864Y-74520652D01*
X81811494Y-74540186D01*
X81796593Y-74577542D01*
X81789375Y-74636650D01*
X81787929Y-74698692D01*
X81642822Y-74698692D01*
X81643326Y-74628913D01*
X81645596Y-74576659D01*
X81650568Y-74540449D01*
X81659213Y-74513799D01*
X81672505Y-74490222D01*
X81675443Y-74485838D01*
X81724813Y-74426749D01*
X81778609Y-74392447D01*
X81844102Y-74378831D01*
X81866342Y-74378165D01*
X81949615Y-74390462D01*
G36*
X83076803Y-74399739D02*
G01*
X83134027Y-74438235D01*
X83178249Y-74493835D01*
X83204667Y-74564586D01*
X83210010Y-74616662D01*
X83209403Y-74638393D01*
X83204322Y-74655031D01*
X83190355Y-74669937D01*
X83163089Y-74686473D01*
X83118112Y-74707998D01*
X83051011Y-74737874D01*
X83050671Y-74738024D01*
X82988907Y-74766313D01*
X82938259Y-74791433D01*
X82903904Y-74810679D01*
X82891018Y-74821348D01*
X82891014Y-74821434D01*
X82902372Y-74844666D01*
X82928931Y-74870274D01*
X82959423Y-74888721D01*
X82974870Y-74892386D01*
X83017015Y-74879712D01*
X83053308Y-74847971D01*
X83071017Y-74813072D01*
X83088052Y-74787345D01*
X83121422Y-74758046D01*
X83160649Y-74732735D01*
X83195256Y-74718971D01*
X83202493Y-74718214D01*
X83210639Y-74730660D01*
X83211130Y-74762472D01*
X83205143Y-74805366D01*
X83193857Y-74851058D01*
X83178450Y-74891261D01*
X83177671Y-74892822D01*
X83131304Y-74957562D01*
X83071211Y-75001597D01*
X83002965Y-75023211D01*
X82932138Y-75020685D01*
X82864304Y-74992304D01*
X82861288Y-74990308D01*
X82807927Y-74941948D01*
X82772840Y-74878852D01*
X82753422Y-74795887D01*
X82750816Y-74772578D01*
X82746201Y-74662555D01*
X82751733Y-74611248D01*
X82891014Y-74611248D01*
X82892824Y-74643253D01*
X82902722Y-74652593D01*
X82927398Y-74645605D01*
X82966295Y-74629087D01*
X83009775Y-74608381D01*
X83010856Y-74607833D01*
X83047709Y-74588449D01*
X83062500Y-74575513D01*
X83058853Y-74561951D01*
X83043495Y-74544132D01*
X83004423Y-74518345D01*
X82962346Y-74516450D01*
X82924603Y-74535217D01*
X82898534Y-74571415D01*
X82891014Y-74611248D01*
X82751733Y-74611248D01*
X82755694Y-74574527D01*
X82780050Y-74504712D01*
X82813956Y-74455802D01*
X82875153Y-74406378D01*
X82942563Y-74381859D01*
X83011380Y-74380297D01*
X83076803Y-74399739D01*
G37*
X83076803Y-74399739D02*
X83134027Y-74438235D01*
X83178249Y-74493835D01*
X83204667Y-74564586D01*
X83210010Y-74616662D01*
X83209403Y-74638393D01*
X83204322Y-74655031D01*
X83190355Y-74669937D01*
X83163089Y-74686473D01*
X83118112Y-74707998D01*
X83051011Y-74737874D01*
X83050671Y-74738024D01*
X82988907Y-74766313D01*
X82938259Y-74791433D01*
X82903904Y-74810679D01*
X82891018Y-74821348D01*
X82891014Y-74821434D01*
X82902372Y-74844666D01*
X82928931Y-74870274D01*
X82959423Y-74888721D01*
X82974870Y-74892386D01*
X83017015Y-74879712D01*
X83053308Y-74847971D01*
X83071017Y-74813072D01*
X83088052Y-74787345D01*
X83121422Y-74758046D01*
X83160649Y-74732735D01*
X83195256Y-74718971D01*
X83202493Y-74718214D01*
X83210639Y-74730660D01*
X83211130Y-74762472D01*
X83205143Y-74805366D01*
X83193857Y-74851058D01*
X83178450Y-74891261D01*
X83177671Y-74892822D01*
X83131304Y-74957562D01*
X83071211Y-75001597D01*
X83002965Y-75023211D01*
X82932138Y-75020685D01*
X82864304Y-74992304D01*
X82861288Y-74990308D01*
X82807927Y-74941948D01*
X82772840Y-74878852D01*
X82753422Y-74795887D01*
X82750816Y-74772578D01*
X82746201Y-74662555D01*
X82751733Y-74611248D01*
X82891014Y-74611248D01*
X82892824Y-74643253D01*
X82902722Y-74652593D01*
X82927398Y-74645605D01*
X82966295Y-74629087D01*
X83009775Y-74608381D01*
X83010856Y-74607833D01*
X83047709Y-74588449D01*
X83062500Y-74575513D01*
X83058853Y-74561951D01*
X83043495Y-74544132D01*
X83004423Y-74518345D01*
X82962346Y-74516450D01*
X82924603Y-74535217D01*
X82898534Y-74571415D01*
X82891014Y-74611248D01*
X82751733Y-74611248D01*
X82755694Y-74574527D01*
X82780050Y-74504712D01*
X82813956Y-74455802D01*
X82875153Y-74406378D01*
X82942563Y-74381859D01*
X83011380Y-74380297D01*
X83076803Y-74399739D01*
G36*
X84284386Y-74319789D02*
G01*
X84288639Y-74379113D01*
X84293525Y-74414072D01*
X84300295Y-74429320D01*
X84310202Y-74429515D01*
X84313414Y-74427695D01*
X84356144Y-74414515D01*
X84411727Y-74415285D01*
X84468237Y-74428833D01*
X84503582Y-74446361D01*
X84539821Y-74474361D01*
X84566313Y-74506049D01*
X84584499Y-74546313D01*
X84595822Y-74600043D01*
X84601722Y-74672126D01*
X84603643Y-74767451D01*
X84603677Y-74785737D01*
X84603700Y-74991146D01*
X84557991Y-75007080D01*
X84525527Y-75017920D01*
X84507715Y-75022968D01*
X84507191Y-75023014D01*
X84505437Y-75009328D01*
X84503944Y-74971576D01*
X84502826Y-74914724D01*
X84502197Y-74843734D01*
X84502100Y-74800573D01*
X84501898Y-74715473D01*
X84500858Y-74654481D01*
X84498331Y-74612677D01*
X84493664Y-74585142D01*
X84486207Y-74566956D01*
X84475311Y-74553198D01*
X84468507Y-74546573D01*
X84421772Y-74519875D01*
X84370772Y-74517875D01*
X84324501Y-74540455D01*
X84315944Y-74548607D01*
X84303393Y-74563936D01*
X84294688Y-74582118D01*
X84289131Y-74608409D01*
X84286026Y-74648062D01*
X84284676Y-74706332D01*
X84284386Y-74786673D01*
X84284386Y-74991146D01*
X84238677Y-75007080D01*
X84206213Y-75017920D01*
X84188401Y-75022968D01*
X84187877Y-75023014D01*
X84186537Y-75009123D01*
X84185328Y-74969939D01*
X84184301Y-74909200D01*
X84183502Y-74830641D01*
X84182981Y-74737998D01*
X84182786Y-74635009D01*
X84182786Y-74237842D01*
X84229957Y-74217944D01*
X84277129Y-74198047D01*
X84284386Y-74319789D01*
G37*
X84284386Y-74319789D02*
X84288639Y-74379113D01*
X84293525Y-74414072D01*
X84300295Y-74429320D01*
X84310202Y-74429515D01*
X84313414Y-74427695D01*
X84356144Y-74414515D01*
X84411727Y-74415285D01*
X84468237Y-74428833D01*
X84503582Y-74446361D01*
X84539821Y-74474361D01*
X84566313Y-74506049D01*
X84584499Y-74546313D01*
X84595822Y-74600043D01*
X84601722Y-74672126D01*
X84603643Y-74767451D01*
X84603677Y-74785737D01*
X84603700Y-74991146D01*
X84557991Y-75007080D01*
X84525527Y-75017920D01*
X84507715Y-75022968D01*
X84507191Y-75023014D01*
X84505437Y-75009328D01*
X84503944Y-74971576D01*
X84502826Y-74914724D01*
X84502197Y-74843734D01*
X84502100Y-74800573D01*
X84501898Y-74715473D01*
X84500858Y-74654481D01*
X84498331Y-74612677D01*
X84493664Y-74585142D01*
X84486207Y-74566956D01*
X84475311Y-74553198D01*
X84468507Y-74546573D01*
X84421772Y-74519875D01*
X84370772Y-74517875D01*
X84324501Y-74540455D01*
X84315944Y-74548607D01*
X84303393Y-74563936D01*
X84294688Y-74582118D01*
X84289131Y-74608409D01*
X84286026Y-74648062D01*
X84284676Y-74706332D01*
X84284386Y-74786673D01*
X84284386Y-74991146D01*
X84238677Y-75007080D01*
X84206213Y-75017920D01*
X84188401Y-75022968D01*
X84187877Y-75023014D01*
X84186537Y-75009123D01*
X84185328Y-74969939D01*
X84184301Y-74909200D01*
X84183502Y-74830641D01*
X84182981Y-74737998D01*
X84182786Y-74635009D01*
X84182786Y-74237842D01*
X84229957Y-74217944D01*
X84277129Y-74198047D01*
X84284386Y-74319789D01*
G36*
X84948244Y-74419468D02*
G01*
X85005116Y-74440587D01*
X85005767Y-74440993D01*
X85040940Y-74466880D01*
X85066907Y-74497133D01*
X85085170Y-74536558D01*
X85097232Y-74589962D01*
X85104596Y-74662151D01*
X85108764Y-74757932D01*
X85109129Y-74771578D01*
X85114376Y-74977342D01*
X85070216Y-75000178D01*
X85038263Y-75015610D01*
X85018970Y-75022923D01*
X85018078Y-75023014D01*
X85014739Y-75009522D01*
X85012087Y-74973126D01*
X85010456Y-74919952D01*
X85010100Y-74876893D01*
X85010092Y-74807141D01*
X85006903Y-74763337D01*
X84995788Y-74742444D01*
X84972001Y-74741425D01*
X84930796Y-74757241D01*
X84868586Y-74786315D01*
X84822841Y-74810463D01*
X84799313Y-74831413D01*
X84792396Y-74854247D01*
X84792386Y-74855377D01*
X84803799Y-74894712D01*
X84837592Y-74915962D01*
X84889309Y-74919039D01*
X84926561Y-74918506D01*
X84946203Y-74929235D01*
X84958452Y-74955005D01*
X84965502Y-74987837D01*
X84955342Y-75006466D01*
X84951517Y-75009132D01*
X84915501Y-75019840D01*
X84865066Y-75021356D01*
X84813126Y-75014259D01*
X84776322Y-75001288D01*
X84725438Y-74958085D01*
X84696514Y-74897946D01*
X84690786Y-74850962D01*
X84695157Y-74808582D01*
X84710975Y-74773988D01*
X84742297Y-74743263D01*
X84793178Y-74712490D01*
X84867676Y-74677752D01*
X84872214Y-74675788D01*
X84939321Y-74644787D01*
X84980732Y-74619362D01*
X84998481Y-74596514D01*
X84994607Y-74573245D01*
X84971143Y-74546556D01*
X84964127Y-74540414D01*
X84917130Y-74516600D01*
X84868433Y-74517603D01*
X84826022Y-74540951D01*
X84797884Y-74584175D01*
X84795269Y-74592660D01*
X84769808Y-74633808D01*
X84737501Y-74653628D01*
X84690786Y-74673270D01*
X84690786Y-74622450D01*
X84704996Y-74548582D01*
X84747175Y-74480827D01*
X84769124Y-74458161D01*
X84819017Y-74429069D01*
X84882467Y-74415900D01*
X84948244Y-74419468D01*
G37*
X84948244Y-74419468D02*
X85005116Y-74440587D01*
X85005767Y-74440993D01*
X85040940Y-74466880D01*
X85066907Y-74497133D01*
X85085170Y-74536558D01*
X85097232Y-74589962D01*
X85104596Y-74662151D01*
X85108764Y-74757932D01*
X85109129Y-74771578D01*
X85114376Y-74977342D01*
X85070216Y-75000178D01*
X85038263Y-75015610D01*
X85018970Y-75022923D01*
X85018078Y-75023014D01*
X85014739Y-75009522D01*
X85012087Y-74973126D01*
X85010456Y-74919952D01*
X85010100Y-74876893D01*
X85010092Y-74807141D01*
X85006903Y-74763337D01*
X84995788Y-74742444D01*
X84972001Y-74741425D01*
X84930796Y-74757241D01*
X84868586Y-74786315D01*
X84822841Y-74810463D01*
X84799313Y-74831413D01*
X84792396Y-74854247D01*
X84792386Y-74855377D01*
X84803799Y-74894712D01*
X84837592Y-74915962D01*
X84889309Y-74919039D01*
X84926561Y-74918506D01*
X84946203Y-74929235D01*
X84958452Y-74955005D01*
X84965502Y-74987837D01*
X84955342Y-75006466D01*
X84951517Y-75009132D01*
X84915501Y-75019840D01*
X84865066Y-75021356D01*
X84813126Y-75014259D01*
X84776322Y-75001288D01*
X84725438Y-74958085D01*
X84696514Y-74897946D01*
X84690786Y-74850962D01*
X84695157Y-74808582D01*
X84710975Y-74773988D01*
X84742297Y-74743263D01*
X84793178Y-74712490D01*
X84867676Y-74677752D01*
X84872214Y-74675788D01*
X84939321Y-74644787D01*
X84980732Y-74619362D01*
X84998481Y-74596514D01*
X84994607Y-74573245D01*
X84971143Y-74546556D01*
X84964127Y-74540414D01*
X84917130Y-74516600D01*
X84868433Y-74517603D01*
X84826022Y-74540951D01*
X84797884Y-74584175D01*
X84795269Y-74592660D01*
X84769808Y-74633808D01*
X84737501Y-74653628D01*
X84690786Y-74673270D01*
X84690786Y-74622450D01*
X84704996Y-74548582D01*
X84747175Y-74480827D01*
X84769124Y-74458161D01*
X84819017Y-74429069D01*
X84882467Y-74415900D01*
X84948244Y-74419468D01*
G36*
X85438426Y-74418255D02*
G01*
X85504358Y-74442584D01*
X85557773Y-74485617D01*
X85578664Y-74515909D01*
X85601439Y-74571494D01*
X85600966Y-74611686D01*
X85577062Y-74638717D01*
X85568217Y-74643313D01*
X85530030Y-74657644D01*
X85510528Y-74653972D01*
X85503922Y-74629907D01*
X85503586Y-74616614D01*
X85491492Y-74567710D01*
X85459971Y-74533499D01*
X85416159Y-74516976D01*
X85367195Y-74521134D01*
X85327394Y-74542727D01*
X85313950Y-74555044D01*
X85304421Y-74569987D01*
X85297985Y-74592575D01*
X85293817Y-74627828D01*
X85291097Y-74680766D01*
X85289002Y-74756407D01*
X85288460Y-74780357D01*
X85286481Y-74862290D01*
X85284231Y-74919955D01*
X85280857Y-74958108D01*
X85275506Y-74981504D01*
X85267324Y-74994898D01*
X85255459Y-75003045D01*
X85247862Y-75006644D01*
X85215602Y-75018952D01*
X85196611Y-75023014D01*
X85190336Y-75009448D01*
X85186506Y-74968434D01*
X85185100Y-74899499D01*
X85186098Y-74802169D01*
X85186408Y-74787157D01*
X85188601Y-74698359D01*
X85191193Y-74633519D01*
X85194882Y-74587567D01*
X85200364Y-74555435D01*
X85208335Y-74532053D01*
X85219493Y-74512352D01*
X85225330Y-74503910D01*
X85258796Y-74466557D01*
X85296227Y-74437503D01*
X85300809Y-74434967D01*
X85367926Y-74414943D01*
X85438426Y-74418255D01*
G37*
X85438426Y-74418255D02*
X85504358Y-74442584D01*
X85557773Y-74485617D01*
X85578664Y-74515909D01*
X85601439Y-74571494D01*
X85600966Y-74611686D01*
X85577062Y-74638717D01*
X85568217Y-74643313D01*
X85530030Y-74657644D01*
X85510528Y-74653972D01*
X85503922Y-74629907D01*
X85503586Y-74616614D01*
X85491492Y-74567710D01*
X85459971Y-74533499D01*
X85416159Y-74516976D01*
X85367195Y-74521134D01*
X85327394Y-74542727D01*
X85313950Y-74555044D01*
X85304421Y-74569987D01*
X85297985Y-74592575D01*
X85293817Y-74627828D01*
X85291097Y-74680766D01*
X85289002Y-74756407D01*
X85288460Y-74780357D01*
X85286481Y-74862290D01*
X85284231Y-74919955D01*
X85280857Y-74958108D01*
X85275506Y-74981504D01*
X85267324Y-74994898D01*
X85255459Y-75003045D01*
X85247862Y-75006644D01*
X85215602Y-75018952D01*
X85196611Y-75023014D01*
X85190336Y-75009448D01*
X85186506Y-74968434D01*
X85185100Y-74899499D01*
X85186098Y-74802169D01*
X85186408Y-74787157D01*
X85188601Y-74698359D01*
X85191193Y-74633519D01*
X85194882Y-74587567D01*
X85200364Y-74555435D01*
X85208335Y-74532053D01*
X85219493Y-74512352D01*
X85225330Y-74503910D01*
X85258796Y-74466557D01*
X85296227Y-74437503D01*
X85300809Y-74434967D01*
X85367926Y-74414943D01*
X85438426Y-74418255D01*
G36*
X86098617Y-74533858D02*
G01*
X86098433Y-74642337D01*
X86097719Y-74725787D01*
X86096175Y-74788204D01*
X86093501Y-74833585D01*
X86089394Y-74865929D01*
X86083555Y-74889233D01*
X86075682Y-74907495D01*
X86069721Y-74917918D01*
X86020355Y-74974445D01*
X85957764Y-75009877D01*
X85888513Y-75022590D01*
X85819168Y-75010963D01*
X85777875Y-74990068D01*
X85734525Y-74953922D01*
X85704981Y-74909776D01*
X85687155Y-74851962D01*
X85678963Y-74774813D01*
X85677802Y-74718214D01*
X85677958Y-74714147D01*
X85779357Y-74714147D01*
X85779976Y-74779050D01*
X85782814Y-74822014D01*
X85789340Y-74850122D01*
X85801023Y-74870453D01*
X85814983Y-74885788D01*
X85861865Y-74915390D01*
X85912201Y-74917919D01*
X85959776Y-74893205D01*
X85963479Y-74889856D01*
X85979283Y-74872435D01*
X85989193Y-74851709D01*
X85994558Y-74820862D01*
X85996728Y-74773077D01*
X85997071Y-74720248D01*
X85996327Y-74653881D01*
X85993248Y-74609606D01*
X85986561Y-74580509D01*
X85974996Y-74559673D01*
X85965513Y-74548607D01*
X85921460Y-74520698D01*
X85870724Y-74517343D01*
X85822296Y-74538659D01*
X85812950Y-74546573D01*
X85797040Y-74564147D01*
X85787110Y-74585087D01*
X85781778Y-74616282D01*
X85779663Y-74664622D01*
X85779357Y-74714147D01*
X85677958Y-74714147D01*
X85681310Y-74627068D01*
X85693226Y-74558586D01*
X85715635Y-74507100D01*
X85750624Y-74466943D01*
X85777875Y-74446361D01*
X85827407Y-74424125D01*
X85884816Y-74413804D01*
X85938182Y-74416567D01*
X85968043Y-74427712D01*
X85979761Y-74430883D01*
X85987537Y-74419057D01*
X85992965Y-74387366D01*
X85997071Y-74339093D01*
X86001567Y-74285329D01*
X86007813Y-74252982D01*
X86019176Y-74234485D01*
X86039028Y-74222270D01*
X86051500Y-74216862D01*
X86098671Y-74197101D01*
X86098617Y-74533858D01*
G37*
X86098617Y-74533858D02*
X86098433Y-74642337D01*
X86097719Y-74725787D01*
X86096175Y-74788204D01*
X86093501Y-74833585D01*
X86089394Y-74865929D01*
X86083555Y-74889233D01*
X86075682Y-74907495D01*
X86069721Y-74917918D01*
X86020355Y-74974445D01*
X85957764Y-75009877D01*
X85888513Y-75022590D01*
X85819168Y-75010963D01*
X85777875Y-74990068D01*
X85734525Y-74953922D01*
X85704981Y-74909776D01*
X85687155Y-74851962D01*
X85678963Y-74774813D01*
X85677802Y-74718214D01*
X85677958Y-74714147D01*
X85779357Y-74714147D01*
X85779976Y-74779050D01*
X85782814Y-74822014D01*
X85789340Y-74850122D01*
X85801023Y-74870453D01*
X85814983Y-74885788D01*
X85861865Y-74915390D01*
X85912201Y-74917919D01*
X85959776Y-74893205D01*
X85963479Y-74889856D01*
X85979283Y-74872435D01*
X85989193Y-74851709D01*
X85994558Y-74820862D01*
X85996728Y-74773077D01*
X85997071Y-74720248D01*
X85996327Y-74653881D01*
X85993248Y-74609606D01*
X85986561Y-74580509D01*
X85974996Y-74559673D01*
X85965513Y-74548607D01*
X85921460Y-74520698D01*
X85870724Y-74517343D01*
X85822296Y-74538659D01*
X85812950Y-74546573D01*
X85797040Y-74564147D01*
X85787110Y-74585087D01*
X85781778Y-74616282D01*
X85779663Y-74664622D01*
X85779357Y-74714147D01*
X85677958Y-74714147D01*
X85681310Y-74627068D01*
X85693226Y-74558586D01*
X85715635Y-74507100D01*
X85750624Y-74466943D01*
X85777875Y-74446361D01*
X85827407Y-74424125D01*
X85884816Y-74413804D01*
X85938182Y-74416567D01*
X85968043Y-74427712D01*
X85979761Y-74430883D01*
X85987537Y-74419057D01*
X85992965Y-74387366D01*
X85997071Y-74339093D01*
X86001567Y-74285329D01*
X86007813Y-74252982D01*
X86019176Y-74234485D01*
X86039028Y-74222270D01*
X86051500Y-74216862D01*
X86098671Y-74197101D01*
X86098617Y-74533858D01*
G36*
X86688333Y-74427163D02*
G01*
X86690548Y-74465350D01*
X86692284Y-74523386D01*
X86693399Y-74596680D01*
X86693757Y-74673555D01*
X86693757Y-74933696D01*
X86647826Y-74979627D01*
X86616175Y-75007929D01*
X86588390Y-75019393D01*
X86550415Y-75018668D01*
X86535340Y-75016821D01*
X86488226Y-75011448D01*
X86449256Y-75008369D01*
X86439757Y-75008085D01*
X86407733Y-75009945D01*
X86361932Y-75014614D01*
X86344174Y-75016821D01*
X86300557Y-75020235D01*
X86271245Y-75012820D01*
X86242180Y-74989927D01*
X86231688Y-74979627D01*
X86185757Y-74933696D01*
X86185757Y-74447102D01*
X86222726Y-74430258D01*
X86254559Y-74417782D01*
X86273183Y-74413414D01*
X86277958Y-74427218D01*
X86282421Y-74465786D01*
X86286275Y-74524856D01*
X86289222Y-74600163D01*
X86290643Y-74663786D01*
X86294614Y-74914157D01*
X86329259Y-74919056D01*
X86360768Y-74915631D01*
X86376208Y-74904541D01*
X86380523Y-74883808D01*
X86384208Y-74839645D01*
X86386969Y-74777646D01*
X86388512Y-74703409D01*
X86388735Y-74665206D01*
X86388957Y-74445283D01*
X86434666Y-74429349D01*
X86467018Y-74418515D01*
X86484615Y-74413462D01*
X86485123Y-74413414D01*
X86486888Y-74427148D01*
X86488829Y-74465230D01*
X86490782Y-74522982D01*
X86492584Y-74595727D01*
X86493843Y-74663786D01*
X86497814Y-74914157D01*
X86584900Y-74914157D01*
X86588896Y-74685740D01*
X86592892Y-74457322D01*
X86635347Y-74435368D01*
X86666692Y-74420293D01*
X86685244Y-74413451D01*
X86685779Y-74413414D01*
X86688333Y-74427163D01*
G37*
X86688333Y-74427163D02*
X86690548Y-74465350D01*
X86692284Y-74523386D01*
X86693399Y-74596680D01*
X86693757Y-74673555D01*
X86693757Y-74933696D01*
X86647826Y-74979627D01*
X86616175Y-75007929D01*
X86588390Y-75019393D01*
X86550415Y-75018668D01*
X86535340Y-75016821D01*
X86488226Y-75011448D01*
X86449256Y-75008369D01*
X86439757Y-75008085D01*
X86407733Y-75009945D01*
X86361932Y-75014614D01*
X86344174Y-75016821D01*
X86300557Y-75020235D01*
X86271245Y-75012820D01*
X86242180Y-74989927D01*
X86231688Y-74979627D01*
X86185757Y-74933696D01*
X86185757Y-74447102D01*
X86222726Y-74430258D01*
X86254559Y-74417782D01*
X86273183Y-74413414D01*
X86277958Y-74427218D01*
X86282421Y-74465786D01*
X86286275Y-74524856D01*
X86289222Y-74600163D01*
X86290643Y-74663786D01*
X86294614Y-74914157D01*
X86329259Y-74919056D01*
X86360768Y-74915631D01*
X86376208Y-74904541D01*
X86380523Y-74883808D01*
X86384208Y-74839645D01*
X86386969Y-74777646D01*
X86388512Y-74703409D01*
X86388735Y-74665206D01*
X86388957Y-74445283D01*
X86434666Y-74429349D01*
X86467018Y-74418515D01*
X86484615Y-74413462D01*
X86485123Y-74413414D01*
X86486888Y-74427148D01*
X86488829Y-74465230D01*
X86490782Y-74522982D01*
X86492584Y-74595727D01*
X86493843Y-74663786D01*
X86497814Y-74914157D01*
X86584900Y-74914157D01*
X86588896Y-74685740D01*
X86592892Y-74457322D01*
X86635347Y-74435368D01*
X86666692Y-74420293D01*
X86685244Y-74413451D01*
X86685779Y-74413414D01*
X86688333Y-74427163D01*
G36*
X87053376Y-74424835D02*
G01*
X87095167Y-74443844D01*
X87127969Y-74466878D01*
X87152003Y-74492633D01*
X87168597Y-74525858D01*
X87179077Y-74571300D01*
X87184771Y-74633707D01*
X87187007Y-74717827D01*
X87187243Y-74773221D01*
X87187243Y-74989326D01*
X87150274Y-75006170D01*
X87121156Y-75018481D01*
X87106731Y-75023014D01*
X87103972Y-75009525D01*
X87101782Y-74973153D01*
X87100442Y-74920042D01*
X87100157Y-74877872D01*
X87098934Y-74816947D01*
X87095636Y-74768615D01*
X87090821Y-74739018D01*
X87086996Y-74732729D01*
X87061283Y-74739152D01*
X87020918Y-74755625D01*
X86974179Y-74777958D01*
X86929345Y-74801957D01*
X86894693Y-74823430D01*
X86878502Y-74838185D01*
X86878438Y-74838345D01*
X86879830Y-74865652D01*
X86892318Y-74891719D01*
X86914243Y-74912892D01*
X86946243Y-74919974D01*
X86973592Y-74919149D01*
X87012326Y-74918542D01*
X87032658Y-74927616D01*
X87044869Y-74951592D01*
X87046409Y-74956113D01*
X87051703Y-74990306D01*
X87037547Y-75011068D01*
X87000648Y-75020962D01*
X86960789Y-75022792D01*
X86889062Y-75009227D01*
X86851932Y-74989855D01*
X86806076Y-74944345D01*
X86781756Y-74888483D01*
X86779573Y-74829457D01*
X86800129Y-74774453D01*
X86831049Y-74739986D01*
X86861920Y-74720689D01*
X86910442Y-74696259D01*
X86966985Y-74671485D01*
X86976410Y-74667699D01*
X87038519Y-74640291D01*
X87074322Y-74616134D01*
X87085837Y-74592119D01*
X87075080Y-74565135D01*
X87056614Y-74544043D01*
X87012969Y-74518072D01*
X86964946Y-74516124D01*
X86920906Y-74536137D01*
X86889209Y-74576051D01*
X86885049Y-74586348D01*
X86860827Y-74624224D01*
X86825465Y-74652342D01*
X86780843Y-74675417D01*
X86780843Y-74609985D01*
X86783469Y-74570006D01*
X86794730Y-74538497D01*
X86819699Y-74504878D01*
X86843669Y-74478984D01*
X86880941Y-74442317D01*
X86909901Y-74422621D01*
X86941005Y-74414720D01*
X86976213Y-74413414D01*
X87053376Y-74424835D01*
G37*
X87053376Y-74424835D02*
X87095167Y-74443844D01*
X87127969Y-74466878D01*
X87152003Y-74492633D01*
X87168597Y-74525858D01*
X87179077Y-74571300D01*
X87184771Y-74633707D01*
X87187007Y-74717827D01*
X87187243Y-74773221D01*
X87187243Y-74989326D01*
X87150274Y-75006170D01*
X87121156Y-75018481D01*
X87106731Y-75023014D01*
X87103972Y-75009525D01*
X87101782Y-74973153D01*
X87100442Y-74920042D01*
X87100157Y-74877872D01*
X87098934Y-74816947D01*
X87095636Y-74768615D01*
X87090821Y-74739018D01*
X87086996Y-74732729D01*
X87061283Y-74739152D01*
X87020918Y-74755625D01*
X86974179Y-74777958D01*
X86929345Y-74801957D01*
X86894693Y-74823430D01*
X86878502Y-74838185D01*
X86878438Y-74838345D01*
X86879830Y-74865652D01*
X86892318Y-74891719D01*
X86914243Y-74912892D01*
X86946243Y-74919974D01*
X86973592Y-74919149D01*
X87012326Y-74918542D01*
X87032658Y-74927616D01*
X87044869Y-74951592D01*
X87046409Y-74956113D01*
X87051703Y-74990306D01*
X87037547Y-75011068D01*
X87000648Y-75020962D01*
X86960789Y-75022792D01*
X86889062Y-75009227D01*
X86851932Y-74989855D01*
X86806076Y-74944345D01*
X86781756Y-74888483D01*
X86779573Y-74829457D01*
X86800129Y-74774453D01*
X86831049Y-74739986D01*
X86861920Y-74720689D01*
X86910442Y-74696259D01*
X86966985Y-74671485D01*
X86976410Y-74667699D01*
X87038519Y-74640291D01*
X87074322Y-74616134D01*
X87085837Y-74592119D01*
X87075080Y-74565135D01*
X87056614Y-74544043D01*
X87012969Y-74518072D01*
X86964946Y-74516124D01*
X86920906Y-74536137D01*
X86889209Y-74576051D01*
X86885049Y-74586348D01*
X86860827Y-74624224D01*
X86825465Y-74652342D01*
X86780843Y-74675417D01*
X86780843Y-74609985D01*
X86783469Y-74570006D01*
X86794730Y-74538497D01*
X86819699Y-74504878D01*
X86843669Y-74478984D01*
X86880941Y-74442317D01*
X86909901Y-74422621D01*
X86941005Y-74414720D01*
X86976213Y-74413414D01*
X87053376Y-74424835D01*
G36*
X87561100Y-74427252D02*
G01*
X87578448Y-74434834D01*
X87619856Y-74467628D01*
X87655265Y-74515047D01*
X87677164Y-74565651D01*
X87680729Y-74590598D01*
X87668779Y-74625427D01*
X87642567Y-74643857D01*
X87614464Y-74655016D01*
X87601595Y-74657072D01*
X87595329Y-74642149D01*
X87582956Y-74609675D01*
X87577528Y-74595002D01*
X87547090Y-74544244D01*
X87503020Y-74518927D01*
X87446510Y-74519706D01*
X87442325Y-74520703D01*
X87412155Y-74535007D01*
X87389976Y-74562893D01*
X87374827Y-74607787D01*
X87365750Y-74673115D01*
X87361786Y-74762304D01*
X87361414Y-74809761D01*
X87361230Y-74884571D01*
X87360022Y-74935569D01*
X87356809Y-74967971D01*
X87350609Y-74986995D01*
X87340440Y-74997856D01*
X87325319Y-75005772D01*
X87324446Y-75006170D01*
X87295328Y-75018481D01*
X87280903Y-75023014D01*
X87278686Y-75009309D01*
X87276789Y-74971425D01*
X87275347Y-74914215D01*
X87274498Y-74842527D01*
X87274329Y-74790065D01*
X87275192Y-74688547D01*
X87278570Y-74611532D01*
X87285642Y-74554523D01*
X87297588Y-74513026D01*
X87315590Y-74482543D01*
X87340827Y-74458580D01*
X87365747Y-74441855D01*
X87425671Y-74419597D01*
X87495411Y-74414576D01*
X87561100Y-74427252D01*
G37*
X87561100Y-74427252D02*
X87578448Y-74434834D01*
X87619856Y-74467628D01*
X87655265Y-74515047D01*
X87677164Y-74565651D01*
X87680729Y-74590598D01*
X87668779Y-74625427D01*
X87642567Y-74643857D01*
X87614464Y-74655016D01*
X87601595Y-74657072D01*
X87595329Y-74642149D01*
X87582956Y-74609675D01*
X87577528Y-74595002D01*
X87547090Y-74544244D01*
X87503020Y-74518927D01*
X87446510Y-74519706D01*
X87442325Y-74520703D01*
X87412155Y-74535007D01*
X87389976Y-74562893D01*
X87374827Y-74607787D01*
X87365750Y-74673115D01*
X87361786Y-74762304D01*
X87361414Y-74809761D01*
X87361230Y-74884571D01*
X87360022Y-74935569D01*
X87356809Y-74967971D01*
X87350609Y-74986995D01*
X87340440Y-74997856D01*
X87325319Y-75005772D01*
X87324446Y-75006170D01*
X87295328Y-75018481D01*
X87280903Y-75023014D01*
X87278686Y-75009309D01*
X87276789Y-74971425D01*
X87275347Y-74914215D01*
X87274498Y-74842527D01*
X87274329Y-74790065D01*
X87275192Y-74688547D01*
X87278570Y-74611532D01*
X87285642Y-74554523D01*
X87297588Y-74513026D01*
X87315590Y-74482543D01*
X87340827Y-74458580D01*
X87365747Y-74441855D01*
X87425671Y-74419597D01*
X87495411Y-74414576D01*
X87561100Y-74427252D01*
G36*
X88062095Y-74435466D02*
G01*
X88119521Y-74472997D01*
X88147219Y-74506596D01*
X88169162Y-74567564D01*
X88170905Y-74615808D01*
X88166957Y-74680316D01*
X88018186Y-74745434D01*
X87945849Y-74778702D01*
X87898584Y-74805464D01*
X87874007Y-74828644D01*
X87869737Y-74851167D01*
X87883389Y-74875955D01*
X87898443Y-74892386D01*
X87942246Y-74918735D01*
X87989889Y-74920581D01*
X88033645Y-74900046D01*
X88065789Y-74859252D01*
X88071538Y-74844847D01*
X88099076Y-74799856D01*
X88130758Y-74780682D01*
X88174214Y-74764279D01*
X88174214Y-74826466D01*
X88170372Y-74868783D01*
X88155323Y-74904469D01*
X88123780Y-74945443D01*
X88119092Y-74950767D01*
X88084006Y-74987220D01*
X88053847Y-75006783D01*
X88016115Y-75015783D01*
X87984835Y-75018730D01*
X87928885Y-75019465D01*
X87889055Y-75010160D01*
X87864208Y-74996346D01*
X87825156Y-74965967D01*
X87798125Y-74933113D01*
X87781017Y-74891794D01*
X87771738Y-74836021D01*
X87768193Y-74759805D01*
X87767910Y-74721122D01*
X87768872Y-74674747D01*
X87856507Y-74674747D01*
X87857523Y-74699626D01*
X87860056Y-74703700D01*
X87876774Y-74698165D01*
X87912749Y-74683517D01*
X87960831Y-74662690D01*
X87970886Y-74658214D01*
X88031652Y-74627314D01*
X88065132Y-74600157D01*
X88072490Y-74574720D01*
X88054891Y-74548981D01*
X88040356Y-74537609D01*
X87987910Y-74514864D01*
X87938822Y-74518622D01*
X87897727Y-74546384D01*
X87869258Y-74595652D01*
X87860131Y-74634757D01*
X87856507Y-74674747D01*
X87768872Y-74674747D01*
X87769785Y-74630749D01*
X87776696Y-74563884D01*
X87790384Y-74515195D01*
X87812596Y-74479349D01*
X87845074Y-74451013D01*
X87859233Y-74441855D01*
X87923553Y-74418007D01*
X87993973Y-74416506D01*
X88062095Y-74435466D01*
G37*
X88062095Y-74435466D02*
X88119521Y-74472997D01*
X88147219Y-74506596D01*
X88169162Y-74567564D01*
X88170905Y-74615808D01*
X88166957Y-74680316D01*
X88018186Y-74745434D01*
X87945849Y-74778702D01*
X87898584Y-74805464D01*
X87874007Y-74828644D01*
X87869737Y-74851167D01*
X87883389Y-74875955D01*
X87898443Y-74892386D01*
X87942246Y-74918735D01*
X87989889Y-74920581D01*
X88033645Y-74900046D01*
X88065789Y-74859252D01*
X88071538Y-74844847D01*
X88099076Y-74799856D01*
X88130758Y-74780682D01*
X88174214Y-74764279D01*
X88174214Y-74826466D01*
X88170372Y-74868783D01*
X88155323Y-74904469D01*
X88123780Y-74945443D01*
X88119092Y-74950767D01*
X88084006Y-74987220D01*
X88053847Y-75006783D01*
X88016115Y-75015783D01*
X87984835Y-75018730D01*
X87928885Y-75019465D01*
X87889055Y-75010160D01*
X87864208Y-74996346D01*
X87825156Y-74965967D01*
X87798125Y-74933113D01*
X87781017Y-74891794D01*
X87771738Y-74836021D01*
X87768193Y-74759805D01*
X87767910Y-74721122D01*
X87768872Y-74674747D01*
X87856507Y-74674747D01*
X87857523Y-74699626D01*
X87860056Y-74703700D01*
X87876774Y-74698165D01*
X87912749Y-74683517D01*
X87960831Y-74662690D01*
X87970886Y-74658214D01*
X88031652Y-74627314D01*
X88065132Y-74600157D01*
X88072490Y-74574720D01*
X88054891Y-74548981D01*
X88040356Y-74537609D01*
X87987910Y-74514864D01*
X87938822Y-74518622D01*
X87897727Y-74546384D01*
X87869258Y-74595652D01*
X87860131Y-74634757D01*
X87856507Y-74674747D01*
X87768872Y-74674747D01*
X87769785Y-74630749D01*
X87776696Y-74563884D01*
X87790384Y-74515195D01*
X87812596Y-74479349D01*
X87845074Y-74451013D01*
X87859233Y-74441855D01*
X87923553Y-74418007D01*
X87993973Y-74416506D01*
X88062095Y-74435466D01*
G36*
X85012410Y-69710848D02*
G01*
X85090954Y-69711278D01*
X85147798Y-69712442D01*
X85186605Y-69714707D01*
X85211038Y-69718440D01*
X85224762Y-69724006D01*
X85231440Y-69731773D01*
X85234736Y-69742105D01*
X85235056Y-69743443D01*
X85240062Y-69767579D01*
X85249329Y-69815201D01*
X85261892Y-69881241D01*
X85276787Y-69960628D01*
X85293051Y-70048296D01*
X85293619Y-70051375D01*
X85309910Y-70137289D01*
X85325152Y-70213196D01*
X85338361Y-70274545D01*
X85348554Y-70316782D01*
X85354748Y-70335355D01*
X85355043Y-70335684D01*
X85373288Y-70344753D01*
X85410905Y-70359867D01*
X85459771Y-70377762D01*
X85460043Y-70377858D01*
X85521593Y-70400993D01*
X85594157Y-70430465D01*
X85662557Y-70460097D01*
X85665794Y-70461562D01*
X85777202Y-70512126D01*
X86023899Y-70343660D01*
X86099577Y-70292303D01*
X86168131Y-70246389D01*
X86225588Y-70208530D01*
X86267976Y-70181337D01*
X86291325Y-70167421D01*
X86293542Y-70166389D01*
X86310510Y-70170984D01*
X86342201Y-70193155D01*
X86389852Y-70233947D01*
X86454698Y-70294405D01*
X86520897Y-70358727D01*
X86584714Y-70422112D01*
X86641829Y-70479951D01*
X86688805Y-70528675D01*
X86722203Y-70564710D01*
X86738585Y-70584484D01*
X86739194Y-70585502D01*
X86741005Y-70599072D01*
X86734183Y-70621233D01*
X86717040Y-70654978D01*
X86687893Y-70703300D01*
X86645055Y-70769192D01*
X86587948Y-70854017D01*
X86537266Y-70928677D01*
X86491961Y-70995640D01*
X86454650Y-71051016D01*
X86427952Y-71090920D01*
X86414485Y-71111462D01*
X86413637Y-71112856D01*
X86415281Y-71132538D01*
X86427745Y-71170793D01*
X86448548Y-71220389D01*
X86455962Y-71236228D01*
X86488314Y-71306790D01*
X86522828Y-71386853D01*
X86550865Y-71456129D01*
X86571068Y-71507545D01*
X86587115Y-71546619D01*
X86596388Y-71567041D01*
X86597541Y-71568614D01*
X86614596Y-71571221D01*
X86654798Y-71578363D01*
X86712802Y-71589023D01*
X86783263Y-71602185D01*
X86860835Y-71616833D01*
X86940172Y-71631949D01*
X87015931Y-71646518D01*
X87082764Y-71659522D01*
X87135328Y-71669945D01*
X87168276Y-71676770D01*
X87176357Y-71678699D01*
X87184705Y-71683462D01*
X87191006Y-71694218D01*
X87195545Y-71714598D01*
X87198604Y-71748234D01*
X87200467Y-71798755D01*
X87201418Y-71869792D01*
X87201740Y-71964976D01*
X87201757Y-72003992D01*
X87201757Y-72321299D01*
X87125557Y-72336339D01*
X87083163Y-72344495D01*
X87019900Y-72356399D01*
X86943462Y-72370616D01*
X86861543Y-72385710D01*
X86838900Y-72389855D01*
X86763306Y-72404553D01*
X86697453Y-72419005D01*
X86646866Y-72431875D01*
X86617074Y-72441822D01*
X86612112Y-72444787D01*
X86599926Y-72465783D01*
X86582453Y-72506467D01*
X86563077Y-72558822D01*
X86559234Y-72570100D01*
X86533839Y-72640023D01*
X86502317Y-72718918D01*
X86471469Y-72789766D01*
X86471317Y-72790095D01*
X86419947Y-72901233D01*
X86588899Y-73149753D01*
X86757852Y-73398272D01*
X86540929Y-73615558D01*
X86475319Y-73680226D01*
X86415479Y-73737233D01*
X86364767Y-73783533D01*
X86326546Y-73816084D01*
X86304175Y-73831843D01*
X86300966Y-73832843D01*
X86282126Y-73824969D01*
X86243680Y-73803078D01*
X86189830Y-73769767D01*
X86124776Y-73727631D01*
X86054440Y-73680443D01*
X85983055Y-73632310D01*
X85919408Y-73590428D01*
X85867541Y-73557371D01*
X85831495Y-73535718D01*
X85815367Y-73528043D01*
X85795689Y-73534537D01*
X85758375Y-73551650D01*
X85711121Y-73575826D01*
X85706112Y-73578513D01*
X85642477Y-73610427D01*
X85598841Y-73626079D01*
X85571702Y-73626245D01*
X85557557Y-73611704D01*
X85557475Y-73611500D01*
X85550405Y-73594279D01*
X85533542Y-73553399D01*
X85508195Y-73492025D01*
X85475671Y-73413319D01*
X85437278Y-73320447D01*
X85394322Y-73216572D01*
X85352722Y-73116002D01*
X85307004Y-73005016D01*
X85265026Y-72902203D01*
X85228048Y-72810715D01*
X85197327Y-72733701D01*
X85174122Y-72674315D01*
X85159690Y-72635709D01*
X85155243Y-72621300D01*
X85166396Y-72604772D01*
X85195569Y-72578430D01*
X85234471Y-72549387D01*
X85345257Y-72457539D01*
X85431851Y-72352259D01*
X85493216Y-72235766D01*
X85528315Y-72110276D01*
X85536108Y-71978007D01*
X85530443Y-71916957D01*
X85499578Y-71790295D01*
X85446420Y-71678441D01*
X85374267Y-71582501D01*
X85286417Y-71503576D01*
X85186165Y-71442770D01*
X85076810Y-71401187D01*
X84961647Y-71379928D01*
X84843975Y-71380099D01*
X84727090Y-71402801D01*
X84614289Y-71449138D01*
X84508869Y-71520213D01*
X84464868Y-71560411D01*
X84380479Y-71663629D01*
X84321722Y-71776425D01*
X84288204Y-71895510D01*
X84279535Y-72017595D01*
X84295323Y-72139393D01*
X84335178Y-72257616D01*
X84398707Y-72368975D01*
X84485521Y-72470184D01*
X84582529Y-72549387D01*
X84622937Y-72579662D01*
X84651482Y-72605719D01*
X84661757Y-72621325D01*
X84656377Y-72638343D01*
X84641075Y-72679000D01*
X84617112Y-72740142D01*
X84585744Y-72818619D01*
X84548232Y-72911280D01*
X84505833Y-73014972D01*
X84464163Y-73116026D01*
X84418190Y-73227107D01*
X84375607Y-73330041D01*
X84337721Y-73421665D01*
X84305840Y-73498816D01*
X84281271Y-73558331D01*
X84265320Y-73597044D01*
X84259410Y-73611500D01*
X84245448Y-73626185D01*
X84218440Y-73626142D01*
X84174913Y-73610599D01*
X84111390Y-73578784D01*
X84110888Y-73578513D01*
X84063060Y-73553823D01*
X84024397Y-73535838D01*
X84002595Y-73528114D01*
X84001633Y-73528043D01*
X83985221Y-73535878D01*
X83948987Y-73557665D01*
X83896974Y-73590828D01*
X83833225Y-73632791D01*
X83762560Y-73680443D01*
X83690616Y-73728691D01*
X83625774Y-73770651D01*
X83572235Y-73803727D01*
X83534197Y-73825321D01*
X83516033Y-73832843D01*
X83499308Y-73822957D01*
X83465680Y-73795326D01*
X83418510Y-73752995D01*
X83361158Y-73699005D01*
X83296984Y-73636399D01*
X83275997Y-73615483D01*
X83058999Y-73398123D01*
X83224168Y-73155720D01*
X83274364Y-73081281D01*
X83318419Y-73014472D01*
X83353862Y-72959165D01*
X83378219Y-72919229D01*
X83389022Y-72898536D01*
X83389338Y-72897063D01*
X83383643Y-72877558D01*
X83368326Y-72838322D01*
X83346037Y-72785930D01*
X83330393Y-72750855D01*
X83301141Y-72683701D01*
X83273594Y-72615858D01*
X83252237Y-72558534D01*
X83246435Y-72541072D01*
X83229952Y-72494438D01*
X83213840Y-72458405D01*
X83204990Y-72444787D01*
X83185460Y-72436452D01*
X83142834Y-72424637D01*
X83082645Y-72410681D01*
X83010422Y-72395922D01*
X82978100Y-72389855D01*
X82896022Y-72374773D01*
X82817295Y-72360169D01*
X82749609Y-72347480D01*
X82700660Y-72338142D01*
X82691443Y-72336339D01*
X82615243Y-72321299D01*
X82615243Y-72003992D01*
X82615414Y-71899654D01*
X82616116Y-71820713D01*
X82617634Y-71763538D01*
X82620249Y-71724499D01*
X82624246Y-71699965D01*
X82629909Y-71686305D01*
X82637520Y-71679889D01*
X82640643Y-71678699D01*
X82659478Y-71674480D01*
X82701088Y-71666062D01*
X82760130Y-71654461D01*
X82831257Y-71640695D01*
X82909125Y-71625780D01*
X82988387Y-71610732D01*
X83063698Y-71596569D01*
X83129713Y-71584306D01*
X83181087Y-71574961D01*
X83212475Y-71569550D01*
X83219459Y-71568614D01*
X83225785Y-71556096D01*
X83239790Y-71522746D01*
X83258855Y-71474877D01*
X83266134Y-71456129D01*
X83295496Y-71383695D01*
X83330071Y-71303670D01*
X83361037Y-71236228D01*
X83383823Y-71184659D01*
X83398982Y-71142285D01*
X83404042Y-71116334D01*
X83403236Y-71112856D01*
X83392541Y-71096436D01*
X83368120Y-71059917D01*
X83332595Y-71007187D01*
X83288587Y-70942135D01*
X83238717Y-70868651D01*
X83228856Y-70854145D01*
X83170992Y-70768204D01*
X83128456Y-70702761D01*
X83099554Y-70654804D01*
X83082590Y-70621320D01*
X83075867Y-70599295D01*
X83077690Y-70585717D01*
X83077736Y-70585631D01*
X83092086Y-70567797D01*
X83123823Y-70533317D01*
X83169510Y-70485768D01*
X83225704Y-70428722D01*
X83288968Y-70365755D01*
X83296102Y-70358727D01*
X83375830Y-70281520D01*
X83437357Y-70224830D01*
X83481921Y-70187610D01*
X83510757Y-70168815D01*
X83523458Y-70166389D01*
X83541994Y-70176971D01*
X83580461Y-70201416D01*
X83634886Y-70237112D01*
X83701298Y-70281447D01*
X83775725Y-70331811D01*
X83793101Y-70343660D01*
X84039797Y-70512126D01*
X84151206Y-70461562D01*
X84218957Y-70432095D01*
X84291683Y-70402459D01*
X84354203Y-70378830D01*
X84356957Y-70377858D01*
X84405860Y-70359957D01*
X84443557Y-70344820D01*
X84461925Y-70335710D01*
X84461956Y-70335684D01*
X84467785Y-70319217D01*
X84477692Y-70278719D01*
X84490695Y-70218742D01*
X84505809Y-70143840D01*
X84522052Y-70058564D01*
X84523381Y-70051375D01*
X84539675Y-69963514D01*
X84554633Y-69883760D01*
X84567291Y-69817181D01*
X84576686Y-69768847D01*
X84581854Y-69743825D01*
X84581944Y-69743443D01*
X84585089Y-69732799D01*
X84591204Y-69724762D01*
X84603953Y-69718967D01*
X84627000Y-69715047D01*
X84664009Y-69712635D01*
X84718644Y-69711365D01*
X84794567Y-69710871D01*
X84895444Y-69710786D01*
X84908500Y-69710786D01*
X85012410Y-69710848D01*
G37*
X85012410Y-69710848D02*
X85090954Y-69711278D01*
X85147798Y-69712442D01*
X85186605Y-69714707D01*
X85211038Y-69718440D01*
X85224762Y-69724006D01*
X85231440Y-69731773D01*
X85234736Y-69742105D01*
X85235056Y-69743443D01*
X85240062Y-69767579D01*
X85249329Y-69815201D01*
X85261892Y-69881241D01*
X85276787Y-69960628D01*
X85293051Y-70048296D01*
X85293619Y-70051375D01*
X85309910Y-70137289D01*
X85325152Y-70213196D01*
X85338361Y-70274545D01*
X85348554Y-70316782D01*
X85354748Y-70335355D01*
X85355043Y-70335684D01*
X85373288Y-70344753D01*
X85410905Y-70359867D01*
X85459771Y-70377762D01*
X85460043Y-70377858D01*
X85521593Y-70400993D01*
X85594157Y-70430465D01*
X85662557Y-70460097D01*
X85665794Y-70461562D01*
X85777202Y-70512126D01*
X86023899Y-70343660D01*
X86099577Y-70292303D01*
X86168131Y-70246389D01*
X86225588Y-70208530D01*
X86267976Y-70181337D01*
X86291325Y-70167421D01*
X86293542Y-70166389D01*
X86310510Y-70170984D01*
X86342201Y-70193155D01*
X86389852Y-70233947D01*
X86454698Y-70294405D01*
X86520897Y-70358727D01*
X86584714Y-70422112D01*
X86641829Y-70479951D01*
X86688805Y-70528675D01*
X86722203Y-70564710D01*
X86738585Y-70584484D01*
X86739194Y-70585502D01*
X86741005Y-70599072D01*
X86734183Y-70621233D01*
X86717040Y-70654978D01*
X86687893Y-70703300D01*
X86645055Y-70769192D01*
X86587948Y-70854017D01*
X86537266Y-70928677D01*
X86491961Y-70995640D01*
X86454650Y-71051016D01*
X86427952Y-71090920D01*
X86414485Y-71111462D01*
X86413637Y-71112856D01*
X86415281Y-71132538D01*
X86427745Y-71170793D01*
X86448548Y-71220389D01*
X86455962Y-71236228D01*
X86488314Y-71306790D01*
X86522828Y-71386853D01*
X86550865Y-71456129D01*
X86571068Y-71507545D01*
X86587115Y-71546619D01*
X86596388Y-71567041D01*
X86597541Y-71568614D01*
X86614596Y-71571221D01*
X86654798Y-71578363D01*
X86712802Y-71589023D01*
X86783263Y-71602185D01*
X86860835Y-71616833D01*
X86940172Y-71631949D01*
X87015931Y-71646518D01*
X87082764Y-71659522D01*
X87135328Y-71669945D01*
X87168276Y-71676770D01*
X87176357Y-71678699D01*
X87184705Y-71683462D01*
X87191006Y-71694218D01*
X87195545Y-71714598D01*
X87198604Y-71748234D01*
X87200467Y-71798755D01*
X87201418Y-71869792D01*
X87201740Y-71964976D01*
X87201757Y-72003992D01*
X87201757Y-72321299D01*
X87125557Y-72336339D01*
X87083163Y-72344495D01*
X87019900Y-72356399D01*
X86943462Y-72370616D01*
X86861543Y-72385710D01*
X86838900Y-72389855D01*
X86763306Y-72404553D01*
X86697453Y-72419005D01*
X86646866Y-72431875D01*
X86617074Y-72441822D01*
X86612112Y-72444787D01*
X86599926Y-72465783D01*
X86582453Y-72506467D01*
X86563077Y-72558822D01*
X86559234Y-72570100D01*
X86533839Y-72640023D01*
X86502317Y-72718918D01*
X86471469Y-72789766D01*
X86471317Y-72790095D01*
X86419947Y-72901233D01*
X86588899Y-73149753D01*
X86757852Y-73398272D01*
X86540929Y-73615558D01*
X86475319Y-73680226D01*
X86415479Y-73737233D01*
X86364767Y-73783533D01*
X86326546Y-73816084D01*
X86304175Y-73831843D01*
X86300966Y-73832843D01*
X86282126Y-73824969D01*
X86243680Y-73803078D01*
X86189830Y-73769767D01*
X86124776Y-73727631D01*
X86054440Y-73680443D01*
X85983055Y-73632310D01*
X85919408Y-73590428D01*
X85867541Y-73557371D01*
X85831495Y-73535718D01*
X85815367Y-73528043D01*
X85795689Y-73534537D01*
X85758375Y-73551650D01*
X85711121Y-73575826D01*
X85706112Y-73578513D01*
X85642477Y-73610427D01*
X85598841Y-73626079D01*
X85571702Y-73626245D01*
X85557557Y-73611704D01*
X85557475Y-73611500D01*
X85550405Y-73594279D01*
X85533542Y-73553399D01*
X85508195Y-73492025D01*
X85475671Y-73413319D01*
X85437278Y-73320447D01*
X85394322Y-73216572D01*
X85352722Y-73116002D01*
X85307004Y-73005016D01*
X85265026Y-72902203D01*
X85228048Y-72810715D01*
X85197327Y-72733701D01*
X85174122Y-72674315D01*
X85159690Y-72635709D01*
X85155243Y-72621300D01*
X85166396Y-72604772D01*
X85195569Y-72578430D01*
X85234471Y-72549387D01*
X85345257Y-72457539D01*
X85431851Y-72352259D01*
X85493216Y-72235766D01*
X85528315Y-72110276D01*
X85536108Y-71978007D01*
X85530443Y-71916957D01*
X85499578Y-71790295D01*
X85446420Y-71678441D01*
X85374267Y-71582501D01*
X85286417Y-71503576D01*
X85186165Y-71442770D01*
X85076810Y-71401187D01*
X84961647Y-71379928D01*
X84843975Y-71380099D01*
X84727090Y-71402801D01*
X84614289Y-71449138D01*
X84508869Y-71520213D01*
X84464868Y-71560411D01*
X84380479Y-71663629D01*
X84321722Y-71776425D01*
X84288204Y-71895510D01*
X84279535Y-72017595D01*
X84295323Y-72139393D01*
X84335178Y-72257616D01*
X84398707Y-72368975D01*
X84485521Y-72470184D01*
X84582529Y-72549387D01*
X84622937Y-72579662D01*
X84651482Y-72605719D01*
X84661757Y-72621325D01*
X84656377Y-72638343D01*
X84641075Y-72679000D01*
X84617112Y-72740142D01*
X84585744Y-72818619D01*
X84548232Y-72911280D01*
X84505833Y-73014972D01*
X84464163Y-73116026D01*
X84418190Y-73227107D01*
X84375607Y-73330041D01*
X84337721Y-73421665D01*
X84305840Y-73498816D01*
X84281271Y-73558331D01*
X84265320Y-73597044D01*
X84259410Y-73611500D01*
X84245448Y-73626185D01*
X84218440Y-73626142D01*
X84174913Y-73610599D01*
X84111390Y-73578784D01*
X84110888Y-73578513D01*
X84063060Y-73553823D01*
X84024397Y-73535838D01*
X84002595Y-73528114D01*
X84001633Y-73528043D01*
X83985221Y-73535878D01*
X83948987Y-73557665D01*
X83896974Y-73590828D01*
X83833225Y-73632791D01*
X83762560Y-73680443D01*
X83690616Y-73728691D01*
X83625774Y-73770651D01*
X83572235Y-73803727D01*
X83534197Y-73825321D01*
X83516033Y-73832843D01*
X83499308Y-73822957D01*
X83465680Y-73795326D01*
X83418510Y-73752995D01*
X83361158Y-73699005D01*
X83296984Y-73636399D01*
X83275997Y-73615483D01*
X83058999Y-73398123D01*
X83224168Y-73155720D01*
X83274364Y-73081281D01*
X83318419Y-73014472D01*
X83353862Y-72959165D01*
X83378219Y-72919229D01*
X83389022Y-72898536D01*
X83389338Y-72897063D01*
X83383643Y-72877558D01*
X83368326Y-72838322D01*
X83346037Y-72785930D01*
X83330393Y-72750855D01*
X83301141Y-72683701D01*
X83273594Y-72615858D01*
X83252237Y-72558534D01*
X83246435Y-72541072D01*
X83229952Y-72494438D01*
X83213840Y-72458405D01*
X83204990Y-72444787D01*
X83185460Y-72436452D01*
X83142834Y-72424637D01*
X83082645Y-72410681D01*
X83010422Y-72395922D01*
X82978100Y-72389855D01*
X82896022Y-72374773D01*
X82817295Y-72360169D01*
X82749609Y-72347480D01*
X82700660Y-72338142D01*
X82691443Y-72336339D01*
X82615243Y-72321299D01*
X82615243Y-72003992D01*
X82615414Y-71899654D01*
X82616116Y-71820713D01*
X82617634Y-71763538D01*
X82620249Y-71724499D01*
X82624246Y-71699965D01*
X82629909Y-71686305D01*
X82637520Y-71679889D01*
X82640643Y-71678699D01*
X82659478Y-71674480D01*
X82701088Y-71666062D01*
X82760130Y-71654461D01*
X82831257Y-71640695D01*
X82909125Y-71625780D01*
X82988387Y-71610732D01*
X83063698Y-71596569D01*
X83129713Y-71584306D01*
X83181087Y-71574961D01*
X83212475Y-71569550D01*
X83219459Y-71568614D01*
X83225785Y-71556096D01*
X83239790Y-71522746D01*
X83258855Y-71474877D01*
X83266134Y-71456129D01*
X83295496Y-71383695D01*
X83330071Y-71303670D01*
X83361037Y-71236228D01*
X83383823Y-71184659D01*
X83398982Y-71142285D01*
X83404042Y-71116334D01*
X83403236Y-71112856D01*
X83392541Y-71096436D01*
X83368120Y-71059917D01*
X83332595Y-71007187D01*
X83288587Y-70942135D01*
X83238717Y-70868651D01*
X83228856Y-70854145D01*
X83170992Y-70768204D01*
X83128456Y-70702761D01*
X83099554Y-70654804D01*
X83082590Y-70621320D01*
X83075867Y-70599295D01*
X83077690Y-70585717D01*
X83077736Y-70585631D01*
X83092086Y-70567797D01*
X83123823Y-70533317D01*
X83169510Y-70485768D01*
X83225704Y-70428722D01*
X83288968Y-70365755D01*
X83296102Y-70358727D01*
X83375830Y-70281520D01*
X83437357Y-70224830D01*
X83481921Y-70187610D01*
X83510757Y-70168815D01*
X83523458Y-70166389D01*
X83541994Y-70176971D01*
X83580461Y-70201416D01*
X83634886Y-70237112D01*
X83701298Y-70281447D01*
X83775725Y-70331811D01*
X83793101Y-70343660D01*
X84039797Y-70512126D01*
X84151206Y-70461562D01*
X84218957Y-70432095D01*
X84291683Y-70402459D01*
X84354203Y-70378830D01*
X84356957Y-70377858D01*
X84405860Y-70359957D01*
X84443557Y-70344820D01*
X84461925Y-70335710D01*
X84461956Y-70335684D01*
X84467785Y-70319217D01*
X84477692Y-70278719D01*
X84490695Y-70218742D01*
X84505809Y-70143840D01*
X84522052Y-70058564D01*
X84523381Y-70051375D01*
X84539675Y-69963514D01*
X84554633Y-69883760D01*
X84567291Y-69817181D01*
X84576686Y-69768847D01*
X84581854Y-69743825D01*
X84581944Y-69743443D01*
X84585089Y-69732799D01*
X84591204Y-69724762D01*
X84603953Y-69718967D01*
X84627000Y-69715047D01*
X84664009Y-69712635D01*
X84718644Y-69711365D01*
X84794567Y-69710871D01*
X84895444Y-69710786D01*
X84908500Y-69710786D01*
X85012410Y-69710848D01*
D12*
X51308500Y-111368500D02*
X119308500Y-111368500D01*
X51308500Y-46868500D02*
X119308500Y-46868500D01*
D13*
X69840000Y-67502064D02*
X69840000Y-66297936D01*
X71660000Y-67502064D02*
X71660000Y-66297936D01*
X65606436Y-78758500D02*
X66810564Y-78758500D01*
X65606436Y-80578500D02*
X66810564Y-80578500D01*
X64970000Y-76500000D02*
X64970000Y-75560000D01*
X68960000Y-75560000D02*
X68960000Y-74440000D01*
X64970000Y-75560000D02*
X65040000Y-75560000D01*
X65040000Y-75560000D02*
X65040000Y-74440000D01*
X71658500Y-77068500D02*
G75*
G03*
X71658500Y-77068500I-950000J0D01*
G01*
X83818500Y-79005721D02*
X83818500Y-79331279D01*
X82798500Y-79005721D02*
X82798500Y-79331279D01*
X85818500Y-79005721D02*
X85818500Y-79331279D01*
X84798500Y-79005721D02*
X84798500Y-79331279D01*
X71662779Y-72510000D02*
X71337221Y-72510000D01*
X71662779Y-71490000D02*
X71337221Y-71490000D01*
X84035000Y-83400000D02*
X84035000Y-80940000D01*
X84035000Y-80940000D02*
X82565000Y-80940000D01*
X82565000Y-80940000D02*
X82565000Y-83400000D01*
X86043500Y-83368500D02*
X86043500Y-80908500D01*
X86043500Y-80908500D02*
X84573500Y-80908500D01*
X84573500Y-80908500D02*
X84573500Y-83368500D01*
X63162779Y-76510000D02*
X62837221Y-76510000D01*
X63162779Y-75490000D02*
X62837221Y-75490000D01*
X57200000Y-74250000D02*
X54900000Y-74250000D01*
X57200000Y-60750000D02*
X54900000Y-60750000D01*
X60800000Y-60750000D02*
X62450000Y-60750000D01*
X62450000Y-60750000D02*
X65050000Y-63350000D01*
X65050000Y-63350000D02*
X65850000Y-63350000D01*
X65850000Y-63350000D02*
X65850000Y-71650000D01*
X65850000Y-71650000D02*
X65050000Y-71650000D01*
X65050000Y-71650000D02*
X62450000Y-74250000D01*
X62450000Y-74250000D02*
X60800000Y-74250000D01*
X54950000Y-60750000D02*
G75*
G03*
X53400000Y-62200000I-50000J-1500000D01*
G01*
X54950000Y-74250000D02*
G75*
G02*
X53400000Y-72800000I-50000J1500000D01*
G01*
X53415840Y-62085385D02*
G75*
G03*
X53800000Y-63000000I984160J-124615D01*
G01*
X53415840Y-72914615D02*
G75*
G02*
X53800000Y-72000000I984160J124615D01*
G01*
X58868000Y-79788000D02*
X61168000Y-79788000D01*
X61168000Y-79788000D02*
X61168000Y-87188000D01*
X61168000Y-87188000D02*
X58868000Y-87188000D01*
X56068000Y-87188000D02*
X53768000Y-87188000D01*
X53768000Y-87188000D02*
X53768000Y-79788000D01*
X53768000Y-79788000D02*
X56068000Y-79788000D01*
X74870000Y-90290000D02*
X80070000Y-90290000D01*
X74870000Y-67370000D02*
X74870000Y-90290000D01*
X80070000Y-64770000D02*
X80070000Y-90290000D01*
X74870000Y-67370000D02*
X77470000Y-67370000D01*
X77470000Y-67370000D02*
X77470000Y-64770000D01*
X77470000Y-64770000D02*
X80070000Y-64770000D01*
X74870000Y-66100000D02*
X74870000Y-64770000D01*
X74870000Y-64770000D02*
X76200000Y-64770000D01*
X79214500Y-62191721D02*
X79214500Y-62517279D01*
X78194500Y-62191721D02*
X78194500Y-62517279D01*
X59624721Y-77490000D02*
X59950279Y-77490000D01*
X59624721Y-78510000D02*
X59950279Y-78510000D01*
X98417221Y-49970000D02*
X98742779Y-49970000D01*
X98417221Y-50990000D02*
X98742779Y-50990000D01*
X115443279Y-94614500D02*
X115117721Y-94614500D01*
X115443279Y-93594500D02*
X115117721Y-93594500D01*
X112141279Y-94614500D02*
X111815721Y-94614500D01*
X112141279Y-93594500D02*
X111815721Y-93594500D01*
X103086500Y-93505279D02*
X103086500Y-93179721D01*
X104106500Y-93505279D02*
X104106500Y-93179721D01*
X102138000Y-93179721D02*
X102138000Y-93505279D01*
X101118000Y-93179721D02*
X101118000Y-93505279D01*
X70337221Y-62990000D02*
X70662779Y-62990000D01*
X70337221Y-64010000D02*
X70662779Y-64010000D01*
X94518500Y-88605721D02*
X94518500Y-88931279D01*
X93498500Y-88605721D02*
X93498500Y-88931279D01*
X90871279Y-90978500D02*
X90545721Y-90978500D01*
X90871279Y-89958500D02*
X90545721Y-89958500D01*
X107533221Y-58258500D02*
X107858779Y-58258500D01*
X107533221Y-59278500D02*
X107858779Y-59278500D01*
X92555779Y-64388500D02*
X92230221Y-64388500D01*
X92555779Y-63368500D02*
X92230221Y-63368500D01*
X90390500Y-62191721D02*
X90390500Y-62517279D01*
X89370500Y-62191721D02*
X89370500Y-62517279D01*
X74010000Y-62191721D02*
X74010000Y-62517279D01*
X72990000Y-62191721D02*
X72990000Y-62517279D01*
X102032779Y-50990000D02*
X101707221Y-50990000D01*
X102032779Y-49970000D02*
X101707221Y-49970000D01*
X104166000Y-50134779D02*
X104166000Y-49809221D01*
X105186000Y-50134779D02*
X105186000Y-49809221D01*
X95530000Y-50134779D02*
X95530000Y-49809221D01*
X96550000Y-50134779D02*
X96550000Y-49809221D01*
X103822779Y-65404500D02*
X103497221Y-65404500D01*
X103822779Y-64384500D02*
X103497221Y-64384500D01*
X97726779Y-65404500D02*
X97401221Y-65404500D01*
X97726779Y-64384500D02*
X97401221Y-64384500D01*
X70337221Y-61490000D02*
X70662779Y-61490000D01*
X70337221Y-62510000D02*
X70662779Y-62510000D01*
X71337221Y-74490000D02*
X71662779Y-74490000D01*
X71337221Y-75510000D02*
X71662779Y-75510000D01*
X84802500Y-62191721D02*
X84802500Y-62517279D01*
X83782500Y-62191721D02*
X83782500Y-62517279D01*
X88835000Y-50331779D02*
X88835000Y-50006221D01*
X89855000Y-50331779D02*
X89855000Y-50006221D01*
X92926500Y-93505279D02*
X92926500Y-93179721D01*
X93946500Y-93505279D02*
X93946500Y-93179721D01*
X91978000Y-93179721D02*
X91978000Y-93505279D01*
X90958000Y-93179721D02*
X90958000Y-93505279D01*
X83755000Y-50331779D02*
X83755000Y-50006221D01*
X84775000Y-50331779D02*
X84775000Y-50006221D01*
X78167000Y-50331779D02*
X78167000Y-50006221D01*
X79187000Y-50331779D02*
X79187000Y-50006221D01*
X72579000Y-50331779D02*
X72579000Y-50006221D01*
X73599000Y-50331779D02*
X73599000Y-50006221D01*
X83782500Y-93505279D02*
X83782500Y-93179721D01*
X84802500Y-93505279D02*
X84802500Y-93179721D01*
X82326000Y-93179721D02*
X82326000Y-93505279D01*
X81306000Y-93179721D02*
X81306000Y-93505279D01*
X63235000Y-79800000D02*
X63235000Y-77340000D01*
X63235000Y-77340000D02*
X61765000Y-77340000D01*
X61765000Y-77340000D02*
X61765000Y-79800000D01*
X99722000Y-52668000D02*
X96422000Y-52668000D01*
X96422000Y-52668000D02*
X96422000Y-58068000D01*
X99722000Y-52668000D02*
X99722000Y-58068000D01*
X113664000Y-110042000D02*
X113664000Y-106742000D01*
X113664000Y-106742000D02*
X108264000Y-106742000D01*
X113664000Y-110042000D02*
X108264000Y-110042000D01*
X104012000Y-110042000D02*
X104012000Y-106742000D01*
X104012000Y-106742000D02*
X98612000Y-106742000D01*
X104012000Y-110042000D02*
X98612000Y-110042000D01*
X93852000Y-110042000D02*
X93852000Y-106742000D01*
X93852000Y-106742000D02*
X88452000Y-106742000D01*
X93852000Y-110042000D02*
X88452000Y-110042000D01*
X62160000Y-107250000D02*
X62160000Y-110550000D01*
X62160000Y-110550000D02*
X67560000Y-110550000D01*
X62160000Y-107250000D02*
X67560000Y-107250000D01*
X105310000Y-52668000D02*
X102010000Y-52668000D01*
X102010000Y-52668000D02*
X102010000Y-58068000D01*
X105310000Y-52668000D02*
X105310000Y-58068000D01*
X55526000Y-103468000D02*
X52226000Y-103468000D01*
X52226000Y-103468000D02*
X52226000Y-108868000D01*
X55526000Y-103468000D02*
X55526000Y-108868000D01*
X55084000Y-88442000D02*
X55084000Y-91742000D01*
X55084000Y-91742000D02*
X60484000Y-91742000D01*
X55084000Y-88442000D02*
X60484000Y-88442000D01*
X83819000Y-110169000D02*
X83819000Y-106869000D01*
X83819000Y-106869000D02*
X78419000Y-106869000D01*
X83819000Y-110169000D02*
X78419000Y-110169000D01*
X60620000Y-96750000D02*
G75*
G03*
X60620000Y-96750000I-4120000J0D01*
G01*
X56500000Y-92670000D02*
X56500000Y-100830000D01*
X56540000Y-92670000D02*
X56540000Y-100830000D01*
X56580000Y-92670000D02*
X56580000Y-100830000D01*
X56620000Y-92671000D02*
X56620000Y-100829000D01*
X56660000Y-92673000D02*
X56660000Y-100827000D01*
X56700000Y-92674000D02*
X56700000Y-100826000D01*
X56740000Y-92676000D02*
X56740000Y-100824000D01*
X56780000Y-92679000D02*
X56780000Y-100821000D01*
X56820000Y-92682000D02*
X56820000Y-100818000D01*
X56860000Y-92685000D02*
X56860000Y-100815000D01*
X56900000Y-92689000D02*
X56900000Y-100811000D01*
X56940000Y-92693000D02*
X56940000Y-100807000D01*
X56980000Y-92698000D02*
X56980000Y-100802000D01*
X57020000Y-92702000D02*
X57020000Y-100798000D01*
X57060000Y-92708000D02*
X57060000Y-100792000D01*
X57100000Y-92713000D02*
X57100000Y-100787000D01*
X57140000Y-92720000D02*
X57140000Y-100780000D01*
X57180000Y-92726000D02*
X57180000Y-100774000D01*
X57221000Y-92733000D02*
X57221000Y-95710000D01*
X57221000Y-97790000D02*
X57221000Y-100767000D01*
X57261000Y-92740000D02*
X57261000Y-95710000D01*
X57261000Y-97790000D02*
X57261000Y-100760000D01*
X57301000Y-92748000D02*
X57301000Y-95710000D01*
X57301000Y-97790000D02*
X57301000Y-100752000D01*
X57341000Y-92756000D02*
X57341000Y-95710000D01*
X57341000Y-97790000D02*
X57341000Y-100744000D01*
X57381000Y-92765000D02*
X57381000Y-95710000D01*
X57381000Y-97790000D02*
X57381000Y-100735000D01*
X57421000Y-92774000D02*
X57421000Y-95710000D01*
X57421000Y-97790000D02*
X57421000Y-100726000D01*
X57461000Y-92783000D02*
X57461000Y-95710000D01*
X57461000Y-97790000D02*
X57461000Y-100717000D01*
X57501000Y-92793000D02*
X57501000Y-95710000D01*
X57501000Y-97790000D02*
X57501000Y-100707000D01*
X57541000Y-92803000D02*
X57541000Y-95710000D01*
X57541000Y-97790000D02*
X57541000Y-100697000D01*
X57581000Y-92814000D02*
X57581000Y-95710000D01*
X57581000Y-97790000D02*
X57581000Y-100686000D01*
X57621000Y-92825000D02*
X57621000Y-95710000D01*
X57621000Y-97790000D02*
X57621000Y-100675000D01*
X57661000Y-92836000D02*
X57661000Y-95710000D01*
X57661000Y-97790000D02*
X57661000Y-100664000D01*
X57701000Y-92848000D02*
X57701000Y-95710000D01*
X57701000Y-97790000D02*
X57701000Y-100652000D01*
X57741000Y-92861000D02*
X57741000Y-95710000D01*
X57741000Y-97790000D02*
X57741000Y-100639000D01*
X57781000Y-92873000D02*
X57781000Y-95710000D01*
X57781000Y-97790000D02*
X57781000Y-100627000D01*
X57821000Y-92887000D02*
X57821000Y-95710000D01*
X57821000Y-97790000D02*
X57821000Y-100613000D01*
X57861000Y-92900000D02*
X57861000Y-95710000D01*
X57861000Y-97790000D02*
X57861000Y-100600000D01*
X57901000Y-92915000D02*
X57901000Y-95710000D01*
X57901000Y-97790000D02*
X57901000Y-100585000D01*
X57941000Y-92929000D02*
X57941000Y-95710000D01*
X57941000Y-97790000D02*
X57941000Y-100571000D01*
X57981000Y-92945000D02*
X57981000Y-95710000D01*
X57981000Y-97790000D02*
X57981000Y-100555000D01*
X58021000Y-92960000D02*
X58021000Y-95710000D01*
X58021000Y-97790000D02*
X58021000Y-100540000D01*
X58061000Y-92976000D02*
X58061000Y-95710000D01*
X58061000Y-97790000D02*
X58061000Y-100524000D01*
X58101000Y-92993000D02*
X58101000Y-95710000D01*
X58101000Y-97790000D02*
X58101000Y-100507000D01*
X58141000Y-93010000D02*
X58141000Y-95710000D01*
X58141000Y-97790000D02*
X58141000Y-100490000D01*
X58181000Y-93028000D02*
X58181000Y-95710000D01*
X58181000Y-97790000D02*
X58181000Y-100472000D01*
X58221000Y-93046000D02*
X58221000Y-95710000D01*
X58221000Y-97790000D02*
X58221000Y-100454000D01*
X58261000Y-93064000D02*
X58261000Y-95710000D01*
X58261000Y-97790000D02*
X58261000Y-100436000D01*
X58301000Y-93084000D02*
X58301000Y-95710000D01*
X58301000Y-97790000D02*
X58301000Y-100416000D01*
X58341000Y-93103000D02*
X58341000Y-95710000D01*
X58341000Y-97790000D02*
X58341000Y-100397000D01*
X58381000Y-93123000D02*
X58381000Y-95710000D01*
X58381000Y-97790000D02*
X58381000Y-100377000D01*
X58421000Y-93144000D02*
X58421000Y-95710000D01*
X58421000Y-97790000D02*
X58421000Y-100356000D01*
X58461000Y-93166000D02*
X58461000Y-95710000D01*
X58461000Y-97790000D02*
X58461000Y-100334000D01*
X58501000Y-93188000D02*
X58501000Y-95710000D01*
X58501000Y-97790000D02*
X58501000Y-100312000D01*
X58541000Y-93210000D02*
X58541000Y-95710000D01*
X58541000Y-97790000D02*
X58541000Y-100290000D01*
X58581000Y-93233000D02*
X58581000Y-95710000D01*
X58581000Y-97790000D02*
X58581000Y-100267000D01*
X58621000Y-93257000D02*
X58621000Y-95710000D01*
X58621000Y-97790000D02*
X58621000Y-100243000D01*
X58661000Y-93281000D02*
X58661000Y-95710000D01*
X58661000Y-97790000D02*
X58661000Y-100219000D01*
X58701000Y-93306000D02*
X58701000Y-95710000D01*
X58701000Y-97790000D02*
X58701000Y-100194000D01*
X58741000Y-93332000D02*
X58741000Y-95710000D01*
X58741000Y-97790000D02*
X58741000Y-100168000D01*
X58781000Y-93358000D02*
X58781000Y-95710000D01*
X58781000Y-97790000D02*
X58781000Y-100142000D01*
X58821000Y-93385000D02*
X58821000Y-95710000D01*
X58821000Y-97790000D02*
X58821000Y-100115000D01*
X58861000Y-93412000D02*
X58861000Y-95710000D01*
X58861000Y-97790000D02*
X58861000Y-100088000D01*
X58901000Y-93441000D02*
X58901000Y-95710000D01*
X58901000Y-97790000D02*
X58901000Y-100059000D01*
X58941000Y-93470000D02*
X58941000Y-95710000D01*
X58941000Y-97790000D02*
X58941000Y-100030000D01*
X58981000Y-93500000D02*
X58981000Y-95710000D01*
X58981000Y-97790000D02*
X58981000Y-100000000D01*
X59021000Y-93530000D02*
X59021000Y-95710000D01*
X59021000Y-97790000D02*
X59021000Y-99970000D01*
X59061000Y-93561000D02*
X59061000Y-95710000D01*
X59061000Y-97790000D02*
X59061000Y-99939000D01*
X59101000Y-93594000D02*
X59101000Y-95710000D01*
X59101000Y-97790000D02*
X59101000Y-99906000D01*
X59141000Y-93626000D02*
X59141000Y-95710000D01*
X59141000Y-97790000D02*
X59141000Y-99874000D01*
X59181000Y-93660000D02*
X59181000Y-95710000D01*
X59181000Y-97790000D02*
X59181000Y-99840000D01*
X59221000Y-93695000D02*
X59221000Y-95710000D01*
X59221000Y-97790000D02*
X59221000Y-99805000D01*
X59261000Y-93731000D02*
X59261000Y-95710000D01*
X59261000Y-97790000D02*
X59261000Y-99769000D01*
X59301000Y-93767000D02*
X59301000Y-99733000D01*
X59341000Y-93805000D02*
X59341000Y-99695000D01*
X59381000Y-93843000D02*
X59381000Y-99657000D01*
X59421000Y-93883000D02*
X59421000Y-99617000D01*
X59461000Y-93924000D02*
X59461000Y-99576000D01*
X59501000Y-93966000D02*
X59501000Y-99534000D01*
X59541000Y-94009000D02*
X59541000Y-99491000D01*
X59581000Y-94053000D02*
X59581000Y-99447000D01*
X59621000Y-94099000D02*
X59621000Y-99401000D01*
X59661000Y-94146000D02*
X59661000Y-99354000D01*
X59701000Y-94194000D02*
X59701000Y-99306000D01*
X59741000Y-94245000D02*
X59741000Y-99255000D01*
X59781000Y-94296000D02*
X59781000Y-99204000D01*
X59821000Y-94350000D02*
X59821000Y-99150000D01*
X59861000Y-94405000D02*
X59861000Y-99095000D01*
X59901000Y-94463000D02*
X59901000Y-99037000D01*
X59941000Y-94522000D02*
X59941000Y-98978000D01*
X59981000Y-94584000D02*
X59981000Y-98916000D01*
X60021000Y-94648000D02*
X60021000Y-98852000D01*
X60061000Y-94716000D02*
X60061000Y-98784000D01*
X60101000Y-94786000D02*
X60101000Y-98714000D01*
X60141000Y-94860000D02*
X60141000Y-98640000D01*
X60181000Y-94937000D02*
X60181000Y-98563000D01*
X60221000Y-95019000D02*
X60221000Y-98481000D01*
X60261000Y-95105000D02*
X60261000Y-98395000D01*
X60301000Y-95198000D02*
X60301000Y-98302000D01*
X60341000Y-95297000D02*
X60341000Y-98203000D01*
X60381000Y-95404000D02*
X60381000Y-98096000D01*
X60421000Y-95521000D02*
X60421000Y-97979000D01*
X60461000Y-95652000D02*
X60461000Y-97848000D01*
X60501000Y-95802000D02*
X60501000Y-97698000D01*
X60541000Y-95982000D02*
X60541000Y-97518000D01*
X60581000Y-96217000D02*
X60581000Y-97283000D01*
X52090302Y-94435000D02*
X52890302Y-94435000D01*
X52490302Y-94035000D02*
X52490302Y-94835000D01*
X65162779Y-90710000D02*
X64837221Y-90710000D01*
X65162779Y-89690000D02*
X64837221Y-89690000D01*
X55587221Y-77490000D02*
X55912779Y-77490000D01*
X55587221Y-78510000D02*
X55912779Y-78510000D01*
X69162779Y-70510000D02*
X68837221Y-70510000D01*
X69162779Y-69490000D02*
X68837221Y-69490000D01*
X69118000Y-105181221D02*
X69118000Y-105506779D01*
X68098000Y-105181221D02*
X68098000Y-105506779D01*
X73382000Y-105082748D02*
X73382000Y-105605252D01*
X71962000Y-105082748D02*
X71962000Y-105605252D01*
X69710000Y-84637221D02*
X69710000Y-84962779D01*
X68690000Y-84637221D02*
X68690000Y-84962779D01*
X105928500Y-62428500D02*
X106858500Y-62428500D01*
X109088500Y-62428500D02*
X108158500Y-62428500D01*
X109088500Y-62428500D02*
X109088500Y-60268500D01*
X105928500Y-62428500D02*
X105928500Y-60968500D01*
X92188500Y-87008500D02*
X91258500Y-87008500D01*
X89028500Y-87008500D02*
X89958500Y-87008500D01*
X89028500Y-87008500D02*
X89028500Y-89168500D01*
X92188500Y-87008500D02*
X92188500Y-88468500D01*
X74410000Y-102660000D02*
X74410000Y-101400000D01*
X74410000Y-95840000D02*
X74410000Y-97100000D01*
X70650000Y-102660000D02*
X74410000Y-102660000D01*
X68400000Y-95840000D02*
X74410000Y-95840000D01*
X99144000Y-60896000D02*
X98214000Y-60896000D01*
X95984000Y-60896000D02*
X96914000Y-60896000D01*
X95984000Y-60896000D02*
X95984000Y-63056000D01*
X99144000Y-60896000D02*
X99144000Y-62356000D01*
X105240000Y-60896000D02*
X104310000Y-60896000D01*
X102080000Y-60896000D02*
X103010000Y-60896000D01*
X102080000Y-60896000D02*
X102080000Y-63056000D01*
X105240000Y-60896000D02*
X105240000Y-62356000D01*
X80348000Y-92392000D02*
X79418000Y-92392000D01*
X77188000Y-92392000D02*
X78118000Y-92392000D01*
X77188000Y-92392000D02*
X77188000Y-94552000D01*
X80348000Y-92392000D02*
X80348000Y-93852000D01*
X90000000Y-92392000D02*
X89070000Y-92392000D01*
X86840000Y-92392000D02*
X87770000Y-92392000D01*
X86840000Y-92392000D02*
X86840000Y-94552000D01*
X90000000Y-92392000D02*
X90000000Y-93852000D01*
X100160000Y-92392000D02*
X99230000Y-92392000D01*
X97000000Y-92392000D02*
X97930000Y-92392000D01*
X97000000Y-92392000D02*
X97000000Y-94552000D01*
X100160000Y-92392000D02*
X100160000Y-93852000D01*
X108732500Y-92582500D02*
X107802500Y-92582500D01*
X105572500Y-92582500D02*
X106502500Y-92582500D01*
X105572500Y-92582500D02*
X105572500Y-94742500D01*
X108732500Y-92582500D02*
X108732500Y-94042500D01*
D12*
X53000000Y-56750000D02*
X53000000Y-50250000D01*
X53000000Y-50250000D02*
X59000000Y-50250000D01*
X59000000Y-50250000D02*
X59000000Y-56750000D01*
X59000000Y-56750000D02*
X53000000Y-56750000D01*
X60000000Y-56750000D02*
X60000000Y-50250000D01*
X60000000Y-50250000D02*
X66000000Y-50250000D01*
X66000000Y-50250000D02*
X66000000Y-56750000D01*
X66000000Y-56750000D02*
X60000000Y-56750000D01*
D14*
X112987981Y-66694000D02*
G75*
G03*
X112987981Y-66694000I-283981J0D01*
G01*
D12*
X112850000Y-85600000D02*
X112850000Y-67600000D01*
X118850000Y-67600000D02*
X93350000Y-67600000D01*
X118850000Y-85600000D02*
X93350000Y-85600000D01*
X93350000Y-85600000D02*
X93350000Y-67600000D01*
X118850000Y-85600000D02*
X118850000Y-67600000D01*
D13*
X78853000Y-53865000D02*
X78853000Y-52165000D01*
X75453000Y-58665000D02*
X75153000Y-58665000D01*
X75153000Y-58665000D02*
X75153000Y-53865000D01*
X75153000Y-53865000D02*
X75453000Y-53865000D01*
X78853000Y-53865000D02*
X79153000Y-53865000D01*
X79153000Y-53865000D02*
X79153000Y-58665000D01*
X79153000Y-58665000D02*
X78853000Y-58665000D01*
D12*
X67795060Y-82756560D02*
X67745060Y-82756560D01*
X67795060Y-86906560D02*
X67650060Y-86906560D01*
X62645060Y-86906560D02*
X62790060Y-86906560D01*
X62645060Y-82756560D02*
X62790060Y-82756560D01*
X67795060Y-82756560D02*
X67795060Y-86906560D01*
X62645060Y-82756560D02*
X62645060Y-86906560D01*
X67745060Y-82756560D02*
X67745060Y-81356560D01*
D13*
X94494500Y-95606500D02*
X94494500Y-98206500D01*
X93394500Y-95606500D02*
X93394500Y-98206500D01*
X94494500Y-95606500D02*
X93394500Y-95606500D01*
X84842500Y-95606500D02*
X83742500Y-95606500D01*
X83742500Y-95606500D02*
X83742500Y-98206500D01*
X84842500Y-95606500D02*
X84842500Y-98206500D01*
X104654500Y-95606500D02*
X104654500Y-98206500D01*
X103554500Y-95606500D02*
X103554500Y-98206500D01*
X104654500Y-95606500D02*
X103554500Y-95606500D01*
X114306500Y-95606500D02*
X113206500Y-95606500D01*
X113206500Y-95606500D02*
X113206500Y-98206500D01*
X114306500Y-95606500D02*
X114306500Y-98206500D01*
X74073000Y-58665000D02*
X73773000Y-58665000D01*
X74073000Y-53865000D02*
X74073000Y-58665000D01*
X73773000Y-53865000D02*
X74073000Y-53865000D01*
X70073000Y-53865000D02*
X70373000Y-53865000D01*
X70073000Y-58665000D02*
X70073000Y-53865000D01*
X70373000Y-58665000D02*
X70073000Y-58665000D01*
X73773000Y-53865000D02*
X73773000Y-52165000D01*
X84666295Y-53680521D02*
X84666295Y-51980521D01*
X81266295Y-58480521D02*
X80966295Y-58480521D01*
X80966295Y-58480521D02*
X80966295Y-53680521D01*
X80966295Y-53680521D02*
X81266295Y-53680521D01*
X84666295Y-53680521D02*
X84966295Y-53680521D01*
X84966295Y-53680521D02*
X84966295Y-58480521D01*
X84966295Y-58480521D02*
X84666295Y-58480521D01*
X90329000Y-58665000D02*
X90029000Y-58665000D01*
X90329000Y-53865000D02*
X90329000Y-58665000D01*
X90029000Y-53865000D02*
X90329000Y-53865000D01*
X86329000Y-53865000D02*
X86629000Y-53865000D01*
X86329000Y-58665000D02*
X86329000Y-53865000D01*
X86629000Y-58665000D02*
X86329000Y-58665000D01*
X90029000Y-53865000D02*
X90029000Y-52165000D01*
X112416000Y-105912000D02*
X112416000Y-95632000D01*
X107096000Y-105912000D02*
X112416000Y-105912000D01*
X107096000Y-95632000D02*
X107096000Y-105912000D01*
X112416000Y-95632000D02*
X107096000Y-95632000D01*
X112356000Y-103422000D02*
X112356000Y-101772000D01*
X107156000Y-103422000D02*
X112356000Y-103422000D01*
X107156000Y-98122000D02*
X107156000Y-103422000D01*
X112356000Y-98122000D02*
X107156000Y-98122000D01*
X112356000Y-99772000D02*
X112356000Y-98122000D01*
X112356000Y-101772000D02*
G75*
G02*
X112356000Y-99772000I0J1000000D01*
G01*
X102704000Y-99772000D02*
X102704000Y-98122000D01*
X102704000Y-98122000D02*
X97504000Y-98122000D01*
X97504000Y-98122000D02*
X97504000Y-103422000D01*
X97504000Y-103422000D02*
X102704000Y-103422000D01*
X102704000Y-103422000D02*
X102704000Y-101772000D01*
X102764000Y-95632000D02*
X97444000Y-95632000D01*
X97444000Y-95632000D02*
X97444000Y-105912000D01*
X97444000Y-105912000D02*
X102764000Y-105912000D01*
X102764000Y-105912000D02*
X102764000Y-95632000D01*
X102704000Y-101772000D02*
G75*
G02*
X102704000Y-99772000I0J1000000D01*
G01*
X82952000Y-105912000D02*
X82952000Y-95632000D01*
X77632000Y-105912000D02*
X82952000Y-105912000D01*
X77632000Y-95632000D02*
X77632000Y-105912000D01*
X82952000Y-95632000D02*
X77632000Y-95632000D01*
X82892000Y-103422000D02*
X82892000Y-101772000D01*
X77692000Y-103422000D02*
X82892000Y-103422000D01*
X77692000Y-98122000D02*
X77692000Y-103422000D01*
X82892000Y-98122000D02*
X77692000Y-98122000D01*
X82892000Y-99772000D02*
X82892000Y-98122000D01*
X82892000Y-101772000D02*
G75*
G02*
X82892000Y-99772000I0J1000000D01*
G01*
X92544000Y-99772000D02*
X92544000Y-98122000D01*
X92544000Y-98122000D02*
X87344000Y-98122000D01*
X87344000Y-98122000D02*
X87344000Y-103422000D01*
X87344000Y-103422000D02*
X92544000Y-103422000D01*
X92544000Y-103422000D02*
X92544000Y-101772000D01*
X92604000Y-95632000D02*
X87284000Y-95632000D01*
X87284000Y-95632000D02*
X87284000Y-105912000D01*
X87284000Y-105912000D02*
X92604000Y-105912000D01*
X92604000Y-105912000D02*
X92604000Y-95632000D01*
X92544000Y-101772000D02*
G75*
G02*
X92544000Y-99772000I0J1000000D01*
G01*
D15*
X112548500Y-41068500D02*
X112548500Y-41668500D01*
X113948500Y-41068500D02*
X113948500Y-41668500D01*
X112548500Y-41668500D02*
G75*
G03*
X113948500Y-41668500I700000J0D01*
G01*
X113948500Y-41068500D02*
G75*
G03*
X112548500Y-41068500I-700000J0D01*
G01*
X107468500Y-41068500D02*
X107468500Y-41668500D01*
X108868500Y-41068500D02*
X108868500Y-41668500D01*
X107468500Y-41668500D02*
G75*
G03*
X108868500Y-41668500I700000J0D01*
G01*
X108868500Y-41068500D02*
G75*
G03*
X107468500Y-41068500I-700000J0D01*
G01*
X102388500Y-41068500D02*
X102388500Y-41668500D01*
X103788500Y-41068500D02*
X103788500Y-41668500D01*
X102388500Y-41668500D02*
G75*
G03*
X103788500Y-41668500I700000J0D01*
G01*
X103788500Y-41068500D02*
G75*
G03*
X102388500Y-41068500I-700000J0D01*
G01*
X97308500Y-41068500D02*
X97308500Y-41668500D01*
X98708500Y-41068500D02*
X98708500Y-41668500D01*
X97308500Y-41668500D02*
G75*
G03*
X98708500Y-41668500I700000J0D01*
G01*
X98708500Y-41068500D02*
G75*
G03*
X97308500Y-41068500I-700000J0D01*
G01*
X92228500Y-41068500D02*
X92228500Y-41668500D01*
X93628500Y-41068500D02*
X93628500Y-41668500D01*
X92228500Y-41668500D02*
G75*
G03*
X93628500Y-41668500I700000J0D01*
G01*
X93628500Y-41068500D02*
G75*
G03*
X92228500Y-41068500I-700000J0D01*
G01*
X87148500Y-41068500D02*
X87148500Y-41668500D01*
X88548500Y-41068500D02*
X88548500Y-41668500D01*
X87148500Y-41668500D02*
G75*
G03*
X88548500Y-41668500I700000J0D01*
G01*
X88548500Y-41068500D02*
G75*
G03*
X87148500Y-41068500I-700000J0D01*
G01*
X82068500Y-41068500D02*
X82068500Y-41668500D01*
X83468500Y-41068500D02*
X83468500Y-41668500D01*
X82068500Y-41668500D02*
G75*
G03*
X83468500Y-41668500I700000J0D01*
G01*
X83468500Y-41068500D02*
G75*
G03*
X82068500Y-41068500I-700000J0D01*
G01*
X76988500Y-41068500D02*
X76988500Y-41668500D01*
X78388500Y-41068500D02*
X78388500Y-41668500D01*
X76988500Y-41668500D02*
G75*
G03*
X78388500Y-41668500I700000J0D01*
G01*
X78388500Y-41068500D02*
G75*
G03*
X76988500Y-41068500I-700000J0D01*
G01*
X71908500Y-41068500D02*
X71908500Y-41668500D01*
X73308500Y-41068500D02*
X73308500Y-41668500D01*
X71908500Y-41668500D02*
G75*
G03*
X73308500Y-41668500I700000J0D01*
G01*
X73308500Y-41068500D02*
G75*
G03*
X71908500Y-41068500I-700000J0D01*
G01*
X66828500Y-41068500D02*
X66828500Y-41668500D01*
X68228500Y-41068500D02*
X68228500Y-41668500D01*
X66828500Y-41668500D02*
G75*
G03*
X68228500Y-41668500I700000J0D01*
G01*
X68228500Y-41068500D02*
G75*
G03*
X66828500Y-41068500I-700000J0D01*
G01*
X61748500Y-41068500D02*
X61748500Y-41668500D01*
X63148500Y-41068500D02*
X63148500Y-41668500D01*
X61748500Y-41668500D02*
G75*
G03*
X63148500Y-41668500I700000J0D01*
G01*
X63148500Y-41068500D02*
G75*
G03*
X61748500Y-41068500I-700000J0D01*
G01*
X56668500Y-41068500D02*
X56668500Y-41668500D01*
X58068500Y-41068500D02*
X58068500Y-41668500D01*
X56668500Y-41668500D02*
G75*
G03*
X58068500Y-41668500I700000J0D01*
G01*
X58068500Y-41068500D02*
G75*
G03*
X56668500Y-41068500I-700000J0D01*
G01*
X112548500Y-116568500D02*
X112548500Y-117168500D01*
X113948500Y-116568500D02*
X113948500Y-117168500D01*
X112548500Y-117168500D02*
G75*
G03*
X113948500Y-117168500I700000J0D01*
G01*
X113948500Y-116568500D02*
G75*
G03*
X112548500Y-116568500I-700000J0D01*
G01*
X107468500Y-116568500D02*
X107468500Y-117168500D01*
X108868500Y-116568500D02*
X108868500Y-117168500D01*
X107468500Y-117168500D02*
G75*
G03*
X108868500Y-117168500I700000J0D01*
G01*
X108868500Y-116568500D02*
G75*
G03*
X107468500Y-116568500I-700000J0D01*
G01*
X102388500Y-116568500D02*
X102388500Y-117168500D01*
X103788500Y-116568500D02*
X103788500Y-117168500D01*
X102388500Y-117168500D02*
G75*
G03*
X103788500Y-117168500I700000J0D01*
G01*
X103788500Y-116568500D02*
G75*
G03*
X102388500Y-116568500I-700000J0D01*
G01*
X97308500Y-116568500D02*
X97308500Y-117168500D01*
X98708500Y-116568500D02*
X98708500Y-117168500D01*
X97308500Y-117168500D02*
G75*
G03*
X98708500Y-117168500I700000J0D01*
G01*
X98708500Y-116568500D02*
G75*
G03*
X97308500Y-116568500I-700000J0D01*
G01*
X92228500Y-116568500D02*
X92228500Y-117168500D01*
X93628500Y-116568500D02*
X93628500Y-117168500D01*
X92228500Y-117168500D02*
G75*
G03*
X93628500Y-117168500I700000J0D01*
G01*
X93628500Y-116568500D02*
G75*
G03*
X92228500Y-116568500I-700000J0D01*
G01*
X87148500Y-116568500D02*
X87148500Y-117168500D01*
X88548500Y-116568500D02*
X88548500Y-117168500D01*
X87148500Y-117168500D02*
G75*
G03*
X88548500Y-117168500I700000J0D01*
G01*
X88548500Y-116568500D02*
G75*
G03*
X87148500Y-116568500I-700000J0D01*
G01*
X82068500Y-116568500D02*
X82068500Y-117168500D01*
X83468500Y-116568500D02*
X83468500Y-117168500D01*
X82068500Y-117168500D02*
G75*
G03*
X83468500Y-117168500I700000J0D01*
G01*
X83468500Y-116568500D02*
G75*
G03*
X82068500Y-116568500I-700000J0D01*
G01*
X76988500Y-116568500D02*
X76988500Y-117168500D01*
X78388500Y-116568500D02*
X78388500Y-117168500D01*
X76988500Y-117168500D02*
G75*
G03*
X78388500Y-117168500I700000J0D01*
G01*
X78388500Y-116568500D02*
G75*
G03*
X76988500Y-116568500I-700000J0D01*
G01*
X71908500Y-116568500D02*
X71908500Y-117168500D01*
X73308500Y-116568500D02*
X73308500Y-117168500D01*
X71908500Y-117168500D02*
G75*
G03*
X73308500Y-117168500I700000J0D01*
G01*
X73308500Y-116568500D02*
G75*
G03*
X71908500Y-116568500I-700000J0D01*
G01*
X66828500Y-116568500D02*
X66828500Y-117168500D01*
X68228500Y-116568500D02*
X68228500Y-117168500D01*
X66828500Y-117168500D02*
G75*
G03*
X68228500Y-117168500I700000J0D01*
G01*
X68228500Y-116568500D02*
G75*
G03*
X66828500Y-116568500I-700000J0D01*
G01*
X61748500Y-116568500D02*
X61748500Y-117168500D01*
X63148500Y-116568500D02*
X63148500Y-117168500D01*
X61748500Y-117168500D02*
G75*
G03*
X63148500Y-117168500I700000J0D01*
G01*
X63148500Y-116568500D02*
G75*
G03*
X61748500Y-116568500I-700000J0D01*
G01*
X56668500Y-116568500D02*
X56668500Y-117168500D01*
X58068500Y-116568500D02*
X58068500Y-117168500D01*
X56668500Y-117168500D02*
G75*
G03*
X58068500Y-117168500I700000J0D01*
G01*
X58068500Y-116568500D02*
G75*
G03*
X56668500Y-116568500I-700000J0D01*
G01*
D12*
X114470404Y-109520880D02*
X114470404Y-110330404D01*
X114518023Y-110425642D01*
X114565642Y-110473261D01*
X114660880Y-110520880D01*
X114851357Y-110520880D01*
X114946595Y-110473261D01*
X114994214Y-110425642D01*
X115041833Y-110330404D01*
X115041833Y-109520880D01*
X116041833Y-110520880D02*
X115470404Y-110520880D01*
X115756119Y-110520880D02*
X115756119Y-109520880D01*
X115660880Y-109663738D01*
X115565642Y-109758976D01*
X115470404Y-109806595D01*
X116994214Y-110520880D02*
X116422785Y-110520880D01*
X116708500Y-110520880D02*
X116708500Y-109520880D01*
X116613261Y-109663738D01*
X116518023Y-109758976D01*
X116422785Y-109806595D01*
X67941833Y-66725642D02*
X67894214Y-66773261D01*
X67751357Y-66820880D01*
X67656119Y-66820880D01*
X67513261Y-66773261D01*
X67418023Y-66678023D01*
X67370404Y-66582785D01*
X67322785Y-66392309D01*
X67322785Y-66249452D01*
X67370404Y-66058976D01*
X67418023Y-65963738D01*
X67513261Y-65868500D01*
X67656119Y-65820880D01*
X67751357Y-65820880D01*
X67894214Y-65868500D01*
X67941833Y-65916119D01*
X68798976Y-65820880D02*
X68608500Y-65820880D01*
X68513261Y-65868500D01*
X68465642Y-65916119D01*
X68370404Y-66058976D01*
X68322785Y-66249452D01*
X68322785Y-66630404D01*
X68370404Y-66725642D01*
X68418023Y-66773261D01*
X68513261Y-66820880D01*
X68703738Y-66820880D01*
X68798976Y-66773261D01*
X68846595Y-66725642D01*
X68894214Y-66630404D01*
X68894214Y-66392309D01*
X68846595Y-66297071D01*
X68798976Y-66249452D01*
X68703738Y-66201833D01*
X68513261Y-66201833D01*
X68418023Y-66249452D01*
X68370404Y-66297071D01*
X68322785Y-66392309D01*
X69191833Y-81375642D02*
X69144214Y-81423261D01*
X69001357Y-81470880D01*
X68906119Y-81470880D01*
X68763261Y-81423261D01*
X68668023Y-81328023D01*
X68620404Y-81232785D01*
X68572785Y-81042309D01*
X68572785Y-80899452D01*
X68620404Y-80708976D01*
X68668023Y-80613738D01*
X68763261Y-80518500D01*
X68906119Y-80470880D01*
X69001357Y-80470880D01*
X69144214Y-80518500D01*
X69191833Y-80566119D01*
X70096595Y-80470880D02*
X69620404Y-80470880D01*
X69572785Y-80947071D01*
X69620404Y-80899452D01*
X69715642Y-80851833D01*
X69953738Y-80851833D01*
X70048976Y-80899452D01*
X70096595Y-80947071D01*
X70144214Y-81042309D01*
X70144214Y-81280404D01*
X70096595Y-81375642D01*
X70048976Y-81423261D01*
X69953738Y-81470880D01*
X69715642Y-81470880D01*
X69620404Y-81423261D01*
X69572785Y-81375642D01*
X66561904Y-72152380D02*
X66561904Y-72961904D01*
X66609523Y-73057142D01*
X66657142Y-73104761D01*
X66752380Y-73152380D01*
X66942857Y-73152380D01*
X67038095Y-73104761D01*
X67085714Y-73057142D01*
X67133333Y-72961904D01*
X67133333Y-72152380D01*
X68133333Y-73152380D02*
X67561904Y-73152380D01*
X67847619Y-73152380D02*
X67847619Y-72152380D01*
X67752380Y-72295238D01*
X67657142Y-72390476D01*
X67561904Y-72438095D01*
X68466666Y-72152380D02*
X69085714Y-72152380D01*
X68752380Y-72533333D01*
X68895238Y-72533333D01*
X68990476Y-72580952D01*
X69038095Y-72628571D01*
X69085714Y-72723809D01*
X69085714Y-72961904D01*
X69038095Y-73057142D01*
X68990476Y-73104761D01*
X68895238Y-73152380D01*
X68609523Y-73152380D01*
X68514285Y-73104761D01*
X68466666Y-73057142D01*
X71346595Y-78520880D02*
X71918023Y-78520880D01*
X71632309Y-79520880D02*
X71632309Y-78520880D01*
X72251357Y-79520880D02*
X72251357Y-78520880D01*
X72632309Y-78520880D01*
X72727547Y-78568500D01*
X72775166Y-78616119D01*
X72822785Y-78711357D01*
X72822785Y-78854214D01*
X72775166Y-78949452D01*
X72727547Y-78997071D01*
X72632309Y-79044690D01*
X72251357Y-79044690D01*
X73775166Y-79520880D02*
X73203738Y-79520880D01*
X73489452Y-79520880D02*
X73489452Y-78520880D01*
X73394214Y-78663738D01*
X73298976Y-78758976D01*
X73203738Y-78806595D01*
X82665642Y-77420880D02*
X82332309Y-76944690D01*
X82094214Y-77420880D02*
X82094214Y-76420880D01*
X82475166Y-76420880D01*
X82570404Y-76468500D01*
X82618023Y-76516119D01*
X82665642Y-76611357D01*
X82665642Y-76754214D01*
X82618023Y-76849452D01*
X82570404Y-76897071D01*
X82475166Y-76944690D01*
X82094214Y-76944690D01*
X82998976Y-76420880D02*
X83618023Y-76420880D01*
X83284690Y-76801833D01*
X83427547Y-76801833D01*
X83522785Y-76849452D01*
X83570404Y-76897071D01*
X83618023Y-76992309D01*
X83618023Y-77230404D01*
X83570404Y-77325642D01*
X83522785Y-77373261D01*
X83427547Y-77420880D01*
X83141833Y-77420880D01*
X83046595Y-77373261D01*
X82998976Y-77325642D01*
X83951357Y-76420880D02*
X84570404Y-76420880D01*
X84237071Y-76801833D01*
X84379928Y-76801833D01*
X84475166Y-76849452D01*
X84522785Y-76897071D01*
X84570404Y-76992309D01*
X84570404Y-77230404D01*
X84522785Y-77325642D01*
X84475166Y-77373261D01*
X84379928Y-77420880D01*
X84094214Y-77420880D01*
X83998976Y-77373261D01*
X83951357Y-77325642D01*
X85865642Y-77320880D02*
X85532309Y-76844690D01*
X85294214Y-77320880D02*
X85294214Y-76320880D01*
X85675166Y-76320880D01*
X85770404Y-76368500D01*
X85818023Y-76416119D01*
X85865642Y-76511357D01*
X85865642Y-76654214D01*
X85818023Y-76749452D01*
X85770404Y-76797071D01*
X85675166Y-76844690D01*
X85294214Y-76844690D01*
X86198976Y-76320880D02*
X86818023Y-76320880D01*
X86484690Y-76701833D01*
X86627547Y-76701833D01*
X86722785Y-76749452D01*
X86770404Y-76797071D01*
X86818023Y-76892309D01*
X86818023Y-77130404D01*
X86770404Y-77225642D01*
X86722785Y-77273261D01*
X86627547Y-77320880D01*
X86341833Y-77320880D01*
X86246595Y-77273261D01*
X86198976Y-77225642D01*
X87198976Y-76416119D02*
X87246595Y-76368500D01*
X87341833Y-76320880D01*
X87579928Y-76320880D01*
X87675166Y-76368500D01*
X87722785Y-76416119D01*
X87770404Y-76511357D01*
X87770404Y-76606595D01*
X87722785Y-76749452D01*
X87151357Y-77320880D01*
X87770404Y-77320880D01*
X71257142Y-70952380D02*
X70923809Y-70476190D01*
X70685714Y-70952380D02*
X70685714Y-69952380D01*
X71066666Y-69952380D01*
X71161904Y-70000000D01*
X71209523Y-70047619D01*
X71257142Y-70142857D01*
X71257142Y-70285714D01*
X71209523Y-70380952D01*
X71161904Y-70428571D01*
X71066666Y-70476190D01*
X70685714Y-70476190D01*
X71590476Y-69952380D02*
X72209523Y-69952380D01*
X71876190Y-70333333D01*
X72019047Y-70333333D01*
X72114285Y-70380952D01*
X72161904Y-70428571D01*
X72209523Y-70523809D01*
X72209523Y-70761904D01*
X72161904Y-70857142D01*
X72114285Y-70904761D01*
X72019047Y-70952380D01*
X71733333Y-70952380D01*
X71638095Y-70904761D01*
X71590476Y-70857142D01*
X73161904Y-70952380D02*
X72590476Y-70952380D01*
X72876190Y-70952380D02*
X72876190Y-69952380D01*
X72780952Y-70095238D01*
X72685714Y-70190476D01*
X72590476Y-70238095D01*
X82085714Y-85452380D02*
X82085714Y-84452380D01*
X82323809Y-84452380D01*
X82466666Y-84500000D01*
X82561904Y-84595238D01*
X82609523Y-84690476D01*
X82657142Y-84880952D01*
X82657142Y-85023809D01*
X82609523Y-85214285D01*
X82561904Y-85309523D01*
X82466666Y-85404761D01*
X82323809Y-85452380D01*
X82085714Y-85452380D01*
X83609523Y-85452380D02*
X83038095Y-85452380D01*
X83323809Y-85452380D02*
X83323809Y-84452380D01*
X83228571Y-84595238D01*
X83133333Y-84690476D01*
X83038095Y-84738095D01*
X84466666Y-84452380D02*
X84276190Y-84452380D01*
X84180952Y-84500000D01*
X84133333Y-84547619D01*
X84038095Y-84690476D01*
X83990476Y-84880952D01*
X83990476Y-85261904D01*
X84038095Y-85357142D01*
X84085714Y-85404761D01*
X84180952Y-85452380D01*
X84371428Y-85452380D01*
X84466666Y-85404761D01*
X84514285Y-85357142D01*
X84561904Y-85261904D01*
X84561904Y-85023809D01*
X84514285Y-84928571D01*
X84466666Y-84880952D01*
X84371428Y-84833333D01*
X84180952Y-84833333D01*
X84085714Y-84880952D01*
X84038095Y-84928571D01*
X83990476Y-85023809D01*
X85294214Y-85520880D02*
X85294214Y-84520880D01*
X85532309Y-84520880D01*
X85675166Y-84568500D01*
X85770404Y-84663738D01*
X85818023Y-84758976D01*
X85865642Y-84949452D01*
X85865642Y-85092309D01*
X85818023Y-85282785D01*
X85770404Y-85378023D01*
X85675166Y-85473261D01*
X85532309Y-85520880D01*
X85294214Y-85520880D01*
X86818023Y-85520880D02*
X86246595Y-85520880D01*
X86532309Y-85520880D02*
X86532309Y-84520880D01*
X86437071Y-84663738D01*
X86341833Y-84758976D01*
X86246595Y-84806595D01*
X87722785Y-84520880D02*
X87246595Y-84520880D01*
X87198976Y-84997071D01*
X87246595Y-84949452D01*
X87341833Y-84901833D01*
X87579928Y-84901833D01*
X87675166Y-84949452D01*
X87722785Y-84997071D01*
X87770404Y-85092309D01*
X87770404Y-85330404D01*
X87722785Y-85425642D01*
X87675166Y-85473261D01*
X87579928Y-85520880D01*
X87341833Y-85520880D01*
X87246595Y-85473261D01*
X87198976Y-85425642D01*
X63733333Y-75057142D02*
X63685714Y-75104761D01*
X63542857Y-75152380D01*
X63447619Y-75152380D01*
X63304761Y-75104761D01*
X63209523Y-75009523D01*
X63161904Y-74914285D01*
X63114285Y-74723809D01*
X63114285Y-74580952D01*
X63161904Y-74390476D01*
X63209523Y-74295238D01*
X63304761Y-74200000D01*
X63447619Y-74152380D01*
X63542857Y-74152380D01*
X63685714Y-74200000D01*
X63733333Y-74247619D01*
X64685714Y-75152380D02*
X64114285Y-75152380D01*
X64400000Y-75152380D02*
X64400000Y-74152380D01*
X64304761Y-74295238D01*
X64209523Y-74390476D01*
X64114285Y-74438095D01*
X64114285Y-60028571D02*
X64257142Y-60076190D01*
X64304761Y-60123809D01*
X64352380Y-60219047D01*
X64352380Y-60361904D01*
X64304761Y-60457142D01*
X64257142Y-60504761D01*
X64161904Y-60552380D01*
X63780952Y-60552380D01*
X63780952Y-59552380D01*
X64114285Y-59552380D01*
X64209523Y-59600000D01*
X64257142Y-59647619D01*
X64304761Y-59742857D01*
X64304761Y-59838095D01*
X64257142Y-59933333D01*
X64209523Y-59980952D01*
X64114285Y-60028571D01*
X63780952Y-60028571D01*
X64638095Y-59552380D02*
X65209523Y-59552380D01*
X64923809Y-60552380D02*
X64923809Y-59552380D01*
X66066666Y-60552380D02*
X65495238Y-60552380D01*
X65780952Y-60552380D02*
X65780952Y-59552380D01*
X65685714Y-59695238D01*
X65590476Y-59790476D01*
X65495238Y-59838095D01*
X52733333Y-78652380D02*
X52257142Y-78652380D01*
X52257142Y-77652380D01*
X53114285Y-78652380D02*
X53304761Y-78652380D01*
X53400000Y-78604761D01*
X53447619Y-78557142D01*
X53542857Y-78414285D01*
X53590476Y-78223809D01*
X53590476Y-77842857D01*
X53542857Y-77747619D01*
X53495238Y-77700000D01*
X53400000Y-77652380D01*
X53209523Y-77652380D01*
X53114285Y-77700000D01*
X53066666Y-77747619D01*
X53019047Y-77842857D01*
X53019047Y-78080952D01*
X53066666Y-78176190D01*
X53114285Y-78223809D01*
X53209523Y-78271428D01*
X53400000Y-78271428D01*
X53495238Y-78223809D01*
X53542857Y-78176190D01*
X53590476Y-78080952D01*
X75775166Y-62620880D02*
X75775166Y-63335166D01*
X75727547Y-63478023D01*
X75632309Y-63573261D01*
X75489452Y-63620880D01*
X75394214Y-63620880D01*
X76775166Y-63620880D02*
X76203738Y-63620880D01*
X76489452Y-63620880D02*
X76489452Y-62620880D01*
X76394214Y-62763738D01*
X76298976Y-62858976D01*
X76203738Y-62906595D01*
X77965642Y-64720880D02*
X77632309Y-64244690D01*
X77394214Y-64720880D02*
X77394214Y-63720880D01*
X77775166Y-63720880D01*
X77870404Y-63768500D01*
X77918023Y-63816119D01*
X77965642Y-63911357D01*
X77965642Y-64054214D01*
X77918023Y-64149452D01*
X77870404Y-64197071D01*
X77775166Y-64244690D01*
X77394214Y-64244690D01*
X78298976Y-63720880D02*
X78918023Y-63720880D01*
X78584690Y-64101833D01*
X78727547Y-64101833D01*
X78822785Y-64149452D01*
X78870404Y-64197071D01*
X78918023Y-64292309D01*
X78918023Y-64530404D01*
X78870404Y-64625642D01*
X78822785Y-64673261D01*
X78727547Y-64720880D01*
X78441833Y-64720880D01*
X78346595Y-64673261D01*
X78298976Y-64625642D01*
X79537071Y-63720880D02*
X79632309Y-63720880D01*
X79727547Y-63768500D01*
X79775166Y-63816119D01*
X79822785Y-63911357D01*
X79870404Y-64101833D01*
X79870404Y-64339928D01*
X79822785Y-64530404D01*
X79775166Y-64625642D01*
X79727547Y-64673261D01*
X79632309Y-64720880D01*
X79537071Y-64720880D01*
X79441833Y-64673261D01*
X79394214Y-64625642D01*
X79346595Y-64530404D01*
X79298976Y-64339928D01*
X79298976Y-64101833D01*
X79346595Y-63911357D01*
X79394214Y-63816119D01*
X79441833Y-63768500D01*
X79537071Y-63720880D01*
X59157142Y-77052380D02*
X58823809Y-76576190D01*
X58585714Y-77052380D02*
X58585714Y-76052380D01*
X58966666Y-76052380D01*
X59061904Y-76100000D01*
X59109523Y-76147619D01*
X59157142Y-76242857D01*
X59157142Y-76385714D01*
X59109523Y-76480952D01*
X59061904Y-76528571D01*
X58966666Y-76576190D01*
X58585714Y-76576190D01*
X59538095Y-76147619D02*
X59585714Y-76100000D01*
X59680952Y-76052380D01*
X59919047Y-76052380D01*
X60014285Y-76100000D01*
X60061904Y-76147619D01*
X60109523Y-76242857D01*
X60109523Y-76338095D01*
X60061904Y-76480952D01*
X59490476Y-77052380D01*
X60109523Y-77052380D01*
X60585714Y-77052380D02*
X60776190Y-77052380D01*
X60871428Y-77004761D01*
X60919047Y-76957142D01*
X61014285Y-76814285D01*
X61061904Y-76623809D01*
X61061904Y-76242857D01*
X61014285Y-76147619D01*
X60966666Y-76100000D01*
X60871428Y-76052380D01*
X60680952Y-76052380D01*
X60585714Y-76100000D01*
X60538095Y-76147619D01*
X60490476Y-76242857D01*
X60490476Y-76480952D01*
X60538095Y-76576190D01*
X60585714Y-76623809D01*
X60680952Y-76671428D01*
X60871428Y-76671428D01*
X60966666Y-76623809D01*
X61014285Y-76576190D01*
X61061904Y-76480952D01*
X97937142Y-49502380D02*
X97603809Y-49026190D01*
X97365714Y-49502380D02*
X97365714Y-48502380D01*
X97746666Y-48502380D01*
X97841904Y-48550000D01*
X97889523Y-48597619D01*
X97937142Y-48692857D01*
X97937142Y-48835714D01*
X97889523Y-48930952D01*
X97841904Y-48978571D01*
X97746666Y-49026190D01*
X97365714Y-49026190D01*
X98318095Y-48597619D02*
X98365714Y-48550000D01*
X98460952Y-48502380D01*
X98699047Y-48502380D01*
X98794285Y-48550000D01*
X98841904Y-48597619D01*
X98889523Y-48692857D01*
X98889523Y-48788095D01*
X98841904Y-48930952D01*
X98270476Y-49502380D01*
X98889523Y-49502380D01*
X99460952Y-48930952D02*
X99365714Y-48883333D01*
X99318095Y-48835714D01*
X99270476Y-48740476D01*
X99270476Y-48692857D01*
X99318095Y-48597619D01*
X99365714Y-48550000D01*
X99460952Y-48502380D01*
X99651428Y-48502380D01*
X99746666Y-48550000D01*
X99794285Y-48597619D01*
X99841904Y-48692857D01*
X99841904Y-48740476D01*
X99794285Y-48835714D01*
X99746666Y-48883333D01*
X99651428Y-48930952D01*
X99460952Y-48930952D01*
X99365714Y-48978571D01*
X99318095Y-49026190D01*
X99270476Y-49121428D01*
X99270476Y-49311904D01*
X99318095Y-49407142D01*
X99365714Y-49454761D01*
X99460952Y-49502380D01*
X99651428Y-49502380D01*
X99746666Y-49454761D01*
X99794285Y-49407142D01*
X99841904Y-49311904D01*
X99841904Y-49121428D01*
X99794285Y-49026190D01*
X99746666Y-48978571D01*
X99651428Y-48930952D01*
X115357142Y-96452380D02*
X115023809Y-95976190D01*
X114785714Y-96452380D02*
X114785714Y-95452380D01*
X115166666Y-95452380D01*
X115261904Y-95500000D01*
X115309523Y-95547619D01*
X115357142Y-95642857D01*
X115357142Y-95785714D01*
X115309523Y-95880952D01*
X115261904Y-95928571D01*
X115166666Y-95976190D01*
X114785714Y-95976190D01*
X115738095Y-95547619D02*
X115785714Y-95500000D01*
X115880952Y-95452380D01*
X116119047Y-95452380D01*
X116214285Y-95500000D01*
X116261904Y-95547619D01*
X116309523Y-95642857D01*
X116309523Y-95738095D01*
X116261904Y-95880952D01*
X115690476Y-96452380D01*
X116309523Y-96452380D01*
X116642857Y-95452380D02*
X117309523Y-95452380D01*
X116880952Y-96452380D01*
X111335642Y-92952380D02*
X111002309Y-92476190D01*
X110764214Y-92952380D02*
X110764214Y-91952380D01*
X111145166Y-91952380D01*
X111240404Y-92000000D01*
X111288023Y-92047619D01*
X111335642Y-92142857D01*
X111335642Y-92285714D01*
X111288023Y-92380952D01*
X111240404Y-92428571D01*
X111145166Y-92476190D01*
X110764214Y-92476190D01*
X111716595Y-92047619D02*
X111764214Y-92000000D01*
X111859452Y-91952380D01*
X112097547Y-91952380D01*
X112192785Y-92000000D01*
X112240404Y-92047619D01*
X112288023Y-92142857D01*
X112288023Y-92238095D01*
X112240404Y-92380952D01*
X111668976Y-92952380D01*
X112288023Y-92952380D01*
X113145166Y-91952380D02*
X112954690Y-91952380D01*
X112859452Y-92000000D01*
X112811833Y-92047619D01*
X112716595Y-92190476D01*
X112668976Y-92380952D01*
X112668976Y-92761904D01*
X112716595Y-92857142D01*
X112764214Y-92904761D01*
X112859452Y-92952380D01*
X113049928Y-92952380D01*
X113145166Y-92904761D01*
X113192785Y-92857142D01*
X113240404Y-92761904D01*
X113240404Y-92523809D01*
X113192785Y-92428571D01*
X113145166Y-92380952D01*
X113049928Y-92333333D01*
X112859452Y-92333333D01*
X112764214Y-92380952D01*
X112716595Y-92428571D01*
X112668976Y-92523809D01*
X103065642Y-89920880D02*
X102732309Y-89444690D01*
X102494214Y-89920880D02*
X102494214Y-88920880D01*
X102875166Y-88920880D01*
X102970404Y-88968500D01*
X103018023Y-89016119D01*
X103065642Y-89111357D01*
X103065642Y-89254214D01*
X103018023Y-89349452D01*
X102970404Y-89397071D01*
X102875166Y-89444690D01*
X102494214Y-89444690D01*
X103446595Y-89016119D02*
X103494214Y-88968500D01*
X103589452Y-88920880D01*
X103827547Y-88920880D01*
X103922785Y-88968500D01*
X103970404Y-89016119D01*
X104018023Y-89111357D01*
X104018023Y-89206595D01*
X103970404Y-89349452D01*
X103398976Y-89920880D01*
X104018023Y-89920880D01*
X104922785Y-88920880D02*
X104446595Y-88920880D01*
X104398976Y-89397071D01*
X104446595Y-89349452D01*
X104541833Y-89301833D01*
X104779928Y-89301833D01*
X104875166Y-89349452D01*
X104922785Y-89397071D01*
X104970404Y-89492309D01*
X104970404Y-89730404D01*
X104922785Y-89825642D01*
X104875166Y-89873261D01*
X104779928Y-89920880D01*
X104541833Y-89920880D01*
X104446595Y-89873261D01*
X104398976Y-89825642D01*
X100165642Y-89820880D02*
X99832309Y-89344690D01*
X99594214Y-89820880D02*
X99594214Y-88820880D01*
X99975166Y-88820880D01*
X100070404Y-88868500D01*
X100118023Y-88916119D01*
X100165642Y-89011357D01*
X100165642Y-89154214D01*
X100118023Y-89249452D01*
X100070404Y-89297071D01*
X99975166Y-89344690D01*
X99594214Y-89344690D01*
X100546595Y-88916119D02*
X100594214Y-88868500D01*
X100689452Y-88820880D01*
X100927547Y-88820880D01*
X101022785Y-88868500D01*
X101070404Y-88916119D01*
X101118023Y-89011357D01*
X101118023Y-89106595D01*
X101070404Y-89249452D01*
X100498976Y-89820880D01*
X101118023Y-89820880D01*
X101975166Y-89154214D02*
X101975166Y-89820880D01*
X101737071Y-88773261D02*
X101498976Y-89487547D01*
X102118023Y-89487547D01*
X66957142Y-63952380D02*
X66623809Y-63476190D01*
X66385714Y-63952380D02*
X66385714Y-62952380D01*
X66766666Y-62952380D01*
X66861904Y-63000000D01*
X66909523Y-63047619D01*
X66957142Y-63142857D01*
X66957142Y-63285714D01*
X66909523Y-63380952D01*
X66861904Y-63428571D01*
X66766666Y-63476190D01*
X66385714Y-63476190D01*
X67338095Y-63047619D02*
X67385714Y-63000000D01*
X67480952Y-62952380D01*
X67719047Y-62952380D01*
X67814285Y-63000000D01*
X67861904Y-63047619D01*
X67909523Y-63142857D01*
X67909523Y-63238095D01*
X67861904Y-63380952D01*
X67290476Y-63952380D01*
X67909523Y-63952380D01*
X68242857Y-62952380D02*
X68861904Y-62952380D01*
X68528571Y-63333333D01*
X68671428Y-63333333D01*
X68766666Y-63380952D01*
X68814285Y-63428571D01*
X68861904Y-63523809D01*
X68861904Y-63761904D01*
X68814285Y-63857142D01*
X68766666Y-63904761D01*
X68671428Y-63952380D01*
X68385714Y-63952380D01*
X68290476Y-63904761D01*
X68242857Y-63857142D01*
X95677142Y-88458380D02*
X95343809Y-87982190D01*
X95105714Y-88458380D02*
X95105714Y-87458380D01*
X95486666Y-87458380D01*
X95581904Y-87506000D01*
X95629523Y-87553619D01*
X95677142Y-87648857D01*
X95677142Y-87791714D01*
X95629523Y-87886952D01*
X95581904Y-87934571D01*
X95486666Y-87982190D01*
X95105714Y-87982190D01*
X96058095Y-87553619D02*
X96105714Y-87506000D01*
X96200952Y-87458380D01*
X96439047Y-87458380D01*
X96534285Y-87506000D01*
X96581904Y-87553619D01*
X96629523Y-87648857D01*
X96629523Y-87744095D01*
X96581904Y-87886952D01*
X96010476Y-88458380D01*
X96629523Y-88458380D01*
X97010476Y-87553619D02*
X97058095Y-87506000D01*
X97153333Y-87458380D01*
X97391428Y-87458380D01*
X97486666Y-87506000D01*
X97534285Y-87553619D01*
X97581904Y-87648857D01*
X97581904Y-87744095D01*
X97534285Y-87886952D01*
X96962857Y-88458380D01*
X97581904Y-88458380D01*
X87165642Y-90820880D02*
X86832309Y-90344690D01*
X86594214Y-90820880D02*
X86594214Y-89820880D01*
X86975166Y-89820880D01*
X87070404Y-89868500D01*
X87118023Y-89916119D01*
X87165642Y-90011357D01*
X87165642Y-90154214D01*
X87118023Y-90249452D01*
X87070404Y-90297071D01*
X86975166Y-90344690D01*
X86594214Y-90344690D01*
X87546595Y-89916119D02*
X87594214Y-89868500D01*
X87689452Y-89820880D01*
X87927547Y-89820880D01*
X88022785Y-89868500D01*
X88070404Y-89916119D01*
X88118023Y-90011357D01*
X88118023Y-90106595D01*
X88070404Y-90249452D01*
X87498976Y-90820880D01*
X88118023Y-90820880D01*
X89070404Y-90820880D02*
X88498976Y-90820880D01*
X88784690Y-90820880D02*
X88784690Y-89820880D01*
X88689452Y-89963738D01*
X88594214Y-90058976D01*
X88498976Y-90106595D01*
X106665642Y-57720880D02*
X106332309Y-57244690D01*
X106094214Y-57720880D02*
X106094214Y-56720880D01*
X106475166Y-56720880D01*
X106570404Y-56768500D01*
X106618023Y-56816119D01*
X106665642Y-56911357D01*
X106665642Y-57054214D01*
X106618023Y-57149452D01*
X106570404Y-57197071D01*
X106475166Y-57244690D01*
X106094214Y-57244690D01*
X107046595Y-56816119D02*
X107094214Y-56768500D01*
X107189452Y-56720880D01*
X107427547Y-56720880D01*
X107522785Y-56768500D01*
X107570404Y-56816119D01*
X107618023Y-56911357D01*
X107618023Y-57006595D01*
X107570404Y-57149452D01*
X106998976Y-57720880D01*
X107618023Y-57720880D01*
X108237071Y-56720880D02*
X108332309Y-56720880D01*
X108427547Y-56768500D01*
X108475166Y-56816119D01*
X108522785Y-56911357D01*
X108570404Y-57101833D01*
X108570404Y-57339928D01*
X108522785Y-57530404D01*
X108475166Y-57625642D01*
X108427547Y-57673261D01*
X108332309Y-57720880D01*
X108237071Y-57720880D01*
X108141833Y-57673261D01*
X108094214Y-57625642D01*
X108046595Y-57530404D01*
X107998976Y-57339928D01*
X107998976Y-57101833D01*
X108046595Y-56911357D01*
X108094214Y-56816119D01*
X108141833Y-56768500D01*
X108237071Y-56720880D01*
X91565642Y-62720880D02*
X91232309Y-62244690D01*
X90994214Y-62720880D02*
X90994214Y-61720880D01*
X91375166Y-61720880D01*
X91470404Y-61768500D01*
X91518023Y-61816119D01*
X91565642Y-61911357D01*
X91565642Y-62054214D01*
X91518023Y-62149452D01*
X91470404Y-62197071D01*
X91375166Y-62244690D01*
X90994214Y-62244690D01*
X92518023Y-62720880D02*
X91946595Y-62720880D01*
X92232309Y-62720880D02*
X92232309Y-61720880D01*
X92137071Y-61863738D01*
X92041833Y-61958976D01*
X91946595Y-62006595D01*
X92994214Y-62720880D02*
X93184690Y-62720880D01*
X93279928Y-62673261D01*
X93327547Y-62625642D01*
X93422785Y-62482785D01*
X93470404Y-62292309D01*
X93470404Y-61911357D01*
X93422785Y-61816119D01*
X93375166Y-61768500D01*
X93279928Y-61720880D01*
X93089452Y-61720880D01*
X92994214Y-61768500D01*
X92946595Y-61816119D01*
X92898976Y-61911357D01*
X92898976Y-62149452D01*
X92946595Y-62244690D01*
X92994214Y-62292309D01*
X93089452Y-62339928D01*
X93279928Y-62339928D01*
X93375166Y-62292309D01*
X93422785Y-62244690D01*
X93470404Y-62149452D01*
X88357142Y-64952380D02*
X88023809Y-64476190D01*
X87785714Y-64952380D02*
X87785714Y-63952380D01*
X88166666Y-63952380D01*
X88261904Y-64000000D01*
X88309523Y-64047619D01*
X88357142Y-64142857D01*
X88357142Y-64285714D01*
X88309523Y-64380952D01*
X88261904Y-64428571D01*
X88166666Y-64476190D01*
X87785714Y-64476190D01*
X89309523Y-64952380D02*
X88738095Y-64952380D01*
X89023809Y-64952380D02*
X89023809Y-63952380D01*
X88928571Y-64095238D01*
X88833333Y-64190476D01*
X88738095Y-64238095D01*
X89880952Y-64380952D02*
X89785714Y-64333333D01*
X89738095Y-64285714D01*
X89690476Y-64190476D01*
X89690476Y-64142857D01*
X89738095Y-64047619D01*
X89785714Y-64000000D01*
X89880952Y-63952380D01*
X90071428Y-63952380D01*
X90166666Y-64000000D01*
X90214285Y-64047619D01*
X90261904Y-64142857D01*
X90261904Y-64190476D01*
X90214285Y-64285714D01*
X90166666Y-64333333D01*
X90071428Y-64380952D01*
X89880952Y-64380952D01*
X89785714Y-64428571D01*
X89738095Y-64476190D01*
X89690476Y-64571428D01*
X89690476Y-64761904D01*
X89738095Y-64857142D01*
X89785714Y-64904761D01*
X89880952Y-64952380D01*
X90071428Y-64952380D01*
X90166666Y-64904761D01*
X90214285Y-64857142D01*
X90261904Y-64761904D01*
X90261904Y-64571428D01*
X90214285Y-64476190D01*
X90166666Y-64428571D01*
X90071428Y-64380952D01*
X72732642Y-64952380D02*
X72399309Y-64476190D01*
X72161214Y-64952380D02*
X72161214Y-63952380D01*
X72542166Y-63952380D01*
X72637404Y-64000000D01*
X72685023Y-64047619D01*
X72732642Y-64142857D01*
X72732642Y-64285714D01*
X72685023Y-64380952D01*
X72637404Y-64428571D01*
X72542166Y-64476190D01*
X72161214Y-64476190D01*
X73685023Y-64952380D02*
X73113595Y-64952380D01*
X73399309Y-64952380D02*
X73399309Y-63952380D01*
X73304071Y-64095238D01*
X73208833Y-64190476D01*
X73113595Y-64238095D01*
X74018357Y-63952380D02*
X74685023Y-63952380D01*
X74256452Y-64952380D01*
X101227142Y-49452380D02*
X100893809Y-48976190D01*
X100655714Y-49452380D02*
X100655714Y-48452380D01*
X101036666Y-48452380D01*
X101131904Y-48500000D01*
X101179523Y-48547619D01*
X101227142Y-48642857D01*
X101227142Y-48785714D01*
X101179523Y-48880952D01*
X101131904Y-48928571D01*
X101036666Y-48976190D01*
X100655714Y-48976190D01*
X102179523Y-49452380D02*
X101608095Y-49452380D01*
X101893809Y-49452380D02*
X101893809Y-48452380D01*
X101798571Y-48595238D01*
X101703333Y-48690476D01*
X101608095Y-48738095D01*
X103036666Y-48452380D02*
X102846190Y-48452380D01*
X102750952Y-48500000D01*
X102703333Y-48547619D01*
X102608095Y-48690476D01*
X102560476Y-48880952D01*
X102560476Y-49261904D01*
X102608095Y-49357142D01*
X102655714Y-49404761D01*
X102750952Y-49452380D01*
X102941428Y-49452380D01*
X103036666Y-49404761D01*
X103084285Y-49357142D01*
X103131904Y-49261904D01*
X103131904Y-49023809D01*
X103084285Y-48928571D01*
X103036666Y-48880952D01*
X102941428Y-48833333D01*
X102750952Y-48833333D01*
X102655714Y-48880952D01*
X102608095Y-48928571D01*
X102560476Y-49023809D01*
X104857142Y-47952380D02*
X104523809Y-47476190D01*
X104285714Y-47952380D02*
X104285714Y-46952380D01*
X104666666Y-46952380D01*
X104761904Y-47000000D01*
X104809523Y-47047619D01*
X104857142Y-47142857D01*
X104857142Y-47285714D01*
X104809523Y-47380952D01*
X104761904Y-47428571D01*
X104666666Y-47476190D01*
X104285714Y-47476190D01*
X105809523Y-47952380D02*
X105238095Y-47952380D01*
X105523809Y-47952380D02*
X105523809Y-46952380D01*
X105428571Y-47095238D01*
X105333333Y-47190476D01*
X105238095Y-47238095D01*
X106714285Y-46952380D02*
X106238095Y-46952380D01*
X106190476Y-47428571D01*
X106238095Y-47380952D01*
X106333333Y-47333333D01*
X106571428Y-47333333D01*
X106666666Y-47380952D01*
X106714285Y-47428571D01*
X106761904Y-47523809D01*
X106761904Y-47761904D01*
X106714285Y-47857142D01*
X106666666Y-47904761D01*
X106571428Y-47952380D01*
X106333333Y-47952380D01*
X106238095Y-47904761D01*
X106190476Y-47857142D01*
X94857142Y-47952380D02*
X94523809Y-47476190D01*
X94285714Y-47952380D02*
X94285714Y-46952380D01*
X94666666Y-46952380D01*
X94761904Y-47000000D01*
X94809523Y-47047619D01*
X94857142Y-47142857D01*
X94857142Y-47285714D01*
X94809523Y-47380952D01*
X94761904Y-47428571D01*
X94666666Y-47476190D01*
X94285714Y-47476190D01*
X95809523Y-47952380D02*
X95238095Y-47952380D01*
X95523809Y-47952380D02*
X95523809Y-46952380D01*
X95428571Y-47095238D01*
X95333333Y-47190476D01*
X95238095Y-47238095D01*
X96666666Y-47285714D02*
X96666666Y-47952380D01*
X96428571Y-46904761D02*
X96190476Y-47619047D01*
X96809523Y-47619047D01*
X99965642Y-66020880D02*
X99632309Y-65544690D01*
X99394214Y-66020880D02*
X99394214Y-65020880D01*
X99775166Y-65020880D01*
X99870404Y-65068500D01*
X99918023Y-65116119D01*
X99965642Y-65211357D01*
X99965642Y-65354214D01*
X99918023Y-65449452D01*
X99870404Y-65497071D01*
X99775166Y-65544690D01*
X99394214Y-65544690D01*
X100918023Y-66020880D02*
X100346595Y-66020880D01*
X100632309Y-66020880D02*
X100632309Y-65020880D01*
X100537071Y-65163738D01*
X100441833Y-65258976D01*
X100346595Y-65306595D01*
X101251357Y-65020880D02*
X101870404Y-65020880D01*
X101537071Y-65401833D01*
X101679928Y-65401833D01*
X101775166Y-65449452D01*
X101822785Y-65497071D01*
X101870404Y-65592309D01*
X101870404Y-65830404D01*
X101822785Y-65925642D01*
X101775166Y-65973261D01*
X101679928Y-66020880D01*
X101394214Y-66020880D01*
X101298976Y-65973261D01*
X101251357Y-65925642D01*
X94165642Y-65920880D02*
X93832309Y-65444690D01*
X93594214Y-65920880D02*
X93594214Y-64920880D01*
X93975166Y-64920880D01*
X94070404Y-64968500D01*
X94118023Y-65016119D01*
X94165642Y-65111357D01*
X94165642Y-65254214D01*
X94118023Y-65349452D01*
X94070404Y-65397071D01*
X93975166Y-65444690D01*
X93594214Y-65444690D01*
X95118023Y-65920880D02*
X94546595Y-65920880D01*
X94832309Y-65920880D02*
X94832309Y-64920880D01*
X94737071Y-65063738D01*
X94641833Y-65158976D01*
X94546595Y-65206595D01*
X95498976Y-65016119D02*
X95546595Y-64968500D01*
X95641833Y-64920880D01*
X95879928Y-64920880D01*
X95975166Y-64968500D01*
X96022785Y-65016119D01*
X96070404Y-65111357D01*
X96070404Y-65206595D01*
X96022785Y-65349452D01*
X95451357Y-65920880D01*
X96070404Y-65920880D01*
X67157142Y-62352380D02*
X66823809Y-61876190D01*
X66585714Y-62352380D02*
X66585714Y-61352380D01*
X66966666Y-61352380D01*
X67061904Y-61400000D01*
X67109523Y-61447619D01*
X67157142Y-61542857D01*
X67157142Y-61685714D01*
X67109523Y-61780952D01*
X67061904Y-61828571D01*
X66966666Y-61876190D01*
X66585714Y-61876190D01*
X68109523Y-62352380D02*
X67538095Y-62352380D01*
X67823809Y-62352380D02*
X67823809Y-61352380D01*
X67728571Y-61495238D01*
X67633333Y-61590476D01*
X67538095Y-61638095D01*
X69061904Y-62352380D02*
X68490476Y-62352380D01*
X68776190Y-62352380D02*
X68776190Y-61352380D01*
X68680952Y-61495238D01*
X68585714Y-61590476D01*
X68490476Y-61638095D01*
X70957142Y-74052380D02*
X70623809Y-73576190D01*
X70385714Y-74052380D02*
X70385714Y-73052380D01*
X70766666Y-73052380D01*
X70861904Y-73100000D01*
X70909523Y-73147619D01*
X70957142Y-73242857D01*
X70957142Y-73385714D01*
X70909523Y-73480952D01*
X70861904Y-73528571D01*
X70766666Y-73576190D01*
X70385714Y-73576190D01*
X71909523Y-74052380D02*
X71338095Y-74052380D01*
X71623809Y-74052380D02*
X71623809Y-73052380D01*
X71528571Y-73195238D01*
X71433333Y-73290476D01*
X71338095Y-73338095D01*
X72528571Y-73052380D02*
X72623809Y-73052380D01*
X72719047Y-73100000D01*
X72766666Y-73147619D01*
X72814285Y-73242857D01*
X72861904Y-73433333D01*
X72861904Y-73671428D01*
X72814285Y-73861904D01*
X72766666Y-73957142D01*
X72719047Y-74004761D01*
X72623809Y-74052380D01*
X72528571Y-74052380D01*
X72433333Y-74004761D01*
X72385714Y-73957142D01*
X72338095Y-73861904D01*
X72290476Y-73671428D01*
X72290476Y-73433333D01*
X72338095Y-73242857D01*
X72385714Y-73147619D01*
X72433333Y-73100000D01*
X72528571Y-73052380D01*
X83833333Y-64952380D02*
X83500000Y-64476190D01*
X83261904Y-64952380D02*
X83261904Y-63952380D01*
X83642857Y-63952380D01*
X83738095Y-64000000D01*
X83785714Y-64047619D01*
X83833333Y-64142857D01*
X83833333Y-64285714D01*
X83785714Y-64380952D01*
X83738095Y-64428571D01*
X83642857Y-64476190D01*
X83261904Y-64476190D01*
X84309523Y-64952380D02*
X84500000Y-64952380D01*
X84595238Y-64904761D01*
X84642857Y-64857142D01*
X84738095Y-64714285D01*
X84785714Y-64523809D01*
X84785714Y-64142857D01*
X84738095Y-64047619D01*
X84690476Y-64000000D01*
X84595238Y-63952380D01*
X84404761Y-63952380D01*
X84309523Y-64000000D01*
X84261904Y-64047619D01*
X84214285Y-64142857D01*
X84214285Y-64380952D01*
X84261904Y-64476190D01*
X84309523Y-64523809D01*
X84404761Y-64571428D01*
X84595238Y-64571428D01*
X84690476Y-64523809D01*
X84738095Y-64476190D01*
X84785714Y-64380952D01*
X88833333Y-48452380D02*
X88500000Y-47976190D01*
X88261904Y-48452380D02*
X88261904Y-47452380D01*
X88642857Y-47452380D01*
X88738095Y-47500000D01*
X88785714Y-47547619D01*
X88833333Y-47642857D01*
X88833333Y-47785714D01*
X88785714Y-47880952D01*
X88738095Y-47928571D01*
X88642857Y-47976190D01*
X88261904Y-47976190D01*
X89404761Y-47880952D02*
X89309523Y-47833333D01*
X89261904Y-47785714D01*
X89214285Y-47690476D01*
X89214285Y-47642857D01*
X89261904Y-47547619D01*
X89309523Y-47500000D01*
X89404761Y-47452380D01*
X89595238Y-47452380D01*
X89690476Y-47500000D01*
X89738095Y-47547619D01*
X89785714Y-47642857D01*
X89785714Y-47690476D01*
X89738095Y-47785714D01*
X89690476Y-47833333D01*
X89595238Y-47880952D01*
X89404761Y-47880952D01*
X89309523Y-47928571D01*
X89261904Y-47976190D01*
X89214285Y-48071428D01*
X89214285Y-48261904D01*
X89261904Y-48357142D01*
X89309523Y-48404761D01*
X89404761Y-48452380D01*
X89595238Y-48452380D01*
X89690476Y-48404761D01*
X89738095Y-48357142D01*
X89785714Y-48261904D01*
X89785714Y-48071428D01*
X89738095Y-47976190D01*
X89690476Y-47928571D01*
X89595238Y-47880952D01*
X95141833Y-93820880D02*
X94808500Y-93344690D01*
X94570404Y-93820880D02*
X94570404Y-92820880D01*
X94951357Y-92820880D01*
X95046595Y-92868500D01*
X95094214Y-92916119D01*
X95141833Y-93011357D01*
X95141833Y-93154214D01*
X95094214Y-93249452D01*
X95046595Y-93297071D01*
X94951357Y-93344690D01*
X94570404Y-93344690D01*
X95475166Y-92820880D02*
X96141833Y-92820880D01*
X95713261Y-93820880D01*
X92841833Y-91420880D02*
X92508500Y-90944690D01*
X92270404Y-91420880D02*
X92270404Y-90420880D01*
X92651357Y-90420880D01*
X92746595Y-90468500D01*
X92794214Y-90516119D01*
X92841833Y-90611357D01*
X92841833Y-90754214D01*
X92794214Y-90849452D01*
X92746595Y-90897071D01*
X92651357Y-90944690D01*
X92270404Y-90944690D01*
X93698976Y-90420880D02*
X93508500Y-90420880D01*
X93413261Y-90468500D01*
X93365642Y-90516119D01*
X93270404Y-90658976D01*
X93222785Y-90849452D01*
X93222785Y-91230404D01*
X93270404Y-91325642D01*
X93318023Y-91373261D01*
X93413261Y-91420880D01*
X93603738Y-91420880D01*
X93698976Y-91373261D01*
X93746595Y-91325642D01*
X93794214Y-91230404D01*
X93794214Y-90992309D01*
X93746595Y-90897071D01*
X93698976Y-90849452D01*
X93603738Y-90801833D01*
X93413261Y-90801833D01*
X93318023Y-90849452D01*
X93270404Y-90897071D01*
X93222785Y-90992309D01*
X83833333Y-48452380D02*
X83500000Y-47976190D01*
X83261904Y-48452380D02*
X83261904Y-47452380D01*
X83642857Y-47452380D01*
X83738095Y-47500000D01*
X83785714Y-47547619D01*
X83833333Y-47642857D01*
X83833333Y-47785714D01*
X83785714Y-47880952D01*
X83738095Y-47928571D01*
X83642857Y-47976190D01*
X83261904Y-47976190D01*
X84738095Y-47452380D02*
X84261904Y-47452380D01*
X84214285Y-47928571D01*
X84261904Y-47880952D01*
X84357142Y-47833333D01*
X84595238Y-47833333D01*
X84690476Y-47880952D01*
X84738095Y-47928571D01*
X84785714Y-48023809D01*
X84785714Y-48261904D01*
X84738095Y-48357142D01*
X84690476Y-48404761D01*
X84595238Y-48452380D01*
X84357142Y-48452380D01*
X84261904Y-48404761D01*
X84214285Y-48357142D01*
X78333333Y-48452380D02*
X78000000Y-47976190D01*
X77761904Y-48452380D02*
X77761904Y-47452380D01*
X78142857Y-47452380D01*
X78238095Y-47500000D01*
X78285714Y-47547619D01*
X78333333Y-47642857D01*
X78333333Y-47785714D01*
X78285714Y-47880952D01*
X78238095Y-47928571D01*
X78142857Y-47976190D01*
X77761904Y-47976190D01*
X79190476Y-47785714D02*
X79190476Y-48452380D01*
X78952380Y-47404761D02*
X78714285Y-48119047D01*
X79333333Y-48119047D01*
X72833333Y-48452380D02*
X72500000Y-47976190D01*
X72261904Y-48452380D02*
X72261904Y-47452380D01*
X72642857Y-47452380D01*
X72738095Y-47500000D01*
X72785714Y-47547619D01*
X72833333Y-47642857D01*
X72833333Y-47785714D01*
X72785714Y-47880952D01*
X72738095Y-47928571D01*
X72642857Y-47976190D01*
X72261904Y-47976190D01*
X73166666Y-47452380D02*
X73785714Y-47452380D01*
X73452380Y-47833333D01*
X73595238Y-47833333D01*
X73690476Y-47880952D01*
X73738095Y-47928571D01*
X73785714Y-48023809D01*
X73785714Y-48261904D01*
X73738095Y-48357142D01*
X73690476Y-48404761D01*
X73595238Y-48452380D01*
X73309523Y-48452380D01*
X73214285Y-48404761D01*
X73166666Y-48357142D01*
X84333333Y-91452380D02*
X84000000Y-90976190D01*
X83761904Y-91452380D02*
X83761904Y-90452380D01*
X84142857Y-90452380D01*
X84238095Y-90500000D01*
X84285714Y-90547619D01*
X84333333Y-90642857D01*
X84333333Y-90785714D01*
X84285714Y-90880952D01*
X84238095Y-90928571D01*
X84142857Y-90976190D01*
X83761904Y-90976190D01*
X84714285Y-90547619D02*
X84761904Y-90500000D01*
X84857142Y-90452380D01*
X85095238Y-90452380D01*
X85190476Y-90500000D01*
X85238095Y-90547619D01*
X85285714Y-90642857D01*
X85285714Y-90738095D01*
X85238095Y-90880952D01*
X84666666Y-91452380D01*
X85285714Y-91452380D01*
X81833333Y-91452380D02*
X81500000Y-90976190D01*
X81261904Y-91452380D02*
X81261904Y-90452380D01*
X81642857Y-90452380D01*
X81738095Y-90500000D01*
X81785714Y-90547619D01*
X81833333Y-90642857D01*
X81833333Y-90785714D01*
X81785714Y-90880952D01*
X81738095Y-90928571D01*
X81642857Y-90976190D01*
X81261904Y-90976190D01*
X82785714Y-91452380D02*
X82214285Y-91452380D01*
X82500000Y-91452380D02*
X82500000Y-90452380D01*
X82404761Y-90595238D01*
X82309523Y-90690476D01*
X82214285Y-90738095D01*
X63385714Y-77852380D02*
X63385714Y-76852380D01*
X63623809Y-76852380D01*
X63766666Y-76900000D01*
X63861904Y-76995238D01*
X63909523Y-77090476D01*
X63957142Y-77280952D01*
X63957142Y-77423809D01*
X63909523Y-77614285D01*
X63861904Y-77709523D01*
X63766666Y-77804761D01*
X63623809Y-77852380D01*
X63385714Y-77852380D01*
X64909523Y-77852380D02*
X64338095Y-77852380D01*
X64623809Y-77852380D02*
X64623809Y-76852380D01*
X64528571Y-76995238D01*
X64433333Y-77090476D01*
X64338095Y-77138095D01*
X65766666Y-77185714D02*
X65766666Y-77852380D01*
X65528571Y-76804761D02*
X65290476Y-77519047D01*
X65909523Y-77519047D01*
X93285714Y-55952380D02*
X93285714Y-54952380D01*
X93523809Y-54952380D01*
X93666666Y-55000000D01*
X93761904Y-55095238D01*
X93809523Y-55190476D01*
X93857142Y-55380952D01*
X93857142Y-55523809D01*
X93809523Y-55714285D01*
X93761904Y-55809523D01*
X93666666Y-55904761D01*
X93523809Y-55952380D01*
X93285714Y-55952380D01*
X94809523Y-55952380D02*
X94238095Y-55952380D01*
X94523809Y-55952380D02*
X94523809Y-54952380D01*
X94428571Y-55095238D01*
X94333333Y-55190476D01*
X94238095Y-55238095D01*
X95142857Y-54952380D02*
X95761904Y-54952380D01*
X95428571Y-55333333D01*
X95571428Y-55333333D01*
X95666666Y-55380952D01*
X95714285Y-55428571D01*
X95761904Y-55523809D01*
X95761904Y-55761904D01*
X95714285Y-55857142D01*
X95666666Y-55904761D01*
X95571428Y-55952380D01*
X95285714Y-55952380D01*
X95190476Y-55904761D01*
X95142857Y-55857142D01*
X109049714Y-111344380D02*
X109049714Y-110344380D01*
X109287809Y-110344380D01*
X109430666Y-110392000D01*
X109525904Y-110487238D01*
X109573523Y-110582476D01*
X109621142Y-110772952D01*
X109621142Y-110915809D01*
X109573523Y-111106285D01*
X109525904Y-111201523D01*
X109430666Y-111296761D01*
X109287809Y-111344380D01*
X109049714Y-111344380D01*
X110573523Y-111344380D02*
X110002095Y-111344380D01*
X110287809Y-111344380D02*
X110287809Y-110344380D01*
X110192571Y-110487238D01*
X110097333Y-110582476D01*
X110002095Y-110630095D01*
X110954476Y-110439619D02*
X111002095Y-110392000D01*
X111097333Y-110344380D01*
X111335428Y-110344380D01*
X111430666Y-110392000D01*
X111478285Y-110439619D01*
X111525904Y-110534857D01*
X111525904Y-110630095D01*
X111478285Y-110772952D01*
X110906857Y-111344380D01*
X111525904Y-111344380D01*
X99397714Y-111344380D02*
X99397714Y-110344380D01*
X99635809Y-110344380D01*
X99778666Y-110392000D01*
X99873904Y-110487238D01*
X99921523Y-110582476D01*
X99969142Y-110772952D01*
X99969142Y-110915809D01*
X99921523Y-111106285D01*
X99873904Y-111201523D01*
X99778666Y-111296761D01*
X99635809Y-111344380D01*
X99397714Y-111344380D01*
X100921523Y-111344380D02*
X100350095Y-111344380D01*
X100635809Y-111344380D02*
X100635809Y-110344380D01*
X100540571Y-110487238D01*
X100445333Y-110582476D01*
X100350095Y-110630095D01*
X101540571Y-110344380D02*
X101635809Y-110344380D01*
X101731047Y-110392000D01*
X101778666Y-110439619D01*
X101826285Y-110534857D01*
X101873904Y-110725333D01*
X101873904Y-110963428D01*
X101826285Y-111153904D01*
X101778666Y-111249142D01*
X101731047Y-111296761D01*
X101635809Y-111344380D01*
X101540571Y-111344380D01*
X101445333Y-111296761D01*
X101397714Y-111249142D01*
X101350095Y-111153904D01*
X101302476Y-110963428D01*
X101302476Y-110725333D01*
X101350095Y-110534857D01*
X101397714Y-110439619D01*
X101445333Y-110392000D01*
X101540571Y-110344380D01*
X89713904Y-111344380D02*
X89713904Y-110344380D01*
X89952000Y-110344380D01*
X90094857Y-110392000D01*
X90190095Y-110487238D01*
X90237714Y-110582476D01*
X90285333Y-110772952D01*
X90285333Y-110915809D01*
X90237714Y-111106285D01*
X90190095Y-111201523D01*
X90094857Y-111296761D01*
X89952000Y-111344380D01*
X89713904Y-111344380D01*
X90856761Y-110772952D02*
X90761523Y-110725333D01*
X90713904Y-110677714D01*
X90666285Y-110582476D01*
X90666285Y-110534857D01*
X90713904Y-110439619D01*
X90761523Y-110392000D01*
X90856761Y-110344380D01*
X91047238Y-110344380D01*
X91142476Y-110392000D01*
X91190095Y-110439619D01*
X91237714Y-110534857D01*
X91237714Y-110582476D01*
X91190095Y-110677714D01*
X91142476Y-110725333D01*
X91047238Y-110772952D01*
X90856761Y-110772952D01*
X90761523Y-110820571D01*
X90713904Y-110868190D01*
X90666285Y-110963428D01*
X90666285Y-111153904D01*
X90713904Y-111249142D01*
X90761523Y-111296761D01*
X90856761Y-111344380D01*
X91047238Y-111344380D01*
X91142476Y-111296761D01*
X91190095Y-111249142D01*
X91237714Y-111153904D01*
X91237714Y-110963428D01*
X91190095Y-110868190D01*
X91142476Y-110820571D01*
X91047238Y-110772952D01*
X64821904Y-106852380D02*
X64821904Y-105852380D01*
X65060000Y-105852380D01*
X65202857Y-105900000D01*
X65298095Y-105995238D01*
X65345714Y-106090476D01*
X65393333Y-106280952D01*
X65393333Y-106423809D01*
X65345714Y-106614285D01*
X65298095Y-106709523D01*
X65202857Y-106804761D01*
X65060000Y-106852380D01*
X64821904Y-106852380D01*
X65726666Y-105852380D02*
X66393333Y-105852380D01*
X65964761Y-106852380D01*
X105670404Y-52520880D02*
X105670404Y-51520880D01*
X105908500Y-51520880D01*
X106051357Y-51568500D01*
X106146595Y-51663738D01*
X106194214Y-51758976D01*
X106241833Y-51949452D01*
X106241833Y-52092309D01*
X106194214Y-52282785D01*
X106146595Y-52378023D01*
X106051357Y-52473261D01*
X105908500Y-52520880D01*
X105670404Y-52520880D01*
X107098976Y-51520880D02*
X106908500Y-51520880D01*
X106813261Y-51568500D01*
X106765642Y-51616119D01*
X106670404Y-51758976D01*
X106622785Y-51949452D01*
X106622785Y-52330404D01*
X106670404Y-52425642D01*
X106718023Y-52473261D01*
X106813261Y-52520880D01*
X107003738Y-52520880D01*
X107098976Y-52473261D01*
X107146595Y-52425642D01*
X107194214Y-52330404D01*
X107194214Y-52092309D01*
X107146595Y-51997071D01*
X107098976Y-51949452D01*
X107003738Y-51901833D01*
X106813261Y-51901833D01*
X106718023Y-51949452D01*
X106670404Y-51997071D01*
X106622785Y-52092309D01*
X52761904Y-102952380D02*
X52761904Y-101952380D01*
X53000000Y-101952380D01*
X53142857Y-102000000D01*
X53238095Y-102095238D01*
X53285714Y-102190476D01*
X53333333Y-102380952D01*
X53333333Y-102523809D01*
X53285714Y-102714285D01*
X53238095Y-102809523D01*
X53142857Y-102904761D01*
X53000000Y-102952380D01*
X52761904Y-102952380D01*
X54238095Y-101952380D02*
X53761904Y-101952380D01*
X53714285Y-102428571D01*
X53761904Y-102380952D01*
X53857142Y-102333333D01*
X54095238Y-102333333D01*
X54190476Y-102380952D01*
X54238095Y-102428571D01*
X54285714Y-102523809D01*
X54285714Y-102761904D01*
X54238095Y-102857142D01*
X54190476Y-102904761D01*
X54095238Y-102952380D01*
X53857142Y-102952380D01*
X53761904Y-102904761D01*
X53714285Y-102857142D01*
X53261904Y-90452380D02*
X53261904Y-89452380D01*
X53500000Y-89452380D01*
X53642857Y-89500000D01*
X53738095Y-89595238D01*
X53785714Y-89690476D01*
X53833333Y-89880952D01*
X53833333Y-90023809D01*
X53785714Y-90214285D01*
X53738095Y-90309523D01*
X53642857Y-90404761D01*
X53500000Y-90452380D01*
X53261904Y-90452380D01*
X54690476Y-89785714D02*
X54690476Y-90452380D01*
X54452380Y-89404761D02*
X54214285Y-90119047D01*
X54833333Y-90119047D01*
X79680904Y-111471380D02*
X79680904Y-110471380D01*
X79919000Y-110471380D01*
X80061857Y-110519000D01*
X80157095Y-110614238D01*
X80204714Y-110709476D01*
X80252333Y-110899952D01*
X80252333Y-111042809D01*
X80204714Y-111233285D01*
X80157095Y-111328523D01*
X80061857Y-111423761D01*
X79919000Y-111471380D01*
X79680904Y-111471380D01*
X80633285Y-110566619D02*
X80680904Y-110519000D01*
X80776142Y-110471380D01*
X81014238Y-110471380D01*
X81109476Y-110519000D01*
X81157095Y-110566619D01*
X81204714Y-110661857D01*
X81204714Y-110757095D01*
X81157095Y-110899952D01*
X80585666Y-111471380D01*
X81204714Y-111471380D01*
X61278642Y-99962642D02*
X61231023Y-100010261D01*
X61088166Y-100057880D01*
X60992928Y-100057880D01*
X60850071Y-100010261D01*
X60754833Y-99915023D01*
X60707214Y-99819785D01*
X60659595Y-99629309D01*
X60659595Y-99486452D01*
X60707214Y-99295976D01*
X60754833Y-99200738D01*
X60850071Y-99105500D01*
X60992928Y-99057880D01*
X61088166Y-99057880D01*
X61231023Y-99105500D01*
X61278642Y-99153119D01*
X61659595Y-99153119D02*
X61707214Y-99105500D01*
X61802452Y-99057880D01*
X62040547Y-99057880D01*
X62135785Y-99105500D01*
X62183404Y-99153119D01*
X62231023Y-99248357D01*
X62231023Y-99343595D01*
X62183404Y-99486452D01*
X61611976Y-100057880D01*
X62231023Y-100057880D01*
X62802452Y-99486452D02*
X62707214Y-99438833D01*
X62659595Y-99391214D01*
X62611976Y-99295976D01*
X62611976Y-99248357D01*
X62659595Y-99153119D01*
X62707214Y-99105500D01*
X62802452Y-99057880D01*
X62992928Y-99057880D01*
X63088166Y-99105500D01*
X63135785Y-99153119D01*
X63183404Y-99248357D01*
X63183404Y-99295976D01*
X63135785Y-99391214D01*
X63088166Y-99438833D01*
X62992928Y-99486452D01*
X62802452Y-99486452D01*
X62707214Y-99534071D01*
X62659595Y-99581690D01*
X62611976Y-99676928D01*
X62611976Y-99867404D01*
X62659595Y-99962642D01*
X62707214Y-100010261D01*
X62802452Y-100057880D01*
X62992928Y-100057880D01*
X63088166Y-100010261D01*
X63135785Y-99962642D01*
X63183404Y-99867404D01*
X63183404Y-99676928D01*
X63135785Y-99581690D01*
X63088166Y-99534071D01*
X62992928Y-99486452D01*
X64257142Y-92657142D02*
X64209523Y-92704761D01*
X64066666Y-92752380D01*
X63971428Y-92752380D01*
X63828571Y-92704761D01*
X63733333Y-92609523D01*
X63685714Y-92514285D01*
X63638095Y-92323809D01*
X63638095Y-92180952D01*
X63685714Y-91990476D01*
X63733333Y-91895238D01*
X63828571Y-91800000D01*
X63971428Y-91752380D01*
X64066666Y-91752380D01*
X64209523Y-91800000D01*
X64257142Y-91847619D01*
X64638095Y-91847619D02*
X64685714Y-91800000D01*
X64780952Y-91752380D01*
X65019047Y-91752380D01*
X65114285Y-91800000D01*
X65161904Y-91847619D01*
X65209523Y-91942857D01*
X65209523Y-92038095D01*
X65161904Y-92180952D01*
X64590476Y-92752380D01*
X65209523Y-92752380D01*
X65542857Y-91752380D02*
X66209523Y-91752380D01*
X65780952Y-92752380D01*
X55057142Y-76757142D02*
X55009523Y-76804761D01*
X54866666Y-76852380D01*
X54771428Y-76852380D01*
X54628571Y-76804761D01*
X54533333Y-76709523D01*
X54485714Y-76614285D01*
X54438095Y-76423809D01*
X54438095Y-76280952D01*
X54485714Y-76090476D01*
X54533333Y-75995238D01*
X54628571Y-75900000D01*
X54771428Y-75852380D01*
X54866666Y-75852380D01*
X55009523Y-75900000D01*
X55057142Y-75947619D01*
X55438095Y-75947619D02*
X55485714Y-75900000D01*
X55580952Y-75852380D01*
X55819047Y-75852380D01*
X55914285Y-75900000D01*
X55961904Y-75947619D01*
X56009523Y-76042857D01*
X56009523Y-76138095D01*
X55961904Y-76280952D01*
X55390476Y-76852380D01*
X56009523Y-76852380D01*
X56866666Y-75852380D02*
X56676190Y-75852380D01*
X56580952Y-75900000D01*
X56533333Y-75947619D01*
X56438095Y-76090476D01*
X56390476Y-76280952D01*
X56390476Y-76661904D01*
X56438095Y-76757142D01*
X56485714Y-76804761D01*
X56580952Y-76852380D01*
X56771428Y-76852380D01*
X56866666Y-76804761D01*
X56914285Y-76757142D01*
X56961904Y-76661904D01*
X56961904Y-76423809D01*
X56914285Y-76328571D01*
X56866666Y-76280952D01*
X56771428Y-76233333D01*
X56580952Y-76233333D01*
X56485714Y-76280952D01*
X56438095Y-76328571D01*
X56390476Y-76423809D01*
X67465642Y-68825642D02*
X67418023Y-68873261D01*
X67275166Y-68920880D01*
X67179928Y-68920880D01*
X67037071Y-68873261D01*
X66941833Y-68778023D01*
X66894214Y-68682785D01*
X66846595Y-68492309D01*
X66846595Y-68349452D01*
X66894214Y-68158976D01*
X66941833Y-68063738D01*
X67037071Y-67968500D01*
X67179928Y-67920880D01*
X67275166Y-67920880D01*
X67418023Y-67968500D01*
X67465642Y-68016119D01*
X67846595Y-68016119D02*
X67894214Y-67968500D01*
X67989452Y-67920880D01*
X68227547Y-67920880D01*
X68322785Y-67968500D01*
X68370404Y-68016119D01*
X68418023Y-68111357D01*
X68418023Y-68206595D01*
X68370404Y-68349452D01*
X67798976Y-68920880D01*
X68418023Y-68920880D01*
X68751357Y-67920880D02*
X69370404Y-67920880D01*
X69037071Y-68301833D01*
X69179928Y-68301833D01*
X69275166Y-68349452D01*
X69322785Y-68397071D01*
X69370404Y-68492309D01*
X69370404Y-68730404D01*
X69322785Y-68825642D01*
X69275166Y-68873261D01*
X69179928Y-68920880D01*
X68894214Y-68920880D01*
X68798976Y-68873261D01*
X68751357Y-68825642D01*
X66833333Y-103757142D02*
X66785714Y-103804761D01*
X66642857Y-103852380D01*
X66547619Y-103852380D01*
X66404761Y-103804761D01*
X66309523Y-103709523D01*
X66261904Y-103614285D01*
X66214285Y-103423809D01*
X66214285Y-103280952D01*
X66261904Y-103090476D01*
X66309523Y-102995238D01*
X66404761Y-102900000D01*
X66547619Y-102852380D01*
X66642857Y-102852380D01*
X66785714Y-102900000D01*
X66833333Y-102947619D01*
X67690476Y-103185714D02*
X67690476Y-103852380D01*
X67452380Y-102804761D02*
X67214285Y-103519047D01*
X67833333Y-103519047D01*
X72333333Y-108357142D02*
X72285714Y-108404761D01*
X72142857Y-108452380D01*
X72047619Y-108452380D01*
X71904761Y-108404761D01*
X71809523Y-108309523D01*
X71761904Y-108214285D01*
X71714285Y-108023809D01*
X71714285Y-107880952D01*
X71761904Y-107690476D01*
X71809523Y-107595238D01*
X71904761Y-107500000D01*
X72047619Y-107452380D01*
X72142857Y-107452380D01*
X72285714Y-107500000D01*
X72333333Y-107547619D01*
X72666666Y-107452380D02*
X73285714Y-107452380D01*
X72952380Y-107833333D01*
X73095238Y-107833333D01*
X73190476Y-107880952D01*
X73238095Y-107928571D01*
X73285714Y-108023809D01*
X73285714Y-108261904D01*
X73238095Y-108357142D01*
X73190476Y-108404761D01*
X73095238Y-108452380D01*
X72809523Y-108452380D01*
X72714285Y-108404761D01*
X72666666Y-108357142D01*
X70881333Y-85161142D02*
X70833714Y-85208761D01*
X70690857Y-85256380D01*
X70595619Y-85256380D01*
X70452761Y-85208761D01*
X70357523Y-85113523D01*
X70309904Y-85018285D01*
X70262285Y-84827809D01*
X70262285Y-84684952D01*
X70309904Y-84494476D01*
X70357523Y-84399238D01*
X70452761Y-84304000D01*
X70595619Y-84256380D01*
X70690857Y-84256380D01*
X70833714Y-84304000D01*
X70881333Y-84351619D01*
X71262285Y-84351619D02*
X71309904Y-84304000D01*
X71405142Y-84256380D01*
X71643238Y-84256380D01*
X71738476Y-84304000D01*
X71786095Y-84351619D01*
X71833714Y-84446857D01*
X71833714Y-84542095D01*
X71786095Y-84684952D01*
X71214666Y-85256380D01*
X71833714Y-85256380D01*
X107213261Y-64816119D02*
X107118023Y-64768500D01*
X107022785Y-64673261D01*
X106879928Y-64530404D01*
X106784690Y-64482785D01*
X106689452Y-64482785D01*
X106737071Y-64720880D02*
X106641833Y-64673261D01*
X106546595Y-64578023D01*
X106498976Y-64387547D01*
X106498976Y-64054214D01*
X106546595Y-63863738D01*
X106641833Y-63768500D01*
X106737071Y-63720880D01*
X106927547Y-63720880D01*
X107022785Y-63768500D01*
X107118023Y-63863738D01*
X107165642Y-64054214D01*
X107165642Y-64387547D01*
X107118023Y-64578023D01*
X107022785Y-64673261D01*
X106927547Y-64720880D01*
X106737071Y-64720880D01*
X107737071Y-64149452D02*
X107641833Y-64101833D01*
X107594214Y-64054214D01*
X107546595Y-63958976D01*
X107546595Y-63911357D01*
X107594214Y-63816119D01*
X107641833Y-63768500D01*
X107737071Y-63720880D01*
X107927547Y-63720880D01*
X108022785Y-63768500D01*
X108070404Y-63816119D01*
X108118023Y-63911357D01*
X108118023Y-63958976D01*
X108070404Y-64054214D01*
X108022785Y-64101833D01*
X107927547Y-64149452D01*
X107737071Y-64149452D01*
X107641833Y-64197071D01*
X107594214Y-64244690D01*
X107546595Y-64339928D01*
X107546595Y-64530404D01*
X107594214Y-64625642D01*
X107641833Y-64673261D01*
X107737071Y-64720880D01*
X107927547Y-64720880D01*
X108022785Y-64673261D01*
X108070404Y-64625642D01*
X108118023Y-64530404D01*
X108118023Y-64339928D01*
X108070404Y-64244690D01*
X108022785Y-64197071D01*
X107927547Y-64149452D01*
X87456761Y-87315619D02*
X87361523Y-87268000D01*
X87266285Y-87172761D01*
X87123428Y-87029904D01*
X87028190Y-86982285D01*
X86932952Y-86982285D01*
X86980571Y-87220380D02*
X86885333Y-87172761D01*
X86790095Y-87077523D01*
X86742476Y-86887047D01*
X86742476Y-86553714D01*
X86790095Y-86363238D01*
X86885333Y-86268000D01*
X86980571Y-86220380D01*
X87171047Y-86220380D01*
X87266285Y-86268000D01*
X87361523Y-86363238D01*
X87409142Y-86553714D01*
X87409142Y-86887047D01*
X87361523Y-87077523D01*
X87266285Y-87172761D01*
X87171047Y-87220380D01*
X86980571Y-87220380D01*
X87742476Y-86220380D02*
X88409142Y-86220380D01*
X87980571Y-87220380D01*
X67823619Y-96111904D02*
X67014095Y-96111904D01*
X66918857Y-96159523D01*
X66871238Y-96207142D01*
X66823619Y-96302380D01*
X66823619Y-96492857D01*
X66871238Y-96588095D01*
X66918857Y-96635714D01*
X67014095Y-96683333D01*
X67823619Y-96683333D01*
X66823619Y-97683333D02*
X66823619Y-97111904D01*
X66823619Y-97397619D02*
X67823619Y-97397619D01*
X67680761Y-97302380D01*
X67585523Y-97207142D01*
X67537904Y-97111904D01*
X67728380Y-98064285D02*
X67776000Y-98111904D01*
X67823619Y-98207142D01*
X67823619Y-98445238D01*
X67776000Y-98540476D01*
X67728380Y-98588095D01*
X67633142Y-98635714D01*
X67537904Y-98635714D01*
X67395047Y-98588095D01*
X66823619Y-98016666D01*
X66823619Y-98635714D01*
X94404761Y-62203619D02*
X94309523Y-62156000D01*
X94214285Y-62060761D01*
X94071428Y-61917904D01*
X93976190Y-61870285D01*
X93880952Y-61870285D01*
X93928571Y-62108380D02*
X93833333Y-62060761D01*
X93738095Y-61965523D01*
X93690476Y-61775047D01*
X93690476Y-61441714D01*
X93738095Y-61251238D01*
X93833333Y-61156000D01*
X93928571Y-61108380D01*
X94119047Y-61108380D01*
X94214285Y-61156000D01*
X94309523Y-61251238D01*
X94357142Y-61441714D01*
X94357142Y-61775047D01*
X94309523Y-61965523D01*
X94214285Y-62060761D01*
X94119047Y-62108380D01*
X93928571Y-62108380D01*
X95214285Y-61108380D02*
X95023809Y-61108380D01*
X94928571Y-61156000D01*
X94880952Y-61203619D01*
X94785714Y-61346476D01*
X94738095Y-61536952D01*
X94738095Y-61917904D01*
X94785714Y-62013142D01*
X94833333Y-62060761D01*
X94928571Y-62108380D01*
X95119047Y-62108380D01*
X95214285Y-62060761D01*
X95261904Y-62013142D01*
X95309523Y-61917904D01*
X95309523Y-61679809D01*
X95261904Y-61584571D01*
X95214285Y-61536952D01*
X95119047Y-61489333D01*
X94928571Y-61489333D01*
X94833333Y-61536952D01*
X94785714Y-61584571D01*
X94738095Y-61679809D01*
X100404761Y-62203619D02*
X100309523Y-62156000D01*
X100214285Y-62060761D01*
X100071428Y-61917904D01*
X99976190Y-61870285D01*
X99880952Y-61870285D01*
X99928571Y-62108380D02*
X99833333Y-62060761D01*
X99738095Y-61965523D01*
X99690476Y-61775047D01*
X99690476Y-61441714D01*
X99738095Y-61251238D01*
X99833333Y-61156000D01*
X99928571Y-61108380D01*
X100119047Y-61108380D01*
X100214285Y-61156000D01*
X100309523Y-61251238D01*
X100357142Y-61441714D01*
X100357142Y-61775047D01*
X100309523Y-61965523D01*
X100214285Y-62060761D01*
X100119047Y-62108380D01*
X99928571Y-62108380D01*
X101261904Y-61108380D02*
X100785714Y-61108380D01*
X100738095Y-61584571D01*
X100785714Y-61536952D01*
X100880952Y-61489333D01*
X101119047Y-61489333D01*
X101214285Y-61536952D01*
X101261904Y-61584571D01*
X101309523Y-61679809D01*
X101309523Y-61917904D01*
X101261904Y-62013142D01*
X101214285Y-62060761D01*
X101119047Y-62108380D01*
X100880952Y-62108380D01*
X100785714Y-62060761D01*
X100738095Y-62013142D01*
X75813261Y-93516119D02*
X75718023Y-93468500D01*
X75622785Y-93373261D01*
X75479928Y-93230404D01*
X75384690Y-93182785D01*
X75289452Y-93182785D01*
X75337071Y-93420880D02*
X75241833Y-93373261D01*
X75146595Y-93278023D01*
X75098976Y-93087547D01*
X75098976Y-92754214D01*
X75146595Y-92563738D01*
X75241833Y-92468500D01*
X75337071Y-92420880D01*
X75527547Y-92420880D01*
X75622785Y-92468500D01*
X75718023Y-92563738D01*
X75765642Y-92754214D01*
X75765642Y-93087547D01*
X75718023Y-93278023D01*
X75622785Y-93373261D01*
X75527547Y-93420880D01*
X75337071Y-93420880D01*
X76718023Y-93420880D02*
X76146595Y-93420880D01*
X76432309Y-93420880D02*
X76432309Y-92420880D01*
X76337071Y-92563738D01*
X76241833Y-92658976D01*
X76146595Y-92706595D01*
X85313261Y-89816119D02*
X85218023Y-89768500D01*
X85122785Y-89673261D01*
X84979928Y-89530404D01*
X84884690Y-89482785D01*
X84789452Y-89482785D01*
X84837071Y-89720880D02*
X84741833Y-89673261D01*
X84646595Y-89578023D01*
X84598976Y-89387547D01*
X84598976Y-89054214D01*
X84646595Y-88863738D01*
X84741833Y-88768500D01*
X84837071Y-88720880D01*
X85027547Y-88720880D01*
X85122785Y-88768500D01*
X85218023Y-88863738D01*
X85265642Y-89054214D01*
X85265642Y-89387547D01*
X85218023Y-89578023D01*
X85122785Y-89673261D01*
X85027547Y-89720880D01*
X84837071Y-89720880D01*
X85646595Y-88816119D02*
X85694214Y-88768500D01*
X85789452Y-88720880D01*
X86027547Y-88720880D01*
X86122785Y-88768500D01*
X86170404Y-88816119D01*
X86218023Y-88911357D01*
X86218023Y-89006595D01*
X86170404Y-89149452D01*
X85598976Y-89720880D01*
X86218023Y-89720880D01*
X97405261Y-91350119D02*
X97310023Y-91302500D01*
X97214785Y-91207261D01*
X97071928Y-91064404D01*
X96976690Y-91016785D01*
X96881452Y-91016785D01*
X96929071Y-91254880D02*
X96833833Y-91207261D01*
X96738595Y-91112023D01*
X96690976Y-90921547D01*
X96690976Y-90588214D01*
X96738595Y-90397738D01*
X96833833Y-90302500D01*
X96929071Y-90254880D01*
X97119547Y-90254880D01*
X97214785Y-90302500D01*
X97310023Y-90397738D01*
X97357642Y-90588214D01*
X97357642Y-90921547D01*
X97310023Y-91112023D01*
X97214785Y-91207261D01*
X97119547Y-91254880D01*
X96929071Y-91254880D01*
X97690976Y-90254880D02*
X98310023Y-90254880D01*
X97976690Y-90635833D01*
X98119547Y-90635833D01*
X98214785Y-90683452D01*
X98262404Y-90731071D01*
X98310023Y-90826309D01*
X98310023Y-91064404D01*
X98262404Y-91159642D01*
X98214785Y-91207261D01*
X98119547Y-91254880D01*
X97833833Y-91254880D01*
X97738595Y-91207261D01*
X97690976Y-91159642D01*
X108404761Y-91540619D02*
X108309523Y-91493000D01*
X108214285Y-91397761D01*
X108071428Y-91254904D01*
X107976190Y-91207285D01*
X107880952Y-91207285D01*
X107928571Y-91445380D02*
X107833333Y-91397761D01*
X107738095Y-91302523D01*
X107690476Y-91112047D01*
X107690476Y-90778714D01*
X107738095Y-90588238D01*
X107833333Y-90493000D01*
X107928571Y-90445380D01*
X108119047Y-90445380D01*
X108214285Y-90493000D01*
X108309523Y-90588238D01*
X108357142Y-90778714D01*
X108357142Y-91112047D01*
X108309523Y-91302523D01*
X108214285Y-91397761D01*
X108119047Y-91445380D01*
X107928571Y-91445380D01*
X109214285Y-90778714D02*
X109214285Y-91445380D01*
X108976190Y-90397761D02*
X108738095Y-91112047D01*
X109357142Y-91112047D01*
X54666666Y-53904761D02*
X54809523Y-53952380D01*
X55047619Y-53952380D01*
X55142857Y-53904761D01*
X55190476Y-53857142D01*
X55238095Y-53761904D01*
X55238095Y-53666666D01*
X55190476Y-53571428D01*
X55142857Y-53523809D01*
X55047619Y-53476190D01*
X54857142Y-53428571D01*
X54761904Y-53380952D01*
X54714285Y-53333333D01*
X54666666Y-53238095D01*
X54666666Y-53142857D01*
X54714285Y-53047619D01*
X54761904Y-53000000D01*
X54857142Y-52952380D01*
X55095238Y-52952380D01*
X55238095Y-53000000D01*
X55571428Y-52952380D02*
X55809523Y-53952380D01*
X56000000Y-53238095D01*
X56190476Y-53952380D01*
X56428571Y-52952380D01*
X57333333Y-53952380D02*
X56761904Y-53952380D01*
X57047619Y-53952380D02*
X57047619Y-52952380D01*
X56952380Y-53095238D01*
X56857142Y-53190476D01*
X56761904Y-53238095D01*
X61466666Y-53754761D02*
X61609523Y-53802380D01*
X61847619Y-53802380D01*
X61942857Y-53754761D01*
X61990476Y-53707142D01*
X62038095Y-53611904D01*
X62038095Y-53516666D01*
X61990476Y-53421428D01*
X61942857Y-53373809D01*
X61847619Y-53326190D01*
X61657142Y-53278571D01*
X61561904Y-53230952D01*
X61514285Y-53183333D01*
X61466666Y-53088095D01*
X61466666Y-52992857D01*
X61514285Y-52897619D01*
X61561904Y-52850000D01*
X61657142Y-52802380D01*
X61895238Y-52802380D01*
X62038095Y-52850000D01*
X62371428Y-52802380D02*
X62609523Y-53802380D01*
X62800000Y-53088095D01*
X62990476Y-53802380D01*
X63228571Y-52802380D01*
X63561904Y-52897619D02*
X63609523Y-52850000D01*
X63704761Y-52802380D01*
X63942857Y-52802380D01*
X64038095Y-52850000D01*
X64085714Y-52897619D01*
X64133333Y-52992857D01*
X64133333Y-53088095D01*
X64085714Y-53230952D01*
X63514285Y-53802380D01*
X64133333Y-53802380D01*
X119410095Y-68481880D02*
X119410095Y-69291404D01*
X119457714Y-69386642D01*
X119505333Y-69434261D01*
X119600571Y-69481880D01*
X119791047Y-69481880D01*
X119886285Y-69434261D01*
X119933904Y-69386642D01*
X119981523Y-69291404D01*
X119981523Y-68481880D01*
X120981523Y-69481880D02*
X120410095Y-69481880D01*
X120695809Y-69481880D02*
X120695809Y-68481880D01*
X120600571Y-68624738D01*
X120505333Y-68719976D01*
X120410095Y-68767595D01*
X100901619Y-81735571D02*
X101234952Y-81735571D01*
X101377809Y-82259380D02*
X100901619Y-82259380D01*
X100901619Y-81259380D01*
X101377809Y-81259380D01*
X101758761Y-82211761D02*
X101901619Y-82259380D01*
X102139714Y-82259380D01*
X102234952Y-82211761D01*
X102282571Y-82164142D01*
X102330190Y-82068904D01*
X102330190Y-81973666D01*
X102282571Y-81878428D01*
X102234952Y-81830809D01*
X102139714Y-81783190D01*
X101949238Y-81735571D01*
X101854000Y-81687952D01*
X101806380Y-81640333D01*
X101758761Y-81545095D01*
X101758761Y-81449857D01*
X101806380Y-81354619D01*
X101854000Y-81307000D01*
X101949238Y-81259380D01*
X102187333Y-81259380D01*
X102330190Y-81307000D01*
X102758761Y-82259380D02*
X102758761Y-81259380D01*
X103139714Y-81259380D01*
X103234952Y-81307000D01*
X103282571Y-81354619D01*
X103330190Y-81449857D01*
X103330190Y-81592714D01*
X103282571Y-81687952D01*
X103234952Y-81735571D01*
X103139714Y-81783190D01*
X102758761Y-81783190D01*
X103663523Y-81259380D02*
X104282571Y-81259380D01*
X103949238Y-81640333D01*
X104092095Y-81640333D01*
X104187333Y-81687952D01*
X104234952Y-81735571D01*
X104282571Y-81830809D01*
X104282571Y-82068904D01*
X104234952Y-82164142D01*
X104187333Y-82211761D01*
X104092095Y-82259380D01*
X103806380Y-82259380D01*
X103711142Y-82211761D01*
X103663523Y-82164142D01*
X104663523Y-81354619D02*
X104711142Y-81307000D01*
X104806380Y-81259380D01*
X105044476Y-81259380D01*
X105139714Y-81307000D01*
X105187333Y-81354619D01*
X105234952Y-81449857D01*
X105234952Y-81545095D01*
X105187333Y-81687952D01*
X104615904Y-82259380D01*
X105234952Y-82259380D01*
X105663523Y-81878428D02*
X106425428Y-81878428D01*
X106806380Y-81259380D02*
X107044476Y-82259380D01*
X107234952Y-81545095D01*
X107425428Y-82259380D01*
X107663523Y-81259380D01*
X108615904Y-82259380D02*
X108282571Y-81783190D01*
X108044476Y-82259380D02*
X108044476Y-81259380D01*
X108425428Y-81259380D01*
X108520666Y-81307000D01*
X108568285Y-81354619D01*
X108615904Y-81449857D01*
X108615904Y-81592714D01*
X108568285Y-81687952D01*
X108520666Y-81735571D01*
X108425428Y-81783190D01*
X108044476Y-81783190D01*
X109234952Y-81259380D02*
X109425428Y-81259380D01*
X109520666Y-81307000D01*
X109615904Y-81402238D01*
X109663523Y-81592714D01*
X109663523Y-81926047D01*
X109615904Y-82116523D01*
X109520666Y-82211761D01*
X109425428Y-82259380D01*
X109234952Y-82259380D01*
X109139714Y-82211761D01*
X109044476Y-82116523D01*
X108996857Y-81926047D01*
X108996857Y-81592714D01*
X109044476Y-81402238D01*
X109139714Y-81307000D01*
X109234952Y-81259380D01*
X110282571Y-81259380D02*
X110473047Y-81259380D01*
X110568285Y-81307000D01*
X110663523Y-81402238D01*
X110711142Y-81592714D01*
X110711142Y-81926047D01*
X110663523Y-82116523D01*
X110568285Y-82211761D01*
X110473047Y-82259380D01*
X110282571Y-82259380D01*
X110187333Y-82211761D01*
X110092095Y-82116523D01*
X110044476Y-81926047D01*
X110044476Y-81592714D01*
X110092095Y-81402238D01*
X110187333Y-81307000D01*
X110282571Y-81259380D01*
X111139714Y-82259380D02*
X111139714Y-81259380D01*
X111473047Y-81973666D01*
X111806380Y-81259380D01*
X111806380Y-82259380D01*
X98639571Y-83386571D02*
X98972904Y-83386571D01*
X99115761Y-83910380D02*
X98639571Y-83910380D01*
X98639571Y-82910380D01*
X99115761Y-82910380D01*
X99496714Y-83862761D02*
X99591952Y-83910380D01*
X99782428Y-83910380D01*
X99877666Y-83862761D01*
X99925285Y-83767523D01*
X99925285Y-83719904D01*
X99877666Y-83624666D01*
X99782428Y-83577047D01*
X99639571Y-83577047D01*
X99544333Y-83529428D01*
X99496714Y-83434190D01*
X99496714Y-83386571D01*
X99544333Y-83291333D01*
X99639571Y-83243714D01*
X99782428Y-83243714D01*
X99877666Y-83291333D01*
X100353857Y-83243714D02*
X100353857Y-84243714D01*
X100353857Y-83291333D02*
X100449095Y-83243714D01*
X100639571Y-83243714D01*
X100734809Y-83291333D01*
X100782428Y-83338952D01*
X100830047Y-83434190D01*
X100830047Y-83719904D01*
X100782428Y-83815142D01*
X100734809Y-83862761D01*
X100639571Y-83910380D01*
X100449095Y-83910380D01*
X100353857Y-83862761D01*
X101258619Y-83910380D02*
X101258619Y-83243714D01*
X101258619Y-83434190D02*
X101306238Y-83338952D01*
X101353857Y-83291333D01*
X101449095Y-83243714D01*
X101544333Y-83243714D01*
X102258619Y-83862761D02*
X102163380Y-83910380D01*
X101972904Y-83910380D01*
X101877666Y-83862761D01*
X101830047Y-83767523D01*
X101830047Y-83386571D01*
X101877666Y-83291333D01*
X101972904Y-83243714D01*
X102163380Y-83243714D01*
X102258619Y-83291333D01*
X102306238Y-83386571D01*
X102306238Y-83481809D01*
X101830047Y-83577047D01*
X102687190Y-83862761D02*
X102782428Y-83910380D01*
X102972904Y-83910380D01*
X103068142Y-83862761D01*
X103115761Y-83767523D01*
X103115761Y-83719904D01*
X103068142Y-83624666D01*
X102972904Y-83577047D01*
X102830047Y-83577047D01*
X102734809Y-83529428D01*
X102687190Y-83434190D01*
X102687190Y-83386571D01*
X102734809Y-83291333D01*
X102830047Y-83243714D01*
X102972904Y-83243714D01*
X103068142Y-83291333D01*
X103496714Y-83862761D02*
X103591952Y-83910380D01*
X103782428Y-83910380D01*
X103877666Y-83862761D01*
X103925285Y-83767523D01*
X103925285Y-83719904D01*
X103877666Y-83624666D01*
X103782428Y-83577047D01*
X103639571Y-83577047D01*
X103544333Y-83529428D01*
X103496714Y-83434190D01*
X103496714Y-83386571D01*
X103544333Y-83291333D01*
X103639571Y-83243714D01*
X103782428Y-83243714D01*
X103877666Y-83291333D01*
X104353857Y-83910380D02*
X104353857Y-83243714D01*
X104353857Y-82910380D02*
X104306238Y-82958000D01*
X104353857Y-83005619D01*
X104401476Y-82958000D01*
X104353857Y-82910380D01*
X104353857Y-83005619D01*
X104687190Y-83243714D02*
X105068142Y-83243714D01*
X104830047Y-83910380D02*
X104830047Y-83053238D01*
X104877666Y-82958000D01*
X104972904Y-82910380D01*
X105068142Y-82910380D01*
X106115761Y-83862761D02*
X106258619Y-83910380D01*
X106496714Y-83910380D01*
X106591952Y-83862761D01*
X106639571Y-83815142D01*
X106687190Y-83719904D01*
X106687190Y-83624666D01*
X106639571Y-83529428D01*
X106591952Y-83481809D01*
X106496714Y-83434190D01*
X106306238Y-83386571D01*
X106211000Y-83338952D01*
X106163380Y-83291333D01*
X106115761Y-83196095D01*
X106115761Y-83100857D01*
X106163380Y-83005619D01*
X106211000Y-82958000D01*
X106306238Y-82910380D01*
X106544333Y-82910380D01*
X106687190Y-82958000D01*
X107020523Y-83243714D02*
X107258619Y-83910380D01*
X107496714Y-83243714D02*
X107258619Y-83910380D01*
X107163380Y-84148476D01*
X107115761Y-84196095D01*
X107020523Y-84243714D01*
X107830047Y-83862761D02*
X107925285Y-83910380D01*
X108115761Y-83910380D01*
X108211000Y-83862761D01*
X108258619Y-83767523D01*
X108258619Y-83719904D01*
X108211000Y-83624666D01*
X108115761Y-83577047D01*
X107972904Y-83577047D01*
X107877666Y-83529428D01*
X107830047Y-83434190D01*
X107830047Y-83386571D01*
X107877666Y-83291333D01*
X107972904Y-83243714D01*
X108115761Y-83243714D01*
X108211000Y-83291333D01*
X108544333Y-83243714D02*
X108925285Y-83243714D01*
X108687190Y-82910380D02*
X108687190Y-83767523D01*
X108734809Y-83862761D01*
X108830047Y-83910380D01*
X108925285Y-83910380D01*
X109639571Y-83862761D02*
X109544333Y-83910380D01*
X109353857Y-83910380D01*
X109258619Y-83862761D01*
X109211000Y-83767523D01*
X109211000Y-83386571D01*
X109258619Y-83291333D01*
X109353857Y-83243714D01*
X109544333Y-83243714D01*
X109639571Y-83291333D01*
X109687190Y-83386571D01*
X109687190Y-83481809D01*
X109211000Y-83577047D01*
X110115761Y-83910380D02*
X110115761Y-83243714D01*
X110115761Y-83338952D02*
X110163380Y-83291333D01*
X110258619Y-83243714D01*
X110401476Y-83243714D01*
X110496714Y-83291333D01*
X110544333Y-83386571D01*
X110544333Y-83910380D01*
X110544333Y-83386571D02*
X110591952Y-83291333D01*
X110687190Y-83243714D01*
X110830047Y-83243714D01*
X110925285Y-83291333D01*
X110972904Y-83386571D01*
X110972904Y-83910380D01*
X111401476Y-83862761D02*
X111496714Y-83910380D01*
X111687190Y-83910380D01*
X111782428Y-83862761D01*
X111830047Y-83767523D01*
X111830047Y-83719904D01*
X111782428Y-83624666D01*
X111687190Y-83577047D01*
X111544333Y-83577047D01*
X111449095Y-83529428D01*
X111401476Y-83434190D01*
X111401476Y-83386571D01*
X111449095Y-83291333D01*
X111544333Y-83243714D01*
X111687190Y-83243714D01*
X111782428Y-83291333D01*
X75402595Y-60790880D02*
X75402595Y-61600404D01*
X75450214Y-61695642D01*
X75497833Y-61743261D01*
X75593071Y-61790880D01*
X75783547Y-61790880D01*
X75878785Y-61743261D01*
X75926404Y-61695642D01*
X75974023Y-61600404D01*
X75974023Y-60790880D01*
X76593071Y-61219452D02*
X76497833Y-61171833D01*
X76450214Y-61124214D01*
X76402595Y-61028976D01*
X76402595Y-60981357D01*
X76450214Y-60886119D01*
X76497833Y-60838500D01*
X76593071Y-60790880D01*
X76783547Y-60790880D01*
X76878785Y-60838500D01*
X76926404Y-60886119D01*
X76974023Y-60981357D01*
X76974023Y-61028976D01*
X76926404Y-61124214D01*
X76878785Y-61171833D01*
X76783547Y-61219452D01*
X76593071Y-61219452D01*
X76497833Y-61267071D01*
X76450214Y-61314690D01*
X76402595Y-61409928D01*
X76402595Y-61600404D01*
X76450214Y-61695642D01*
X76497833Y-61743261D01*
X76593071Y-61790880D01*
X76783547Y-61790880D01*
X76878785Y-61743261D01*
X76926404Y-61695642D01*
X76974023Y-61600404D01*
X76974023Y-61409928D01*
X76926404Y-61314690D01*
X76878785Y-61267071D01*
X76783547Y-61219452D01*
X68238095Y-87252380D02*
X68238095Y-88061904D01*
X68285714Y-88157142D01*
X68333333Y-88204761D01*
X68428571Y-88252380D01*
X68619047Y-88252380D01*
X68714285Y-88204761D01*
X68761904Y-88157142D01*
X68809523Y-88061904D01*
X68809523Y-87252380D01*
X69714285Y-87585714D02*
X69714285Y-88252380D01*
X69476190Y-87204761D02*
X69238095Y-87919047D01*
X69857142Y-87919047D01*
X93206404Y-100906880D02*
X93206404Y-99906880D01*
X93444500Y-99906880D01*
X93587357Y-99954500D01*
X93682595Y-100049738D01*
X93730214Y-100144976D01*
X93777833Y-100335452D01*
X93777833Y-100478309D01*
X93730214Y-100668785D01*
X93682595Y-100764023D01*
X93587357Y-100859261D01*
X93444500Y-100906880D01*
X93206404Y-100906880D01*
X94111166Y-99906880D02*
X94730214Y-99906880D01*
X94396880Y-100287833D01*
X94539738Y-100287833D01*
X94634976Y-100335452D01*
X94682595Y-100383071D01*
X94730214Y-100478309D01*
X94730214Y-100716404D01*
X94682595Y-100811642D01*
X94634976Y-100859261D01*
X94539738Y-100906880D01*
X94254023Y-100906880D01*
X94158785Y-100859261D01*
X94111166Y-100811642D01*
X83554404Y-100906880D02*
X83554404Y-99906880D01*
X83792500Y-99906880D01*
X83935357Y-99954500D01*
X84030595Y-100049738D01*
X84078214Y-100144976D01*
X84125833Y-100335452D01*
X84125833Y-100478309D01*
X84078214Y-100668785D01*
X84030595Y-100764023D01*
X83935357Y-100859261D01*
X83792500Y-100906880D01*
X83554404Y-100906880D01*
X85078214Y-100906880D02*
X84506785Y-100906880D01*
X84792500Y-100906880D02*
X84792500Y-99906880D01*
X84697261Y-100049738D01*
X84602023Y-100144976D01*
X84506785Y-100192595D01*
X103366404Y-100906880D02*
X103366404Y-99906880D01*
X103604500Y-99906880D01*
X103747357Y-99954500D01*
X103842595Y-100049738D01*
X103890214Y-100144976D01*
X103937833Y-100335452D01*
X103937833Y-100478309D01*
X103890214Y-100668785D01*
X103842595Y-100764023D01*
X103747357Y-100859261D01*
X103604500Y-100906880D01*
X103366404Y-100906880D01*
X104414023Y-100906880D02*
X104604500Y-100906880D01*
X104699738Y-100859261D01*
X104747357Y-100811642D01*
X104842595Y-100668785D01*
X104890214Y-100478309D01*
X104890214Y-100097357D01*
X104842595Y-100002119D01*
X104794976Y-99954500D01*
X104699738Y-99906880D01*
X104509261Y-99906880D01*
X104414023Y-99954500D01*
X104366404Y-100002119D01*
X104318785Y-100097357D01*
X104318785Y-100335452D01*
X104366404Y-100430690D01*
X104414023Y-100478309D01*
X104509261Y-100525928D01*
X104699738Y-100525928D01*
X104794976Y-100478309D01*
X104842595Y-100430690D01*
X104890214Y-100335452D01*
X113050214Y-100906880D02*
X113050214Y-99906880D01*
X113288309Y-99906880D01*
X113431166Y-99954500D01*
X113526404Y-100049738D01*
X113574023Y-100144976D01*
X113621642Y-100335452D01*
X113621642Y-100478309D01*
X113574023Y-100668785D01*
X113526404Y-100764023D01*
X113431166Y-100859261D01*
X113288309Y-100906880D01*
X113050214Y-100906880D01*
X114574023Y-100906880D02*
X114002595Y-100906880D01*
X114288309Y-100906880D02*
X114288309Y-99906880D01*
X114193071Y-100049738D01*
X114097833Y-100144976D01*
X114002595Y-100192595D01*
X115526404Y-100906880D02*
X114954976Y-100906880D01*
X115240690Y-100906880D02*
X115240690Y-99906880D01*
X115145452Y-100049738D01*
X115050214Y-100144976D01*
X114954976Y-100192595D01*
X68138095Y-59652380D02*
X68138095Y-60461904D01*
X68185714Y-60557142D01*
X68233333Y-60604761D01*
X68328571Y-60652380D01*
X68519047Y-60652380D01*
X68614285Y-60604761D01*
X68661904Y-60557142D01*
X68709523Y-60461904D01*
X68709523Y-59652380D01*
X69661904Y-59652380D02*
X69185714Y-59652380D01*
X69138095Y-60128571D01*
X69185714Y-60080952D01*
X69280952Y-60033333D01*
X69519047Y-60033333D01*
X69614285Y-60080952D01*
X69661904Y-60128571D01*
X69709523Y-60223809D01*
X69709523Y-60461904D01*
X69661904Y-60557142D01*
X69614285Y-60604761D01*
X69519047Y-60652380D01*
X69280952Y-60652380D01*
X69185714Y-60604761D01*
X69138095Y-60557142D01*
X80990595Y-60790880D02*
X80990595Y-61600404D01*
X81038214Y-61695642D01*
X81085833Y-61743261D01*
X81181071Y-61790880D01*
X81371547Y-61790880D01*
X81466785Y-61743261D01*
X81514404Y-61695642D01*
X81562023Y-61600404D01*
X81562023Y-60790880D01*
X82085833Y-61790880D02*
X82276309Y-61790880D01*
X82371547Y-61743261D01*
X82419166Y-61695642D01*
X82514404Y-61552785D01*
X82562023Y-61362309D01*
X82562023Y-60981357D01*
X82514404Y-60886119D01*
X82466785Y-60838500D01*
X82371547Y-60790880D01*
X82181071Y-60790880D01*
X82085833Y-60838500D01*
X82038214Y-60886119D01*
X81990595Y-60981357D01*
X81990595Y-61219452D01*
X82038214Y-61314690D01*
X82085833Y-61362309D01*
X82181071Y-61409928D01*
X82371547Y-61409928D01*
X82466785Y-61362309D01*
X82514404Y-61314690D01*
X82562023Y-61219452D01*
X86102404Y-60790880D02*
X86102404Y-61600404D01*
X86150023Y-61695642D01*
X86197642Y-61743261D01*
X86292880Y-61790880D01*
X86483357Y-61790880D01*
X86578595Y-61743261D01*
X86626214Y-61695642D01*
X86673833Y-61600404D01*
X86673833Y-60790880D01*
X87673833Y-61790880D02*
X87102404Y-61790880D01*
X87388119Y-61790880D02*
X87388119Y-60790880D01*
X87292880Y-60933738D01*
X87197642Y-61028976D01*
X87102404Y-61076595D01*
X88292880Y-60790880D02*
X88388119Y-60790880D01*
X88483357Y-60838500D01*
X88530976Y-60886119D01*
X88578595Y-60981357D01*
X88626214Y-61171833D01*
X88626214Y-61409928D01*
X88578595Y-61600404D01*
X88530976Y-61695642D01*
X88483357Y-61743261D01*
X88388119Y-61790880D01*
X88292880Y-61790880D01*
X88197642Y-61743261D01*
X88150023Y-61695642D01*
X88102404Y-61600404D01*
X88054785Y-61409928D01*
X88054785Y-61171833D01*
X88102404Y-60981357D01*
X88150023Y-60886119D01*
X88197642Y-60838500D01*
X88292880Y-60790880D01*
X112994595Y-102954880D02*
X112994595Y-103764404D01*
X113042214Y-103859642D01*
X113089833Y-103907261D01*
X113185071Y-103954880D01*
X113375547Y-103954880D01*
X113470785Y-103907261D01*
X113518404Y-103859642D01*
X113566023Y-103764404D01*
X113566023Y-102954880D01*
X113946976Y-102954880D02*
X114613642Y-102954880D01*
X114185071Y-103954880D01*
X103342595Y-102954880D02*
X103342595Y-103764404D01*
X103390214Y-103859642D01*
X103437833Y-103907261D01*
X103533071Y-103954880D01*
X103723547Y-103954880D01*
X103818785Y-103907261D01*
X103866404Y-103859642D01*
X103914023Y-103764404D01*
X103914023Y-102954880D01*
X104818785Y-102954880D02*
X104628309Y-102954880D01*
X104533071Y-103002500D01*
X104485452Y-103050119D01*
X104390214Y-103192976D01*
X104342595Y-103383452D01*
X104342595Y-103764404D01*
X104390214Y-103859642D01*
X104437833Y-103907261D01*
X104533071Y-103954880D01*
X104723547Y-103954880D01*
X104818785Y-103907261D01*
X104866404Y-103859642D01*
X104914023Y-103764404D01*
X104914023Y-103526309D01*
X104866404Y-103431071D01*
X104818785Y-103383452D01*
X104723547Y-103335833D01*
X104533071Y-103335833D01*
X104437833Y-103383452D01*
X104390214Y-103431071D01*
X104342595Y-103526309D01*
X83530595Y-102954880D02*
X83530595Y-103764404D01*
X83578214Y-103859642D01*
X83625833Y-103907261D01*
X83721071Y-103954880D01*
X83911547Y-103954880D01*
X84006785Y-103907261D01*
X84054404Y-103859642D01*
X84102023Y-103764404D01*
X84102023Y-102954880D01*
X84530595Y-103050119D02*
X84578214Y-103002500D01*
X84673452Y-102954880D01*
X84911547Y-102954880D01*
X85006785Y-103002500D01*
X85054404Y-103050119D01*
X85102023Y-103145357D01*
X85102023Y-103240595D01*
X85054404Y-103383452D01*
X84482976Y-103954880D01*
X85102023Y-103954880D01*
X93182595Y-102954880D02*
X93182595Y-103764404D01*
X93230214Y-103859642D01*
X93277833Y-103907261D01*
X93373071Y-103954880D01*
X93563547Y-103954880D01*
X93658785Y-103907261D01*
X93706404Y-103859642D01*
X93754023Y-103764404D01*
X93754023Y-102954880D01*
X94134976Y-102954880D02*
X94754023Y-102954880D01*
X94420690Y-103335833D01*
X94563547Y-103335833D01*
X94658785Y-103383452D01*
X94706404Y-103431071D01*
X94754023Y-103526309D01*
X94754023Y-103764404D01*
X94706404Y-103859642D01*
X94658785Y-103907261D01*
X94563547Y-103954880D01*
X94277833Y-103954880D01*
X94182595Y-103907261D01*
X94134976Y-103859642D01*
M02*
