%FSLAX45Y45*%
G04 Gerber Fmt 4.5, Leading zero omitted, Abs format (unit mm)*
G04 Created by KiCad (PCBNEW 5.0.2) date Fr 28 Dez 2018 21:47:53 CET*
%MOMM*%
%LPD*%
G01*
G04 APERTURE LIST*
%ADD10C,0.200000*%
%ADD11C,0.300000*%
G04 APERTURE END LIST*
D10*
X11909050Y-3619250D02*
X5152650Y-3619250D01*
X11909050Y-12204450D02*
X11909050Y-3619250D01*
X5152650Y-12204450D02*
X11909050Y-12204450D01*
X5152650Y-3619250D02*
X5152650Y-12204450D01*
D10*
X5234250Y-5758250D02*
X5274250Y-5798250D01*
X5274250Y-5758250D02*
X5234250Y-5798250D01*
X5259650Y-6621850D02*
X5299650Y-6661850D01*
X5299650Y-6621850D02*
X5259650Y-6661850D01*
X5285050Y-8907850D02*
X5325050Y-8947850D01*
X5325050Y-8907850D02*
X5285050Y-8947850D01*
X5285050Y-10177850D02*
X5325050Y-10217850D01*
X5325050Y-10177850D02*
X5285050Y-10217850D01*
X5386650Y-6748850D02*
X5426650Y-6788850D01*
X5426650Y-6748850D02*
X5386650Y-6788850D01*
X5621600Y-8679250D02*
X5661600Y-8719250D01*
X5661600Y-8679250D02*
X5621600Y-8719250D01*
X5716850Y-4945450D02*
X5756850Y-4985450D01*
X5756850Y-4945450D02*
X5716850Y-4985450D01*
X6326450Y-5758250D02*
X6366450Y-5798250D01*
X6366450Y-5758250D02*
X6326450Y-5798250D01*
X6326450Y-6215450D02*
X6366450Y-6255450D01*
X6366450Y-6215450D02*
X6326450Y-6255450D01*
X6585600Y-6489700D02*
X6625600Y-6529700D01*
X6625600Y-6489700D02*
X6585600Y-6529700D01*
X6736000Y-11066850D02*
X6776000Y-11106850D01*
X6776000Y-11066850D02*
X6736000Y-11106850D01*
X6758250Y-5758250D02*
X6798250Y-5798250D01*
X6798250Y-5758250D02*
X6758250Y-5798250D01*
X6759450Y-9008250D02*
X6799450Y-9048250D01*
X6799450Y-9008250D02*
X6759450Y-9048250D01*
X6910650Y-6825050D02*
X6950650Y-6865050D01*
X6950650Y-6825050D02*
X6910650Y-6865050D01*
X7012250Y-10279450D02*
X7052250Y-10319450D01*
X7052250Y-10279450D02*
X7012250Y-10319450D01*
X7012250Y-10589400D02*
X7052250Y-10629400D01*
X7052250Y-10589400D02*
X7012250Y-10629400D01*
X7060300Y-5735600D02*
X7100300Y-5775600D01*
X7100300Y-5735600D02*
X7060300Y-5775600D01*
X7221649Y-6571052D02*
X7261649Y-6611052D01*
X7261649Y-6571052D02*
X7221649Y-6611052D01*
X7342450Y-6393250D02*
X7382450Y-6433250D01*
X7382450Y-6393250D02*
X7342450Y-6433250D01*
X7393250Y-9466649D02*
X7433250Y-9506649D01*
X7433250Y-9466649D02*
X7393250Y-9506649D01*
X7418650Y-7015550D02*
X7458650Y-7055550D01*
X7458650Y-7015550D02*
X7418650Y-7055550D01*
X7444050Y-8628450D02*
X7484050Y-8668450D01*
X7484050Y-8628450D02*
X7444050Y-8668450D01*
X7444050Y-8831650D02*
X7484050Y-8871650D01*
X7484050Y-8831650D02*
X7444050Y-8871650D01*
X7494850Y-6545650D02*
X7534850Y-6585650D01*
X7534850Y-6545650D02*
X7494850Y-6585650D01*
X7571050Y-5707450D02*
X7611050Y-5747450D01*
X7611050Y-5707450D02*
X7571050Y-5747450D01*
X7647250Y-8298250D02*
X7687250Y-8338250D01*
X7687250Y-8298250D02*
X7647250Y-8338250D01*
X7825050Y-7714050D02*
X7865050Y-7754050D01*
X7865050Y-7714050D02*
X7825050Y-7754050D01*
X7825050Y-8044250D02*
X7865050Y-8084250D01*
X7865050Y-8044250D02*
X7825050Y-8084250D01*
X7850450Y-6393250D02*
X7890450Y-6433250D01*
X7890450Y-6393250D02*
X7850450Y-6433250D01*
X7875850Y-7028250D02*
X7915850Y-7068250D01*
X7915850Y-7028250D02*
X7875850Y-7068250D01*
X7875850Y-8298250D02*
X7915850Y-8338250D01*
X7915850Y-8298250D02*
X7875850Y-8338250D01*
X7978752Y-7458748D02*
X8018752Y-7498748D01*
X8018752Y-7458748D02*
X7978752Y-7498748D01*
X8002850Y-9492050D02*
X8042850Y-9532050D01*
X8042850Y-9492050D02*
X8002850Y-9532050D01*
X8002850Y-9492050D02*
X8042850Y-9532050D01*
X8042850Y-9492050D02*
X8002850Y-9532050D01*
X8102867Y-7639433D02*
X8142867Y-7679433D01*
X8142867Y-7639433D02*
X8102867Y-7679433D01*
X8129850Y-6240850D02*
X8169850Y-6280850D01*
X8169850Y-6240850D02*
X8129850Y-6280850D01*
X8155250Y-5707450D02*
X8195250Y-5747450D01*
X8195250Y-5707450D02*
X8155250Y-5747450D01*
X8221900Y-11041450D02*
X8261900Y-11081450D01*
X8261900Y-11041450D02*
X8221900Y-11081450D01*
X8256850Y-8247450D02*
X8296850Y-8287450D01*
X8296850Y-8247450D02*
X8256850Y-8287450D01*
X8383850Y-7104450D02*
X8423850Y-7144450D01*
X8423850Y-7104450D02*
X8383850Y-7144450D01*
X8409250Y-6393250D02*
X8449250Y-6433250D01*
X8449250Y-6393250D02*
X8409250Y-6433250D01*
X8631850Y-5707450D02*
X8671850Y-5747450D01*
X8671850Y-5707450D02*
X8631850Y-5747450D01*
X8891850Y-7104450D02*
X8931850Y-7144450D01*
X8931850Y-7104450D02*
X8891850Y-7144450D01*
X8968050Y-6393250D02*
X9008050Y-6433250D01*
X9008050Y-6393250D02*
X8968050Y-6433250D01*
X8968050Y-9492050D02*
X9008050Y-9532050D01*
X9008050Y-9492050D02*
X8968050Y-9532050D01*
X9145850Y-7536250D02*
X9185850Y-7576250D01*
X9185850Y-7536250D02*
X9145850Y-7576250D01*
X9225200Y-11041450D02*
X9265200Y-11081450D01*
X9265200Y-11041450D02*
X9225200Y-11081450D01*
X9397800Y-8653850D02*
X9437800Y-8693850D01*
X9437800Y-8653850D02*
X9397800Y-8693850D01*
X9399850Y-6977450D02*
X9439850Y-7017450D01*
X9439850Y-6977450D02*
X9399850Y-7017450D01*
X9399850Y-7231450D02*
X9439850Y-7271450D01*
X9439850Y-7231450D02*
X9399850Y-7271450D01*
X9399850Y-7536250D02*
X9439850Y-7576250D01*
X9439850Y-7536250D02*
X9399850Y-7576250D01*
X9730050Y-4894650D02*
X9770050Y-4934650D01*
X9770050Y-4894650D02*
X9730050Y-4934650D01*
X9913000Y-5168900D02*
X9953000Y-5208900D01*
X9953000Y-5168900D02*
X9913000Y-5208900D01*
X9933250Y-6469450D02*
X9973250Y-6509450D01*
X9973250Y-6469450D02*
X9933250Y-6509450D01*
X9984050Y-9492050D02*
X10024050Y-9532050D01*
X10024050Y-9492050D02*
X9984050Y-9532050D01*
X10060250Y-5786799D02*
X10100250Y-5826799D01*
X10100250Y-5786799D02*
X10060250Y-5826799D01*
X10100250Y-5250250D02*
X10140250Y-5290250D01*
X10140250Y-5250250D02*
X10100250Y-5290250D01*
X10212649Y-7663250D02*
X10252649Y-7703250D01*
X10252649Y-7663250D02*
X10212649Y-7703250D01*
X10212650Y-4894650D02*
X10252650Y-4934650D01*
X10252650Y-4894650D02*
X10212650Y-4934650D01*
X10241200Y-11041450D02*
X10281200Y-11081450D01*
X10281200Y-11041450D02*
X10241200Y-11081450D01*
X10365050Y-8933250D02*
X10405050Y-8973250D01*
X10405050Y-8933250D02*
X10365050Y-8973250D01*
X10568250Y-6113850D02*
X10608250Y-6153850D01*
X10608250Y-6113850D02*
X10568250Y-6153850D01*
X10568250Y-6367850D02*
X10608250Y-6407850D01*
X10608250Y-6367850D02*
X10568250Y-6407850D01*
X10619050Y-4716850D02*
X10659050Y-4756850D01*
X10659050Y-4716850D02*
X10619050Y-4756850D01*
X10822250Y-7580851D02*
X10862250Y-7620851D01*
X10862250Y-7580851D02*
X10822250Y-7620851D01*
X10822250Y-8399850D02*
X10862250Y-8439850D01*
X10862250Y-8399850D02*
X10822250Y-8439850D01*
X10923850Y-9492050D02*
X10963850Y-9532050D01*
X10963850Y-9492050D02*
X10923850Y-9532050D01*
X11206400Y-11041450D02*
X11246400Y-11081450D01*
X11246400Y-11041450D02*
X11206400Y-11081450D01*
X11279450Y-4716850D02*
X11319450Y-4756850D01*
X11319450Y-4716850D02*
X11279450Y-4756850D01*
X11533450Y-11041450D02*
X11573450Y-11081450D01*
X11573450Y-11041450D02*
X11533450Y-11081450D01*
X11762050Y-9949250D02*
X11802050Y-9989250D01*
X11802050Y-9949250D02*
X11762050Y-9989250D01*
X11762050Y-10685850D02*
X11802050Y-10725850D01*
X11802050Y-10685850D02*
X11762050Y-10725850D01*
X11762050Y-11041450D02*
X11802050Y-11081450D01*
X11802050Y-11041450D02*
X11762050Y-11081450D01*
X11787450Y-4742250D02*
X11827450Y-4782250D01*
X11827450Y-4742250D02*
X11787450Y-4782250D01*
X11787450Y-5580450D02*
X11827450Y-5620450D01*
X11827450Y-5580450D02*
X11787450Y-5620450D01*
X11787450Y-6367850D02*
X11827450Y-6407850D01*
X11827450Y-6367850D02*
X11787450Y-6407850D01*
X11787450Y-7383850D02*
X11827450Y-7423850D01*
X11827450Y-7383850D02*
X11787450Y-7423850D01*
X11787450Y-8399850D02*
X11827450Y-8439850D01*
X11827450Y-8399850D02*
X11787450Y-8439850D01*
X11787450Y-9187250D02*
X11827450Y-9227250D01*
X11827450Y-9187250D02*
X11787450Y-9227250D01*
X5522850Y-9664450D02*
G75*
G03X5522850Y-9664450I-40000J0D01*
G01*
X5872850Y-9664450D02*
G75*
G03X5872850Y-9664450I-40000J0D01*
G01*
X6093600Y-7232400D02*
G75*
G03X6093600Y-7232400I-40000J0D01*
G01*
X6443600Y-7232400D02*
G75*
G03X6443600Y-7232400I-40000J0D01*
G01*
X11172450Y-7099850D02*
X11172450Y-7199850D01*
X11122450Y-7149850D02*
X11222450Y-7149850D01*
X11172450Y-7353850D02*
X11172450Y-7453850D01*
X11122450Y-7403850D02*
X11222450Y-7403850D01*
X11172450Y-7607850D02*
X11172450Y-7707850D01*
X11122450Y-7657850D02*
X11222450Y-7657850D01*
X11172450Y-7861850D02*
X11172450Y-7961850D01*
X11122450Y-7911850D02*
X11222450Y-7911850D01*
X11172450Y-8115850D02*
X11172450Y-8215850D01*
X11122450Y-8165850D02*
X11222450Y-8165850D01*
X11172450Y-8369850D02*
X11172450Y-8469850D01*
X11122450Y-8419850D02*
X11222450Y-8419850D01*
X11172450Y-8623850D02*
X11172450Y-8723850D01*
X11122450Y-8673850D02*
X11222450Y-8673850D01*
X11426450Y-7099850D02*
X11426450Y-7199850D01*
X11376450Y-7149850D02*
X11476450Y-7149850D01*
X11426450Y-7353850D02*
X11426450Y-7453850D01*
X11376450Y-7403850D02*
X11476450Y-7403850D01*
X11426450Y-7607850D02*
X11426450Y-7707850D01*
X11376450Y-7657850D02*
X11476450Y-7657850D01*
X11426450Y-7861850D02*
X11426450Y-7961850D01*
X11376450Y-7911850D02*
X11476450Y-7911850D01*
X11426450Y-8115850D02*
X11426450Y-8215850D01*
X11376450Y-8165850D02*
X11476450Y-8165850D01*
X11426450Y-8369850D02*
X11426450Y-8469850D01*
X11376450Y-8419850D02*
X11476450Y-8419850D01*
X11426450Y-8623850D02*
X11426450Y-8723850D01*
X11376450Y-8673850D02*
X11476450Y-8673850D01*
X10664050Y-7099850D02*
X10664050Y-7199850D01*
X10614050Y-7149850D02*
X10714050Y-7149850D01*
X10664050Y-7353850D02*
X10664050Y-7453850D01*
X10614050Y-7403850D02*
X10714050Y-7403850D01*
X10664050Y-7607850D02*
X10664050Y-7707850D01*
X10614050Y-7657850D02*
X10714050Y-7657850D01*
X10664050Y-7861850D02*
X10664050Y-7961850D01*
X10614050Y-7911850D02*
X10714050Y-7911850D01*
X10664050Y-8115850D02*
X10664050Y-8215850D01*
X10614050Y-8165850D02*
X10714050Y-8165850D01*
X5736850Y-4086850D02*
X5736850Y-4186850D01*
X5686850Y-4136850D02*
X5786850Y-4136850D01*
X5736850Y-11636850D02*
X5736850Y-11736850D01*
X5686850Y-11686850D02*
X5786850Y-11686850D01*
X6244850Y-4086850D02*
X6244850Y-4186850D01*
X6194850Y-4136850D02*
X6294850Y-4136850D01*
X6244850Y-11636850D02*
X6244850Y-11736850D01*
X6194850Y-11686850D02*
X6294850Y-11686850D01*
X6752850Y-4086850D02*
X6752850Y-4186850D01*
X6702850Y-4136850D02*
X6802850Y-4136850D01*
X6752850Y-11636850D02*
X6752850Y-11736850D01*
X6702850Y-11686850D02*
X6802850Y-11686850D01*
X7260850Y-4086850D02*
X7260850Y-4186850D01*
X7210850Y-4136850D02*
X7310850Y-4136850D01*
X7260850Y-11636850D02*
X7260850Y-11736850D01*
X7210850Y-11686850D02*
X7310850Y-11686850D01*
X7768850Y-4086850D02*
X7768850Y-4186850D01*
X7718850Y-4136850D02*
X7818850Y-4136850D01*
X7768850Y-11636850D02*
X7768850Y-11736850D01*
X7718850Y-11686850D02*
X7818850Y-11686850D01*
X8276850Y-4086850D02*
X8276850Y-4186850D01*
X8226850Y-4136850D02*
X8326850Y-4136850D01*
X8276850Y-11636850D02*
X8276850Y-11736850D01*
X8226850Y-11686850D02*
X8326850Y-11686850D01*
X8784850Y-4086850D02*
X8784850Y-4186850D01*
X8734850Y-4136850D02*
X8834850Y-4136850D01*
X8784850Y-11636850D02*
X8784850Y-11736850D01*
X8734850Y-11686850D02*
X8834850Y-11686850D01*
X9292850Y-4086850D02*
X9292850Y-4186850D01*
X9242850Y-4136850D02*
X9342850Y-4136850D01*
X9292850Y-11636850D02*
X9292850Y-11736850D01*
X9242850Y-11686850D02*
X9342850Y-11686850D01*
X9800850Y-4086850D02*
X9800850Y-4186850D01*
X9750850Y-4136850D02*
X9850850Y-4136850D01*
X9800850Y-11636850D02*
X9800850Y-11736850D01*
X9750850Y-11686850D02*
X9850850Y-11686850D01*
X10308850Y-4086850D02*
X10308850Y-4186850D01*
X10258850Y-4136850D02*
X10358850Y-4136850D01*
X10308850Y-11636850D02*
X10308850Y-11736850D01*
X10258850Y-11686850D02*
X10358850Y-11686850D01*
X10816850Y-4086850D02*
X10816850Y-4186850D01*
X10766850Y-4136850D02*
X10866850Y-4136850D01*
X10816850Y-11636850D02*
X10816850Y-11736850D01*
X10766850Y-11686850D02*
X10866850Y-11686850D01*
X11324850Y-4086850D02*
X11324850Y-4186850D01*
X11274850Y-4136850D02*
X11374850Y-4136850D01*
X11324850Y-11636850D02*
X11324850Y-11736850D01*
X11274850Y-11686850D02*
X11374850Y-11686850D01*
D11*
X5429078Y-12680164D02*
X5429078Y-12380164D01*
X5500507Y-12380164D01*
X5543364Y-12394450D01*
X5571936Y-12423021D01*
X5586221Y-12451593D01*
X5600507Y-12508736D01*
X5600507Y-12551593D01*
X5586221Y-12608736D01*
X5571936Y-12637307D01*
X5543364Y-12665879D01*
X5500507Y-12680164D01*
X5429078Y-12680164D01*
X5729078Y-12680164D02*
X5729078Y-12480164D01*
X5729078Y-12537307D02*
X5743364Y-12508736D01*
X5757650Y-12494450D01*
X5786221Y-12480164D01*
X5814793Y-12480164D01*
X5914793Y-12680164D02*
X5914793Y-12480164D01*
X5914793Y-12380164D02*
X5900507Y-12394450D01*
X5914793Y-12408736D01*
X5929078Y-12394450D01*
X5914793Y-12380164D01*
X5914793Y-12408736D01*
X6100507Y-12680164D02*
X6071936Y-12665879D01*
X6057650Y-12637307D01*
X6057650Y-12380164D01*
X6257650Y-12680164D02*
X6229078Y-12665879D01*
X6214793Y-12637307D01*
X6214793Y-12380164D01*
X6600507Y-12680164D02*
X6600507Y-12380164D01*
X6700507Y-12594450D01*
X6800507Y-12380164D01*
X6800507Y-12680164D01*
X7071936Y-12680164D02*
X7071936Y-12523021D01*
X7057650Y-12494450D01*
X7029078Y-12480164D01*
X6971936Y-12480164D01*
X6943364Y-12494450D01*
X7071936Y-12665879D02*
X7043364Y-12680164D01*
X6971936Y-12680164D01*
X6943364Y-12665879D01*
X6929078Y-12637307D01*
X6929078Y-12608736D01*
X6943364Y-12580164D01*
X6971936Y-12565879D01*
X7043364Y-12565879D01*
X7071936Y-12551593D01*
X7214793Y-12480164D02*
X7214793Y-12780164D01*
X7214793Y-12494450D02*
X7243364Y-12480164D01*
X7300507Y-12480164D01*
X7329078Y-12494450D01*
X7343364Y-12508736D01*
X7357650Y-12537307D01*
X7357650Y-12623021D01*
X7343364Y-12651593D01*
X7329078Y-12665879D01*
X7300507Y-12680164D01*
X7243364Y-12680164D01*
X7214793Y-12665879D01*
X7486221Y-12651593D02*
X7500507Y-12665879D01*
X7486221Y-12680164D01*
X7471936Y-12665879D01*
X7486221Y-12651593D01*
X7486221Y-12680164D01*
X7486221Y-12494450D02*
X7500507Y-12508736D01*
X7486221Y-12523021D01*
X7471936Y-12508736D01*
X7486221Y-12494450D01*
X7486221Y-12523021D01*
X5102650Y-13154450D02*
X5142650Y-13194450D01*
X5142650Y-13154450D02*
X5102650Y-13194450D01*
X5486221Y-13010164D02*
X5514793Y-13010164D01*
X5543364Y-13024450D01*
X5557650Y-13038736D01*
X5571936Y-13067307D01*
X5586221Y-13124450D01*
X5586221Y-13195879D01*
X5571936Y-13253021D01*
X5557650Y-13281593D01*
X5543364Y-13295879D01*
X5514793Y-13310164D01*
X5486221Y-13310164D01*
X5457650Y-13295879D01*
X5443364Y-13281593D01*
X5429078Y-13253021D01*
X5414793Y-13195879D01*
X5414793Y-13124450D01*
X5429078Y-13067307D01*
X5443364Y-13038736D01*
X5457650Y-13024450D01*
X5486221Y-13010164D01*
X5714793Y-13281593D02*
X5729078Y-13295879D01*
X5714793Y-13310164D01*
X5700507Y-13295879D01*
X5714793Y-13281593D01*
X5714793Y-13310164D01*
X5986221Y-13110164D02*
X5986221Y-13310164D01*
X5914793Y-12995879D02*
X5843364Y-13210164D01*
X6029078Y-13210164D01*
X6200507Y-13010164D02*
X6229078Y-13010164D01*
X6257650Y-13024450D01*
X6271936Y-13038736D01*
X6286221Y-13067307D01*
X6300507Y-13124450D01*
X6300507Y-13195879D01*
X6286221Y-13253021D01*
X6271936Y-13281593D01*
X6257650Y-13295879D01*
X6229078Y-13310164D01*
X6200507Y-13310164D01*
X6171936Y-13295879D01*
X6157650Y-13281593D01*
X6143364Y-13253021D01*
X6129078Y-13195879D01*
X6129078Y-13124450D01*
X6143364Y-13067307D01*
X6157650Y-13038736D01*
X6171936Y-13024450D01*
X6200507Y-13010164D01*
X6429078Y-13310164D02*
X6429078Y-13110164D01*
X6429078Y-13138736D02*
X6443364Y-13124450D01*
X6471936Y-13110164D01*
X6514793Y-13110164D01*
X6543364Y-13124450D01*
X6557650Y-13153021D01*
X6557650Y-13310164D01*
X6557650Y-13153021D02*
X6571936Y-13124450D01*
X6600507Y-13110164D01*
X6643364Y-13110164D01*
X6671936Y-13124450D01*
X6686221Y-13153021D01*
X6686221Y-13310164D01*
X6829078Y-13310164D02*
X6829078Y-13110164D01*
X6829078Y-13138736D02*
X6843364Y-13124450D01*
X6871936Y-13110164D01*
X6914793Y-13110164D01*
X6943364Y-13124450D01*
X6957650Y-13153021D01*
X6957650Y-13310164D01*
X6957650Y-13153021D02*
X6971936Y-13124450D01*
X7000507Y-13110164D01*
X7043364Y-13110164D01*
X7071936Y-13124450D01*
X7086221Y-13153021D01*
X7086221Y-13310164D01*
X7671936Y-12995879D02*
X7414793Y-13381593D01*
X8057650Y-13010164D02*
X8086221Y-13010164D01*
X8114793Y-13024450D01*
X8129078Y-13038736D01*
X8143364Y-13067307D01*
X8157650Y-13124450D01*
X8157650Y-13195879D01*
X8143364Y-13253021D01*
X8129078Y-13281593D01*
X8114793Y-13295879D01*
X8086221Y-13310164D01*
X8057650Y-13310164D01*
X8029078Y-13295879D01*
X8014793Y-13281593D01*
X8000507Y-13253021D01*
X7986221Y-13195879D01*
X7986221Y-13124450D01*
X8000507Y-13067307D01*
X8014793Y-13038736D01*
X8029078Y-13024450D01*
X8057650Y-13010164D01*
X8286221Y-13281593D02*
X8300507Y-13295879D01*
X8286221Y-13310164D01*
X8271936Y-13295879D01*
X8286221Y-13281593D01*
X8286221Y-13310164D01*
X8486221Y-13010164D02*
X8514793Y-13010164D01*
X8543364Y-13024450D01*
X8557650Y-13038736D01*
X8571936Y-13067307D01*
X8586221Y-13124450D01*
X8586221Y-13195879D01*
X8571936Y-13253021D01*
X8557650Y-13281593D01*
X8543364Y-13295879D01*
X8514793Y-13310164D01*
X8486221Y-13310164D01*
X8457650Y-13295879D01*
X8443364Y-13281593D01*
X8429078Y-13253021D01*
X8414793Y-13195879D01*
X8414793Y-13124450D01*
X8429078Y-13067307D01*
X8443364Y-13038736D01*
X8457650Y-13024450D01*
X8486221Y-13010164D01*
X8871936Y-13310164D02*
X8700507Y-13310164D01*
X8786221Y-13310164D02*
X8786221Y-13010164D01*
X8757650Y-13053021D01*
X8729078Y-13081593D01*
X8700507Y-13095879D01*
X9129078Y-13010164D02*
X9071936Y-13010164D01*
X9043364Y-13024450D01*
X9029078Y-13038736D01*
X9000507Y-13081593D01*
X8986221Y-13138736D01*
X8986221Y-13253021D01*
X9000507Y-13281593D01*
X9014793Y-13295879D01*
X9043364Y-13310164D01*
X9100507Y-13310164D01*
X9129078Y-13295879D01*
X9143364Y-13281593D01*
X9157650Y-13253021D01*
X9157650Y-13181593D01*
X9143364Y-13153021D01*
X9129078Y-13138736D01*
X9100507Y-13124450D01*
X9043364Y-13124450D01*
X9014793Y-13138736D01*
X9000507Y-13153021D01*
X8986221Y-13181593D01*
X9271936Y-13010164D02*
X9271936Y-13067307D01*
X9386221Y-13010164D02*
X9386221Y-13067307D01*
X9829078Y-13424450D02*
X9814793Y-13410164D01*
X9786221Y-13367307D01*
X9771936Y-13338736D01*
X9757650Y-13295879D01*
X9743364Y-13224450D01*
X9743364Y-13167307D01*
X9757650Y-13095879D01*
X9771936Y-13053021D01*
X9786221Y-13024450D01*
X9814793Y-12981593D01*
X9829078Y-12967307D01*
X9914793Y-13010164D02*
X10114793Y-13010164D01*
X9986221Y-13310164D01*
X10243364Y-13310164D02*
X10300507Y-13310164D01*
X10329078Y-13295879D01*
X10343364Y-13281593D01*
X10371936Y-13238736D01*
X10386221Y-13181593D01*
X10386221Y-13067307D01*
X10371936Y-13038736D01*
X10357650Y-13024450D01*
X10329078Y-13010164D01*
X10271936Y-13010164D01*
X10243364Y-13024450D01*
X10229078Y-13038736D01*
X10214793Y-13067307D01*
X10214793Y-13138736D01*
X10229078Y-13167307D01*
X10243364Y-13181593D01*
X10271936Y-13195879D01*
X10329078Y-13195879D01*
X10357650Y-13181593D01*
X10371936Y-13167307D01*
X10386221Y-13138736D01*
X10743364Y-13310164D02*
X10743364Y-13010164D01*
X10871936Y-13310164D02*
X10871936Y-13153021D01*
X10857650Y-13124450D01*
X10829078Y-13110164D01*
X10786221Y-13110164D01*
X10757650Y-13124450D01*
X10743364Y-13138736D01*
X11057650Y-13310164D02*
X11029078Y-13295879D01*
X11014793Y-13281593D01*
X11000507Y-13253021D01*
X11000507Y-13167307D01*
X11014793Y-13138736D01*
X11029078Y-13124450D01*
X11057650Y-13110164D01*
X11100507Y-13110164D01*
X11129078Y-13124450D01*
X11143364Y-13138736D01*
X11157650Y-13167307D01*
X11157650Y-13253021D01*
X11143364Y-13281593D01*
X11129078Y-13295879D01*
X11100507Y-13310164D01*
X11057650Y-13310164D01*
X11329078Y-13310164D02*
X11300507Y-13295879D01*
X11286221Y-13267307D01*
X11286221Y-13010164D01*
X11557650Y-13295879D02*
X11529078Y-13310164D01*
X11471936Y-13310164D01*
X11443364Y-13295879D01*
X11429078Y-13267307D01*
X11429078Y-13153021D01*
X11443364Y-13124450D01*
X11471936Y-13110164D01*
X11529078Y-13110164D01*
X11557650Y-13124450D01*
X11571936Y-13153021D01*
X11571936Y-13181593D01*
X11429078Y-13210164D01*
X11686221Y-13295879D02*
X11714793Y-13310164D01*
X11771936Y-13310164D01*
X11800507Y-13295879D01*
X11814793Y-13267307D01*
X11814793Y-13253021D01*
X11800507Y-13224450D01*
X11771936Y-13210164D01*
X11729078Y-13210164D01*
X11700507Y-13195879D01*
X11686221Y-13167307D01*
X11686221Y-13153021D01*
X11700507Y-13124450D01*
X11729078Y-13110164D01*
X11771936Y-13110164D01*
X11800507Y-13124450D01*
X11914793Y-13424450D02*
X11929078Y-13410164D01*
X11957650Y-13367307D01*
X11971936Y-13338736D01*
X11986221Y-13295879D01*
X12000507Y-13224450D01*
X12000507Y-13167307D01*
X11986221Y-13095879D01*
X11971936Y-13053021D01*
X11957650Y-13024450D01*
X11929078Y-12981593D01*
X11914793Y-12967307D01*
X5142650Y-13570450D02*
G75*
G03X5142650Y-13570450I-40000J0D01*
G01*
X5486221Y-13406164D02*
X5514793Y-13406164D01*
X5543364Y-13420450D01*
X5557650Y-13434736D01*
X5571936Y-13463307D01*
X5586221Y-13520450D01*
X5586221Y-13591879D01*
X5571936Y-13649021D01*
X5557650Y-13677593D01*
X5543364Y-13691879D01*
X5514793Y-13706164D01*
X5486221Y-13706164D01*
X5457650Y-13691879D01*
X5443364Y-13677593D01*
X5429078Y-13649021D01*
X5414793Y-13591879D01*
X5414793Y-13520450D01*
X5429078Y-13463307D01*
X5443364Y-13434736D01*
X5457650Y-13420450D01*
X5486221Y-13406164D01*
X5714793Y-13677593D02*
X5729078Y-13691879D01*
X5714793Y-13706164D01*
X5700507Y-13691879D01*
X5714793Y-13677593D01*
X5714793Y-13706164D01*
X5900507Y-13534736D02*
X5871936Y-13520450D01*
X5857650Y-13506164D01*
X5843364Y-13477593D01*
X5843364Y-13463307D01*
X5857650Y-13434736D01*
X5871936Y-13420450D01*
X5900507Y-13406164D01*
X5957650Y-13406164D01*
X5986221Y-13420450D01*
X6000507Y-13434736D01*
X6014793Y-13463307D01*
X6014793Y-13477593D01*
X6000507Y-13506164D01*
X5986221Y-13520450D01*
X5957650Y-13534736D01*
X5900507Y-13534736D01*
X5871936Y-13549021D01*
X5857650Y-13563307D01*
X5843364Y-13591879D01*
X5843364Y-13649021D01*
X5857650Y-13677593D01*
X5871936Y-13691879D01*
X5900507Y-13706164D01*
X5957650Y-13706164D01*
X5986221Y-13691879D01*
X6000507Y-13677593D01*
X6014793Y-13649021D01*
X6014793Y-13591879D01*
X6000507Y-13563307D01*
X5986221Y-13549021D01*
X5957650Y-13534736D01*
X6200507Y-13406164D02*
X6229078Y-13406164D01*
X6257650Y-13420450D01*
X6271936Y-13434736D01*
X6286221Y-13463307D01*
X6300507Y-13520450D01*
X6300507Y-13591879D01*
X6286221Y-13649021D01*
X6271936Y-13677593D01*
X6257650Y-13691879D01*
X6229078Y-13706164D01*
X6200507Y-13706164D01*
X6171936Y-13691879D01*
X6157650Y-13677593D01*
X6143364Y-13649021D01*
X6129078Y-13591879D01*
X6129078Y-13520450D01*
X6143364Y-13463307D01*
X6157650Y-13434736D01*
X6171936Y-13420450D01*
X6200507Y-13406164D01*
X6429078Y-13706164D02*
X6429078Y-13506164D01*
X6429078Y-13534736D02*
X6443364Y-13520450D01*
X6471936Y-13506164D01*
X6514793Y-13506164D01*
X6543364Y-13520450D01*
X6557650Y-13549021D01*
X6557650Y-13706164D01*
X6557650Y-13549021D02*
X6571936Y-13520450D01*
X6600507Y-13506164D01*
X6643364Y-13506164D01*
X6671936Y-13520450D01*
X6686221Y-13549021D01*
X6686221Y-13706164D01*
X6829078Y-13706164D02*
X6829078Y-13506164D01*
X6829078Y-13534736D02*
X6843364Y-13520450D01*
X6871936Y-13506164D01*
X6914793Y-13506164D01*
X6943364Y-13520450D01*
X6957650Y-13549021D01*
X6957650Y-13706164D01*
X6957650Y-13549021D02*
X6971936Y-13520450D01*
X7000507Y-13506164D01*
X7043364Y-13506164D01*
X7071936Y-13520450D01*
X7086221Y-13549021D01*
X7086221Y-13706164D01*
X7671936Y-13391879D02*
X7414793Y-13777593D01*
X8057650Y-13406164D02*
X8086221Y-13406164D01*
X8114793Y-13420450D01*
X8129078Y-13434736D01*
X8143364Y-13463307D01*
X8157650Y-13520450D01*
X8157650Y-13591879D01*
X8143364Y-13649021D01*
X8129078Y-13677593D01*
X8114793Y-13691879D01*
X8086221Y-13706164D01*
X8057650Y-13706164D01*
X8029078Y-13691879D01*
X8014793Y-13677593D01*
X8000507Y-13649021D01*
X7986221Y-13591879D01*
X7986221Y-13520450D01*
X8000507Y-13463307D01*
X8014793Y-13434736D01*
X8029078Y-13420450D01*
X8057650Y-13406164D01*
X8286221Y-13677593D02*
X8300507Y-13691879D01*
X8286221Y-13706164D01*
X8271936Y-13691879D01*
X8286221Y-13677593D01*
X8286221Y-13706164D01*
X8486221Y-13406164D02*
X8514793Y-13406164D01*
X8543364Y-13420450D01*
X8557650Y-13434736D01*
X8571936Y-13463307D01*
X8586221Y-13520450D01*
X8586221Y-13591879D01*
X8571936Y-13649021D01*
X8557650Y-13677593D01*
X8543364Y-13691879D01*
X8514793Y-13706164D01*
X8486221Y-13706164D01*
X8457650Y-13691879D01*
X8443364Y-13677593D01*
X8429078Y-13649021D01*
X8414793Y-13591879D01*
X8414793Y-13520450D01*
X8429078Y-13463307D01*
X8443364Y-13434736D01*
X8457650Y-13420450D01*
X8486221Y-13406164D01*
X8686221Y-13406164D02*
X8871936Y-13406164D01*
X8771936Y-13520450D01*
X8814793Y-13520450D01*
X8843364Y-13534736D01*
X8857650Y-13549021D01*
X8871936Y-13577593D01*
X8871936Y-13649021D01*
X8857650Y-13677593D01*
X8843364Y-13691879D01*
X8814793Y-13706164D01*
X8729078Y-13706164D01*
X8700507Y-13691879D01*
X8686221Y-13677593D01*
X9157650Y-13706164D02*
X8986221Y-13706164D01*
X9071936Y-13706164D02*
X9071936Y-13406164D01*
X9043364Y-13449021D01*
X9014793Y-13477593D01*
X8986221Y-13491879D01*
X9271936Y-13406164D02*
X9271936Y-13463307D01*
X9386221Y-13406164D02*
X9386221Y-13463307D01*
X9829078Y-13820450D02*
X9814793Y-13806164D01*
X9786221Y-13763307D01*
X9771936Y-13734736D01*
X9757650Y-13691879D01*
X9743364Y-13620450D01*
X9743364Y-13563307D01*
X9757650Y-13491879D01*
X9771936Y-13449021D01*
X9786221Y-13420450D01*
X9814793Y-13377593D01*
X9829078Y-13363307D01*
X10071936Y-13506164D02*
X10071936Y-13706164D01*
X10000507Y-13391879D02*
X9929078Y-13606164D01*
X10114793Y-13606164D01*
X10457650Y-13706164D02*
X10457650Y-13406164D01*
X10586221Y-13706164D02*
X10586221Y-13549021D01*
X10571936Y-13520450D01*
X10543364Y-13506164D01*
X10500507Y-13506164D01*
X10471936Y-13520450D01*
X10457650Y-13534736D01*
X10771936Y-13706164D02*
X10743364Y-13691879D01*
X10729078Y-13677593D01*
X10714793Y-13649021D01*
X10714793Y-13563307D01*
X10729078Y-13534736D01*
X10743364Y-13520450D01*
X10771936Y-13506164D01*
X10814793Y-13506164D01*
X10843364Y-13520450D01*
X10857650Y-13534736D01*
X10871936Y-13563307D01*
X10871936Y-13649021D01*
X10857650Y-13677593D01*
X10843364Y-13691879D01*
X10814793Y-13706164D01*
X10771936Y-13706164D01*
X11043364Y-13706164D02*
X11014793Y-13691879D01*
X11000507Y-13663307D01*
X11000507Y-13406164D01*
X11271936Y-13691879D02*
X11243364Y-13706164D01*
X11186221Y-13706164D01*
X11157650Y-13691879D01*
X11143364Y-13663307D01*
X11143364Y-13549021D01*
X11157650Y-13520450D01*
X11186221Y-13506164D01*
X11243364Y-13506164D01*
X11271936Y-13520450D01*
X11286221Y-13549021D01*
X11286221Y-13577593D01*
X11143364Y-13606164D01*
X11400507Y-13691879D02*
X11429078Y-13706164D01*
X11486221Y-13706164D01*
X11514793Y-13691879D01*
X11529078Y-13663307D01*
X11529078Y-13649021D01*
X11514793Y-13620450D01*
X11486221Y-13606164D01*
X11443364Y-13606164D01*
X11414793Y-13591879D01*
X11400507Y-13563307D01*
X11400507Y-13549021D01*
X11414793Y-13520450D01*
X11443364Y-13506164D01*
X11486221Y-13506164D01*
X11514793Y-13520450D01*
X11629078Y-13820450D02*
X11643364Y-13806164D01*
X11671936Y-13763307D01*
X11686221Y-13734736D01*
X11700507Y-13691879D01*
X11714793Y-13620450D01*
X11714793Y-13563307D01*
X11700507Y-13491879D01*
X11686221Y-13449021D01*
X11671936Y-13420450D01*
X11643364Y-13377593D01*
X11629078Y-13363307D01*
X5092650Y-13916450D02*
X5092650Y-14016450D01*
X5042650Y-13966450D02*
X5142650Y-13966450D01*
X5586221Y-14102164D02*
X5414793Y-14102164D01*
X5500507Y-14102164D02*
X5500507Y-13802164D01*
X5471936Y-13845021D01*
X5443364Y-13873593D01*
X5414793Y-13887879D01*
X5714793Y-14073593D02*
X5729078Y-14087879D01*
X5714793Y-14102164D01*
X5700507Y-14087879D01*
X5714793Y-14073593D01*
X5714793Y-14102164D01*
X5914793Y-13802164D02*
X5943364Y-13802164D01*
X5971936Y-13816450D01*
X5986221Y-13830736D01*
X6000507Y-13859307D01*
X6014793Y-13916450D01*
X6014793Y-13987879D01*
X6000507Y-14045021D01*
X5986221Y-14073593D01*
X5971936Y-14087879D01*
X5943364Y-14102164D01*
X5914793Y-14102164D01*
X5886221Y-14087879D01*
X5871936Y-14073593D01*
X5857650Y-14045021D01*
X5843364Y-13987879D01*
X5843364Y-13916450D01*
X5857650Y-13859307D01*
X5871936Y-13830736D01*
X5886221Y-13816450D01*
X5914793Y-13802164D01*
X6200507Y-13802164D02*
X6229078Y-13802164D01*
X6257650Y-13816450D01*
X6271936Y-13830736D01*
X6286221Y-13859307D01*
X6300507Y-13916450D01*
X6300507Y-13987879D01*
X6286221Y-14045021D01*
X6271936Y-14073593D01*
X6257650Y-14087879D01*
X6229078Y-14102164D01*
X6200507Y-14102164D01*
X6171936Y-14087879D01*
X6157650Y-14073593D01*
X6143364Y-14045021D01*
X6129078Y-13987879D01*
X6129078Y-13916450D01*
X6143364Y-13859307D01*
X6157650Y-13830736D01*
X6171936Y-13816450D01*
X6200507Y-13802164D01*
X6429078Y-14102164D02*
X6429078Y-13902164D01*
X6429078Y-13930736D02*
X6443364Y-13916450D01*
X6471936Y-13902164D01*
X6514793Y-13902164D01*
X6543364Y-13916450D01*
X6557650Y-13945021D01*
X6557650Y-14102164D01*
X6557650Y-13945021D02*
X6571936Y-13916450D01*
X6600507Y-13902164D01*
X6643364Y-13902164D01*
X6671936Y-13916450D01*
X6686221Y-13945021D01*
X6686221Y-14102164D01*
X6829078Y-14102164D02*
X6829078Y-13902164D01*
X6829078Y-13930736D02*
X6843364Y-13916450D01*
X6871936Y-13902164D01*
X6914793Y-13902164D01*
X6943364Y-13916450D01*
X6957650Y-13945021D01*
X6957650Y-14102164D01*
X6957650Y-13945021D02*
X6971936Y-13916450D01*
X7000507Y-13902164D01*
X7043364Y-13902164D01*
X7071936Y-13916450D01*
X7086221Y-13945021D01*
X7086221Y-14102164D01*
X7671936Y-13787879D02*
X7414793Y-14173593D01*
X8057650Y-13802164D02*
X8086221Y-13802164D01*
X8114793Y-13816450D01*
X8129078Y-13830736D01*
X8143364Y-13859307D01*
X8157650Y-13916450D01*
X8157650Y-13987879D01*
X8143364Y-14045021D01*
X8129078Y-14073593D01*
X8114793Y-14087879D01*
X8086221Y-14102164D01*
X8057650Y-14102164D01*
X8029078Y-14087879D01*
X8014793Y-14073593D01*
X8000507Y-14045021D01*
X7986221Y-13987879D01*
X7986221Y-13916450D01*
X8000507Y-13859307D01*
X8014793Y-13830736D01*
X8029078Y-13816450D01*
X8057650Y-13802164D01*
X8286221Y-14073593D02*
X8300507Y-14087879D01*
X8286221Y-14102164D01*
X8271936Y-14087879D01*
X8286221Y-14073593D01*
X8286221Y-14102164D01*
X8486221Y-13802164D02*
X8514793Y-13802164D01*
X8543364Y-13816450D01*
X8557650Y-13830736D01*
X8571936Y-13859307D01*
X8586221Y-13916450D01*
X8586221Y-13987879D01*
X8571936Y-14045021D01*
X8557650Y-14073593D01*
X8543364Y-14087879D01*
X8514793Y-14102164D01*
X8486221Y-14102164D01*
X8457650Y-14087879D01*
X8443364Y-14073593D01*
X8429078Y-14045021D01*
X8414793Y-13987879D01*
X8414793Y-13916450D01*
X8429078Y-13859307D01*
X8443364Y-13830736D01*
X8457650Y-13816450D01*
X8486221Y-13802164D01*
X8686221Y-13802164D02*
X8871936Y-13802164D01*
X8771936Y-13916450D01*
X8814793Y-13916450D01*
X8843364Y-13930736D01*
X8857650Y-13945021D01*
X8871936Y-13973593D01*
X8871936Y-14045021D01*
X8857650Y-14073593D01*
X8843364Y-14087879D01*
X8814793Y-14102164D01*
X8729078Y-14102164D01*
X8700507Y-14087879D01*
X8686221Y-14073593D01*
X9014793Y-14102164D02*
X9071936Y-14102164D01*
X9100507Y-14087879D01*
X9114793Y-14073593D01*
X9143364Y-14030736D01*
X9157650Y-13973593D01*
X9157650Y-13859307D01*
X9143364Y-13830736D01*
X9129078Y-13816450D01*
X9100507Y-13802164D01*
X9043364Y-13802164D01*
X9014793Y-13816450D01*
X9000507Y-13830736D01*
X8986221Y-13859307D01*
X8986221Y-13930736D01*
X9000507Y-13959307D01*
X9014793Y-13973593D01*
X9043364Y-13987879D01*
X9100507Y-13987879D01*
X9129078Y-13973593D01*
X9143364Y-13959307D01*
X9157650Y-13930736D01*
X9271936Y-13802164D02*
X9271936Y-13859307D01*
X9386221Y-13802164D02*
X9386221Y-13859307D01*
X9829078Y-14216450D02*
X9814793Y-14202164D01*
X9786221Y-14159307D01*
X9771936Y-14130736D01*
X9757650Y-14087879D01*
X9743364Y-14016450D01*
X9743364Y-13959307D01*
X9757650Y-13887879D01*
X9771936Y-13845021D01*
X9786221Y-13816450D01*
X9814793Y-13773593D01*
X9829078Y-13759307D01*
X10071936Y-13902164D02*
X10071936Y-14102164D01*
X10000507Y-13787879D02*
X9929078Y-14002164D01*
X10114793Y-14002164D01*
X10200507Y-13802164D02*
X10386221Y-13802164D01*
X10286221Y-13916450D01*
X10329078Y-13916450D01*
X10357650Y-13930736D01*
X10371936Y-13945021D01*
X10386221Y-13973593D01*
X10386221Y-14045021D01*
X10371936Y-14073593D01*
X10357650Y-14087879D01*
X10329078Y-14102164D01*
X10243364Y-14102164D01*
X10214793Y-14087879D01*
X10200507Y-14073593D01*
X10743364Y-14102164D02*
X10743364Y-13802164D01*
X10871936Y-14102164D02*
X10871936Y-13945021D01*
X10857650Y-13916450D01*
X10829078Y-13902164D01*
X10786221Y-13902164D01*
X10757650Y-13916450D01*
X10743364Y-13930736D01*
X11057650Y-14102164D02*
X11029078Y-14087879D01*
X11014793Y-14073593D01*
X11000507Y-14045021D01*
X11000507Y-13959307D01*
X11014793Y-13930736D01*
X11029078Y-13916450D01*
X11057650Y-13902164D01*
X11100507Y-13902164D01*
X11129078Y-13916450D01*
X11143364Y-13930736D01*
X11157650Y-13959307D01*
X11157650Y-14045021D01*
X11143364Y-14073593D01*
X11129078Y-14087879D01*
X11100507Y-14102164D01*
X11057650Y-14102164D01*
X11329078Y-14102164D02*
X11300507Y-14087879D01*
X11286221Y-14059307D01*
X11286221Y-13802164D01*
X11557650Y-14087879D02*
X11529078Y-14102164D01*
X11471936Y-14102164D01*
X11443364Y-14087879D01*
X11429078Y-14059307D01*
X11429078Y-13945021D01*
X11443364Y-13916450D01*
X11471936Y-13902164D01*
X11529078Y-13902164D01*
X11557650Y-13916450D01*
X11571936Y-13945021D01*
X11571936Y-13973593D01*
X11429078Y-14002164D01*
X11686221Y-14087879D02*
X11714793Y-14102164D01*
X11771936Y-14102164D01*
X11800507Y-14087879D01*
X11814793Y-14059307D01*
X11814793Y-14045021D01*
X11800507Y-14016450D01*
X11771936Y-14002164D01*
X11729078Y-14002164D01*
X11700507Y-13987879D01*
X11686221Y-13959307D01*
X11686221Y-13945021D01*
X11700507Y-13916450D01*
X11729078Y-13902164D01*
X11771936Y-13902164D01*
X11800507Y-13916450D01*
X11914793Y-14216450D02*
X11929078Y-14202164D01*
X11957650Y-14159307D01*
X11971936Y-14130736D01*
X11986221Y-14087879D01*
X12000507Y-14016450D01*
X12000507Y-13959307D01*
X11986221Y-13887879D01*
X11971936Y-13845021D01*
X11957650Y-13816450D01*
X11929078Y-13773593D01*
X11914793Y-13759307D01*
M02*
