G04 #@! TF.GenerationSoftware,KiCad,Pcbnew,5.0.2*
G04 #@! TF.CreationDate,2018-12-28T21:36:43+01:00*
G04 #@! TF.ProjectId,esp32control,65737033-3263-46f6-9e74-726f6c2e6b69,rev?*
G04 #@! TF.SameCoordinates,Original*
G04 #@! TF.FileFunction,Soldermask,Bot*
G04 #@! TF.FilePolarity,Negative*
%FSLAX46Y46*%
G04 Gerber Fmt 4.6, Leading zero omitted, Abs format (unit mm)*
G04 Created by KiCad (PCBNEW 5.0.2) date Fr 28 Dez 2018 21:36:43 CET*
%MOMM*%
%LPD*%
G01*
G04 APERTURE LIST*
%ADD10C,0.100000*%
G04 APERTURE END LIST*
D10*
G36*
X57544931Y-115681522D02*
X57714576Y-115732984D01*
X57870936Y-115816559D01*
X58007975Y-115929025D01*
X58120444Y-116066067D01*
X58204015Y-116222419D01*
X58255478Y-116392068D01*
X58268500Y-116524289D01*
X58268500Y-117212710D01*
X58255478Y-117344931D01*
X58204016Y-117514576D01*
X58204014Y-117514581D01*
X58134673Y-117644309D01*
X58120441Y-117670936D01*
X58007975Y-117807975D01*
X57870933Y-117920444D01*
X57714581Y-118004015D01*
X57544932Y-118055478D01*
X57368500Y-118072854D01*
X57192069Y-118055478D01*
X57022420Y-118004015D01*
X56866068Y-117920444D01*
X56729026Y-117807975D01*
X56616557Y-117670933D01*
X56532986Y-117514581D01*
X56481522Y-117344932D01*
X56468500Y-117212711D01*
X56468500Y-116524290D01*
X56481522Y-116392069D01*
X56532984Y-116222424D01*
X56616559Y-116066064D01*
X56729025Y-115929025D01*
X56866067Y-115816556D01*
X57022419Y-115732985D01*
X57192068Y-115681522D01*
X57368500Y-115664146D01*
X57544931Y-115681522D01*
X57544931Y-115681522D01*
G37*
G36*
X62624931Y-115681522D02*
X62794576Y-115732984D01*
X62950936Y-115816559D01*
X63087975Y-115929025D01*
X63200444Y-116066067D01*
X63284015Y-116222419D01*
X63335478Y-116392068D01*
X63348500Y-116524289D01*
X63348500Y-117212710D01*
X63335478Y-117344931D01*
X63284016Y-117514576D01*
X63284014Y-117514581D01*
X63214673Y-117644309D01*
X63200441Y-117670936D01*
X63087975Y-117807975D01*
X62950933Y-117920444D01*
X62794581Y-118004015D01*
X62624932Y-118055478D01*
X62448500Y-118072854D01*
X62272069Y-118055478D01*
X62102420Y-118004015D01*
X61946068Y-117920444D01*
X61809026Y-117807975D01*
X61696557Y-117670933D01*
X61612986Y-117514581D01*
X61561522Y-117344932D01*
X61548500Y-117212711D01*
X61548500Y-116524290D01*
X61561522Y-116392069D01*
X61612984Y-116222424D01*
X61696559Y-116066064D01*
X61809025Y-115929025D01*
X61946067Y-115816556D01*
X62102419Y-115732985D01*
X62272068Y-115681522D01*
X62448500Y-115664146D01*
X62624931Y-115681522D01*
X62624931Y-115681522D01*
G37*
G36*
X67704931Y-115681522D02*
X67874576Y-115732984D01*
X68030936Y-115816559D01*
X68167975Y-115929025D01*
X68280444Y-116066067D01*
X68364015Y-116222419D01*
X68415478Y-116392068D01*
X68428500Y-116524289D01*
X68428500Y-117212710D01*
X68415478Y-117344931D01*
X68364016Y-117514576D01*
X68364014Y-117514581D01*
X68294673Y-117644309D01*
X68280441Y-117670936D01*
X68167975Y-117807975D01*
X68030933Y-117920444D01*
X67874581Y-118004015D01*
X67704932Y-118055478D01*
X67528500Y-118072854D01*
X67352069Y-118055478D01*
X67182420Y-118004015D01*
X67026068Y-117920444D01*
X66889026Y-117807975D01*
X66776557Y-117670933D01*
X66692986Y-117514581D01*
X66641522Y-117344932D01*
X66628500Y-117212711D01*
X66628500Y-116524290D01*
X66641522Y-116392069D01*
X66692984Y-116222424D01*
X66776559Y-116066064D01*
X66889025Y-115929025D01*
X67026067Y-115816556D01*
X67182419Y-115732985D01*
X67352068Y-115681522D01*
X67528500Y-115664146D01*
X67704931Y-115681522D01*
X67704931Y-115681522D01*
G37*
G36*
X72784931Y-115681522D02*
X72954576Y-115732984D01*
X73110936Y-115816559D01*
X73247975Y-115929025D01*
X73360444Y-116066067D01*
X73444015Y-116222419D01*
X73495478Y-116392068D01*
X73508500Y-116524289D01*
X73508500Y-117212710D01*
X73495478Y-117344931D01*
X73444016Y-117514576D01*
X73444014Y-117514581D01*
X73374673Y-117644309D01*
X73360441Y-117670936D01*
X73247975Y-117807975D01*
X73110933Y-117920444D01*
X72954581Y-118004015D01*
X72784932Y-118055478D01*
X72608500Y-118072854D01*
X72432069Y-118055478D01*
X72262420Y-118004015D01*
X72106068Y-117920444D01*
X71969026Y-117807975D01*
X71856557Y-117670933D01*
X71772986Y-117514581D01*
X71721522Y-117344932D01*
X71708500Y-117212711D01*
X71708500Y-116524290D01*
X71721522Y-116392069D01*
X71772984Y-116222424D01*
X71856559Y-116066064D01*
X71969025Y-115929025D01*
X72106067Y-115816556D01*
X72262419Y-115732985D01*
X72432068Y-115681522D01*
X72608500Y-115664146D01*
X72784931Y-115681522D01*
X72784931Y-115681522D01*
G37*
G36*
X77864931Y-115681522D02*
X78034576Y-115732984D01*
X78190936Y-115816559D01*
X78327975Y-115929025D01*
X78440444Y-116066067D01*
X78524015Y-116222419D01*
X78575478Y-116392068D01*
X78588500Y-116524289D01*
X78588500Y-117212710D01*
X78575478Y-117344931D01*
X78524016Y-117514576D01*
X78524014Y-117514581D01*
X78454673Y-117644309D01*
X78440441Y-117670936D01*
X78327975Y-117807975D01*
X78190933Y-117920444D01*
X78034581Y-118004015D01*
X77864932Y-118055478D01*
X77688500Y-118072854D01*
X77512069Y-118055478D01*
X77342420Y-118004015D01*
X77186068Y-117920444D01*
X77049026Y-117807975D01*
X76936557Y-117670933D01*
X76852986Y-117514581D01*
X76801522Y-117344932D01*
X76788500Y-117212711D01*
X76788500Y-116524290D01*
X76801522Y-116392069D01*
X76852984Y-116222424D01*
X76936559Y-116066064D01*
X77049025Y-115929025D01*
X77186067Y-115816556D01*
X77342419Y-115732985D01*
X77512068Y-115681522D01*
X77688500Y-115664146D01*
X77864931Y-115681522D01*
X77864931Y-115681522D01*
G37*
G36*
X82944931Y-115681522D02*
X83114576Y-115732984D01*
X83270936Y-115816559D01*
X83407975Y-115929025D01*
X83520444Y-116066067D01*
X83604015Y-116222419D01*
X83655478Y-116392068D01*
X83668500Y-116524289D01*
X83668500Y-117212710D01*
X83655478Y-117344931D01*
X83604016Y-117514576D01*
X83604014Y-117514581D01*
X83534673Y-117644309D01*
X83520441Y-117670936D01*
X83407975Y-117807975D01*
X83270933Y-117920444D01*
X83114581Y-118004015D01*
X82944932Y-118055478D01*
X82768500Y-118072854D01*
X82592069Y-118055478D01*
X82422420Y-118004015D01*
X82266068Y-117920444D01*
X82129026Y-117807975D01*
X82016557Y-117670933D01*
X81932986Y-117514581D01*
X81881522Y-117344932D01*
X81868500Y-117212711D01*
X81868500Y-116524290D01*
X81881522Y-116392069D01*
X81932984Y-116222424D01*
X82016559Y-116066064D01*
X82129025Y-115929025D01*
X82266067Y-115816556D01*
X82422419Y-115732985D01*
X82592068Y-115681522D01*
X82768500Y-115664146D01*
X82944931Y-115681522D01*
X82944931Y-115681522D01*
G37*
G36*
X93104931Y-115681522D02*
X93274576Y-115732984D01*
X93430936Y-115816559D01*
X93567975Y-115929025D01*
X93680444Y-116066067D01*
X93764015Y-116222419D01*
X93815478Y-116392068D01*
X93828500Y-116524289D01*
X93828500Y-117212710D01*
X93815478Y-117344931D01*
X93764016Y-117514576D01*
X93764014Y-117514581D01*
X93694673Y-117644309D01*
X93680441Y-117670936D01*
X93567975Y-117807975D01*
X93430933Y-117920444D01*
X93274581Y-118004015D01*
X93104932Y-118055478D01*
X92928500Y-118072854D01*
X92752069Y-118055478D01*
X92582420Y-118004015D01*
X92426068Y-117920444D01*
X92289026Y-117807975D01*
X92176557Y-117670933D01*
X92092986Y-117514581D01*
X92041522Y-117344932D01*
X92028500Y-117212711D01*
X92028500Y-116524290D01*
X92041522Y-116392069D01*
X92092984Y-116222424D01*
X92176559Y-116066064D01*
X92289025Y-115929025D01*
X92426067Y-115816556D01*
X92582419Y-115732985D01*
X92752068Y-115681522D01*
X92928500Y-115664146D01*
X93104931Y-115681522D01*
X93104931Y-115681522D01*
G37*
G36*
X113424931Y-115681522D02*
X113594576Y-115732984D01*
X113750936Y-115816559D01*
X113887975Y-115929025D01*
X114000444Y-116066067D01*
X114084015Y-116222419D01*
X114135478Y-116392068D01*
X114148500Y-116524289D01*
X114148500Y-117212710D01*
X114135478Y-117344931D01*
X114084016Y-117514576D01*
X114084014Y-117514581D01*
X114014673Y-117644309D01*
X114000441Y-117670936D01*
X113887975Y-117807975D01*
X113750933Y-117920444D01*
X113594581Y-118004015D01*
X113424932Y-118055478D01*
X113248500Y-118072854D01*
X113072069Y-118055478D01*
X112902420Y-118004015D01*
X112746068Y-117920444D01*
X112609026Y-117807975D01*
X112496557Y-117670933D01*
X112412986Y-117514581D01*
X112361522Y-117344932D01*
X112348500Y-117212711D01*
X112348500Y-116524290D01*
X112361522Y-116392069D01*
X112412984Y-116222424D01*
X112496559Y-116066064D01*
X112609025Y-115929025D01*
X112746067Y-115816556D01*
X112902419Y-115732985D01*
X113072068Y-115681522D01*
X113248500Y-115664146D01*
X113424931Y-115681522D01*
X113424931Y-115681522D01*
G37*
G36*
X108344931Y-115681522D02*
X108514576Y-115732984D01*
X108670936Y-115816559D01*
X108807975Y-115929025D01*
X108920444Y-116066067D01*
X109004015Y-116222419D01*
X109055478Y-116392068D01*
X109068500Y-116524289D01*
X109068500Y-117212710D01*
X109055478Y-117344931D01*
X109004016Y-117514576D01*
X109004014Y-117514581D01*
X108934673Y-117644309D01*
X108920441Y-117670936D01*
X108807975Y-117807975D01*
X108670933Y-117920444D01*
X108514581Y-118004015D01*
X108344932Y-118055478D01*
X108168500Y-118072854D01*
X107992069Y-118055478D01*
X107822420Y-118004015D01*
X107666068Y-117920444D01*
X107529026Y-117807975D01*
X107416557Y-117670933D01*
X107332986Y-117514581D01*
X107281522Y-117344932D01*
X107268500Y-117212711D01*
X107268500Y-116524290D01*
X107281522Y-116392069D01*
X107332984Y-116222424D01*
X107416559Y-116066064D01*
X107529025Y-115929025D01*
X107666067Y-115816556D01*
X107822419Y-115732985D01*
X107992068Y-115681522D01*
X108168500Y-115664146D01*
X108344931Y-115681522D01*
X108344931Y-115681522D01*
G37*
G36*
X103264931Y-115681522D02*
X103434576Y-115732984D01*
X103590936Y-115816559D01*
X103727975Y-115929025D01*
X103840444Y-116066067D01*
X103924015Y-116222419D01*
X103975478Y-116392068D01*
X103988500Y-116524289D01*
X103988500Y-117212710D01*
X103975478Y-117344931D01*
X103924016Y-117514576D01*
X103924014Y-117514581D01*
X103854673Y-117644309D01*
X103840441Y-117670936D01*
X103727975Y-117807975D01*
X103590933Y-117920444D01*
X103434581Y-118004015D01*
X103264932Y-118055478D01*
X103088500Y-118072854D01*
X102912069Y-118055478D01*
X102742420Y-118004015D01*
X102586068Y-117920444D01*
X102449026Y-117807975D01*
X102336557Y-117670933D01*
X102252986Y-117514581D01*
X102201522Y-117344932D01*
X102188500Y-117212711D01*
X102188500Y-116524290D01*
X102201522Y-116392069D01*
X102252984Y-116222424D01*
X102336559Y-116066064D01*
X102449025Y-115929025D01*
X102586067Y-115816556D01*
X102742419Y-115732985D01*
X102912068Y-115681522D01*
X103088500Y-115664146D01*
X103264931Y-115681522D01*
X103264931Y-115681522D01*
G37*
G36*
X98184931Y-115681522D02*
X98354576Y-115732984D01*
X98510936Y-115816559D01*
X98647975Y-115929025D01*
X98760444Y-116066067D01*
X98844015Y-116222419D01*
X98895478Y-116392068D01*
X98908500Y-116524289D01*
X98908500Y-117212710D01*
X98895478Y-117344931D01*
X98844016Y-117514576D01*
X98844014Y-117514581D01*
X98774673Y-117644309D01*
X98760441Y-117670936D01*
X98647975Y-117807975D01*
X98510933Y-117920444D01*
X98354581Y-118004015D01*
X98184932Y-118055478D01*
X98008500Y-118072854D01*
X97832069Y-118055478D01*
X97662420Y-118004015D01*
X97506068Y-117920444D01*
X97369026Y-117807975D01*
X97256557Y-117670933D01*
X97172986Y-117514581D01*
X97121522Y-117344932D01*
X97108500Y-117212711D01*
X97108500Y-116524290D01*
X97121522Y-116392069D01*
X97172984Y-116222424D01*
X97256559Y-116066064D01*
X97369025Y-115929025D01*
X97506067Y-115816556D01*
X97662419Y-115732985D01*
X97832068Y-115681522D01*
X98008500Y-115664146D01*
X98184931Y-115681522D01*
X98184931Y-115681522D01*
G37*
G36*
X88024931Y-115681522D02*
X88194576Y-115732984D01*
X88350936Y-115816559D01*
X88487975Y-115929025D01*
X88600444Y-116066067D01*
X88684015Y-116222419D01*
X88735478Y-116392068D01*
X88748500Y-116524289D01*
X88748500Y-117212710D01*
X88735478Y-117344931D01*
X88684016Y-117514576D01*
X88684014Y-117514581D01*
X88614673Y-117644309D01*
X88600441Y-117670936D01*
X88487975Y-117807975D01*
X88350933Y-117920444D01*
X88194581Y-118004015D01*
X88024932Y-118055478D01*
X87848500Y-118072854D01*
X87672069Y-118055478D01*
X87502420Y-118004015D01*
X87346068Y-117920444D01*
X87209026Y-117807975D01*
X87096557Y-117670933D01*
X87012986Y-117514581D01*
X86961522Y-117344932D01*
X86948500Y-117212711D01*
X86948500Y-116524290D01*
X86961522Y-116392069D01*
X87012984Y-116222424D01*
X87096559Y-116066064D01*
X87209025Y-115929025D01*
X87346067Y-115816556D01*
X87502419Y-115732985D01*
X87672068Y-115681522D01*
X87848500Y-115664146D01*
X88024931Y-115681522D01*
X88024931Y-115681522D01*
G37*
G36*
X60813099Y-101047921D02*
X61012737Y-101087631D01*
X61576901Y-101321315D01*
X62084635Y-101660572D01*
X62516428Y-102092365D01*
X62855685Y-102600099D01*
X63089369Y-103164263D01*
X63208500Y-103763177D01*
X63208500Y-104373823D01*
X63089369Y-104972737D01*
X62855685Y-105536901D01*
X62516428Y-106044635D01*
X62084635Y-106476428D01*
X61576901Y-106815685D01*
X61012737Y-107049369D01*
X60813099Y-107089079D01*
X60413825Y-107168500D01*
X59803175Y-107168500D01*
X59403901Y-107089079D01*
X59204263Y-107049369D01*
X58640099Y-106815685D01*
X58132365Y-106476428D01*
X57700572Y-106044635D01*
X57361315Y-105536901D01*
X57127631Y-104972737D01*
X57008500Y-104373823D01*
X57008500Y-103763177D01*
X57127631Y-103164263D01*
X57361315Y-102600099D01*
X57700572Y-102092365D01*
X58132365Y-101660572D01*
X58640099Y-101321315D01*
X59204263Y-101087631D01*
X59403901Y-101047921D01*
X59803175Y-100968500D01*
X60413825Y-100968500D01*
X60813099Y-101047921D01*
X60813099Y-101047921D01*
G37*
G36*
X55578500Y-97394500D02*
X54078500Y-97394500D01*
X54078500Y-95894500D01*
X55578500Y-95894500D01*
X55578500Y-97394500D01*
X55578500Y-97394500D01*
G37*
G36*
X58474818Y-95908911D02*
X58547267Y-95923322D01*
X58603803Y-95946740D01*
X58683757Y-95979858D01*
X58806600Y-96061939D01*
X58911061Y-96166400D01*
X58993142Y-96289243D01*
X59049678Y-96425734D01*
X59078500Y-96570630D01*
X59078500Y-96718370D01*
X59049678Y-96863266D01*
X58993142Y-96999757D01*
X58911061Y-97122600D01*
X58806600Y-97227061D01*
X58683757Y-97309142D01*
X58603803Y-97342260D01*
X58547267Y-97365678D01*
X58474818Y-97380089D01*
X58402370Y-97394500D01*
X58254630Y-97394500D01*
X58182182Y-97380089D01*
X58109733Y-97365678D01*
X58053197Y-97342260D01*
X57973243Y-97309142D01*
X57850400Y-97227061D01*
X57745939Y-97122600D01*
X57663858Y-96999757D01*
X57607322Y-96863266D01*
X57578500Y-96718370D01*
X57578500Y-96570630D01*
X57607322Y-96425734D01*
X57663858Y-96289243D01*
X57745939Y-96166400D01*
X57850400Y-96061939D01*
X57973243Y-95979858D01*
X58053197Y-95946740D01*
X58109733Y-95923322D01*
X58182182Y-95908911D01*
X58254630Y-95894500D01*
X58402370Y-95894500D01*
X58474818Y-95908911D01*
X58474818Y-95908911D01*
G37*
G36*
X114450732Y-85802246D02*
X114540270Y-85829407D01*
X114629809Y-85856568D01*
X114794847Y-85944783D01*
X114939501Y-86063499D01*
X115058217Y-86208153D01*
X115146432Y-86373191D01*
X115200754Y-86552269D01*
X115219096Y-86738500D01*
X115200754Y-86924731D01*
X115146432Y-87103809D01*
X115058217Y-87268847D01*
X114939501Y-87413501D01*
X114794847Y-87532217D01*
X114629809Y-87620432D01*
X114540270Y-87647593D01*
X114450732Y-87674754D01*
X114380948Y-87681627D01*
X114311166Y-87688500D01*
X114217834Y-87688500D01*
X114148052Y-87681627D01*
X114078268Y-87674754D01*
X113988730Y-87647593D01*
X113899191Y-87620432D01*
X113734153Y-87532217D01*
X113589499Y-87413501D01*
X113470783Y-87268847D01*
X113382568Y-87103809D01*
X113328246Y-86924731D01*
X113309904Y-86738500D01*
X113328246Y-86552269D01*
X113382568Y-86373191D01*
X113470783Y-86208153D01*
X113589499Y-86063499D01*
X113734153Y-85944783D01*
X113899191Y-85856568D01*
X113988730Y-85829407D01*
X114078268Y-85802246D01*
X114217834Y-85788500D01*
X114311166Y-85788500D01*
X114450732Y-85802246D01*
X114450732Y-85802246D01*
G37*
G36*
X111910732Y-85802246D02*
X112000270Y-85829407D01*
X112089809Y-85856568D01*
X112254847Y-85944783D01*
X112399501Y-86063499D01*
X112518217Y-86208153D01*
X112606432Y-86373191D01*
X112660754Y-86552269D01*
X112679096Y-86738500D01*
X112660754Y-86924731D01*
X112606432Y-87103809D01*
X112518217Y-87268847D01*
X112399501Y-87413501D01*
X112254847Y-87532217D01*
X112089809Y-87620432D01*
X112000270Y-87647593D01*
X111910732Y-87674754D01*
X111840948Y-87681627D01*
X111771166Y-87688500D01*
X111677834Y-87688500D01*
X111608052Y-87681627D01*
X111538268Y-87674754D01*
X111448730Y-87647593D01*
X111359191Y-87620432D01*
X111194153Y-87532217D01*
X111049499Y-87413501D01*
X110930783Y-87268847D01*
X110842568Y-87103809D01*
X110788246Y-86924731D01*
X110769904Y-86738500D01*
X110788246Y-86552269D01*
X110842568Y-86373191D01*
X110930783Y-86208153D01*
X111049499Y-86063499D01*
X111194153Y-85944783D01*
X111359191Y-85856568D01*
X111448730Y-85829407D01*
X111538268Y-85802246D01*
X111677834Y-85788500D01*
X111771166Y-85788500D01*
X111910732Y-85802246D01*
X111910732Y-85802246D01*
G37*
G36*
X111840948Y-83255373D02*
X111910732Y-83262246D01*
X112000270Y-83289407D01*
X112089809Y-83316568D01*
X112254847Y-83404783D01*
X112399501Y-83523499D01*
X112518217Y-83668153D01*
X112606432Y-83833191D01*
X112660754Y-84012269D01*
X112679096Y-84198500D01*
X112660754Y-84384731D01*
X112606432Y-84563809D01*
X112518217Y-84728847D01*
X112399501Y-84873501D01*
X112254847Y-84992217D01*
X112089809Y-85080432D01*
X112000270Y-85107593D01*
X111910732Y-85134754D01*
X111840948Y-85141627D01*
X111771166Y-85148500D01*
X111677834Y-85148500D01*
X111608052Y-85141627D01*
X111538268Y-85134754D01*
X111448730Y-85107593D01*
X111359191Y-85080432D01*
X111194153Y-84992217D01*
X111049499Y-84873501D01*
X110930783Y-84728847D01*
X110842568Y-84563809D01*
X110788246Y-84384731D01*
X110769904Y-84198500D01*
X110788246Y-84012269D01*
X110842568Y-83833191D01*
X110930783Y-83668153D01*
X111049499Y-83523499D01*
X111194153Y-83404783D01*
X111359191Y-83316568D01*
X111448730Y-83289407D01*
X111538268Y-83262246D01*
X111608052Y-83255373D01*
X111677834Y-83248500D01*
X111771166Y-83248500D01*
X111840948Y-83255373D01*
X111840948Y-83255373D01*
G37*
G36*
X114380948Y-83255373D02*
X114450732Y-83262246D01*
X114540270Y-83289407D01*
X114629809Y-83316568D01*
X114794847Y-83404783D01*
X114939501Y-83523499D01*
X115058217Y-83668153D01*
X115146432Y-83833191D01*
X115200754Y-84012269D01*
X115219096Y-84198500D01*
X115200754Y-84384731D01*
X115146432Y-84563809D01*
X115058217Y-84728847D01*
X114939501Y-84873501D01*
X114794847Y-84992217D01*
X114629809Y-85080432D01*
X114540270Y-85107593D01*
X114450732Y-85134754D01*
X114380948Y-85141627D01*
X114311166Y-85148500D01*
X114217834Y-85148500D01*
X114148052Y-85141627D01*
X114078268Y-85134754D01*
X113988730Y-85107593D01*
X113899191Y-85080432D01*
X113734153Y-84992217D01*
X113589499Y-84873501D01*
X113470783Y-84728847D01*
X113382568Y-84563809D01*
X113328246Y-84384731D01*
X113309904Y-84198500D01*
X113328246Y-84012269D01*
X113382568Y-83833191D01*
X113470783Y-83668153D01*
X113589499Y-83523499D01*
X113734153Y-83404783D01*
X113899191Y-83316568D01*
X113988730Y-83289407D01*
X114078268Y-83262246D01*
X114148052Y-83255373D01*
X114217834Y-83248500D01*
X114311166Y-83248500D01*
X114380948Y-83255373D01*
X114380948Y-83255373D01*
G37*
G36*
X107590500Y-82608500D02*
X105690500Y-82608500D01*
X105690500Y-80708500D01*
X107590500Y-80708500D01*
X107590500Y-82608500D01*
X107590500Y-82608500D01*
G37*
G36*
X111840948Y-80715373D02*
X111910732Y-80722246D01*
X112000270Y-80749407D01*
X112089809Y-80776568D01*
X112254847Y-80864783D01*
X112399501Y-80983499D01*
X112518217Y-81128153D01*
X112606432Y-81293191D01*
X112660754Y-81472269D01*
X112679096Y-81658500D01*
X112660754Y-81844731D01*
X112606432Y-82023809D01*
X112518217Y-82188847D01*
X112399501Y-82333501D01*
X112254847Y-82452217D01*
X112089809Y-82540432D01*
X112000270Y-82567593D01*
X111910732Y-82594754D01*
X111771166Y-82608500D01*
X111677834Y-82608500D01*
X111538268Y-82594754D01*
X111448730Y-82567593D01*
X111359191Y-82540432D01*
X111194153Y-82452217D01*
X111049499Y-82333501D01*
X110930783Y-82188847D01*
X110842568Y-82023809D01*
X110788246Y-81844731D01*
X110769904Y-81658500D01*
X110788246Y-81472269D01*
X110842568Y-81293191D01*
X110930783Y-81128153D01*
X111049499Y-80983499D01*
X111194153Y-80864783D01*
X111359191Y-80776568D01*
X111448730Y-80749407D01*
X111538268Y-80722246D01*
X111608052Y-80715373D01*
X111677834Y-80708500D01*
X111771166Y-80708500D01*
X111840948Y-80715373D01*
X111840948Y-80715373D01*
G37*
G36*
X114380948Y-80715373D02*
X114450732Y-80722246D01*
X114540270Y-80749407D01*
X114629809Y-80776568D01*
X114794847Y-80864783D01*
X114939501Y-80983499D01*
X115058217Y-81128153D01*
X115146432Y-81293191D01*
X115200754Y-81472269D01*
X115219096Y-81658500D01*
X115200754Y-81844731D01*
X115146432Y-82023809D01*
X115058217Y-82188847D01*
X114939501Y-82333501D01*
X114794847Y-82452217D01*
X114629809Y-82540432D01*
X114540270Y-82567593D01*
X114450732Y-82594754D01*
X114311166Y-82608500D01*
X114217834Y-82608500D01*
X114078268Y-82594754D01*
X113988730Y-82567593D01*
X113899191Y-82540432D01*
X113734153Y-82452217D01*
X113589499Y-82333501D01*
X113470783Y-82188847D01*
X113382568Y-82023809D01*
X113328246Y-81844731D01*
X113309904Y-81658500D01*
X113328246Y-81472269D01*
X113382568Y-81293191D01*
X113470783Y-81128153D01*
X113589499Y-80983499D01*
X113734153Y-80864783D01*
X113899191Y-80776568D01*
X113988730Y-80749407D01*
X114078268Y-80722246D01*
X114148052Y-80715373D01*
X114217834Y-80708500D01*
X114311166Y-80708500D01*
X114380948Y-80715373D01*
X114380948Y-80715373D01*
G37*
G36*
X111840948Y-78175373D02*
X111910732Y-78182246D01*
X112000270Y-78209407D01*
X112089809Y-78236568D01*
X112254847Y-78324783D01*
X112399501Y-78443499D01*
X112518217Y-78588153D01*
X112606432Y-78753191D01*
X112660754Y-78932269D01*
X112679096Y-79118500D01*
X112660754Y-79304731D01*
X112606432Y-79483809D01*
X112518217Y-79648847D01*
X112399501Y-79793501D01*
X112254847Y-79912217D01*
X112089809Y-80000432D01*
X112000270Y-80027593D01*
X111910732Y-80054754D01*
X111771166Y-80068500D01*
X111677834Y-80068500D01*
X111538268Y-80054754D01*
X111448730Y-80027593D01*
X111359191Y-80000432D01*
X111194153Y-79912217D01*
X111049499Y-79793501D01*
X110930783Y-79648847D01*
X110842568Y-79483809D01*
X110788246Y-79304731D01*
X110769904Y-79118500D01*
X110788246Y-78932269D01*
X110842568Y-78753191D01*
X110930783Y-78588153D01*
X111049499Y-78443499D01*
X111194153Y-78324783D01*
X111359191Y-78236568D01*
X111448730Y-78209407D01*
X111538268Y-78182246D01*
X111608052Y-78175373D01*
X111677834Y-78168500D01*
X111771166Y-78168500D01*
X111840948Y-78175373D01*
X111840948Y-78175373D01*
G37*
G36*
X106756948Y-78175373D02*
X106826732Y-78182246D01*
X106916270Y-78209407D01*
X107005809Y-78236568D01*
X107170847Y-78324783D01*
X107315501Y-78443499D01*
X107434217Y-78588153D01*
X107522432Y-78753191D01*
X107576754Y-78932269D01*
X107595096Y-79118500D01*
X107576754Y-79304731D01*
X107522432Y-79483809D01*
X107434217Y-79648847D01*
X107315501Y-79793501D01*
X107170847Y-79912217D01*
X107005809Y-80000432D01*
X106916270Y-80027593D01*
X106826732Y-80054754D01*
X106687166Y-80068500D01*
X106593834Y-80068500D01*
X106454268Y-80054754D01*
X106364730Y-80027593D01*
X106275191Y-80000432D01*
X106110153Y-79912217D01*
X105965499Y-79793501D01*
X105846783Y-79648847D01*
X105758568Y-79483809D01*
X105704246Y-79304731D01*
X105685904Y-79118500D01*
X105704246Y-78932269D01*
X105758568Y-78753191D01*
X105846783Y-78588153D01*
X105965499Y-78443499D01*
X106110153Y-78324783D01*
X106275191Y-78236568D01*
X106364730Y-78209407D01*
X106454268Y-78182246D01*
X106524052Y-78175373D01*
X106593834Y-78168500D01*
X106687166Y-78168500D01*
X106756948Y-78175373D01*
X106756948Y-78175373D01*
G37*
G36*
X114380948Y-78175373D02*
X114450732Y-78182246D01*
X114540270Y-78209407D01*
X114629809Y-78236568D01*
X114794847Y-78324783D01*
X114939501Y-78443499D01*
X115058217Y-78588153D01*
X115146432Y-78753191D01*
X115200754Y-78932269D01*
X115219096Y-79118500D01*
X115200754Y-79304731D01*
X115146432Y-79483809D01*
X115058217Y-79648847D01*
X114939501Y-79793501D01*
X114794847Y-79912217D01*
X114629809Y-80000432D01*
X114540270Y-80027593D01*
X114450732Y-80054754D01*
X114311166Y-80068500D01*
X114217834Y-80068500D01*
X114078268Y-80054754D01*
X113988730Y-80027593D01*
X113899191Y-80000432D01*
X113734153Y-79912217D01*
X113589499Y-79793501D01*
X113470783Y-79648847D01*
X113382568Y-79483809D01*
X113328246Y-79304731D01*
X113309904Y-79118500D01*
X113328246Y-78932269D01*
X113382568Y-78753191D01*
X113470783Y-78588153D01*
X113589499Y-78443499D01*
X113734153Y-78324783D01*
X113899191Y-78236568D01*
X113988730Y-78209407D01*
X114078268Y-78182246D01*
X114148052Y-78175373D01*
X114217834Y-78168500D01*
X114311166Y-78168500D01*
X114380948Y-78175373D01*
X114380948Y-78175373D01*
G37*
G36*
X106756948Y-75635373D02*
X106826732Y-75642246D01*
X106916270Y-75669407D01*
X107005809Y-75696568D01*
X107170847Y-75784783D01*
X107315501Y-75903499D01*
X107434217Y-76048153D01*
X107522432Y-76213191D01*
X107576754Y-76392269D01*
X107595096Y-76578500D01*
X107576754Y-76764731D01*
X107522432Y-76943809D01*
X107434217Y-77108847D01*
X107315501Y-77253501D01*
X107170847Y-77372217D01*
X107005809Y-77460432D01*
X106916270Y-77487593D01*
X106826732Y-77514754D01*
X106687166Y-77528500D01*
X106593834Y-77528500D01*
X106454268Y-77514754D01*
X106364730Y-77487593D01*
X106275191Y-77460432D01*
X106110153Y-77372217D01*
X105965499Y-77253501D01*
X105846783Y-77108847D01*
X105758568Y-76943809D01*
X105704246Y-76764731D01*
X105685904Y-76578500D01*
X105704246Y-76392269D01*
X105758568Y-76213191D01*
X105846783Y-76048153D01*
X105965499Y-75903499D01*
X106110153Y-75784783D01*
X106275191Y-75696568D01*
X106364730Y-75669407D01*
X106454268Y-75642246D01*
X106524052Y-75635373D01*
X106593834Y-75628500D01*
X106687166Y-75628500D01*
X106756948Y-75635373D01*
X106756948Y-75635373D01*
G37*
G36*
X111840948Y-75635373D02*
X111910732Y-75642246D01*
X112000270Y-75669407D01*
X112089809Y-75696568D01*
X112254847Y-75784783D01*
X112399501Y-75903499D01*
X112518217Y-76048153D01*
X112606432Y-76213191D01*
X112660754Y-76392269D01*
X112679096Y-76578500D01*
X112660754Y-76764731D01*
X112606432Y-76943809D01*
X112518217Y-77108847D01*
X112399501Y-77253501D01*
X112254847Y-77372217D01*
X112089809Y-77460432D01*
X112000270Y-77487593D01*
X111910732Y-77514754D01*
X111771166Y-77528500D01*
X111677834Y-77528500D01*
X111538268Y-77514754D01*
X111448730Y-77487593D01*
X111359191Y-77460432D01*
X111194153Y-77372217D01*
X111049499Y-77253501D01*
X110930783Y-77108847D01*
X110842568Y-76943809D01*
X110788246Y-76764731D01*
X110769904Y-76578500D01*
X110788246Y-76392269D01*
X110842568Y-76213191D01*
X110930783Y-76048153D01*
X111049499Y-75903499D01*
X111194153Y-75784783D01*
X111359191Y-75696568D01*
X111448730Y-75669407D01*
X111538268Y-75642246D01*
X111608052Y-75635373D01*
X111677834Y-75628500D01*
X111771166Y-75628500D01*
X111840948Y-75635373D01*
X111840948Y-75635373D01*
G37*
G36*
X114380948Y-75635373D02*
X114450732Y-75642246D01*
X114540270Y-75669407D01*
X114629809Y-75696568D01*
X114794847Y-75784783D01*
X114939501Y-75903499D01*
X115058217Y-76048153D01*
X115146432Y-76213191D01*
X115200754Y-76392269D01*
X115219096Y-76578500D01*
X115200754Y-76764731D01*
X115146432Y-76943809D01*
X115058217Y-77108847D01*
X114939501Y-77253501D01*
X114794847Y-77372217D01*
X114629809Y-77460432D01*
X114540270Y-77487593D01*
X114450732Y-77514754D01*
X114311166Y-77528500D01*
X114217834Y-77528500D01*
X114078268Y-77514754D01*
X113988730Y-77487593D01*
X113899191Y-77460432D01*
X113734153Y-77372217D01*
X113589499Y-77253501D01*
X113470783Y-77108847D01*
X113382568Y-76943809D01*
X113328246Y-76764731D01*
X113309904Y-76578500D01*
X113328246Y-76392269D01*
X113382568Y-76213191D01*
X113470783Y-76048153D01*
X113589499Y-75903499D01*
X113734153Y-75784783D01*
X113899191Y-75696568D01*
X113988730Y-75669407D01*
X114078268Y-75642246D01*
X114148052Y-75635373D01*
X114217834Y-75628500D01*
X114311166Y-75628500D01*
X114380948Y-75635373D01*
X114380948Y-75635373D01*
G37*
G36*
X106756948Y-73095373D02*
X106826732Y-73102246D01*
X106916270Y-73129407D01*
X107005809Y-73156568D01*
X107170847Y-73244783D01*
X107315501Y-73363499D01*
X107434217Y-73508153D01*
X107522432Y-73673191D01*
X107576754Y-73852269D01*
X107595096Y-74038500D01*
X107576754Y-74224731D01*
X107522432Y-74403809D01*
X107434217Y-74568847D01*
X107315501Y-74713501D01*
X107170847Y-74832217D01*
X107005809Y-74920432D01*
X106916270Y-74947593D01*
X106826732Y-74974754D01*
X106687166Y-74988500D01*
X106593834Y-74988500D01*
X106454268Y-74974754D01*
X106364730Y-74947593D01*
X106275191Y-74920432D01*
X106110153Y-74832217D01*
X105965499Y-74713501D01*
X105846783Y-74568847D01*
X105758568Y-74403809D01*
X105704246Y-74224731D01*
X105685904Y-74038500D01*
X105704246Y-73852269D01*
X105758568Y-73673191D01*
X105846783Y-73508153D01*
X105965499Y-73363499D01*
X106110153Y-73244783D01*
X106275191Y-73156568D01*
X106364730Y-73129407D01*
X106454268Y-73102246D01*
X106524052Y-73095373D01*
X106593834Y-73088500D01*
X106687166Y-73088500D01*
X106756948Y-73095373D01*
X106756948Y-73095373D01*
G37*
G36*
X111840948Y-73095373D02*
X111910732Y-73102246D01*
X112000270Y-73129407D01*
X112089809Y-73156568D01*
X112254847Y-73244783D01*
X112399501Y-73363499D01*
X112518217Y-73508153D01*
X112606432Y-73673191D01*
X112660754Y-73852269D01*
X112679096Y-74038500D01*
X112660754Y-74224731D01*
X112606432Y-74403809D01*
X112518217Y-74568847D01*
X112399501Y-74713501D01*
X112254847Y-74832217D01*
X112089809Y-74920432D01*
X112000270Y-74947593D01*
X111910732Y-74974754D01*
X111771166Y-74988500D01*
X111677834Y-74988500D01*
X111538268Y-74974754D01*
X111448730Y-74947593D01*
X111359191Y-74920432D01*
X111194153Y-74832217D01*
X111049499Y-74713501D01*
X110930783Y-74568847D01*
X110842568Y-74403809D01*
X110788246Y-74224731D01*
X110769904Y-74038500D01*
X110788246Y-73852269D01*
X110842568Y-73673191D01*
X110930783Y-73508153D01*
X111049499Y-73363499D01*
X111194153Y-73244783D01*
X111359191Y-73156568D01*
X111448730Y-73129407D01*
X111538268Y-73102246D01*
X111608052Y-73095373D01*
X111677834Y-73088500D01*
X111771166Y-73088500D01*
X111840948Y-73095373D01*
X111840948Y-73095373D01*
G37*
G36*
X114380948Y-73095373D02*
X114450732Y-73102246D01*
X114540270Y-73129407D01*
X114629809Y-73156568D01*
X114794847Y-73244783D01*
X114939501Y-73363499D01*
X115058217Y-73508153D01*
X115146432Y-73673191D01*
X115200754Y-73852269D01*
X115219096Y-74038500D01*
X115200754Y-74224731D01*
X115146432Y-74403809D01*
X115058217Y-74568847D01*
X114939501Y-74713501D01*
X114794847Y-74832217D01*
X114629809Y-74920432D01*
X114540270Y-74947593D01*
X114450732Y-74974754D01*
X114311166Y-74988500D01*
X114217834Y-74988500D01*
X114078268Y-74974754D01*
X113988730Y-74947593D01*
X113899191Y-74920432D01*
X113734153Y-74832217D01*
X113589499Y-74713501D01*
X113470783Y-74568847D01*
X113382568Y-74403809D01*
X113328246Y-74224731D01*
X113309904Y-74038500D01*
X113328246Y-73852269D01*
X113382568Y-73673191D01*
X113470783Y-73508153D01*
X113589499Y-73363499D01*
X113734153Y-73244783D01*
X113899191Y-73156568D01*
X113988730Y-73129407D01*
X114078268Y-73102246D01*
X114148052Y-73095373D01*
X114217834Y-73088500D01*
X114311166Y-73088500D01*
X114380948Y-73095373D01*
X114380948Y-73095373D01*
G37*
G36*
X64786000Y-73074000D02*
X63286000Y-73074000D01*
X63286000Y-71574000D01*
X64786000Y-71574000D01*
X64786000Y-73074000D01*
X64786000Y-73074000D01*
G37*
G36*
X60682318Y-71588411D02*
X60754767Y-71602822D01*
X60811303Y-71626240D01*
X60891257Y-71659358D01*
X61014100Y-71741439D01*
X61118561Y-71845900D01*
X61200642Y-71968743D01*
X61257178Y-72105234D01*
X61286000Y-72250130D01*
X61286000Y-72397870D01*
X61257178Y-72542766D01*
X61200642Y-72679257D01*
X61118561Y-72802100D01*
X61014100Y-72906561D01*
X60891257Y-72988642D01*
X60811303Y-73021760D01*
X60754767Y-73045178D01*
X60682318Y-73059589D01*
X60609870Y-73074000D01*
X60462130Y-73074000D01*
X60389682Y-73059589D01*
X60317233Y-73045178D01*
X60260697Y-73021760D01*
X60180743Y-72988642D01*
X60057900Y-72906561D01*
X59953439Y-72802100D01*
X59871358Y-72679257D01*
X59814822Y-72542766D01*
X59786000Y-72397870D01*
X59786000Y-72250130D01*
X59814822Y-72105234D01*
X59871358Y-71968743D01*
X59953439Y-71845900D01*
X60057900Y-71741439D01*
X60180743Y-71659358D01*
X60260697Y-71626240D01*
X60317233Y-71602822D01*
X60389682Y-71588411D01*
X60462130Y-71574000D01*
X60609870Y-71574000D01*
X60682318Y-71588411D01*
X60682318Y-71588411D01*
G37*
G36*
X114450732Y-70562246D02*
X114540270Y-70589407D01*
X114629809Y-70616568D01*
X114794847Y-70704783D01*
X114939501Y-70823499D01*
X115058217Y-70968153D01*
X115146432Y-71133191D01*
X115200754Y-71312269D01*
X115219096Y-71498500D01*
X115200754Y-71684731D01*
X115146432Y-71863809D01*
X115058217Y-72028847D01*
X114939501Y-72173501D01*
X114794847Y-72292217D01*
X114629809Y-72380432D01*
X114572326Y-72397869D01*
X114450732Y-72434754D01*
X114311166Y-72448500D01*
X114217834Y-72448500D01*
X114078268Y-72434754D01*
X113956674Y-72397869D01*
X113899191Y-72380432D01*
X113734153Y-72292217D01*
X113589499Y-72173501D01*
X113470783Y-72028847D01*
X113382568Y-71863809D01*
X113328246Y-71684731D01*
X113309904Y-71498500D01*
X113328246Y-71312269D01*
X113382568Y-71133191D01*
X113470783Y-70968153D01*
X113589499Y-70823499D01*
X113734153Y-70704783D01*
X113899191Y-70616568D01*
X113988730Y-70589407D01*
X114078268Y-70562246D01*
X114217834Y-70548500D01*
X114311166Y-70548500D01*
X114450732Y-70562246D01*
X114450732Y-70562246D01*
G37*
G36*
X112674500Y-72448500D02*
X110774500Y-72448500D01*
X110774500Y-70548500D01*
X112674500Y-70548500D01*
X112674500Y-72448500D01*
X112674500Y-72448500D01*
G37*
G36*
X106826732Y-70562246D02*
X106916270Y-70589407D01*
X107005809Y-70616568D01*
X107170847Y-70704783D01*
X107315501Y-70823499D01*
X107434217Y-70968153D01*
X107522432Y-71133191D01*
X107576754Y-71312269D01*
X107595096Y-71498500D01*
X107576754Y-71684731D01*
X107522432Y-71863809D01*
X107434217Y-72028847D01*
X107315501Y-72173501D01*
X107170847Y-72292217D01*
X107005809Y-72380432D01*
X106948326Y-72397869D01*
X106826732Y-72434754D01*
X106687166Y-72448500D01*
X106593834Y-72448500D01*
X106454268Y-72434754D01*
X106332674Y-72397869D01*
X106275191Y-72380432D01*
X106110153Y-72292217D01*
X105965499Y-72173501D01*
X105846783Y-72028847D01*
X105758568Y-71863809D01*
X105704246Y-71684731D01*
X105685904Y-71498500D01*
X105704246Y-71312269D01*
X105758568Y-71133191D01*
X105846783Y-70968153D01*
X105965499Y-70823499D01*
X106110153Y-70704783D01*
X106275191Y-70616568D01*
X106364730Y-70589407D01*
X106454268Y-70562246D01*
X106593834Y-70548500D01*
X106687166Y-70548500D01*
X106826732Y-70562246D01*
X106826732Y-70562246D01*
G37*
G36*
X111213099Y-51147921D02*
X111412737Y-51187631D01*
X111976901Y-51421315D01*
X112484635Y-51760572D01*
X112916428Y-52192365D01*
X113255685Y-52700099D01*
X113489369Y-53264263D01*
X113608500Y-53863177D01*
X113608500Y-54473823D01*
X113489369Y-55072737D01*
X113255685Y-55636901D01*
X112916428Y-56144635D01*
X112484635Y-56576428D01*
X111976901Y-56915685D01*
X111412737Y-57149369D01*
X111213099Y-57189079D01*
X110813825Y-57268500D01*
X110203175Y-57268500D01*
X109803901Y-57189079D01*
X109604263Y-57149369D01*
X109040099Y-56915685D01*
X108532365Y-56576428D01*
X108100572Y-56144635D01*
X107761315Y-55636901D01*
X107527631Y-55072737D01*
X107408500Y-54473823D01*
X107408500Y-53863177D01*
X107527631Y-53264263D01*
X107761315Y-52700099D01*
X108100572Y-52192365D01*
X108532365Y-51760572D01*
X109040099Y-51421315D01*
X109604263Y-51187631D01*
X109803901Y-51147921D01*
X110203175Y-51068500D01*
X110813825Y-51068500D01*
X111213099Y-51147921D01*
X111213099Y-51147921D01*
G37*
G36*
X57544931Y-40181522D02*
X57714576Y-40232984D01*
X57870936Y-40316559D01*
X58007975Y-40429025D01*
X58120444Y-40566067D01*
X58204015Y-40722419D01*
X58255478Y-40892068D01*
X58268500Y-41024289D01*
X58268500Y-41712710D01*
X58255478Y-41844931D01*
X58204016Y-42014576D01*
X58204014Y-42014581D01*
X58134673Y-42144309D01*
X58120441Y-42170936D01*
X58007975Y-42307975D01*
X57870933Y-42420444D01*
X57714581Y-42504015D01*
X57544932Y-42555478D01*
X57368500Y-42572854D01*
X57192069Y-42555478D01*
X57022420Y-42504015D01*
X56866068Y-42420444D01*
X56729026Y-42307975D01*
X56616557Y-42170933D01*
X56532986Y-42014581D01*
X56481522Y-41844932D01*
X56468500Y-41712711D01*
X56468500Y-41024290D01*
X56481522Y-40892069D01*
X56532984Y-40722424D01*
X56616559Y-40566064D01*
X56729025Y-40429025D01*
X56866067Y-40316556D01*
X57022419Y-40232985D01*
X57192068Y-40181522D01*
X57368500Y-40164146D01*
X57544931Y-40181522D01*
X57544931Y-40181522D01*
G37*
G36*
X62624931Y-40181522D02*
X62794576Y-40232984D01*
X62950936Y-40316559D01*
X63087975Y-40429025D01*
X63200444Y-40566067D01*
X63284015Y-40722419D01*
X63335478Y-40892068D01*
X63348500Y-41024289D01*
X63348500Y-41712710D01*
X63335478Y-41844931D01*
X63284016Y-42014576D01*
X63284014Y-42014581D01*
X63214673Y-42144309D01*
X63200441Y-42170936D01*
X63087975Y-42307975D01*
X62950933Y-42420444D01*
X62794581Y-42504015D01*
X62624932Y-42555478D01*
X62448500Y-42572854D01*
X62272069Y-42555478D01*
X62102420Y-42504015D01*
X61946068Y-42420444D01*
X61809026Y-42307975D01*
X61696557Y-42170933D01*
X61612986Y-42014581D01*
X61561522Y-41844932D01*
X61548500Y-41712711D01*
X61548500Y-41024290D01*
X61561522Y-40892069D01*
X61612984Y-40722424D01*
X61696559Y-40566064D01*
X61809025Y-40429025D01*
X61946067Y-40316556D01*
X62102419Y-40232985D01*
X62272068Y-40181522D01*
X62448500Y-40164146D01*
X62624931Y-40181522D01*
X62624931Y-40181522D01*
G37*
G36*
X67704931Y-40181522D02*
X67874576Y-40232984D01*
X68030936Y-40316559D01*
X68167975Y-40429025D01*
X68280444Y-40566067D01*
X68364015Y-40722419D01*
X68415478Y-40892068D01*
X68428500Y-41024289D01*
X68428500Y-41712710D01*
X68415478Y-41844931D01*
X68364016Y-42014576D01*
X68364014Y-42014581D01*
X68294673Y-42144309D01*
X68280441Y-42170936D01*
X68167975Y-42307975D01*
X68030933Y-42420444D01*
X67874581Y-42504015D01*
X67704932Y-42555478D01*
X67528500Y-42572854D01*
X67352069Y-42555478D01*
X67182420Y-42504015D01*
X67026068Y-42420444D01*
X66889026Y-42307975D01*
X66776557Y-42170933D01*
X66692986Y-42014581D01*
X66641522Y-41844932D01*
X66628500Y-41712711D01*
X66628500Y-41024290D01*
X66641522Y-40892069D01*
X66692984Y-40722424D01*
X66776559Y-40566064D01*
X66889025Y-40429025D01*
X67026067Y-40316556D01*
X67182419Y-40232985D01*
X67352068Y-40181522D01*
X67528500Y-40164146D01*
X67704931Y-40181522D01*
X67704931Y-40181522D01*
G37*
G36*
X72784931Y-40181522D02*
X72954576Y-40232984D01*
X73110936Y-40316559D01*
X73247975Y-40429025D01*
X73360444Y-40566067D01*
X73444015Y-40722419D01*
X73495478Y-40892068D01*
X73508500Y-41024289D01*
X73508500Y-41712710D01*
X73495478Y-41844931D01*
X73444016Y-42014576D01*
X73444014Y-42014581D01*
X73374673Y-42144309D01*
X73360441Y-42170936D01*
X73247975Y-42307975D01*
X73110933Y-42420444D01*
X72954581Y-42504015D01*
X72784932Y-42555478D01*
X72608500Y-42572854D01*
X72432069Y-42555478D01*
X72262420Y-42504015D01*
X72106068Y-42420444D01*
X71969026Y-42307975D01*
X71856557Y-42170933D01*
X71772986Y-42014581D01*
X71721522Y-41844932D01*
X71708500Y-41712711D01*
X71708500Y-41024290D01*
X71721522Y-40892069D01*
X71772984Y-40722424D01*
X71856559Y-40566064D01*
X71969025Y-40429025D01*
X72106067Y-40316556D01*
X72262419Y-40232985D01*
X72432068Y-40181522D01*
X72608500Y-40164146D01*
X72784931Y-40181522D01*
X72784931Y-40181522D01*
G37*
G36*
X77864931Y-40181522D02*
X78034576Y-40232984D01*
X78190936Y-40316559D01*
X78327975Y-40429025D01*
X78440444Y-40566067D01*
X78524015Y-40722419D01*
X78575478Y-40892068D01*
X78588500Y-41024289D01*
X78588500Y-41712710D01*
X78575478Y-41844931D01*
X78524016Y-42014576D01*
X78524014Y-42014581D01*
X78454673Y-42144309D01*
X78440441Y-42170936D01*
X78327975Y-42307975D01*
X78190933Y-42420444D01*
X78034581Y-42504015D01*
X77864932Y-42555478D01*
X77688500Y-42572854D01*
X77512069Y-42555478D01*
X77342420Y-42504015D01*
X77186068Y-42420444D01*
X77049026Y-42307975D01*
X76936557Y-42170933D01*
X76852986Y-42014581D01*
X76801522Y-41844932D01*
X76788500Y-41712711D01*
X76788500Y-41024290D01*
X76801522Y-40892069D01*
X76852984Y-40722424D01*
X76936559Y-40566064D01*
X77049025Y-40429025D01*
X77186067Y-40316556D01*
X77342419Y-40232985D01*
X77512068Y-40181522D01*
X77688500Y-40164146D01*
X77864931Y-40181522D01*
X77864931Y-40181522D01*
G37*
G36*
X88024931Y-40181522D02*
X88194576Y-40232984D01*
X88350936Y-40316559D01*
X88487975Y-40429025D01*
X88600444Y-40566067D01*
X88684015Y-40722419D01*
X88735478Y-40892068D01*
X88748500Y-41024289D01*
X88748500Y-41712710D01*
X88735478Y-41844931D01*
X88684016Y-42014576D01*
X88684014Y-42014581D01*
X88614673Y-42144309D01*
X88600441Y-42170936D01*
X88487975Y-42307975D01*
X88350933Y-42420444D01*
X88194581Y-42504015D01*
X88024932Y-42555478D01*
X87848500Y-42572854D01*
X87672069Y-42555478D01*
X87502420Y-42504015D01*
X87346068Y-42420444D01*
X87209026Y-42307975D01*
X87096557Y-42170933D01*
X87012986Y-42014581D01*
X86961522Y-41844932D01*
X86948500Y-41712711D01*
X86948500Y-41024290D01*
X86961522Y-40892069D01*
X87012984Y-40722424D01*
X87096559Y-40566064D01*
X87209025Y-40429025D01*
X87346067Y-40316556D01*
X87502419Y-40232985D01*
X87672068Y-40181522D01*
X87848500Y-40164146D01*
X88024931Y-40181522D01*
X88024931Y-40181522D01*
G37*
G36*
X98184931Y-40181522D02*
X98354576Y-40232984D01*
X98510936Y-40316559D01*
X98647975Y-40429025D01*
X98760444Y-40566067D01*
X98844015Y-40722419D01*
X98895478Y-40892068D01*
X98908500Y-41024289D01*
X98908500Y-41712710D01*
X98895478Y-41844931D01*
X98844016Y-42014576D01*
X98844014Y-42014581D01*
X98774673Y-42144309D01*
X98760441Y-42170936D01*
X98647975Y-42307975D01*
X98510933Y-42420444D01*
X98354581Y-42504015D01*
X98184932Y-42555478D01*
X98008500Y-42572854D01*
X97832069Y-42555478D01*
X97662420Y-42504015D01*
X97506068Y-42420444D01*
X97369026Y-42307975D01*
X97256557Y-42170933D01*
X97172986Y-42014581D01*
X97121522Y-41844932D01*
X97108500Y-41712711D01*
X97108500Y-41024290D01*
X97121522Y-40892069D01*
X97172984Y-40722424D01*
X97256559Y-40566064D01*
X97369025Y-40429025D01*
X97506067Y-40316556D01*
X97662419Y-40232985D01*
X97832068Y-40181522D01*
X98008500Y-40164146D01*
X98184931Y-40181522D01*
X98184931Y-40181522D01*
G37*
G36*
X82944931Y-40181522D02*
X83114576Y-40232984D01*
X83270936Y-40316559D01*
X83407975Y-40429025D01*
X83520444Y-40566067D01*
X83604015Y-40722419D01*
X83655478Y-40892068D01*
X83668500Y-41024289D01*
X83668500Y-41712710D01*
X83655478Y-41844931D01*
X83604016Y-42014576D01*
X83604014Y-42014581D01*
X83534673Y-42144309D01*
X83520441Y-42170936D01*
X83407975Y-42307975D01*
X83270933Y-42420444D01*
X83114581Y-42504015D01*
X82944932Y-42555478D01*
X82768500Y-42572854D01*
X82592069Y-42555478D01*
X82422420Y-42504015D01*
X82266068Y-42420444D01*
X82129026Y-42307975D01*
X82016557Y-42170933D01*
X81932986Y-42014581D01*
X81881522Y-41844932D01*
X81868500Y-41712711D01*
X81868500Y-41024290D01*
X81881522Y-40892069D01*
X81932984Y-40722424D01*
X82016559Y-40566064D01*
X82129025Y-40429025D01*
X82266067Y-40316556D01*
X82422419Y-40232985D01*
X82592068Y-40181522D01*
X82768500Y-40164146D01*
X82944931Y-40181522D01*
X82944931Y-40181522D01*
G37*
G36*
X93104931Y-40181522D02*
X93274576Y-40232984D01*
X93430936Y-40316559D01*
X93567975Y-40429025D01*
X93680444Y-40566067D01*
X93764015Y-40722419D01*
X93815478Y-40892068D01*
X93828500Y-41024289D01*
X93828500Y-41712710D01*
X93815478Y-41844931D01*
X93764016Y-42014576D01*
X93764014Y-42014581D01*
X93694673Y-42144309D01*
X93680441Y-42170936D01*
X93567975Y-42307975D01*
X93430933Y-42420444D01*
X93274581Y-42504015D01*
X93104932Y-42555478D01*
X92928500Y-42572854D01*
X92752069Y-42555478D01*
X92582420Y-42504015D01*
X92426068Y-42420444D01*
X92289026Y-42307975D01*
X92176557Y-42170933D01*
X92092986Y-42014581D01*
X92041522Y-41844932D01*
X92028500Y-41712711D01*
X92028500Y-41024290D01*
X92041522Y-40892069D01*
X92092984Y-40722424D01*
X92176559Y-40566064D01*
X92289025Y-40429025D01*
X92426067Y-40316556D01*
X92582419Y-40232985D01*
X92752068Y-40181522D01*
X92928500Y-40164146D01*
X93104931Y-40181522D01*
X93104931Y-40181522D01*
G37*
G36*
X103264931Y-40181522D02*
X103434576Y-40232984D01*
X103590936Y-40316559D01*
X103727975Y-40429025D01*
X103840444Y-40566067D01*
X103924015Y-40722419D01*
X103975478Y-40892068D01*
X103988500Y-41024289D01*
X103988500Y-41712710D01*
X103975478Y-41844931D01*
X103924016Y-42014576D01*
X103924014Y-42014581D01*
X103854673Y-42144309D01*
X103840441Y-42170936D01*
X103727975Y-42307975D01*
X103590933Y-42420444D01*
X103434581Y-42504015D01*
X103264932Y-42555478D01*
X103088500Y-42572854D01*
X102912069Y-42555478D01*
X102742420Y-42504015D01*
X102586068Y-42420444D01*
X102449026Y-42307975D01*
X102336557Y-42170933D01*
X102252986Y-42014581D01*
X102201522Y-41844932D01*
X102188500Y-41712711D01*
X102188500Y-41024290D01*
X102201522Y-40892069D01*
X102252984Y-40722424D01*
X102336559Y-40566064D01*
X102449025Y-40429025D01*
X102586067Y-40316556D01*
X102742419Y-40232985D01*
X102912068Y-40181522D01*
X103088500Y-40164146D01*
X103264931Y-40181522D01*
X103264931Y-40181522D01*
G37*
G36*
X108344931Y-40181522D02*
X108514576Y-40232984D01*
X108670936Y-40316559D01*
X108807975Y-40429025D01*
X108920444Y-40566067D01*
X109004015Y-40722419D01*
X109055478Y-40892068D01*
X109068500Y-41024289D01*
X109068500Y-41712710D01*
X109055478Y-41844931D01*
X109004016Y-42014576D01*
X109004014Y-42014581D01*
X108934673Y-42144309D01*
X108920441Y-42170936D01*
X108807975Y-42307975D01*
X108670933Y-42420444D01*
X108514581Y-42504015D01*
X108344932Y-42555478D01*
X108168500Y-42572854D01*
X107992069Y-42555478D01*
X107822420Y-42504015D01*
X107666068Y-42420444D01*
X107529026Y-42307975D01*
X107416557Y-42170933D01*
X107332986Y-42014581D01*
X107281522Y-41844932D01*
X107268500Y-41712711D01*
X107268500Y-41024290D01*
X107281522Y-40892069D01*
X107332984Y-40722424D01*
X107416559Y-40566064D01*
X107529025Y-40429025D01*
X107666067Y-40316556D01*
X107822419Y-40232985D01*
X107992068Y-40181522D01*
X108168500Y-40164146D01*
X108344931Y-40181522D01*
X108344931Y-40181522D01*
G37*
G36*
X113424931Y-40181522D02*
X113594576Y-40232984D01*
X113750936Y-40316559D01*
X113887975Y-40429025D01*
X114000444Y-40566067D01*
X114084015Y-40722419D01*
X114135478Y-40892068D01*
X114148500Y-41024289D01*
X114148500Y-41712710D01*
X114135478Y-41844931D01*
X114084016Y-42014576D01*
X114084014Y-42014581D01*
X114014673Y-42144309D01*
X114000441Y-42170936D01*
X113887975Y-42307975D01*
X113750933Y-42420444D01*
X113594581Y-42504015D01*
X113424932Y-42555478D01*
X113248500Y-42572854D01*
X113072069Y-42555478D01*
X112902420Y-42504015D01*
X112746068Y-42420444D01*
X112609026Y-42307975D01*
X112496557Y-42170933D01*
X112412986Y-42014581D01*
X112361522Y-41844932D01*
X112348500Y-41712711D01*
X112348500Y-41024290D01*
X112361522Y-40892069D01*
X112412984Y-40722424D01*
X112496559Y-40566064D01*
X112609025Y-40429025D01*
X112746067Y-40316556D01*
X112902419Y-40232985D01*
X113072068Y-40181522D01*
X113248500Y-40164146D01*
X113424931Y-40181522D01*
X113424931Y-40181522D01*
G37*
M02*
