M48
;DRILL file {KiCad 5.0.2} date Fr 28 Dez 2018 21:45:57 CET
;FORMAT={-:-/ absolute / inch / decimal}
FMAT,2
INCH,TZ
T1C0.0157
T2C0.0315
T3C0.0394
%
G90
G05
T1
X2.0686Y-2.2749
X2.0786Y-2.6149
X2.0886Y-3.5149
X2.0886Y-4.0149
X2.1286Y-2.6649
X2.2211Y-3.4249
X2.2586Y-1.9549
X2.4986Y-2.2749
X2.4986Y-2.4549
X2.6006Y-2.5629
X2.6598Y-4.3649
X2.6686Y-2.2749
X2.6691Y-3.5544
X2.7286Y-2.6949
X2.7686Y-4.0549
X2.7686Y-4.1769
X2.7875Y-2.266
X2.851Y-2.5949
X2.8986Y-2.5249
X2.9186Y-3.7349
X2.9286Y-2.7699
X2.9386Y-3.4049
X2.9386Y-3.4849
X2.9586Y-2.5849
X2.9886Y-2.2549
X3.0186Y-3.2749
X3.0886Y-3.0449
X3.0886Y-3.1749
X3.0986Y-2.5249
X3.1086Y-2.7749
X3.1086Y-3.2749
X3.1491Y-2.9444
X3.1586Y-3.7449
X3.1586Y-3.7449
X3.198Y-3.0155
X3.2086Y-2.4649
X3.2186Y-2.2549
X3.2448Y-4.3549
X3.2586Y-3.2549
X3.3086Y-2.8049
X3.3186Y-2.5249
X3.4062Y-2.2549
X3.5086Y-2.8049
X3.5386Y-2.5249
X3.5386Y-3.7449
X3.6086Y-2.9749
X3.6398Y-4.3549
X3.7078Y-3.4149
X3.7086Y-2.7549
X3.7086Y-2.8549
X3.7086Y-2.9749
X3.8386Y-1.9349
X3.9106Y-2.0429
X3.9186Y-2.5549
X3.9386Y-3.7449
X3.9686Y-2.2861
X3.9844Y-2.0749
X4.0286Y-3.0249
X4.0286Y-1.9349
X4.0398Y-4.3549
X4.0886Y-3.5249
X4.1686Y-2.4149
X4.1686Y-2.5149
X4.1886Y-1.8649
X4.2686Y-2.9925
X4.2686Y-3.3149
X4.3086Y-3.7449
X4.4198Y-4.3549
X4.4486Y-1.8649
X4.5486Y-4.3549
X4.6386Y-3.9249
X4.6386Y-4.2149
X4.6386Y-4.3549
X4.6486Y-1.8749
X4.6486Y-2.2049
X4.6486Y-2.5149
X4.6486Y-2.9149
X4.6486Y-3.3149
X4.6486Y-3.6249
T2
X2.1586Y-3.8049
X2.2964Y-3.8049
X2.3833Y-2.8474
X2.5211Y-2.8474
T3
X4.3986Y-2.8149
X4.3986Y-2.9149
X4.3986Y-3.0149
X4.3986Y-3.1149
X4.3986Y-3.2149
X4.3986Y-3.3149
X4.3986Y-3.4149
X4.4986Y-2.8149
X4.4986Y-2.9149
X4.4986Y-3.0149
X4.4986Y-3.1149
X4.4986Y-3.2149
X4.4986Y-3.3149
X4.4986Y-3.4149
X4.1984Y-2.8149
X4.1984Y-2.9149
X4.1984Y-3.0149
X4.1984Y-3.1149
X4.1984Y-3.2149
X2.2586Y-1.6287
X2.2586Y-4.6011
X2.4586Y-1.6287
X2.4586Y-4.6011
X2.6586Y-1.6287
X2.6586Y-4.6011
X2.8586Y-1.6287
X2.8586Y-4.6011
X3.0586Y-1.6287
X3.0586Y-4.6011
X3.2586Y-1.6287
X3.2586Y-4.6011
X3.4586Y-1.6287
X3.4586Y-4.6011
X3.6586Y-1.6287
X3.6586Y-4.6011
X3.8586Y-1.6287
X3.8586Y-4.6011
X4.0586Y-1.6287
X4.0586Y-4.6011
X4.2586Y-1.6287
X4.2586Y-4.6011
X4.4586Y-1.6287
X4.4586Y-4.6011
T0
M30
