G04 #@! TF.GenerationSoftware,KiCad,Pcbnew,5.0.2*
G04 #@! TF.CreationDate,2018-12-28T21:36:43+01:00*
G04 #@! TF.ProjectId,esp32control,65737033-3263-46f6-9e74-726f6c2e6b69,rev?*
G04 #@! TF.SameCoordinates,Original*
G04 #@! TF.FileFunction,Soldermask,Top*
G04 #@! TF.FilePolarity,Negative*
%FSLAX46Y46*%
G04 Gerber Fmt 4.6, Leading zero omitted, Abs format (unit mm)*
G04 Created by KiCad (PCBNEW 5.0.2) date Fr 28 Dez 2018 21:36:43 CET*
%MOMM*%
%LPD*%
G01*
G04 APERTURE LIST*
%ADD10C,0.100000*%
G04 APERTURE END LIST*
D10*
G36*
X57544931Y-115681522D02*
X57714576Y-115732984D01*
X57870936Y-115816559D01*
X58007975Y-115929025D01*
X58120444Y-116066067D01*
X58204015Y-116222419D01*
X58255478Y-116392068D01*
X58268500Y-116524289D01*
X58268500Y-117212710D01*
X58255478Y-117344931D01*
X58204016Y-117514576D01*
X58204014Y-117514581D01*
X58134673Y-117644309D01*
X58120441Y-117670936D01*
X58007975Y-117807975D01*
X57870933Y-117920444D01*
X57714581Y-118004015D01*
X57544932Y-118055478D01*
X57368500Y-118072854D01*
X57192069Y-118055478D01*
X57022420Y-118004015D01*
X56866068Y-117920444D01*
X56729026Y-117807975D01*
X56616557Y-117670933D01*
X56532986Y-117514581D01*
X56481522Y-117344932D01*
X56468500Y-117212711D01*
X56468500Y-116524290D01*
X56481522Y-116392069D01*
X56532984Y-116222424D01*
X56616559Y-116066064D01*
X56729025Y-115929025D01*
X56866067Y-115816556D01*
X57022419Y-115732985D01*
X57192068Y-115681522D01*
X57368500Y-115664146D01*
X57544931Y-115681522D01*
X57544931Y-115681522D01*
G37*
G36*
X67704931Y-115681522D02*
X67874576Y-115732984D01*
X68030936Y-115816559D01*
X68167975Y-115929025D01*
X68280444Y-116066067D01*
X68364015Y-116222419D01*
X68415478Y-116392068D01*
X68428500Y-116524289D01*
X68428500Y-117212710D01*
X68415478Y-117344931D01*
X68364016Y-117514576D01*
X68364014Y-117514581D01*
X68294673Y-117644309D01*
X68280441Y-117670936D01*
X68167975Y-117807975D01*
X68030933Y-117920444D01*
X67874581Y-118004015D01*
X67704932Y-118055478D01*
X67528500Y-118072854D01*
X67352069Y-118055478D01*
X67182420Y-118004015D01*
X67026068Y-117920444D01*
X66889026Y-117807975D01*
X66776557Y-117670933D01*
X66692986Y-117514581D01*
X66641522Y-117344932D01*
X66628500Y-117212711D01*
X66628500Y-116524290D01*
X66641522Y-116392069D01*
X66692984Y-116222424D01*
X66776559Y-116066064D01*
X66889025Y-115929025D01*
X67026067Y-115816556D01*
X67182419Y-115732985D01*
X67352068Y-115681522D01*
X67528500Y-115664146D01*
X67704931Y-115681522D01*
X67704931Y-115681522D01*
G37*
G36*
X72784931Y-115681522D02*
X72954576Y-115732984D01*
X73110936Y-115816559D01*
X73247975Y-115929025D01*
X73360444Y-116066067D01*
X73444015Y-116222419D01*
X73495478Y-116392068D01*
X73508500Y-116524289D01*
X73508500Y-117212710D01*
X73495478Y-117344931D01*
X73444016Y-117514576D01*
X73444014Y-117514581D01*
X73374673Y-117644309D01*
X73360441Y-117670936D01*
X73247975Y-117807975D01*
X73110933Y-117920444D01*
X72954581Y-118004015D01*
X72784932Y-118055478D01*
X72608500Y-118072854D01*
X72432069Y-118055478D01*
X72262420Y-118004015D01*
X72106068Y-117920444D01*
X71969026Y-117807975D01*
X71856557Y-117670933D01*
X71772986Y-117514581D01*
X71721522Y-117344932D01*
X71708500Y-117212711D01*
X71708500Y-116524290D01*
X71721522Y-116392069D01*
X71772984Y-116222424D01*
X71856559Y-116066064D01*
X71969025Y-115929025D01*
X72106067Y-115816556D01*
X72262419Y-115732985D01*
X72432068Y-115681522D01*
X72608500Y-115664146D01*
X72784931Y-115681522D01*
X72784931Y-115681522D01*
G37*
G36*
X77864931Y-115681522D02*
X78034576Y-115732984D01*
X78190936Y-115816559D01*
X78327975Y-115929025D01*
X78440444Y-116066067D01*
X78524015Y-116222419D01*
X78575478Y-116392068D01*
X78588500Y-116524289D01*
X78588500Y-117212710D01*
X78575478Y-117344931D01*
X78524016Y-117514576D01*
X78524014Y-117514581D01*
X78454673Y-117644309D01*
X78440441Y-117670936D01*
X78327975Y-117807975D01*
X78190933Y-117920444D01*
X78034581Y-118004015D01*
X77864932Y-118055478D01*
X77688500Y-118072854D01*
X77512069Y-118055478D01*
X77342420Y-118004015D01*
X77186068Y-117920444D01*
X77049026Y-117807975D01*
X76936557Y-117670933D01*
X76852986Y-117514581D01*
X76801522Y-117344932D01*
X76788500Y-117212711D01*
X76788500Y-116524290D01*
X76801522Y-116392069D01*
X76852984Y-116222424D01*
X76936559Y-116066064D01*
X77049025Y-115929025D01*
X77186067Y-115816556D01*
X77342419Y-115732985D01*
X77512068Y-115681522D01*
X77688500Y-115664146D01*
X77864931Y-115681522D01*
X77864931Y-115681522D01*
G37*
G36*
X82944931Y-115681522D02*
X83114576Y-115732984D01*
X83270936Y-115816559D01*
X83407975Y-115929025D01*
X83520444Y-116066067D01*
X83604015Y-116222419D01*
X83655478Y-116392068D01*
X83668500Y-116524289D01*
X83668500Y-117212710D01*
X83655478Y-117344931D01*
X83604016Y-117514576D01*
X83604014Y-117514581D01*
X83534673Y-117644309D01*
X83520441Y-117670936D01*
X83407975Y-117807975D01*
X83270933Y-117920444D01*
X83114581Y-118004015D01*
X82944932Y-118055478D01*
X82768500Y-118072854D01*
X82592069Y-118055478D01*
X82422420Y-118004015D01*
X82266068Y-117920444D01*
X82129026Y-117807975D01*
X82016557Y-117670933D01*
X81932986Y-117514581D01*
X81881522Y-117344932D01*
X81868500Y-117212711D01*
X81868500Y-116524290D01*
X81881522Y-116392069D01*
X81932984Y-116222424D01*
X82016559Y-116066064D01*
X82129025Y-115929025D01*
X82266067Y-115816556D01*
X82422419Y-115732985D01*
X82592068Y-115681522D01*
X82768500Y-115664146D01*
X82944931Y-115681522D01*
X82944931Y-115681522D01*
G37*
G36*
X88024931Y-115681522D02*
X88194576Y-115732984D01*
X88350936Y-115816559D01*
X88487975Y-115929025D01*
X88600444Y-116066067D01*
X88684015Y-116222419D01*
X88735478Y-116392068D01*
X88748500Y-116524289D01*
X88748500Y-117212710D01*
X88735478Y-117344931D01*
X88684016Y-117514576D01*
X88684014Y-117514581D01*
X88614673Y-117644309D01*
X88600441Y-117670936D01*
X88487975Y-117807975D01*
X88350933Y-117920444D01*
X88194581Y-118004015D01*
X88024932Y-118055478D01*
X87848500Y-118072854D01*
X87672069Y-118055478D01*
X87502420Y-118004015D01*
X87346068Y-117920444D01*
X87209026Y-117807975D01*
X87096557Y-117670933D01*
X87012986Y-117514581D01*
X86961522Y-117344932D01*
X86948500Y-117212711D01*
X86948500Y-116524290D01*
X86961522Y-116392069D01*
X87012984Y-116222424D01*
X87096559Y-116066064D01*
X87209025Y-115929025D01*
X87346067Y-115816556D01*
X87502419Y-115732985D01*
X87672068Y-115681522D01*
X87848500Y-115664146D01*
X88024931Y-115681522D01*
X88024931Y-115681522D01*
G37*
G36*
X93104931Y-115681522D02*
X93274576Y-115732984D01*
X93430936Y-115816559D01*
X93567975Y-115929025D01*
X93680444Y-116066067D01*
X93764015Y-116222419D01*
X93815478Y-116392068D01*
X93828500Y-116524289D01*
X93828500Y-117212710D01*
X93815478Y-117344931D01*
X93764016Y-117514576D01*
X93764014Y-117514581D01*
X93694673Y-117644309D01*
X93680441Y-117670936D01*
X93567975Y-117807975D01*
X93430933Y-117920444D01*
X93274581Y-118004015D01*
X93104932Y-118055478D01*
X92928500Y-118072854D01*
X92752069Y-118055478D01*
X92582420Y-118004015D01*
X92426068Y-117920444D01*
X92289026Y-117807975D01*
X92176557Y-117670933D01*
X92092986Y-117514581D01*
X92041522Y-117344932D01*
X92028500Y-117212711D01*
X92028500Y-116524290D01*
X92041522Y-116392069D01*
X92092984Y-116222424D01*
X92176559Y-116066064D01*
X92289025Y-115929025D01*
X92426067Y-115816556D01*
X92582419Y-115732985D01*
X92752068Y-115681522D01*
X92928500Y-115664146D01*
X93104931Y-115681522D01*
X93104931Y-115681522D01*
G37*
G36*
X98184931Y-115681522D02*
X98354576Y-115732984D01*
X98510936Y-115816559D01*
X98647975Y-115929025D01*
X98760444Y-116066067D01*
X98844015Y-116222419D01*
X98895478Y-116392068D01*
X98908500Y-116524289D01*
X98908500Y-117212710D01*
X98895478Y-117344931D01*
X98844016Y-117514576D01*
X98844014Y-117514581D01*
X98774673Y-117644309D01*
X98760441Y-117670936D01*
X98647975Y-117807975D01*
X98510933Y-117920444D01*
X98354581Y-118004015D01*
X98184932Y-118055478D01*
X98008500Y-118072854D01*
X97832069Y-118055478D01*
X97662420Y-118004015D01*
X97506068Y-117920444D01*
X97369026Y-117807975D01*
X97256557Y-117670933D01*
X97172986Y-117514581D01*
X97121522Y-117344932D01*
X97108500Y-117212711D01*
X97108500Y-116524290D01*
X97121522Y-116392069D01*
X97172984Y-116222424D01*
X97256559Y-116066064D01*
X97369025Y-115929025D01*
X97506067Y-115816556D01*
X97662419Y-115732985D01*
X97832068Y-115681522D01*
X98008500Y-115664146D01*
X98184931Y-115681522D01*
X98184931Y-115681522D01*
G37*
G36*
X103264931Y-115681522D02*
X103434576Y-115732984D01*
X103590936Y-115816559D01*
X103727975Y-115929025D01*
X103840444Y-116066067D01*
X103924015Y-116222419D01*
X103975478Y-116392068D01*
X103988500Y-116524289D01*
X103988500Y-117212710D01*
X103975478Y-117344931D01*
X103924016Y-117514576D01*
X103924014Y-117514581D01*
X103854673Y-117644309D01*
X103840441Y-117670936D01*
X103727975Y-117807975D01*
X103590933Y-117920444D01*
X103434581Y-118004015D01*
X103264932Y-118055478D01*
X103088500Y-118072854D01*
X102912069Y-118055478D01*
X102742420Y-118004015D01*
X102586068Y-117920444D01*
X102449026Y-117807975D01*
X102336557Y-117670933D01*
X102252986Y-117514581D01*
X102201522Y-117344932D01*
X102188500Y-117212711D01*
X102188500Y-116524290D01*
X102201522Y-116392069D01*
X102252984Y-116222424D01*
X102336559Y-116066064D01*
X102449025Y-115929025D01*
X102586067Y-115816556D01*
X102742419Y-115732985D01*
X102912068Y-115681522D01*
X103088500Y-115664146D01*
X103264931Y-115681522D01*
X103264931Y-115681522D01*
G37*
G36*
X108344931Y-115681522D02*
X108514576Y-115732984D01*
X108670936Y-115816559D01*
X108807975Y-115929025D01*
X108920444Y-116066067D01*
X109004015Y-116222419D01*
X109055478Y-116392068D01*
X109068500Y-116524289D01*
X109068500Y-117212710D01*
X109055478Y-117344931D01*
X109004016Y-117514576D01*
X109004014Y-117514581D01*
X108934673Y-117644309D01*
X108920441Y-117670936D01*
X108807975Y-117807975D01*
X108670933Y-117920444D01*
X108514581Y-118004015D01*
X108344932Y-118055478D01*
X108168500Y-118072854D01*
X107992069Y-118055478D01*
X107822420Y-118004015D01*
X107666068Y-117920444D01*
X107529026Y-117807975D01*
X107416557Y-117670933D01*
X107332986Y-117514581D01*
X107281522Y-117344932D01*
X107268500Y-117212711D01*
X107268500Y-116524290D01*
X107281522Y-116392069D01*
X107332984Y-116222424D01*
X107416559Y-116066064D01*
X107529025Y-115929025D01*
X107666067Y-115816556D01*
X107822419Y-115732985D01*
X107992068Y-115681522D01*
X108168500Y-115664146D01*
X108344931Y-115681522D01*
X108344931Y-115681522D01*
G37*
G36*
X113424931Y-115681522D02*
X113594576Y-115732984D01*
X113750936Y-115816559D01*
X113887975Y-115929025D01*
X114000444Y-116066067D01*
X114084015Y-116222419D01*
X114135478Y-116392068D01*
X114148500Y-116524289D01*
X114148500Y-117212710D01*
X114135478Y-117344931D01*
X114084016Y-117514576D01*
X114084014Y-117514581D01*
X114014673Y-117644309D01*
X114000441Y-117670936D01*
X113887975Y-117807975D01*
X113750933Y-117920444D01*
X113594581Y-118004015D01*
X113424932Y-118055478D01*
X113248500Y-118072854D01*
X113072069Y-118055478D01*
X112902420Y-118004015D01*
X112746068Y-117920444D01*
X112609026Y-117807975D01*
X112496557Y-117670933D01*
X112412986Y-117514581D01*
X112361522Y-117344932D01*
X112348500Y-117212711D01*
X112348500Y-116524290D01*
X112361522Y-116392069D01*
X112412984Y-116222424D01*
X112496559Y-116066064D01*
X112609025Y-115929025D01*
X112746067Y-115816556D01*
X112902419Y-115732985D01*
X113072068Y-115681522D01*
X113248500Y-115664146D01*
X113424931Y-115681522D01*
X113424931Y-115681522D01*
G37*
G36*
X62624931Y-115681522D02*
X62794576Y-115732984D01*
X62950936Y-115816559D01*
X63087975Y-115929025D01*
X63200444Y-116066067D01*
X63284015Y-116222419D01*
X63335478Y-116392068D01*
X63348500Y-116524289D01*
X63348500Y-117212710D01*
X63335478Y-117344931D01*
X63284016Y-117514576D01*
X63284014Y-117514581D01*
X63214673Y-117644309D01*
X63200441Y-117670936D01*
X63087975Y-117807975D01*
X62950933Y-117920444D01*
X62794581Y-118004015D01*
X62624932Y-118055478D01*
X62448500Y-118072854D01*
X62272069Y-118055478D01*
X62102420Y-118004015D01*
X61946068Y-117920444D01*
X61809026Y-117807975D01*
X61696557Y-117670933D01*
X61612986Y-117514581D01*
X61561522Y-117344932D01*
X61548500Y-117212711D01*
X61548500Y-116524290D01*
X61561522Y-116392069D01*
X61612984Y-116222424D01*
X61696559Y-116066064D01*
X61809025Y-115929025D01*
X61946067Y-115816556D01*
X62102419Y-115732985D01*
X62272068Y-115681522D01*
X62448500Y-115664146D01*
X62624931Y-115681522D01*
X62624931Y-115681522D01*
G37*
G36*
X54876000Y-110218000D02*
X52876000Y-110218000D01*
X52876000Y-107518000D01*
X54876000Y-107518000D01*
X54876000Y-110218000D01*
X54876000Y-110218000D01*
G37*
G36*
X68910000Y-109900000D02*
X66210000Y-109900000D01*
X66210000Y-107900000D01*
X68910000Y-107900000D01*
X68910000Y-109900000D01*
X68910000Y-109900000D01*
G37*
G36*
X64910000Y-109900000D02*
X62210000Y-109900000D01*
X62210000Y-107900000D01*
X64910000Y-107900000D01*
X64910000Y-109900000D01*
X64910000Y-109900000D01*
G37*
G36*
X83769000Y-109519000D02*
X81069000Y-109519000D01*
X81069000Y-107519000D01*
X83769000Y-107519000D01*
X83769000Y-109519000D01*
X83769000Y-109519000D01*
G37*
G36*
X79769000Y-109519000D02*
X77069000Y-109519000D01*
X77069000Y-107519000D01*
X79769000Y-107519000D01*
X79769000Y-109519000D01*
X79769000Y-109519000D01*
G37*
G36*
X99962000Y-109392000D02*
X97262000Y-109392000D01*
X97262000Y-107392000D01*
X99962000Y-107392000D01*
X99962000Y-109392000D01*
X99962000Y-109392000D01*
G37*
G36*
X89802000Y-109392000D02*
X87102000Y-109392000D01*
X87102000Y-107392000D01*
X89802000Y-107392000D01*
X89802000Y-109392000D01*
X89802000Y-109392000D01*
G37*
G36*
X93802000Y-109392000D02*
X91102000Y-109392000D01*
X91102000Y-107392000D01*
X93802000Y-107392000D01*
X93802000Y-109392000D01*
X93802000Y-109392000D01*
G37*
G36*
X103962000Y-109392000D02*
X101262000Y-109392000D01*
X101262000Y-107392000D01*
X103962000Y-107392000D01*
X103962000Y-109392000D01*
X103962000Y-109392000D01*
G37*
G36*
X113614000Y-109392000D02*
X110914000Y-109392000D01*
X110914000Y-107392000D01*
X113614000Y-107392000D01*
X113614000Y-109392000D01*
X113614000Y-109392000D01*
G37*
G36*
X109614000Y-109392000D02*
X106914000Y-109392000D01*
X106914000Y-107392000D01*
X109614000Y-107392000D01*
X109614000Y-109392000D01*
X109614000Y-109392000D01*
G37*
G36*
X73397000Y-107444000D02*
X71947000Y-107444000D01*
X71947000Y-105744000D01*
X73397000Y-105744000D01*
X73397000Y-107444000D01*
X73397000Y-107444000D01*
G37*
G36*
X60813099Y-101047921D02*
X61012737Y-101087631D01*
X61576901Y-101321315D01*
X62084635Y-101660572D01*
X62516428Y-102092365D01*
X62855685Y-102600099D01*
X63089369Y-103164263D01*
X63089369Y-103164264D01*
X63159732Y-103518000D01*
X63208500Y-103763177D01*
X63208500Y-104373823D01*
X63089369Y-104972737D01*
X62855685Y-105536901D01*
X62516428Y-106044635D01*
X62084635Y-106476428D01*
X61576901Y-106815685D01*
X61012737Y-107049369D01*
X60813099Y-107089079D01*
X60413825Y-107168500D01*
X59803175Y-107168500D01*
X59403901Y-107089079D01*
X59204263Y-107049369D01*
X58640099Y-106815685D01*
X58132365Y-106476428D01*
X57700572Y-106044635D01*
X57361315Y-105536901D01*
X57127631Y-104972737D01*
X57008500Y-104373823D01*
X57008500Y-103763177D01*
X57057269Y-103518000D01*
X57127631Y-103164264D01*
X57127631Y-103164263D01*
X57361315Y-102600099D01*
X57700572Y-102092365D01*
X58132365Y-101660572D01*
X58640099Y-101321315D01*
X59204263Y-101087631D01*
X59403901Y-101047921D01*
X59803175Y-100968500D01*
X60413825Y-100968500D01*
X60813099Y-101047921D01*
X60813099Y-101047921D01*
G37*
G36*
X69083000Y-106594000D02*
X68133000Y-106594000D01*
X68133000Y-105594000D01*
X69083000Y-105594000D01*
X69083000Y-106594000D01*
X69083000Y-106594000D01*
G37*
G36*
X54876000Y-106218000D02*
X52876000Y-106218000D01*
X52876000Y-103518000D01*
X54876000Y-103518000D01*
X54876000Y-106218000D01*
X54876000Y-106218000D01*
G37*
G36*
X82462000Y-105482000D02*
X80662000Y-105482000D01*
X80662000Y-103682000D01*
X82462000Y-103682000D01*
X82462000Y-105482000D01*
X82462000Y-105482000D01*
G37*
G36*
X111926000Y-105482000D02*
X110126000Y-105482000D01*
X110126000Y-103682000D01*
X111926000Y-103682000D01*
X111926000Y-105482000D01*
X111926000Y-105482000D01*
G37*
G36*
X99734000Y-105482000D02*
X97934000Y-105482000D01*
X97934000Y-103682000D01*
X99734000Y-103682000D01*
X99734000Y-105482000D01*
X99734000Y-105482000D01*
G37*
G36*
X79922000Y-105482000D02*
X78122000Y-105482000D01*
X78122000Y-103682000D01*
X79922000Y-103682000D01*
X79922000Y-105482000D01*
X79922000Y-105482000D01*
G37*
G36*
X89574000Y-105482000D02*
X87774000Y-105482000D01*
X87774000Y-103682000D01*
X89574000Y-103682000D01*
X89574000Y-105482000D01*
X89574000Y-105482000D01*
G37*
G36*
X92114000Y-105482000D02*
X90314000Y-105482000D01*
X90314000Y-103682000D01*
X92114000Y-103682000D01*
X92114000Y-105482000D01*
X92114000Y-105482000D01*
G37*
G36*
X109386000Y-105482000D02*
X107586000Y-105482000D01*
X107586000Y-103682000D01*
X109386000Y-103682000D01*
X109386000Y-105482000D01*
X109386000Y-105482000D01*
G37*
G36*
X102274000Y-105482000D02*
X100474000Y-105482000D01*
X100474000Y-103682000D01*
X102274000Y-103682000D01*
X102274000Y-105482000D01*
X102274000Y-105482000D01*
G37*
G36*
X69083000Y-105094000D02*
X68133000Y-105094000D01*
X68133000Y-104094000D01*
X69083000Y-104094000D01*
X69083000Y-105094000D01*
X69083000Y-105094000D01*
G37*
G36*
X73397000Y-104944000D02*
X71947000Y-104944000D01*
X71947000Y-103244000D01*
X73397000Y-103244000D01*
X73397000Y-104944000D01*
X73397000Y-104944000D01*
G37*
G36*
X70100000Y-101974000D02*
X66100000Y-101974000D01*
X66100000Y-99774000D01*
X70100000Y-99774000D01*
X70100000Y-101974000D01*
X70100000Y-101974000D01*
G37*
G36*
X94494500Y-99206500D02*
X93394500Y-99206500D01*
X93394500Y-97806500D01*
X94494500Y-97806500D01*
X94494500Y-99206500D01*
X94494500Y-99206500D01*
G37*
G36*
X114306500Y-99206500D02*
X113206500Y-99206500D01*
X113206500Y-97806500D01*
X114306500Y-97806500D01*
X114306500Y-99206500D01*
X114306500Y-99206500D01*
G37*
G36*
X104654500Y-99206500D02*
X103554500Y-99206500D01*
X103554500Y-97806500D01*
X104654500Y-97806500D01*
X104654500Y-99206500D01*
X104654500Y-99206500D01*
G37*
G36*
X84842500Y-99206500D02*
X83742500Y-99206500D01*
X83742500Y-97806500D01*
X84842500Y-97806500D01*
X84842500Y-99206500D01*
X84842500Y-99206500D01*
G37*
G36*
X102274000Y-97862000D02*
X100474000Y-97862000D01*
X100474000Y-96062000D01*
X102274000Y-96062000D01*
X102274000Y-97862000D01*
X102274000Y-97862000D01*
G37*
G36*
X111926000Y-97862000D02*
X110126000Y-97862000D01*
X110126000Y-96062000D01*
X111926000Y-96062000D01*
X111926000Y-97862000D01*
X111926000Y-97862000D01*
G37*
G36*
X99734000Y-97862000D02*
X97934000Y-97862000D01*
X97934000Y-96062000D01*
X99734000Y-96062000D01*
X99734000Y-97862000D01*
X99734000Y-97862000D01*
G37*
G36*
X82462000Y-97862000D02*
X80662000Y-97862000D01*
X80662000Y-96062000D01*
X82462000Y-96062000D01*
X82462000Y-97862000D01*
X82462000Y-97862000D01*
G37*
G36*
X79922000Y-97862000D02*
X78122000Y-97862000D01*
X78122000Y-96062000D01*
X79922000Y-96062000D01*
X79922000Y-97862000D01*
X79922000Y-97862000D01*
G37*
G36*
X89574000Y-97862000D02*
X87774000Y-97862000D01*
X87774000Y-96062000D01*
X89574000Y-96062000D01*
X89574000Y-97862000D01*
X89574000Y-97862000D01*
G37*
G36*
X109386000Y-97862000D02*
X107586000Y-97862000D01*
X107586000Y-96062000D01*
X109386000Y-96062000D01*
X109386000Y-97862000D01*
X109386000Y-97862000D01*
G37*
G36*
X92114000Y-97862000D02*
X90314000Y-97862000D01*
X90314000Y-96062000D01*
X92114000Y-96062000D01*
X92114000Y-97862000D01*
X92114000Y-97862000D01*
G37*
G36*
X58474818Y-95908911D02*
X58547267Y-95923322D01*
X58603803Y-95946740D01*
X58683757Y-95979858D01*
X58806600Y-96061939D01*
X58911061Y-96166400D01*
X58993142Y-96289243D01*
X59049678Y-96425734D01*
X59078500Y-96570630D01*
X59078500Y-96718370D01*
X59049678Y-96863266D01*
X58993142Y-96999757D01*
X58911061Y-97122600D01*
X58806600Y-97227061D01*
X58683757Y-97309142D01*
X58603803Y-97342260D01*
X58547267Y-97365678D01*
X58474818Y-97380089D01*
X58402370Y-97394500D01*
X58254630Y-97394500D01*
X58182182Y-97380089D01*
X58109733Y-97365678D01*
X58053197Y-97342260D01*
X57973243Y-97309142D01*
X57850400Y-97227061D01*
X57745939Y-97122600D01*
X57663858Y-96999757D01*
X57607322Y-96863266D01*
X57578500Y-96718370D01*
X57578500Y-96570630D01*
X57607322Y-96425734D01*
X57663858Y-96289243D01*
X57745939Y-96166400D01*
X57850400Y-96061939D01*
X57973243Y-95979858D01*
X58053197Y-95946740D01*
X58109733Y-95923322D01*
X58182182Y-95908911D01*
X58254630Y-95894500D01*
X58402370Y-95894500D01*
X58474818Y-95908911D01*
X58474818Y-95908911D01*
G37*
G36*
X55578500Y-97394500D02*
X54078500Y-97394500D01*
X54078500Y-95894500D01*
X55578500Y-95894500D01*
X55578500Y-97394500D01*
X55578500Y-97394500D01*
G37*
G36*
X104654500Y-97006500D02*
X103554500Y-97006500D01*
X103554500Y-95606500D01*
X104654500Y-95606500D01*
X104654500Y-97006500D01*
X104654500Y-97006500D01*
G37*
G36*
X114306500Y-97006500D02*
X113206500Y-97006500D01*
X113206500Y-95606500D01*
X114306500Y-95606500D01*
X114306500Y-97006500D01*
X114306500Y-97006500D01*
G37*
G36*
X84842500Y-97006500D02*
X83742500Y-97006500D01*
X83742500Y-95606500D01*
X84842500Y-95606500D01*
X84842500Y-97006500D01*
X84842500Y-97006500D01*
G37*
G36*
X94494500Y-97006500D02*
X93394500Y-97006500D01*
X93394500Y-95606500D01*
X94494500Y-95606500D01*
X94494500Y-97006500D01*
X94494500Y-97006500D01*
G37*
G36*
X68950000Y-95674000D02*
X67250000Y-95674000D01*
X67250000Y-93474000D01*
X68950000Y-93474000D01*
X68950000Y-95674000D01*
X68950000Y-95674000D01*
G37*
G36*
X66650000Y-95674000D02*
X64950000Y-95674000D01*
X64950000Y-93474000D01*
X66650000Y-93474000D01*
X66650000Y-95674000D01*
X66650000Y-95674000D01*
G37*
G36*
X71250000Y-95674000D02*
X69550000Y-95674000D01*
X69550000Y-93474000D01*
X71250000Y-93474000D01*
X71250000Y-95674000D01*
X71250000Y-95674000D01*
G37*
G36*
X98130000Y-94702000D02*
X97130000Y-94702000D01*
X97130000Y-93602000D01*
X98130000Y-93602000D01*
X98130000Y-94702000D01*
X98130000Y-94702000D01*
G37*
G36*
X107782000Y-94702000D02*
X106782000Y-94702000D01*
X106782000Y-93602000D01*
X107782000Y-93602000D01*
X107782000Y-94702000D01*
X107782000Y-94702000D01*
G37*
G36*
X109682000Y-94702000D02*
X108682000Y-94702000D01*
X108682000Y-93602000D01*
X109682000Y-93602000D01*
X109682000Y-94702000D01*
X109682000Y-94702000D01*
G37*
G36*
X100030000Y-94702000D02*
X99030000Y-94702000D01*
X99030000Y-93602000D01*
X100030000Y-93602000D01*
X100030000Y-94702000D01*
X100030000Y-94702000D01*
G37*
G36*
X80218000Y-94702000D02*
X79218000Y-94702000D01*
X79218000Y-93602000D01*
X80218000Y-93602000D01*
X80218000Y-94702000D01*
X80218000Y-94702000D01*
G37*
G36*
X87970000Y-94702000D02*
X86970000Y-94702000D01*
X86970000Y-93602000D01*
X87970000Y-93602000D01*
X87970000Y-94702000D01*
X87970000Y-94702000D01*
G37*
G36*
X78318000Y-94702000D02*
X77318000Y-94702000D01*
X77318000Y-93602000D01*
X78318000Y-93602000D01*
X78318000Y-94702000D01*
X78318000Y-94702000D01*
G37*
G36*
X89870000Y-94702000D02*
X88870000Y-94702000D01*
X88870000Y-93602000D01*
X89870000Y-93602000D01*
X89870000Y-94702000D01*
X89870000Y-94702000D01*
G37*
G36*
X92018000Y-94442500D02*
X90918000Y-94442500D01*
X90918000Y-93742500D01*
X92018000Y-93742500D01*
X92018000Y-94442500D01*
X92018000Y-94442500D01*
G37*
G36*
X84842500Y-94442500D02*
X83742500Y-94442500D01*
X83742500Y-93742500D01*
X84842500Y-93742500D01*
X84842500Y-94442500D01*
X84842500Y-94442500D01*
G37*
G36*
X114306500Y-94442500D02*
X113206500Y-94442500D01*
X113206500Y-93742500D01*
X114306500Y-93742500D01*
X114306500Y-94442500D01*
X114306500Y-94442500D01*
G37*
G36*
X93986500Y-94442500D02*
X92886500Y-94442500D01*
X92886500Y-93742500D01*
X93986500Y-93742500D01*
X93986500Y-94442500D01*
X93986500Y-94442500D01*
G37*
G36*
X112274500Y-94442500D02*
X111174500Y-94442500D01*
X111174500Y-93742500D01*
X112274500Y-93742500D01*
X112274500Y-94442500D01*
X112274500Y-94442500D01*
G37*
G36*
X102178000Y-94442500D02*
X101078000Y-94442500D01*
X101078000Y-93742500D01*
X102178000Y-93742500D01*
X102178000Y-94442500D01*
X102178000Y-94442500D01*
G37*
G36*
X104146500Y-94442500D02*
X103046500Y-94442500D01*
X103046500Y-93742500D01*
X104146500Y-93742500D01*
X104146500Y-94442500D01*
X104146500Y-94442500D01*
G37*
G36*
X82366000Y-94442500D02*
X81266000Y-94442500D01*
X81266000Y-93742500D01*
X82366000Y-93742500D01*
X82366000Y-94442500D01*
X82366000Y-94442500D01*
G37*
G36*
X61754000Y-93627000D02*
X60754000Y-93627000D01*
X60754000Y-92677000D01*
X61754000Y-92677000D01*
X61754000Y-93627000D01*
X61754000Y-93627000D01*
G37*
G36*
X63254000Y-93627000D02*
X62254000Y-93627000D01*
X62254000Y-92677000D01*
X63254000Y-92677000D01*
X63254000Y-93627000D01*
X63254000Y-93627000D01*
G37*
G36*
X102178000Y-92942500D02*
X101078000Y-92942500D01*
X101078000Y-92242500D01*
X102178000Y-92242500D01*
X102178000Y-92942500D01*
X102178000Y-92942500D01*
G37*
G36*
X82366000Y-92942500D02*
X81266000Y-92942500D01*
X81266000Y-92242500D01*
X82366000Y-92242500D01*
X82366000Y-92942500D01*
X82366000Y-92942500D01*
G37*
G36*
X104146500Y-92942500D02*
X103046500Y-92942500D01*
X103046500Y-92242500D01*
X104146500Y-92242500D01*
X104146500Y-92942500D01*
X104146500Y-92942500D01*
G37*
G36*
X112274500Y-92942500D02*
X111174500Y-92942500D01*
X111174500Y-92242500D01*
X112274500Y-92242500D01*
X112274500Y-92942500D01*
X112274500Y-92942500D01*
G37*
G36*
X114306500Y-92942500D02*
X113206500Y-92942500D01*
X113206500Y-92242500D01*
X114306500Y-92242500D01*
X114306500Y-92942500D01*
X114306500Y-92942500D01*
G37*
G36*
X93986500Y-92942500D02*
X92886500Y-92942500D01*
X92886500Y-92242500D01*
X93986500Y-92242500D01*
X93986500Y-92942500D01*
X93986500Y-92942500D01*
G37*
G36*
X92018000Y-92942500D02*
X90918000Y-92942500D01*
X90918000Y-92242500D01*
X92018000Y-92242500D01*
X92018000Y-92942500D01*
X92018000Y-92942500D01*
G37*
G36*
X84842500Y-92942500D02*
X83742500Y-92942500D01*
X83742500Y-92242500D01*
X84842500Y-92242500D01*
X84842500Y-92942500D01*
X84842500Y-92942500D01*
G37*
G36*
X108732000Y-92702000D02*
X107732000Y-92702000D01*
X107732000Y-91602000D01*
X108732000Y-91602000D01*
X108732000Y-92702000D01*
X108732000Y-92702000D01*
G37*
G36*
X99080000Y-92702000D02*
X98080000Y-92702000D01*
X98080000Y-91602000D01*
X99080000Y-91602000D01*
X99080000Y-92702000D01*
X99080000Y-92702000D01*
G37*
G36*
X88920000Y-92702000D02*
X87920000Y-92702000D01*
X87920000Y-91602000D01*
X88920000Y-91602000D01*
X88920000Y-92702000D01*
X88920000Y-92702000D01*
G37*
G36*
X79268000Y-92702000D02*
X78268000Y-92702000D01*
X78268000Y-91602000D01*
X79268000Y-91602000D01*
X79268000Y-92702000D01*
X79268000Y-92702000D01*
G37*
G36*
X59343440Y-91525060D02*
X57593440Y-91525060D01*
X57593440Y-90725060D01*
X59343440Y-90725060D01*
X59343440Y-91525060D01*
X59343440Y-91525060D01*
G37*
G36*
X64743440Y-91525060D02*
X62993440Y-91525060D01*
X62993440Y-90725060D01*
X64743440Y-90725060D01*
X64743440Y-91525060D01*
X64743440Y-91525060D01*
G37*
G36*
X56891000Y-90338000D02*
X55941000Y-90338000D01*
X55941000Y-89338000D01*
X56891000Y-89338000D01*
X56891000Y-90338000D01*
X56891000Y-90338000D01*
G37*
G36*
X59343440Y-90255060D02*
X57593440Y-90255060D01*
X57593440Y-89455060D01*
X59343440Y-89455060D01*
X59343440Y-90255060D01*
X59343440Y-90255060D01*
G37*
G36*
X64743440Y-90255060D02*
X62993440Y-90255060D01*
X62993440Y-89455060D01*
X64743440Y-89455060D01*
X64743440Y-90255060D01*
X64743440Y-90255060D01*
G37*
G36*
X68144500Y-89574500D02*
X67444500Y-89574500D01*
X67444500Y-88474500D01*
X68144500Y-88474500D01*
X68144500Y-89574500D01*
X68144500Y-89574500D01*
G37*
G36*
X69644500Y-89574500D02*
X68944500Y-89574500D01*
X68944500Y-88474500D01*
X69644500Y-88474500D01*
X69644500Y-89574500D01*
X69644500Y-89574500D01*
G37*
G36*
X76385500Y-89512500D02*
X75435500Y-89512500D01*
X75435500Y-88512500D01*
X76385500Y-88512500D01*
X76385500Y-89512500D01*
X76385500Y-89512500D01*
G37*
G36*
X78238500Y-89362500D02*
X77138500Y-89362500D01*
X77138500Y-88662500D01*
X78238500Y-88662500D01*
X78238500Y-89362500D01*
X78238500Y-89362500D01*
G37*
G36*
X59343440Y-88985060D02*
X57593440Y-88985060D01*
X57593440Y-88185060D01*
X59343440Y-88185060D01*
X59343440Y-88985060D01*
X59343440Y-88985060D01*
G37*
G36*
X64743440Y-88985060D02*
X62993440Y-88985060D01*
X62993440Y-88185060D01*
X64743440Y-88185060D01*
X64743440Y-88985060D01*
X64743440Y-88985060D01*
G37*
G36*
X56891000Y-88838000D02*
X55941000Y-88838000D01*
X55941000Y-87838000D01*
X56891000Y-87838000D01*
X56891000Y-88838000D01*
X56891000Y-88838000D01*
G37*
G36*
X76385500Y-88012500D02*
X75435500Y-88012500D01*
X75435500Y-87012500D01*
X76385500Y-87012500D01*
X76385500Y-88012500D01*
X76385500Y-88012500D01*
G37*
G36*
X78238500Y-87862500D02*
X77138500Y-87862500D01*
X77138500Y-87162500D01*
X78238500Y-87162500D01*
X78238500Y-87862500D01*
X78238500Y-87862500D01*
G37*
G36*
X67636500Y-87796500D02*
X66236500Y-87796500D01*
X66236500Y-86696500D01*
X67636500Y-86696500D01*
X67636500Y-87796500D01*
X67636500Y-87796500D01*
G37*
G36*
X69836500Y-87796500D02*
X68436500Y-87796500D01*
X68436500Y-86696500D01*
X69836500Y-86696500D01*
X69836500Y-87796500D01*
X69836500Y-87796500D01*
G37*
G36*
X59343440Y-87715060D02*
X57593440Y-87715060D01*
X57593440Y-86915060D01*
X59343440Y-86915060D01*
X59343440Y-87715060D01*
X59343440Y-87715060D01*
G37*
G36*
X64743440Y-87715060D02*
X62993440Y-87715060D01*
X62993440Y-86915060D01*
X64743440Y-86915060D01*
X64743440Y-87715060D01*
X64743440Y-87715060D01*
G37*
G36*
X114450732Y-85802246D02*
X114540270Y-85829407D01*
X114629809Y-85856568D01*
X114794847Y-85944783D01*
X114939501Y-86063499D01*
X115058217Y-86208153D01*
X115146432Y-86373191D01*
X115200754Y-86552269D01*
X115219096Y-86738500D01*
X115200754Y-86924731D01*
X115146432Y-87103809D01*
X115058217Y-87268847D01*
X114939501Y-87413501D01*
X114794847Y-87532217D01*
X114629809Y-87620432D01*
X114540270Y-87647593D01*
X114450732Y-87674754D01*
X114380948Y-87681627D01*
X114311166Y-87688500D01*
X114217834Y-87688500D01*
X114148052Y-87681627D01*
X114078268Y-87674754D01*
X113988730Y-87647593D01*
X113899191Y-87620432D01*
X113734153Y-87532217D01*
X113589499Y-87413501D01*
X113470783Y-87268847D01*
X113382568Y-87103809D01*
X113328246Y-86924731D01*
X113309904Y-86738500D01*
X113328246Y-86552269D01*
X113382568Y-86373191D01*
X113470783Y-86208153D01*
X113589499Y-86063499D01*
X113734153Y-85944783D01*
X113899191Y-85856568D01*
X113988730Y-85829407D01*
X114078268Y-85802246D01*
X114217834Y-85788500D01*
X114311166Y-85788500D01*
X114450732Y-85802246D01*
X114450732Y-85802246D01*
G37*
G36*
X111910732Y-85802246D02*
X112000270Y-85829407D01*
X112089809Y-85856568D01*
X112254847Y-85944783D01*
X112399501Y-86063499D01*
X112518217Y-86208153D01*
X112606432Y-86373191D01*
X112660754Y-86552269D01*
X112679096Y-86738500D01*
X112660754Y-86924731D01*
X112606432Y-87103809D01*
X112518217Y-87268847D01*
X112399501Y-87413501D01*
X112254847Y-87532217D01*
X112089809Y-87620432D01*
X112000270Y-87647593D01*
X111910732Y-87674754D01*
X111840948Y-87681627D01*
X111771166Y-87688500D01*
X111677834Y-87688500D01*
X111608052Y-87681627D01*
X111538268Y-87674754D01*
X111448730Y-87647593D01*
X111359191Y-87620432D01*
X111194153Y-87532217D01*
X111049499Y-87413501D01*
X110930783Y-87268847D01*
X110842568Y-87103809D01*
X110788246Y-86924731D01*
X110769904Y-86738500D01*
X110788246Y-86552269D01*
X110842568Y-86373191D01*
X110930783Y-86208153D01*
X111049499Y-86063499D01*
X111194153Y-85944783D01*
X111359191Y-85856568D01*
X111448730Y-85829407D01*
X111538268Y-85802246D01*
X111677834Y-85788500D01*
X111771166Y-85788500D01*
X111910732Y-85802246D01*
X111910732Y-85802246D01*
G37*
G36*
X77775818Y-83728458D02*
X77852517Y-83751725D01*
X77879497Y-83759909D01*
X77975038Y-83810976D01*
X77975041Y-83810978D01*
X77975042Y-83810979D01*
X78058790Y-83879710D01*
X78058792Y-83879713D01*
X78127522Y-83963458D01*
X78178591Y-84059002D01*
X78180904Y-84066628D01*
X78183383Y-84074799D01*
X78192759Y-84097436D01*
X78206373Y-84117811D01*
X78223700Y-84135138D01*
X78244075Y-84148752D01*
X78266714Y-84158129D01*
X78290747Y-84162910D01*
X78315251Y-84162910D01*
X78339285Y-84158130D01*
X78361924Y-84148753D01*
X78382299Y-84135139D01*
X78399626Y-84117812D01*
X78413240Y-84097437D01*
X78422617Y-84074798D01*
X78427407Y-84059007D01*
X78478476Y-83963462D01*
X78478479Y-83963458D01*
X78547210Y-83879710D01*
X78573679Y-83857987D01*
X78630958Y-83810978D01*
X78726502Y-83759909D01*
X78753482Y-83751725D01*
X78830181Y-83728458D01*
X78902060Y-83721379D01*
X78937999Y-83717839D01*
X78938000Y-83717839D01*
X79045818Y-83728458D01*
X79122517Y-83751725D01*
X79149497Y-83759909D01*
X79245038Y-83810976D01*
X79245041Y-83810978D01*
X79245042Y-83810979D01*
X79328790Y-83879710D01*
X79328792Y-83879713D01*
X79397522Y-83963458D01*
X79448591Y-84059002D01*
X79450904Y-84066628D01*
X79453383Y-84074799D01*
X79462759Y-84097436D01*
X79476373Y-84117811D01*
X79493700Y-84135138D01*
X79514075Y-84148752D01*
X79536714Y-84158129D01*
X79560747Y-84162910D01*
X79585251Y-84162910D01*
X79609285Y-84158130D01*
X79631924Y-84148753D01*
X79652299Y-84135139D01*
X79669626Y-84117812D01*
X79683240Y-84097437D01*
X79692617Y-84074798D01*
X79697407Y-84059007D01*
X79748476Y-83963462D01*
X79748479Y-83963458D01*
X79817210Y-83879710D01*
X79843679Y-83857987D01*
X79900958Y-83810978D01*
X79996502Y-83759909D01*
X80023482Y-83751725D01*
X80100181Y-83728458D01*
X80172060Y-83721379D01*
X80207999Y-83717839D01*
X80208000Y-83717839D01*
X80315818Y-83728458D01*
X80392517Y-83751725D01*
X80419497Y-83759909D01*
X80515038Y-83810976D01*
X80515041Y-83810978D01*
X80515042Y-83810979D01*
X80598790Y-83879710D01*
X80598792Y-83879713D01*
X80667522Y-83963458D01*
X80718591Y-84059002D01*
X80720904Y-84066628D01*
X80723383Y-84074799D01*
X80732759Y-84097436D01*
X80746373Y-84117811D01*
X80763700Y-84135138D01*
X80784075Y-84148752D01*
X80806714Y-84158129D01*
X80830747Y-84162910D01*
X80855251Y-84162910D01*
X80879285Y-84158130D01*
X80901924Y-84148753D01*
X80922299Y-84135139D01*
X80939626Y-84117812D01*
X80953240Y-84097437D01*
X80962617Y-84074798D01*
X80967407Y-84059007D01*
X81018476Y-83963462D01*
X81018479Y-83963458D01*
X81087210Y-83879710D01*
X81113679Y-83857987D01*
X81170958Y-83810978D01*
X81266502Y-83759909D01*
X81293482Y-83751725D01*
X81370181Y-83728458D01*
X81442060Y-83721379D01*
X81477999Y-83717839D01*
X81478000Y-83717839D01*
X81585818Y-83728458D01*
X81662517Y-83751725D01*
X81689497Y-83759909D01*
X81785038Y-83810976D01*
X81785041Y-83810978D01*
X81785042Y-83810979D01*
X81868790Y-83879710D01*
X81868792Y-83879713D01*
X81937522Y-83963458D01*
X81988591Y-84059002D01*
X81990904Y-84066628D01*
X81993383Y-84074799D01*
X82002759Y-84097436D01*
X82016373Y-84117811D01*
X82033700Y-84135138D01*
X82054075Y-84148752D01*
X82076714Y-84158129D01*
X82100747Y-84162910D01*
X82125251Y-84162910D01*
X82149285Y-84158130D01*
X82171924Y-84148753D01*
X82192299Y-84135139D01*
X82209626Y-84117812D01*
X82223240Y-84097437D01*
X82232617Y-84074798D01*
X82237407Y-84059007D01*
X82288476Y-83963462D01*
X82288479Y-83963458D01*
X82357210Y-83879710D01*
X82383679Y-83857987D01*
X82440958Y-83810978D01*
X82536502Y-83759909D01*
X82563482Y-83751725D01*
X82640181Y-83728458D01*
X82712060Y-83721379D01*
X82747999Y-83717839D01*
X82748000Y-83717839D01*
X82855818Y-83728458D01*
X82932517Y-83751725D01*
X82959497Y-83759909D01*
X83055038Y-83810976D01*
X83055041Y-83810978D01*
X83055042Y-83810979D01*
X83138790Y-83879710D01*
X83138792Y-83879713D01*
X83207522Y-83963458D01*
X83258591Y-84059002D01*
X83260904Y-84066628D01*
X83263383Y-84074799D01*
X83272759Y-84097436D01*
X83286373Y-84117811D01*
X83303700Y-84135138D01*
X83324075Y-84148752D01*
X83346714Y-84158129D01*
X83370747Y-84162910D01*
X83395251Y-84162910D01*
X83419285Y-84158130D01*
X83441924Y-84148753D01*
X83462299Y-84135139D01*
X83479626Y-84117812D01*
X83493240Y-84097437D01*
X83502617Y-84074798D01*
X83507407Y-84059007D01*
X83558476Y-83963462D01*
X83558479Y-83963458D01*
X83627210Y-83879710D01*
X83653679Y-83857987D01*
X83710958Y-83810978D01*
X83806502Y-83759909D01*
X83833482Y-83751725D01*
X83910181Y-83728458D01*
X83982060Y-83721379D01*
X84017999Y-83717839D01*
X84018000Y-83717839D01*
X84125818Y-83728458D01*
X84202517Y-83751725D01*
X84229497Y-83759909D01*
X84325038Y-83810976D01*
X84325041Y-83810978D01*
X84325042Y-83810979D01*
X84408790Y-83879710D01*
X84408792Y-83879713D01*
X84477522Y-83963458D01*
X84528591Y-84059002D01*
X84530904Y-84066628D01*
X84533383Y-84074799D01*
X84542759Y-84097436D01*
X84556373Y-84117811D01*
X84573700Y-84135138D01*
X84594075Y-84148752D01*
X84616714Y-84158129D01*
X84640747Y-84162910D01*
X84665251Y-84162910D01*
X84689285Y-84158130D01*
X84711924Y-84148753D01*
X84732299Y-84135139D01*
X84749626Y-84117812D01*
X84763240Y-84097437D01*
X84772617Y-84074798D01*
X84777407Y-84059007D01*
X84828476Y-83963462D01*
X84828479Y-83963458D01*
X84897210Y-83879710D01*
X84923679Y-83857987D01*
X84980958Y-83810978D01*
X85076502Y-83759909D01*
X85103482Y-83751725D01*
X85180181Y-83728458D01*
X85252060Y-83721379D01*
X85287999Y-83717839D01*
X85288000Y-83717839D01*
X85395818Y-83728458D01*
X85472517Y-83751725D01*
X85499497Y-83759909D01*
X85595038Y-83810976D01*
X85595041Y-83810978D01*
X85595042Y-83810979D01*
X85678790Y-83879710D01*
X85678792Y-83879713D01*
X85747522Y-83963458D01*
X85798591Y-84059002D01*
X85800904Y-84066628D01*
X85803383Y-84074799D01*
X85812759Y-84097436D01*
X85826373Y-84117811D01*
X85843700Y-84135138D01*
X85864075Y-84148752D01*
X85886714Y-84158129D01*
X85910747Y-84162910D01*
X85935251Y-84162910D01*
X85959285Y-84158130D01*
X85981924Y-84148753D01*
X86002299Y-84135139D01*
X86019626Y-84117812D01*
X86033240Y-84097437D01*
X86042617Y-84074798D01*
X86047407Y-84059007D01*
X86098476Y-83963462D01*
X86098479Y-83963458D01*
X86167210Y-83879710D01*
X86193679Y-83857987D01*
X86250958Y-83810978D01*
X86346502Y-83759909D01*
X86373482Y-83751725D01*
X86450181Y-83728458D01*
X86522060Y-83721379D01*
X86557999Y-83717839D01*
X86558000Y-83717839D01*
X86665818Y-83728458D01*
X86742517Y-83751725D01*
X86769497Y-83759909D01*
X86865038Y-83810976D01*
X86865041Y-83810978D01*
X86865042Y-83810979D01*
X86948790Y-83879710D01*
X86948792Y-83879713D01*
X87017522Y-83963458D01*
X87068591Y-84059002D01*
X87070904Y-84066628D01*
X87073383Y-84074799D01*
X87082759Y-84097436D01*
X87096373Y-84117811D01*
X87113700Y-84135138D01*
X87134075Y-84148752D01*
X87156714Y-84158129D01*
X87180747Y-84162910D01*
X87205251Y-84162910D01*
X87229285Y-84158130D01*
X87251924Y-84148753D01*
X87272299Y-84135139D01*
X87289626Y-84117812D01*
X87303240Y-84097437D01*
X87312617Y-84074798D01*
X87317407Y-84059007D01*
X87368476Y-83963462D01*
X87368479Y-83963458D01*
X87437210Y-83879710D01*
X87463679Y-83857987D01*
X87520958Y-83810978D01*
X87616502Y-83759909D01*
X87643482Y-83751725D01*
X87720181Y-83728458D01*
X87792060Y-83721379D01*
X87827999Y-83717839D01*
X87828000Y-83717839D01*
X87935818Y-83728458D01*
X88012517Y-83751725D01*
X88039497Y-83759909D01*
X88135038Y-83810976D01*
X88135041Y-83810978D01*
X88135042Y-83810979D01*
X88218790Y-83879710D01*
X88218792Y-83879713D01*
X88287522Y-83963458D01*
X88338591Y-84059002D01*
X88340904Y-84066628D01*
X88343383Y-84074799D01*
X88352759Y-84097436D01*
X88366373Y-84117811D01*
X88383700Y-84135138D01*
X88404075Y-84148752D01*
X88426714Y-84158129D01*
X88450747Y-84162910D01*
X88475251Y-84162910D01*
X88499285Y-84158130D01*
X88521924Y-84148753D01*
X88542299Y-84135139D01*
X88559626Y-84117812D01*
X88573240Y-84097437D01*
X88582617Y-84074798D01*
X88587407Y-84059007D01*
X88638476Y-83963462D01*
X88638479Y-83963458D01*
X88707210Y-83879710D01*
X88733679Y-83857987D01*
X88790958Y-83810978D01*
X88886502Y-83759909D01*
X88913482Y-83751725D01*
X88990181Y-83728458D01*
X89062060Y-83721379D01*
X89097999Y-83717839D01*
X89098000Y-83717839D01*
X89205818Y-83728458D01*
X89282517Y-83751725D01*
X89309497Y-83759909D01*
X89405038Y-83810976D01*
X89405041Y-83810978D01*
X89405042Y-83810979D01*
X89488790Y-83879710D01*
X89488792Y-83879713D01*
X89557522Y-83963458D01*
X89608591Y-84059002D01*
X89610904Y-84066628D01*
X89613383Y-84074799D01*
X89622759Y-84097436D01*
X89636373Y-84117811D01*
X89653700Y-84135138D01*
X89674075Y-84148752D01*
X89696714Y-84158129D01*
X89720747Y-84162910D01*
X89745251Y-84162910D01*
X89769285Y-84158130D01*
X89791924Y-84148753D01*
X89812299Y-84135139D01*
X89829626Y-84117812D01*
X89843240Y-84097437D01*
X89852617Y-84074798D01*
X89857407Y-84059007D01*
X89908476Y-83963462D01*
X89908479Y-83963458D01*
X89977210Y-83879710D01*
X90003679Y-83857987D01*
X90060958Y-83810978D01*
X90156502Y-83759909D01*
X90183482Y-83751725D01*
X90260181Y-83728458D01*
X90332060Y-83721379D01*
X90367999Y-83717839D01*
X90368000Y-83717839D01*
X90475818Y-83728458D01*
X90552517Y-83751725D01*
X90579497Y-83759909D01*
X90675038Y-83810976D01*
X90675041Y-83810978D01*
X90675042Y-83810979D01*
X90758790Y-83879710D01*
X90758792Y-83879713D01*
X90827522Y-83963458D01*
X90878591Y-84059002D01*
X90880904Y-84066628D01*
X90883383Y-84074799D01*
X90892759Y-84097436D01*
X90906373Y-84117811D01*
X90923700Y-84135138D01*
X90944075Y-84148752D01*
X90966714Y-84158129D01*
X90990747Y-84162910D01*
X91015251Y-84162910D01*
X91039285Y-84158130D01*
X91061924Y-84148753D01*
X91082299Y-84135139D01*
X91099626Y-84117812D01*
X91113240Y-84097437D01*
X91122617Y-84074798D01*
X91127407Y-84059007D01*
X91178476Y-83963462D01*
X91178479Y-83963458D01*
X91247210Y-83879710D01*
X91273679Y-83857987D01*
X91330958Y-83810978D01*
X91426502Y-83759909D01*
X91453482Y-83751725D01*
X91530181Y-83728458D01*
X91602060Y-83721379D01*
X91637999Y-83717839D01*
X91638000Y-83717839D01*
X91745818Y-83728458D01*
X91822517Y-83751725D01*
X91849497Y-83759909D01*
X91945038Y-83810976D01*
X91945041Y-83810978D01*
X91945042Y-83810979D01*
X92028790Y-83879710D01*
X92028792Y-83879713D01*
X92097522Y-83963458D01*
X92148591Y-84059002D01*
X92150904Y-84066628D01*
X92153383Y-84074799D01*
X92162759Y-84097436D01*
X92176373Y-84117811D01*
X92193700Y-84135138D01*
X92214075Y-84148752D01*
X92236714Y-84158129D01*
X92260747Y-84162910D01*
X92285251Y-84162910D01*
X92309285Y-84158130D01*
X92331924Y-84148753D01*
X92352299Y-84135139D01*
X92369626Y-84117812D01*
X92383240Y-84097437D01*
X92392617Y-84074798D01*
X92397407Y-84059007D01*
X92448476Y-83963462D01*
X92448479Y-83963458D01*
X92517210Y-83879710D01*
X92543679Y-83857987D01*
X92600958Y-83810978D01*
X92696502Y-83759909D01*
X92723482Y-83751725D01*
X92800181Y-83728458D01*
X92872060Y-83721379D01*
X92907999Y-83717839D01*
X92908000Y-83717839D01*
X93015818Y-83728458D01*
X93092517Y-83751725D01*
X93119497Y-83759909D01*
X93215038Y-83810976D01*
X93215041Y-83810978D01*
X93215042Y-83810979D01*
X93298790Y-83879710D01*
X93298792Y-83879713D01*
X93367522Y-83963458D01*
X93418591Y-84059002D01*
X93420904Y-84066628D01*
X93423383Y-84074799D01*
X93432759Y-84097436D01*
X93446373Y-84117811D01*
X93463700Y-84135138D01*
X93484075Y-84148752D01*
X93506714Y-84158129D01*
X93530747Y-84162910D01*
X93555251Y-84162910D01*
X93579285Y-84158130D01*
X93601924Y-84148753D01*
X93622299Y-84135139D01*
X93639626Y-84117812D01*
X93653240Y-84097437D01*
X93662617Y-84074798D01*
X93667407Y-84059007D01*
X93718476Y-83963462D01*
X93718479Y-83963458D01*
X93787210Y-83879710D01*
X93813679Y-83857987D01*
X93870958Y-83810978D01*
X93966502Y-83759909D01*
X93993482Y-83751725D01*
X94070181Y-83728458D01*
X94142060Y-83721379D01*
X94177999Y-83717839D01*
X94178000Y-83717839D01*
X94285818Y-83728458D01*
X94362517Y-83751725D01*
X94389497Y-83759909D01*
X94485038Y-83810976D01*
X94485041Y-83810978D01*
X94485042Y-83810979D01*
X94568790Y-83879710D01*
X94568792Y-83879713D01*
X94637522Y-83963458D01*
X94688591Y-84059002D01*
X94693382Y-84074797D01*
X94720042Y-84162681D01*
X94728000Y-84243482D01*
X94728000Y-85897518D01*
X94720042Y-85978319D01*
X94700251Y-86043561D01*
X94688591Y-86081998D01*
X94637524Y-86177539D01*
X94568790Y-86261290D01*
X94485039Y-86330024D01*
X94389498Y-86381091D01*
X94362518Y-86389275D01*
X94285819Y-86412542D01*
X94213940Y-86419621D01*
X94178001Y-86423161D01*
X94178000Y-86423161D01*
X94070182Y-86412542D01*
X93993483Y-86389275D01*
X93966503Y-86381091D01*
X93870962Y-86330024D01*
X93787211Y-86261290D01*
X93718477Y-86177539D01*
X93667410Y-86081997D01*
X93662619Y-86066203D01*
X93653242Y-86043564D01*
X93639629Y-86023189D01*
X93622302Y-86005862D01*
X93601927Y-85992248D01*
X93579288Y-85982870D01*
X93555255Y-85978089D01*
X93530751Y-85978089D01*
X93506717Y-85982869D01*
X93484078Y-85992246D01*
X93463703Y-86005859D01*
X93446376Y-86023186D01*
X93432762Y-86043561D01*
X93423384Y-86066199D01*
X93418592Y-86081996D01*
X93367524Y-86177539D01*
X93298790Y-86261290D01*
X93215039Y-86330024D01*
X93119498Y-86381091D01*
X93092518Y-86389275D01*
X93015819Y-86412542D01*
X92943940Y-86419621D01*
X92908001Y-86423161D01*
X92908000Y-86423161D01*
X92800182Y-86412542D01*
X92723483Y-86389275D01*
X92696503Y-86381091D01*
X92600962Y-86330024D01*
X92517211Y-86261290D01*
X92448477Y-86177539D01*
X92397410Y-86081997D01*
X92392619Y-86066203D01*
X92383242Y-86043564D01*
X92369629Y-86023189D01*
X92352302Y-86005862D01*
X92331927Y-85992248D01*
X92309288Y-85982870D01*
X92285255Y-85978089D01*
X92260751Y-85978089D01*
X92236717Y-85982869D01*
X92214078Y-85992246D01*
X92193703Y-86005859D01*
X92176376Y-86023186D01*
X92162762Y-86043561D01*
X92153384Y-86066199D01*
X92148592Y-86081996D01*
X92097524Y-86177539D01*
X92028790Y-86261290D01*
X91945039Y-86330024D01*
X91849498Y-86381091D01*
X91822518Y-86389275D01*
X91745819Y-86412542D01*
X91673940Y-86419621D01*
X91638001Y-86423161D01*
X91638000Y-86423161D01*
X91530182Y-86412542D01*
X91453483Y-86389275D01*
X91426503Y-86381091D01*
X91330962Y-86330024D01*
X91247211Y-86261290D01*
X91178477Y-86177539D01*
X91127410Y-86081997D01*
X91122619Y-86066203D01*
X91113242Y-86043564D01*
X91099629Y-86023189D01*
X91082302Y-86005862D01*
X91061927Y-85992248D01*
X91039288Y-85982870D01*
X91015255Y-85978089D01*
X90990751Y-85978089D01*
X90966717Y-85982869D01*
X90944078Y-85992246D01*
X90923703Y-86005859D01*
X90906376Y-86023186D01*
X90892762Y-86043561D01*
X90883384Y-86066199D01*
X90878592Y-86081996D01*
X90827524Y-86177539D01*
X90758790Y-86261290D01*
X90675039Y-86330024D01*
X90579498Y-86381091D01*
X90552518Y-86389275D01*
X90475819Y-86412542D01*
X90403940Y-86419621D01*
X90368001Y-86423161D01*
X90368000Y-86423161D01*
X90260182Y-86412542D01*
X90183483Y-86389275D01*
X90156503Y-86381091D01*
X90060962Y-86330024D01*
X89977211Y-86261290D01*
X89908477Y-86177539D01*
X89857410Y-86081997D01*
X89852619Y-86066203D01*
X89843242Y-86043564D01*
X89829629Y-86023189D01*
X89812302Y-86005862D01*
X89791927Y-85992248D01*
X89769288Y-85982870D01*
X89745255Y-85978089D01*
X89720751Y-85978089D01*
X89696717Y-85982869D01*
X89674078Y-85992246D01*
X89653703Y-86005859D01*
X89636376Y-86023186D01*
X89622762Y-86043561D01*
X89613384Y-86066199D01*
X89608592Y-86081996D01*
X89557524Y-86177539D01*
X89488790Y-86261290D01*
X89405039Y-86330024D01*
X89309498Y-86381091D01*
X89282518Y-86389275D01*
X89205819Y-86412542D01*
X89133940Y-86419621D01*
X89098001Y-86423161D01*
X89098000Y-86423161D01*
X88990182Y-86412542D01*
X88913483Y-86389275D01*
X88886503Y-86381091D01*
X88790962Y-86330024D01*
X88707211Y-86261290D01*
X88638477Y-86177539D01*
X88587410Y-86081997D01*
X88582619Y-86066203D01*
X88573242Y-86043564D01*
X88559629Y-86023189D01*
X88542302Y-86005862D01*
X88521927Y-85992248D01*
X88499288Y-85982870D01*
X88475255Y-85978089D01*
X88450751Y-85978089D01*
X88426717Y-85982869D01*
X88404078Y-85992246D01*
X88383703Y-86005859D01*
X88366376Y-86023186D01*
X88352762Y-86043561D01*
X88343384Y-86066199D01*
X88338592Y-86081996D01*
X88287524Y-86177539D01*
X88218790Y-86261290D01*
X88135039Y-86330024D01*
X88039498Y-86381091D01*
X88012518Y-86389275D01*
X87935819Y-86412542D01*
X87863940Y-86419621D01*
X87828001Y-86423161D01*
X87828000Y-86423161D01*
X87720182Y-86412542D01*
X87643483Y-86389275D01*
X87616503Y-86381091D01*
X87520962Y-86330024D01*
X87437211Y-86261290D01*
X87368477Y-86177539D01*
X87317410Y-86081997D01*
X87312619Y-86066203D01*
X87303242Y-86043564D01*
X87289629Y-86023189D01*
X87272302Y-86005862D01*
X87251927Y-85992248D01*
X87229288Y-85982870D01*
X87205255Y-85978089D01*
X87180751Y-85978089D01*
X87156717Y-85982869D01*
X87134078Y-85992246D01*
X87113703Y-86005859D01*
X87096376Y-86023186D01*
X87082762Y-86043561D01*
X87073384Y-86066199D01*
X87068592Y-86081996D01*
X87017524Y-86177539D01*
X86948790Y-86261290D01*
X86865039Y-86330024D01*
X86769498Y-86381091D01*
X86742518Y-86389275D01*
X86665819Y-86412542D01*
X86593940Y-86419621D01*
X86558001Y-86423161D01*
X86558000Y-86423161D01*
X86450182Y-86412542D01*
X86373483Y-86389275D01*
X86346503Y-86381091D01*
X86250962Y-86330024D01*
X86167211Y-86261290D01*
X86098477Y-86177539D01*
X86047410Y-86081997D01*
X86042619Y-86066203D01*
X86033242Y-86043564D01*
X86019629Y-86023189D01*
X86002302Y-86005862D01*
X85981927Y-85992248D01*
X85959288Y-85982870D01*
X85935255Y-85978089D01*
X85910751Y-85978089D01*
X85886717Y-85982869D01*
X85864078Y-85992246D01*
X85843703Y-86005859D01*
X85826376Y-86023186D01*
X85812762Y-86043561D01*
X85803384Y-86066199D01*
X85798592Y-86081996D01*
X85747524Y-86177539D01*
X85678790Y-86261290D01*
X85595039Y-86330024D01*
X85499498Y-86381091D01*
X85472518Y-86389275D01*
X85395819Y-86412542D01*
X85323940Y-86419621D01*
X85288001Y-86423161D01*
X85288000Y-86423161D01*
X85180182Y-86412542D01*
X85103483Y-86389275D01*
X85076503Y-86381091D01*
X84980962Y-86330024D01*
X84897211Y-86261290D01*
X84828477Y-86177539D01*
X84777410Y-86081997D01*
X84772619Y-86066203D01*
X84763242Y-86043564D01*
X84749629Y-86023189D01*
X84732302Y-86005862D01*
X84711927Y-85992248D01*
X84689288Y-85982870D01*
X84665255Y-85978089D01*
X84640751Y-85978089D01*
X84616717Y-85982869D01*
X84594078Y-85992246D01*
X84573703Y-86005859D01*
X84556376Y-86023186D01*
X84542762Y-86043561D01*
X84533384Y-86066199D01*
X84528592Y-86081996D01*
X84477524Y-86177539D01*
X84408790Y-86261290D01*
X84325039Y-86330024D01*
X84229498Y-86381091D01*
X84202518Y-86389275D01*
X84125819Y-86412542D01*
X84053940Y-86419621D01*
X84018001Y-86423161D01*
X84018000Y-86423161D01*
X83910182Y-86412542D01*
X83833483Y-86389275D01*
X83806503Y-86381091D01*
X83710962Y-86330024D01*
X83627211Y-86261290D01*
X83558477Y-86177539D01*
X83507410Y-86081997D01*
X83502619Y-86066203D01*
X83493242Y-86043564D01*
X83479629Y-86023189D01*
X83462302Y-86005862D01*
X83441927Y-85992248D01*
X83419288Y-85982870D01*
X83395255Y-85978089D01*
X83370751Y-85978089D01*
X83346717Y-85982869D01*
X83324078Y-85992246D01*
X83303703Y-86005859D01*
X83286376Y-86023186D01*
X83272762Y-86043561D01*
X83263384Y-86066199D01*
X83258592Y-86081996D01*
X83207524Y-86177539D01*
X83138790Y-86261290D01*
X83055039Y-86330024D01*
X82959498Y-86381091D01*
X82932518Y-86389275D01*
X82855819Y-86412542D01*
X82783940Y-86419621D01*
X82748001Y-86423161D01*
X82748000Y-86423161D01*
X82640182Y-86412542D01*
X82563483Y-86389275D01*
X82536503Y-86381091D01*
X82440962Y-86330024D01*
X82357211Y-86261290D01*
X82288477Y-86177539D01*
X82237410Y-86081997D01*
X82232619Y-86066203D01*
X82223242Y-86043564D01*
X82209629Y-86023189D01*
X82192302Y-86005862D01*
X82171927Y-85992248D01*
X82149288Y-85982870D01*
X82125255Y-85978089D01*
X82100751Y-85978089D01*
X82076717Y-85982869D01*
X82054078Y-85992246D01*
X82033703Y-86005859D01*
X82016376Y-86023186D01*
X82002762Y-86043561D01*
X81993384Y-86066199D01*
X81988592Y-86081996D01*
X81937524Y-86177539D01*
X81868790Y-86261290D01*
X81785039Y-86330024D01*
X81689498Y-86381091D01*
X81662518Y-86389275D01*
X81585819Y-86412542D01*
X81513940Y-86419621D01*
X81478001Y-86423161D01*
X81478000Y-86423161D01*
X81370182Y-86412542D01*
X81293483Y-86389275D01*
X81266503Y-86381091D01*
X81170962Y-86330024D01*
X81087211Y-86261290D01*
X81018477Y-86177539D01*
X80967410Y-86081997D01*
X80962619Y-86066203D01*
X80953242Y-86043564D01*
X80939629Y-86023189D01*
X80922302Y-86005862D01*
X80901927Y-85992248D01*
X80879288Y-85982870D01*
X80855255Y-85978089D01*
X80830751Y-85978089D01*
X80806717Y-85982869D01*
X80784078Y-85992246D01*
X80763703Y-86005859D01*
X80746376Y-86023186D01*
X80732762Y-86043561D01*
X80723384Y-86066199D01*
X80718592Y-86081996D01*
X80667524Y-86177539D01*
X80598790Y-86261290D01*
X80515039Y-86330024D01*
X80419498Y-86381091D01*
X80392518Y-86389275D01*
X80315819Y-86412542D01*
X80243940Y-86419621D01*
X80208001Y-86423161D01*
X80208000Y-86423161D01*
X80100182Y-86412542D01*
X80023483Y-86389275D01*
X79996503Y-86381091D01*
X79900962Y-86330024D01*
X79817211Y-86261290D01*
X79748477Y-86177539D01*
X79697410Y-86081997D01*
X79692619Y-86066203D01*
X79683242Y-86043564D01*
X79669629Y-86023189D01*
X79652302Y-86005862D01*
X79631927Y-85992248D01*
X79609288Y-85982870D01*
X79585255Y-85978089D01*
X79560751Y-85978089D01*
X79536717Y-85982869D01*
X79514078Y-85992246D01*
X79493703Y-86005859D01*
X79476376Y-86023186D01*
X79462762Y-86043561D01*
X79453384Y-86066199D01*
X79448592Y-86081996D01*
X79397524Y-86177539D01*
X79328790Y-86261290D01*
X79245039Y-86330024D01*
X79149498Y-86381091D01*
X79122518Y-86389275D01*
X79045819Y-86412542D01*
X78973940Y-86419621D01*
X78938001Y-86423161D01*
X78938000Y-86423161D01*
X78830182Y-86412542D01*
X78753483Y-86389275D01*
X78726503Y-86381091D01*
X78630962Y-86330024D01*
X78547211Y-86261290D01*
X78478477Y-86177539D01*
X78427410Y-86081997D01*
X78422619Y-86066203D01*
X78413242Y-86043564D01*
X78399629Y-86023189D01*
X78382302Y-86005862D01*
X78361927Y-85992248D01*
X78339288Y-85982870D01*
X78315255Y-85978089D01*
X78290751Y-85978089D01*
X78266717Y-85982869D01*
X78244078Y-85992246D01*
X78223703Y-86005859D01*
X78206376Y-86023186D01*
X78192762Y-86043561D01*
X78183384Y-86066199D01*
X78178592Y-86081996D01*
X78127524Y-86177539D01*
X78058790Y-86261290D01*
X77975039Y-86330024D01*
X77879498Y-86381091D01*
X77852518Y-86389275D01*
X77775819Y-86412542D01*
X77703940Y-86419621D01*
X77668001Y-86423161D01*
X77668000Y-86423161D01*
X77560182Y-86412542D01*
X77483483Y-86389275D01*
X77456503Y-86381091D01*
X77360962Y-86330024D01*
X77277211Y-86261290D01*
X77208477Y-86177539D01*
X77157410Y-86081998D01*
X77145750Y-86043561D01*
X77125959Y-85978319D01*
X77118001Y-85897518D01*
X77118000Y-84243483D01*
X77125958Y-84162682D01*
X77157408Y-84059007D01*
X77157409Y-84059003D01*
X77208476Y-83963462D01*
X77208479Y-83963458D01*
X77277210Y-83879710D01*
X77303679Y-83857987D01*
X77360958Y-83810978D01*
X77456502Y-83759909D01*
X77483482Y-83751725D01*
X77560181Y-83728458D01*
X77632060Y-83721379D01*
X77667999Y-83717839D01*
X77668000Y-83717839D01*
X77775818Y-83728458D01*
X77775818Y-83728458D01*
G37*
G36*
X56908000Y-85834000D02*
X54908000Y-85834000D01*
X54908000Y-83134000D01*
X56908000Y-83134000D01*
X56908000Y-85834000D01*
X56908000Y-85834000D01*
G37*
G36*
X114380948Y-83255373D02*
X114450732Y-83262246D01*
X114540270Y-83289407D01*
X114629809Y-83316568D01*
X114794847Y-83404783D01*
X114939501Y-83523499D01*
X115058217Y-83668153D01*
X115146432Y-83833191D01*
X115200754Y-84012269D01*
X115219096Y-84198500D01*
X115200754Y-84384731D01*
X115146432Y-84563809D01*
X115058217Y-84728847D01*
X114939501Y-84873501D01*
X114794847Y-84992217D01*
X114629809Y-85080432D01*
X114540270Y-85107593D01*
X114450732Y-85134754D01*
X114380948Y-85141627D01*
X114311166Y-85148500D01*
X114217834Y-85148500D01*
X114148052Y-85141627D01*
X114078268Y-85134754D01*
X113988730Y-85107593D01*
X113899191Y-85080432D01*
X113734153Y-84992217D01*
X113589499Y-84873501D01*
X113470783Y-84728847D01*
X113382568Y-84563809D01*
X113328246Y-84384731D01*
X113309904Y-84198500D01*
X113328246Y-84012269D01*
X113382568Y-83833191D01*
X113470783Y-83668153D01*
X113589499Y-83523499D01*
X113734153Y-83404783D01*
X113899191Y-83316568D01*
X113988730Y-83289407D01*
X114078268Y-83262246D01*
X114148052Y-83255373D01*
X114217834Y-83248500D01*
X114311166Y-83248500D01*
X114380948Y-83255373D01*
X114380948Y-83255373D01*
G37*
G36*
X111840948Y-83255373D02*
X111910732Y-83262246D01*
X112000270Y-83289407D01*
X112089809Y-83316568D01*
X112254847Y-83404783D01*
X112399501Y-83523499D01*
X112518217Y-83668153D01*
X112606432Y-83833191D01*
X112660754Y-84012269D01*
X112679096Y-84198500D01*
X112660754Y-84384731D01*
X112606432Y-84563809D01*
X112518217Y-84728847D01*
X112399501Y-84873501D01*
X112254847Y-84992217D01*
X112089809Y-85080432D01*
X112000270Y-85107593D01*
X111910732Y-85134754D01*
X111840948Y-85141627D01*
X111771166Y-85148500D01*
X111677834Y-85148500D01*
X111608052Y-85141627D01*
X111538268Y-85134754D01*
X111448730Y-85107593D01*
X111359191Y-85080432D01*
X111194153Y-84992217D01*
X111049499Y-84873501D01*
X110930783Y-84728847D01*
X110842568Y-84563809D01*
X110788246Y-84384731D01*
X110769904Y-84198500D01*
X110788246Y-84012269D01*
X110842568Y-83833191D01*
X110930783Y-83668153D01*
X111049499Y-83523499D01*
X111194153Y-83404783D01*
X111359191Y-83316568D01*
X111448730Y-83289407D01*
X111538268Y-83262246D01*
X111608052Y-83255373D01*
X111677834Y-83248500D01*
X111771166Y-83248500D01*
X111840948Y-83255373D01*
X111840948Y-83255373D01*
G37*
G36*
X66812000Y-82668000D02*
X64612000Y-82668000D01*
X64612000Y-80268000D01*
X66812000Y-80268000D01*
X66812000Y-82668000D01*
X66812000Y-82668000D01*
G37*
G36*
X60412000Y-82668000D02*
X58212000Y-82668000D01*
X58212000Y-80268000D01*
X60412000Y-80268000D01*
X60412000Y-82668000D01*
X60412000Y-82668000D01*
G37*
G36*
X107590500Y-82608500D02*
X105690500Y-82608500D01*
X105690500Y-80708500D01*
X107590500Y-80708500D01*
X107590500Y-82608500D01*
X107590500Y-82608500D01*
G37*
G36*
X111840948Y-80715373D02*
X111910732Y-80722246D01*
X112000270Y-80749407D01*
X112089809Y-80776568D01*
X112254847Y-80864783D01*
X112399501Y-80983499D01*
X112518217Y-81128153D01*
X112606432Y-81293191D01*
X112660754Y-81472269D01*
X112679096Y-81658500D01*
X112660754Y-81844731D01*
X112606432Y-82023809D01*
X112518217Y-82188847D01*
X112399501Y-82333501D01*
X112254847Y-82452217D01*
X112089809Y-82540432D01*
X112000270Y-82567593D01*
X111910732Y-82594754D01*
X111771166Y-82608500D01*
X111677834Y-82608500D01*
X111538268Y-82594754D01*
X111448730Y-82567593D01*
X111359191Y-82540432D01*
X111194153Y-82452217D01*
X111049499Y-82333501D01*
X110930783Y-82188847D01*
X110842568Y-82023809D01*
X110788246Y-81844731D01*
X110769904Y-81658500D01*
X110788246Y-81472269D01*
X110842568Y-81293191D01*
X110930783Y-81128153D01*
X111049499Y-80983499D01*
X111194153Y-80864783D01*
X111359191Y-80776568D01*
X111448730Y-80749407D01*
X111538268Y-80722246D01*
X111608052Y-80715373D01*
X111677834Y-80708500D01*
X111771166Y-80708500D01*
X111840948Y-80715373D01*
X111840948Y-80715373D01*
G37*
G36*
X114380948Y-80715373D02*
X114450732Y-80722246D01*
X114540270Y-80749407D01*
X114629809Y-80776568D01*
X114794847Y-80864783D01*
X114939501Y-80983499D01*
X115058217Y-81128153D01*
X115146432Y-81293191D01*
X115200754Y-81472269D01*
X115219096Y-81658500D01*
X115200754Y-81844731D01*
X115146432Y-82023809D01*
X115058217Y-82188847D01*
X114939501Y-82333501D01*
X114794847Y-82452217D01*
X114629809Y-82540432D01*
X114540270Y-82567593D01*
X114450732Y-82594754D01*
X114311166Y-82608500D01*
X114217834Y-82608500D01*
X114078268Y-82594754D01*
X113988730Y-82567593D01*
X113899191Y-82540432D01*
X113734153Y-82452217D01*
X113589499Y-82333501D01*
X113470783Y-82188847D01*
X113382568Y-82023809D01*
X113328246Y-81844731D01*
X113309904Y-81658500D01*
X113328246Y-81472269D01*
X113382568Y-81293191D01*
X113470783Y-81128153D01*
X113589499Y-80983499D01*
X113734153Y-80864783D01*
X113899191Y-80776568D01*
X113988730Y-80749407D01*
X114078268Y-80722246D01*
X114148052Y-80715373D01*
X114217834Y-80708500D01*
X114311166Y-80708500D01*
X114380948Y-80715373D01*
X114380948Y-80715373D01*
G37*
G36*
X77031952Y-69808153D02*
X77085819Y-69813458D01*
X77162518Y-69836725D01*
X77189498Y-69844909D01*
X77285039Y-69895976D01*
X77368790Y-69964710D01*
X77437524Y-70048461D01*
X77488591Y-70144002D01*
X77488592Y-70144006D01*
X77520042Y-70247681D01*
X77530661Y-70355500D01*
X77520042Y-70463319D01*
X77496775Y-70540018D01*
X77488591Y-70566998D01*
X77437524Y-70662539D01*
X77368790Y-70746290D01*
X77285039Y-70815024D01*
X77189498Y-70866091D01*
X77181872Y-70868404D01*
X77173701Y-70870883D01*
X77151064Y-70880259D01*
X77130689Y-70893873D01*
X77113362Y-70911200D01*
X77099748Y-70931575D01*
X77090371Y-70954214D01*
X77085590Y-70978247D01*
X77085590Y-71002751D01*
X77090370Y-71026785D01*
X77099747Y-71049424D01*
X77113361Y-71069799D01*
X77130688Y-71087126D01*
X77151063Y-71100740D01*
X77173701Y-71110117D01*
X77181872Y-71112596D01*
X77189498Y-71114909D01*
X77285039Y-71165976D01*
X77368790Y-71234710D01*
X77437524Y-71318461D01*
X77488591Y-71414002D01*
X77488592Y-71414006D01*
X77520042Y-71517681D01*
X77530661Y-71625500D01*
X77520042Y-71733319D01*
X77496775Y-71810018D01*
X77488591Y-71836998D01*
X77437524Y-71932539D01*
X77368790Y-72016290D01*
X77285039Y-72085024D01*
X77189498Y-72136091D01*
X77181872Y-72138404D01*
X77173701Y-72140883D01*
X77151064Y-72150259D01*
X77130689Y-72163873D01*
X77113362Y-72181200D01*
X77099748Y-72201575D01*
X77090371Y-72224214D01*
X77085590Y-72248247D01*
X77085590Y-72272751D01*
X77090370Y-72296785D01*
X77099747Y-72319424D01*
X77113361Y-72339799D01*
X77130688Y-72357126D01*
X77151063Y-72370740D01*
X77173701Y-72380117D01*
X77181872Y-72382596D01*
X77189498Y-72384909D01*
X77285039Y-72435976D01*
X77368790Y-72504710D01*
X77437524Y-72588461D01*
X77488591Y-72684002D01*
X77488592Y-72684006D01*
X77520042Y-72787681D01*
X77530661Y-72895500D01*
X77520042Y-73003319D01*
X77507344Y-73045178D01*
X77488591Y-73106998D01*
X77437524Y-73202539D01*
X77368790Y-73286290D01*
X77285039Y-73355024D01*
X77189498Y-73406091D01*
X77181872Y-73408404D01*
X77173701Y-73410883D01*
X77151064Y-73420259D01*
X77130689Y-73433873D01*
X77113362Y-73451200D01*
X77099748Y-73471575D01*
X77090371Y-73494214D01*
X77085590Y-73518247D01*
X77085590Y-73542751D01*
X77090370Y-73566785D01*
X77099747Y-73589424D01*
X77113361Y-73609799D01*
X77130688Y-73627126D01*
X77151063Y-73640740D01*
X77173701Y-73650117D01*
X77181872Y-73652596D01*
X77189498Y-73654909D01*
X77285039Y-73705976D01*
X77368790Y-73774710D01*
X77437524Y-73858461D01*
X77488591Y-73954002D01*
X77488592Y-73954006D01*
X77520042Y-74057681D01*
X77530661Y-74165500D01*
X77520042Y-74273319D01*
X77496775Y-74350018D01*
X77488591Y-74376998D01*
X77437524Y-74472539D01*
X77368790Y-74556290D01*
X77285039Y-74625024D01*
X77189498Y-74676091D01*
X77181872Y-74678404D01*
X77173701Y-74680883D01*
X77151064Y-74690259D01*
X77130689Y-74703873D01*
X77113362Y-74721200D01*
X77099748Y-74741575D01*
X77090371Y-74764214D01*
X77085590Y-74788247D01*
X77085590Y-74812751D01*
X77090370Y-74836785D01*
X77099747Y-74859424D01*
X77113361Y-74879799D01*
X77130688Y-74897126D01*
X77151063Y-74910740D01*
X77173701Y-74920117D01*
X77181872Y-74922596D01*
X77189498Y-74924909D01*
X77285039Y-74975976D01*
X77368790Y-75044710D01*
X77437524Y-75128461D01*
X77488591Y-75224002D01*
X77488592Y-75224006D01*
X77520042Y-75327681D01*
X77530661Y-75435500D01*
X77520042Y-75543319D01*
X77496775Y-75620018D01*
X77488591Y-75646998D01*
X77437524Y-75742539D01*
X77368790Y-75826290D01*
X77285039Y-75895024D01*
X77189498Y-75946091D01*
X77181872Y-75948404D01*
X77173701Y-75950883D01*
X77151064Y-75960259D01*
X77130689Y-75973873D01*
X77113362Y-75991200D01*
X77099748Y-76011575D01*
X77090371Y-76034214D01*
X77085590Y-76058247D01*
X77085590Y-76082751D01*
X77090370Y-76106785D01*
X77099747Y-76129424D01*
X77113361Y-76149799D01*
X77130688Y-76167126D01*
X77151063Y-76180740D01*
X77173701Y-76190117D01*
X77181872Y-76192596D01*
X77189498Y-76194909D01*
X77285039Y-76245976D01*
X77368790Y-76314710D01*
X77437524Y-76398461D01*
X77488591Y-76494002D01*
X77488592Y-76494006D01*
X77520042Y-76597681D01*
X77530661Y-76705500D01*
X77520042Y-76813319D01*
X77496775Y-76890018D01*
X77488591Y-76916998D01*
X77437524Y-77012539D01*
X77368790Y-77096290D01*
X77285039Y-77165024D01*
X77189498Y-77216091D01*
X77181872Y-77218404D01*
X77173701Y-77220883D01*
X77151064Y-77230259D01*
X77130689Y-77243873D01*
X77113362Y-77261200D01*
X77099748Y-77281575D01*
X77090371Y-77304214D01*
X77085590Y-77328247D01*
X77085590Y-77352751D01*
X77090370Y-77376785D01*
X77099747Y-77399424D01*
X77113361Y-77419799D01*
X77130688Y-77437126D01*
X77151063Y-77450740D01*
X77173701Y-77460117D01*
X77181872Y-77462596D01*
X77189498Y-77464909D01*
X77285039Y-77515976D01*
X77368790Y-77584710D01*
X77437524Y-77668461D01*
X77488591Y-77764002D01*
X77488592Y-77764006D01*
X77520042Y-77867681D01*
X77530661Y-77975500D01*
X77520042Y-78083319D01*
X77496775Y-78160018D01*
X77488591Y-78186998D01*
X77437524Y-78282539D01*
X77368790Y-78366290D01*
X77285039Y-78435024D01*
X77189498Y-78486091D01*
X77181872Y-78488404D01*
X77173701Y-78490883D01*
X77151064Y-78500259D01*
X77130689Y-78513873D01*
X77113362Y-78531200D01*
X77099748Y-78551575D01*
X77090371Y-78574214D01*
X77085590Y-78598247D01*
X77085590Y-78622751D01*
X77090370Y-78646785D01*
X77099747Y-78669424D01*
X77113361Y-78689799D01*
X77130688Y-78707126D01*
X77151063Y-78720740D01*
X77173701Y-78730117D01*
X77181872Y-78732596D01*
X77189498Y-78734909D01*
X77285039Y-78785976D01*
X77368790Y-78854710D01*
X77437524Y-78938461D01*
X77488591Y-79034002D01*
X77488592Y-79034006D01*
X77520042Y-79137681D01*
X77530661Y-79245500D01*
X77520042Y-79353319D01*
X77496775Y-79430018D01*
X77488591Y-79456998D01*
X77437524Y-79552539D01*
X77368790Y-79636290D01*
X77285039Y-79705024D01*
X77189498Y-79756091D01*
X77181872Y-79758404D01*
X77173701Y-79760883D01*
X77151064Y-79770259D01*
X77130689Y-79783873D01*
X77113362Y-79801200D01*
X77099748Y-79821575D01*
X77090371Y-79844214D01*
X77085590Y-79868247D01*
X77085590Y-79892751D01*
X77090370Y-79916785D01*
X77099747Y-79939424D01*
X77113361Y-79959799D01*
X77130688Y-79977126D01*
X77151063Y-79990740D01*
X77173701Y-80000117D01*
X77181872Y-80002596D01*
X77189498Y-80004909D01*
X77285039Y-80055976D01*
X77368790Y-80124710D01*
X77437524Y-80208461D01*
X77488591Y-80304002D01*
X77488592Y-80304006D01*
X77520042Y-80407681D01*
X77530661Y-80515500D01*
X77520042Y-80623319D01*
X77496775Y-80700018D01*
X77488591Y-80726998D01*
X77437524Y-80822539D01*
X77368790Y-80906290D01*
X77285039Y-80975024D01*
X77189498Y-81026091D01*
X77181872Y-81028404D01*
X77173701Y-81030883D01*
X77151064Y-81040259D01*
X77130689Y-81053873D01*
X77113362Y-81071200D01*
X77099748Y-81091575D01*
X77090371Y-81114214D01*
X77085590Y-81138247D01*
X77085590Y-81162751D01*
X77090370Y-81186785D01*
X77099747Y-81209424D01*
X77113361Y-81229799D01*
X77130688Y-81247126D01*
X77151063Y-81260740D01*
X77173701Y-81270117D01*
X77181872Y-81272596D01*
X77189498Y-81274909D01*
X77285039Y-81325976D01*
X77368790Y-81394710D01*
X77437524Y-81478461D01*
X77488591Y-81574002D01*
X77488592Y-81574006D01*
X77520042Y-81677681D01*
X77530661Y-81785500D01*
X77520042Y-81893319D01*
X77496775Y-81970018D01*
X77488591Y-81996998D01*
X77437524Y-82092539D01*
X77368790Y-82176290D01*
X77285039Y-82245024D01*
X77189498Y-82296091D01*
X77162518Y-82304275D01*
X77085819Y-82327542D01*
X77031952Y-82332847D01*
X77005019Y-82335500D01*
X75350981Y-82335500D01*
X75324048Y-82332847D01*
X75270181Y-82327542D01*
X75193482Y-82304275D01*
X75166502Y-82296091D01*
X75070961Y-82245024D01*
X74987210Y-82176290D01*
X74918476Y-82092539D01*
X74867409Y-81996998D01*
X74859225Y-81970018D01*
X74835958Y-81893319D01*
X74825339Y-81785500D01*
X74835958Y-81677681D01*
X74867408Y-81574006D01*
X74867409Y-81574002D01*
X74918476Y-81478461D01*
X74987210Y-81394710D01*
X75070961Y-81325976D01*
X75166502Y-81274909D01*
X75174128Y-81272596D01*
X75182299Y-81270117D01*
X75204936Y-81260741D01*
X75225311Y-81247127D01*
X75242638Y-81229800D01*
X75256252Y-81209425D01*
X75265629Y-81186786D01*
X75270410Y-81162753D01*
X75270410Y-81138249D01*
X75265630Y-81114215D01*
X75256253Y-81091576D01*
X75242639Y-81071201D01*
X75225312Y-81053874D01*
X75204937Y-81040260D01*
X75182299Y-81030883D01*
X75174128Y-81028404D01*
X75166502Y-81026091D01*
X75070961Y-80975024D01*
X74987210Y-80906290D01*
X74918476Y-80822539D01*
X74867409Y-80726998D01*
X74859225Y-80700018D01*
X74835958Y-80623319D01*
X74825339Y-80515500D01*
X74835958Y-80407681D01*
X74867408Y-80304006D01*
X74867409Y-80304002D01*
X74918476Y-80208461D01*
X74987210Y-80124710D01*
X75070961Y-80055976D01*
X75166502Y-80004909D01*
X75174128Y-80002596D01*
X75182299Y-80000117D01*
X75204936Y-79990741D01*
X75225311Y-79977127D01*
X75242638Y-79959800D01*
X75256252Y-79939425D01*
X75265629Y-79916786D01*
X75270410Y-79892753D01*
X75270410Y-79868249D01*
X75265630Y-79844215D01*
X75256253Y-79821576D01*
X75242639Y-79801201D01*
X75225312Y-79783874D01*
X75204937Y-79770260D01*
X75182299Y-79760883D01*
X75174128Y-79758404D01*
X75166502Y-79756091D01*
X75070961Y-79705024D01*
X74987210Y-79636290D01*
X74918476Y-79552539D01*
X74867409Y-79456998D01*
X74859225Y-79430018D01*
X74835958Y-79353319D01*
X74825339Y-79245500D01*
X74835958Y-79137681D01*
X74867408Y-79034006D01*
X74867409Y-79034002D01*
X74918476Y-78938461D01*
X74987210Y-78854710D01*
X75070961Y-78785976D01*
X75166502Y-78734909D01*
X75174128Y-78732596D01*
X75182299Y-78730117D01*
X75204936Y-78720741D01*
X75225311Y-78707127D01*
X75242638Y-78689800D01*
X75256252Y-78669425D01*
X75265629Y-78646786D01*
X75270410Y-78622753D01*
X75270410Y-78598249D01*
X75265630Y-78574215D01*
X75256253Y-78551576D01*
X75242639Y-78531201D01*
X75225312Y-78513874D01*
X75204937Y-78500260D01*
X75182299Y-78490883D01*
X75174128Y-78488404D01*
X75166502Y-78486091D01*
X75070961Y-78435024D01*
X74987210Y-78366290D01*
X74918476Y-78282539D01*
X74867409Y-78186998D01*
X74859225Y-78160018D01*
X74835958Y-78083319D01*
X74825339Y-77975500D01*
X74835958Y-77867681D01*
X74867408Y-77764006D01*
X74867409Y-77764002D01*
X74918476Y-77668461D01*
X74987210Y-77584710D01*
X75070961Y-77515976D01*
X75166502Y-77464909D01*
X75174128Y-77462596D01*
X75182299Y-77460117D01*
X75204936Y-77450741D01*
X75225311Y-77437127D01*
X75242638Y-77419800D01*
X75256252Y-77399425D01*
X75265629Y-77376786D01*
X75270410Y-77352753D01*
X75270410Y-77328249D01*
X75265630Y-77304215D01*
X75256253Y-77281576D01*
X75242639Y-77261201D01*
X75225312Y-77243874D01*
X75204937Y-77230260D01*
X75182299Y-77220883D01*
X75174128Y-77218404D01*
X75166502Y-77216091D01*
X75070961Y-77165024D01*
X74987210Y-77096290D01*
X74918476Y-77012539D01*
X74867409Y-76916998D01*
X74859225Y-76890018D01*
X74835958Y-76813319D01*
X74825339Y-76705500D01*
X74835958Y-76597681D01*
X74867408Y-76494006D01*
X74867409Y-76494002D01*
X74918476Y-76398461D01*
X74987210Y-76314710D01*
X75070961Y-76245976D01*
X75166502Y-76194909D01*
X75174128Y-76192596D01*
X75182299Y-76190117D01*
X75204936Y-76180741D01*
X75225311Y-76167127D01*
X75242638Y-76149800D01*
X75256252Y-76129425D01*
X75265629Y-76106786D01*
X75270410Y-76082753D01*
X75270410Y-76058249D01*
X75265630Y-76034215D01*
X75256253Y-76011576D01*
X75242639Y-75991201D01*
X75225312Y-75973874D01*
X75204937Y-75960260D01*
X75182299Y-75950883D01*
X75174128Y-75948404D01*
X75166502Y-75946091D01*
X75070961Y-75895024D01*
X74987210Y-75826290D01*
X74918476Y-75742539D01*
X74867409Y-75646998D01*
X74859225Y-75620018D01*
X74835958Y-75543319D01*
X74825339Y-75435500D01*
X74835958Y-75327681D01*
X74867408Y-75224006D01*
X74867409Y-75224002D01*
X74918476Y-75128461D01*
X74987210Y-75044710D01*
X75070961Y-74975976D01*
X75166502Y-74924909D01*
X75174128Y-74922596D01*
X75182299Y-74920117D01*
X75204936Y-74910741D01*
X75225311Y-74897127D01*
X75242638Y-74879800D01*
X75256252Y-74859425D01*
X75265629Y-74836786D01*
X75270410Y-74812753D01*
X75270410Y-74788249D01*
X75265630Y-74764215D01*
X75256253Y-74741576D01*
X75242639Y-74721201D01*
X75225312Y-74703874D01*
X75204937Y-74690260D01*
X75182299Y-74680883D01*
X75174128Y-74678404D01*
X75166502Y-74676091D01*
X75070961Y-74625024D01*
X74987210Y-74556290D01*
X74918476Y-74472539D01*
X74867409Y-74376998D01*
X74859225Y-74350018D01*
X74835958Y-74273319D01*
X74825339Y-74165500D01*
X74835958Y-74057681D01*
X74867408Y-73954006D01*
X74867409Y-73954002D01*
X74918476Y-73858461D01*
X74987210Y-73774710D01*
X75070961Y-73705976D01*
X75166502Y-73654909D01*
X75174128Y-73652596D01*
X75182299Y-73650117D01*
X75204936Y-73640741D01*
X75225311Y-73627127D01*
X75242638Y-73609800D01*
X75256252Y-73589425D01*
X75265629Y-73566786D01*
X75270410Y-73542753D01*
X75270410Y-73518249D01*
X75265630Y-73494215D01*
X75256253Y-73471576D01*
X75242639Y-73451201D01*
X75225312Y-73433874D01*
X75204937Y-73420260D01*
X75182299Y-73410883D01*
X75174128Y-73408404D01*
X75166502Y-73406091D01*
X75070961Y-73355024D01*
X74987210Y-73286290D01*
X74918476Y-73202539D01*
X74867409Y-73106998D01*
X74848656Y-73045178D01*
X74835958Y-73003319D01*
X74825339Y-72895500D01*
X74835958Y-72787681D01*
X74867408Y-72684006D01*
X74867409Y-72684002D01*
X74918476Y-72588461D01*
X74987210Y-72504710D01*
X75070961Y-72435976D01*
X75166502Y-72384909D01*
X75174128Y-72382596D01*
X75182299Y-72380117D01*
X75204936Y-72370741D01*
X75225311Y-72357127D01*
X75242638Y-72339800D01*
X75256252Y-72319425D01*
X75265629Y-72296786D01*
X75270410Y-72272753D01*
X75270410Y-72248249D01*
X75265630Y-72224215D01*
X75256253Y-72201576D01*
X75242639Y-72181201D01*
X75225312Y-72163874D01*
X75204937Y-72150260D01*
X75182299Y-72140883D01*
X75174128Y-72138404D01*
X75166502Y-72136091D01*
X75070961Y-72085024D01*
X74987210Y-72016290D01*
X74918476Y-71932539D01*
X74867409Y-71836998D01*
X74859225Y-71810018D01*
X74835958Y-71733319D01*
X74825339Y-71625500D01*
X74835958Y-71517681D01*
X74867408Y-71414006D01*
X74867409Y-71414002D01*
X74918476Y-71318461D01*
X74987210Y-71234710D01*
X75070961Y-71165976D01*
X75166502Y-71114909D01*
X75174128Y-71112596D01*
X75182299Y-71110117D01*
X75204936Y-71100741D01*
X75225311Y-71087127D01*
X75242638Y-71069800D01*
X75256252Y-71049425D01*
X75265629Y-71026786D01*
X75270410Y-71002753D01*
X75270410Y-70978249D01*
X75265630Y-70954215D01*
X75256253Y-70931576D01*
X75242639Y-70911201D01*
X75225312Y-70893874D01*
X75204937Y-70880260D01*
X75182299Y-70870883D01*
X75174128Y-70868404D01*
X75166502Y-70866091D01*
X75070961Y-70815024D01*
X74987210Y-70746290D01*
X74918476Y-70662539D01*
X74867409Y-70566998D01*
X74859225Y-70540018D01*
X74835958Y-70463319D01*
X74825339Y-70355500D01*
X74835958Y-70247681D01*
X74867408Y-70144006D01*
X74867409Y-70144002D01*
X74918476Y-70048461D01*
X74987210Y-69964710D01*
X75070961Y-69895976D01*
X75166502Y-69844909D01*
X75193482Y-69836725D01*
X75270181Y-69813458D01*
X75324048Y-69808153D01*
X75350981Y-69805500D01*
X77005019Y-69805500D01*
X77031952Y-69808153D01*
X77031952Y-69808153D01*
G37*
G36*
X56908000Y-81834000D02*
X54908000Y-81834000D01*
X54908000Y-79134000D01*
X56908000Y-79134000D01*
X56908000Y-81834000D01*
X56908000Y-81834000D01*
G37*
G36*
X106756948Y-78175373D02*
X106826732Y-78182246D01*
X106916270Y-78209407D01*
X107005809Y-78236568D01*
X107170847Y-78324783D01*
X107315501Y-78443499D01*
X107434217Y-78588153D01*
X107522432Y-78753191D01*
X107576754Y-78932269D01*
X107595096Y-79118500D01*
X107576754Y-79304731D01*
X107522432Y-79483809D01*
X107434217Y-79648847D01*
X107315501Y-79793501D01*
X107170847Y-79912217D01*
X107005809Y-80000432D01*
X106916270Y-80027593D01*
X106826732Y-80054754D01*
X106687166Y-80068500D01*
X106593834Y-80068500D01*
X106454268Y-80054754D01*
X106364730Y-80027593D01*
X106275191Y-80000432D01*
X106110153Y-79912217D01*
X105965499Y-79793501D01*
X105846783Y-79648847D01*
X105758568Y-79483809D01*
X105704246Y-79304731D01*
X105685904Y-79118500D01*
X105704246Y-78932269D01*
X105758568Y-78753191D01*
X105846783Y-78588153D01*
X105965499Y-78443499D01*
X106110153Y-78324783D01*
X106275191Y-78236568D01*
X106364730Y-78209407D01*
X106454268Y-78182246D01*
X106524052Y-78175373D01*
X106593834Y-78168500D01*
X106687166Y-78168500D01*
X106756948Y-78175373D01*
X106756948Y-78175373D01*
G37*
G36*
X111840948Y-78175373D02*
X111910732Y-78182246D01*
X112000270Y-78209407D01*
X112089809Y-78236568D01*
X112254847Y-78324783D01*
X112399501Y-78443499D01*
X112518217Y-78588153D01*
X112606432Y-78753191D01*
X112660754Y-78932269D01*
X112679096Y-79118500D01*
X112660754Y-79304731D01*
X112606432Y-79483809D01*
X112518217Y-79648847D01*
X112399501Y-79793501D01*
X112254847Y-79912217D01*
X112089809Y-80000432D01*
X112000270Y-80027593D01*
X111910732Y-80054754D01*
X111771166Y-80068500D01*
X111677834Y-80068500D01*
X111538268Y-80054754D01*
X111448730Y-80027593D01*
X111359191Y-80000432D01*
X111194153Y-79912217D01*
X111049499Y-79793501D01*
X110930783Y-79648847D01*
X110842568Y-79483809D01*
X110788246Y-79304731D01*
X110769904Y-79118500D01*
X110788246Y-78932269D01*
X110842568Y-78753191D01*
X110930783Y-78588153D01*
X111049499Y-78443499D01*
X111194153Y-78324783D01*
X111359191Y-78236568D01*
X111448730Y-78209407D01*
X111538268Y-78182246D01*
X111608052Y-78175373D01*
X111677834Y-78168500D01*
X111771166Y-78168500D01*
X111840948Y-78175373D01*
X111840948Y-78175373D01*
G37*
G36*
X114380948Y-78175373D02*
X114450732Y-78182246D01*
X114540270Y-78209407D01*
X114629809Y-78236568D01*
X114794847Y-78324783D01*
X114939501Y-78443499D01*
X115058217Y-78588153D01*
X115146432Y-78753191D01*
X115200754Y-78932269D01*
X115219096Y-79118500D01*
X115200754Y-79304731D01*
X115146432Y-79483809D01*
X115058217Y-79648847D01*
X114939501Y-79793501D01*
X114794847Y-79912217D01*
X114629809Y-80000432D01*
X114540270Y-80027593D01*
X114450732Y-80054754D01*
X114311166Y-80068500D01*
X114217834Y-80068500D01*
X114078268Y-80054754D01*
X113988730Y-80027593D01*
X113899191Y-80000432D01*
X113734153Y-79912217D01*
X113589499Y-79793501D01*
X113470783Y-79648847D01*
X113382568Y-79483809D01*
X113328246Y-79304731D01*
X113309904Y-79118500D01*
X113328246Y-78932269D01*
X113382568Y-78753191D01*
X113470783Y-78588153D01*
X113589499Y-78443499D01*
X113734153Y-78324783D01*
X113899191Y-78236568D01*
X113988730Y-78209407D01*
X114078268Y-78182246D01*
X114148052Y-78175373D01*
X114217834Y-78168500D01*
X114311166Y-78168500D01*
X114380948Y-78175373D01*
X114380948Y-78175373D01*
G37*
G36*
X89578000Y-78870500D02*
X83378000Y-78870500D01*
X83378000Y-72670500D01*
X89578000Y-72670500D01*
X89578000Y-78870500D01*
X89578000Y-78870500D01*
G37*
G36*
X114380948Y-75635373D02*
X114450732Y-75642246D01*
X114540270Y-75669407D01*
X114629809Y-75696568D01*
X114794847Y-75784783D01*
X114939501Y-75903499D01*
X115058217Y-76048153D01*
X115146432Y-76213191D01*
X115200754Y-76392269D01*
X115219096Y-76578500D01*
X115200754Y-76764731D01*
X115146432Y-76943809D01*
X115058217Y-77108847D01*
X114939501Y-77253501D01*
X114794847Y-77372217D01*
X114629809Y-77460432D01*
X114540270Y-77487593D01*
X114450732Y-77514754D01*
X114311166Y-77528500D01*
X114217834Y-77528500D01*
X114078268Y-77514754D01*
X113988730Y-77487593D01*
X113899191Y-77460432D01*
X113734153Y-77372217D01*
X113589499Y-77253501D01*
X113470783Y-77108847D01*
X113382568Y-76943809D01*
X113328246Y-76764731D01*
X113309904Y-76578500D01*
X113328246Y-76392269D01*
X113382568Y-76213191D01*
X113470783Y-76048153D01*
X113589499Y-75903499D01*
X113734153Y-75784783D01*
X113899191Y-75696568D01*
X113988730Y-75669407D01*
X114078268Y-75642246D01*
X114148052Y-75635373D01*
X114217834Y-75628500D01*
X114311166Y-75628500D01*
X114380948Y-75635373D01*
X114380948Y-75635373D01*
G37*
G36*
X111840948Y-75635373D02*
X111910732Y-75642246D01*
X112000270Y-75669407D01*
X112089809Y-75696568D01*
X112254847Y-75784783D01*
X112399501Y-75903499D01*
X112518217Y-76048153D01*
X112606432Y-76213191D01*
X112660754Y-76392269D01*
X112679096Y-76578500D01*
X112660754Y-76764731D01*
X112606432Y-76943809D01*
X112518217Y-77108847D01*
X112399501Y-77253501D01*
X112254847Y-77372217D01*
X112089809Y-77460432D01*
X112000270Y-77487593D01*
X111910732Y-77514754D01*
X111771166Y-77528500D01*
X111677834Y-77528500D01*
X111538268Y-77514754D01*
X111448730Y-77487593D01*
X111359191Y-77460432D01*
X111194153Y-77372217D01*
X111049499Y-77253501D01*
X110930783Y-77108847D01*
X110842568Y-76943809D01*
X110788246Y-76764731D01*
X110769904Y-76578500D01*
X110788246Y-76392269D01*
X110842568Y-76213191D01*
X110930783Y-76048153D01*
X111049499Y-75903499D01*
X111194153Y-75784783D01*
X111359191Y-75696568D01*
X111448730Y-75669407D01*
X111538268Y-75642246D01*
X111608052Y-75635373D01*
X111677834Y-75628500D01*
X111771166Y-75628500D01*
X111840948Y-75635373D01*
X111840948Y-75635373D01*
G37*
G36*
X106756948Y-75635373D02*
X106826732Y-75642246D01*
X106916270Y-75669407D01*
X107005809Y-75696568D01*
X107170847Y-75784783D01*
X107315501Y-75903499D01*
X107434217Y-76048153D01*
X107522432Y-76213191D01*
X107576754Y-76392269D01*
X107595096Y-76578500D01*
X107576754Y-76764731D01*
X107522432Y-76943809D01*
X107434217Y-77108847D01*
X107315501Y-77253501D01*
X107170847Y-77372217D01*
X107005809Y-77460432D01*
X106916270Y-77487593D01*
X106826732Y-77514754D01*
X106687166Y-77528500D01*
X106593834Y-77528500D01*
X106454268Y-77514754D01*
X106364730Y-77487593D01*
X106275191Y-77460432D01*
X106110153Y-77372217D01*
X105965499Y-77253501D01*
X105846783Y-77108847D01*
X105758568Y-76943809D01*
X105704246Y-76764731D01*
X105685904Y-76578500D01*
X105704246Y-76392269D01*
X105758568Y-76213191D01*
X105846783Y-76048153D01*
X105965499Y-75903499D01*
X106110153Y-75784783D01*
X106275191Y-75696568D01*
X106364730Y-75669407D01*
X106454268Y-75642246D01*
X106524052Y-75635373D01*
X106593834Y-75628500D01*
X106687166Y-75628500D01*
X106756948Y-75635373D01*
X106756948Y-75635373D01*
G37*
G36*
X111840948Y-73095373D02*
X111910732Y-73102246D01*
X112000270Y-73129407D01*
X112089809Y-73156568D01*
X112254847Y-73244783D01*
X112399501Y-73363499D01*
X112518217Y-73508153D01*
X112606432Y-73673191D01*
X112660754Y-73852269D01*
X112679096Y-74038500D01*
X112660754Y-74224731D01*
X112606432Y-74403809D01*
X112518217Y-74568847D01*
X112399501Y-74713501D01*
X112254847Y-74832217D01*
X112089809Y-74920432D01*
X112000270Y-74947593D01*
X111910732Y-74974754D01*
X111771166Y-74988500D01*
X111677834Y-74988500D01*
X111538268Y-74974754D01*
X111448730Y-74947593D01*
X111359191Y-74920432D01*
X111194153Y-74832217D01*
X111049499Y-74713501D01*
X110930783Y-74568847D01*
X110842568Y-74403809D01*
X110788246Y-74224731D01*
X110769904Y-74038500D01*
X110788246Y-73852269D01*
X110842568Y-73673191D01*
X110930783Y-73508153D01*
X111049499Y-73363499D01*
X111194153Y-73244783D01*
X111359191Y-73156568D01*
X111448730Y-73129407D01*
X111538268Y-73102246D01*
X111608052Y-73095373D01*
X111677834Y-73088500D01*
X111771166Y-73088500D01*
X111840948Y-73095373D01*
X111840948Y-73095373D01*
G37*
G36*
X114380948Y-73095373D02*
X114450732Y-73102246D01*
X114540270Y-73129407D01*
X114629809Y-73156568D01*
X114794847Y-73244783D01*
X114939501Y-73363499D01*
X115058217Y-73508153D01*
X115146432Y-73673191D01*
X115200754Y-73852269D01*
X115219096Y-74038500D01*
X115200754Y-74224731D01*
X115146432Y-74403809D01*
X115058217Y-74568847D01*
X114939501Y-74713501D01*
X114794847Y-74832217D01*
X114629809Y-74920432D01*
X114540270Y-74947593D01*
X114450732Y-74974754D01*
X114311166Y-74988500D01*
X114217834Y-74988500D01*
X114078268Y-74974754D01*
X113988730Y-74947593D01*
X113899191Y-74920432D01*
X113734153Y-74832217D01*
X113589499Y-74713501D01*
X113470783Y-74568847D01*
X113382568Y-74403809D01*
X113328246Y-74224731D01*
X113309904Y-74038500D01*
X113328246Y-73852269D01*
X113382568Y-73673191D01*
X113470783Y-73508153D01*
X113589499Y-73363499D01*
X113734153Y-73244783D01*
X113899191Y-73156568D01*
X113988730Y-73129407D01*
X114078268Y-73102246D01*
X114148052Y-73095373D01*
X114217834Y-73088500D01*
X114311166Y-73088500D01*
X114380948Y-73095373D01*
X114380948Y-73095373D01*
G37*
G36*
X106756948Y-73095373D02*
X106826732Y-73102246D01*
X106916270Y-73129407D01*
X107005809Y-73156568D01*
X107170847Y-73244783D01*
X107315501Y-73363499D01*
X107434217Y-73508153D01*
X107522432Y-73673191D01*
X107576754Y-73852269D01*
X107595096Y-74038500D01*
X107576754Y-74224731D01*
X107522432Y-74403809D01*
X107434217Y-74568847D01*
X107315501Y-74713501D01*
X107170847Y-74832217D01*
X107005809Y-74920432D01*
X106916270Y-74947593D01*
X106826732Y-74974754D01*
X106687166Y-74988500D01*
X106593834Y-74988500D01*
X106454268Y-74974754D01*
X106364730Y-74947593D01*
X106275191Y-74920432D01*
X106110153Y-74832217D01*
X105965499Y-74713501D01*
X105846783Y-74568847D01*
X105758568Y-74403809D01*
X105704246Y-74224731D01*
X105685904Y-74038500D01*
X105704246Y-73852269D01*
X105758568Y-73673191D01*
X105846783Y-73508153D01*
X105965499Y-73363499D01*
X106110153Y-73244783D01*
X106275191Y-73156568D01*
X106364730Y-73129407D01*
X106454268Y-73102246D01*
X106524052Y-73095373D01*
X106593834Y-73088500D01*
X106687166Y-73088500D01*
X106756948Y-73095373D01*
X106756948Y-73095373D01*
G37*
G36*
X56332200Y-74366480D02*
X55382200Y-74366480D01*
X55382200Y-73366480D01*
X56332200Y-73366480D01*
X56332200Y-74366480D01*
X56332200Y-74366480D01*
G37*
G36*
X60682318Y-71588411D02*
X60754767Y-71602822D01*
X60809516Y-71625500D01*
X60891257Y-71659358D01*
X61014100Y-71741439D01*
X61118561Y-71845900D01*
X61200642Y-71968743D01*
X61257178Y-72105234D01*
X61286000Y-72250130D01*
X61286000Y-72397870D01*
X61257178Y-72542766D01*
X61200642Y-72679257D01*
X61118561Y-72802100D01*
X61014100Y-72906561D01*
X60891257Y-72988642D01*
X60855823Y-73003319D01*
X60754767Y-73045178D01*
X60682318Y-73059589D01*
X60609870Y-73074000D01*
X60462130Y-73074000D01*
X60389682Y-73059589D01*
X60317233Y-73045178D01*
X60216177Y-73003319D01*
X60180743Y-72988642D01*
X60057900Y-72906561D01*
X59953439Y-72802100D01*
X59871358Y-72679257D01*
X59814822Y-72542766D01*
X59786000Y-72397870D01*
X59786000Y-72250130D01*
X59814822Y-72105234D01*
X59871358Y-71968743D01*
X59953439Y-71845900D01*
X60057900Y-71741439D01*
X60180743Y-71659358D01*
X60262484Y-71625500D01*
X60317233Y-71602822D01*
X60389682Y-71588411D01*
X60462130Y-71574000D01*
X60609870Y-71574000D01*
X60682318Y-71588411D01*
X60682318Y-71588411D01*
G37*
G36*
X64786000Y-73074000D02*
X63286000Y-73074000D01*
X63286000Y-71574000D01*
X64786000Y-71574000D01*
X64786000Y-73074000D01*
X64786000Y-73074000D01*
G37*
G36*
X56332200Y-72866480D02*
X55382200Y-72866480D01*
X55382200Y-71866480D01*
X56332200Y-71866480D01*
X56332200Y-72866480D01*
X56332200Y-72866480D01*
G37*
G36*
X114450732Y-70562246D02*
X114540270Y-70589407D01*
X114629809Y-70616568D01*
X114794847Y-70704783D01*
X114939501Y-70823499D01*
X115058217Y-70968153D01*
X115146432Y-71133191D01*
X115200754Y-71312269D01*
X115219096Y-71498500D01*
X115200754Y-71684731D01*
X115146432Y-71863809D01*
X115058217Y-72028847D01*
X114939501Y-72173501D01*
X114794847Y-72292217D01*
X114629809Y-72380432D01*
X114572326Y-72397869D01*
X114450732Y-72434754D01*
X114311166Y-72448500D01*
X114217834Y-72448500D01*
X114078268Y-72434754D01*
X113956674Y-72397869D01*
X113899191Y-72380432D01*
X113734153Y-72292217D01*
X113589499Y-72173501D01*
X113470783Y-72028847D01*
X113382568Y-71863809D01*
X113328246Y-71684731D01*
X113309904Y-71498500D01*
X113328246Y-71312269D01*
X113382568Y-71133191D01*
X113470783Y-70968153D01*
X113589499Y-70823499D01*
X113734153Y-70704783D01*
X113899191Y-70616568D01*
X113988730Y-70589407D01*
X114078268Y-70562246D01*
X114217834Y-70548500D01*
X114311166Y-70548500D01*
X114450732Y-70562246D01*
X114450732Y-70562246D01*
G37*
G36*
X112674500Y-72448500D02*
X110774500Y-72448500D01*
X110774500Y-70548500D01*
X112674500Y-70548500D01*
X112674500Y-72448500D01*
X112674500Y-72448500D01*
G37*
G36*
X106826732Y-70562246D02*
X106916270Y-70589407D01*
X107005809Y-70616568D01*
X107170847Y-70704783D01*
X107315501Y-70823499D01*
X107434217Y-70968153D01*
X107522432Y-71133191D01*
X107576754Y-71312269D01*
X107595096Y-71498500D01*
X107576754Y-71684731D01*
X107522432Y-71863809D01*
X107434217Y-72028847D01*
X107315501Y-72173501D01*
X107170847Y-72292217D01*
X107005809Y-72380432D01*
X106948326Y-72397869D01*
X106826732Y-72434754D01*
X106687166Y-72448500D01*
X106593834Y-72448500D01*
X106454268Y-72434754D01*
X106332674Y-72397869D01*
X106275191Y-72380432D01*
X106110153Y-72292217D01*
X105965499Y-72173501D01*
X105846783Y-72028847D01*
X105758568Y-71863809D01*
X105704246Y-71684731D01*
X105685904Y-71498500D01*
X105704246Y-71312269D01*
X105758568Y-71133191D01*
X105846783Y-70968153D01*
X105965499Y-70823499D01*
X106110153Y-70704783D01*
X106275191Y-70616568D01*
X106364730Y-70589407D01*
X106454268Y-70562246D01*
X106593834Y-70548500D01*
X106687166Y-70548500D01*
X106826732Y-70562246D01*
X106826732Y-70562246D01*
G37*
G36*
X77775818Y-65728458D02*
X77852517Y-65751725D01*
X77879497Y-65759909D01*
X77975038Y-65810976D01*
X77975041Y-65810978D01*
X77975042Y-65810979D01*
X78058790Y-65879710D01*
X78058792Y-65879713D01*
X78127522Y-65963458D01*
X78178591Y-66059002D01*
X78180904Y-66066628D01*
X78183383Y-66074799D01*
X78192759Y-66097436D01*
X78206373Y-66117811D01*
X78223700Y-66135138D01*
X78244075Y-66148752D01*
X78266714Y-66158129D01*
X78290747Y-66162910D01*
X78315251Y-66162910D01*
X78339285Y-66158130D01*
X78361924Y-66148753D01*
X78382299Y-66135139D01*
X78399626Y-66117812D01*
X78413240Y-66097437D01*
X78422617Y-66074798D01*
X78427407Y-66059007D01*
X78478476Y-65963462D01*
X78478479Y-65963458D01*
X78547210Y-65879710D01*
X78573679Y-65857987D01*
X78630958Y-65810978D01*
X78726502Y-65759909D01*
X78753482Y-65751725D01*
X78830181Y-65728458D01*
X78902060Y-65721379D01*
X78937999Y-65717839D01*
X78938000Y-65717839D01*
X79045818Y-65728458D01*
X79122517Y-65751725D01*
X79149497Y-65759909D01*
X79245038Y-65810976D01*
X79245041Y-65810978D01*
X79245042Y-65810979D01*
X79328790Y-65879710D01*
X79328792Y-65879713D01*
X79397522Y-65963458D01*
X79448591Y-66059002D01*
X79450904Y-66066628D01*
X79453383Y-66074799D01*
X79462759Y-66097436D01*
X79476373Y-66117811D01*
X79493700Y-66135138D01*
X79514075Y-66148752D01*
X79536714Y-66158129D01*
X79560747Y-66162910D01*
X79585251Y-66162910D01*
X79609285Y-66158130D01*
X79631924Y-66148753D01*
X79652299Y-66135139D01*
X79669626Y-66117812D01*
X79683240Y-66097437D01*
X79692617Y-66074798D01*
X79697407Y-66059007D01*
X79748476Y-65963462D01*
X79748479Y-65963458D01*
X79817210Y-65879710D01*
X79843679Y-65857987D01*
X79900958Y-65810978D01*
X79996502Y-65759909D01*
X80023482Y-65751725D01*
X80100181Y-65728458D01*
X80172060Y-65721379D01*
X80207999Y-65717839D01*
X80208000Y-65717839D01*
X80315818Y-65728458D01*
X80392517Y-65751725D01*
X80419497Y-65759909D01*
X80515038Y-65810976D01*
X80515041Y-65810978D01*
X80515042Y-65810979D01*
X80598790Y-65879710D01*
X80598792Y-65879713D01*
X80667522Y-65963458D01*
X80718591Y-66059002D01*
X80720904Y-66066628D01*
X80723383Y-66074799D01*
X80732759Y-66097436D01*
X80746373Y-66117811D01*
X80763700Y-66135138D01*
X80784075Y-66148752D01*
X80806714Y-66158129D01*
X80830747Y-66162910D01*
X80855251Y-66162910D01*
X80879285Y-66158130D01*
X80901924Y-66148753D01*
X80922299Y-66135139D01*
X80939626Y-66117812D01*
X80953240Y-66097437D01*
X80962617Y-66074798D01*
X80967407Y-66059007D01*
X81018476Y-65963462D01*
X81018479Y-65963458D01*
X81087210Y-65879710D01*
X81113679Y-65857987D01*
X81170958Y-65810978D01*
X81266502Y-65759909D01*
X81293482Y-65751725D01*
X81370181Y-65728458D01*
X81442060Y-65721379D01*
X81477999Y-65717839D01*
X81478000Y-65717839D01*
X81585818Y-65728458D01*
X81662517Y-65751725D01*
X81689497Y-65759909D01*
X81785038Y-65810976D01*
X81785041Y-65810978D01*
X81785042Y-65810979D01*
X81868790Y-65879710D01*
X81868792Y-65879713D01*
X81937522Y-65963458D01*
X81988591Y-66059002D01*
X81990904Y-66066628D01*
X81993383Y-66074799D01*
X82002759Y-66097436D01*
X82016373Y-66117811D01*
X82033700Y-66135138D01*
X82054075Y-66148752D01*
X82076714Y-66158129D01*
X82100747Y-66162910D01*
X82125251Y-66162910D01*
X82149285Y-66158130D01*
X82171924Y-66148753D01*
X82192299Y-66135139D01*
X82209626Y-66117812D01*
X82223240Y-66097437D01*
X82232617Y-66074798D01*
X82237407Y-66059007D01*
X82288476Y-65963462D01*
X82288479Y-65963458D01*
X82357210Y-65879710D01*
X82383679Y-65857987D01*
X82440958Y-65810978D01*
X82536502Y-65759909D01*
X82563482Y-65751725D01*
X82640181Y-65728458D01*
X82712060Y-65721379D01*
X82747999Y-65717839D01*
X82748000Y-65717839D01*
X82855818Y-65728458D01*
X82932517Y-65751725D01*
X82959497Y-65759909D01*
X83055038Y-65810976D01*
X83055041Y-65810978D01*
X83055042Y-65810979D01*
X83138790Y-65879710D01*
X83138792Y-65879713D01*
X83207522Y-65963458D01*
X83258591Y-66059002D01*
X83260904Y-66066628D01*
X83263383Y-66074799D01*
X83272759Y-66097436D01*
X83286373Y-66117811D01*
X83303700Y-66135138D01*
X83324075Y-66148752D01*
X83346714Y-66158129D01*
X83370747Y-66162910D01*
X83395251Y-66162910D01*
X83419285Y-66158130D01*
X83441924Y-66148753D01*
X83462299Y-66135139D01*
X83479626Y-66117812D01*
X83493240Y-66097437D01*
X83502617Y-66074798D01*
X83507407Y-66059007D01*
X83558476Y-65963462D01*
X83558479Y-65963458D01*
X83627210Y-65879710D01*
X83653679Y-65857987D01*
X83710958Y-65810978D01*
X83806502Y-65759909D01*
X83833482Y-65751725D01*
X83910181Y-65728458D01*
X83982060Y-65721379D01*
X84017999Y-65717839D01*
X84018000Y-65717839D01*
X84125818Y-65728458D01*
X84202517Y-65751725D01*
X84229497Y-65759909D01*
X84325038Y-65810976D01*
X84325041Y-65810978D01*
X84325042Y-65810979D01*
X84408790Y-65879710D01*
X84408792Y-65879713D01*
X84477522Y-65963458D01*
X84528591Y-66059002D01*
X84530904Y-66066628D01*
X84533383Y-66074799D01*
X84542759Y-66097436D01*
X84556373Y-66117811D01*
X84573700Y-66135138D01*
X84594075Y-66148752D01*
X84616714Y-66158129D01*
X84640747Y-66162910D01*
X84665251Y-66162910D01*
X84689285Y-66158130D01*
X84711924Y-66148753D01*
X84732299Y-66135139D01*
X84749626Y-66117812D01*
X84763240Y-66097437D01*
X84772617Y-66074798D01*
X84777407Y-66059007D01*
X84828476Y-65963462D01*
X84828479Y-65963458D01*
X84897210Y-65879710D01*
X84923679Y-65857987D01*
X84980958Y-65810978D01*
X85076502Y-65759909D01*
X85103482Y-65751725D01*
X85180181Y-65728458D01*
X85252060Y-65721379D01*
X85287999Y-65717839D01*
X85288000Y-65717839D01*
X85395818Y-65728458D01*
X85472517Y-65751725D01*
X85499497Y-65759909D01*
X85595038Y-65810976D01*
X85595041Y-65810978D01*
X85595042Y-65810979D01*
X85678790Y-65879710D01*
X85678792Y-65879713D01*
X85747522Y-65963458D01*
X85798591Y-66059002D01*
X85800904Y-66066628D01*
X85803383Y-66074799D01*
X85812759Y-66097436D01*
X85826373Y-66117811D01*
X85843700Y-66135138D01*
X85864075Y-66148752D01*
X85886714Y-66158129D01*
X85910747Y-66162910D01*
X85935251Y-66162910D01*
X85959285Y-66158130D01*
X85981924Y-66148753D01*
X86002299Y-66135139D01*
X86019626Y-66117812D01*
X86033240Y-66097437D01*
X86042617Y-66074798D01*
X86047407Y-66059007D01*
X86098476Y-65963462D01*
X86098479Y-65963458D01*
X86167210Y-65879710D01*
X86193679Y-65857987D01*
X86250958Y-65810978D01*
X86346502Y-65759909D01*
X86373482Y-65751725D01*
X86450181Y-65728458D01*
X86522060Y-65721379D01*
X86557999Y-65717839D01*
X86558000Y-65717839D01*
X86665818Y-65728458D01*
X86742517Y-65751725D01*
X86769497Y-65759909D01*
X86865038Y-65810976D01*
X86865041Y-65810978D01*
X86865042Y-65810979D01*
X86948790Y-65879710D01*
X86948792Y-65879713D01*
X87017522Y-65963458D01*
X87068591Y-66059002D01*
X87070904Y-66066628D01*
X87073383Y-66074799D01*
X87082759Y-66097436D01*
X87096373Y-66117811D01*
X87113700Y-66135138D01*
X87134075Y-66148752D01*
X87156714Y-66158129D01*
X87180747Y-66162910D01*
X87205251Y-66162910D01*
X87229285Y-66158130D01*
X87251924Y-66148753D01*
X87272299Y-66135139D01*
X87289626Y-66117812D01*
X87303240Y-66097437D01*
X87312617Y-66074798D01*
X87317407Y-66059007D01*
X87368476Y-65963462D01*
X87368479Y-65963458D01*
X87437210Y-65879710D01*
X87463679Y-65857987D01*
X87520958Y-65810978D01*
X87616502Y-65759909D01*
X87643482Y-65751725D01*
X87720181Y-65728458D01*
X87792060Y-65721379D01*
X87827999Y-65717839D01*
X87828000Y-65717839D01*
X87935818Y-65728458D01*
X88012517Y-65751725D01*
X88039497Y-65759909D01*
X88135038Y-65810976D01*
X88135041Y-65810978D01*
X88135042Y-65810979D01*
X88218790Y-65879710D01*
X88218792Y-65879713D01*
X88287522Y-65963458D01*
X88338591Y-66059002D01*
X88340904Y-66066628D01*
X88343383Y-66074799D01*
X88352759Y-66097436D01*
X88366373Y-66117811D01*
X88383700Y-66135138D01*
X88404075Y-66148752D01*
X88426714Y-66158129D01*
X88450747Y-66162910D01*
X88475251Y-66162910D01*
X88499285Y-66158130D01*
X88521924Y-66148753D01*
X88542299Y-66135139D01*
X88559626Y-66117812D01*
X88573240Y-66097437D01*
X88582617Y-66074798D01*
X88587407Y-66059007D01*
X88638476Y-65963462D01*
X88638479Y-65963458D01*
X88707210Y-65879710D01*
X88733679Y-65857987D01*
X88790958Y-65810978D01*
X88886502Y-65759909D01*
X88913482Y-65751725D01*
X88990181Y-65728458D01*
X89062060Y-65721379D01*
X89097999Y-65717839D01*
X89098000Y-65717839D01*
X89205818Y-65728458D01*
X89282517Y-65751725D01*
X89309497Y-65759909D01*
X89405038Y-65810976D01*
X89405041Y-65810978D01*
X89405042Y-65810979D01*
X89488790Y-65879710D01*
X89488792Y-65879713D01*
X89557522Y-65963458D01*
X89608591Y-66059002D01*
X89610904Y-66066628D01*
X89613383Y-66074799D01*
X89622759Y-66097436D01*
X89636373Y-66117811D01*
X89653700Y-66135138D01*
X89674075Y-66148752D01*
X89696714Y-66158129D01*
X89720747Y-66162910D01*
X89745251Y-66162910D01*
X89769285Y-66158130D01*
X89791924Y-66148753D01*
X89812299Y-66135139D01*
X89829626Y-66117812D01*
X89843240Y-66097437D01*
X89852617Y-66074798D01*
X89857407Y-66059007D01*
X89908476Y-65963462D01*
X89908479Y-65963458D01*
X89977210Y-65879710D01*
X90003679Y-65857987D01*
X90060958Y-65810978D01*
X90156502Y-65759909D01*
X90183482Y-65751725D01*
X90260181Y-65728458D01*
X90332060Y-65721379D01*
X90367999Y-65717839D01*
X90368000Y-65717839D01*
X90475818Y-65728458D01*
X90552517Y-65751725D01*
X90579497Y-65759909D01*
X90675038Y-65810976D01*
X90675041Y-65810978D01*
X90675042Y-65810979D01*
X90758790Y-65879710D01*
X90758792Y-65879713D01*
X90827522Y-65963458D01*
X90878591Y-66059002D01*
X90880904Y-66066628D01*
X90883383Y-66074799D01*
X90892759Y-66097436D01*
X90906373Y-66117811D01*
X90923700Y-66135138D01*
X90944075Y-66148752D01*
X90966714Y-66158129D01*
X90990747Y-66162910D01*
X91015251Y-66162910D01*
X91039285Y-66158130D01*
X91061924Y-66148753D01*
X91082299Y-66135139D01*
X91099626Y-66117812D01*
X91113240Y-66097437D01*
X91122617Y-66074798D01*
X91127407Y-66059007D01*
X91178476Y-65963462D01*
X91178479Y-65963458D01*
X91247210Y-65879710D01*
X91273679Y-65857987D01*
X91330958Y-65810978D01*
X91426502Y-65759909D01*
X91453482Y-65751725D01*
X91530181Y-65728458D01*
X91602060Y-65721379D01*
X91637999Y-65717839D01*
X91638000Y-65717839D01*
X91745818Y-65728458D01*
X91822517Y-65751725D01*
X91849497Y-65759909D01*
X91945038Y-65810976D01*
X91945041Y-65810978D01*
X91945042Y-65810979D01*
X92028790Y-65879710D01*
X92028792Y-65879713D01*
X92097522Y-65963458D01*
X92148591Y-66059002D01*
X92150904Y-66066628D01*
X92153383Y-66074799D01*
X92162759Y-66097436D01*
X92176373Y-66117811D01*
X92193700Y-66135138D01*
X92214075Y-66148752D01*
X92236714Y-66158129D01*
X92260747Y-66162910D01*
X92285251Y-66162910D01*
X92309285Y-66158130D01*
X92331924Y-66148753D01*
X92352299Y-66135139D01*
X92369626Y-66117812D01*
X92383240Y-66097437D01*
X92392617Y-66074798D01*
X92397407Y-66059007D01*
X92448476Y-65963462D01*
X92448479Y-65963458D01*
X92517210Y-65879710D01*
X92543679Y-65857987D01*
X92600958Y-65810978D01*
X92696502Y-65759909D01*
X92723482Y-65751725D01*
X92800181Y-65728458D01*
X92872060Y-65721379D01*
X92907999Y-65717839D01*
X92908000Y-65717839D01*
X93015818Y-65728458D01*
X93092517Y-65751725D01*
X93119497Y-65759909D01*
X93215038Y-65810976D01*
X93215041Y-65810978D01*
X93215042Y-65810979D01*
X93298790Y-65879710D01*
X93298792Y-65879713D01*
X93367522Y-65963458D01*
X93418591Y-66059002D01*
X93420904Y-66066628D01*
X93423383Y-66074799D01*
X93432759Y-66097436D01*
X93446373Y-66117811D01*
X93463700Y-66135138D01*
X93484075Y-66148752D01*
X93506714Y-66158129D01*
X93530747Y-66162910D01*
X93555251Y-66162910D01*
X93579285Y-66158130D01*
X93601924Y-66148753D01*
X93622299Y-66135139D01*
X93639626Y-66117812D01*
X93653240Y-66097437D01*
X93662617Y-66074798D01*
X93667407Y-66059007D01*
X93718476Y-65963462D01*
X93718479Y-65963458D01*
X93787210Y-65879710D01*
X93813679Y-65857987D01*
X93870958Y-65810978D01*
X93966502Y-65759909D01*
X93993482Y-65751725D01*
X94070181Y-65728458D01*
X94142060Y-65721379D01*
X94177999Y-65717839D01*
X94178000Y-65717839D01*
X94285818Y-65728458D01*
X94362517Y-65751725D01*
X94389497Y-65759909D01*
X94485038Y-65810976D01*
X94485041Y-65810978D01*
X94485042Y-65810979D01*
X94568790Y-65879710D01*
X94568792Y-65879713D01*
X94637522Y-65963458D01*
X94688591Y-66059002D01*
X94693382Y-66074797D01*
X94720042Y-66162681D01*
X94728000Y-66243482D01*
X94728000Y-67897518D01*
X94720042Y-67978319D01*
X94700251Y-68043561D01*
X94688591Y-68081998D01*
X94637524Y-68177539D01*
X94568790Y-68261290D01*
X94485039Y-68330024D01*
X94389498Y-68381091D01*
X94362518Y-68389275D01*
X94285819Y-68412542D01*
X94213940Y-68419621D01*
X94178001Y-68423161D01*
X94178000Y-68423161D01*
X94070182Y-68412542D01*
X93993483Y-68389275D01*
X93966503Y-68381091D01*
X93870962Y-68330024D01*
X93787211Y-68261290D01*
X93718477Y-68177539D01*
X93667410Y-68081997D01*
X93662619Y-68066203D01*
X93653242Y-68043564D01*
X93639629Y-68023189D01*
X93622302Y-68005862D01*
X93601927Y-67992248D01*
X93579288Y-67982870D01*
X93555255Y-67978089D01*
X93530751Y-67978089D01*
X93506717Y-67982869D01*
X93484078Y-67992246D01*
X93463703Y-68005859D01*
X93446376Y-68023186D01*
X93432762Y-68043561D01*
X93423384Y-68066199D01*
X93418592Y-68081996D01*
X93367524Y-68177539D01*
X93298790Y-68261290D01*
X93215039Y-68330024D01*
X93119498Y-68381091D01*
X93092518Y-68389275D01*
X93015819Y-68412542D01*
X92943940Y-68419621D01*
X92908001Y-68423161D01*
X92908000Y-68423161D01*
X92800182Y-68412542D01*
X92723483Y-68389275D01*
X92696503Y-68381091D01*
X92600962Y-68330024D01*
X92517211Y-68261290D01*
X92448477Y-68177539D01*
X92397410Y-68081997D01*
X92392619Y-68066203D01*
X92383242Y-68043564D01*
X92369629Y-68023189D01*
X92352302Y-68005862D01*
X92331927Y-67992248D01*
X92309288Y-67982870D01*
X92285255Y-67978089D01*
X92260751Y-67978089D01*
X92236717Y-67982869D01*
X92214078Y-67992246D01*
X92193703Y-68005859D01*
X92176376Y-68023186D01*
X92162762Y-68043561D01*
X92153384Y-68066199D01*
X92148592Y-68081996D01*
X92097524Y-68177539D01*
X92028790Y-68261290D01*
X91945039Y-68330024D01*
X91849498Y-68381091D01*
X91822518Y-68389275D01*
X91745819Y-68412542D01*
X91673940Y-68419621D01*
X91638001Y-68423161D01*
X91638000Y-68423161D01*
X91530182Y-68412542D01*
X91453483Y-68389275D01*
X91426503Y-68381091D01*
X91330962Y-68330024D01*
X91247211Y-68261290D01*
X91178477Y-68177539D01*
X91127410Y-68081997D01*
X91122619Y-68066203D01*
X91113242Y-68043564D01*
X91099629Y-68023189D01*
X91082302Y-68005862D01*
X91061927Y-67992248D01*
X91039288Y-67982870D01*
X91015255Y-67978089D01*
X90990751Y-67978089D01*
X90966717Y-67982869D01*
X90944078Y-67992246D01*
X90923703Y-68005859D01*
X90906376Y-68023186D01*
X90892762Y-68043561D01*
X90883384Y-68066199D01*
X90878592Y-68081996D01*
X90827524Y-68177539D01*
X90758790Y-68261290D01*
X90675039Y-68330024D01*
X90579498Y-68381091D01*
X90552518Y-68389275D01*
X90475819Y-68412542D01*
X90403940Y-68419621D01*
X90368001Y-68423161D01*
X90368000Y-68423161D01*
X90260182Y-68412542D01*
X90183483Y-68389275D01*
X90156503Y-68381091D01*
X90060962Y-68330024D01*
X89977211Y-68261290D01*
X89908477Y-68177539D01*
X89857410Y-68081997D01*
X89852619Y-68066203D01*
X89843242Y-68043564D01*
X89829629Y-68023189D01*
X89812302Y-68005862D01*
X89791927Y-67992248D01*
X89769288Y-67982870D01*
X89745255Y-67978089D01*
X89720751Y-67978089D01*
X89696717Y-67982869D01*
X89674078Y-67992246D01*
X89653703Y-68005859D01*
X89636376Y-68023186D01*
X89622762Y-68043561D01*
X89613384Y-68066199D01*
X89608592Y-68081996D01*
X89557524Y-68177539D01*
X89488790Y-68261290D01*
X89405039Y-68330024D01*
X89309498Y-68381091D01*
X89282518Y-68389275D01*
X89205819Y-68412542D01*
X89133940Y-68419621D01*
X89098001Y-68423161D01*
X89098000Y-68423161D01*
X88990182Y-68412542D01*
X88913483Y-68389275D01*
X88886503Y-68381091D01*
X88790962Y-68330024D01*
X88707211Y-68261290D01*
X88638477Y-68177539D01*
X88587410Y-68081997D01*
X88582619Y-68066203D01*
X88573242Y-68043564D01*
X88559629Y-68023189D01*
X88542302Y-68005862D01*
X88521927Y-67992248D01*
X88499288Y-67982870D01*
X88475255Y-67978089D01*
X88450751Y-67978089D01*
X88426717Y-67982869D01*
X88404078Y-67992246D01*
X88383703Y-68005859D01*
X88366376Y-68023186D01*
X88352762Y-68043561D01*
X88343384Y-68066199D01*
X88338592Y-68081996D01*
X88287524Y-68177539D01*
X88218790Y-68261290D01*
X88135039Y-68330024D01*
X88039498Y-68381091D01*
X88012518Y-68389275D01*
X87935819Y-68412542D01*
X87863940Y-68419621D01*
X87828001Y-68423161D01*
X87828000Y-68423161D01*
X87720182Y-68412542D01*
X87643483Y-68389275D01*
X87616503Y-68381091D01*
X87520962Y-68330024D01*
X87437211Y-68261290D01*
X87368477Y-68177539D01*
X87317410Y-68081997D01*
X87312619Y-68066203D01*
X87303242Y-68043564D01*
X87289629Y-68023189D01*
X87272302Y-68005862D01*
X87251927Y-67992248D01*
X87229288Y-67982870D01*
X87205255Y-67978089D01*
X87180751Y-67978089D01*
X87156717Y-67982869D01*
X87134078Y-67992246D01*
X87113703Y-68005859D01*
X87096376Y-68023186D01*
X87082762Y-68043561D01*
X87073384Y-68066199D01*
X87068592Y-68081996D01*
X87017524Y-68177539D01*
X86948790Y-68261290D01*
X86865039Y-68330024D01*
X86769498Y-68381091D01*
X86742518Y-68389275D01*
X86665819Y-68412542D01*
X86593940Y-68419621D01*
X86558001Y-68423161D01*
X86558000Y-68423161D01*
X86450182Y-68412542D01*
X86373483Y-68389275D01*
X86346503Y-68381091D01*
X86250962Y-68330024D01*
X86167211Y-68261290D01*
X86098477Y-68177539D01*
X86047410Y-68081997D01*
X86042619Y-68066203D01*
X86033242Y-68043564D01*
X86019629Y-68023189D01*
X86002302Y-68005862D01*
X85981927Y-67992248D01*
X85959288Y-67982870D01*
X85935255Y-67978089D01*
X85910751Y-67978089D01*
X85886717Y-67982869D01*
X85864078Y-67992246D01*
X85843703Y-68005859D01*
X85826376Y-68023186D01*
X85812762Y-68043561D01*
X85803384Y-68066199D01*
X85798592Y-68081996D01*
X85747524Y-68177539D01*
X85678790Y-68261290D01*
X85595039Y-68330024D01*
X85499498Y-68381091D01*
X85472518Y-68389275D01*
X85395819Y-68412542D01*
X85323940Y-68419621D01*
X85288001Y-68423161D01*
X85288000Y-68423161D01*
X85180182Y-68412542D01*
X85103483Y-68389275D01*
X85076503Y-68381091D01*
X84980962Y-68330024D01*
X84897211Y-68261290D01*
X84828477Y-68177539D01*
X84777410Y-68081997D01*
X84772619Y-68066203D01*
X84763242Y-68043564D01*
X84749629Y-68023189D01*
X84732302Y-68005862D01*
X84711927Y-67992248D01*
X84689288Y-67982870D01*
X84665255Y-67978089D01*
X84640751Y-67978089D01*
X84616717Y-67982869D01*
X84594078Y-67992246D01*
X84573703Y-68005859D01*
X84556376Y-68023186D01*
X84542762Y-68043561D01*
X84533384Y-68066199D01*
X84528592Y-68081996D01*
X84477524Y-68177539D01*
X84408790Y-68261290D01*
X84325039Y-68330024D01*
X84229498Y-68381091D01*
X84202518Y-68389275D01*
X84125819Y-68412542D01*
X84053940Y-68419621D01*
X84018001Y-68423161D01*
X84018000Y-68423161D01*
X83910182Y-68412542D01*
X83833483Y-68389275D01*
X83806503Y-68381091D01*
X83710962Y-68330024D01*
X83627211Y-68261290D01*
X83558477Y-68177539D01*
X83507410Y-68081997D01*
X83502619Y-68066203D01*
X83493242Y-68043564D01*
X83479629Y-68023189D01*
X83462302Y-68005862D01*
X83441927Y-67992248D01*
X83419288Y-67982870D01*
X83395255Y-67978089D01*
X83370751Y-67978089D01*
X83346717Y-67982869D01*
X83324078Y-67992246D01*
X83303703Y-68005859D01*
X83286376Y-68023186D01*
X83272762Y-68043561D01*
X83263384Y-68066199D01*
X83258592Y-68081996D01*
X83207524Y-68177539D01*
X83138790Y-68261290D01*
X83055039Y-68330024D01*
X82959498Y-68381091D01*
X82932518Y-68389275D01*
X82855819Y-68412542D01*
X82783940Y-68419621D01*
X82748001Y-68423161D01*
X82748000Y-68423161D01*
X82640182Y-68412542D01*
X82563483Y-68389275D01*
X82536503Y-68381091D01*
X82440962Y-68330024D01*
X82357211Y-68261290D01*
X82288477Y-68177539D01*
X82237410Y-68081997D01*
X82232619Y-68066203D01*
X82223242Y-68043564D01*
X82209629Y-68023189D01*
X82192302Y-68005862D01*
X82171927Y-67992248D01*
X82149288Y-67982870D01*
X82125255Y-67978089D01*
X82100751Y-67978089D01*
X82076717Y-67982869D01*
X82054078Y-67992246D01*
X82033703Y-68005859D01*
X82016376Y-68023186D01*
X82002762Y-68043561D01*
X81993384Y-68066199D01*
X81988592Y-68081996D01*
X81937524Y-68177539D01*
X81868790Y-68261290D01*
X81785039Y-68330024D01*
X81689498Y-68381091D01*
X81662518Y-68389275D01*
X81585819Y-68412542D01*
X81513940Y-68419621D01*
X81478001Y-68423161D01*
X81478000Y-68423161D01*
X81370182Y-68412542D01*
X81293483Y-68389275D01*
X81266503Y-68381091D01*
X81170962Y-68330024D01*
X81087211Y-68261290D01*
X81018477Y-68177539D01*
X80967410Y-68081997D01*
X80962619Y-68066203D01*
X80953242Y-68043564D01*
X80939629Y-68023189D01*
X80922302Y-68005862D01*
X80901927Y-67992248D01*
X80879288Y-67982870D01*
X80855255Y-67978089D01*
X80830751Y-67978089D01*
X80806717Y-67982869D01*
X80784078Y-67992246D01*
X80763703Y-68005859D01*
X80746376Y-68023186D01*
X80732762Y-68043561D01*
X80723384Y-68066199D01*
X80718592Y-68081996D01*
X80667524Y-68177539D01*
X80598790Y-68261290D01*
X80515039Y-68330024D01*
X80419498Y-68381091D01*
X80392518Y-68389275D01*
X80315819Y-68412542D01*
X80243940Y-68419621D01*
X80208001Y-68423161D01*
X80208000Y-68423161D01*
X80100182Y-68412542D01*
X80023483Y-68389275D01*
X79996503Y-68381091D01*
X79900962Y-68330024D01*
X79817211Y-68261290D01*
X79748477Y-68177539D01*
X79697410Y-68081997D01*
X79692619Y-68066203D01*
X79683242Y-68043564D01*
X79669629Y-68023189D01*
X79652302Y-68005862D01*
X79631927Y-67992248D01*
X79609288Y-67982870D01*
X79585255Y-67978089D01*
X79560751Y-67978089D01*
X79536717Y-67982869D01*
X79514078Y-67992246D01*
X79493703Y-68005859D01*
X79476376Y-68023186D01*
X79462762Y-68043561D01*
X79453384Y-68066199D01*
X79448592Y-68081996D01*
X79397524Y-68177539D01*
X79328790Y-68261290D01*
X79245039Y-68330024D01*
X79149498Y-68381091D01*
X79122518Y-68389275D01*
X79045819Y-68412542D01*
X78973940Y-68419621D01*
X78938001Y-68423161D01*
X78938000Y-68423161D01*
X78830182Y-68412542D01*
X78753483Y-68389275D01*
X78726503Y-68381091D01*
X78630962Y-68330024D01*
X78547211Y-68261290D01*
X78478477Y-68177539D01*
X78427410Y-68081997D01*
X78422619Y-68066203D01*
X78413242Y-68043564D01*
X78399629Y-68023189D01*
X78382302Y-68005862D01*
X78361927Y-67992248D01*
X78339288Y-67982870D01*
X78315255Y-67978089D01*
X78290751Y-67978089D01*
X78266717Y-67982869D01*
X78244078Y-67992246D01*
X78223703Y-68005859D01*
X78206376Y-68023186D01*
X78192762Y-68043561D01*
X78183384Y-68066199D01*
X78178592Y-68081996D01*
X78127524Y-68177539D01*
X78058790Y-68261290D01*
X77975039Y-68330024D01*
X77879498Y-68381091D01*
X77852518Y-68389275D01*
X77775819Y-68412542D01*
X77703940Y-68419621D01*
X77668001Y-68423161D01*
X77668000Y-68423161D01*
X77560182Y-68412542D01*
X77483483Y-68389275D01*
X77456503Y-68381091D01*
X77360962Y-68330024D01*
X77277211Y-68261290D01*
X77208477Y-68177539D01*
X77157410Y-68081998D01*
X77145750Y-68043561D01*
X77125959Y-67978319D01*
X77118001Y-67897518D01*
X77118000Y-66243483D01*
X77125958Y-66162682D01*
X77157408Y-66059007D01*
X77157409Y-66059003D01*
X77208476Y-65963462D01*
X77208479Y-65963458D01*
X77277210Y-65879710D01*
X77303679Y-65857987D01*
X77360958Y-65810978D01*
X77456502Y-65759909D01*
X77483482Y-65751725D01*
X77560181Y-65728458D01*
X77632060Y-65721379D01*
X77667999Y-65717839D01*
X77668000Y-65717839D01*
X77775818Y-65728458D01*
X77775818Y-65728458D01*
G37*
G36*
X98664000Y-65444500D02*
X97964000Y-65444500D01*
X97964000Y-64344500D01*
X98664000Y-64344500D01*
X98664000Y-65444500D01*
X98664000Y-65444500D01*
G37*
G36*
X97164000Y-65444500D02*
X96464000Y-65444500D01*
X96464000Y-64344500D01*
X97164000Y-64344500D01*
X97164000Y-65444500D01*
X97164000Y-65444500D01*
G37*
G36*
X103260000Y-65444500D02*
X102560000Y-65444500D01*
X102560000Y-64344500D01*
X103260000Y-64344500D01*
X103260000Y-65444500D01*
X103260000Y-65444500D01*
G37*
G36*
X104760000Y-65444500D02*
X104060000Y-65444500D01*
X104060000Y-64344500D01*
X104760000Y-64344500D01*
X104760000Y-65444500D01*
X104760000Y-65444500D01*
G37*
G36*
X62786000Y-65018000D02*
X59386000Y-65018000D01*
X59386000Y-63818000D01*
X62786000Y-63818000D01*
X62786000Y-65018000D01*
X62786000Y-65018000D01*
G37*
G36*
X55986000Y-65018000D02*
X52586000Y-65018000D01*
X52586000Y-63818000D01*
X55986000Y-63818000D01*
X55986000Y-65018000D01*
X55986000Y-65018000D01*
G37*
G36*
X91993000Y-64428500D02*
X91293000Y-64428500D01*
X91293000Y-63328500D01*
X91993000Y-63328500D01*
X91993000Y-64428500D01*
X91993000Y-64428500D01*
G37*
G36*
X93493000Y-64428500D02*
X92793000Y-64428500D01*
X92793000Y-63328500D01*
X93493000Y-63328500D01*
X93493000Y-64428500D01*
X93493000Y-64428500D01*
G37*
G36*
X64906000Y-64238000D02*
X64206000Y-64238000D01*
X64206000Y-63138000D01*
X64906000Y-63138000D01*
X64906000Y-64238000D01*
X64906000Y-64238000D01*
G37*
G36*
X66406000Y-64238000D02*
X65706000Y-64238000D01*
X65706000Y-63138000D01*
X66406000Y-63138000D01*
X66406000Y-64238000D01*
X66406000Y-64238000D01*
G37*
G36*
X90430500Y-63454500D02*
X89330500Y-63454500D01*
X89330500Y-62754500D01*
X90430500Y-62754500D01*
X90430500Y-63454500D01*
X90430500Y-63454500D01*
G37*
G36*
X74174500Y-63454500D02*
X73074500Y-63454500D01*
X73074500Y-62754500D01*
X74174500Y-62754500D01*
X74174500Y-63454500D01*
X74174500Y-63454500D01*
G37*
G36*
X84842500Y-63454500D02*
X83742500Y-63454500D01*
X83742500Y-62754500D01*
X84842500Y-62754500D01*
X84842500Y-63454500D01*
X84842500Y-63454500D01*
G37*
G36*
X79254500Y-63454500D02*
X78154500Y-63454500D01*
X78154500Y-62754500D01*
X79254500Y-62754500D01*
X79254500Y-63454500D01*
X79254500Y-63454500D01*
G37*
G36*
X103210000Y-63206000D02*
X102210000Y-63206000D01*
X102210000Y-62106000D01*
X103210000Y-62106000D01*
X103210000Y-63206000D01*
X103210000Y-63206000D01*
G37*
G36*
X105110000Y-63206000D02*
X104110000Y-63206000D01*
X104110000Y-62106000D01*
X105110000Y-62106000D01*
X105110000Y-63206000D01*
X105110000Y-63206000D01*
G37*
G36*
X97114000Y-63206000D02*
X96114000Y-63206000D01*
X96114000Y-62106000D01*
X97114000Y-62106000D01*
X97114000Y-63206000D01*
X97114000Y-63206000D01*
G37*
G36*
X99014000Y-63206000D02*
X98014000Y-63206000D01*
X98014000Y-62106000D01*
X99014000Y-62106000D01*
X99014000Y-63206000D01*
X99014000Y-63206000D01*
G37*
G36*
X90430500Y-61954500D02*
X89330500Y-61954500D01*
X89330500Y-61254500D01*
X90430500Y-61254500D01*
X90430500Y-61954500D01*
X90430500Y-61954500D01*
G37*
G36*
X84842500Y-61954500D02*
X83742500Y-61954500D01*
X83742500Y-61254500D01*
X84842500Y-61254500D01*
X84842500Y-61954500D01*
X84842500Y-61954500D01*
G37*
G36*
X79254500Y-61954500D02*
X78154500Y-61954500D01*
X78154500Y-61254500D01*
X79254500Y-61254500D01*
X79254500Y-61954500D01*
X79254500Y-61954500D01*
G37*
G36*
X74174500Y-61954500D02*
X73074500Y-61954500D01*
X73074500Y-61254500D01*
X74174500Y-61254500D01*
X74174500Y-61954500D01*
X74174500Y-61954500D01*
G37*
G36*
X65056000Y-61623000D02*
X64056000Y-61623000D01*
X64056000Y-60673000D01*
X65056000Y-60673000D01*
X65056000Y-61623000D01*
X65056000Y-61623000D01*
G37*
G36*
X66556000Y-61623000D02*
X65556000Y-61623000D01*
X65556000Y-60673000D01*
X66556000Y-60673000D01*
X66556000Y-61623000D01*
X66556000Y-61623000D01*
G37*
G36*
X104160000Y-61206000D02*
X103160000Y-61206000D01*
X103160000Y-60106000D01*
X104160000Y-60106000D01*
X104160000Y-61206000D01*
X104160000Y-61206000D01*
G37*
G36*
X98064000Y-61206000D02*
X97064000Y-61206000D01*
X97064000Y-60106000D01*
X98064000Y-60106000D01*
X98064000Y-61206000D01*
X98064000Y-61206000D01*
G37*
G36*
X62786000Y-61018000D02*
X59386000Y-61018000D01*
X59386000Y-59818000D01*
X62786000Y-59818000D01*
X62786000Y-61018000D01*
X62786000Y-61018000D01*
G37*
G36*
X55986000Y-61018000D02*
X52586000Y-61018000D01*
X52586000Y-59818000D01*
X55986000Y-59818000D01*
X55986000Y-61018000D01*
X55986000Y-61018000D01*
G37*
G36*
X78843000Y-60515000D02*
X78003000Y-60515000D01*
X78003000Y-58315000D01*
X78843000Y-58315000D01*
X78843000Y-60515000D01*
X78843000Y-60515000D01*
G37*
G36*
X90019000Y-60515000D02*
X89179000Y-60515000D01*
X89179000Y-58315000D01*
X90019000Y-58315000D01*
X90019000Y-60515000D01*
X90019000Y-60515000D01*
G37*
G36*
X87479000Y-60515000D02*
X86639000Y-60515000D01*
X86639000Y-58315000D01*
X87479000Y-58315000D01*
X87479000Y-60515000D01*
X87479000Y-60515000D01*
G37*
G36*
X71223000Y-60515000D02*
X70383000Y-60515000D01*
X70383000Y-58315000D01*
X71223000Y-58315000D01*
X71223000Y-60515000D01*
X71223000Y-60515000D01*
G37*
G36*
X73763000Y-60515000D02*
X72923000Y-60515000D01*
X72923000Y-58315000D01*
X73763000Y-58315000D01*
X73763000Y-60515000D01*
X73763000Y-60515000D01*
G37*
G36*
X76303000Y-60515000D02*
X75463000Y-60515000D01*
X75463000Y-58315000D01*
X76303000Y-58315000D01*
X76303000Y-60515000D01*
X76303000Y-60515000D01*
G37*
G36*
X84656295Y-60330521D02*
X83816295Y-60330521D01*
X83816295Y-58130521D01*
X84656295Y-58130521D01*
X84656295Y-60330521D01*
X84656295Y-60330521D01*
G37*
G36*
X82116295Y-60330521D02*
X81276295Y-60330521D01*
X81276295Y-58130521D01*
X82116295Y-58130521D01*
X82116295Y-60330521D01*
X82116295Y-60330521D01*
G37*
G36*
X64906000Y-59793000D02*
X64206000Y-59793000D01*
X64206000Y-58693000D01*
X64906000Y-58693000D01*
X64906000Y-59793000D01*
X64906000Y-59793000D01*
G37*
G36*
X66406000Y-59793000D02*
X65706000Y-59793000D01*
X65706000Y-58693000D01*
X66406000Y-58693000D01*
X66406000Y-59793000D01*
X66406000Y-59793000D01*
G37*
G36*
X104660000Y-59418000D02*
X102660000Y-59418000D01*
X102660000Y-56718000D01*
X104660000Y-56718000D01*
X104660000Y-59418000D01*
X104660000Y-59418000D01*
G37*
G36*
X99072000Y-59418000D02*
X97072000Y-59418000D01*
X97072000Y-56718000D01*
X99072000Y-56718000D01*
X99072000Y-59418000D01*
X99072000Y-59418000D01*
G37*
G36*
X111213099Y-51147921D02*
X111412737Y-51187631D01*
X111976901Y-51421315D01*
X112484635Y-51760572D01*
X112916428Y-52192365D01*
X113255685Y-52700099D01*
X113489369Y-53264263D01*
X113608500Y-53863177D01*
X113608500Y-54473823D01*
X113489369Y-55072737D01*
X113255685Y-55636901D01*
X112916428Y-56144635D01*
X112484635Y-56576428D01*
X111976901Y-56915685D01*
X111412737Y-57149369D01*
X111213099Y-57189079D01*
X110813825Y-57268500D01*
X110203175Y-57268500D01*
X109803901Y-57189079D01*
X109604263Y-57149369D01*
X109040099Y-56915685D01*
X108532365Y-56576428D01*
X108100572Y-56144635D01*
X107761315Y-55636901D01*
X107527631Y-55072737D01*
X107408500Y-54473823D01*
X107408500Y-53863177D01*
X107527631Y-53264263D01*
X107761315Y-52700099D01*
X108100572Y-52192365D01*
X108532365Y-51760572D01*
X109040099Y-51421315D01*
X109604263Y-51187631D01*
X109803901Y-51147921D01*
X110203175Y-51068500D01*
X110813825Y-51068500D01*
X111213099Y-51147921D01*
X111213099Y-51147921D01*
G37*
G36*
X66406000Y-56618000D02*
X65706000Y-56618000D01*
X65706000Y-55518000D01*
X66406000Y-55518000D01*
X66406000Y-56618000D01*
X66406000Y-56618000D01*
G37*
G36*
X64906000Y-56618000D02*
X64206000Y-56618000D01*
X64206000Y-55518000D01*
X64906000Y-55518000D01*
X64906000Y-56618000D01*
X64906000Y-56618000D01*
G37*
G36*
X62786000Y-56128000D02*
X59386000Y-56128000D01*
X59386000Y-54928000D01*
X62786000Y-54928000D01*
X62786000Y-56128000D01*
X62786000Y-56128000D01*
G37*
G36*
X55986000Y-56128000D02*
X52586000Y-56128000D01*
X52586000Y-54928000D01*
X55986000Y-54928000D01*
X55986000Y-56128000D01*
X55986000Y-56128000D01*
G37*
G36*
X104660000Y-55418000D02*
X102660000Y-55418000D01*
X102660000Y-52718000D01*
X104660000Y-52718000D01*
X104660000Y-55418000D01*
X104660000Y-55418000D01*
G37*
G36*
X99072000Y-55418000D02*
X97072000Y-55418000D01*
X97072000Y-52718000D01*
X99072000Y-52718000D01*
X99072000Y-55418000D01*
X99072000Y-55418000D01*
G37*
G36*
X73763000Y-54215000D02*
X72923000Y-54215000D01*
X72923000Y-52015000D01*
X73763000Y-52015000D01*
X73763000Y-54215000D01*
X73763000Y-54215000D01*
G37*
G36*
X87479000Y-54215000D02*
X86639000Y-54215000D01*
X86639000Y-52015000D01*
X87479000Y-52015000D01*
X87479000Y-54215000D01*
X87479000Y-54215000D01*
G37*
G36*
X76303000Y-54215000D02*
X75463000Y-54215000D01*
X75463000Y-52015000D01*
X76303000Y-52015000D01*
X76303000Y-54215000D01*
X76303000Y-54215000D01*
G37*
G36*
X90019000Y-54215000D02*
X89179000Y-54215000D01*
X89179000Y-52015000D01*
X90019000Y-52015000D01*
X90019000Y-54215000D01*
X90019000Y-54215000D01*
G37*
G36*
X71223000Y-54215000D02*
X70383000Y-54215000D01*
X70383000Y-52015000D01*
X71223000Y-52015000D01*
X71223000Y-54215000D01*
X71223000Y-54215000D01*
G37*
G36*
X78843000Y-54215000D02*
X78003000Y-54215000D01*
X78003000Y-52015000D01*
X78843000Y-52015000D01*
X78843000Y-54215000D01*
X78843000Y-54215000D01*
G37*
G36*
X84656295Y-54030521D02*
X83816295Y-54030521D01*
X83816295Y-51830521D01*
X84656295Y-51830521D01*
X84656295Y-54030521D01*
X84656295Y-54030521D01*
G37*
G36*
X82116295Y-54030521D02*
X81276295Y-54030521D01*
X81276295Y-51830521D01*
X82116295Y-51830521D01*
X82116295Y-54030521D01*
X82116295Y-54030521D01*
G37*
G36*
X55986000Y-52128000D02*
X52586000Y-52128000D01*
X52586000Y-50928000D01*
X55986000Y-50928000D01*
X55986000Y-52128000D01*
X55986000Y-52128000D01*
G37*
G36*
X62786000Y-52128000D02*
X59386000Y-52128000D01*
X59386000Y-50928000D01*
X62786000Y-50928000D01*
X62786000Y-52128000D01*
X62786000Y-52128000D01*
G37*
G36*
X84815000Y-51269000D02*
X83715000Y-51269000D01*
X83715000Y-50569000D01*
X84815000Y-50569000D01*
X84815000Y-51269000D01*
X84815000Y-51269000D01*
G37*
G36*
X79227000Y-51269000D02*
X78127000Y-51269000D01*
X78127000Y-50569000D01*
X79227000Y-50569000D01*
X79227000Y-51269000D01*
X79227000Y-51269000D01*
G37*
G36*
X73639000Y-51269000D02*
X72539000Y-51269000D01*
X72539000Y-50569000D01*
X73639000Y-50569000D01*
X73639000Y-51269000D01*
X73639000Y-51269000D01*
G37*
G36*
X89895000Y-51269000D02*
X88795000Y-51269000D01*
X88795000Y-50569000D01*
X89895000Y-50569000D01*
X89895000Y-51269000D01*
X89895000Y-51269000D01*
G37*
G36*
X105226000Y-51072000D02*
X104126000Y-51072000D01*
X104126000Y-50372000D01*
X105226000Y-50372000D01*
X105226000Y-51072000D01*
X105226000Y-51072000D01*
G37*
G36*
X96590000Y-51072000D02*
X95490000Y-51072000D01*
X95490000Y-50372000D01*
X96590000Y-50372000D01*
X96590000Y-51072000D01*
X96590000Y-51072000D01*
G37*
G36*
X99680000Y-51030000D02*
X98980000Y-51030000D01*
X98980000Y-49930000D01*
X99680000Y-49930000D01*
X99680000Y-51030000D01*
X99680000Y-51030000D01*
G37*
G36*
X98180000Y-51030000D02*
X97480000Y-51030000D01*
X97480000Y-49930000D01*
X98180000Y-49930000D01*
X98180000Y-51030000D01*
X98180000Y-51030000D01*
G37*
G36*
X101470000Y-51030000D02*
X100770000Y-51030000D01*
X100770000Y-49930000D01*
X101470000Y-49930000D01*
X101470000Y-51030000D01*
X101470000Y-51030000D01*
G37*
G36*
X102970000Y-51030000D02*
X102270000Y-51030000D01*
X102270000Y-49930000D01*
X102970000Y-49930000D01*
X102970000Y-51030000D01*
X102970000Y-51030000D01*
G37*
G36*
X89895000Y-49769000D02*
X88795000Y-49769000D01*
X88795000Y-49069000D01*
X89895000Y-49069000D01*
X89895000Y-49769000D01*
X89895000Y-49769000D01*
G37*
G36*
X73639000Y-49769000D02*
X72539000Y-49769000D01*
X72539000Y-49069000D01*
X73639000Y-49069000D01*
X73639000Y-49769000D01*
X73639000Y-49769000D01*
G37*
G36*
X79227000Y-49769000D02*
X78127000Y-49769000D01*
X78127000Y-49069000D01*
X79227000Y-49069000D01*
X79227000Y-49769000D01*
X79227000Y-49769000D01*
G37*
G36*
X84815000Y-49769000D02*
X83715000Y-49769000D01*
X83715000Y-49069000D01*
X84815000Y-49069000D01*
X84815000Y-49769000D01*
X84815000Y-49769000D01*
G37*
G36*
X105226000Y-49572000D02*
X104126000Y-49572000D01*
X104126000Y-48872000D01*
X105226000Y-48872000D01*
X105226000Y-49572000D01*
X105226000Y-49572000D01*
G37*
G36*
X96590000Y-49572000D02*
X95490000Y-49572000D01*
X95490000Y-48872000D01*
X96590000Y-48872000D01*
X96590000Y-49572000D01*
X96590000Y-49572000D01*
G37*
G36*
X113424931Y-40181522D02*
X113594576Y-40232984D01*
X113750936Y-40316559D01*
X113887975Y-40429025D01*
X114000444Y-40566067D01*
X114084015Y-40722419D01*
X114135478Y-40892068D01*
X114148500Y-41024289D01*
X114148500Y-41712710D01*
X114135478Y-41844931D01*
X114084016Y-42014576D01*
X114084014Y-42014581D01*
X114014673Y-42144309D01*
X114000441Y-42170936D01*
X113887975Y-42307975D01*
X113750933Y-42420444D01*
X113594581Y-42504015D01*
X113424932Y-42555478D01*
X113248500Y-42572854D01*
X113072069Y-42555478D01*
X112902420Y-42504015D01*
X112746068Y-42420444D01*
X112609026Y-42307975D01*
X112496557Y-42170933D01*
X112412986Y-42014581D01*
X112361522Y-41844932D01*
X112348500Y-41712711D01*
X112348500Y-41024290D01*
X112361522Y-40892069D01*
X112412984Y-40722424D01*
X112496559Y-40566064D01*
X112609025Y-40429025D01*
X112746067Y-40316556D01*
X112902419Y-40232985D01*
X113072068Y-40181522D01*
X113248500Y-40164146D01*
X113424931Y-40181522D01*
X113424931Y-40181522D01*
G37*
G36*
X57544931Y-40181522D02*
X57714576Y-40232984D01*
X57870936Y-40316559D01*
X58007975Y-40429025D01*
X58120444Y-40566067D01*
X58204015Y-40722419D01*
X58255478Y-40892068D01*
X58268500Y-41024289D01*
X58268500Y-41712710D01*
X58255478Y-41844931D01*
X58204016Y-42014576D01*
X58204014Y-42014581D01*
X58134673Y-42144309D01*
X58120441Y-42170936D01*
X58007975Y-42307975D01*
X57870933Y-42420444D01*
X57714581Y-42504015D01*
X57544932Y-42555478D01*
X57368500Y-42572854D01*
X57192069Y-42555478D01*
X57022420Y-42504015D01*
X56866068Y-42420444D01*
X56729026Y-42307975D01*
X56616557Y-42170933D01*
X56532986Y-42014581D01*
X56481522Y-41844932D01*
X56468500Y-41712711D01*
X56468500Y-41024290D01*
X56481522Y-40892069D01*
X56532984Y-40722424D01*
X56616559Y-40566064D01*
X56729025Y-40429025D01*
X56866067Y-40316556D01*
X57022419Y-40232985D01*
X57192068Y-40181522D01*
X57368500Y-40164146D01*
X57544931Y-40181522D01*
X57544931Y-40181522D01*
G37*
G36*
X62624931Y-40181522D02*
X62794576Y-40232984D01*
X62950936Y-40316559D01*
X63087975Y-40429025D01*
X63200444Y-40566067D01*
X63284015Y-40722419D01*
X63335478Y-40892068D01*
X63348500Y-41024289D01*
X63348500Y-41712710D01*
X63335478Y-41844931D01*
X63284016Y-42014576D01*
X63284014Y-42014581D01*
X63214673Y-42144309D01*
X63200441Y-42170936D01*
X63087975Y-42307975D01*
X62950933Y-42420444D01*
X62794581Y-42504015D01*
X62624932Y-42555478D01*
X62448500Y-42572854D01*
X62272069Y-42555478D01*
X62102420Y-42504015D01*
X61946068Y-42420444D01*
X61809026Y-42307975D01*
X61696557Y-42170933D01*
X61612986Y-42014581D01*
X61561522Y-41844932D01*
X61548500Y-41712711D01*
X61548500Y-41024290D01*
X61561522Y-40892069D01*
X61612984Y-40722424D01*
X61696559Y-40566064D01*
X61809025Y-40429025D01*
X61946067Y-40316556D01*
X62102419Y-40232985D01*
X62272068Y-40181522D01*
X62448500Y-40164146D01*
X62624931Y-40181522D01*
X62624931Y-40181522D01*
G37*
G36*
X67704931Y-40181522D02*
X67874576Y-40232984D01*
X68030936Y-40316559D01*
X68167975Y-40429025D01*
X68280444Y-40566067D01*
X68364015Y-40722419D01*
X68415478Y-40892068D01*
X68428500Y-41024289D01*
X68428500Y-41712710D01*
X68415478Y-41844931D01*
X68364016Y-42014576D01*
X68364014Y-42014581D01*
X68294673Y-42144309D01*
X68280441Y-42170936D01*
X68167975Y-42307975D01*
X68030933Y-42420444D01*
X67874581Y-42504015D01*
X67704932Y-42555478D01*
X67528500Y-42572854D01*
X67352069Y-42555478D01*
X67182420Y-42504015D01*
X67026068Y-42420444D01*
X66889026Y-42307975D01*
X66776557Y-42170933D01*
X66692986Y-42014581D01*
X66641522Y-41844932D01*
X66628500Y-41712711D01*
X66628500Y-41024290D01*
X66641522Y-40892069D01*
X66692984Y-40722424D01*
X66776559Y-40566064D01*
X66889025Y-40429025D01*
X67026067Y-40316556D01*
X67182419Y-40232985D01*
X67352068Y-40181522D01*
X67528500Y-40164146D01*
X67704931Y-40181522D01*
X67704931Y-40181522D01*
G37*
G36*
X72784931Y-40181522D02*
X72954576Y-40232984D01*
X73110936Y-40316559D01*
X73247975Y-40429025D01*
X73360444Y-40566067D01*
X73444015Y-40722419D01*
X73495478Y-40892068D01*
X73508500Y-41024289D01*
X73508500Y-41712710D01*
X73495478Y-41844931D01*
X73444016Y-42014576D01*
X73444014Y-42014581D01*
X73374673Y-42144309D01*
X73360441Y-42170936D01*
X73247975Y-42307975D01*
X73110933Y-42420444D01*
X72954581Y-42504015D01*
X72784932Y-42555478D01*
X72608500Y-42572854D01*
X72432069Y-42555478D01*
X72262420Y-42504015D01*
X72106068Y-42420444D01*
X71969026Y-42307975D01*
X71856557Y-42170933D01*
X71772986Y-42014581D01*
X71721522Y-41844932D01*
X71708500Y-41712711D01*
X71708500Y-41024290D01*
X71721522Y-40892069D01*
X71772984Y-40722424D01*
X71856559Y-40566064D01*
X71969025Y-40429025D01*
X72106067Y-40316556D01*
X72262419Y-40232985D01*
X72432068Y-40181522D01*
X72608500Y-40164146D01*
X72784931Y-40181522D01*
X72784931Y-40181522D01*
G37*
G36*
X77864931Y-40181522D02*
X78034576Y-40232984D01*
X78190936Y-40316559D01*
X78327975Y-40429025D01*
X78440444Y-40566067D01*
X78524015Y-40722419D01*
X78575478Y-40892068D01*
X78588500Y-41024289D01*
X78588500Y-41712710D01*
X78575478Y-41844931D01*
X78524016Y-42014576D01*
X78524014Y-42014581D01*
X78454673Y-42144309D01*
X78440441Y-42170936D01*
X78327975Y-42307975D01*
X78190933Y-42420444D01*
X78034581Y-42504015D01*
X77864932Y-42555478D01*
X77688500Y-42572854D01*
X77512069Y-42555478D01*
X77342420Y-42504015D01*
X77186068Y-42420444D01*
X77049026Y-42307975D01*
X76936557Y-42170933D01*
X76852986Y-42014581D01*
X76801522Y-41844932D01*
X76788500Y-41712711D01*
X76788500Y-41024290D01*
X76801522Y-40892069D01*
X76852984Y-40722424D01*
X76936559Y-40566064D01*
X77049025Y-40429025D01*
X77186067Y-40316556D01*
X77342419Y-40232985D01*
X77512068Y-40181522D01*
X77688500Y-40164146D01*
X77864931Y-40181522D01*
X77864931Y-40181522D01*
G37*
G36*
X82944931Y-40181522D02*
X83114576Y-40232984D01*
X83270936Y-40316559D01*
X83407975Y-40429025D01*
X83520444Y-40566067D01*
X83604015Y-40722419D01*
X83655478Y-40892068D01*
X83668500Y-41024289D01*
X83668500Y-41712710D01*
X83655478Y-41844931D01*
X83604016Y-42014576D01*
X83604014Y-42014581D01*
X83534673Y-42144309D01*
X83520441Y-42170936D01*
X83407975Y-42307975D01*
X83270933Y-42420444D01*
X83114581Y-42504015D01*
X82944932Y-42555478D01*
X82768500Y-42572854D01*
X82592069Y-42555478D01*
X82422420Y-42504015D01*
X82266068Y-42420444D01*
X82129026Y-42307975D01*
X82016557Y-42170933D01*
X81932986Y-42014581D01*
X81881522Y-41844932D01*
X81868500Y-41712711D01*
X81868500Y-41024290D01*
X81881522Y-40892069D01*
X81932984Y-40722424D01*
X82016559Y-40566064D01*
X82129025Y-40429025D01*
X82266067Y-40316556D01*
X82422419Y-40232985D01*
X82592068Y-40181522D01*
X82768500Y-40164146D01*
X82944931Y-40181522D01*
X82944931Y-40181522D01*
G37*
G36*
X108344931Y-40181522D02*
X108514576Y-40232984D01*
X108670936Y-40316559D01*
X108807975Y-40429025D01*
X108920444Y-40566067D01*
X109004015Y-40722419D01*
X109055478Y-40892068D01*
X109068500Y-41024289D01*
X109068500Y-41712710D01*
X109055478Y-41844931D01*
X109004016Y-42014576D01*
X109004014Y-42014581D01*
X108934673Y-42144309D01*
X108920441Y-42170936D01*
X108807975Y-42307975D01*
X108670933Y-42420444D01*
X108514581Y-42504015D01*
X108344932Y-42555478D01*
X108168500Y-42572854D01*
X107992069Y-42555478D01*
X107822420Y-42504015D01*
X107666068Y-42420444D01*
X107529026Y-42307975D01*
X107416557Y-42170933D01*
X107332986Y-42014581D01*
X107281522Y-41844932D01*
X107268500Y-41712711D01*
X107268500Y-41024290D01*
X107281522Y-40892069D01*
X107332984Y-40722424D01*
X107416559Y-40566064D01*
X107529025Y-40429025D01*
X107666067Y-40316556D01*
X107822419Y-40232985D01*
X107992068Y-40181522D01*
X108168500Y-40164146D01*
X108344931Y-40181522D01*
X108344931Y-40181522D01*
G37*
G36*
X103264931Y-40181522D02*
X103434576Y-40232984D01*
X103590936Y-40316559D01*
X103727975Y-40429025D01*
X103840444Y-40566067D01*
X103924015Y-40722419D01*
X103975478Y-40892068D01*
X103988500Y-41024289D01*
X103988500Y-41712710D01*
X103975478Y-41844931D01*
X103924016Y-42014576D01*
X103924014Y-42014581D01*
X103854673Y-42144309D01*
X103840441Y-42170936D01*
X103727975Y-42307975D01*
X103590933Y-42420444D01*
X103434581Y-42504015D01*
X103264932Y-42555478D01*
X103088500Y-42572854D01*
X102912069Y-42555478D01*
X102742420Y-42504015D01*
X102586068Y-42420444D01*
X102449026Y-42307975D01*
X102336557Y-42170933D01*
X102252986Y-42014581D01*
X102201522Y-41844932D01*
X102188500Y-41712711D01*
X102188500Y-41024290D01*
X102201522Y-40892069D01*
X102252984Y-40722424D01*
X102336559Y-40566064D01*
X102449025Y-40429025D01*
X102586067Y-40316556D01*
X102742419Y-40232985D01*
X102912068Y-40181522D01*
X103088500Y-40164146D01*
X103264931Y-40181522D01*
X103264931Y-40181522D01*
G37*
G36*
X98184931Y-40181522D02*
X98354576Y-40232984D01*
X98510936Y-40316559D01*
X98647975Y-40429025D01*
X98760444Y-40566067D01*
X98844015Y-40722419D01*
X98895478Y-40892068D01*
X98908500Y-41024289D01*
X98908500Y-41712710D01*
X98895478Y-41844931D01*
X98844016Y-42014576D01*
X98844014Y-42014581D01*
X98774673Y-42144309D01*
X98760441Y-42170936D01*
X98647975Y-42307975D01*
X98510933Y-42420444D01*
X98354581Y-42504015D01*
X98184932Y-42555478D01*
X98008500Y-42572854D01*
X97832069Y-42555478D01*
X97662420Y-42504015D01*
X97506068Y-42420444D01*
X97369026Y-42307975D01*
X97256557Y-42170933D01*
X97172986Y-42014581D01*
X97121522Y-41844932D01*
X97108500Y-41712711D01*
X97108500Y-41024290D01*
X97121522Y-40892069D01*
X97172984Y-40722424D01*
X97256559Y-40566064D01*
X97369025Y-40429025D01*
X97506067Y-40316556D01*
X97662419Y-40232985D01*
X97832068Y-40181522D01*
X98008500Y-40164146D01*
X98184931Y-40181522D01*
X98184931Y-40181522D01*
G37*
G36*
X93104931Y-40181522D02*
X93274576Y-40232984D01*
X93430936Y-40316559D01*
X93567975Y-40429025D01*
X93680444Y-40566067D01*
X93764015Y-40722419D01*
X93815478Y-40892068D01*
X93828500Y-41024289D01*
X93828500Y-41712710D01*
X93815478Y-41844931D01*
X93764016Y-42014576D01*
X93764014Y-42014581D01*
X93694673Y-42144309D01*
X93680441Y-42170936D01*
X93567975Y-42307975D01*
X93430933Y-42420444D01*
X93274581Y-42504015D01*
X93104932Y-42555478D01*
X92928500Y-42572854D01*
X92752069Y-42555478D01*
X92582420Y-42504015D01*
X92426068Y-42420444D01*
X92289026Y-42307975D01*
X92176557Y-42170933D01*
X92092986Y-42014581D01*
X92041522Y-41844932D01*
X92028500Y-41712711D01*
X92028500Y-41024290D01*
X92041522Y-40892069D01*
X92092984Y-40722424D01*
X92176559Y-40566064D01*
X92289025Y-40429025D01*
X92426067Y-40316556D01*
X92582419Y-40232985D01*
X92752068Y-40181522D01*
X92928500Y-40164146D01*
X93104931Y-40181522D01*
X93104931Y-40181522D01*
G37*
G36*
X88024931Y-40181522D02*
X88194576Y-40232984D01*
X88350936Y-40316559D01*
X88487975Y-40429025D01*
X88600444Y-40566067D01*
X88684015Y-40722419D01*
X88735478Y-40892068D01*
X88748500Y-41024289D01*
X88748500Y-41712710D01*
X88735478Y-41844931D01*
X88684016Y-42014576D01*
X88684014Y-42014581D01*
X88614673Y-42144309D01*
X88600441Y-42170936D01*
X88487975Y-42307975D01*
X88350933Y-42420444D01*
X88194581Y-42504015D01*
X88024932Y-42555478D01*
X87848500Y-42572854D01*
X87672069Y-42555478D01*
X87502420Y-42504015D01*
X87346068Y-42420444D01*
X87209026Y-42307975D01*
X87096557Y-42170933D01*
X87012986Y-42014581D01*
X86961522Y-41844932D01*
X86948500Y-41712711D01*
X86948500Y-41024290D01*
X86961522Y-40892069D01*
X87012984Y-40722424D01*
X87096559Y-40566064D01*
X87209025Y-40429025D01*
X87346067Y-40316556D01*
X87502419Y-40232985D01*
X87672068Y-40181522D01*
X87848500Y-40164146D01*
X88024931Y-40181522D01*
X88024931Y-40181522D01*
G37*
M02*
